0
SECTION
2
HEADER
9
$INSUNITS
70
4
9
$ACADVER
1
AC1014
9
$HANDSEED
5
FFFF
0
ENDSEC
0
SECTION
2
TABLES
0
TABLE
2
VPORT
5
8
100
AcDbSymbolTable
0
ENDTAB
0
TABLE
2
LTYPE
5
5
100
AcDbSymbolTable
0
LTYPE
5
14
100
AcDbSymbolTableRecord
100
AcDbLinetypeTableRecord
2
BYBLOCK
70
0
0
LTYPE
5
15
100
AcDbSymbolTableRecord
100
AcDbLinetypeTableRecord
2
BYLAYER
70
0
0
ENDTAB
0
TABLE
2
LAYER
5
2
100
AcDbSymbolTable
70
2
0
LAYER
5
50
100
AcDbSymbolTableRecord
100
AcDbLayerTableRecord
2
0
70
0
6
CONTINUOUS
0
ENDTAB
0
TABLE
2
STYLE
5
3
100
AcDbSymbolTable
70
1
0
STYLE
5
11
100
AcDbSymbolTableRecord
100
AcDbTextStyleTableRecord
2
STANDARD
70
0
0
ENDTAB
0
TABLE
2
VIEW
5
6
100
AcDbSymbolTable
70
0
0
ENDTAB
0
TABLE
2
UCS
5
7
100
AcDbSymbolTable
70
0
0
ENDTAB
0
TABLE
2
APPID
5
9
100
AcDbSymbolTable
70
2
0
APPID
5
12
100
AcDbSymbolTableRecord
100
AcDbRegAppTableRecord
2
ACAD
70
0
0
ENDTAB
0
TABLE
2
DIMSTYLE
5
A
100
AcDbSymbolTable
70
1
0
ENDTAB
0
TABLE
2
BLOCK_RECORD
5
1
100
AcDbSymbolTable
70
1
0
BLOCK_RECORD
5
1F
100
AcDbSymbolTableRecord
100
AcDbBlockTableRecord
2
*MODEL_SPACE
0
BLOCK_RECORD
5
1B
100
AcDbSymbolTableRecord
100
AcDbBlockTableRecord
2
*PAPER_SPACE
0
ENDTAB
0
ENDSEC
0
SECTION
2
BLOCKS
0
BLOCK
5
20
100
AcDbEntity
100
AcDbBlockBegin
2
*MODEL_SPACE
0
ENDBLK
5
21
100
AcDbEntity
100
AcDbBlockEnd
0
BLOCK
5
1C
100
AcDbEntity
100
AcDbBlockBegin
2
*PAPER_SPACE
0
ENDBLK
5
1D
100
AcDbEntity
100
AcDbBlockEnd
0
ENDSEC
0
SECTION
2
ENTITIES
0
LWPOLYLINE
5
100
100
AcDbEntity
8
0
100
AcDbPolyline
90
6
70
1
43
0.0
10
99
20
0
10
0
20
0
10
0
20
64.999999999999986
10
99
20
65
42
-0.41421356237309503
10
114
20
50
10
113.99999999999999
20
15.000000000000002
42
-0.41421356237309465
0
CIRCLE
5
101
100
AcDbEntity
8
0
100
AcDbCircle
10
59.999999959303693
20
32.497790122475521
30
0
40
11.15
210
0
220
0
230
1
0
CIRCLE
5
102
100
AcDbEntity
8
0
100
AcDbCircle
10
59.999999959303693
20
32.497790122475521
30
0
40
10
210
0
220
0
230
1
0
CIRCLE
5
103
100
AcDbEntity
8
0
100
AcDbCircle
10
59.999999959303693
20
32.497790122475521
30
0
40
14.000000000000002
210
0
220
0
230
1
0
CIRCLE
5
104
100
AcDbEntity
8
0
100
AcDbCircle
10
54.557639148602291
20
5.9182761808519775
30
0
40
5.0000000000000009
210
0
220
0
230
1
0
CIRCLE
5
105
100
AcDbEntity
8
0
100
AcDbCircle
10
54.553564009456217
20
59.117309944842276
30
0
40
5
210
0
220
0
230
1
0
CIRCLE
5
106
100
AcDbEntity
8
0
100
AcDbCircle
10
23.39931941201813
20
48.100366375100265
30
0
40
4.5
210
0
220
0
230
1
0
CIRCLE
5
107
100
AcDbEntity
8
0
100
AcDbCircle
10
23.399741903488245
20
16.900366377960822
30
0
40
4.5
210
0
220
0
230
1
0
CIRCLE
5
108
100
AcDbEntity
8
0
100
AcDbCircle
10
39
20
32.499999999999993
30
0
40
11
210
0
220
0
230
1
0
CIRCLE
5
109
100
AcDbEntity
8
0
100
AcDbCircle
10
23.39931941201813
20
48.100366375100265
30
0
40
2.3500000000000001
210
0
220
0
230
1
0
CIRCLE
5
110
100
AcDbEntity
8
0
100
AcDbCircle
10
23.399741903488245
20
16.900366377960822
30
0
40
2.3500000000000001
210
0
220
0
230
1
0
CIRCLE
5
111
100
AcDbEntity
8
0
100
AcDbCircle
10
54.557639148602291
20
5.9182761808519775
30
0
40
1.5000000000000002
210
0
220
0
230
1
0
CIRCLE
5
112
100
AcDbEntity
8
0
100
AcDbCircle
10
54.553564009456217
20
59.117309944842276
30
0
40
1.5000000000000002
210
0
220
0
230
1
0
CIRCLE
5
113
100
AcDbEntity
8
0
100
AcDbCircle
10
54.599319408982169
20
48.100801627088508
30
0
40
2.3500000000000001
210
0
220
0
230
1
0
LINE
5
114
100
AcDbEntity
8
0
100
AcDbLine
10
23.399741903488245
20
16.900366377960822
30
0
11
54.599741898673187
21
16.90091451939632
31
0
0
CIRCLE
5
115
100
AcDbEntity
8
0
100
AcDbCircle
10
54.599741898673187
20
16.90091451939632
30
0
40
2.3500000000000001
210
0
220
0
230
1
0
LINE
5
116
100
AcDbEntity
8
0
100
AcDbLine
10
59.553563222019307
20
59.120116075255154
30
0
11
59.55763913392849
21
5.9186592447885724
31
0
0
SPLINE
5
117
100
AcDbEntity
8
0
100
AcDbSpline
70
4
71
5
72
21
73
15
74
0
42
0.000000001
43
0.0000000001
44
0.0000000001
40
0
40
0
40
0
40
0
40
0
40
0
40
0.10000000000000001
40
0.20000000000000001
40
0.30000000000000004
40
0.40000000000000002
40
0.5
40
0.59999999999999998
40
0.69999999999999996
40
0.79999999999999993
40
0.89999999999999991
40
1
40
1
40
1
40
1
40
1
40
1
41
1
41
1
41
1
41
1
41
1
41
1
41
1
41
1
41
1
41
1
41
1
41
1
41
1
41
1
41
1
10
49.556071649691937
20
36.402513091354436
30
0
10
49.628173376223337
20
36.246324352787695
30
0
10
49.765925129888188
20
35.933961740687572
30
0
10
49.953198253719428
20
35.465462416281568
30
0
10
50.163544771007899
20
34.840887318142144
30
0
10
50.356553067253593
20
34.060322201820256
30
0
10
50.473716592716571
20
33.279902067629877
30
0
10
50.50950147891534
20
32.499593875745994
30
0
10
50.461692179805013
20
31.719324525230647
30
0
10
50.335504636782645
20
30.938961761322318
30
0
10
50.139318027694948
20
30.158343589311215
30
0
10
49.93310452244458
20
29.533514658699531
30
0
10
49.753527230753789
20
29.064645973314299
30
0
10
49.623058135805074
20
28.751949076878635
30
0
10
49.555135797849374
20
28.595571183363244
30
0
0
LINE
5
118
100
AcDbEntity
8
0
100
AcDbLine
10
49.553564039925568
20
59.116757954281674
30
0
11
49.556071649691958
21
36.402513091354407
31
0
0
LINE
5
119
100
AcDbEntity
8
0
100
AcDbLine
10
49.557639549451366
20
5.9162740592596377
30
0
11
49.555135797849374
21
28.595571183363244
31
0
0
LINE
5
120
100
AcDbEntity
8
0
100
AcDbLine
10
58.064362311638114
20
55.557212294300157
30
0
11
58.064362311638121
21
9.4823879436658238
31
0
0
LINE
5
121
100
AcDbEntity
8
0
100
AcDbLine
10
51.047036077527189
20
55.553006105015818
30
0
11
51.047845528557673
21
9.4793643213919339
31
0
0
LWPOLYLINE
5
122
100
AcDbEntity
8
0
100
AcDbPolyline
90
6
70
1
43
0.0
10
112
20
15.000000000000002
42
-0.41421356237309459
10
99
20
1.9999999999999996
10
2
20
2.0000000000000018
10
1.9999999999999929
20
62.999999999999986
10
99
20
63.000000000000007
42
-0.41421356237309503
10
112.00000000000001
20
50
0
LINE
5
123
100
AcDbEntity
8
0
100
AcDbLine
10
1.9999999999999929
20
62.999999999999986
30
0
11
6.9999999999999929
21
62.999999999999986
31
0
0
LINE
5
124
100
AcDbEntity
8
0
100
AcDbLine
10
1.9999999999999929
20
62.999999999999986
30
0
11
1.9999999999999933
21
57.999999999999986
31
0
0
CIRCLE
5
125
100
AcDbEntity
8
0
100
AcDbCircle
10
6.9999999999999929
20
57.999999999999986
30
0
40
1.5874999999999999
210
0
220
0
230
1
0
CIRCLE
5
126
100
AcDbEntity
8
0
100
AcDbCircle
10
6.9999999999999929
20
6.999999999999984
30
0
40
1.5874999999999999
210
0
220
0
230
1
0
CIRCLE
5
127
100
AcDbEntity
8
0
100
AcDbCircle
10
97
20
57.999999999999986
30
0
40
1.5874999999999999
210
0
220
0
230
1
0
CIRCLE
5
128
100
AcDbEntity
8
0
100
AcDbCircle
10
97
20
6.999999999999984
30
0
40
1.5874999999999999
210
0
220
0
230
1
0
LWPOLYLINE
5
129
100
AcDbEntity
8
0
100
AcDbPolyline
90
6
70
1
43
0.0
10
-170
20
0
10
-170
20
64.999999999999986
10
-71
20
65
42
-0.41421356237309503
10
-56
20
50
10
-56.000000000000014
20
15.000000000000002
42
-0.41421356237309465
10
-71
20
0
0
CIRCLE
5
130
100
AcDbEntity
8
0
100
AcDbCircle
10
-163
20
57.999999999999986
30
0
40
2.3499999999999996
210
0
220
0
230
1
0
CIRCLE
5
131
100
AcDbEntity
8
0
100
AcDbCircle
10
-73
20
57.999999999999986
30
0
40
2.3499999999999996
210
0
220
0
230
1
0
CIRCLE
5
132
100
AcDbEntity
8
0
100
AcDbCircle
10
-73
20
6.999999999999984
30
0
40
2.3499999999999996
210
0
220
0
230
1
0
CIRCLE
5
133
100
AcDbEntity
8
0
100
AcDbCircle
10
-163
20
6.999999999999984
30
0
40
2.3499999999999996
210
0
220
0
230
1
0
LWPOLYLINE
5
134
100
AcDbEntity
8
0
100
AcDbPolyline
90
6
70
1
43
0.0
10
-71
20
2.1000000000000001
10
-167.89999999999998
20
2.0999999999999996
10
-167.89999999999998
20
62.899999999999991
10
-71
20
62.899999999999999
42
-0.41421356237309503
10
-58.099999999999994
20
50
10
-58.100000000000009
20
15.000000000000002
42
-0.41421356237309459
0
LWPOLYLINE
5
135
100
AcDbEntity
8
0
100
AcDbPolyline
90
144
70
1
43
0.0
10
-113.1869374358815
20
-56.972112205221151
10
-113.1924624481027
20
-56.976477356099984
10
-113.19522103724127
20
-56.980309593770812
10
-113.2744207603335
20
-56.980309593770812
10
-113.27213238131002
20
-56.979087041163353
10
-113.26830798152582
20
-56.975944442891979
10
-113.26515754536784
20
-56.972120027337382
10
-113.2628221469099
20
-56.967747038571943
10
-113.26138799501953
20
-56.963005716446943
10
-113.26090210913117
20
-56.958076300813659
10
-113.2613879950195
20
-56.953146900950777
10
-113.2628221469099
20
-56.948405578825778
10
-113.26515754536784
20
-56.944032574289942
10
-113.26830798152584
20
-56.940200336619128
10
-113.27213238131003
20
-56.937057738347754
10
-113.27650538584587
20
-56.934722339889809
10
-113.28124670797087
20
-56.933288187999437
10
-113.28617610783375
20
-56.932802302111092
10
-113.29110552346704
20
-56.933288187999437
10
-113.29584684559201
20
-56.934722339889809
10
-113.30021983435745
20
-56.937057738347754
10
-113.30405208779867
20
-56.940200336619128
10
-113.30719468607003
20
-56.944032574289949
10
-113.30903635286785
20
-56.947480818598379
10
-113.30903635286785
20
-56.866972330088572
10
-113.30453797368702
20
-56.863735689005665
10
-113.30017282280819
20
-56.85820283889786
10
-113.29634056936698
20
-56.85075778101276
10
-113.29319797109561
20
-56.841690485614194
10
-113.29086258052286
20
-56.831337940429179
10
-113.28942059863107
20
-56.820107661350782
10
-113.28893469697233
20
-56.808430678424493
10
-113.28942059863107
20
-56.796753695498687
10
-113.29086258052286
20
-56.785523415434646
10
-113.29319797109561
20
-56.775178708136238
10
-113.29634056936698
20
-56.766103574851059
10
-113.30017282280819
20
-56.758658516965966
10
-113.30453797368702
20
-56.753125666858168
10
-113.30903635286785
20
-56.74989686366186
10
-113.30903635286786
20
-56.669153270094498
10
-113.307288724939
20
-56.672429096667869
10
-113.3041461266676
20
-56.676253504337275
10
-113.30032172688342
20
-56.679403932610057
10
-113.29594873811799
20
-56.681739331068009
10
-113.29120740022259
20
-56.683173482958381
10
-113.28627800035969
20
-56.683659376731924
10
-113.2813485847264
20
-56.683173482958374
10
-113.27660726260143
20
-56.681739331068002
10
-113.27223427383599
20
-56.679403932610057
10
-113.26840202039477
20
-56.676253504337275
10
-113.26525942212341
20
-56.672429096667869
10
-113.26292403155065
20
-56.66805610790243
10
-113.26148987966027
20
-56.663314770007034
10
-113.26100398588673
20
-56.658385370144153
10
-113.26148987966027
20
-56.653455954510875
10
-113.26292403155065
20
-56.648714632385875
10
-113.26525942212341
20
-56.644341643620436
10
-113.26840202039477
20
-56.640509390179226
10
-113.27223427383599
20
-56.637366791907851
10
-113.27374679670727
20
-56.63655959997962
10
-113.19515050808958
20
-56.63655959997962
10
-113.1924624481027
20
-56.640297798781496
10
-113.1869374358815
20
-56.644670787546936
10
-113.1794923779964
20
-56.648503040988146
10
-113.17041724471123
20
-56.65164563925952
10
-113.16007253741283
20
-56.653981029832266
10
-113.14884225734879
20
-56.655415173837447
10
-113.13715743752154
20
-56.655901075496182
10
-113.12548045459572
20
-56.655415173837447
10
-113.11425017453168
20
-56.653981029832266
10
-113.10390546723328
20
-56.65164563925952
10
-113.09483033394811
20
-56.648503040988146
10
-113.087385276063
20
-56.644670787546936
10
-113.08185242595519
20
-56.640297798781496
10
-113.07917220385494
20
-56.63655959997962
10
-112.99983924851813
20
-56.63655959997962
10
-113.00135177138941
20
-56.637366791907851
10
-113.00518401694544
20
-56.640509390179226
10
-113.0083266152168
20
-56.644341643620436
10
-113.01066201367475
20
-56.648714632385868
10
-113.01210400345173
20
-56.653455954510868
10
-113.01258988934008
20
-56.65838537014416
10
-113.01210400345173
20
-56.663314770007041
10
-113.01066201367475
20
-56.66805610790243
10
-113.0083266152168
20
-56.672429096667869
10
-113.00518401694544
20
-56.676253504337275
10
-113.00135177138941
20
-56.679403932610057
10
-112.99698662051057
20
-56.681739331068009
10
-112.99224529838557
20
-56.683173482958381
10
-112.98731588275231
20
-56.683659376731924
10
-112.98237864500281
20
-56.683173482958374
10
-112.97763730710741
20
-56.681739331068002
10
-112.97327215622859
20
-56.679403932610057
10
-112.96943991855777
20
-56.676253504337275
10
-112.9662973202864
20
-56.672429096667869
10
-112.96534904639915
20
-56.670650117192579
10
-112.96548227470117
20
-56.749724449869404
10
-112.97022359682616
20
-56.753125666858153
10
-112.97459660136198
20
-56.758658516965966
10
-112.9784288390328
20
-56.766103574851066
10
-112.98157143730418
20
-56.775178708136231
10
-112.98390682787692
20
-56.785523415434639
10
-112.98534098765251
20
-56.796753695498687
10
-112.98582687354084
20
-56.8084306784245
10
-112.98534098765251
20
-56.820107661350789
10
-112.98390682787692
20
-56.831337940429179
10
-112.98157143730418
20
-56.841690485614194
10
-112.97842883903283
20
-56.85075778101276
10
-112.97459660136199
20
-56.85820283889786
10
-112.97022359682616
20
-56.863735689005665
10
-112.96528635907666
20
-56.867215273032734
10
-112.96528635907666
20
-56.947292725090087
10
-112.96702614911891
20
-56.944032574289942
10
-112.97016874739028
20
-56.940200336619128
10
-112.97400098506108
20
-56.937057738347754
10
-112.97836615171033
20
-56.934722339889809
10
-112.9831074738353
20
-56.933288187999437
10
-112.98803687369821
20
-56.932802302111092
10
-112.9929741272181
20
-56.933288187999437
10
-112.99771544934309
20
-56.934722339889809
10
-113.00208060022192
20
-56.937057738347754
10
-113.00591285366312
20
-56.940200336619128
10
-113.0090554519345
20
-56.944032574289942
10
-113.01139084250724
20
-56.948405578825778
10
-113.01283283228423
20
-56.953146900950777
10
-113.01331872605778
20
-56.958076300813659
10
-113.01283283228423
20
-56.963005716446943
10
-113.01139084250724
20
-56.967747038571943
10
-113.0090554519345
20
-56.972120027337382
10
-113.00591285366312
20
-56.975944442891979
10
-113.00208060022192
20
-56.979087041163353
10
-112.99979223696883
20
-56.980309593770812
10
-113.07910167470324
20
-56.980309593770798
10
-113.0818524259552
20
-56.976477356099991
10
-113.087385276063
20
-56.972112205221165
10
-113.09483033394811
20
-56.968279951779948
10
-113.10390546723328
20
-56.965137353508581
10
-113.11425017453168
20
-56.962801962935828
10
-113.12548045459572
20
-56.961359965273644
10
-113.13715743752154
20
-56.960874079385306
10
-113.14884225734879
20
-56.961359965273644
10
-113.16007253741283
20
-56.962801962935828
10
-113.17041724471123
20
-56.965137353508581
10
-113.1794923779964
20
-56.968279951779948
0
SPLINE
5
136
100
AcDbEntity
8
0
100
AcDbSpline
70
4
71
3
72
8
73
4
74
0
42
0.000000001
43
0.0000000001
44
0.0000000001
40
0
40
0
40
0
40
0
40
1
40
1
40
1
40
1
41
1
41
1
41
1
41
1
10
-113.14774135597226
20
-57.143327380985987
30
0
10
-113.01254665911372
20
-57.143327380985987
30
0
10
-112.90294969563858
20
-57.252924344461135
30
0
10
-112.90294969563858
20
-57.388119041319655
30
0
0
SPLINE
5
137
100
AcDbEntity
8
0
100
AcDbSpline
70
4
71
3
72
8
73
4
74
0
42
0.000000001
43
0.0000000001
44
0.0000000001
40
0
40
0
40
0
40
0
40
1
40
1
40
1
40
1
41
1
41
1
41
1
41
1
10
-112.90294969563858
20
-57.388119041319655
30
0
10
-112.90294969563858
20
-57.523313738178182
30
0
10
-113.01254665911372
20
-57.632910701653337
30
0
10
-113.14774135597226
20
-57.632910701653337
30
0
0
SPLINE
5
138
100
AcDbEntity
8
0
100
AcDbSpline
70
4
71
3
72
8
73
4
74
0
42
0.000000001
43
0.0000000001
44
0.0000000001
40
0
40
0
40
0
40
0
40
1
40
1
40
1
40
1
41
1
41
1
41
1
41
1
10
-113.14774135597226
20
-57.632910701653337
30
0
10
-113.28293605283078
20
-57.632910701653337
30
0
10
-113.39253301630592
20
-57.523313738178182
30
0
10
-113.39253301630592
20
-57.388119041319655
30
0
0
SPLINE
5
139
100
AcDbEntity
8
0
100
AcDbSpline
70
4
71
3
72
8
73
4
74
0
42
0.000000001
43
0.0000000001
44
0.0000000001
40
0
40
0
40
0
40
0
40
1
40
1
40
1
40
1
41
1
41
1
41
1
41
1
10
-113.39253301630592
20
-57.388119041319655
30
0
10
-113.39253301630592
20
-57.252924344461135
30
0
10
-113.28293605283078
20
-57.143327380985987
30
0
10
-113.14774135597226
20
-57.143327380985987
30
0
0
LWPOLYLINE
5
140
100
AcDbEntity
8
0
100
AcDbPolyline
90
4
70
1
43
0.0
10
-112.97065802822685
20
-57.565202369065062
10
-113.32482468371765
20
-57.565202369065062
10
-113.32482468371767
20
-57.211035713574262
10
-112.97065802822686
20
-57.211035713574262
0
SPLINE
5
141
100
AcDbEntity
8
0
100
AcDbSpline
70
4
71
3
72
8
73
4
74
0
42
0.000000001
43
0.0000000001
44
0.0000000001
40
0
40
0
40
0
40
0
40
1
40
1
40
1
40
1
41
1
41
1
41
1
41
1
10
-113.08606545202609
20
-57.204924175326546
30
0
10
-113.08606545202609
20
-57.219306590808699
30
0
10
-113.11367869322054
20
-57.230965841403375
30
0
10
-113.14774135597226
20
-57.230965841403375
30
0
0
SPLINE
5
142
100
AcDbEntity
8
0
100
AcDbSpline
70
4
71
3
72
8
73
4
74
0
42
0.000000001
43
0.0000000001
44
0.0000000001
40
0
40
0
40
0
40
0
40
1
40
1
40
1
40
1
41
1
41
1
41
1
41
1
10
-113.14774135597226
20
-57.230965841403375
30
0
10
-113.18180401872398
20
-57.230965841403375
30
0
10
-113.20941725991842
20
-57.219306590808699
30
0
10
-113.20941725991842
20
-57.204924175326546
30
0
0
SPLINE
5
143
100
AcDbEntity
8
0
100
AcDbSpline
70
4
71
3
72
8
73
4
74
0
42
0.000000001
43
0.0000000001
44
0.0000000001
40
0
40
0
40
0
40
0
40
1
40
1
40
1
40
1
41
1
41
1
41
1
41
1
10
-113.14774135597226
20
-57.545184375916385
30
0
10
-113.11367869322054
20
-57.545184375916385
30
0
10
-113.08606545202609
20
-57.556843626511061
30
0
10
-113.08606545202609
20
-57.571226041993214
30
0
0
SPLINE
5
144
100
AcDbEntity
8
0
100
AcDbSpline
70
4
71
3
72
8
73
4
74
0
42
0.000000001
43
0.0000000001
44
0.0000000001
40
0
40
0
40
0
40
0
40
1
40
1
40
1
40
1
41
1
41
1
41
1
41
1
10
-113.20941725991842
20
-57.571226041993214
30
0
10
-113.20941725991842
20
-57.556843626511061
30
0
10
-113.18180401872398
20
-57.545184375916385
30
0
10
-113.14774135597226
20
-57.545184375916385
30
0
0
SPLINE
5
145
100
AcDbEntity
8
0
100
AcDbSpline
70
4
71
3
72
8
73
4
74
0
42
0.000000001
43
0.0000000001
44
0.0000000001
40
0
40
0
40
0
40
0
40
1
40
1
40
1
40
1
41
1
41
1
41
1
41
1
10
-113.33016039537438
20
-57.326443137373502
30
0
10
-113.31577797989223
20
-57.326443137373502
30
0
10
-113.30411872929756
20
-57.354056378567932
30
0
10
-113.30411872929756
20
-57.388119041319655
30
0
0
SPLINE
5
146
100
AcDbEntity
8
0
100
AcDbSpline
70
4
71
3
72
8
73
4
74
0
42
0.000000001
43
0.0000000001
44
0.0000000001
40
0
40
0
40
0
40
0
40
1
40
1
40
1
40
1
41
1
41
1
41
1
41
1
10
-113.30411872929756
20
-57.388119041319655
30
0
10
-113.30411872929756
20
-57.422181704071384
30
0
10
-113.31577797989223
20
-57.449794945265822
30
0
10
-113.33016039537438
20
-57.449794945265822
30
0
0
SPLINE
5
147
100
AcDbEntity
8
0
100
AcDbSpline
70
4
71
3
72
8
73
4
74
0
42
0.000000001
43
0.0000000001
44
0.0000000001
40
0
40
0
40
0
40
0
40
1
40
1
40
1
40
1
41
1
41
1
41
1
41
1
10
-113.30137646708337
20
-57.207481241909491
30
0
10
-113.28699405160121
20
-57.207481241909491
30
0
10
-113.27533480100654
20
-57.219140492504167
30
0
10
-113.27533480100654
20
-57.233522907986327
30
0
0
SPLINE
5
148
100
AcDbEntity
8
0
100
AcDbSpline
70
4
71
3
72
8
73
4
74
0
42
0.000000001
43
0.0000000001
44
0.0000000001
40
0
40
0
40
0
40
0
40
1
40
1
40
1
40
1
41
1
41
1
41
1
41
1
10
-113.27533480100654
20
-57.233522907986327
30
0
10
-113.27533480100654
20
-57.24790532346848
30
0
10
-113.28699405160121
20
-57.259564574063155
30
0
10
-113.30137646708337
20
-57.259564574063155
30
0
0
SPLINE
5
149
100
AcDbEntity
8
0
100
AcDbSpline
70
4
71
3
72
8
73
4
74
0
42
0.000000001
43
0.0000000001
44
0.0000000001
40
0
40
0
40
0
40
0
40
1
40
1
40
1
40
1
41
1
41
1
41
1
41
1
10
-113.30137646708337
20
-57.259564574063155
30
0
10
-113.31575888256552
20
-57.259564574063155
30
0
10
-113.32741813316019
20
-57.24790532346848
30
0
10
-113.32741813316019
20
-57.233522907986327
30
0
0
SPLINE
5
150
100
AcDbEntity
8
0
100
AcDbSpline
70
4
71
3
72
8
73
4
74
0
42
0.000000001
43
0.0000000001
44
0.0000000001
40
0
40
0
40
0
40
0
40
1
40
1
40
1
40
1
41
1
41
1
41
1
41
1
10
-113.32741813316019
20
-57.233522907986327
30
0
10
-113.32741813316019
20
-57.219140492504167
30
0
10
-113.31575888256552
20
-57.207481241909491
30
0
10
-113.30137646708337
20
-57.207481241909491
30
0
0
SPLINE
5
151
100
AcDbEntity
8
0
100
AcDbSpline
70
4
71
3
72
8
73
4
74
0
42
0.000000001
43
0.0000000001
44
0.0000000001
40
0
40
0
40
0
40
0
40
1
40
1
40
1
40
1
41
1
41
1
41
1
41
1
10
-112.99335144486115
20
-57.207481241909491
30
0
10
-112.97896902937899
20
-57.207481241909491
30
0
10
-112.96730977878431
20
-57.219140492504167
30
0
10
-112.96730977878431
20
-57.233522907986327
30
0
0
SPLINE
5
152
100
AcDbEntity
8
0
100
AcDbSpline
70
4
71
3
72
8
73
4
74
0
42
0.000000001
43
0.0000000001
44
0.0000000001
40
0
40
0
40
0
40
0
40
1
40
1
40
1
40
1
41
1
41
1
41
1
41
1
10
-112.96730977878431
20
-57.233522907986327
30
0
10
-112.96730977878431
20
-57.24790532346848
30
0
10
-112.97896902937899
20
-57.259564574063155
30
0
10
-112.99335144486115
20
-57.259564574063155
30
0
0
SPLINE
5
153
100
AcDbEntity
8
0
100
AcDbSpline
70
4
71
3
72
8
73
4
74
0
42
0.000000001
43
0.0000000001
44
0.0000000001
40
0
40
0
40
0
40
0
40
1
40
1
40
1
40
1
41
1
41
1
41
1
41
1
10
-112.99335144486115
20
-57.259564574063155
30
0
10
-113.00773386034329
20
-57.259564574063155
30
0
10
-113.01939311093797
20
-57.24790532346848
30
0
10
-113.01939311093797
20
-57.233522907986327
30
0
0
SPLINE
5
154
100
AcDbEntity
8
0
100
AcDbSpline
70
4
71
3
72
8
73
4
74
0
42
0.000000001
43
0.0000000001
44
0.0000000001
40
0
40
0
40
0
40
0
40
1
40
1
40
1
40
1
41
1
41
1
41
1
41
1
10
-113.01939311093797
20
-57.233522907986327
30
0
10
-113.01939311093797
20
-57.219140492504167
30
0
10
-113.00773386034329
20
-57.207481241909491
30
0
10
-112.99335144486115
20
-57.207481241909491
30
0
0
SPLINE
5
155
100
AcDbEntity
8
0
100
AcDbSpline
70
4
71
3
72
8
73
4
74
0
42
0.000000001
43
0.0000000001
44
0.0000000001
40
0
40
0
40
0
40
0
40
1
40
1
40
1
40
1
41
1
41
1
41
1
41
1
10
-112.99410011152781
20
-57.516254930798389
30
0
10
-112.97971769604565
20
-57.516254930798389
30
0
10
-112.96805844545098
20
-57.527914181393065
30
0
10
-112.96805844545098
20
-57.542296596875218
30
0
0
SPLINE
5
156
100
AcDbEntity
8
0
100
AcDbSpline
70
4
71
3
72
8
73
4
74
0
42
0.000000001
43
0.0000000001
44
0.0000000001
40
0
40
0
40
0
40
0
40
1
40
1
40
1
40
1
41
1
41
1
41
1
41
1
10
-112.96805844545098
20
-57.542296596875218
30
0
10
-112.96805844545098
20
-57.556679012357378
30
0
10
-112.97971769604565
20
-57.568338262952054
30
0
10
-112.99410011152781
20
-57.568338262952054
30
0
0
SPLINE
5
157
100
AcDbEntity
8
0
100
AcDbSpline
70
4
71
3
72
8
73
4
74
0
42
0.000000001
43
0.0000000001
44
0.0000000001
40
0
40
0
40
0
40
0
40
1
40
1
40
1
40
1
41
1
41
1
41
1
41
1
10
-112.99410011152781
20
-57.568338262952054
30
0
10
-113.00848252700996
20
-57.568338262952054
30
0
10
-113.02014177760464
20
-57.556679012357378
30
0
10
-113.02014177760464
20
-57.542296596875218
30
0
0
SPLINE
5
158
100
AcDbEntity
8
0
100
AcDbSpline
70
4
71
3
72
8
73
4
74
0
42
0.000000001
43
0.0000000001
44
0.0000000001
40
0
40
0
40
0
40
0
40
1
40
1
40
1
40
1
41
1
41
1
41
1
41
1
10
-113.02014177760464
20
-57.542296596875218
30
0
10
-113.02014177760464
20
-57.527914181393065
30
0
10
-113.00848252700996
20
-57.516254930798389
30
0
10
-112.99410011152781
20
-57.516254930798389
30
0
0
SPLINE
5
159
100
AcDbEntity
8
0
100
AcDbSpline
70
4
71
3
72
8
73
4
74
0
42
0.000000001
43
0.0000000001
44
0.0000000001
40
0
40
0
40
0
40
0
40
1
40
1
40
1
40
1
41
1
41
1
41
1
41
1
10
-113.30127437819448
20
-57.516254930798389
30
0
10
-113.28689196271233
20
-57.516254930798389
30
0
10
-113.27523271211766
20
-57.527914181393065
30
0
10
-113.27523271211766
20
-57.542296596875218
30
0
0
SPLINE
5
160
100
AcDbEntity
8
0
100
AcDbSpline
70
4
71
3
72
8
73
4
74
0
42
0.000000001
43
0.0000000001
44
0.0000000001
40
0
40
0
40
0
40
0
40
1
40
1
40
1
40
1
41
1
41
1
41
1
41
1
10
-113.27523271211766
20
-57.542296596875218
30
0
10
-113.27523271211766
20
-57.556679012357364
30
0
10
-113.28689196271233
20
-57.568338262952039
30
0
10
-113.30127437819448
20
-57.568338262952039
30
0
0
SPLINE
5
161
100
AcDbEntity
8
0
100
AcDbSpline
70
4
71
3
72
8
73
4
74
0
42
0.000000001
43
0.0000000001
44
0.0000000001
40
0
40
0
40
0
40
0
40
1
40
1
40
1
40
1
41
1
41
1
41
1
41
1
10
-113.30127437819448
20
-57.568338262952039
30
0
10
-113.31565679367664
20
-57.568338262952039
30
0
10
-113.32731604427131
20
-57.556679012357364
30
0
10
-113.32731604427131
20
-57.542296596875218
30
0
0
SPLINE
5
162
100
AcDbEntity
8
0
100
AcDbSpline
70
4
71
3
72
8
73
4
74
0
42
0.000000001
43
0.0000000001
44
0.0000000001
40
0
40
0
40
0
40
0
40
1
40
1
40
1
40
1
41
1
41
1
41
1
41
1
10
-113.32731604427131
20
-57.542296596875218
30
0
10
-113.32731604427131
20
-57.527914181393065
30
0
10
-113.31565679367664
20
-57.516254930798389
30
0
10
-113.30127437819448
20
-57.516254930798389
30
0
0
SPLINE
5
163
100
AcDbEntity
8
0
100
AcDbSpline
70
4
71
3
72
8
73
4
74
0
42
0.000000001
43
0.0000000001
44
0.0000000001
40
0
40
0
40
0
40
0
40
1
40
1
40
1
40
1
41
1
41
1
41
1
41
1
10
-113.14309135597226
20
-55.989461825430439
30
0
10
-113.00789665911373
20
-55.989461825430439
30
0
10
-112.89829969563857
20
-56.09905878890558
30
0
10
-112.89829969563857
20
-56.234253485764107
30
0
0
SPLINE
5
164
100
AcDbEntity
8
0
100
AcDbSpline
70
4
71
3
72
8
73
4
74
0
42
0.000000001
43
0.0000000001
44
0.0000000001
40
0
40
0
40
0
40
0
40
1
40
1
40
1
40
1
41
1
41
1
41
1
41
1
10
-112.89829969563857
20
-56.234253485764107
30
0
10
-112.89829969563857
20
-56.369448182622634
30
0
10
-113.00789665911373
20
-56.479045146097775
30
0
10
-113.14309135597226
20
-56.479045146097775
30
0
0
SPLINE
5
165
100
AcDbEntity
8
0
100
AcDbSpline
70
4
71
3
72
8
73
4
74
0
42
0.000000001
43
0.0000000001
44
0.0000000001
40
0
40
0
40
0
40
0
40
1
40
1
40
1
40
1
41
1
41
1
41
1
41
1
10
-113.14309135597226
20
-56.479045146097775
30
0
10
-113.27828605283077
20
-56.479045146097775
30
0
10
-113.38788301630593
20
-56.369448182622634
30
0
10
-113.38788301630593
20
-56.234253485764107
30
0
0
SPLINE
5
166
100
AcDbEntity
8
0
100
AcDbSpline
70
4
71
3
72
8
73
4
74
0
42
0.000000001
43
0.0000000001
44
0.0000000001
40
0
40
0
40
0
40
0
40
1
40
1
40
1
40
1
41
1
41
1
41
1
41
1
10
-113.38788301630593
20
-56.234253485764107
30
0
10
-113.38788301630593
20
-56.09905878890558
30
0
10
-113.27828605283077
20
-55.989461825430439
30
0
10
-113.14309135597226
20
-55.989461825430439
30
0
0
LWPOLYLINE
5
167
100
AcDbEntity
8
0
100
AcDbPolyline
90
144
70
1
43
0.0
10
-113.19739253405507
20
-56.412810872385933
10
-113.20341982154822
20
-56.417572853729169
10
-113.2064291915176
20
-56.421753490979512
10
-113.29282889660475
20
-56.421753490979512
10
-113.29033247452256
20
-56.420419788623882
10
-113.28616040059701
20
-56.416991493865886
10
-113.2827235582846
20
-56.412819419940348
10
-113.28017585087593
20
-56.408048875272314
10
-113.27861133301036
20
-56.402876532465257
10
-113.27808127424396
20
-56.397498985270701
10
-113.27861133301036
20
-56.392121453846535
10
-113.28017585087593
20
-56.386949095269088
10
-113.2827235582846
20
-56.382178566371444
10
-113.28616040059701
20
-56.377997929121094
10
-113.29033247452256
20
-56.374569634363098
10
-113.29510301919059
20
-56.372021942724828
10
-113.30027537776803
20
-56.37045740908885
10
-113.30565290919222
20
-56.369927350322442
10
-113.31103045638677
20
-56.37045740908885
10
-113.3162027991938
20
-56.372021942724828
10
-113.32097334386185
20
-56.374569634363098
10
-113.3251539653418
20
-56.377997929121094
10
-113.32858226009982
20
-56.382178566371437
10
-113.33059136118766
20
-56.385940278833147
10
-113.33059136118766
20
-56.29811283252144
10
-113.32568402410821
20
-56.294581951340078
10
-113.32092204276499
20
-56.28854611234992
10
-113.31674142128504
20
-56.280424232454386
10
-113.31331312652705
20
-56.270532638190971
10
-113.31076541911838
20
-56.259238951280125
10
-113.30919233792798
20
-56.246987738188082
10
-113.30866227916158
20
-56.234249211090763
10
-113.30919233792798
20
-56.221510684800066
10
-113.31076541911838
20
-56.209259470722365
10
-113.31331312652705
20
-56.197974333337235
10
-113.31674142128504
20
-56.188074187576802
10
-113.32092204276499
20
-56.179952307681276
10
-113.32568402410821
20
-56.173916468691125
10
-113.33059136118766
20
-56.170394139006774
10
-113.33059136118764
20
-56.082310218751473
10
-113.32868484652317
20
-56.085883853475295
10
-113.32525656753555
20
-56.090055927400826
10
-113.32108447783963
20
-56.093492769713237
10
-113.316313948942
20
-56.096040477121903
10
-113.31114159036454
20
-56.097604994987485
10
-113.30576405894037
20
-56.098135053753893
10
-113.30038651174581
20
-56.097604994987485
10
-113.29521415316835
20
-56.096040477121903
10
-113.29044362427071
20
-56.093492769713237
10
-113.28626298702036
20
-56.090055927400826
10
-113.28283470803277
20
-56.085883853475295
10
-113.28028700062411
20
-56.081113308807254
10
-113.27872246698814
20
-56.075940950229807
10
-113.27819240822173
20
-56.070563418805641
10
-113.27872246698811
20
-56.065185871611078
10
-113.2802870006241
20
-56.060013528804021
10
-113.28283470803277
20
-56.055242984135987
10
-113.28626298702036
20
-56.05106236265604
10
-113.29044362427072
20
-56.047634067898031
10
-113.29209364922121
20
-56.046753480548695
10
-113.20635224775748
20
-56.046753480548702
10
-113.20341982154824
20
-56.050831531375678
10
-113.19739253405508
20
-56.05560206027333
10
-113.18927065415956
20
-56.059782697523666
10
-113.17937050839913
20
-56.063210976511272
10
-113.16808537101397
20
-56.065758683919938
10
-113.15583415693629
20
-56.067323217555924
10
-113.14308708129892
20
-56.067853276322325
10
-113.1303485550082
20
-56.067323217555924
10
-113.11809734093052
20
-56.065758683919938
10
-113.10681220354539
20
-56.063210976511286
10
-113.09691205778495
20
-56.059782697523673
10
-113.08879017788942
20
-56.055602060273337
10
-113.08275433889926
20
-56.050831531375678
10
-113.07983046418701
20
-56.046753480548695
10
-112.99328541913405
20
-56.046753480548702
10
-112.99493544408458
20
-56.047634067898038
10
-112.99911608133492
20
-56.05106236265604
10
-113.0025443760929
20
-56.055242984135987
10
-113.00509206773117
20
-56.060013528804021
10
-113.00666514892157
20
-56.065185871611078
10
-113.00719520768797
20
-56.070563418805641
10
-113.00666514892157
20
-56.075940950229807
10
-113.0050920677312
20
-56.081113308807254
10
-113.00254437609291
20
-56.085883853475295
10
-112.9991160813349
20
-56.090055927400826
10
-112.99493544408456
20
-56.093492769713237
10
-112.99017346274134
20
-56.096040477121903
10
-112.9850011041639
20
-56.097604994987485
10
-112.97962357273973
20
-56.098135053753893
10
-112.97423747799074
20
-56.097604994987485
10
-112.96906511941329
20
-56.096040477121903
10
-112.96430313807008
20
-56.093492769713237
10
-112.9601225165901
20
-56.090055927400826
10
-112.95669422183211
20
-56.085883853475302
10
-112.95565974696254
20
-56.08394314859315
10
-112.95580508692838
20
-56.17020605338368
10
-112.96097744550582
20
-56.173916468691118
10
-112.96574797440346
20
-56.17995230768129
10
-112.9699286116538
20
-56.188074187576817
10
-112.97335690641179
20
-56.197974333337235
10
-112.97590459805008
20
-56.209259470722365
10
-112.97746913168606
20
-56.221510684800073
10
-112.97799919045246
20
-56.23424921109077
10
-112.97746913168606
20
-56.246987738188082
10
-112.97590459805008
20
-56.259238951280125
10
-112.97335690641179
20
-56.270532638190986
10
-112.9699286116538
20
-56.280424232454394
10
-112.96574797440346
20
-56.28854611234992
10
-112.96097744550582
20
-56.294581951340078
10
-112.95559135075685
20
-56.298377861904648
10
-112.95559135075685
20
-56.385735090216045
10
-112.95748931786692
20
-56.382178566371444
10
-112.96091759685453
20
-56.377997929121094
10
-112.96509823410489
20
-56.374569634363098
10
-112.96986021544811
20
-56.372021942724828
10
-112.97503257402555
20
-56.37045740908885
10
-112.98041010544971
20
-56.369927350322442
10
-112.98579620019871
20
-56.37045740908885
10
-112.99096855877615
20
-56.372021942724828
10
-112.99573054011938
20
-56.374569634363098
10
-112.99991117736971
20
-56.377997929121094
10
-113.00333945635731
20
-56.382178566371437
10
-113.00588716376598
20
-56.386949095269081
10
-113.00746024495638
20
-56.392121453846535
10
-113.00799030372278
20
-56.397498985270701
10
-113.00746024495638
20
-56.402876532465257
10
-113.00588716376598
20
-56.408048875272314
10
-113.00333945635734
20
-56.412819419940348
10
-112.99991117736971
20
-56.416991493865893
10
-112.99573054011937
20
-56.420419788623889
10
-112.99323413380759
20
-56.421753490979512
10
-113.07975352042691
20
-56.421753490979512
10
-113.08275433889926
20
-56.417572853729169
10
-113.08879017788942
20
-56.412810872385947
10
-113.09691205778495
20
-56.408630235135597
10
-113.10681220354539
20
-56.405201956147984
10
-113.11809734093052
20
-56.402654248739317
10
-113.1303485550082
20
-56.401081167548938
10
-113.14308708129892
20
-56.400551108782523
10
-113.15583415693631
20
-56.401081167548938
10
-113.168085371014
20
-56.402654248739317
10
-113.17937050839913
20
-56.405201956147984
10
-113.18927065415956
20
-56.40863023513559
0
SPLINE
5
168
100
AcDbEntity
8
0
100
AcDbSpline
70
4
71
3
72
8
73
4
74
0
42
0.000000001
43
0.0000000001
44
0.0000000001
40
0
40
0
40
0
40
0
40
1
40
1
40
1
40
1
41
1
41
1
41
1
41
1
10
-113.13716135597225
20
-56.563642936541541
30
0
10
-113.00196665911373
20
-56.563642936541541
30
0
10
-112.89236969563858
20
-56.673239900016689
30
0
10
-112.89236969563858
20
-56.808434596875216
30
0
0
SPLINE
5
169
100
AcDbEntity
8
0
100
AcDbSpline
70
4
71
3
72
8
73
4
74
0
42
0.000000001
43
0.0000000001
44
0.0000000001
40
0
40
0
40
0
40
0
40
1
40
1
40
1
40
1
41
1
41
1
41
1
41
1
10
-112.89236969563858
20
-56.808434596875216
30
0
10
-112.89236969563858
20
-56.94362929373375
30
0
10
-113.00196665911373
20
-57.053226257208891
30
0
10
-113.13716135597225
20
-57.053226257208891
30
0
0
SPLINE
5
170
100
AcDbEntity
8
0
100
AcDbSpline
70
4
71
3
72
8
73
4
74
0
42
0.000000001
43
0.0000000001
44
0.0000000001
40
0
40
0
40
0
40
0
40
1
40
1
40
1
40
1
41
1
41
1
41
1
41
1
10
-113.13716135597225
20
-57.053226257208891
30
0
10
-113.27235605283079
20
-57.053226257208891
30
0
10
-113.38195301630593
20
-56.94362929373375
30
0
10
-113.38195301630593
20
-56.808434596875216
30
0
0
SPLINE
5
171
100
AcDbEntity
8
0
100
AcDbSpline
70
4
71
3
72
8
73
4
74
0
42
0.000000001
43
0.0000000001
44
0.0000000001
40
0
40
0
40
0
40
0
40
1
40
1
40
1
40
1
41
1
41
1
41
1
41
1
10
-113.38195301630593
20
-56.808434596875216
30
0
10
-113.38195301630593
20
-56.673239900016689
30
0
10
-113.27235605283079
20
-56.563642936541541
30
0
10
-113.13716135597225
20
-56.563642936541541
30
0
0
SPLINE
5
172
100
AcDbEntity
8
0
100
AcDbSpline
70
4
71
3
72
8
73
4
74
0
42
0.000000001
43
0.0000000001
44
0.0000000001
40
0
40
0
40
0
40
0
40
1
40
1
40
1
40
1
41
1
41
1
41
1
41
1
10
-112.99182290589565
20
-57.388119041319655
30
0
10
-112.99182290589565
20
-57.354056378567932
30
0
10
-112.98016365530097
20
-57.326443137373502
30
0
10
-112.96578123981882
20
-57.326443137373502
30
0
0
SPLINE
5
173
100
AcDbEntity
8
0
100
AcDbSpline
70
4
71
3
72
8
73
4
74
0
42
0.000000001
43
0.0000000001
44
0.0000000001
40
0
40
0
40
0
40
0
40
1
40
1
40
1
40
1
41
1
41
1
41
1
41
1
10
-112.96578123981882
20
-57.449794945265822
30
0
10
-112.98016365530097
20
-57.449794945265822
30
0
10
-112.99182290589565
20
-57.422181704071384
30
0
10
-112.99182290589565
20
-57.388119041319655
30
0
0
LINE
5
174
100
AcDbEntity
8
0
100
AcDbLine
10
10.999999999999993
20
6.999999999999984
30
0
11
10.999999999999993
21
1.9999999999999998
31
0
0
LINE
5
175
100
AcDbEntity
8
0
100
AcDbLine
10
6.9999999999999929
20
10.999999999999986
30
0
11
2.0000000000000067
21
10.999999999999982
31
0
0
ARC
5
176
100
AcDbEntity
8
0
100
AcDbCircle
10
6.9999999999999929
20
6.999999999999984
30
0
40
3.9999999999999991
210
0
220
0
230
1
100
AcDbArc
50
0
51
90
0
LINE
5
177
100
AcDbEntity
8
0
100
AcDbLine
10
6.9999999999999929
20
53.999999999999986
30
0
11
2.0000000000000013
21
53.999999999999986
31
0
0
LINE
5
178
100
AcDbEntity
8
0
100
AcDbLine
10
10.999999999999993
20
57.999999999999986
30
0
11
10.999999999999993
21
62.999999999999986
31
0
0
ARC
5
179
100
AcDbEntity
8
0
100
AcDbCircle
10
6.9999999999999929
20
57.999999999999986
30
0
40
4.0000000000000036
210
0
220
0
230
1
100
AcDbArc
50
-90
51
0
0
LINE
5
180
100
AcDbEntity
8
0
100
AcDbLine
10
92.999999999999986
20
6.999999999999984
30
0
11
92.999999999999986
21
1.9999999999999978
31
0
0
LINE
5
181
100
AcDbEntity
8
0
100
AcDbLine
10
101
20
6.999999999999984
30
0
11
101
21
2.1547674213348733
31
0
0
ARC
5
182
100
AcDbEntity
8
0
100
AcDbCircle
10
97
20
6.999999999999984
30
0
40
4.0000000000000036
210
0
220
-0
230
1
100
AcDbArc
50
0
51
180
0
LINE
5
183
100
AcDbEntity
8
0
100
AcDbLine
10
92.999999999999986
20
57.999999999999986
30
0
11
92.999999999999972
21
63
31
0
0
LINE
5
184
100
AcDbEntity
8
0
100
AcDbLine
10
101
20
57.999999999999986
30
0
11
101
21
62.845232578665133
31
0
0
ARC
5
185
100
AcDbEntity
8
0
100
AcDbCircle
10
97
20
57.999999999999986
30
0
40
4.0000000000000036
210
0
220
0
230
1
100
AcDbArc
50
-180
51
0
0
CIRCLE
5
186
100
AcDbEntity
8
0
100
AcDbCircle
10
23.399741903488245
20
16.900366377960822
30
0
40
3.5000000000000018
210
0
220
0
230
1
0
CIRCLE
5
187
100
AcDbEntity
8
0
100
AcDbCircle
10
23.39931941201813
20
48.100366375100265
30
0
40
3.5000000000000027
210
0
220
0
230
1
0
ARC
5
188
100
AcDbEntity
8
0
100
AcDbCircle
10
59.999999959303693
20
32.497790122475521
30
0
40
17.499999999999993
210
0
220
0
230
1
100
AcDbArc
50
-91.450742815868338
51
91.459521994617219
0
ARC
5
189
100
AcDbEntity
8
0
100
AcDbCircle
10
59.999999959303693
20
32.497790122475521
30
0
40
18.699999999999992
210
0
220
0
230
1
100
AcDbArc
50
-91.450742815868338
51
91.459521994617148
0
LINE
5
190
100
AcDbEntity
8
0
100
AcDbLine
10
59.554262543811987
20
49.992112577387324
30
0
11
39.006341659719375
21
44.158074187504283
31
0
0
LINE
5
191
100
AcDbEntity
8
0
100
AcDbLine
10
59.556943126647724
20
15.00339957455884
30
0
11
38.596593582892467
21
20.864328399028373
31
0
0
ARC
5
192
100
AcDbEntity
8
0
100
AcDbCircle
10
38.45892824030831
20
32.369566622936816
30
0
40
11.506061808257105
210
0
220
0
230
1
100
AcDbArc
50
179.35468278633329
51
270.68553701925356
0
ARC
5
193
100
AcDbEntity
8
0
100
AcDbCircle
10
38.345682005416968
20
32.781653290600531
30
0
40
11.395587900689065
210
0
220
-0
230
1
100
AcDbArc
50
86.676411343558485
51
181.42051314286803
0
ARC
5
194
100
AcDbEntity
8
0
100
AcDbCircle
10
38.345682005416968
20
32.781653290600531
30
0
40
12.595587900689061
210
0
220
-0
230
1
100
AcDbArc
50
86.676411343558513
51
181.42051314286803
0
ARC
5
195
100
AcDbEntity
8
0
100
AcDbCircle
10
38.45892824030831
20
32.369566622936816
30
0
40
12.706061808257106
210
0
220
0
230
1
100
AcDbArc
50
179.35468278633329
51
270.68553701925356
0
LINE
5
196
100
AcDbEntity
8
0
100
AcDbLine
10
39.075911706659639
20
45.356055826999935
30
0
11
59.523697692464012
21
51.191723260009823
31
0
0
LINE
5
197
100
AcDbEntity
8
0
100
AcDbLine
10
38.610951094076917
20
19.664414292988862
30
0
11
59.52656208669417
21
13.803784222701696
31
0
0
LINE
5
198
100
AcDbEntity
8
0
100
AcDbLine
10
112
20
32.5
30
0
11
99.549999999999983
21
32.500000000000007
31
0
0
LINE
5
199
100
AcDbEntity
8
0
100
AcDbLine
10
99.549999999999983
20
32.500000000000007
30
0
11
99.549999999999983
21
36.5
31
0
0
LINE
5
200
100
AcDbEntity
8
0
100
AcDbLine
10
99.549999999999983
20
36.5
30
0
11
98.049999999999983
21
36.5
31
0
0
LINE
5
201
100
AcDbEntity
8
0
100
AcDbLine
10
98.049999999999983
20
36.5
30
0
11
98.049999999999983
21
28.500000000000007
31
0
0
LINE
5
202
100
AcDbEntity
8
0
100
AcDbLine
10
98.049999999999983
20
28.500000000000007
30
0
11
99.549999999999983
21
28.500000000000007
31
0
0
LINE
5
203
100
AcDbEntity
8
0
100
AcDbLine
10
99.549999999999983
20
28.500000000000007
30
0
11
99.549999999999983
21
36.5
31
0
0
LINE
5
204
100
AcDbEntity
8
0
100
AcDbLine
10
85.774984098798882
20
62.999999999999986
30
0
11
85.774984098798882
21
58.999999999999986
31
0
0
LINE
5
205
100
AcDbEntity
8
0
100
AcDbLine
10
85.774984098798882
20
2.0000000000000018
30
0
11
85.774984098798882
21
6.0000000000000018
31
0
0
LINE
5
206
100
AcDbEntity
8
0
100
AcDbLine
10
85.774984098798882
20
6.0000000000000018
30
0
11
83.774984098798896
21
6.0000000000000018
31
0
0
LINE
5
207
100
AcDbEntity
8
0
100
AcDbLine
10
83.774984098798896
20
16
30
0
11
85.774984098798882
21
16
31
0
0
LWPOLYLINE
5
208
100
AcDbEntity
8
0
100
AcDbPolyline
90
6
70
1
43
0.0
10
85.774984098798882
20
6.0000000000000018
10
85.774984098798882
20
16
10
79.774984098798882
20
16
10
79.774984098798882
20
6.0000000000000018
10
79.774984098798882
20
16
10
79.774984098798882
20
6.0000000000000018
0
LINE
5
209
100
AcDbEntity
8
0
100
AcDbLine
10
79.774984098798882
20
16
30
0
11
81.774984098798882
21
16
31
0
0
LINE
5
210
100
AcDbEntity
8
0
100
AcDbLine
10
81.774984098798882
20
6.0000000000000018
30
0
11
79.774984098798882
21
6.0000000000000018
31
0
0
LINE
5
211
100
AcDbEntity
8
0
100
AcDbLine
10
85.774984098798882
20
20.333333333333336
30
0
11
83.774984098798896
21
20.333333333333336
31
0
0
LINE
5
212
100
AcDbEntity
8
0
100
AcDbLine
10
79.774984098798882
20
20.333333333333336
30
0
11
79.774984098798882
21
30.333333333333336
31
0
0
LINE
5
213
100
AcDbEntity
8
0
100
AcDbLine
10
81.774984098798882
20
20.333333333333336
30
0
11
79.774984098798882
21
20.333333333333336
31
0
0
LINE
5
214
100
AcDbEntity
8
0
100
AcDbLine
10
83.774984098798896
20
44.666666666666671
30
0
11
85.774984098798882
21
44.666666666666671
31
0
0
LINE
5
215
100
AcDbEntity
8
0
100
AcDbLine
10
79.774984098798882
20
44.666666666666671
30
0
11
81.774984098798882
21
44.666666666666671
31
0
0
LINE
5
216
100
AcDbEntity
8
0
100
AcDbLine
10
79.774984098798882
20
34.666666666666671
30
0
11
79.774984098798882
21
44.666666666666671
31
0
0
LWPOLYLINE
5
217
100
AcDbEntity
8
0
100
AcDbPolyline
90
6
70
1
43
0.0
10
85.774984098798882
20
49.000000000000014
10
85.774984098798882
20
59
10
79.774984098798882
20
59
10
79.774984098798882
20
49.000000000000014
10
79.774984098798882
20
59
10
79.774984098798882
20
49.000000000000014
0
LINE
5
218
100
AcDbEntity
8
0
100
AcDbLine
10
83.774984098798896
20
59
30
0
11
85.774984098798882
21
59
31
0
0
LINE
5
219
100
AcDbEntity
8
0
100
AcDbLine
10
85.774984098798882
20
49.000000000000014
30
0
11
83.774984098798896
21
49.000000000000014
31
0
0
LINE
5
220
100
AcDbEntity
8
0
100
AcDbLine
10
79.774984098798882
20
59
30
0
11
81.774984098798882
21
59
31
0
0
LINE
5
221
100
AcDbEntity
8
0
100
AcDbLine
10
81.774984098798882
20
49.000000000000014
30
0
11
79.774984098798882
21
49.000000000000014
31
0
0
LINE
5
222
100
AcDbEntity
8
0
100
AcDbLine
10
15.999999999999993
20
62.999999999999986
30
0
11
15.999999999999993
21
58.999999999999986
31
0
0
LINE
5
223
100
AcDbEntity
8
0
100
AcDbLine
10
49.553564039925568
20
59.116757954281674
30
0
11
45.553564064301035
21
59.116316361833128
31
0
0
LWPOLYLINE
5
224
100
AcDbEntity
8
0
100
AcDbPolyline
90
4
70
1
43
0.0
10
23.999999999999993
20
58.999999999999986
10
15.999999999999993
20
58.999999999999986
10
15.999999999999993
20
56.999999999999986
10
23.999999999999993
20
56.999999999999986
0
LWPOLYLINE
5
225
100
AcDbEntity
8
0
100
AcDbPolyline
90
4
70
1
43
0.0
10
26.999999999999993
20
56.999999999999986
10
34.999999999999993
20
56.999999999999986
10
34.999999999999993
20
58.999999999999986
10
26.999999999999993
20
58.999999999999986
0
LINE
5
226
100
AcDbEntity
8
0
100
AcDbLine
10
37.999999999999993
20
58.999999999999986
30
0
11
46
21
58.999999999999986
31
0
0
LINE
5
227
100
AcDbEntity
8
0
100
AcDbLine
10
37.999999999999993
20
56.999999999999986
30
0
11
37.999999999999993
21
58.999999999999986
31
0
0
LINE
5
228
100
AcDbEntity
8
0
100
AcDbLine
10
46
20
58.999999999999986
30
0
11
46
21
56.999999999999986
31
0
0
LWPOLYLINE
5
229
100
AcDbEntity
8
0
100
AcDbPolyline
90
4
70
1
43
0.0
10
26.999999999999975
20
6.0000000000000764
10
26.999999999999975
20
8.0000000000000782
10
34.999999999999986
20
8.0000000000000693
10
34.999999999999986
20
6.0000000000000675
0
LWPOLYLINE
5
230
100
AcDbEntity
8
0
100
AcDbPolyline
90
4
70
1
43
0.0
10
15.999999999999979
20
8.000000000000087
10
23.999999999999968
20
8.0000000000000782
10
23.999999999999968
20
6.0000000000000764
10
15.999999999999979
20
6.0000000000000853
0
LINE
5
231
100
AcDbEntity
8
0
100
AcDbLine
10
37.999999999999972
20
8.0000000000000693
30
0
11
37.999999999999972
21
6.0000000000000675
31
0
0
LINE
5
232
100
AcDbEntity
8
0
100
AcDbLine
10
37.999999999999972
20
6.0000000000000675
30
0
11
45.999999999999979
21
6.0000000000000586
31
0
0
LINE
5
233
100
AcDbEntity
8
0
100
AcDbLine
10
45.999999999999979
20
6.0000000000000586
30
0
11
45.999999999999979
21
8.0000000000000604
31
0
0
LINE
5
234
100
AcDbEntity
8
0
100
AcDbLine
10
88.374984098798905
20
44.666666666666671
30
0
11
90.37498409879889
21
44.666666666666671
31
0
0
LINE
5
235
100
AcDbEntity
8
0
100
AcDbLine
10
90.37498409879889
20
20.333333333333336
30
0
11
88.374984098798905
21
20.333333333333336
31
0
0
LINE
5
236
100
AcDbEntity
8
0
100
AcDbLine
10
92.974984098798899
20
44.666666666666671
30
0
11
94.974984098798885
21
44.666666666666671
31
0
0
LINE
5
237
100
AcDbEntity
8
0
100
AcDbLine
10
94.974984098798885
20
30.333333333333336
30
0
11
94.974984098798885
21
20.333333333333336
31
0
0
LINE
5
238
100
AcDbEntity
8
0
100
AcDbLine
10
94.974984098798885
20
44.666666666666671
30
0
11
94.974984098798885
21
34.666666666666671
31
0
0
LINE
5
239
100
AcDbEntity
8
0
100
AcDbLine
10
94.974984098798885
20
20.333333333333336
30
0
11
92.974984098798899
21
20.333333333333336
31
0
0
LWPOLYLINE
5
240
100
AcDbEntity
8
0
100
AcDbPolyline
90
4
70
1
43
0.0
10
104.17498409879889
20
44.666666666666671
10
102.17498409879889
20
44.666666666666671
10
102.17498409879889
20
34.666666666666671
10
104.17498409879889
20
34.666666666666671
0
LWPOLYLINE
5
241
100
AcDbEntity
8
0
100
AcDbPolyline
90
4
70
1
43
0.0
10
104.17498409879889
20
20.333333333333336
10
104.17498409879889
20
30.333333333333336
10
102.17498409879889
20
30.333333333333336
10
102.17498409879889
20
20.333333333333336
0
LWPOLYLINE
5
242
100
AcDbEntity
8
0
100
AcDbPolyline
90
4
70
1
43
0.0
10
108.7749840987989
20
44.666666666666671
10
106.7749840987989
20
44.666666666666671
10
106.7749840987989
20
34.666666666666671
10
108.7749840987989
20
34.666666666666671
0
LWPOLYLINE
5
243
100
AcDbEntity
8
0
100
AcDbPolyline
90
4
70
1
43
0.0
10
108.7749840987989
20
20.333333333333336
10
108.7749840987989
20
30.333333333333336
10
106.7749840987989
20
30.333333333333336
10
106.7749840987989
20
20.333333333333336
0
CIRCLE
5
244
100
AcDbEntity
8
0
100
AcDbCircle
10
8.996609870185063
20
50.999999999999986
30
0
40
3.3500000000000001
210
0
220
0
230
1
0
CIRCLE
5
245
100
AcDbEntity
8
0
100
AcDbCircle
10
10.505046557577295
20
14.000000000000004
30
0
40
5.7500000000000009
210
0
220
0
230
1
0
LWPOLYLINE
5
246
100
AcDbEntity
8
0
100
AcDbPolyline
90
4
70
1
43
0.0
10
87.774984098798896
20
58.666666666666671
10
87.774984098798896
20
48.666666666666671
10
89.774984098798882
20
48.666666666666671
10
89.774984098798882
20
58.666666666666671
0
LWPOLYLINE
5
247
100
AcDbEntity
8
0
100
AcDbPolyline
90
4
70
1
43
0.0
10
96.374984098798905
20
58.666666666666671
10
96.374984098798905
20
48.666666666666671
10
98.374984098798905
20
48.666666666666671
10
98.374984098798905
20
58.666666666666671
0
LWPOLYLINE
5
248
100
AcDbEntity
8
0
100
AcDbPolyline
90
4
70
1
43
0.0
10
91.774984098798896
20
58.666666666666671
10
91.774984098798896
20
48.666666666666671
10
93.774984098798896
20
48.666666666666671
10
93.774984098798896
20
58.666666666666671
0
LWPOLYLINE
5
249
100
AcDbEntity
8
0
100
AcDbPolyline
90
4
70
1
43
0.0
10
100.9749840987989
20
58.666666666666671
10
100.9749840987989
20
48.666666666666671
10
102.9749840987989
20
48.666666666666671
10
102.9749840987989
20
58.666666666666671
0
LWPOLYLINE
5
250
100
AcDbEntity
8
0
100
AcDbPolyline
90
4
70
1
43
0.0
10
87.774984098798896
20
16.666666666666664
10
87.774984098798896
20
6.6666666666666696
10
89.774984098798882
20
6.6666666666666696
10
89.774984098798882
20
16.666666666666664
0
LWPOLYLINE
5
251
100
AcDbEntity
8
0
100
AcDbPolyline
90
4
70
1
43
0.0
10
96.374984098798905
20
16.666666666666664
10
96.374984098798905
20
6.6666666666666696
10
98.374984098798905
20
6.6666666666666696
10
98.374984098798905
20
16.666666666666664
0
LWPOLYLINE
5
252
100
AcDbEntity
8
0
100
AcDbPolyline
90
4
70
1
43
0.0
10
91.774984098798896
20
16.666666666666664
10
91.774984098798896
20
6.6666666666666696
10
93.774984098798896
20
6.6666666666666696
10
93.774984098798896
20
16.666666666666664
0
LWPOLYLINE
5
253
100
AcDbEntity
8
0
100
AcDbPolyline
90
4
70
1
43
0.0
10
100.9749840987989
20
16.666666666666664
10
100.9749840987989
20
6.6666666666666696
10
102.9749840987989
20
6.6666666666666696
10
102.9749840987989
20
16.666666666666664
0
LWPOLYLINE
5
254
100
AcDbEntity
8
0
100
AcDbPolyline
90
6
70
1
43
0.0
10
61.774984098798889
20
50.666666666666671
10
61.774984098798889
20
60.666666666666671
10
72.37498409879889
20
60.666666666666671
10
72.37498409879889
20
50.666666666666671
10
61.774984098798889
20
50.666666666666671
10
61.774984098798889
20
60.666666666666671
0
LINE
5
255
100
AcDbEntity
8
0
100
AcDbLine
10
63.774984098798882
20
50.666666666666671
30
0
11
61.774984098798889
21
50.666666666666671
31
0
0
LINE
5
256
100
AcDbEntity
8
0
100
AcDbLine
10
70.374984098798905
20
60.666666666666671
30
0
11
72.37498409879889
21
60.666666666666671
31
0
0
LINE
5
257
100
AcDbEntity
8
0
100
AcDbLine
10
65.774984098798896
20
60.666666666666671
30
0
11
67.774984098798882
21
60.666666666666671
31
0
0
LINE
5
258
100
AcDbEntity
8
0
100
AcDbLine
10
61.774984098798889
20
60.666666666666671
30
0
11
63.774984098798882
21
60.666666666666671
31
0
0
LINE
5
259
100
AcDbEntity
8
0
100
AcDbLine
10
72.37498409879889
20
50.666666666666671
30
0
11
70.374984098798905
21
50.666666666666671
31
0
0
LINE
5
260
100
AcDbEntity
8
0
100
AcDbLine
10
67.774984098798882
20
50.666666666666671
30
0
11
65.774984098798896
21
50.666666666666671
31
0
0
LWPOLYLINE
5
261
100
AcDbEntity
8
0
100
AcDbPolyline
90
6
70
1
43
0.0
10
61.774984098798889
20
3.6666666666666692
10
61.774984098798889
20
13.666666666666664
10
72.37498409879889
20
13.666666666666664
10
72.37498409879889
20
3.6666666666666692
10
61.774984098798889
20
3.6666666666666692
10
61.774984098798889
20
13.666666666666664
0
LINE
5
262
100
AcDbEntity
8
0
100
AcDbLine
10
63.774984098798882
20
3.6666666666666692
30
0
11
61.774984098798889
21
3.6666666666666692
31
0
0
LINE
5
263
100
AcDbEntity
8
0
100
AcDbLine
10
70.374984098798905
20
13.666666666666664
30
0
11
72.37498409879889
21
13.666666666666664
31
0
0
LINE
5
264
100
AcDbEntity
8
0
100
AcDbLine
10
65.774984098798896
20
13.666666666666664
30
0
11
67.774984098798882
21
13.666666666666664
31
0
0
LINE
5
265
100
AcDbEntity
8
0
100
AcDbLine
10
61.774984098798889
20
13.666666666666664
30
0
11
63.774984098798882
21
13.666666666666664
31
0
0
LINE
5
266
100
AcDbEntity
8
0
100
AcDbLine
10
72.37498409879889
20
3.6666666666666692
30
0
11
70.374984098798905
21
3.6666666666666692
31
0
0
LINE
5
267
100
AcDbEntity
8
0
100
AcDbLine
10
67.774984098798882
20
3.6666666666666692
30
0
11
65.774984098798896
21
3.6666666666666692
31
0
0
LWPOLYLINE
5
268
100
AcDbEntity
8
0
100
AcDbPolyline
90
4
70
1
43
0.0
10
20.974984098798899
20
28.466666666666676
10
20.974984098798899
20
38.466666666666669
10
18.974984098798902
20
38.466666666666669
10
18.974984098798895
20
28.466666666666676
0
LWPOLYLINE
5
269
100
AcDbEntity
8
0
100
AcDbPolyline
90
4
70
1
43
0.0
10
12.374984098798876
20
28.466666666666676
10
12.374984098798885
20
38.466666666666683
10
10.37498409879889
20
38.466666666666683
10
10.37498409879888
20
28.466666666666676
0
LWPOLYLINE
5
270
100
AcDbEntity
8
0
100
AcDbPolyline
90
4
70
1
43
0.0
10
16.974984098798885
20
28.466666666666676
10
16.974984098798892
20
38.466666666666669
10
14.974984098798901
20
38.466666666666676
10
14.974984098798892
20
28.466666666666676
0
LWPOLYLINE
5
271
100
AcDbEntity
8
0
100
AcDbPolyline
90
4
70
1
43
0.0
10
7.7749840987988783
20
28.466666666666676
10
7.7749840987988872
20
38.466666666666683
10
5.7749840987988899
20
38.466666666666683
10
5.7749840987988854
20
28.466666666666683
0
LWPOLYLINE
5
272
100
AcDbEntity
8
0
100
AcDbPolyline
90
4
70
1
43
0.0
10
94.974984098798885
20
44.666666666666671
10
79.774984098798882
20
44.666666666666671
10
79.774984098798882
20
20.333333333333336
10
94.974984098798885
20
20.333333333333336
0
LINE
5
273
100
AcDbEntity
8
0
100
AcDbLine
10
37.999999999999993
20
58.999999999999986
30
0
11
46
21
58.999999999999986
31
0
0
LINE
5
274
100
AcDbEntity
8
0
100
AcDbLine
10
46
20
58.999999999999986
30
0
11
46
21
48.999999999999986
31
0
0
LINE
5
275
100
AcDbEntity
8
0
100
AcDbLine
10
46
20
48.999999999999986
30
0
11
37.999999999999993
21
48.999999999999986
31
0
0
LINE
5
276
100
AcDbEntity
8
0
100
AcDbLine
10
37.999999999999993
20
48.999999999999986
30
0
11
37.999999999999993
21
58.999999999999986
31
0
0
LINE
5
277
100
AcDbEntity
8
0
100
AcDbLine
10
37.999999999999972
20
6.0000000000000675
30
0
11
45.999999999999979
21
6.0000000000000675
31
0
0
LINE
5
278
100
AcDbEntity
8
0
100
AcDbLine
10
45.999999999999979
20
6.0000000000000675
30
0
11
45.999999999999979
21
16.000000000000068
31
0
0
LINE
5
279
100
AcDbEntity
8
0
100
AcDbLine
10
45.999999999999979
20
16.000000000000068
30
0
11
37.999999999999972
21
16.000000000000068
31
0
0
LINE
5
280
100
AcDbEntity
8
0
100
AcDbLine
10
37.999999999999972
20
16.000000000000068
30
0
11
37.999999999999972
21
6.0000000000000675
31
0
0
LWPOLYLINE
5
281
100
AcDbEntity
8
0
100
AcDbPolyline
90
4
70
1
43
0.0
10
79.774984098798882
20
62.999999999999986
10
77.221409695002151
20
62.999999999999986
10
77.221409695002151
20
2.0000000000000018
10
79.774984098798882
20
2.0000000000000018
0
ENDSEC
0
SECTION
2
OBJECTS
0
DICTIONARY
5
C
100
AcDbDictionary
3
ACAD_GROUP
350
D
3
ACAD_MLINESTYLE
350
17
0
DICTIONARY
5
D
100
AcDbDictionary
0
DICTIONARY
5
1A
330
C
100
AcDbDictionary
0
DICTIONARY
5
17
100
AcDbDictionary
0
ENDSEC
0
EOF
