%TF.GenerationSoftware,KiCad,Pcbnew,(6.0.7)*%
%TF.CreationDate,2023-01-21T14:29:41-06:00*%
%TF.ProjectId,SmartSpin2k,536d6172-7453-4706-996e-326b2e6b6963,2.35*%
%TF.SameCoordinates,Original*%
%TF.FileFunction,Legend,Top*%
%TF.FilePolarity,Positive*%
%FSLAX46Y46*%
G04 Gerber Fmt 4.6, Leading zero omitted, Abs format (unit mm)*
G04 Created by KiCad (PCBNEW (6.0.7)) date 2023-01-21 14:29:41*
%MOMM*%
%LPD*%
G01*
G04 APERTURE LIST*
G04 Aperture macros list*
%AMRoundRect*
0 Rectangle with rounded corners*
0 $1 Rounding radius*
0 $2 $3 $4 $5 $6 $7 $8 $9 X,Y pos of 4 corners*
0 Add a 4 corners polygon primitive as box body*
4,1,4,$2,$3,$4,$5,$6,$7,$8,$9,$2,$3,0*
0 Add four circle primitives for the rounded corners*
1,1,$1+$1,$2,$3*
1,1,$1+$1,$4,$5*
1,1,$1+$1,$6,$7*
1,1,$1+$1,$8,$9*
0 Add four rect primitives between the rounded corners*
20,1,$1+$1,$2,$3,$4,$5,0*
20,1,$1+$1,$4,$5,$6,$7,0*
20,1,$1+$1,$6,$7,$8,$9,0*
20,1,$1+$1,$8,$9,$2,$3,0*%
%AMRotRect*
0 Rectangle, with rotation*
0 The origin of the aperture is its center*
0 $1 length*
0 $2 width*
0 $3 Rotation angle, in degrees counterclockwise*
0 Add horizontal line*
21,1,$1,$2,0,0,$3*%
G04 Aperture macros list end*
%ADD10C,0.346007*%
%ADD11C,0.508000*%
%ADD12C,0.120000*%
%ADD13C,0.150000*%
%ADD14C,0.100000*%
%ADD15C,0.010000*%
%ADD16RoundRect,0.150000X-0.150000X0.512500X-0.150000X-0.512500X0.150000X-0.512500X0.150000X0.512500X0*%
%ADD17RoundRect,0.250000X-0.512652X-0.159099X-0.159099X-0.512652X0.512652X0.159099X0.159099X0.512652X0*%
%ADD18RoundRect,0.135000X0.185000X-0.135000X0.185000X0.135000X-0.185000X0.135000X-0.185000X-0.135000X0*%
%ADD19RoundRect,0.250000X-1.500000X-1.000000X1.500000X-1.000000X1.500000X1.000000X-1.500000X1.000000X0*%
%ADD20RoundRect,0.218750X-0.256250X0.218750X-0.256250X-0.218750X0.256250X-0.218750X0.256250X0.218750X0*%
%ADD21RoundRect,0.225000X0.225000X0.250000X-0.225000X0.250000X-0.225000X-0.250000X0.225000X-0.250000X0*%
%ADD22R,1.500000X2.000000*%
%ADD23R,3.800000X2.000000*%
%ADD24RoundRect,0.250000X0.475000X-0.250000X0.475000X0.250000X-0.475000X0.250000X-0.475000X-0.250000X0*%
%ADD25RoundRect,0.150000X-0.662500X-0.150000X0.662500X-0.150000X0.662500X0.150000X-0.662500X0.150000X0*%
%ADD26R,2.514000X3.200000*%
%ADD27RoundRect,0.200000X-0.800000X0.200000X-0.800000X-0.200000X0.800000X-0.200000X0.800000X0.200000X0*%
%ADD28C,0.900000*%
%ADD29R,1.250000X2.500000*%
%ADD30RoundRect,0.140000X0.170000X-0.140000X0.170000X0.140000X-0.170000X0.140000X-0.170000X-0.140000X0*%
%ADD31RoundRect,0.150000X0.587500X0.150000X-0.587500X0.150000X-0.587500X-0.150000X0.587500X-0.150000X0*%
%ADD32RoundRect,0.250000X0.650000X-0.325000X0.650000X0.325000X-0.650000X0.325000X-0.650000X-0.325000X0*%
%ADD33RoundRect,0.135000X-0.135000X-0.185000X0.135000X-0.185000X0.135000X0.185000X-0.135000X0.185000X0*%
%ADD34RoundRect,0.140000X-0.140000X-0.170000X0.140000X-0.170000X0.140000X0.170000X-0.140000X0.170000X0*%
%ADD35RoundRect,0.250000X-0.132583X0.503814X-0.503814X0.132583X0.132583X-0.503814X0.503814X-0.132583X0*%
%ADD36RoundRect,0.062500X0.185616X0.274004X-0.274004X-0.185616X-0.185616X-0.274004X0.274004X0.185616X0*%
%ADD37RoundRect,0.062500X-0.185616X0.274004X-0.274004X0.185616X0.185616X-0.274004X0.274004X-0.185616X0*%
%ADD38RotRect,3.750000X3.750000X225.000000*%
%ADD39RoundRect,0.250000X-0.250000X-0.475000X0.250000X-0.475000X0.250000X0.475000X-0.250000X0.475000X0*%
%ADD40RoundRect,0.140000X-0.170000X0.140000X-0.170000X-0.140000X0.170000X-0.140000X0.170000X0.140000X0*%
%ADD41RoundRect,0.218750X0.256250X-0.218750X0.256250X0.218750X-0.256250X0.218750X-0.256250X-0.218750X0*%
%ADD42RoundRect,0.135000X0.035355X-0.226274X0.226274X-0.035355X-0.035355X0.226274X-0.226274X0.035355X0*%
%ADD43R,0.400000X1.350000*%
%ADD44O,1.250000X0.950000*%
%ADD45O,1.000000X1.550000*%
%ADD46RoundRect,0.200000X0.275000X-0.200000X0.275000X0.200000X-0.275000X0.200000X-0.275000X-0.200000X0*%
%ADD47RoundRect,0.250000X0.250000X0.475000X-0.250000X0.475000X-0.250000X-0.475000X0.250000X-0.475000X0*%
%ADD48RoundRect,0.135000X0.135000X0.185000X-0.135000X0.185000X-0.135000X-0.185000X0.135000X-0.185000X0*%
%ADD49RoundRect,0.135000X-0.185000X0.135000X-0.185000X-0.135000X0.185000X-0.135000X0.185000X0.135000X0*%
%ADD50R,2.000000X0.900000*%
%ADD51R,0.900000X2.000000*%
%ADD52R,5.000000X5.000000*%
%ADD53RoundRect,0.140000X0.140000X0.170000X-0.140000X0.170000X-0.140000X-0.170000X0.140000X-0.170000X0*%
%ADD54R,1.800000X2.500000*%
%ADD55RoundRect,0.150000X-0.587500X-0.150000X0.587500X-0.150000X0.587500X0.150000X-0.587500X0.150000X0*%
%ADD56RoundRect,0.225000X0.250000X-0.225000X0.250000X0.225000X-0.250000X0.225000X-0.250000X-0.225000X0*%
%ADD57R,0.355600X1.676400*%
%ADD58RoundRect,0.250000X0.325000X0.650000X-0.325000X0.650000X-0.325000X-0.650000X0.325000X-0.650000X0*%
%ADD59RoundRect,0.250000X0.662913X0.220971X0.220971X0.662913X-0.662913X-0.220971X-0.220971X-0.662913X0*%
%ADD60RoundRect,0.225000X-0.250000X0.225000X-0.250000X-0.225000X0.250000X-0.225000X0.250000X0.225000X0*%
%ADD61RoundRect,0.062500X-0.062500X0.337500X-0.062500X-0.337500X0.062500X-0.337500X0.062500X0.337500X0*%
%ADD62RoundRect,0.062500X-0.337500X0.062500X-0.337500X-0.062500X0.337500X-0.062500X0.337500X0.062500X0*%
%ADD63R,3.350000X3.350000*%
%ADD64RoundRect,0.200000X0.800000X-0.200000X0.800000X0.200000X-0.800000X0.200000X-0.800000X-0.200000X0*%
%ADD65R,5.400000X2.900000*%
%ADD66RoundRect,0.250000X-0.220971X0.662913X-0.662913X0.220971X0.220971X-0.662913X0.662913X-0.220971X0*%
%ADD67C,1.200000*%
%ADD68RoundRect,0.250000X0.725000X-0.600000X0.725000X0.600000X-0.725000X0.600000X-0.725000X-0.600000X0*%
%ADD69O,1.950000X1.700000*%
%ADD70RoundRect,0.250000X0.600000X0.725000X-0.600000X0.725000X-0.600000X-0.725000X0.600000X-0.725000X0*%
%ADD71O,1.700000X1.950000*%
G04 APERTURE END LIST*
D10*
X9104203Y54405800D02*
G75*
G03*
X9104203Y54405800I-173003J0D01*
G01*
X43013203Y26262600D02*
G75*
G03*
X43013203Y26262600I-173003J0D01*
G01*
D11*
X11750601Y32231600D02*
G75*
G03*
X11750601Y32231600I-1J0D01*
G01*
D12*
X18326001Y52665000D02*
G75*
G03*
X18326001Y52665000I-1J0D01*
G01*
D10*
X22103003Y6730000D02*
G75*
G03*
X22103003Y6730000I-173003J0D01*
G01*
X18451403Y53008800D02*
G75*
G03*
X18451403Y53008800I-173003J0D01*
G01*
X46733003Y45440000D02*
G75*
G03*
X46733003Y45440000I-173003J0D01*
G01*
D13*
X24487619Y29989524D02*
X24487619Y29418096D01*
X23487619Y29703810D02*
X24487619Y29703810D01*
X23487619Y29084762D02*
X24487619Y29084762D01*
X24487619Y28846667D01*
X24440000Y28703810D01*
X24344761Y28608572D01*
X24249523Y28560953D01*
X24059047Y28513334D01*
X23916190Y28513334D01*
X23725714Y28560953D01*
X23630476Y28608572D01*
X23535238Y28703810D01*
X23487619Y28846667D01*
X23487619Y29084762D01*
X24487619Y27894286D02*
X24487619Y27703810D01*
X24440000Y27608572D01*
X24344761Y27513334D01*
X24154285Y27465715D01*
X23820952Y27465715D01*
X23630476Y27513334D01*
X23535238Y27608572D01*
X23487619Y27703810D01*
X23487619Y27894286D01*
X23535238Y27989524D01*
X23630476Y28084762D01*
X23820952Y28132381D01*
X24154285Y28132381D01*
X24344761Y28084762D01*
X24440000Y27989524D01*
X24487619Y27894286D01*
X40721057Y54299429D02*
X40863914Y54251810D01*
X40911533Y54204191D01*
X40959152Y54108953D01*
X40959152Y53966096D01*
X40911533Y53870858D01*
X40863914Y53823239D01*
X40768676Y53775620D01*
X40387723Y53775620D01*
X40387723Y54775620D01*
X40721057Y54775620D01*
X40816295Y54728000D01*
X40863914Y54680381D01*
X40911533Y54585143D01*
X40911533Y54489905D01*
X40863914Y54394667D01*
X40816295Y54347048D01*
X40721057Y54299429D01*
X40387723Y54299429D01*
X41578200Y54775620D02*
X41768676Y54775620D01*
X41863914Y54728000D01*
X41959152Y54632762D01*
X42006771Y54442286D01*
X42006771Y54108953D01*
X41959152Y53918477D01*
X41863914Y53823239D01*
X41768676Y53775620D01*
X41578200Y53775620D01*
X41482961Y53823239D01*
X41387723Y53918477D01*
X41340104Y54108953D01*
X41340104Y54442286D01*
X41387723Y54632762D01*
X41482961Y54728000D01*
X41578200Y54775620D01*
X42625819Y54775620D02*
X42816295Y54775620D01*
X42911533Y54728000D01*
X43006771Y54632762D01*
X43054390Y54442286D01*
X43054390Y54108953D01*
X43006771Y53918477D01*
X42911533Y53823239D01*
X42816295Y53775620D01*
X42625819Y53775620D01*
X42530580Y53823239D01*
X42435342Y53918477D01*
X42387723Y54108953D01*
X42387723Y54442286D01*
X42435342Y54632762D01*
X42530580Y54728000D01*
X42625819Y54775620D01*
X43340104Y54775620D02*
X43911533Y54775620D01*
X43625819Y53775620D02*
X43625819Y54775620D01*
D14*
X53593142Y47390096D02*
X53326476Y47771048D01*
X53136000Y47390096D02*
X53136000Y48190096D01*
X53440761Y48190096D01*
X53516952Y48152000D01*
X53555047Y48113905D01*
X53593142Y48037715D01*
X53593142Y47923429D01*
X53555047Y47847239D01*
X53516952Y47809143D01*
X53440761Y47771048D01*
X53136000Y47771048D01*
X53897904Y47428191D02*
X54012190Y47390096D01*
X54202666Y47390096D01*
X54278857Y47428191D01*
X54316952Y47466286D01*
X54355047Y47542477D01*
X54355047Y47618667D01*
X54316952Y47694858D01*
X54278857Y47732953D01*
X54202666Y47771048D01*
X54050285Y47809143D01*
X53974095Y47847239D01*
X53936000Y47885334D01*
X53897904Y47961524D01*
X53897904Y48037715D01*
X53936000Y48113905D01*
X53974095Y48152000D01*
X54050285Y48190096D01*
X54240761Y48190096D01*
X54355047Y48152000D01*
X54697904Y47390096D02*
X54697904Y48190096D01*
X55078857Y47390096D02*
X55078857Y48190096D01*
X55536000Y47390096D01*
X55536000Y48190096D01*
D13*
X53505714Y16633334D02*
X53981904Y16633334D01*
X53410476Y16347620D02*
X53743809Y17347620D01*
X54077142Y16347620D01*
X54934285Y16347620D02*
X54362857Y16347620D01*
X54648571Y16347620D02*
X54648571Y17347620D01*
X54553333Y17204762D01*
X54458095Y17109524D01*
X54362857Y17061905D01*
D14*
X53676476Y33282000D02*
X53600285Y33320096D01*
X53486000Y33320096D01*
X53371714Y33282000D01*
X53295523Y33205810D01*
X53257428Y33129620D01*
X53219333Y32977239D01*
X53219333Y32862953D01*
X53257428Y32710572D01*
X53295523Y32634381D01*
X53371714Y32558191D01*
X53486000Y32520096D01*
X53562190Y32520096D01*
X53676476Y32558191D01*
X53714571Y32596286D01*
X53714571Y32862953D01*
X53562190Y32862953D01*
X54057428Y32520096D02*
X54057428Y33320096D01*
X54514571Y32520096D01*
X54514571Y33320096D01*
X54895523Y32520096D02*
X54895523Y33320096D01*
X55086000Y33320096D01*
X55200285Y33282000D01*
X55276476Y33205810D01*
X55314571Y33129620D01*
X55352666Y32977239D01*
X55352666Y32862953D01*
X55314571Y32710572D01*
X55276476Y32634381D01*
X55200285Y32558191D01*
X55086000Y32520096D01*
X54895523Y32520096D01*
X53159333Y37358191D02*
X53273619Y37320096D01*
X53464095Y37320096D01*
X53540285Y37358191D01*
X53578380Y37396286D01*
X53616476Y37472477D01*
X53616476Y37548667D01*
X53578380Y37624858D01*
X53540285Y37662953D01*
X53464095Y37701048D01*
X53311714Y37739143D01*
X53235523Y37777239D01*
X53197428Y37815334D01*
X53159333Y37891524D01*
X53159333Y37967715D01*
X53197428Y38043905D01*
X53235523Y38082000D01*
X53311714Y38120096D01*
X53502190Y38120096D01*
X53616476Y38082000D01*
X53959333Y37320096D02*
X53959333Y38120096D01*
X53959333Y37739143D02*
X54416476Y37739143D01*
X54416476Y37320096D02*
X54416476Y38120096D01*
X54797428Y38120096D02*
X54797428Y37472477D01*
X54835523Y37396286D01*
X54873619Y37358191D01*
X54949809Y37320096D01*
X55102190Y37320096D01*
X55178380Y37358191D01*
X55216476Y37396286D01*
X55254571Y37472477D01*
X55254571Y38120096D01*
X55635523Y37320096D02*
X55635523Y38120096D01*
X55940285Y38120096D01*
X56016476Y38082000D01*
X56054571Y38043905D01*
X56092666Y37967715D01*
X56092666Y37853429D01*
X56054571Y37777239D01*
X56016476Y37739143D01*
X55940285Y37701048D01*
X55635523Y37701048D01*
D13*
X13400104Y54299429D02*
X13733438Y54299429D01*
X13876295Y53775620D02*
X13400104Y53775620D01*
X13400104Y54775620D01*
X13876295Y54775620D01*
X14304866Y53775620D02*
X14304866Y54775620D01*
X14876295Y53775620D01*
X14876295Y54775620D01*
X29277619Y30013334D02*
X29277619Y29441905D01*
X28277619Y29727620D02*
X29277619Y29727620D01*
X28277619Y29108572D02*
X29277619Y29108572D01*
X28563333Y28775239D01*
X29277619Y28441905D01*
X28277619Y28441905D01*
X28325238Y28013334D02*
X28277619Y27870477D01*
X28277619Y27632381D01*
X28325238Y27537143D01*
X28372857Y27489524D01*
X28468095Y27441905D01*
X28563333Y27441905D01*
X28658571Y27489524D01*
X28706190Y27537143D01*
X28753809Y27632381D01*
X28801428Y27822858D01*
X28849047Y27918096D01*
X28896666Y27965715D01*
X28991904Y28013334D01*
X29087142Y28013334D01*
X29182380Y27965715D01*
X29230000Y27918096D01*
X29277619Y27822858D01*
X29277619Y27584762D01*
X29230000Y27441905D01*
D14*
X53369333Y30730096D02*
X53636000Y29930096D01*
X53902666Y30730096D01*
X54169333Y29930096D02*
X54169333Y30730096D01*
X54359809Y30730096D01*
X54474095Y30692000D01*
X54550285Y30615810D01*
X54588380Y30539620D01*
X54626476Y30387239D01*
X54626476Y30272953D01*
X54588380Y30120572D01*
X54550285Y30044381D01*
X54474095Y29968191D01*
X54359809Y29930096D01*
X54169333Y29930096D01*
X55426476Y30006286D02*
X55388380Y29968191D01*
X55274095Y29930096D01*
X55197904Y29930096D01*
X55083619Y29968191D01*
X55007428Y30044381D01*
X54969333Y30120572D01*
X54931238Y30272953D01*
X54931238Y30387239D01*
X54969333Y30539620D01*
X55007428Y30615810D01*
X55083619Y30692000D01*
X55197904Y30730096D01*
X55274095Y30730096D01*
X55388380Y30692000D01*
X55426476Y30653905D01*
X19529333Y18534762D02*
X19529333Y18915715D01*
X19757904Y18458572D02*
X18957904Y18725239D01*
X19757904Y18991905D01*
X19681714Y19715715D02*
X19719809Y19677620D01*
X19757904Y19563334D01*
X19757904Y19487143D01*
X19719809Y19372858D01*
X19643619Y19296667D01*
X19567428Y19258572D01*
X19415047Y19220477D01*
X19300761Y19220477D01*
X19148380Y19258572D01*
X19072190Y19296667D01*
X18996000Y19372858D01*
X18957904Y19487143D01*
X18957904Y19563334D01*
X18996000Y19677620D01*
X19034095Y19715715D01*
X18957904Y19944286D02*
X18957904Y20401429D01*
X19757904Y20172858D02*
X18957904Y20172858D01*
D13*
X53992438Y24319029D02*
X54135295Y24271410D01*
X54182914Y24223791D01*
X54230533Y24128553D01*
X54230533Y23985696D01*
X54182914Y23890458D01*
X54135295Y23842839D01*
X54040057Y23795220D01*
X53659104Y23795220D01*
X53659104Y24795220D01*
X53992438Y24795220D01*
X54087676Y24747600D01*
X54135295Y24699981D01*
X54182914Y24604743D01*
X54182914Y24509505D01*
X54135295Y24414267D01*
X54087676Y24366648D01*
X53992438Y24319029D01*
X53659104Y24319029D01*
X54611485Y24699981D02*
X54659104Y24747600D01*
X54754342Y24795220D01*
X54992438Y24795220D01*
X55087676Y24747600D01*
X55135295Y24699981D01*
X55182914Y24604743D01*
X55182914Y24509505D01*
X55135295Y24366648D01*
X54563866Y23795220D01*
X55182914Y23795220D01*
X26937619Y29965715D02*
X26937619Y29394286D01*
X25937619Y29680000D02*
X26937619Y29680000D01*
X26032857Y28489524D02*
X25985238Y28537143D01*
X25937619Y28680000D01*
X25937619Y28775239D01*
X25985238Y28918096D01*
X26080476Y29013334D01*
X26175714Y29060953D01*
X26366190Y29108572D01*
X26509047Y29108572D01*
X26699523Y29060953D01*
X26794761Y29013334D01*
X26890000Y28918096D01*
X26937619Y28775239D01*
X26937619Y28680000D01*
X26890000Y28537143D01*
X26842380Y28489524D01*
X25937619Y28060953D02*
X26937619Y28060953D01*
X25937619Y27489524D02*
X26509047Y27918096D01*
X26937619Y27489524D02*
X26366190Y28060953D01*
D14*
X14131809Y17480762D02*
X14169904Y17595048D01*
X14169904Y17785524D01*
X14131809Y17861715D01*
X14093714Y17899810D01*
X14017523Y17937905D01*
X13941333Y17937905D01*
X13865142Y17899810D01*
X13827047Y17861715D01*
X13788952Y17785524D01*
X13750857Y17633143D01*
X13712761Y17556953D01*
X13674666Y17518858D01*
X13598476Y17480762D01*
X13522285Y17480762D01*
X13446095Y17518858D01*
X13408000Y17556953D01*
X13369904Y17633143D01*
X13369904Y17823620D01*
X13408000Y17937905D01*
X14169904Y18280762D02*
X13369904Y18280762D01*
X13750857Y18280762D02*
X13750857Y18737905D01*
X14169904Y18737905D02*
X13369904Y18737905D01*
X13750857Y19385524D02*
X13750857Y19118858D01*
X14169904Y19118858D02*
X13369904Y19118858D01*
X13369904Y19499810D01*
X13369904Y19690286D02*
X13369904Y20147429D01*
X14169904Y19918858D02*
X13369904Y19918858D01*
X14169904Y20414096D02*
X13369904Y20414096D01*
X13369904Y20604572D01*
X13408000Y20718858D01*
X13484190Y20795048D01*
X13560380Y20833143D01*
X13712761Y20871239D01*
X13827047Y20871239D01*
X13979428Y20833143D01*
X14055619Y20795048D01*
X14131809Y20718858D01*
X14169904Y20604572D01*
X14169904Y20414096D01*
X53634209Y44830096D02*
X53367542Y45211048D01*
X53177066Y44830096D02*
X53177066Y45630096D01*
X53481828Y45630096D01*
X53558019Y45592000D01*
X53596114Y45553905D01*
X53634209Y45477715D01*
X53634209Y45363429D01*
X53596114Y45287239D01*
X53558019Y45249143D01*
X53481828Y45211048D01*
X53177066Y45211048D01*
X53938971Y44868191D02*
X54053257Y44830096D01*
X54243733Y44830096D01*
X54319923Y44868191D01*
X54358019Y44906286D01*
X54396114Y44982477D01*
X54396114Y45058667D01*
X54358019Y45134858D01*
X54319923Y45172953D01*
X54243733Y45211048D01*
X54091352Y45249143D01*
X54015161Y45287239D01*
X53977066Y45325334D01*
X53938971Y45401524D01*
X53938971Y45477715D01*
X53977066Y45553905D01*
X54015161Y45592000D01*
X54091352Y45630096D01*
X54281828Y45630096D01*
X54396114Y45592000D01*
X54891352Y45630096D02*
X55043733Y45630096D01*
X55119923Y45592000D01*
X55196114Y45515810D01*
X55234209Y45363429D01*
X55234209Y45096762D01*
X55196114Y44944381D01*
X55119923Y44868191D01*
X55043733Y44830096D01*
X54891352Y44830096D01*
X54815161Y44868191D01*
X54738971Y44944381D01*
X54700876Y45096762D01*
X54700876Y45363429D01*
X54738971Y45515810D01*
X54815161Y45592000D01*
X54891352Y45630096D01*
X55577066Y45630096D02*
X55577066Y44982477D01*
X55615161Y44906286D01*
X55653257Y44868191D01*
X55729447Y44830096D01*
X55881828Y44830096D01*
X55958019Y44868191D01*
X55996114Y44906286D01*
X56034209Y44982477D01*
X56034209Y45630096D01*
X56300876Y45630096D02*
X56758019Y45630096D01*
X56529447Y44830096D02*
X56529447Y45630096D01*
X11337809Y17334715D02*
X11375904Y17449000D01*
X11375904Y17639477D01*
X11337809Y17715667D01*
X11299714Y17753762D01*
X11223523Y17791858D01*
X11147333Y17791858D01*
X11071142Y17753762D01*
X11033047Y17715667D01*
X10994952Y17639477D01*
X10956857Y17487096D01*
X10918761Y17410905D01*
X10880666Y17372810D01*
X10804476Y17334715D01*
X10728285Y17334715D01*
X10652095Y17372810D01*
X10614000Y17410905D01*
X10575904Y17487096D01*
X10575904Y17677572D01*
X10614000Y17791858D01*
X11375904Y18134715D02*
X10575904Y18134715D01*
X10956857Y18134715D02*
X10956857Y18591858D01*
X11375904Y18591858D02*
X10575904Y18591858D01*
X10956857Y19239477D02*
X10956857Y18972810D01*
X11375904Y18972810D02*
X10575904Y18972810D01*
X10575904Y19353762D01*
X10575904Y19544239D02*
X10575904Y20001381D01*
X11375904Y19772810D02*
X10575904Y19772810D01*
X10575904Y20268048D02*
X11223523Y20268048D01*
X11299714Y20306143D01*
X11337809Y20344239D01*
X11375904Y20420429D01*
X11375904Y20572810D01*
X11337809Y20649000D01*
X11299714Y20687096D01*
X11223523Y20725191D01*
X10575904Y20725191D01*
X16963904Y18363334D02*
X16163904Y18363334D01*
X16163904Y18668096D01*
X16202000Y18744286D01*
X16240095Y18782381D01*
X16316285Y18820477D01*
X16430571Y18820477D01*
X16506761Y18782381D01*
X16544857Y18744286D01*
X16582952Y18668096D01*
X16582952Y18363334D01*
X16163904Y19087143D02*
X16963904Y19277620D01*
X16392476Y19430000D01*
X16963904Y19582381D01*
X16163904Y19772858D01*
X16963904Y20534762D02*
X16582952Y20268096D01*
X16963904Y20077620D02*
X16163904Y20077620D01*
X16163904Y20382381D01*
X16202000Y20458572D01*
X16240095Y20496667D01*
X16316285Y20534762D01*
X16430571Y20534762D01*
X16506761Y20496667D01*
X16544857Y20458572D01*
X16582952Y20382381D01*
X16582952Y20077620D01*
X53222190Y34968191D02*
X53336476Y34930096D01*
X53526952Y34930096D01*
X53603142Y34968191D01*
X53641238Y35006286D01*
X53679333Y35082477D01*
X53679333Y35158667D01*
X53641238Y35234858D01*
X53603142Y35272953D01*
X53526952Y35311048D01*
X53374571Y35349143D01*
X53298380Y35387239D01*
X53260285Y35425334D01*
X53222190Y35501524D01*
X53222190Y35577715D01*
X53260285Y35653905D01*
X53298380Y35692000D01*
X53374571Y35730096D01*
X53565047Y35730096D01*
X53679333Y35692000D01*
X54022190Y34930096D02*
X54022190Y35730096D01*
X54022190Y35349143D02*
X54479333Y35349143D01*
X54479333Y34930096D02*
X54479333Y35730096D01*
X54860285Y34930096D02*
X54860285Y35730096D01*
X55050761Y35730096D01*
X55165047Y35692000D01*
X55241238Y35615810D01*
X55279333Y35539620D01*
X55317428Y35387239D01*
X55317428Y35272953D01*
X55279333Y35120572D01*
X55241238Y35044381D01*
X55165047Y34968191D01*
X55050761Y34930096D01*
X54860285Y34930096D01*
X55584095Y35730096D02*
X55774571Y34930096D01*
X55926952Y35501524D01*
X56079333Y34930096D01*
X56269809Y35730096D01*
X56574571Y34930096D02*
X56574571Y35730096D01*
X57031714Y34930096D01*
X57031714Y35730096D01*
D13*
X53565714Y19003334D02*
X54041904Y19003334D01*
X53470476Y18717620D02*
X53803809Y19717620D01*
X54137142Y18717620D01*
X54422857Y19622381D02*
X54470476Y19670000D01*
X54565714Y19717620D01*
X54803809Y19717620D01*
X54899047Y19670000D01*
X54946666Y19622381D01*
X54994285Y19527143D01*
X54994285Y19431905D01*
X54946666Y19289048D01*
X54375238Y18717620D01*
X54994285Y18717620D01*
D14*
X53726476Y40692000D02*
X53650285Y40730096D01*
X53536000Y40730096D01*
X53421714Y40692000D01*
X53345523Y40615810D01*
X53307428Y40539620D01*
X53269333Y40387239D01*
X53269333Y40272953D01*
X53307428Y40120572D01*
X53345523Y40044381D01*
X53421714Y39968191D01*
X53536000Y39930096D01*
X53612190Y39930096D01*
X53726476Y39968191D01*
X53764571Y40006286D01*
X53764571Y40272953D01*
X53612190Y40272953D01*
X54107428Y39930096D02*
X54107428Y40730096D01*
X54564571Y39930096D01*
X54564571Y40730096D01*
X54945523Y39930096D02*
X54945523Y40730096D01*
X55136000Y40730096D01*
X55250285Y40692000D01*
X55326476Y40615810D01*
X55364571Y40539620D01*
X55402666Y40387239D01*
X55402666Y40272953D01*
X55364571Y40120572D01*
X55326476Y40044381D01*
X55250285Y39968191D01*
X55136000Y39930096D01*
X54945523Y39930096D01*
D13*
X53992438Y21689029D02*
X54135295Y21641410D01*
X54182914Y21593791D01*
X54230533Y21498553D01*
X54230533Y21355696D01*
X54182914Y21260458D01*
X54135295Y21212839D01*
X54040057Y21165220D01*
X53659104Y21165220D01*
X53659104Y22165220D01*
X53992438Y22165220D01*
X54087676Y22117600D01*
X54135295Y22069981D01*
X54182914Y21974743D01*
X54182914Y21879505D01*
X54135295Y21784267D01*
X54087676Y21736648D01*
X53992438Y21689029D01*
X53659104Y21689029D01*
X55182914Y21165220D02*
X54611485Y21165220D01*
X54897200Y21165220D02*
X54897200Y22165220D01*
X54801961Y22022362D01*
X54706723Y21927124D01*
X54611485Y21879505D01*
D14*
X53696476Y43212000D02*
X53620285Y43250096D01*
X53506000Y43250096D01*
X53391714Y43212000D01*
X53315523Y43135810D01*
X53277428Y43059620D01*
X53239333Y42907239D01*
X53239333Y42792953D01*
X53277428Y42640572D01*
X53315523Y42564381D01*
X53391714Y42488191D01*
X53506000Y42450096D01*
X53582190Y42450096D01*
X53696476Y42488191D01*
X53734571Y42526286D01*
X53734571Y42792953D01*
X53582190Y42792953D01*
X54077428Y42450096D02*
X54077428Y43250096D01*
X54534571Y42450096D01*
X54534571Y43250096D01*
X54915523Y42450096D02*
X54915523Y43250096D01*
X55106000Y43250096D01*
X55220285Y43212000D01*
X55296476Y43135810D01*
X55334571Y43059620D01*
X55372666Y42907239D01*
X55372666Y42792953D01*
X55334571Y42640572D01*
X55296476Y42564381D01*
X55220285Y42488191D01*
X55106000Y42450096D01*
X54915523Y42450096D01*
D13*
X21937619Y29703810D02*
X21937619Y29132381D01*
X20937619Y29418096D02*
X21937619Y29418096D01*
X20937619Y28799048D02*
X21937619Y28799048D01*
X21937619Y28560953D01*
X21890000Y28418096D01*
X21794761Y28322858D01*
X21699523Y28275239D01*
X21509047Y28227620D01*
X21366190Y28227620D01*
X21175714Y28275239D01*
X21080476Y28322858D01*
X20985238Y28418096D01*
X20937619Y28560953D01*
X20937619Y28799048D01*
X20937619Y27799048D02*
X21937619Y27799048D01*
%TO.C,U7*%
X3672380Y50208096D02*
X4481904Y50208096D01*
X4577142Y50255715D01*
X4624761Y50303334D01*
X4672380Y50398572D01*
X4672380Y50589048D01*
X4624761Y50684286D01*
X4577142Y50731905D01*
X4481904Y50779524D01*
X3672380Y50779524D01*
X3672380Y51160477D02*
X3672380Y51827143D01*
X4672380Y51398572D01*
D14*
%TO.C,C6*%
X44457311Y32339350D02*
X44511186Y32339350D01*
X44618935Y32285475D01*
X44672810Y32231600D01*
X44726685Y32123851D01*
X44726685Y32016101D01*
X44699748Y31935289D01*
X44618935Y31800602D01*
X44538123Y31719790D01*
X44403436Y31638978D01*
X44322624Y31612040D01*
X44214874Y31612040D01*
X44107125Y31665915D01*
X44053250Y31719790D01*
X43999375Y31827539D01*
X43999375Y31881414D01*
X43460627Y32312413D02*
X43568377Y32204663D01*
X43649189Y32177726D01*
X43703064Y32177726D01*
X43837751Y32204663D01*
X43972438Y32285475D01*
X44187937Y32500975D01*
X44214874Y32581787D01*
X44214874Y32635662D01*
X44187937Y32716474D01*
X44080187Y32824223D01*
X43999375Y32851161D01*
X43945500Y32851161D01*
X43864688Y32824223D01*
X43730001Y32689536D01*
X43703064Y32608724D01*
X43703064Y32554849D01*
X43730001Y32474037D01*
X43837751Y32366288D01*
X43918563Y32339350D01*
X43972438Y32339350D01*
X44053250Y32366288D01*
%TO.C,R6*%
X40026666Y42468096D02*
X39760000Y42849048D01*
X39569523Y42468096D02*
X39569523Y43268096D01*
X39874285Y43268096D01*
X39950476Y43230000D01*
X39988571Y43191905D01*
X40026666Y43115715D01*
X40026666Y43001429D01*
X39988571Y42925239D01*
X39950476Y42887143D01*
X39874285Y42849048D01*
X39569523Y42849048D01*
X40712380Y43268096D02*
X40560000Y43268096D01*
X40483809Y43230000D01*
X40445714Y43191905D01*
X40369523Y43077620D01*
X40331428Y42925239D01*
X40331428Y42620477D01*
X40369523Y42544286D01*
X40407619Y42506191D01*
X40483809Y42468096D01*
X40636190Y42468096D01*
X40712380Y42506191D01*
X40750476Y42544286D01*
X40788571Y42620477D01*
X40788571Y42810953D01*
X40750476Y42887143D01*
X40712380Y42925239D01*
X40636190Y42963334D01*
X40483809Y42963334D01*
X40407619Y42925239D01*
X40369523Y42887143D01*
X40331428Y42810953D01*
D13*
%TO.C,C7*%
X32042083Y18447858D02*
X31994464Y18400239D01*
X31851607Y18352620D01*
X31756369Y18352620D01*
X31613511Y18400239D01*
X31518273Y18495477D01*
X31470654Y18590715D01*
X31423035Y18781191D01*
X31423035Y18924048D01*
X31470654Y19114524D01*
X31518273Y19209762D01*
X31613511Y19305000D01*
X31756369Y19352620D01*
X31851607Y19352620D01*
X31994464Y19305000D01*
X32042083Y19257381D01*
X32375416Y19352620D02*
X33042083Y19352620D01*
X32613511Y18352620D01*
D14*
%TO.C,D3*%
X11820523Y21100096D02*
X11820523Y21900096D01*
X12011000Y21900096D01*
X12125285Y21862000D01*
X12201476Y21785810D01*
X12239571Y21709620D01*
X12277666Y21557239D01*
X12277666Y21442953D01*
X12239571Y21290572D01*
X12201476Y21214381D01*
X12125285Y21138191D01*
X12011000Y21100096D01*
X11820523Y21100096D01*
X12544333Y21900096D02*
X13039571Y21900096D01*
X12772904Y21595334D01*
X12887190Y21595334D01*
X12963380Y21557239D01*
X13001476Y21519143D01*
X13039571Y21442953D01*
X13039571Y21252477D01*
X13001476Y21176286D01*
X12963380Y21138191D01*
X12887190Y21100096D01*
X12658619Y21100096D01*
X12582428Y21138191D01*
X12544333Y21176286D01*
%TO.C,R19*%
X22869514Y1135696D02*
X22602847Y1516648D01*
X22412371Y1135696D02*
X22412371Y1935696D01*
X22717133Y1935696D01*
X22793323Y1897600D01*
X22831419Y1859505D01*
X22869514Y1783315D01*
X22869514Y1669029D01*
X22831419Y1592839D01*
X22793323Y1554743D01*
X22717133Y1516648D01*
X22412371Y1516648D01*
X23631419Y1135696D02*
X23174276Y1135696D01*
X23402847Y1135696D02*
X23402847Y1935696D01*
X23326657Y1821410D01*
X23250466Y1745220D01*
X23174276Y1707124D01*
X24012371Y1135696D02*
X24164752Y1135696D01*
X24240942Y1173791D01*
X24279038Y1211886D01*
X24355228Y1326172D01*
X24393323Y1478553D01*
X24393323Y1783315D01*
X24355228Y1859505D01*
X24317133Y1897600D01*
X24240942Y1935696D01*
X24088561Y1935696D01*
X24012371Y1897600D01*
X23974276Y1859505D01*
X23936180Y1783315D01*
X23936180Y1592839D01*
X23974276Y1516648D01*
X24012371Y1478553D01*
X24088561Y1440458D01*
X24240942Y1440458D01*
X24317133Y1478553D01*
X24355228Y1516648D01*
X24393323Y1592839D01*
%TO.C,C32*%
X8090714Y22244286D02*
X8052619Y22206191D01*
X7938333Y22168096D01*
X7862142Y22168096D01*
X7747857Y22206191D01*
X7671666Y22282381D01*
X7633571Y22358572D01*
X7595476Y22510953D01*
X7595476Y22625239D01*
X7633571Y22777620D01*
X7671666Y22853810D01*
X7747857Y22930000D01*
X7862142Y22968096D01*
X7938333Y22968096D01*
X8052619Y22930000D01*
X8090714Y22891905D01*
X8357380Y22968096D02*
X8852619Y22968096D01*
X8585952Y22663334D01*
X8700238Y22663334D01*
X8776428Y22625239D01*
X8814523Y22587143D01*
X8852619Y22510953D01*
X8852619Y22320477D01*
X8814523Y22244286D01*
X8776428Y22206191D01*
X8700238Y22168096D01*
X8471666Y22168096D01*
X8395476Y22206191D01*
X8357380Y22244286D01*
X9157380Y22891905D02*
X9195476Y22930000D01*
X9271666Y22968096D01*
X9462142Y22968096D01*
X9538333Y22930000D01*
X9576428Y22891905D01*
X9614523Y22815715D01*
X9614523Y22739524D01*
X9576428Y22625239D01*
X9119285Y22168096D01*
X9614523Y22168096D01*
D13*
%TO.C,U6*%
X2138095Y10965620D02*
X2138095Y10156096D01*
X2185714Y10060858D01*
X2233333Y10013239D01*
X2328571Y9965620D01*
X2519047Y9965620D01*
X2614285Y10013239D01*
X2661904Y10060858D01*
X2709523Y10156096D01*
X2709523Y10965620D01*
X3614285Y10965620D02*
X3423809Y10965620D01*
X3328571Y10918000D01*
X3280952Y10870381D01*
X3185714Y10727524D01*
X3138095Y10537048D01*
X3138095Y10156096D01*
X3185714Y10060858D01*
X3233333Y10013239D01*
X3328571Y9965620D01*
X3519047Y9965620D01*
X3614285Y10013239D01*
X3661904Y10060858D01*
X3709523Y10156096D01*
X3709523Y10394191D01*
X3661904Y10489429D01*
X3614285Y10537048D01*
X3519047Y10584667D01*
X3328571Y10584667D01*
X3233333Y10537048D01*
X3185714Y10489429D01*
X3138095Y10394191D01*
D14*
%TO.C,C1*%
X20916666Y8274286D02*
X20878571Y8236191D01*
X20764285Y8198096D01*
X20688095Y8198096D01*
X20573809Y8236191D01*
X20497619Y8312381D01*
X20459523Y8388572D01*
X20421428Y8540953D01*
X20421428Y8655239D01*
X20459523Y8807620D01*
X20497619Y8883810D01*
X20573809Y8960000D01*
X20688095Y8998096D01*
X20764285Y8998096D01*
X20878571Y8960000D01*
X20916666Y8921905D01*
X21678571Y8198096D02*
X21221428Y8198096D01*
X21450000Y8198096D02*
X21450000Y8998096D01*
X21373809Y8883810D01*
X21297619Y8807620D01*
X21221428Y8769524D01*
%TO.C,U4*%
X25610476Y1928096D02*
X25610476Y1280477D01*
X25648571Y1204286D01*
X25686666Y1166191D01*
X25762857Y1128096D01*
X25915238Y1128096D01*
X25991428Y1166191D01*
X26029523Y1204286D01*
X26067619Y1280477D01*
X26067619Y1928096D01*
X26791428Y1661429D02*
X26791428Y1128096D01*
X26600952Y1966191D02*
X26410476Y1394762D01*
X26905714Y1394762D01*
D13*
%TO.C,SW2*%
X9706066Y47320839D02*
X9848923Y47273220D01*
X10087019Y47273220D01*
X10182257Y47320839D01*
X10229876Y47368458D01*
X10277495Y47463696D01*
X10277495Y47558934D01*
X10229876Y47654172D01*
X10182257Y47701791D01*
X10087019Y47749410D01*
X9896542Y47797029D01*
X9801304Y47844648D01*
X9753685Y47892267D01*
X9706066Y47987505D01*
X9706066Y48082743D01*
X9753685Y48177981D01*
X9801304Y48225600D01*
X9896542Y48273220D01*
X10134638Y48273220D01*
X10277495Y48225600D01*
X10610828Y48273220D02*
X10848923Y47273220D01*
X11039400Y47987505D01*
X11229876Y47273220D01*
X11467971Y48273220D01*
X11801304Y48177981D02*
X11848923Y48225600D01*
X11944161Y48273220D01*
X12182257Y48273220D01*
X12277495Y48225600D01*
X12325114Y48177981D01*
X12372733Y48082743D01*
X12372733Y47987505D01*
X12325114Y47844648D01*
X11753685Y47273220D01*
X12372733Y47273220D01*
%TO.C,S1*%
X46998095Y52885239D02*
X47140952Y52837620D01*
X47379047Y52837620D01*
X47474285Y52885239D01*
X47521904Y52932858D01*
X47569523Y53028096D01*
X47569523Y53123334D01*
X47521904Y53218572D01*
X47474285Y53266191D01*
X47379047Y53313810D01*
X47188571Y53361429D01*
X47093333Y53409048D01*
X47045714Y53456667D01*
X46998095Y53551905D01*
X46998095Y53647143D01*
X47045714Y53742381D01*
X47093333Y53790000D01*
X47188571Y53837620D01*
X47426666Y53837620D01*
X47569523Y53790000D01*
X48521904Y52837620D02*
X47950476Y52837620D01*
X48236190Y52837620D02*
X48236190Y53837620D01*
X48140952Y53694762D01*
X48045714Y53599524D01*
X47950476Y53551905D01*
%TO.C,C2*%
X16740133Y50365658D02*
X16692514Y50318039D01*
X16549657Y50270420D01*
X16454419Y50270420D01*
X16311561Y50318039D01*
X16216323Y50413277D01*
X16168704Y50508515D01*
X16121085Y50698991D01*
X16121085Y50841848D01*
X16168704Y51032324D01*
X16216323Y51127562D01*
X16311561Y51222800D01*
X16454419Y51270420D01*
X16549657Y51270420D01*
X16692514Y51222800D01*
X16740133Y51175181D01*
X17121085Y51175181D02*
X17168704Y51222800D01*
X17263942Y51270420D01*
X17502038Y51270420D01*
X17597276Y51222800D01*
X17644895Y51175181D01*
X17692514Y51079943D01*
X17692514Y50984705D01*
X17644895Y50841848D01*
X17073466Y50270420D01*
X17692514Y50270420D01*
%TO.C,Q2*%
X18584761Y25422381D02*
X18489523Y25470000D01*
X18394285Y25565239D01*
X18251428Y25708096D01*
X18156190Y25755715D01*
X18060952Y25755715D01*
X18108571Y25517620D02*
X18013333Y25565239D01*
X17918095Y25660477D01*
X17870476Y25850953D01*
X17870476Y26184286D01*
X17918095Y26374762D01*
X18013333Y26470000D01*
X18108571Y26517620D01*
X18299047Y26517620D01*
X18394285Y26470000D01*
X18489523Y26374762D01*
X18537142Y26184286D01*
X18537142Y25850953D01*
X18489523Y25660477D01*
X18394285Y25565239D01*
X18299047Y25517620D01*
X18108571Y25517620D01*
X18918095Y26422381D02*
X18965714Y26470000D01*
X19060952Y26517620D01*
X19299047Y26517620D01*
X19394285Y26470000D01*
X19441904Y26422381D01*
X19489523Y26327143D01*
X19489523Y26231905D01*
X19441904Y26089048D01*
X18870476Y25517620D01*
X19489523Y25517620D01*
D14*
%TO.C,C18*%
X22183714Y15588286D02*
X22145619Y15550191D01*
X22031333Y15512096D01*
X21955142Y15512096D01*
X21840857Y15550191D01*
X21764666Y15626381D01*
X21726571Y15702572D01*
X21688476Y15854953D01*
X21688476Y15969239D01*
X21726571Y16121620D01*
X21764666Y16197810D01*
X21840857Y16274000D01*
X21955142Y16312096D01*
X22031333Y16312096D01*
X22145619Y16274000D01*
X22183714Y16235905D01*
X22945619Y15512096D02*
X22488476Y15512096D01*
X22717047Y15512096D02*
X22717047Y16312096D01*
X22640857Y16197810D01*
X22564666Y16121620D01*
X22488476Y16083524D01*
X23402761Y15969239D02*
X23326571Y16007334D01*
X23288476Y16045429D01*
X23250380Y16121620D01*
X23250380Y16159715D01*
X23288476Y16235905D01*
X23326571Y16274000D01*
X23402761Y16312096D01*
X23555142Y16312096D01*
X23631333Y16274000D01*
X23669428Y16235905D01*
X23707523Y16159715D01*
X23707523Y16121620D01*
X23669428Y16045429D01*
X23631333Y16007334D01*
X23555142Y15969239D01*
X23402761Y15969239D01*
X23326571Y15931143D01*
X23288476Y15893048D01*
X23250380Y15816858D01*
X23250380Y15664477D01*
X23288476Y15588286D01*
X23326571Y15550191D01*
X23402761Y15512096D01*
X23555142Y15512096D01*
X23631333Y15550191D01*
X23669428Y15588286D01*
X23707523Y15664477D01*
X23707523Y15816858D01*
X23669428Y15893048D01*
X23631333Y15931143D01*
X23555142Y15969239D01*
%TO.C,C3*%
X12056666Y8014286D02*
X12018571Y7976191D01*
X11904285Y7938096D01*
X11828095Y7938096D01*
X11713809Y7976191D01*
X11637619Y8052381D01*
X11599523Y8128572D01*
X11561428Y8280953D01*
X11561428Y8395239D01*
X11599523Y8547620D01*
X11637619Y8623810D01*
X11713809Y8700000D01*
X11828095Y8738096D01*
X11904285Y8738096D01*
X12018571Y8700000D01*
X12056666Y8661905D01*
X12323333Y8738096D02*
X12818571Y8738096D01*
X12551904Y8433334D01*
X12666190Y8433334D01*
X12742380Y8395239D01*
X12780476Y8357143D01*
X12818571Y8280953D01*
X12818571Y8090477D01*
X12780476Y8014286D01*
X12742380Y7976191D01*
X12666190Y7938096D01*
X12437619Y7938096D01*
X12361428Y7976191D01*
X12323333Y8014286D01*
D13*
%TO.C,R3*%
X10803333Y48757620D02*
X10470000Y49233810D01*
X10231904Y48757620D02*
X10231904Y49757620D01*
X10612857Y49757620D01*
X10708095Y49710000D01*
X10755714Y49662381D01*
X10803333Y49567143D01*
X10803333Y49424286D01*
X10755714Y49329048D01*
X10708095Y49281429D01*
X10612857Y49233810D01*
X10231904Y49233810D01*
X11136666Y49757620D02*
X11755714Y49757620D01*
X11422380Y49376667D01*
X11565238Y49376667D01*
X11660476Y49329048D01*
X11708095Y49281429D01*
X11755714Y49186191D01*
X11755714Y48948096D01*
X11708095Y48852858D01*
X11660476Y48805239D01*
X11565238Y48757620D01*
X11279523Y48757620D01*
X11184285Y48805239D01*
X11136666Y48852858D01*
D14*
%TO.C,C20*%
X43979214Y46954286D02*
X43941119Y46916191D01*
X43826833Y46878096D01*
X43750642Y46878096D01*
X43636357Y46916191D01*
X43560166Y46992381D01*
X43522071Y47068572D01*
X43483976Y47220953D01*
X43483976Y47335239D01*
X43522071Y47487620D01*
X43560166Y47563810D01*
X43636357Y47640000D01*
X43750642Y47678096D01*
X43826833Y47678096D01*
X43941119Y47640000D01*
X43979214Y47601905D01*
X44283976Y47601905D02*
X44322071Y47640000D01*
X44398261Y47678096D01*
X44588738Y47678096D01*
X44664928Y47640000D01*
X44703023Y47601905D01*
X44741119Y47525715D01*
X44741119Y47449524D01*
X44703023Y47335239D01*
X44245880Y46878096D01*
X44741119Y46878096D01*
X45236357Y47678096D02*
X45312547Y47678096D01*
X45388738Y47640000D01*
X45426833Y47601905D01*
X45464928Y47525715D01*
X45503023Y47373334D01*
X45503023Y47182858D01*
X45464928Y47030477D01*
X45426833Y46954286D01*
X45388738Y46916191D01*
X45312547Y46878096D01*
X45236357Y46878096D01*
X45160166Y46916191D01*
X45122071Y46954286D01*
X45083976Y47030477D01*
X45045880Y47182858D01*
X45045880Y47373334D01*
X45083976Y47525715D01*
X45122071Y47601905D01*
X45160166Y47640000D01*
X45236357Y47678096D01*
%TO.C,R4*%
X39146666Y49888096D02*
X38880000Y50269048D01*
X38689523Y49888096D02*
X38689523Y50688096D01*
X38994285Y50688096D01*
X39070476Y50650000D01*
X39108571Y50611905D01*
X39146666Y50535715D01*
X39146666Y50421429D01*
X39108571Y50345239D01*
X39070476Y50307143D01*
X38994285Y50269048D01*
X38689523Y50269048D01*
X39832380Y50421429D02*
X39832380Y49888096D01*
X39641904Y50726191D02*
X39451428Y50154762D01*
X39946666Y50154762D01*
D13*
%TO.C,R17*%
X32062912Y21170150D02*
X31490493Y21271165D01*
X31658851Y20766089D02*
X30951745Y21473196D01*
X31221119Y21742570D01*
X31322134Y21776242D01*
X31389477Y21776242D01*
X31490493Y21742570D01*
X31591508Y21641555D01*
X31625180Y21540539D01*
X31625180Y21473196D01*
X31591508Y21372181D01*
X31322134Y21102807D01*
X32736348Y21843585D02*
X32332287Y21439524D01*
X32534317Y21641555D02*
X31827210Y22348662D01*
X31860882Y22180303D01*
X31860882Y22045616D01*
X31827210Y21944600D01*
X32264943Y22786394D02*
X32736348Y23257799D01*
X33140409Y22247646D01*
%TO.C,U2*%
X40842032Y22052472D02*
X41414452Y21480052D01*
X41515467Y21446380D01*
X41582811Y21446380D01*
X41683826Y21480052D01*
X41818513Y21614739D01*
X41852185Y21715754D01*
X41852185Y21783098D01*
X41818513Y21884113D01*
X41246093Y22456533D01*
X41616483Y22692235D02*
X41616483Y22759578D01*
X41650154Y22860594D01*
X41818513Y23028952D01*
X41919528Y23062624D01*
X41986872Y23062624D01*
X42087887Y23028952D01*
X42155231Y22961609D01*
X42222574Y22826922D01*
X42222574Y22018800D01*
X42660307Y22456533D01*
%TO.C,C28*%
X26557142Y8162858D02*
X26509523Y8115239D01*
X26366666Y8067620D01*
X26271428Y8067620D01*
X26128571Y8115239D01*
X26033333Y8210477D01*
X25985714Y8305715D01*
X25938095Y8496191D01*
X25938095Y8639048D01*
X25985714Y8829524D01*
X26033333Y8924762D01*
X26128571Y9020000D01*
X26271428Y9067620D01*
X26366666Y9067620D01*
X26509523Y9020000D01*
X26557142Y8972381D01*
X26938095Y8972381D02*
X26985714Y9020000D01*
X27080952Y9067620D01*
X27319047Y9067620D01*
X27414285Y9020000D01*
X27461904Y8972381D01*
X27509523Y8877143D01*
X27509523Y8781905D01*
X27461904Y8639048D01*
X26890476Y8067620D01*
X27509523Y8067620D01*
X28080952Y8639048D02*
X27985714Y8686667D01*
X27938095Y8734286D01*
X27890476Y8829524D01*
X27890476Y8877143D01*
X27938095Y8972381D01*
X27985714Y9020000D01*
X28080952Y9067620D01*
X28271428Y9067620D01*
X28366666Y9020000D01*
X28414285Y8972381D01*
X28461904Y8877143D01*
X28461904Y8829524D01*
X28414285Y8734286D01*
X28366666Y8686667D01*
X28271428Y8639048D01*
X28080952Y8639048D01*
X27985714Y8591429D01*
X27938095Y8543810D01*
X27890476Y8448572D01*
X27890476Y8258096D01*
X27938095Y8162858D01*
X27985714Y8115239D01*
X28080952Y8067620D01*
X28271428Y8067620D01*
X28366666Y8115239D01*
X28414285Y8162858D01*
X28461904Y8258096D01*
X28461904Y8448572D01*
X28414285Y8543810D01*
X28366666Y8591429D01*
X28271428Y8639048D01*
%TO.C,C19*%
X38837142Y9882858D02*
X38789523Y9835239D01*
X38646666Y9787620D01*
X38551428Y9787620D01*
X38408571Y9835239D01*
X38313333Y9930477D01*
X38265714Y10025715D01*
X38218095Y10216191D01*
X38218095Y10359048D01*
X38265714Y10549524D01*
X38313333Y10644762D01*
X38408571Y10740000D01*
X38551428Y10787620D01*
X38646666Y10787620D01*
X38789523Y10740000D01*
X38837142Y10692381D01*
X39789523Y9787620D02*
X39218095Y9787620D01*
X39503809Y9787620D02*
X39503809Y10787620D01*
X39408571Y10644762D01*
X39313333Y10549524D01*
X39218095Y10501905D01*
X40265714Y9787620D02*
X40456190Y9787620D01*
X40551428Y9835239D01*
X40599047Y9882858D01*
X40694285Y10025715D01*
X40741904Y10216191D01*
X40741904Y10597143D01*
X40694285Y10692381D01*
X40646666Y10740000D01*
X40551428Y10787620D01*
X40360952Y10787620D01*
X40265714Y10740000D01*
X40218095Y10692381D01*
X40170476Y10597143D01*
X40170476Y10359048D01*
X40218095Y10263810D01*
X40265714Y10216191D01*
X40360952Y10168572D01*
X40551428Y10168572D01*
X40646666Y10216191D01*
X40694285Y10263810D01*
X40741904Y10359048D01*
%TO.C,C14*%
X29659142Y18914143D02*
X29706761Y18866524D01*
X29754380Y18723667D01*
X29754380Y18628429D01*
X29706761Y18485572D01*
X29611523Y18390334D01*
X29516285Y18342715D01*
X29325809Y18295096D01*
X29182952Y18295096D01*
X28992476Y18342715D01*
X28897238Y18390334D01*
X28802000Y18485572D01*
X28754380Y18628429D01*
X28754380Y18723667D01*
X28802000Y18866524D01*
X28849619Y18914143D01*
X29754380Y19866524D02*
X29754380Y19295096D01*
X29754380Y19580810D02*
X28754380Y19580810D01*
X28897238Y19485572D01*
X28992476Y19390334D01*
X29040095Y19295096D01*
X29087714Y20723667D02*
X29754380Y20723667D01*
X28706761Y20485572D02*
X29421047Y20247477D01*
X29421047Y20866524D01*
D14*
%TO.C,C17*%
X47839214Y45904286D02*
X47801119Y45866191D01*
X47686833Y45828096D01*
X47610642Y45828096D01*
X47496357Y45866191D01*
X47420166Y45942381D01*
X47382071Y46018572D01*
X47343976Y46170953D01*
X47343976Y46285239D01*
X47382071Y46437620D01*
X47420166Y46513810D01*
X47496357Y46590000D01*
X47610642Y46628096D01*
X47686833Y46628096D01*
X47801119Y46590000D01*
X47839214Y46551905D01*
X48601119Y45828096D02*
X48143976Y45828096D01*
X48372547Y45828096D02*
X48372547Y46628096D01*
X48296357Y46513810D01*
X48220166Y46437620D01*
X48143976Y46399524D01*
X48867785Y46628096D02*
X49401119Y46628096D01*
X49058261Y45828096D01*
D13*
%TO.C,R1*%
X11564333Y44612220D02*
X11231000Y45088410D01*
X10992904Y44612220D02*
X10992904Y45612220D01*
X11373857Y45612220D01*
X11469095Y45564600D01*
X11516714Y45516981D01*
X11564333Y45421743D01*
X11564333Y45278886D01*
X11516714Y45183648D01*
X11469095Y45136029D01*
X11373857Y45088410D01*
X10992904Y45088410D01*
X12516714Y44612220D02*
X11945285Y44612220D01*
X12231000Y44612220D02*
X12231000Y45612220D01*
X12135761Y45469362D01*
X12040523Y45374124D01*
X11945285Y45326505D01*
%TO.C,C12*%
X39301742Y11503658D02*
X39254123Y11456039D01*
X39111266Y11408420D01*
X39016028Y11408420D01*
X38873171Y11456039D01*
X38777933Y11551277D01*
X38730314Y11646515D01*
X38682695Y11836991D01*
X38682695Y11979848D01*
X38730314Y12170324D01*
X38777933Y12265562D01*
X38873171Y12360800D01*
X39016028Y12408420D01*
X39111266Y12408420D01*
X39254123Y12360800D01*
X39301742Y12313181D01*
X40254123Y11408420D02*
X39682695Y11408420D01*
X39968409Y11408420D02*
X39968409Y12408420D01*
X39873171Y12265562D01*
X39777933Y12170324D01*
X39682695Y12122705D01*
X40635076Y12313181D02*
X40682695Y12360800D01*
X40777933Y12408420D01*
X41016028Y12408420D01*
X41111266Y12360800D01*
X41158885Y12313181D01*
X41206504Y12217943D01*
X41206504Y12122705D01*
X41158885Y11979848D01*
X40587457Y11408420D01*
X41206504Y11408420D01*
D14*
%TO.C,C23*%
X2035714Y29754286D02*
X1997619Y29716191D01*
X1883333Y29678096D01*
X1807142Y29678096D01*
X1692857Y29716191D01*
X1616666Y29792381D01*
X1578571Y29868572D01*
X1540476Y30020953D01*
X1540476Y30135239D01*
X1578571Y30287620D01*
X1616666Y30363810D01*
X1692857Y30440000D01*
X1807142Y30478096D01*
X1883333Y30478096D01*
X1997619Y30440000D01*
X2035714Y30401905D01*
X2340476Y30401905D02*
X2378571Y30440000D01*
X2454761Y30478096D01*
X2645238Y30478096D01*
X2721428Y30440000D01*
X2759523Y30401905D01*
X2797619Y30325715D01*
X2797619Y30249524D01*
X2759523Y30135239D01*
X2302380Y29678096D01*
X2797619Y29678096D01*
X3064285Y30478096D02*
X3559523Y30478096D01*
X3292857Y30173334D01*
X3407142Y30173334D01*
X3483333Y30135239D01*
X3521428Y30097143D01*
X3559523Y30020953D01*
X3559523Y29830477D01*
X3521428Y29754286D01*
X3483333Y29716191D01*
X3407142Y29678096D01*
X3178571Y29678096D01*
X3102380Y29716191D01*
X3064285Y29754286D01*
%TO.C,C21*%
X47845714Y42895715D02*
X47883809Y42857620D01*
X47921904Y42743334D01*
X47921904Y42667143D01*
X47883809Y42552858D01*
X47807619Y42476667D01*
X47731428Y42438572D01*
X47579047Y42400477D01*
X47464761Y42400477D01*
X47312380Y42438572D01*
X47236190Y42476667D01*
X47160000Y42552858D01*
X47121904Y42667143D01*
X47121904Y42743334D01*
X47160000Y42857620D01*
X47198095Y42895715D01*
X47198095Y43200477D02*
X47160000Y43238572D01*
X47121904Y43314762D01*
X47121904Y43505239D01*
X47160000Y43581429D01*
X47198095Y43619524D01*
X47274285Y43657620D01*
X47350476Y43657620D01*
X47464761Y43619524D01*
X47921904Y43162381D01*
X47921904Y43657620D01*
X47921904Y44419524D02*
X47921904Y43962381D01*
X47921904Y44190953D02*
X47121904Y44190953D01*
X47236190Y44114762D01*
X47312380Y44038572D01*
X47350476Y43962381D01*
%TO.C,D1*%
X17154523Y21227096D02*
X17154523Y22027096D01*
X17345000Y22027096D01*
X17459285Y21989000D01*
X17535476Y21912810D01*
X17573571Y21836620D01*
X17611666Y21684239D01*
X17611666Y21569953D01*
X17573571Y21417572D01*
X17535476Y21341381D01*
X17459285Y21265191D01*
X17345000Y21227096D01*
X17154523Y21227096D01*
X18373571Y21227096D02*
X17916428Y21227096D01*
X18145000Y21227096D02*
X18145000Y22027096D01*
X18068809Y21912810D01*
X17992619Y21836620D01*
X17916428Y21798524D01*
D13*
%TO.C,R14*%
X37015912Y18706350D02*
X36443493Y18807365D01*
X36611851Y18302289D02*
X35904745Y19009396D01*
X36174119Y19278770D01*
X36275134Y19312442D01*
X36342477Y19312442D01*
X36443493Y19278770D01*
X36544508Y19177755D01*
X36578180Y19076739D01*
X36578180Y19009396D01*
X36544508Y18908381D01*
X36275134Y18639007D01*
X37689348Y19379785D02*
X37285287Y18975724D01*
X37487317Y19177755D02*
X36780210Y19884862D01*
X36813882Y19716503D01*
X36813882Y19581816D01*
X36780210Y19480800D01*
X37824035Y20457281D02*
X38295439Y19985877D01*
X37386302Y20558297D02*
X37723019Y19884862D01*
X38160752Y20322594D01*
%TO.C,J4*%
X1926666Y56467620D02*
X1926666Y55753334D01*
X1879047Y55610477D01*
X1783809Y55515239D01*
X1640952Y55467620D01*
X1545714Y55467620D01*
X2831428Y56134286D02*
X2831428Y55467620D01*
X2593333Y56515239D02*
X2355238Y55800953D01*
X2974285Y55800953D01*
D14*
%TO.C,R9*%
X17865666Y15004096D02*
X17599000Y15385048D01*
X17408523Y15004096D02*
X17408523Y15804096D01*
X17713285Y15804096D01*
X17789476Y15766000D01*
X17827571Y15727905D01*
X17865666Y15651715D01*
X17865666Y15537429D01*
X17827571Y15461239D01*
X17789476Y15423143D01*
X17713285Y15385048D01*
X17408523Y15385048D01*
X18246619Y15004096D02*
X18399000Y15004096D01*
X18475190Y15042191D01*
X18513285Y15080286D01*
X18589476Y15194572D01*
X18627571Y15346953D01*
X18627571Y15651715D01*
X18589476Y15727905D01*
X18551380Y15766000D01*
X18475190Y15804096D01*
X18322809Y15804096D01*
X18246619Y15766000D01*
X18208523Y15727905D01*
X18170428Y15651715D01*
X18170428Y15461239D01*
X18208523Y15385048D01*
X18246619Y15346953D01*
X18322809Y15308858D01*
X18475190Y15308858D01*
X18551380Y15346953D01*
X18589476Y15385048D01*
X18627571Y15461239D01*
%TO.C,R23*%
X2995714Y28398096D02*
X2729047Y28779048D01*
X2538571Y28398096D02*
X2538571Y29198096D01*
X2843333Y29198096D01*
X2919523Y29160000D01*
X2957619Y29121905D01*
X2995714Y29045715D01*
X2995714Y28931429D01*
X2957619Y28855239D01*
X2919523Y28817143D01*
X2843333Y28779048D01*
X2538571Y28779048D01*
X3300476Y29121905D02*
X3338571Y29160000D01*
X3414761Y29198096D01*
X3605238Y29198096D01*
X3681428Y29160000D01*
X3719523Y29121905D01*
X3757619Y29045715D01*
X3757619Y28969524D01*
X3719523Y28855239D01*
X3262380Y28398096D01*
X3757619Y28398096D01*
X4024285Y29198096D02*
X4519523Y29198096D01*
X4252857Y28893334D01*
X4367142Y28893334D01*
X4443333Y28855239D01*
X4481428Y28817143D01*
X4519523Y28740953D01*
X4519523Y28550477D01*
X4481428Y28474286D01*
X4443333Y28436191D01*
X4367142Y28398096D01*
X4138571Y28398096D01*
X4062380Y28436191D01*
X4024285Y28474286D01*
%TO.C,R20*%
X14125714Y178096D02*
X13859047Y559048D01*
X13668571Y178096D02*
X13668571Y978096D01*
X13973333Y978096D01*
X14049523Y940000D01*
X14087619Y901905D01*
X14125714Y825715D01*
X14125714Y711429D01*
X14087619Y635239D01*
X14049523Y597143D01*
X13973333Y559048D01*
X13668571Y559048D01*
X14430476Y901905D02*
X14468571Y940000D01*
X14544761Y978096D01*
X14735238Y978096D01*
X14811428Y940000D01*
X14849523Y901905D01*
X14887619Y825715D01*
X14887619Y749524D01*
X14849523Y635239D01*
X14392380Y178096D01*
X14887619Y178096D01*
X15382857Y978096D02*
X15459047Y978096D01*
X15535238Y940000D01*
X15573333Y901905D01*
X15611428Y825715D01*
X15649523Y673334D01*
X15649523Y482858D01*
X15611428Y330477D01*
X15573333Y254286D01*
X15535238Y216191D01*
X15459047Y178096D01*
X15382857Y178096D01*
X15306666Y216191D01*
X15268571Y254286D01*
X15230476Y330477D01*
X15192380Y482858D01*
X15192380Y673334D01*
X15230476Y825715D01*
X15268571Y901905D01*
X15306666Y940000D01*
X15382857Y978096D01*
%TO.C,C8*%
X39303266Y33469886D02*
X39265171Y33431791D01*
X39150885Y33393696D01*
X39074695Y33393696D01*
X38960409Y33431791D01*
X38884219Y33507981D01*
X38846123Y33584172D01*
X38808028Y33736553D01*
X38808028Y33850839D01*
X38846123Y34003220D01*
X38884219Y34079410D01*
X38960409Y34155600D01*
X39074695Y34193696D01*
X39150885Y34193696D01*
X39265171Y34155600D01*
X39303266Y34117505D01*
X39760409Y33850839D02*
X39684219Y33888934D01*
X39646123Y33927029D01*
X39608028Y34003220D01*
X39608028Y34041315D01*
X39646123Y34117505D01*
X39684219Y34155600D01*
X39760409Y34193696D01*
X39912790Y34193696D01*
X39988980Y34155600D01*
X40027076Y34117505D01*
X40065171Y34041315D01*
X40065171Y34003220D01*
X40027076Y33927029D01*
X39988980Y33888934D01*
X39912790Y33850839D01*
X39760409Y33850839D01*
X39684219Y33812743D01*
X39646123Y33774648D01*
X39608028Y33698458D01*
X39608028Y33546077D01*
X39646123Y33469886D01*
X39684219Y33431791D01*
X39760409Y33393696D01*
X39912790Y33393696D01*
X39988980Y33431791D01*
X40027076Y33469886D01*
X40065171Y33546077D01*
X40065171Y33698458D01*
X40027076Y33774648D01*
X39988980Y33812743D01*
X39912790Y33850839D01*
%TO.C,C5*%
X16290866Y8019086D02*
X16252771Y7980991D01*
X16138485Y7942896D01*
X16062295Y7942896D01*
X15948009Y7980991D01*
X15871819Y8057181D01*
X15833723Y8133372D01*
X15795628Y8285753D01*
X15795628Y8400039D01*
X15833723Y8552420D01*
X15871819Y8628610D01*
X15948009Y8704800D01*
X16062295Y8742896D01*
X16138485Y8742896D01*
X16252771Y8704800D01*
X16290866Y8666705D01*
X17014676Y8742896D02*
X16633723Y8742896D01*
X16595628Y8361943D01*
X16633723Y8400039D01*
X16709914Y8438134D01*
X16900390Y8438134D01*
X16976580Y8400039D01*
X17014676Y8361943D01*
X17052771Y8285753D01*
X17052771Y8095277D01*
X17014676Y8019086D01*
X16976580Y7980991D01*
X16900390Y7942896D01*
X16709914Y7942896D01*
X16633723Y7980991D01*
X16595628Y8019086D01*
%TO.C,R22*%
X22920314Y170496D02*
X22653647Y551448D01*
X22463171Y170496D02*
X22463171Y970496D01*
X22767933Y970496D01*
X22844123Y932400D01*
X22882219Y894305D01*
X22920314Y818115D01*
X22920314Y703829D01*
X22882219Y627639D01*
X22844123Y589543D01*
X22767933Y551448D01*
X22463171Y551448D01*
X23225076Y894305D02*
X23263171Y932400D01*
X23339361Y970496D01*
X23529838Y970496D01*
X23606028Y932400D01*
X23644123Y894305D01*
X23682219Y818115D01*
X23682219Y741924D01*
X23644123Y627639D01*
X23186980Y170496D01*
X23682219Y170496D01*
X23986980Y894305D02*
X24025076Y932400D01*
X24101266Y970496D01*
X24291742Y970496D01*
X24367933Y932400D01*
X24406028Y894305D01*
X24444123Y818115D01*
X24444123Y741924D01*
X24406028Y627639D01*
X23948885Y170496D01*
X24444123Y170496D01*
D13*
%TO.C,R21*%
X4577142Y37437620D02*
X4243809Y37913810D01*
X4005714Y37437620D02*
X4005714Y38437620D01*
X4386666Y38437620D01*
X4481904Y38390000D01*
X4529523Y38342381D01*
X4577142Y38247143D01*
X4577142Y38104286D01*
X4529523Y38009048D01*
X4481904Y37961429D01*
X4386666Y37913810D01*
X4005714Y37913810D01*
X4958095Y38342381D02*
X5005714Y38390000D01*
X5100952Y38437620D01*
X5339047Y38437620D01*
X5434285Y38390000D01*
X5481904Y38342381D01*
X5529523Y38247143D01*
X5529523Y38151905D01*
X5481904Y38009048D01*
X4910476Y37437620D01*
X5529523Y37437620D01*
X6481904Y37437620D02*
X5910476Y37437620D01*
X6196190Y37437620D02*
X6196190Y38437620D01*
X6100952Y38294762D01*
X6005714Y38199524D01*
X5910476Y38151905D01*
D14*
%TO.C,R12*%
X14817714Y14877096D02*
X14551047Y15258048D01*
X14360571Y14877096D02*
X14360571Y15677096D01*
X14665333Y15677096D01*
X14741523Y15639000D01*
X14779619Y15600905D01*
X14817714Y15524715D01*
X14817714Y15410429D01*
X14779619Y15334239D01*
X14741523Y15296143D01*
X14665333Y15258048D01*
X14360571Y15258048D01*
X15579619Y14877096D02*
X15122476Y14877096D01*
X15351047Y14877096D02*
X15351047Y15677096D01*
X15274857Y15562810D01*
X15198666Y15486620D01*
X15122476Y15448524D01*
X15884380Y15600905D02*
X15922476Y15639000D01*
X15998666Y15677096D01*
X16189142Y15677096D01*
X16265333Y15639000D01*
X16303428Y15600905D01*
X16341523Y15524715D01*
X16341523Y15448524D01*
X16303428Y15334239D01*
X15846285Y14877096D01*
X16341523Y14877096D01*
D13*
%TO.C,C15*%
X10537142Y53522858D02*
X10489523Y53475239D01*
X10346666Y53427620D01*
X10251428Y53427620D01*
X10108571Y53475239D01*
X10013333Y53570477D01*
X9965714Y53665715D01*
X9918095Y53856191D01*
X9918095Y53999048D01*
X9965714Y54189524D01*
X10013333Y54284762D01*
X10108571Y54380000D01*
X10251428Y54427620D01*
X10346666Y54427620D01*
X10489523Y54380000D01*
X10537142Y54332381D01*
X11489523Y53427620D02*
X10918095Y53427620D01*
X11203809Y53427620D02*
X11203809Y54427620D01*
X11108571Y54284762D01*
X11013333Y54189524D01*
X10918095Y54141905D01*
X12394285Y54427620D02*
X11918095Y54427620D01*
X11870476Y53951429D01*
X11918095Y53999048D01*
X12013333Y54046667D01*
X12251428Y54046667D01*
X12346666Y53999048D01*
X12394285Y53951429D01*
X12441904Y53856191D01*
X12441904Y53618096D01*
X12394285Y53522858D01*
X12346666Y53475239D01*
X12251428Y53427620D01*
X12013333Y53427620D01*
X11918095Y53475239D01*
X11870476Y53522858D01*
D14*
%TO.C,C29*%
X20900914Y4132915D02*
X20939009Y4094820D01*
X20977104Y3980534D01*
X20977104Y3904343D01*
X20939009Y3790058D01*
X20862819Y3713867D01*
X20786628Y3675772D01*
X20634247Y3637677D01*
X20519961Y3637677D01*
X20367580Y3675772D01*
X20291390Y3713867D01*
X20215200Y3790058D01*
X20177104Y3904343D01*
X20177104Y3980534D01*
X20215200Y4094820D01*
X20253295Y4132915D01*
X20253295Y4437677D02*
X20215200Y4475772D01*
X20177104Y4551962D01*
X20177104Y4742439D01*
X20215200Y4818629D01*
X20253295Y4856724D01*
X20329485Y4894820D01*
X20405676Y4894820D01*
X20519961Y4856724D01*
X20977104Y4399581D01*
X20977104Y4894820D01*
X20977104Y5275772D02*
X20977104Y5428153D01*
X20939009Y5504343D01*
X20900914Y5542439D01*
X20786628Y5618629D01*
X20634247Y5656724D01*
X20329485Y5656724D01*
X20253295Y5618629D01*
X20215200Y5580534D01*
X20177104Y5504343D01*
X20177104Y5351962D01*
X20215200Y5275772D01*
X20253295Y5237677D01*
X20329485Y5199581D01*
X20519961Y5199581D01*
X20596152Y5237677D01*
X20634247Y5275772D01*
X20672342Y5351962D01*
X20672342Y5504343D01*
X20634247Y5580534D01*
X20596152Y5618629D01*
X20519961Y5656724D01*
D13*
%TO.C,U1*%
X17171980Y32638096D02*
X17981504Y32638096D01*
X18076742Y32685715D01*
X18124361Y32733334D01*
X18171980Y32828572D01*
X18171980Y33019048D01*
X18124361Y33114286D01*
X18076742Y33161905D01*
X17981504Y33209524D01*
X17171980Y33209524D01*
X18171980Y34209524D02*
X18171980Y33638096D01*
X18171980Y33923810D02*
X17171980Y33923810D01*
X17314838Y33828572D01*
X17410076Y33733334D01*
X17457695Y33638096D01*
D14*
%TO.C,R13*%
X12023714Y14750096D02*
X11757047Y15131048D01*
X11566571Y14750096D02*
X11566571Y15550096D01*
X11871333Y15550096D01*
X11947523Y15512000D01*
X11985619Y15473905D01*
X12023714Y15397715D01*
X12023714Y15283429D01*
X11985619Y15207239D01*
X11947523Y15169143D01*
X11871333Y15131048D01*
X11566571Y15131048D01*
X12785619Y14750096D02*
X12328476Y14750096D01*
X12557047Y14750096D02*
X12557047Y15550096D01*
X12480857Y15435810D01*
X12404666Y15359620D01*
X12328476Y15321524D01*
X13052285Y15550096D02*
X13547523Y15550096D01*
X13280857Y15245334D01*
X13395142Y15245334D01*
X13471333Y15207239D01*
X13509428Y15169143D01*
X13547523Y15092953D01*
X13547523Y14902477D01*
X13509428Y14826286D01*
X13471333Y14788191D01*
X13395142Y14750096D01*
X13166571Y14750096D01*
X13090380Y14788191D01*
X13052285Y14826286D01*
D13*
%TO.C,C27*%
X6387142Y42072858D02*
X6339523Y42025239D01*
X6196666Y41977620D01*
X6101428Y41977620D01*
X5958571Y42025239D01*
X5863333Y42120477D01*
X5815714Y42215715D01*
X5768095Y42406191D01*
X5768095Y42549048D01*
X5815714Y42739524D01*
X5863333Y42834762D01*
X5958571Y42930000D01*
X6101428Y42977620D01*
X6196666Y42977620D01*
X6339523Y42930000D01*
X6387142Y42882381D01*
X6768095Y42882381D02*
X6815714Y42930000D01*
X6910952Y42977620D01*
X7149047Y42977620D01*
X7244285Y42930000D01*
X7291904Y42882381D01*
X7339523Y42787143D01*
X7339523Y42691905D01*
X7291904Y42549048D01*
X6720476Y41977620D01*
X7339523Y41977620D01*
X7672857Y42977620D02*
X8339523Y42977620D01*
X7910952Y41977620D01*
D14*
%TO.C,D7*%
X3261904Y22879524D02*
X2461904Y22879524D01*
X2461904Y23070000D01*
X2500000Y23184286D01*
X2576190Y23260477D01*
X2652380Y23298572D01*
X2804761Y23336667D01*
X2919047Y23336667D01*
X3071428Y23298572D01*
X3147619Y23260477D01*
X3223809Y23184286D01*
X3261904Y23070000D01*
X3261904Y22879524D01*
X2461904Y23603334D02*
X2461904Y24136667D01*
X3261904Y23793810D01*
%TO.C,D2*%
X14614523Y21100096D02*
X14614523Y21900096D01*
X14805000Y21900096D01*
X14919285Y21862000D01*
X14995476Y21785810D01*
X15033571Y21709620D01*
X15071666Y21557239D01*
X15071666Y21442953D01*
X15033571Y21290572D01*
X14995476Y21214381D01*
X14919285Y21138191D01*
X14805000Y21100096D01*
X14614523Y21100096D01*
X15376428Y21823905D02*
X15414523Y21862000D01*
X15490714Y21900096D01*
X15681190Y21900096D01*
X15757380Y21862000D01*
X15795476Y21823905D01*
X15833571Y21747715D01*
X15833571Y21671524D01*
X15795476Y21557239D01*
X15338333Y21100096D01*
X15833571Y21100096D01*
D13*
%TO.C,D8*%
X24372904Y17326620D02*
X24372904Y18326620D01*
X24611000Y18326620D01*
X24753857Y18279000D01*
X24849095Y18183762D01*
X24896714Y18088524D01*
X24944333Y17898048D01*
X24944333Y17755191D01*
X24896714Y17564715D01*
X24849095Y17469477D01*
X24753857Y17374239D01*
X24611000Y17326620D01*
X24372904Y17326620D01*
X25515761Y17898048D02*
X25420523Y17945667D01*
X25372904Y17993286D01*
X25325285Y18088524D01*
X25325285Y18136143D01*
X25372904Y18231381D01*
X25420523Y18279000D01*
X25515761Y18326620D01*
X25706238Y18326620D01*
X25801476Y18279000D01*
X25849095Y18231381D01*
X25896714Y18136143D01*
X25896714Y18088524D01*
X25849095Y17993286D01*
X25801476Y17945667D01*
X25706238Y17898048D01*
X25515761Y17898048D01*
X25420523Y17850429D01*
X25372904Y17802810D01*
X25325285Y17707572D01*
X25325285Y17517096D01*
X25372904Y17421858D01*
X25420523Y17374239D01*
X25515761Y17326620D01*
X25706238Y17326620D01*
X25801476Y17374239D01*
X25849095Y17421858D01*
X25896714Y17517096D01*
X25896714Y17707572D01*
X25849095Y17802810D01*
X25801476Y17850429D01*
X25706238Y17898048D01*
D14*
%TO.C,C22*%
X41239214Y46914286D02*
X41201119Y46876191D01*
X41086833Y46838096D01*
X41010642Y46838096D01*
X40896357Y46876191D01*
X40820166Y46952381D01*
X40782071Y47028572D01*
X40743976Y47180953D01*
X40743976Y47295239D01*
X40782071Y47447620D01*
X40820166Y47523810D01*
X40896357Y47600000D01*
X41010642Y47638096D01*
X41086833Y47638096D01*
X41201119Y47600000D01*
X41239214Y47561905D01*
X41543976Y47561905D02*
X41582071Y47600000D01*
X41658261Y47638096D01*
X41848738Y47638096D01*
X41924928Y47600000D01*
X41963023Y47561905D01*
X42001119Y47485715D01*
X42001119Y47409524D01*
X41963023Y47295239D01*
X41505880Y46838096D01*
X42001119Y46838096D01*
X42305880Y47561905D02*
X42343976Y47600000D01*
X42420166Y47638096D01*
X42610642Y47638096D01*
X42686833Y47600000D01*
X42724928Y47561905D01*
X42763023Y47485715D01*
X42763023Y47409524D01*
X42724928Y47295239D01*
X42267785Y46838096D01*
X42763023Y46838096D01*
%TO.C,R5*%
X39476666Y45758096D02*
X39210000Y46139048D01*
X39019523Y45758096D02*
X39019523Y46558096D01*
X39324285Y46558096D01*
X39400476Y46520000D01*
X39438571Y46481905D01*
X39476666Y46405715D01*
X39476666Y46291429D01*
X39438571Y46215239D01*
X39400476Y46177143D01*
X39324285Y46139048D01*
X39019523Y46139048D01*
X40200476Y46558096D02*
X39819523Y46558096D01*
X39781428Y46177143D01*
X39819523Y46215239D01*
X39895714Y46253334D01*
X40086190Y46253334D01*
X40162380Y46215239D01*
X40200476Y46177143D01*
X40238571Y46100953D01*
X40238571Y45910477D01*
X40200476Y45834286D01*
X40162380Y45796191D01*
X40086190Y45758096D01*
X39895714Y45758096D01*
X39819523Y45796191D01*
X39781428Y45834286D01*
D13*
%TO.C,Q1*%
X25853961Y25143181D02*
X25758723Y25190800D01*
X25663485Y25286039D01*
X25520628Y25428896D01*
X25425390Y25476515D01*
X25330152Y25476515D01*
X25377771Y25238420D02*
X25282533Y25286039D01*
X25187295Y25381277D01*
X25139676Y25571753D01*
X25139676Y25905086D01*
X25187295Y26095562D01*
X25282533Y26190800D01*
X25377771Y26238420D01*
X25568247Y26238420D01*
X25663485Y26190800D01*
X25758723Y26095562D01*
X25806342Y25905086D01*
X25806342Y25571753D01*
X25758723Y25381277D01*
X25663485Y25286039D01*
X25568247Y25238420D01*
X25377771Y25238420D01*
X26758723Y25238420D02*
X26187295Y25238420D01*
X26473009Y25238420D02*
X26473009Y26238420D01*
X26377771Y26095562D01*
X26282533Y26000324D01*
X26187295Y25952705D01*
D14*
%TO.C,C9*%
X18526666Y8074286D02*
X18488571Y8036191D01*
X18374285Y7998096D01*
X18298095Y7998096D01*
X18183809Y8036191D01*
X18107619Y8112381D01*
X18069523Y8188572D01*
X18031428Y8340953D01*
X18031428Y8455239D01*
X18069523Y8607620D01*
X18107619Y8683810D01*
X18183809Y8760000D01*
X18298095Y8798096D01*
X18374285Y8798096D01*
X18488571Y8760000D01*
X18526666Y8721905D01*
X18907619Y7998096D02*
X19060000Y7998096D01*
X19136190Y8036191D01*
X19174285Y8074286D01*
X19250476Y8188572D01*
X19288571Y8340953D01*
X19288571Y8645715D01*
X19250476Y8721905D01*
X19212380Y8760000D01*
X19136190Y8798096D01*
X18983809Y8798096D01*
X18907619Y8760000D01*
X18869523Y8721905D01*
X18831428Y8645715D01*
X18831428Y8455239D01*
X18869523Y8379048D01*
X18907619Y8340953D01*
X18983809Y8302858D01*
X19136190Y8302858D01*
X19212380Y8340953D01*
X19250476Y8379048D01*
X19288571Y8455239D01*
%TO.C,D9*%
X22551904Y18458524D02*
X21751904Y18458524D01*
X21751904Y18649000D01*
X21790000Y18763286D01*
X21866190Y18839477D01*
X21942380Y18877572D01*
X22094761Y18915667D01*
X22209047Y18915667D01*
X22361428Y18877572D01*
X22437619Y18839477D01*
X22513809Y18763286D01*
X22551904Y18649000D01*
X22551904Y18458524D01*
X22551904Y19296620D02*
X22551904Y19449000D01*
X22513809Y19525191D01*
X22475714Y19563286D01*
X22361428Y19639477D01*
X22209047Y19677572D01*
X21904285Y19677572D01*
X21828095Y19639477D01*
X21790000Y19601381D01*
X21751904Y19525191D01*
X21751904Y19372810D01*
X21790000Y19296620D01*
X21828095Y19258524D01*
X21904285Y19220429D01*
X22094761Y19220429D01*
X22170952Y19258524D01*
X22209047Y19296620D01*
X22247142Y19372810D01*
X22247142Y19525191D01*
X22209047Y19601381D01*
X22170952Y19639477D01*
X22094761Y19677572D01*
D13*
%TO.C,C11*%
X15120942Y41069258D02*
X15073323Y41021639D01*
X14930466Y40974020D01*
X14835228Y40974020D01*
X14692371Y41021639D01*
X14597133Y41116877D01*
X14549514Y41212115D01*
X14501895Y41402591D01*
X14501895Y41545448D01*
X14549514Y41735924D01*
X14597133Y41831162D01*
X14692371Y41926400D01*
X14835228Y41974020D01*
X14930466Y41974020D01*
X15073323Y41926400D01*
X15120942Y41878781D01*
X16073323Y40974020D02*
X15501895Y40974020D01*
X15787609Y40974020D02*
X15787609Y41974020D01*
X15692371Y41831162D01*
X15597133Y41735924D01*
X15501895Y41688305D01*
X17025704Y40974020D02*
X16454276Y40974020D01*
X16739990Y40974020D02*
X16739990Y41974020D01*
X16644752Y41831162D01*
X16549514Y41735924D01*
X16454276Y41688305D01*
D14*
%TO.C,C4*%
X14456666Y7944286D02*
X14418571Y7906191D01*
X14304285Y7868096D01*
X14228095Y7868096D01*
X14113809Y7906191D01*
X14037619Y7982381D01*
X13999523Y8058572D01*
X13961428Y8210953D01*
X13961428Y8325239D01*
X13999523Y8477620D01*
X14037619Y8553810D01*
X14113809Y8630000D01*
X14228095Y8668096D01*
X14304285Y8668096D01*
X14418571Y8630000D01*
X14456666Y8591905D01*
X15142380Y8401429D02*
X15142380Y7868096D01*
X14951904Y8706191D02*
X14761428Y8134762D01*
X15256666Y8134762D01*
%TO.C,R18*%
X39150914Y30244096D02*
X38884247Y30625048D01*
X38693771Y30244096D02*
X38693771Y31044096D01*
X38998533Y31044096D01*
X39074723Y31006000D01*
X39112819Y30967905D01*
X39150914Y30891715D01*
X39150914Y30777429D01*
X39112819Y30701239D01*
X39074723Y30663143D01*
X38998533Y30625048D01*
X38693771Y30625048D01*
X39912819Y30244096D02*
X39455676Y30244096D01*
X39684247Y30244096D02*
X39684247Y31044096D01*
X39608057Y30929810D01*
X39531866Y30853620D01*
X39455676Y30815524D01*
X40369961Y30701239D02*
X40293771Y30739334D01*
X40255676Y30777429D01*
X40217580Y30853620D01*
X40217580Y30891715D01*
X40255676Y30967905D01*
X40293771Y31006000D01*
X40369961Y31044096D01*
X40522342Y31044096D01*
X40598533Y31006000D01*
X40636628Y30967905D01*
X40674723Y30891715D01*
X40674723Y30853620D01*
X40636628Y30777429D01*
X40598533Y30739334D01*
X40522342Y30701239D01*
X40369961Y30701239D01*
X40293771Y30663143D01*
X40255676Y30625048D01*
X40217580Y30548858D01*
X40217580Y30396477D01*
X40255676Y30320286D01*
X40293771Y30282191D01*
X40369961Y30244096D01*
X40522342Y30244096D01*
X40598533Y30282191D01*
X40636628Y30320286D01*
X40674723Y30396477D01*
X40674723Y30548858D01*
X40636628Y30625048D01*
X40598533Y30663143D01*
X40522342Y30701239D01*
D13*
%TO.C,C16*%
X15628942Y46631858D02*
X15581323Y46584239D01*
X15438466Y46536620D01*
X15343228Y46536620D01*
X15200371Y46584239D01*
X15105133Y46679477D01*
X15057514Y46774715D01*
X15009895Y46965191D01*
X15009895Y47108048D01*
X15057514Y47298524D01*
X15105133Y47393762D01*
X15200371Y47489000D01*
X15343228Y47536620D01*
X15438466Y47536620D01*
X15581323Y47489000D01*
X15628942Y47441381D01*
X16581323Y46536620D02*
X16009895Y46536620D01*
X16295609Y46536620D02*
X16295609Y47536620D01*
X16200371Y47393762D01*
X16105133Y47298524D01*
X16009895Y47250905D01*
X17438466Y47536620D02*
X17247990Y47536620D01*
X17152752Y47489000D01*
X17105133Y47441381D01*
X17009895Y47298524D01*
X16962276Y47108048D01*
X16962276Y46727096D01*
X17009895Y46631858D01*
X17057514Y46584239D01*
X17152752Y46536620D01*
X17343228Y46536620D01*
X17438466Y46584239D01*
X17486085Y46631858D01*
X17533704Y46727096D01*
X17533704Y46965191D01*
X17486085Y47060429D01*
X17438466Y47108048D01*
X17343228Y47155667D01*
X17152752Y47155667D01*
X17057514Y47108048D01*
X17009895Y47060429D01*
X16962276Y46965191D01*
%TO.C,U3*%
X39872380Y39858096D02*
X40681904Y39858096D01*
X40777142Y39905715D01*
X40824761Y39953334D01*
X40872380Y40048572D01*
X40872380Y40239048D01*
X40824761Y40334286D01*
X40777142Y40381905D01*
X40681904Y40429524D01*
X39872380Y40429524D01*
X39872380Y40810477D02*
X39872380Y41429524D01*
X40253333Y41096191D01*
X40253333Y41239048D01*
X40300952Y41334286D01*
X40348571Y41381905D01*
X40443809Y41429524D01*
X40681904Y41429524D01*
X40777142Y41381905D01*
X40824761Y41334286D01*
X40872380Y41239048D01*
X40872380Y40953334D01*
X40824761Y40858096D01*
X40777142Y40810477D01*
%TO.C,R11*%
X14689142Y38662620D02*
X14355809Y39138810D01*
X14117714Y38662620D02*
X14117714Y39662620D01*
X14498666Y39662620D01*
X14593904Y39615000D01*
X14641523Y39567381D01*
X14689142Y39472143D01*
X14689142Y39329286D01*
X14641523Y39234048D01*
X14593904Y39186429D01*
X14498666Y39138810D01*
X14117714Y39138810D01*
X15641523Y38662620D02*
X15070095Y38662620D01*
X15355809Y38662620D02*
X15355809Y39662620D01*
X15260571Y39519762D01*
X15165333Y39424524D01*
X15070095Y39376905D01*
X16593904Y38662620D02*
X16022476Y38662620D01*
X16308190Y38662620D02*
X16308190Y39662620D01*
X16212952Y39519762D01*
X16117714Y39424524D01*
X16022476Y39376905D01*
D14*
%TO.C,C30*%
X17305714Y6934286D02*
X17267619Y6896191D01*
X17153333Y6858096D01*
X17077142Y6858096D01*
X16962857Y6896191D01*
X16886666Y6972381D01*
X16848571Y7048572D01*
X16810476Y7200953D01*
X16810476Y7315239D01*
X16848571Y7467620D01*
X16886666Y7543810D01*
X16962857Y7620000D01*
X17077142Y7658096D01*
X17153333Y7658096D01*
X17267619Y7620000D01*
X17305714Y7581905D01*
X17572380Y7658096D02*
X18067619Y7658096D01*
X17800952Y7353334D01*
X17915238Y7353334D01*
X17991428Y7315239D01*
X18029523Y7277143D01*
X18067619Y7200953D01*
X18067619Y7010477D01*
X18029523Y6934286D01*
X17991428Y6896191D01*
X17915238Y6858096D01*
X17686666Y6858096D01*
X17610476Y6896191D01*
X17572380Y6934286D01*
X18562857Y7658096D02*
X18639047Y7658096D01*
X18715238Y7620000D01*
X18753333Y7581905D01*
X18791428Y7505715D01*
X18829523Y7353334D01*
X18829523Y7162858D01*
X18791428Y7010477D01*
X18753333Y6934286D01*
X18715238Y6896191D01*
X18639047Y6858096D01*
X18562857Y6858096D01*
X18486666Y6896191D01*
X18448571Y6934286D01*
X18410476Y7010477D01*
X18372380Y7162858D01*
X18372380Y7353334D01*
X18410476Y7505715D01*
X18448571Y7581905D01*
X18486666Y7620000D01*
X18562857Y7658096D01*
%TO.C,C31*%
X20456514Y424486D02*
X20418419Y386391D01*
X20304133Y348296D01*
X20227942Y348296D01*
X20113657Y386391D01*
X20037466Y462581D01*
X19999371Y538772D01*
X19961276Y691153D01*
X19961276Y805439D01*
X19999371Y957820D01*
X20037466Y1034010D01*
X20113657Y1110200D01*
X20227942Y1148296D01*
X20304133Y1148296D01*
X20418419Y1110200D01*
X20456514Y1072105D01*
X20723180Y1148296D02*
X21218419Y1148296D01*
X20951752Y843534D01*
X21066038Y843534D01*
X21142228Y805439D01*
X21180323Y767343D01*
X21218419Y691153D01*
X21218419Y500677D01*
X21180323Y424486D01*
X21142228Y386391D01*
X21066038Y348296D01*
X20837466Y348296D01*
X20761276Y386391D01*
X20723180Y424486D01*
X21980323Y348296D02*
X21523180Y348296D01*
X21751752Y348296D02*
X21751752Y1148296D01*
X21675561Y1034010D01*
X21599371Y957820D01*
X21523180Y919724D01*
D13*
%TO.C,R16*%
X45291050Y19600113D02*
X45190035Y19027694D01*
X45695111Y19196052D02*
X44988004Y18488946D01*
X44718630Y18758320D01*
X44684958Y18859335D01*
X44684958Y18926678D01*
X44718630Y19027694D01*
X44819645Y19128709D01*
X44920661Y19162381D01*
X44988004Y19162381D01*
X45089019Y19128709D01*
X45358393Y18859335D01*
X44617615Y20273549D02*
X45021676Y19869488D01*
X44819645Y20071518D02*
X44112538Y19364411D01*
X44280897Y19398083D01*
X44415584Y19398083D01*
X44516600Y19364411D01*
X43304416Y20172533D02*
X43439103Y20037846D01*
X43540119Y20004175D01*
X43607462Y20004175D01*
X43775821Y20037846D01*
X43944180Y20138862D01*
X44213554Y20408236D01*
X44247225Y20509251D01*
X44247225Y20576594D01*
X44213554Y20677610D01*
X44078867Y20812297D01*
X43977851Y20845968D01*
X43910508Y20845968D01*
X43809493Y20812297D01*
X43641134Y20643938D01*
X43607462Y20542923D01*
X43607462Y20475579D01*
X43641134Y20374564D01*
X43775821Y20239877D01*
X43876836Y20206205D01*
X43944180Y20206205D01*
X44045195Y20239877D01*
%TO.C,C25*%
X4717142Y46002858D02*
X4669523Y45955239D01*
X4526666Y45907620D01*
X4431428Y45907620D01*
X4288571Y45955239D01*
X4193333Y46050477D01*
X4145714Y46145715D01*
X4098095Y46336191D01*
X4098095Y46479048D01*
X4145714Y46669524D01*
X4193333Y46764762D01*
X4288571Y46860000D01*
X4431428Y46907620D01*
X4526666Y46907620D01*
X4669523Y46860000D01*
X4717142Y46812381D01*
X5098095Y46812381D02*
X5145714Y46860000D01*
X5240952Y46907620D01*
X5479047Y46907620D01*
X5574285Y46860000D01*
X5621904Y46812381D01*
X5669523Y46717143D01*
X5669523Y46621905D01*
X5621904Y46479048D01*
X5050476Y45907620D01*
X5669523Y45907620D01*
X6574285Y46907620D02*
X6098095Y46907620D01*
X6050476Y46431429D01*
X6098095Y46479048D01*
X6193333Y46526667D01*
X6431428Y46526667D01*
X6526666Y46479048D01*
X6574285Y46431429D01*
X6621904Y46336191D01*
X6621904Y46098096D01*
X6574285Y46002858D01*
X6526666Y45955239D01*
X6431428Y45907620D01*
X6193333Y45907620D01*
X6098095Y45955239D01*
X6050476Y46002858D01*
%TO.C,C10*%
X15451142Y34566858D02*
X15403523Y34519239D01*
X15260666Y34471620D01*
X15165428Y34471620D01*
X15022571Y34519239D01*
X14927333Y34614477D01*
X14879714Y34709715D01*
X14832095Y34900191D01*
X14832095Y35043048D01*
X14879714Y35233524D01*
X14927333Y35328762D01*
X15022571Y35424000D01*
X15165428Y35471620D01*
X15260666Y35471620D01*
X15403523Y35424000D01*
X15451142Y35376381D01*
X16403523Y34471620D02*
X15832095Y34471620D01*
X16117809Y34471620D02*
X16117809Y35471620D01*
X16022571Y35328762D01*
X15927333Y35233524D01*
X15832095Y35185905D01*
X17022571Y35471620D02*
X17117809Y35471620D01*
X17213047Y35424000D01*
X17260666Y35376381D01*
X17308285Y35281143D01*
X17355904Y35090667D01*
X17355904Y34852572D01*
X17308285Y34662096D01*
X17260666Y34566858D01*
X17213047Y34519239D01*
X17117809Y34471620D01*
X17022571Y34471620D01*
X16927333Y34519239D01*
X16879714Y34566858D01*
X16832095Y34662096D01*
X16784476Y34852572D01*
X16784476Y35090667D01*
X16832095Y35281143D01*
X16879714Y35376381D01*
X16927333Y35424000D01*
X17022571Y35471620D01*
%TO.C,U5*%
X13453580Y28015296D02*
X14263104Y28015296D01*
X14358342Y28062915D01*
X14405961Y28110534D01*
X14453580Y28205772D01*
X14453580Y28396248D01*
X14405961Y28491486D01*
X14358342Y28539105D01*
X14263104Y28586724D01*
X13453580Y28586724D01*
X13453580Y29539105D02*
X13453580Y29062915D01*
X13929771Y29015296D01*
X13882152Y29062915D01*
X13834533Y29158153D01*
X13834533Y29396248D01*
X13882152Y29491486D01*
X13929771Y29539105D01*
X14025009Y29586724D01*
X14263104Y29586724D01*
X14358342Y29539105D01*
X14405961Y29491486D01*
X14453580Y29396248D01*
X14453580Y29158153D01*
X14405961Y29062915D01*
X14358342Y29015296D01*
%TO.C,R10*%
X18222780Y44517343D02*
X17746590Y44184010D01*
X18222780Y43945915D02*
X17222780Y43945915D01*
X17222780Y44326867D01*
X17270400Y44422105D01*
X17318019Y44469724D01*
X17413257Y44517343D01*
X17556114Y44517343D01*
X17651352Y44469724D01*
X17698971Y44422105D01*
X17746590Y44326867D01*
X17746590Y43945915D01*
X18222780Y45469724D02*
X18222780Y44898296D01*
X18222780Y45184010D02*
X17222780Y45184010D01*
X17365638Y45088772D01*
X17460876Y44993534D01*
X17508495Y44898296D01*
X17222780Y46088772D02*
X17222780Y46184010D01*
X17270400Y46279248D01*
X17318019Y46326867D01*
X17413257Y46374486D01*
X17603733Y46422105D01*
X17841828Y46422105D01*
X18032304Y46374486D01*
X18127542Y46326867D01*
X18175161Y46279248D01*
X18222780Y46184010D01*
X18222780Y46088772D01*
X18175161Y45993534D01*
X18127542Y45945915D01*
X18032304Y45898296D01*
X17841828Y45850677D01*
X17603733Y45850677D01*
X17413257Y45898296D01*
X17318019Y45945915D01*
X17270400Y45993534D01*
X17222780Y46088772D01*
%TO.C,C26*%
X12809542Y5077458D02*
X12761923Y5029839D01*
X12619066Y4982220D01*
X12523828Y4982220D01*
X12380971Y5029839D01*
X12285733Y5125077D01*
X12238114Y5220315D01*
X12190495Y5410791D01*
X12190495Y5553648D01*
X12238114Y5744124D01*
X12285733Y5839362D01*
X12380971Y5934600D01*
X12523828Y5982220D01*
X12619066Y5982220D01*
X12761923Y5934600D01*
X12809542Y5886981D01*
X13190495Y5886981D02*
X13238114Y5934600D01*
X13333352Y5982220D01*
X13571447Y5982220D01*
X13666685Y5934600D01*
X13714304Y5886981D01*
X13761923Y5791743D01*
X13761923Y5696505D01*
X13714304Y5553648D01*
X13142876Y4982220D01*
X13761923Y4982220D01*
X14619066Y5982220D02*
X14428590Y5982220D01*
X14333352Y5934600D01*
X14285733Y5886981D01*
X14190495Y5744124D01*
X14142876Y5553648D01*
X14142876Y5172696D01*
X14190495Y5077458D01*
X14238114Y5029839D01*
X14333352Y4982220D01*
X14523828Y4982220D01*
X14619066Y5029839D01*
X14666685Y5077458D01*
X14714304Y5172696D01*
X14714304Y5410791D01*
X14666685Y5506029D01*
X14619066Y5553648D01*
X14523828Y5601267D01*
X14333352Y5601267D01*
X14238114Y5553648D01*
X14190495Y5506029D01*
X14142876Y5410791D01*
%TO.C,R2*%
X11583933Y46079420D02*
X11250600Y46555610D01*
X11012504Y46079420D02*
X11012504Y47079420D01*
X11393457Y47079420D01*
X11488695Y47031800D01*
X11536314Y46984181D01*
X11583933Y46888943D01*
X11583933Y46746086D01*
X11536314Y46650848D01*
X11488695Y46603229D01*
X11393457Y46555610D01*
X11012504Y46555610D01*
X11964885Y46984181D02*
X12012504Y47031800D01*
X12107742Y47079420D01*
X12345838Y47079420D01*
X12441076Y47031800D01*
X12488695Y46984181D01*
X12536314Y46888943D01*
X12536314Y46793705D01*
X12488695Y46650848D01*
X11917266Y46079420D01*
X12536314Y46079420D01*
%TO.C,R8*%
X22836133Y22762220D02*
X22502800Y23238410D01*
X22264704Y22762220D02*
X22264704Y23762220D01*
X22645657Y23762220D01*
X22740895Y23714600D01*
X22788514Y23666981D01*
X22836133Y23571743D01*
X22836133Y23428886D01*
X22788514Y23333648D01*
X22740895Y23286029D01*
X22645657Y23238410D01*
X22264704Y23238410D01*
X23407561Y23333648D02*
X23312323Y23381267D01*
X23264704Y23428886D01*
X23217085Y23524124D01*
X23217085Y23571743D01*
X23264704Y23666981D01*
X23312323Y23714600D01*
X23407561Y23762220D01*
X23598038Y23762220D01*
X23693276Y23714600D01*
X23740895Y23666981D01*
X23788514Y23571743D01*
X23788514Y23524124D01*
X23740895Y23428886D01*
X23693276Y23381267D01*
X23598038Y23333648D01*
X23407561Y23333648D01*
X23312323Y23286029D01*
X23264704Y23238410D01*
X23217085Y23143172D01*
X23217085Y22952696D01*
X23264704Y22857458D01*
X23312323Y22809839D01*
X23407561Y22762220D01*
X23598038Y22762220D01*
X23693276Y22809839D01*
X23740895Y22857458D01*
X23788514Y22952696D01*
X23788514Y23143172D01*
X23740895Y23238410D01*
X23693276Y23286029D01*
X23598038Y23333648D01*
D14*
%TO.C,R7*%
X22920266Y25418096D02*
X22653600Y25799048D01*
X22463123Y25418096D02*
X22463123Y26218096D01*
X22767885Y26218096D01*
X22844076Y26180000D01*
X22882171Y26141905D01*
X22920266Y26065715D01*
X22920266Y25951429D01*
X22882171Y25875239D01*
X22844076Y25837143D01*
X22767885Y25799048D01*
X22463123Y25799048D01*
X23186933Y26218096D02*
X23720266Y26218096D01*
X23377409Y25418096D01*
%TO.C,R24*%
X20151714Y14623096D02*
X19885047Y15004048D01*
X19694571Y14623096D02*
X19694571Y15423096D01*
X19999333Y15423096D01*
X20075523Y15385000D01*
X20113619Y15346905D01*
X20151714Y15270715D01*
X20151714Y15156429D01*
X20113619Y15080239D01*
X20075523Y15042143D01*
X19999333Y15004048D01*
X19694571Y15004048D01*
X20456476Y15346905D02*
X20494571Y15385000D01*
X20570761Y15423096D01*
X20761238Y15423096D01*
X20837428Y15385000D01*
X20875523Y15346905D01*
X20913619Y15270715D01*
X20913619Y15194524D01*
X20875523Y15080239D01*
X20418380Y14623096D01*
X20913619Y14623096D01*
X21599333Y15156429D02*
X21599333Y14623096D01*
X21408857Y15461191D02*
X21218380Y14889762D01*
X21713619Y14889762D01*
D13*
%TO.C,SW1*%
X45034761Y50800417D02*
X45082380Y50943274D01*
X45082380Y51181370D01*
X45034761Y51276608D01*
X44987142Y51324227D01*
X44891904Y51371846D01*
X44796666Y51371846D01*
X44701428Y51324227D01*
X44653809Y51276608D01*
X44606190Y51181370D01*
X44558571Y50990893D01*
X44510952Y50895655D01*
X44463333Y50848036D01*
X44368095Y50800417D01*
X44272857Y50800417D01*
X44177619Y50848036D01*
X44130000Y50895655D01*
X44082380Y50990893D01*
X44082380Y51228989D01*
X44130000Y51371846D01*
X44082380Y51705179D02*
X45082380Y51943274D01*
X44368095Y52133750D01*
X45082380Y52324227D01*
X44082380Y52562322D01*
X45082380Y53467084D02*
X45082380Y52895655D01*
X45082380Y53181370D02*
X44082380Y53181370D01*
X44225238Y53086131D01*
X44320476Y52990893D01*
X44368095Y52895655D01*
%TO.C,L1*%
X41732380Y6803334D02*
X41732380Y6327143D01*
X40732380Y6327143D01*
X41732380Y7660477D02*
X41732380Y7089048D01*
X41732380Y7374762D02*
X40732380Y7374762D01*
X40875238Y7279524D01*
X40970476Y7184286D01*
X41018095Y7089048D01*
%TO.C,C24*%
X2577142Y39487143D02*
X2624761Y39439524D01*
X2672380Y39296667D01*
X2672380Y39201429D01*
X2624761Y39058572D01*
X2529523Y38963334D01*
X2434285Y38915715D01*
X2243809Y38868096D01*
X2100952Y38868096D01*
X1910476Y38915715D01*
X1815238Y38963334D01*
X1720000Y39058572D01*
X1672380Y39201429D01*
X1672380Y39296667D01*
X1720000Y39439524D01*
X1767619Y39487143D01*
X1767619Y39868096D02*
X1720000Y39915715D01*
X1672380Y40010953D01*
X1672380Y40249048D01*
X1720000Y40344286D01*
X1767619Y40391905D01*
X1862857Y40439524D01*
X1958095Y40439524D01*
X2100952Y40391905D01*
X2672380Y39820477D01*
X2672380Y40439524D01*
X2005714Y41296667D02*
X2672380Y41296667D01*
X1624761Y41058572D02*
X2339047Y40820477D01*
X2339047Y41439524D01*
%TO.C,R15*%
X47929446Y22347016D02*
X47357027Y22448031D01*
X47525385Y21942955D02*
X46818279Y22650062D01*
X47087653Y22919436D01*
X47188668Y22953108D01*
X47256011Y22953108D01*
X47357027Y22919436D01*
X47458042Y22818421D01*
X47491714Y22717405D01*
X47491714Y22650062D01*
X47458042Y22549047D01*
X47188668Y22279673D01*
X48602882Y23020451D02*
X48198821Y22616390D01*
X48400851Y22818421D02*
X47693744Y23525528D01*
X47727416Y23357169D01*
X47727416Y23222482D01*
X47693744Y23121466D01*
X48535538Y24367321D02*
X48198821Y24030604D01*
X48501866Y23660215D01*
X48501866Y23727558D01*
X48535538Y23828573D01*
X48703897Y23996932D01*
X48804912Y24030604D01*
X48872256Y24030604D01*
X48973271Y23996932D01*
X49141630Y23828573D01*
X49175301Y23727558D01*
X49175301Y23660215D01*
X49141630Y23559199D01*
X48973271Y23390841D01*
X48872256Y23357169D01*
X48804912Y23357169D01*
%TO.C,C13*%
X45321542Y49400458D02*
X45273923Y49352839D01*
X45131066Y49305220D01*
X45035828Y49305220D01*
X44892971Y49352839D01*
X44797733Y49448077D01*
X44750114Y49543315D01*
X44702495Y49733791D01*
X44702495Y49876648D01*
X44750114Y50067124D01*
X44797733Y50162362D01*
X44892971Y50257600D01*
X45035828Y50305220D01*
X45131066Y50305220D01*
X45273923Y50257600D01*
X45321542Y50209981D01*
X46273923Y49305220D02*
X45702495Y49305220D01*
X45988209Y49305220D02*
X45988209Y50305220D01*
X45892971Y50162362D01*
X45797733Y50067124D01*
X45702495Y50019505D01*
X46607257Y50305220D02*
X47226304Y50305220D01*
X46892971Y49924267D01*
X47035828Y49924267D01*
X47131066Y49876648D01*
X47178685Y49829029D01*
X47226304Y49733791D01*
X47226304Y49495696D01*
X47178685Y49400458D01*
X47131066Y49352839D01*
X47035828Y49305220D01*
X46750114Y49305220D01*
X46654876Y49352839D01*
X46607257Y49400458D01*
D12*
%TO.C,U7*%
X5030000Y50960000D02*
X5030000Y51760000D01*
X8150000Y50960000D02*
X8150000Y50160000D01*
X5030000Y50960000D02*
X5030000Y50160000D01*
X8150000Y50960000D02*
X8150000Y52760000D01*
%TO.C,C6*%
X42745343Y30372610D02*
X43114810Y30003143D01*
X43784790Y31412057D02*
X44154257Y31042590D01*
%TO.C,R6*%
X39200000Y42666359D02*
X39200000Y42973641D01*
X38440000Y42666359D02*
X38440000Y42973641D01*
%TO.C,C7*%
X29896937Y9580000D02*
X37352500Y9580000D01*
X29896937Y18100000D02*
X37352500Y18100000D01*
X27592500Y16350000D02*
X28592500Y16350000D01*
X28832500Y17035563D02*
X28832500Y15350000D01*
X28832500Y10644437D02*
X29896937Y9580000D01*
X28832500Y10644437D02*
X28832500Y12330000D01*
X28832500Y17035563D02*
X29896937Y18100000D01*
X28092500Y16850000D02*
X28092500Y15850000D01*
X37352500Y18100000D02*
X37352500Y15350000D01*
X37352500Y9580000D02*
X37352500Y12330000D01*
%TO.C,D3*%
X11676000Y20889600D02*
X11676000Y18604600D01*
X13146000Y20889600D02*
X11676000Y20889600D01*
X13146000Y18604600D02*
X13146000Y20889600D01*
%TO.C,R19*%
X22105000Y2267659D02*
X22105000Y2574941D01*
X21345000Y2267659D02*
X21345000Y2574941D01*
%TO.C,C32*%
X8690580Y21530000D02*
X8409420Y21530000D01*
X8690580Y20510000D02*
X8409420Y20510000D01*
%TO.C,U6*%
X9240000Y19710000D02*
X9240000Y13700000D01*
X9240000Y13700000D02*
X7980000Y13700000D01*
X2420000Y17460000D02*
X2420000Y13700000D01*
X2420000Y13700000D02*
X3680000Y13700000D01*
%TO.C,C1*%
X21165000Y10498748D02*
X21165000Y11021252D01*
X19695000Y10498748D02*
X19695000Y11021252D01*
%TO.C,U4*%
X26137000Y7381900D02*
X28087000Y7381900D01*
X26137000Y2261900D02*
X24187000Y2261900D01*
X26137000Y2261900D02*
X28087000Y2261900D01*
X26137000Y7381900D02*
X22687000Y7381900D01*
%TO.C,SW2*%
X12696000Y52637800D02*
X12996000Y52637800D01*
X12996000Y48497800D02*
X12696000Y48497800D01*
X12696000Y48497800D02*
X12696000Y52637800D01*
X15836000Y48497800D02*
X15536000Y48497800D01*
X15536000Y52637800D02*
X15836000Y52637800D01*
X15836000Y52637800D02*
X15836000Y48497800D01*
%TO.C,S1*%
X45760000Y61390000D02*
X45760000Y61390000D01*
X47060000Y61890000D02*
X47060000Y61890000D01*
X45960000Y56190000D02*
X47060000Y56190000D01*
X47060000Y56190000D02*
X47060000Y56190000D01*
X44560000Y56190000D02*
X43160000Y56190000D01*
X48460000Y61890000D02*
X48460000Y61890000D01*
X49760000Y60590000D02*
X49760000Y60590000D01*
X48460000Y56190000D02*
X49560000Y56190000D01*
X49560000Y56190000D02*
X49560000Y56190000D01*
X52360000Y56190000D02*
X50960000Y56190000D01*
X49760000Y61390000D02*
X49760000Y61390000D01*
X48160000Y61890000D02*
X48160000Y61890000D01*
X45760000Y60590000D02*
X45760000Y60590000D01*
X52360000Y59990000D02*
X52360000Y59990000D01*
X49260000Y61890000D02*
X49260000Y61890000D01*
%TO.C,C2*%
X16216600Y48836964D02*
X16216600Y49052636D01*
X16936600Y48836964D02*
X16936600Y49052636D01*
%TO.C,Q2*%
X20149200Y24875800D02*
X20799200Y24875800D01*
X20149200Y24875800D02*
X19499200Y24875800D01*
X20149200Y21755800D02*
X21824200Y21755800D01*
X20149200Y21755800D02*
X19499200Y21755800D01*
%TO.C,C18*%
X23660000Y11648748D02*
X23660000Y13071252D01*
X21840000Y11648748D02*
X21840000Y13071252D01*
%TO.C,C3*%
X13240000Y10508748D02*
X13240000Y11931252D01*
X11420000Y10508748D02*
X11420000Y11931252D01*
%TO.C,R3*%
X11246359Y50040000D02*
X11553641Y50040000D01*
X11246359Y50800000D02*
X11553641Y50800000D01*
%TO.C,C20*%
X44192164Y45908300D02*
X44407836Y45908300D01*
X44192164Y46628300D02*
X44407836Y46628300D01*
%TO.C,R4*%
X39186359Y48850000D02*
X39493641Y48850000D01*
X39186359Y48090000D02*
X39493641Y48090000D01*
%TO.C,R17*%
X34302235Y22497882D02*
X33981118Y22176765D01*
X35341682Y21458435D02*
X35020565Y21137318D01*
%TO.C,U2*%
X42259445Y24378348D02*
X42772097Y24891000D01*
X35389903Y24891000D02*
X35902555Y24378348D01*
X39081000Y28582097D02*
X39593652Y28069445D01*
X38568348Y28069445D02*
X39081000Y28582097D01*
X35902555Y25403652D02*
X35389903Y24891000D01*
X39593652Y21712555D02*
X39081000Y21199903D01*
X39081000Y21199903D02*
X38568348Y21712555D01*
%TO.C,C28*%
X24038748Y9445000D02*
X24561252Y9445000D01*
X24038748Y7975000D02*
X24561252Y7975000D01*
%TO.C,C19*%
X31127500Y7955000D02*
X31127500Y6955000D01*
X31867500Y8140563D02*
X32931937Y9205000D01*
X31867500Y8140563D02*
X31867500Y6455000D01*
X40387500Y9205000D02*
X40387500Y6455000D01*
X32931937Y9205000D02*
X40387500Y9205000D01*
X30627500Y7455000D02*
X31627500Y7455000D01*
X32931937Y685000D02*
X40387500Y685000D01*
X31867500Y1749437D02*
X31867500Y3435000D01*
X31867500Y1749437D02*
X32931937Y685000D01*
X40387500Y685000D02*
X40387500Y3435000D01*
%TO.C,C14*%
X28284400Y18762348D02*
X28284400Y19284852D01*
X26814400Y18762348D02*
X26814400Y19284852D01*
%TO.C,C17*%
X46212164Y45908300D02*
X46427836Y45908300D01*
X46212164Y46628300D02*
X46427836Y46628300D01*
%TO.C,R1*%
X13856359Y45086000D02*
X14163641Y45086000D01*
X13856359Y44326000D02*
X14163641Y44326000D01*
%TO.C,C12*%
X41238400Y14164948D02*
X41238400Y14687452D01*
X39768400Y14164948D02*
X39768400Y14687452D01*
%TO.C,C23*%
X4522164Y30390000D02*
X4737836Y30390000D01*
X4522164Y29670000D02*
X4737836Y29670000D01*
%TO.C,C21*%
X47147500Y41422136D02*
X47147500Y41206464D01*
X47867500Y41422136D02*
X47867500Y41206464D01*
%TO.C,D1*%
X18607000Y18072000D02*
X18607000Y20357000D01*
X17137000Y20357000D02*
X17137000Y18072000D01*
X17137000Y18072000D02*
X18607000Y18072000D01*
%TO.C,R14*%
X35964460Y19509859D02*
X36181741Y19727140D01*
X35427059Y20047260D02*
X35644340Y20264541D01*
D14*
%TO.C,J4*%
X11786600Y55890000D02*
X11786600Y56190000D01*
X4086600Y55540000D02*
X3586600Y55540000D01*
X3586600Y55540000D02*
X3586600Y56240000D01*
X11036600Y55540000D02*
X11486600Y55540000D01*
X3586600Y60640000D02*
X3586600Y61240000D01*
X11786600Y61240000D02*
X11136600Y61240000D01*
X3586600Y61240000D02*
X3986600Y61240000D01*
X11486600Y55540000D02*
X11786600Y55890000D01*
X11786600Y60690000D02*
X11786600Y61240000D01*
X11786600Y56190000D02*
X11936600Y56190000D01*
D12*
%TO.C,R9*%
X17492000Y16863359D02*
X17492000Y17170641D01*
X18252000Y16863359D02*
X18252000Y17170641D01*
%TO.C,R23*%
X5486359Y28560000D02*
X5793641Y28560000D01*
X5486359Y29320000D02*
X5793641Y29320000D01*
%TO.C,R20*%
X15232500Y2372742D02*
X15232500Y2847258D01*
X14187500Y2372742D02*
X14187500Y2847258D01*
%TO.C,C8*%
X37411852Y31522000D02*
X36889348Y31522000D01*
X37411852Y32992000D02*
X36889348Y32992000D01*
%TO.C,C5*%
X15961200Y10422548D02*
X15961200Y10945052D01*
X17431200Y10422548D02*
X17431200Y10945052D01*
%TO.C,R22*%
X20060000Y2226359D02*
X20060000Y2533641D01*
X20820000Y2226359D02*
X20820000Y2533641D01*
%TO.C,R21*%
X5373641Y38680000D02*
X5066359Y38680000D01*
X5373641Y39440000D02*
X5066359Y39440000D01*
%TO.C,R12*%
X15585000Y17069041D02*
X15585000Y16761759D01*
X14825000Y17069041D02*
X14825000Y16761759D01*
%TO.C,C15*%
X12278700Y52092564D02*
X12278700Y52308236D01*
X11558700Y52092564D02*
X11558700Y52308236D01*
%TO.C,C29*%
X21310000Y4462164D02*
X21310000Y4677836D01*
X22030000Y4462164D02*
X22030000Y4677836D01*
%TO.C,U1*%
X19328000Y59894000D02*
X19328000Y53474000D01*
X19328000Y53474000D02*
X18948000Y53474000D01*
X37568000Y34149000D02*
X36568000Y34149000D01*
X19328000Y34149000D02*
X20328000Y34149000D01*
X37568000Y34929000D02*
X37568000Y34149000D01*
X19328000Y34929000D02*
X19328000Y34149000D01*
X37568000Y59894000D02*
X37568000Y53474000D01*
X19328000Y59894000D02*
X37568000Y59894000D01*
%TO.C,R13*%
X12791000Y16736359D02*
X12791000Y17043641D01*
X12031000Y16736359D02*
X12031000Y17043641D01*
%TO.C,C27*%
X4707836Y43070000D02*
X4492164Y43070000D01*
X4707836Y42350000D02*
X4492164Y42350000D01*
%TO.C,D7*%
X3496600Y20424200D02*
X3496600Y25824200D01*
X3496600Y20424200D02*
X6796600Y20424200D01*
X6796600Y20424200D02*
X6796600Y25824200D01*
%TO.C,D2*%
X15940000Y18630000D02*
X15940000Y20915000D01*
X14470000Y20915000D02*
X14470000Y18630000D01*
X15940000Y20915000D02*
X14470000Y20915000D01*
%TO.C,D8*%
X24180000Y10140000D02*
X24180000Y15540000D01*
X27480000Y10140000D02*
X27480000Y15540000D01*
X24180000Y10140000D02*
X27480000Y10140000D01*
%TO.C,REF\u002A\u002A*%
G36*
X10825607Y2747018D02*
G01*
X10848961Y2736812D01*
X10904702Y2692666D01*
X10952369Y2628833D01*
X10981848Y2560713D01*
X10986646Y2527130D01*
X10970560Y2480244D01*
X10935275Y2455435D01*
X10897444Y2440413D01*
X10880121Y2437645D01*
X10871686Y2457734D01*
X10855030Y2501449D01*
X10847723Y2521202D01*
X10806748Y2589529D01*
X10747422Y2623609D01*
X10671352Y2622561D01*
X10665718Y2621219D01*
X10625105Y2601964D01*
X10595248Y2564425D01*
X10574855Y2503991D01*
X10562636Y2416049D01*
X10557300Y2295987D01*
X10556800Y2232102D01*
X10556552Y2131397D01*
X10554926Y2062746D01*
X10550601Y2019127D01*
X10542254Y1993518D01*
X10528565Y1978897D01*
X10508211Y1968242D01*
X10507034Y1967705D01*
X10467838Y1951133D01*
X10448419Y1945031D01*
X10445435Y1963481D01*
X10442881Y2014477D01*
X10440940Y2091492D01*
X10439797Y2187995D01*
X10439569Y2258616D01*
X10440732Y2395275D01*
X10445279Y2498949D01*
X10454799Y2575692D01*
X10470881Y2631554D01*
X10495113Y2672588D01*
X10529086Y2704846D01*
X10562633Y2727360D01*
X10643299Y2757324D01*
X10737181Y2764082D01*
X10825607Y2747018D01*
G37*
D15*
X10825607Y2747018D02*
X10848961Y2736812D01*
X10904702Y2692666D01*
X10952369Y2628833D01*
X10981848Y2560713D01*
X10986646Y2527130D01*
X10970560Y2480244D01*
X10935275Y2455435D01*
X10897444Y2440413D01*
X10880121Y2437645D01*
X10871686Y2457734D01*
X10855030Y2501449D01*
X10847723Y2521202D01*
X10806748Y2589529D01*
X10747422Y2623609D01*
X10671352Y2622561D01*
X10665718Y2621219D01*
X10625105Y2601964D01*
X10595248Y2564425D01*
X10574855Y2503991D01*
X10562636Y2416049D01*
X10557300Y2295987D01*
X10556800Y2232102D01*
X10556552Y2131397D01*
X10554926Y2062746D01*
X10550601Y2019127D01*
X10542254Y1993518D01*
X10528565Y1978897D01*
X10508211Y1968242D01*
X10507034Y1967705D01*
X10467838Y1951133D01*
X10448419Y1945031D01*
X10445435Y1963481D01*
X10442881Y2014477D01*
X10440940Y2091492D01*
X10439797Y2187995D01*
X10439569Y2258616D01*
X10440732Y2395275D01*
X10445279Y2498949D01*
X10454799Y2575692D01*
X10470881Y2631554D01*
X10495113Y2672588D01*
X10529086Y2704846D01*
X10562633Y2727360D01*
X10643299Y2757324D01*
X10737181Y2764082D01*
X10825607Y2747018D01*
G36*
X8311162Y2570223D02*
G01*
X8341328Y2639531D01*
X8388429Y2693589D01*
X8425112Y2721295D01*
X8491790Y2751228D01*
X8569072Y2765122D01*
X8640910Y2761403D01*
X8681108Y2746400D01*
X8696882Y2742130D01*
X8707350Y2758050D01*
X8714656Y2800711D01*
X8720185Y2865694D01*
X8726237Y2938068D01*
X8734644Y2981613D01*
X8749941Y3006513D01*
X8776664Y3022955D01*
X8793454Y3030236D01*
X8856954Y3056837D01*
X8856881Y2603511D01*
X8856633Y2457480D01*
X8855672Y2345145D01*
X8853594Y2261122D01*
X8849993Y2200031D01*
X8844465Y2156491D01*
X8836604Y2125121D01*
X8826007Y2100538D01*
X8817982Y2086506D01*
X8751528Y2010412D01*
X8667270Y1962716D01*
X8574049Y1945601D01*
X8480700Y1961254D01*
X8425112Y1989382D01*
X8366757Y2038040D01*
X8326986Y2097467D01*
X8302990Y2175293D01*
X8291961Y2279148D01*
X8290399Y2355338D01*
X8290609Y2360814D01*
X8427108Y2360814D01*
X8427941Y2273445D01*
X8431761Y2215608D01*
X8440546Y2177771D01*
X8456274Y2150402D01*
X8475066Y2129758D01*
X8538175Y2089910D01*
X8605937Y2086505D01*
X8669979Y2119775D01*
X8674964Y2124283D01*
X8696239Y2147733D01*
X8709579Y2175634D01*
X8716801Y2217159D01*
X8719723Y2281484D01*
X8720185Y2352600D01*
X8719183Y2441942D01*
X8715038Y2501542D01*
X8706036Y2540711D01*
X8690467Y2568760D01*
X8677702Y2583656D01*
X8618400Y2621225D01*
X8550101Y2625743D01*
X8484910Y2597047D01*
X8472328Y2586394D01*
X8450911Y2562737D01*
X8437544Y2534549D01*
X8430366Y2492555D01*
X8427519Y2427481D01*
X8427108Y2360814D01*
X8290609Y2360814D01*
X8295122Y2478035D01*
X8311162Y2570223D01*
G37*
X8311162Y2570223D02*
X8341328Y2639531D01*
X8388429Y2693589D01*
X8425112Y2721295D01*
X8491790Y2751228D01*
X8569072Y2765122D01*
X8640910Y2761403D01*
X8681108Y2746400D01*
X8696882Y2742130D01*
X8707350Y2758050D01*
X8714656Y2800711D01*
X8720185Y2865694D01*
X8726237Y2938068D01*
X8734644Y2981613D01*
X8749941Y3006513D01*
X8776664Y3022955D01*
X8793454Y3030236D01*
X8856954Y3056837D01*
X8856881Y2603511D01*
X8856633Y2457480D01*
X8855672Y2345145D01*
X8853594Y2261122D01*
X8849993Y2200031D01*
X8844465Y2156491D01*
X8836604Y2125121D01*
X8826007Y2100538D01*
X8817982Y2086506D01*
X8751528Y2010412D01*
X8667270Y1962716D01*
X8574049Y1945601D01*
X8480700Y1961254D01*
X8425112Y1989382D01*
X8366757Y2038040D01*
X8326986Y2097467D01*
X8302990Y2175293D01*
X8291961Y2279148D01*
X8290399Y2355338D01*
X8290609Y2360814D01*
X8427108Y2360814D01*
X8427941Y2273445D01*
X8431761Y2215608D01*
X8440546Y2177771D01*
X8456274Y2150402D01*
X8475066Y2129758D01*
X8538175Y2089910D01*
X8605937Y2086505D01*
X8669979Y2119775D01*
X8674964Y2124283D01*
X8696239Y2147733D01*
X8709579Y2175634D01*
X8716801Y2217159D01*
X8719723Y2281484D01*
X8720185Y2352600D01*
X8719183Y2441942D01*
X8715038Y2501542D01*
X8706036Y2540711D01*
X8690467Y2568760D01*
X8677702Y2583656D01*
X8618400Y2621225D01*
X8550101Y2625743D01*
X8484910Y2597047D01*
X8472328Y2586394D01*
X8450911Y2562737D01*
X8437544Y2534549D01*
X8430366Y2492555D01*
X8427519Y2427481D01*
X8427108Y2360814D01*
X8290609Y2360814D01*
X8295122Y2478035D01*
X8311162Y2570223D01*
G36*
X10142133Y2750272D02*
G01*
X10198390Y2724683D01*
X10242547Y2693676D01*
X10274901Y2659005D01*
X10297238Y2614280D01*
X10311346Y2553108D01*
X10319011Y2469099D01*
X10322020Y2355860D01*
X10322338Y2281291D01*
X10322338Y1990380D01*
X10272573Y1967705D01*
X10233376Y1951133D01*
X10213957Y1945031D01*
X10210242Y1963190D01*
X10207295Y2012152D01*
X10205491Y2083647D01*
X10205108Y2140415D01*
X10203461Y2222429D01*
X10199022Y2287491D01*
X10192540Y2327333D01*
X10187390Y2335800D01*
X10152777Y2327154D01*
X10098440Y2304977D01*
X10035522Y2274914D01*
X9975168Y2242608D01*
X9928521Y2213702D01*
X9906726Y2193839D01*
X9906639Y2193625D01*
X9908514Y2156865D01*
X9925325Y2121774D01*
X9954839Y2093272D01*
X9997916Y2083739D01*
X10034732Y2084850D01*
X10086874Y2085667D01*
X10114244Y2073451D01*
X10130682Y2041176D01*
X10132755Y2035090D01*
X10139881Y1989061D01*
X10120824Y1961113D01*
X10071153Y1947793D01*
X10017497Y1945330D01*
X9920942Y1963590D01*
X9870959Y1989669D01*
X9809229Y2050932D01*
X9776490Y2126130D01*
X9773553Y2205589D01*
X9801224Y2279633D01*
X9842847Y2326031D01*
X9884404Y2352007D01*
X9949722Y2384893D01*
X10025838Y2418243D01*
X10038526Y2423339D01*
X10122133Y2460235D01*
X10170330Y2492754D01*
X10185830Y2525082D01*
X10171350Y2561406D01*
X10146492Y2589800D01*
X10087739Y2624761D01*
X10023093Y2627383D01*
X9963808Y2600442D01*
X9921139Y2546712D01*
X9915539Y2532850D01*
X9882933Y2481864D01*
X9835330Y2444013D01*
X9775261Y2412950D01*
X9775261Y2501032D01*
X9778797Y2554849D01*
X9793956Y2597266D01*
X9827568Y2642521D01*
X9859835Y2677380D01*
X9910009Y2726738D01*
X9948993Y2753253D01*
X9990864Y2763889D01*
X10038260Y2765646D01*
X10142133Y2750272D01*
G37*
X10142133Y2750272D02*
X10198390Y2724683D01*
X10242547Y2693676D01*
X10274901Y2659005D01*
X10297238Y2614280D01*
X10311346Y2553108D01*
X10319011Y2469099D01*
X10322020Y2355860D01*
X10322338Y2281291D01*
X10322338Y1990380D01*
X10272573Y1967705D01*
X10233376Y1951133D01*
X10213957Y1945031D01*
X10210242Y1963190D01*
X10207295Y2012152D01*
X10205491Y2083647D01*
X10205108Y2140415D01*
X10203461Y2222429D01*
X10199022Y2287491D01*
X10192540Y2327333D01*
X10187390Y2335800D01*
X10152777Y2327154D01*
X10098440Y2304977D01*
X10035522Y2274914D01*
X9975168Y2242608D01*
X9928521Y2213702D01*
X9906726Y2193839D01*
X9906639Y2193625D01*
X9908514Y2156865D01*
X9925325Y2121774D01*
X9954839Y2093272D01*
X9997916Y2083739D01*
X10034732Y2084850D01*
X10086874Y2085667D01*
X10114244Y2073451D01*
X10130682Y2041176D01*
X10132755Y2035090D01*
X10139881Y1989061D01*
X10120824Y1961113D01*
X10071153Y1947793D01*
X10017497Y1945330D01*
X9920942Y1963590D01*
X9870959Y1989669D01*
X9809229Y2050932D01*
X9776490Y2126130D01*
X9773553Y2205589D01*
X9801224Y2279633D01*
X9842847Y2326031D01*
X9884404Y2352007D01*
X9949722Y2384893D01*
X10025838Y2418243D01*
X10038526Y2423339D01*
X10122133Y2460235D01*
X10170330Y2492754D01*
X10185830Y2525082D01*
X10171350Y2561406D01*
X10146492Y2589800D01*
X10087739Y2624761D01*
X10023093Y2627383D01*
X9963808Y2600442D01*
X9921139Y2546712D01*
X9915539Y2532850D01*
X9882933Y2481864D01*
X9835330Y2444013D01*
X9775261Y2412950D01*
X9775261Y2501032D01*
X9778797Y2554849D01*
X9793956Y2597266D01*
X9827568Y2642521D01*
X9859835Y2677380D01*
X9910009Y2726738D01*
X9948993Y2753253D01*
X9990864Y2763889D01*
X10038260Y2765646D01*
X10142133Y2750272D01*
G36*
X2862429Y2545894D02*
G01*
X2869122Y2594637D01*
X2880760Y2630512D01*
X2898653Y2662252D01*
X2902608Y2668152D01*
X2969067Y2747696D01*
X3041485Y2793871D01*
X3129649Y2812201D01*
X3159587Y2813097D01*
X3271686Y2796544D01*
X3363264Y2748391D01*
X3430849Y2670895D01*
X3454857Y2621073D01*
X3473538Y2546267D01*
X3483101Y2451748D01*
X3484008Y2348590D01*
X3476721Y2247865D01*
X3461703Y2160647D01*
X3439415Y2098009D01*
X3432565Y2087221D01*
X3351432Y2006695D01*
X3255066Y1958464D01*
X3150501Y1944350D01*
X3044768Y1966171D01*
X3015343Y1979253D01*
X2958041Y2019569D01*
X2907750Y2073025D01*
X2902997Y2079805D01*
X2883678Y2112479D01*
X2870908Y2147406D01*
X2863364Y2193386D01*
X2859724Y2259216D01*
X2858665Y2353695D01*
X2858646Y2374877D01*
X2858694Y2381618D01*
X3054031Y2381618D01*
X3055168Y2292451D01*
X3059641Y2233280D01*
X3069046Y2195059D01*
X3084976Y2168747D01*
X3093108Y2159954D01*
X3139858Y2126539D01*
X3185247Y2128063D01*
X3231140Y2157048D01*
X3258512Y2187991D01*
X3274723Y2233157D01*
X3283826Y2304380D01*
X3284451Y2312686D01*
X3286004Y2441763D01*
X3269765Y2537628D01*
X3235952Y2599693D01*
X3184784Y2627368D01*
X3166520Y2628877D01*
X3118560Y2621287D01*
X3085753Y2594992D01*
X3065695Y2544705D01*
X3055978Y2465136D01*
X3054031Y2381618D01*
X2858694Y2381618D01*
X2859374Y2475551D01*
X2862429Y2545894D01*
G37*
X2862429Y2545894D02*
X2869122Y2594637D01*
X2880760Y2630512D01*
X2898653Y2662252D01*
X2902608Y2668152D01*
X2969067Y2747696D01*
X3041485Y2793871D01*
X3129649Y2812201D01*
X3159587Y2813097D01*
X3271686Y2796544D01*
X3363264Y2748391D01*
X3430849Y2670895D01*
X3454857Y2621073D01*
X3473538Y2546267D01*
X3483101Y2451748D01*
X3484008Y2348590D01*
X3476721Y2247865D01*
X3461703Y2160647D01*
X3439415Y2098009D01*
X3432565Y2087221D01*
X3351432Y2006695D01*
X3255066Y1958464D01*
X3150501Y1944350D01*
X3044768Y1966171D01*
X3015343Y1979253D01*
X2958041Y2019569D01*
X2907750Y2073025D01*
X2902997Y2079805D01*
X2883678Y2112479D01*
X2870908Y2147406D01*
X2863364Y2193386D01*
X2859724Y2259216D01*
X2858665Y2353695D01*
X2858646Y2374877D01*
X2858694Y2381618D01*
X3054031Y2381618D01*
X3055168Y2292451D01*
X3059641Y2233280D01*
X3069046Y2195059D01*
X3084976Y2168747D01*
X3093108Y2159954D01*
X3139858Y2126539D01*
X3185247Y2128063D01*
X3231140Y2157048D01*
X3258512Y2187991D01*
X3274723Y2233157D01*
X3283826Y2304380D01*
X3284451Y2312686D01*
X3286004Y2441763D01*
X3269765Y2537628D01*
X3235952Y2599693D01*
X3184784Y2627368D01*
X3166520Y2628877D01*
X3118560Y2621287D01*
X3085753Y2594992D01*
X3065695Y2544705D01*
X3055978Y2465136D01*
X3054031Y2381618D01*
X2858694Y2381618D01*
X2859374Y2475551D01*
X2862429Y2545894D01*
G36*
X7394678Y9096024D02*
G01*
X7500412Y9095445D01*
X7576932Y9093878D01*
X7629172Y9090828D01*
X7662063Y9085804D01*
X7680537Y9078311D01*
X7689527Y9067856D01*
X7693963Y9053947D01*
X7694394Y9052146D01*
X7701133Y9019655D01*
X7713608Y8955548D01*
X7730519Y8866649D01*
X7750571Y8759781D01*
X7772464Y8641767D01*
X7773229Y8637622D01*
X7795159Y8521969D01*
X7815677Y8419786D01*
X7833459Y8337202D01*
X7847181Y8280344D01*
X7855518Y8255342D01*
X7855916Y8254899D01*
X7880477Y8242690D01*
X7931115Y8222344D01*
X7996895Y8198255D01*
X7997261Y8198126D01*
X8080117Y8166982D01*
X8177800Y8127309D01*
X8269877Y8087419D01*
X8274234Y8085447D01*
X8424207Y8017380D01*
X8756298Y8244161D01*
X8858174Y8313296D01*
X8950457Y8375103D01*
X9027803Y8426067D01*
X9084864Y8462673D01*
X9116295Y8481406D01*
X9119279Y8482796D01*
X9142121Y8476610D01*
X9184782Y8446765D01*
X9248928Y8391853D01*
X9336221Y8310466D01*
X9425335Y8223878D01*
X9511241Y8138553D01*
X9588127Y8060692D01*
X9651364Y7995103D01*
X9696323Y7946595D01*
X9718376Y7919975D01*
X9719196Y7918605D01*
X9721634Y7900337D01*
X9712450Y7870505D01*
X9689374Y7825079D01*
X9650137Y7760030D01*
X9592470Y7671330D01*
X9515595Y7557143D01*
X9447370Y7456638D01*
X9386382Y7366497D01*
X9336156Y7291951D01*
X9300216Y7238235D01*
X9282087Y7210582D01*
X9280946Y7208705D01*
X9283159Y7182210D01*
X9299938Y7130714D01*
X9327942Y7063949D01*
X9337922Y7042628D01*
X9381472Y6947641D01*
X9427934Y6839863D01*
X9465677Y6746608D01*
X9492873Y6677394D01*
X9514475Y6624794D01*
X9526958Y6597303D01*
X9528509Y6595184D01*
X9551468Y6591676D01*
X9605586Y6582062D01*
X9683668Y6567711D01*
X9778519Y6549993D01*
X9882943Y6530275D01*
X9989744Y6509926D01*
X10091726Y6490314D01*
X10181694Y6472809D01*
X10252453Y6458778D01*
X10296806Y6449591D01*
X10307685Y6446993D01*
X10318922Y6440582D01*
X10327405Y6426103D01*
X10333514Y6398667D01*
X10337632Y6353389D01*
X10340141Y6285380D01*
X10341421Y6189753D01*
X10341854Y6061620D01*
X10341877Y6009099D01*
X10341877Y5581955D01*
X10239300Y5561709D01*
X10182231Y5550730D01*
X10097069Y5534705D01*
X9994172Y5515567D01*
X9883896Y5495249D01*
X9853415Y5489668D01*
X9751655Y5469883D01*
X9663005Y5450427D01*
X9594908Y5433103D01*
X9554804Y5419712D01*
X9548123Y5415721D01*
X9531719Y5387458D01*
X9508199Y5332691D01*
X9482116Y5262212D01*
X9476942Y5247031D01*
X9442756Y5152904D01*
X9400323Y5046699D01*
X9358797Y4951327D01*
X9358592Y4950884D01*
X9289440Y4801275D01*
X9744312Y4132183D01*
X9452300Y3839684D01*
X9363980Y3752630D01*
X9283425Y3675891D01*
X9215160Y3613563D01*
X9163708Y3569744D01*
X9133594Y3548530D01*
X9129274Y3547184D01*
X9103911Y3557784D01*
X9052158Y3587253D01*
X8979668Y3632095D01*
X8892094Y3688816D01*
X8797412Y3752338D01*
X8701316Y3817132D01*
X8615637Y3873513D01*
X8545816Y3918012D01*
X8497294Y3947161D01*
X8475582Y3957492D01*
X8449093Y3948750D01*
X8398862Y3925713D01*
X8335251Y3893169D01*
X8328508Y3889551D01*
X8242846Y3846590D01*
X8184106Y3825521D01*
X8147572Y3825297D01*
X8128531Y3844872D01*
X8128420Y3845146D01*
X8118902Y3868328D01*
X8096203Y3923359D01*
X8062082Y4005978D01*
X8018300Y4111928D01*
X7966616Y4236948D01*
X7908792Y4376780D01*
X7852791Y4512163D01*
X7791247Y4661566D01*
X7734739Y4799968D01*
X7684961Y4923127D01*
X7643606Y5026798D01*
X7612368Y5106741D01*
X7592941Y5158712D01*
X7586954Y5178108D01*
X7601968Y5200357D01*
X7641239Y5235818D01*
X7693607Y5274913D01*
X7842741Y5398555D01*
X7959311Y5540278D01*
X8041918Y5697096D01*
X8089166Y5866025D01*
X8099657Y6044078D01*
X8092031Y6126261D01*
X8050482Y6296769D01*
X7978923Y6447341D01*
X7881795Y6576491D01*
X7763534Y6682736D01*
X7628580Y6764590D01*
X7481371Y6820568D01*
X7326344Y6849185D01*
X7167939Y6848956D01*
X7010594Y6818395D01*
X6858746Y6756018D01*
X6716835Y6660340D01*
X6657603Y6606228D01*
X6544003Y6467280D01*
X6464906Y6315439D01*
X6419786Y6155133D01*
X6408116Y5990788D01*
X6429369Y5826829D01*
X6483020Y5667682D01*
X6568540Y5517775D01*
X6685405Y5381533D01*
X6815993Y5274913D01*
X6870388Y5234158D01*
X6908814Y5199082D01*
X6922646Y5178074D01*
X6915403Y5155165D01*
X6894805Y5100435D01*
X6862546Y5018128D01*
X6820321Y4912485D01*
X6769823Y4787750D01*
X6712748Y4648164D01*
X6656654Y4512130D01*
X6594767Y4362599D01*
X6537444Y4224033D01*
X6486444Y4100693D01*
X6443527Y3996836D01*
X6410453Y3916720D01*
X6388981Y3864605D01*
X6381025Y3845146D01*
X6362229Y3825377D01*
X6325874Y3825435D01*
X6267279Y3846359D01*
X6181768Y3889187D01*
X6181092Y3889551D01*
X6116707Y3922788D01*
X6064661Y3946998D01*
X6035312Y3957396D01*
X6034017Y3957492D01*
X6011924Y3946945D01*
X5963148Y3917616D01*
X5893131Y3872973D01*
X5807314Y3816486D01*
X5712188Y3752338D01*
X5615340Y3687389D01*
X5528053Y3630904D01*
X5455981Y3586379D01*
X5404777Y3557310D01*
X5380326Y3547184D01*
X5357810Y3560493D01*
X5312542Y3597688D01*
X5249044Y3654672D01*
X5171839Y3727351D01*
X5085451Y3811629D01*
X5057199Y3839784D01*
X4765087Y4132384D01*
X4987431Y4458696D01*
X5055002Y4558903D01*
X5114307Y4648837D01*
X5162017Y4723290D01*
X5194807Y4777049D01*
X5209348Y4804906D01*
X5209774Y4806888D01*
X5202108Y4833145D01*
X5181489Y4885963D01*
X5151485Y4956490D01*
X5130425Y5003707D01*
X5091048Y5094106D01*
X5053965Y5185434D01*
X5025215Y5262600D01*
X5017405Y5286108D01*
X4995217Y5348884D01*
X4973527Y5397389D01*
X4961613Y5415721D01*
X4935323Y5426941D01*
X4877942Y5442846D01*
X4796918Y5461633D01*
X4699695Y5481501D01*
X4656185Y5489668D01*
X4545696Y5509971D01*
X4439716Y5529630D01*
X4348601Y5546712D01*
X4282708Y5559282D01*
X4270300Y5561709D01*
X4167723Y5581955D01*
X4167723Y6009099D01*
X4167953Y6149554D01*
X4168899Y6255821D01*
X4170941Y6332787D01*
X4174462Y6385340D01*
X4179843Y6418367D01*
X4187466Y6436755D01*
X4197712Y6445392D01*
X4201915Y6446993D01*
X4227270Y6452673D01*
X4283284Y6464005D01*
X4362764Y6479621D01*
X4458512Y6498153D01*
X4563333Y6518231D01*
X4670032Y6538488D01*
X4771413Y6557554D01*
X4860279Y6574061D01*
X4929437Y6586641D01*
X4971689Y6593925D01*
X4981090Y6595184D01*
X4989607Y6612037D01*
X5008460Y6656930D01*
X5034124Y6721370D01*
X5043923Y6746608D01*
X5083448Y6844114D01*
X5129992Y6951841D01*
X5171677Y7042628D01*
X5202350Y7112047D01*
X5222756Y7169090D01*
X5229568Y7204023D01*
X5228482Y7208705D01*
X5214085Y7230809D01*
X5181212Y7279969D01*
X5133390Y7350952D01*
X5074148Y7438522D01*
X5007015Y7537443D01*
X4993741Y7556970D01*
X4915846Y7672660D01*
X4858587Y7760756D01*
X4819681Y7825314D01*
X4796844Y7870389D01*
X4787794Y7900037D01*
X4790248Y7918315D01*
X4790311Y7918431D01*
X4809627Y7942439D01*
X4852351Y7988853D01*
X4913851Y8052863D01*
X4989498Y8129655D01*
X5074661Y8214418D01*
X5084265Y8223878D01*
X5191590Y8327811D01*
X5274415Y8404125D01*
X5334405Y8454229D01*
X5373223Y8479530D01*
X5390320Y8482796D01*
X5415273Y8468550D01*
X5467055Y8435644D01*
X5540320Y8387592D01*
X5629720Y8327910D01*
X5729911Y8260112D01*
X5753301Y8244161D01*
X6085393Y8017380D01*
X6235365Y8085447D01*
X6326570Y8125115D01*
X6424469Y8165009D01*
X6508631Y8196817D01*
X6512338Y8198126D01*
X6578169Y8222224D01*
X6628916Y8242600D01*
X6653642Y8254864D01*
X6653684Y8254899D01*
X6661529Y8277066D01*
X6674866Y8331583D01*
X6692370Y8412320D01*
X6712717Y8513150D01*
X6734582Y8627944D01*
X6736371Y8637622D01*
X6758304Y8755896D01*
X6778440Y8863258D01*
X6795480Y8952883D01*
X6808128Y9017949D01*
X6815084Y9051632D01*
X6815206Y9052146D01*
X6819439Y9066475D01*
X6827671Y9077293D01*
X6844833Y9085094D01*
X6875858Y9090371D01*
X6925678Y9093618D01*
X6999224Y9095328D01*
X7101429Y9095993D01*
X7237225Y9096107D01*
X7254800Y9096108D01*
X7394678Y9096024D01*
G37*
X7394678Y9096024D02*
X7500412Y9095445D01*
X7576932Y9093878D01*
X7629172Y9090828D01*
X7662063Y9085804D01*
X7680537Y9078311D01*
X7689527Y9067856D01*
X7693963Y9053947D01*
X7694394Y9052146D01*
X7701133Y9019655D01*
X7713608Y8955548D01*
X7730519Y8866649D01*
X7750571Y8759781D01*
X7772464Y8641767D01*
X7773229Y8637622D01*
X7795159Y8521969D01*
X7815677Y8419786D01*
X7833459Y8337202D01*
X7847181Y8280344D01*
X7855518Y8255342D01*
X7855916Y8254899D01*
X7880477Y8242690D01*
X7931115Y8222344D01*
X7996895Y8198255D01*
X7997261Y8198126D01*
X8080117Y8166982D01*
X8177800Y8127309D01*
X8269877Y8087419D01*
X8274234Y8085447D01*
X8424207Y8017380D01*
X8756298Y8244161D01*
X8858174Y8313296D01*
X8950457Y8375103D01*
X9027803Y8426067D01*
X9084864Y8462673D01*
X9116295Y8481406D01*
X9119279Y8482796D01*
X9142121Y8476610D01*
X9184782Y8446765D01*
X9248928Y8391853D01*
X9336221Y8310466D01*
X9425335Y8223878D01*
X9511241Y8138553D01*
X9588127Y8060692D01*
X9651364Y7995103D01*
X9696323Y7946595D01*
X9718376Y7919975D01*
X9719196Y7918605D01*
X9721634Y7900337D01*
X9712450Y7870505D01*
X9689374Y7825079D01*
X9650137Y7760030D01*
X9592470Y7671330D01*
X9515595Y7557143D01*
X9447370Y7456638D01*
X9386382Y7366497D01*
X9336156Y7291951D01*
X9300216Y7238235D01*
X9282087Y7210582D01*
X9280946Y7208705D01*
X9283159Y7182210D01*
X9299938Y7130714D01*
X9327942Y7063949D01*
X9337922Y7042628D01*
X9381472Y6947641D01*
X9427934Y6839863D01*
X9465677Y6746608D01*
X9492873Y6677394D01*
X9514475Y6624794D01*
X9526958Y6597303D01*
X9528509Y6595184D01*
X9551468Y6591676D01*
X9605586Y6582062D01*
X9683668Y6567711D01*
X9778519Y6549993D01*
X9882943Y6530275D01*
X9989744Y6509926D01*
X10091726Y6490314D01*
X10181694Y6472809D01*
X10252453Y6458778D01*
X10296806Y6449591D01*
X10307685Y6446993D01*
X10318922Y6440582D01*
X10327405Y6426103D01*
X10333514Y6398667D01*
X10337632Y6353389D01*
X10340141Y6285380D01*
X10341421Y6189753D01*
X10341854Y6061620D01*
X10341877Y6009099D01*
X10341877Y5581955D01*
X10239300Y5561709D01*
X10182231Y5550730D01*
X10097069Y5534705D01*
X9994172Y5515567D01*
X9883896Y5495249D01*
X9853415Y5489668D01*
X9751655Y5469883D01*
X9663005Y5450427D01*
X9594908Y5433103D01*
X9554804Y5419712D01*
X9548123Y5415721D01*
X9531719Y5387458D01*
X9508199Y5332691D01*
X9482116Y5262212D01*
X9476942Y5247031D01*
X9442756Y5152904D01*
X9400323Y5046699D01*
X9358797Y4951327D01*
X9358592Y4950884D01*
X9289440Y4801275D01*
X9744312Y4132183D01*
X9452300Y3839684D01*
X9363980Y3752630D01*
X9283425Y3675891D01*
X9215160Y3613563D01*
X9163708Y3569744D01*
X9133594Y3548530D01*
X9129274Y3547184D01*
X9103911Y3557784D01*
X9052158Y3587253D01*
X8979668Y3632095D01*
X8892094Y3688816D01*
X8797412Y3752338D01*
X8701316Y3817132D01*
X8615637Y3873513D01*
X8545816Y3918012D01*
X8497294Y3947161D01*
X8475582Y3957492D01*
X8449093Y3948750D01*
X8398862Y3925713D01*
X8335251Y3893169D01*
X8328508Y3889551D01*
X8242846Y3846590D01*
X8184106Y3825521D01*
X8147572Y3825297D01*
X8128531Y3844872D01*
X8128420Y3845146D01*
X8118902Y3868328D01*
X8096203Y3923359D01*
X8062082Y4005978D01*
X8018300Y4111928D01*
X7966616Y4236948D01*
X7908792Y4376780D01*
X7852791Y4512163D01*
X7791247Y4661566D01*
X7734739Y4799968D01*
X7684961Y4923127D01*
X7643606Y5026798D01*
X7612368Y5106741D01*
X7592941Y5158712D01*
X7586954Y5178108D01*
X7601968Y5200357D01*
X7641239Y5235818D01*
X7693607Y5274913D01*
X7842741Y5398555D01*
X7959311Y5540278D01*
X8041918Y5697096D01*
X8089166Y5866025D01*
X8099657Y6044078D01*
X8092031Y6126261D01*
X8050482Y6296769D01*
X7978923Y6447341D01*
X7881795Y6576491D01*
X7763534Y6682736D01*
X7628580Y6764590D01*
X7481371Y6820568D01*
X7326344Y6849185D01*
X7167939Y6848956D01*
X7010594Y6818395D01*
X6858746Y6756018D01*
X6716835Y6660340D01*
X6657603Y6606228D01*
X6544003Y6467280D01*
X6464906Y6315439D01*
X6419786Y6155133D01*
X6408116Y5990788D01*
X6429369Y5826829D01*
X6483020Y5667682D01*
X6568540Y5517775D01*
X6685405Y5381533D01*
X6815993Y5274913D01*
X6870388Y5234158D01*
X6908814Y5199082D01*
X6922646Y5178074D01*
X6915403Y5155165D01*
X6894805Y5100435D01*
X6862546Y5018128D01*
X6820321Y4912485D01*
X6769823Y4787750D01*
X6712748Y4648164D01*
X6656654Y4512130D01*
X6594767Y4362599D01*
X6537444Y4224033D01*
X6486444Y4100693D01*
X6443527Y3996836D01*
X6410453Y3916720D01*
X6388981Y3864605D01*
X6381025Y3845146D01*
X6362229Y3825377D01*
X6325874Y3825435D01*
X6267279Y3846359D01*
X6181768Y3889187D01*
X6181092Y3889551D01*
X6116707Y3922788D01*
X6064661Y3946998D01*
X6035312Y3957396D01*
X6034017Y3957492D01*
X6011924Y3946945D01*
X5963148Y3917616D01*
X5893131Y3872973D01*
X5807314Y3816486D01*
X5712188Y3752338D01*
X5615340Y3687389D01*
X5528053Y3630904D01*
X5455981Y3586379D01*
X5404777Y3557310D01*
X5380326Y3547184D01*
X5357810Y3560493D01*
X5312542Y3597688D01*
X5249044Y3654672D01*
X5171839Y3727351D01*
X5085451Y3811629D01*
X5057199Y3839784D01*
X4765087Y4132384D01*
X4987431Y4458696D01*
X5055002Y4558903D01*
X5114307Y4648837D01*
X5162017Y4723290D01*
X5194807Y4777049D01*
X5209348Y4804906D01*
X5209774Y4806888D01*
X5202108Y4833145D01*
X5181489Y4885963D01*
X5151485Y4956490D01*
X5130425Y5003707D01*
X5091048Y5094106D01*
X5053965Y5185434D01*
X5025215Y5262600D01*
X5017405Y5286108D01*
X4995217Y5348884D01*
X4973527Y5397389D01*
X4961613Y5415721D01*
X4935323Y5426941D01*
X4877942Y5442846D01*
X4796918Y5461633D01*
X4699695Y5481501D01*
X4656185Y5489668D01*
X4545696Y5509971D01*
X4439716Y5529630D01*
X4348601Y5546712D01*
X4282708Y5559282D01*
X4270300Y5561709D01*
X4167723Y5581955D01*
X4167723Y6009099D01*
X4167953Y6149554D01*
X4168899Y6255821D01*
X4170941Y6332787D01*
X4174462Y6385340D01*
X4179843Y6418367D01*
X4187466Y6436755D01*
X4197712Y6445392D01*
X4201915Y6446993D01*
X4227270Y6452673D01*
X4283284Y6464005D01*
X4362764Y6479621D01*
X4458512Y6498153D01*
X4563333Y6518231D01*
X4670032Y6538488D01*
X4771413Y6557554D01*
X4860279Y6574061D01*
X4929437Y6586641D01*
X4971689Y6593925D01*
X4981090Y6595184D01*
X4989607Y6612037D01*
X5008460Y6656930D01*
X5034124Y6721370D01*
X5043923Y6746608D01*
X5083448Y6844114D01*
X5129992Y6951841D01*
X5171677Y7042628D01*
X5202350Y7112047D01*
X5222756Y7169090D01*
X5229568Y7204023D01*
X5228482Y7208705D01*
X5214085Y7230809D01*
X5181212Y7279969D01*
X5133390Y7350952D01*
X5074148Y7438522D01*
X5007015Y7537443D01*
X4993741Y7556970D01*
X4915846Y7672660D01*
X4858587Y7760756D01*
X4819681Y7825314D01*
X4796844Y7870389D01*
X4787794Y7900037D01*
X4790248Y7918315D01*
X4790311Y7918431D01*
X4809627Y7942439D01*
X4852351Y7988853D01*
X4913851Y8052863D01*
X4989498Y8129655D01*
X5074661Y8214418D01*
X5084265Y8223878D01*
X5191590Y8327811D01*
X5274415Y8404125D01*
X5334405Y8454229D01*
X5373223Y8479530D01*
X5390320Y8482796D01*
X5415273Y8468550D01*
X5467055Y8435644D01*
X5540320Y8387592D01*
X5629720Y8327910D01*
X5729911Y8260112D01*
X5753301Y8244161D01*
X6085393Y8017380D01*
X6235365Y8085447D01*
X6326570Y8125115D01*
X6424469Y8165009D01*
X6508631Y8196817D01*
X6512338Y8198126D01*
X6578169Y8222224D01*
X6628916Y8242600D01*
X6653642Y8254864D01*
X6653684Y8254899D01*
X6661529Y8277066D01*
X6674866Y8331583D01*
X6692370Y8412320D01*
X6712717Y8513150D01*
X6734582Y8627944D01*
X6736371Y8637622D01*
X6758304Y8755896D01*
X6778440Y8863258D01*
X6795480Y8952883D01*
X6808128Y9017949D01*
X6815084Y9051632D01*
X6815206Y9052146D01*
X6819439Y9066475D01*
X6827671Y9077293D01*
X6844833Y9085094D01*
X6875858Y9090371D01*
X6925678Y9093618D01*
X6999224Y9095328D01*
X7101429Y9095993D01*
X7237225Y9096107D01*
X7254800Y9096108D01*
X7394678Y9096024D01*
G36*
X6414646Y2891680D02*
G01*
X6420372Y2811820D01*
X6426949Y2764761D01*
X6436062Y2744234D01*
X6449398Y2743971D01*
X6453723Y2746422D01*
X6511244Y2764164D01*
X6586068Y2763128D01*
X6662139Y2744890D01*
X6709718Y2721295D01*
X6758502Y2683602D01*
X6794164Y2640945D01*
X6818645Y2586743D01*
X6833887Y2514416D01*
X6841830Y2417381D01*
X6844416Y2289058D01*
X6844462Y2264442D01*
X6844492Y1987930D01*
X6782961Y1966480D01*
X6739259Y1951888D01*
X6715282Y1945094D01*
X6714577Y1945031D01*
X6712215Y1963455D01*
X6710206Y2014274D01*
X6708701Y2090807D01*
X6707853Y2186370D01*
X6707723Y2244471D01*
X6707451Y2359029D01*
X6706052Y2441133D01*
X6702649Y2497407D01*
X6696367Y2534474D01*
X6686329Y2558956D01*
X6671661Y2577475D01*
X6662502Y2586394D01*
X6599589Y2622334D01*
X6530936Y2625025D01*
X6468648Y2594630D01*
X6457129Y2583656D01*
X6440233Y2563021D01*
X6428514Y2538544D01*
X6421033Y2503153D01*
X6416854Y2449774D01*
X6415037Y2371334D01*
X6414646Y2263183D01*
X6414646Y1987930D01*
X6353115Y1966480D01*
X6309413Y1951888D01*
X6285436Y1945094D01*
X6284730Y1945031D01*
X6282926Y1963731D01*
X6281300Y2016478D01*
X6279917Y2098243D01*
X6278842Y2203995D01*
X6278140Y2328706D01*
X6277877Y2467345D01*
X6277877Y3001994D01*
X6404877Y3055564D01*
X6414646Y2891680D01*
G37*
X6414646Y2891680D02*
X6420372Y2811820D01*
X6426949Y2764761D01*
X6436062Y2744234D01*
X6449398Y2743971D01*
X6453723Y2746422D01*
X6511244Y2764164D01*
X6586068Y2763128D01*
X6662139Y2744890D01*
X6709718Y2721295D01*
X6758502Y2683602D01*
X6794164Y2640945D01*
X6818645Y2586743D01*
X6833887Y2514416D01*
X6841830Y2417381D01*
X6844416Y2289058D01*
X6844462Y2264442D01*
X6844492Y1987930D01*
X6782961Y1966480D01*
X6739259Y1951888D01*
X6715282Y1945094D01*
X6714577Y1945031D01*
X6712215Y1963455D01*
X6710206Y2014274D01*
X6708701Y2090807D01*
X6707853Y2186370D01*
X6707723Y2244471D01*
X6707451Y2359029D01*
X6706052Y2441133D01*
X6702649Y2497407D01*
X6696367Y2534474D01*
X6686329Y2558956D01*
X6671661Y2577475D01*
X6662502Y2586394D01*
X6599589Y2622334D01*
X6530936Y2625025D01*
X6468648Y2594630D01*
X6457129Y2583656D01*
X6440233Y2563021D01*
X6428514Y2538544D01*
X6421033Y2503153D01*
X6416854Y2449774D01*
X6415037Y2371334D01*
X6414646Y2263183D01*
X6414646Y1987930D01*
X6353115Y1966480D01*
X6309413Y1951888D01*
X6285436Y1945094D01*
X6284730Y1945031D01*
X6282926Y1963731D01*
X6281300Y2016478D01*
X6279917Y2098243D01*
X6278842Y2203995D01*
X6278140Y2328706D01*
X6277877Y2467345D01*
X6277877Y3001994D01*
X6404877Y3055564D01*
X6414646Y2891680D01*
G36*
X7308301Y2757497D02*
G01*
X7384860Y2729067D01*
X7385736Y2728521D01*
X7433085Y2693673D01*
X7468041Y2652948D01*
X7492625Y2599875D01*
X7508862Y2527986D01*
X7518775Y2430808D01*
X7524386Y2301872D01*
X7524877Y2283502D01*
X7531941Y2006513D01*
X7472495Y1975772D01*
X7429481Y1954998D01*
X7403510Y1945154D01*
X7402309Y1945031D01*
X7397814Y1963194D01*
X7394244Y2012188D01*
X7392048Y2083769D01*
X7391569Y2141732D01*
X7391558Y2235630D01*
X7387266Y2294597D01*
X7372303Y2322721D01*
X7340282Y2324094D01*
X7284814Y2302802D01*
X7201069Y2263664D01*
X7139489Y2231157D01*
X7107817Y2202955D01*
X7098506Y2172218D01*
X7098492Y2170696D01*
X7113857Y2117746D01*
X7159347Y2089140D01*
X7228966Y2084997D01*
X7279113Y2085716D01*
X7305554Y2071273D01*
X7322043Y2036582D01*
X7331533Y1992384D01*
X7317857Y1967307D01*
X7312707Y1963718D01*
X7264225Y1949304D01*
X7196331Y1947263D01*
X7126412Y1956817D01*
X7076868Y1974278D01*
X7008370Y2032436D01*
X6969434Y2113392D01*
X6961723Y2176640D01*
X6967607Y2233689D01*
X6988901Y2280258D01*
X7031065Y2321619D01*
X7099559Y2363045D01*
X7199844Y2409807D01*
X7205954Y2412450D01*
X7296290Y2454183D01*
X7352035Y2488409D01*
X7375929Y2519165D01*
X7370713Y2550489D01*
X7339128Y2586417D01*
X7329683Y2594684D01*
X7266417Y2626742D01*
X7200864Y2625393D01*
X7143772Y2593962D01*
X7105893Y2535776D01*
X7102374Y2524354D01*
X7068100Y2468963D01*
X7024609Y2442282D01*
X6961723Y2415840D01*
X6961723Y2484252D01*
X6980852Y2583690D01*
X7037631Y2674898D01*
X7067178Y2705411D01*
X7134342Y2744572D01*
X7219756Y2762300D01*
X7308301Y2757497D01*
G37*
X7308301Y2757497D02*
X7384860Y2729067D01*
X7385736Y2728521D01*
X7433085Y2693673D01*
X7468041Y2652948D01*
X7492625Y2599875D01*
X7508862Y2527986D01*
X7518775Y2430808D01*
X7524386Y2301872D01*
X7524877Y2283502D01*
X7531941Y2006513D01*
X7472495Y1975772D01*
X7429481Y1954998D01*
X7403510Y1945154D01*
X7402309Y1945031D01*
X7397814Y1963194D01*
X7394244Y2012188D01*
X7392048Y2083769D01*
X7391569Y2141732D01*
X7391558Y2235630D01*
X7387266Y2294597D01*
X7372303Y2322721D01*
X7340282Y2324094D01*
X7284814Y2302802D01*
X7201069Y2263664D01*
X7139489Y2231157D01*
X7107817Y2202955D01*
X7098506Y2172218D01*
X7098492Y2170696D01*
X7113857Y2117746D01*
X7159347Y2089140D01*
X7228966Y2084997D01*
X7279113Y2085716D01*
X7305554Y2071273D01*
X7322043Y2036582D01*
X7331533Y1992384D01*
X7317857Y1967307D01*
X7312707Y1963718D01*
X7264225Y1949304D01*
X7196331Y1947263D01*
X7126412Y1956817D01*
X7076868Y1974278D01*
X7008370Y2032436D01*
X6969434Y2113392D01*
X6961723Y2176640D01*
X6967607Y2233689D01*
X6988901Y2280258D01*
X7031065Y2321619D01*
X7099559Y2363045D01*
X7199844Y2409807D01*
X7205954Y2412450D01*
X7296290Y2454183D01*
X7352035Y2488409D01*
X7375929Y2519165D01*
X7370713Y2550489D01*
X7339128Y2586417D01*
X7329683Y2594684D01*
X7266417Y2626742D01*
X7200864Y2625393D01*
X7143772Y2593962D01*
X7105893Y2535776D01*
X7102374Y2524354D01*
X7068100Y2468963D01*
X7024609Y2442282D01*
X6961723Y2415840D01*
X6961723Y2484252D01*
X6980852Y2583690D01*
X7037631Y2674898D01*
X7067178Y2705411D01*
X7134342Y2744572D01*
X7219756Y2762300D01*
X7308301Y2757497D01*
G36*
X3611673Y2489121D02*
G01*
X3615406Y2552895D01*
X3620707Y2598218D01*
X3628058Y2630245D01*
X3637943Y2654132D01*
X3650846Y2675036D01*
X3656379Y2682902D01*
X3729769Y2757205D01*
X3822560Y2799333D01*
X3929896Y2811078D01*
X4023686Y2799295D01*
X4098339Y2762073D01*
X4164231Y2693539D01*
X4182377Y2668152D01*
X4202145Y2634934D01*
X4214972Y2598855D01*
X4222310Y2550702D01*
X4225613Y2481264D01*
X4226338Y2389594D01*
X4223063Y2263970D01*
X4211677Y2169646D01*
X4189841Y2099277D01*
X4155219Y2045514D01*
X4105470Y2001012D01*
X4101814Y1998377D01*
X4052785Y1971423D01*
X3993745Y1958088D01*
X3918659Y1954800D01*
X3796595Y1954800D01*
X3796544Y1836303D01*
X3795408Y1770308D01*
X3788486Y1731598D01*
X3770398Y1708381D01*
X3735762Y1688867D01*
X3727445Y1684880D01*
X3688520Y1666197D01*
X3658383Y1654397D01*
X3635974Y1653378D01*
X3620233Y1667039D01*
X3610102Y1699278D01*
X3604523Y1753996D01*
X3602435Y1835089D01*
X3602781Y1946456D01*
X3604500Y2091998D01*
X3605037Y2135531D01*
X3606972Y2285595D01*
X3608704Y2383758D01*
X3796492Y2383758D01*
X3797548Y2300436D01*
X3802238Y2245920D01*
X3812851Y2209963D01*
X3831672Y2182318D01*
X3844450Y2168835D01*
X3896690Y2129383D01*
X3942942Y2126172D01*
X3990667Y2158751D01*
X3991877Y2159954D01*
X4011294Y2185132D01*
X4023107Y2219353D01*
X4029065Y2272052D01*
X4030920Y2352669D01*
X4030954Y2370529D01*
X4026470Y2481625D01*
X4011874Y2558639D01*
X3985450Y2605653D01*
X3945483Y2626750D01*
X3922384Y2628877D01*
X3867562Y2618900D01*
X3829958Y2586048D01*
X3807323Y2525943D01*
X3797406Y2434202D01*
X3796492Y2383758D01*
X3608704Y2383758D01*
X3609022Y2401740D01*
X3611673Y2489121D01*
G37*
X3611673Y2489121D02*
X3615406Y2552895D01*
X3620707Y2598218D01*
X3628058Y2630245D01*
X3637943Y2654132D01*
X3650846Y2675036D01*
X3656379Y2682902D01*
X3729769Y2757205D01*
X3822560Y2799333D01*
X3929896Y2811078D01*
X4023686Y2799295D01*
X4098339Y2762073D01*
X4164231Y2693539D01*
X4182377Y2668152D01*
X4202145Y2634934D01*
X4214972Y2598855D01*
X4222310Y2550702D01*
X4225613Y2481264D01*
X4226338Y2389594D01*
X4223063Y2263970D01*
X4211677Y2169646D01*
X4189841Y2099277D01*
X4155219Y2045514D01*
X4105470Y2001012D01*
X4101814Y1998377D01*
X4052785Y1971423D01*
X3993745Y1958088D01*
X3918659Y1954800D01*
X3796595Y1954800D01*
X3796544Y1836303D01*
X3795408Y1770308D01*
X3788486Y1731598D01*
X3770398Y1708381D01*
X3735762Y1688867D01*
X3727445Y1684880D01*
X3688520Y1666197D01*
X3658383Y1654397D01*
X3635974Y1653378D01*
X3620233Y1667039D01*
X3610102Y1699278D01*
X3604523Y1753996D01*
X3602435Y1835089D01*
X3602781Y1946456D01*
X3604500Y2091998D01*
X3605037Y2135531D01*
X3606972Y2285595D01*
X3608704Y2383758D01*
X3796492Y2383758D01*
X3797548Y2300436D01*
X3802238Y2245920D01*
X3812851Y2209963D01*
X3831672Y2182318D01*
X3844450Y2168835D01*
X3896690Y2129383D01*
X3942942Y2126172D01*
X3990667Y2158751D01*
X3991877Y2159954D01*
X4011294Y2185132D01*
X4023107Y2219353D01*
X4029065Y2272052D01*
X4030920Y2352669D01*
X4030954Y2370529D01*
X4026470Y2481625D01*
X4011874Y2558639D01*
X3985450Y2605653D01*
X3945483Y2626750D01*
X3922384Y2628877D01*
X3867562Y2618900D01*
X3829958Y2586048D01*
X3807323Y2525943D01*
X3797406Y2434202D01*
X3796492Y2383758D01*
X3608704Y2383758D01*
X3609022Y2401740D01*
X3611673Y2489121D01*
G36*
X7968162Y2759130D02*
G01*
X8056917Y2726379D01*
X8128822Y2668450D01*
X8156944Y2627672D01*
X8187602Y2552846D01*
X8186965Y2498742D01*
X8154787Y2462354D01*
X8142881Y2456167D01*
X8091475Y2436875D01*
X8065222Y2441818D01*
X8056330Y2474213D01*
X8055877Y2492108D01*
X8039597Y2557941D01*
X7997165Y2603993D01*
X7938188Y2626236D01*
X7872275Y2620639D01*
X7818695Y2591571D01*
X7800598Y2574990D01*
X7787771Y2554875D01*
X7779106Y2524468D01*
X7773496Y2477012D01*
X7769835Y2405750D01*
X7767015Y2303925D01*
X7766284Y2271685D01*
X7763620Y2161390D01*
X7760592Y2083764D01*
X7756050Y2032404D01*
X7748846Y2000910D01*
X7737833Y1982880D01*
X7721860Y1971912D01*
X7711634Y1967067D01*
X7668206Y1950499D01*
X7642642Y1945031D01*
X7634195Y1963293D01*
X7629039Y2018504D01*
X7627146Y2111301D01*
X7628489Y2242322D01*
X7628907Y2262531D01*
X7631858Y2382067D01*
X7635348Y2469351D01*
X7640314Y2531209D01*
X7647693Y2574464D01*
X7658424Y2605940D01*
X7673445Y2632461D01*
X7681302Y2643825D01*
X7726353Y2694108D01*
X7776740Y2733219D01*
X7782908Y2736633D01*
X7873258Y2763588D01*
X7968162Y2759130D01*
G37*
X7968162Y2759130D02*
X8056917Y2726379D01*
X8128822Y2668450D01*
X8156944Y2627672D01*
X8187602Y2552846D01*
X8186965Y2498742D01*
X8154787Y2462354D01*
X8142881Y2456167D01*
X8091475Y2436875D01*
X8065222Y2441818D01*
X8056330Y2474213D01*
X8055877Y2492108D01*
X8039597Y2557941D01*
X7997165Y2603993D01*
X7938188Y2626236D01*
X7872275Y2620639D01*
X7818695Y2591571D01*
X7800598Y2574990D01*
X7787771Y2554875D01*
X7779106Y2524468D01*
X7773496Y2477012D01*
X7769835Y2405750D01*
X7767015Y2303925D01*
X7766284Y2271685D01*
X7763620Y2161390D01*
X7760592Y2083764D01*
X7756050Y2032404D01*
X7748846Y2000910D01*
X7737833Y1982880D01*
X7721860Y1971912D01*
X7711634Y1967067D01*
X7668206Y1950499D01*
X7642642Y1945031D01*
X7634195Y1963293D01*
X7629039Y2018504D01*
X7627146Y2111301D01*
X7628489Y2242322D01*
X7628907Y2262531D01*
X7631858Y2382067D01*
X7635348Y2469351D01*
X7640314Y2531209D01*
X7647693Y2574464D01*
X7658424Y2605940D01*
X7673445Y2632461D01*
X7681302Y2643825D01*
X7726353Y2694108D01*
X7776740Y2733219D01*
X7782908Y2736633D01*
X7873258Y2763588D01*
X7968162Y2759130D01*
G36*
X11115832Y2563090D02*
G01*
X11134260Y2628633D01*
X11164160Y2676888D01*
X11207880Y2715033D01*
X11226941Y2727360D01*
X11313526Y2759464D01*
X11408322Y2761484D01*
X11500024Y2735962D01*
X11577328Y2685439D01*
X11614614Y2640210D01*
X11644153Y2558137D01*
X11646499Y2493193D01*
X11641185Y2406355D01*
X11440915Y2318697D01*
X11343539Y2273913D01*
X11279913Y2237887D01*
X11246829Y2206683D01*
X11241080Y2176364D01*
X11259458Y2142995D01*
X11279723Y2120877D01*
X11338689Y2085407D01*
X11402824Y2082921D01*
X11461726Y2110565D01*
X11504997Y2165480D01*
X11512736Y2184872D01*
X11549806Y2245436D01*
X11592454Y2271248D01*
X11650954Y2293329D01*
X11650954Y2209616D01*
X11645782Y2152650D01*
X11625523Y2104611D01*
X11583062Y2049454D01*
X11576751Y2042286D01*
X11529520Y1993215D01*
X11488921Y1966880D01*
X11438128Y1954765D01*
X11396020Y1950797D01*
X11320702Y1949809D01*
X11267086Y1962334D01*
X11233638Y1980931D01*
X11181068Y2021825D01*
X11144679Y2066052D01*
X11121650Y2121674D01*
X11109159Y2196753D01*
X11104387Y2299351D01*
X11104006Y2351424D01*
X11105301Y2413852D01*
X11223271Y2413852D01*
X11224639Y2380362D01*
X11228049Y2374877D01*
X11250553Y2382328D01*
X11298982Y2402047D01*
X11363708Y2430082D01*
X11377243Y2436108D01*
X11459044Y2477704D01*
X11504112Y2514262D01*
X11514017Y2548504D01*
X11490326Y2583152D01*
X11470760Y2598461D01*
X11400160Y2629079D01*
X11334080Y2624020D01*
X11278759Y2586649D01*
X11240436Y2520327D01*
X11228149Y2467684D01*
X11223271Y2413852D01*
X11105301Y2413852D01*
X11106530Y2473080D01*
X11115832Y2563090D01*
G37*
X11115832Y2563090D02*
X11134260Y2628633D01*
X11164160Y2676888D01*
X11207880Y2715033D01*
X11226941Y2727360D01*
X11313526Y2759464D01*
X11408322Y2761484D01*
X11500024Y2735962D01*
X11577328Y2685439D01*
X11614614Y2640210D01*
X11644153Y2558137D01*
X11646499Y2493193D01*
X11641185Y2406355D01*
X11440915Y2318697D01*
X11343539Y2273913D01*
X11279913Y2237887D01*
X11246829Y2206683D01*
X11241080Y2176364D01*
X11259458Y2142995D01*
X11279723Y2120877D01*
X11338689Y2085407D01*
X11402824Y2082921D01*
X11461726Y2110565D01*
X11504997Y2165480D01*
X11512736Y2184872D01*
X11549806Y2245436D01*
X11592454Y2271248D01*
X11650954Y2293329D01*
X11650954Y2209616D01*
X11645782Y2152650D01*
X11625523Y2104611D01*
X11583062Y2049454D01*
X11576751Y2042286D01*
X11529520Y1993215D01*
X11488921Y1966880D01*
X11438128Y1954765D01*
X11396020Y1950797D01*
X11320702Y1949809D01*
X11267086Y1962334D01*
X11233638Y1980931D01*
X11181068Y2021825D01*
X11144679Y2066052D01*
X11121650Y2121674D01*
X11109159Y2196753D01*
X11104387Y2299351D01*
X11104006Y2351424D01*
X11105301Y2413852D01*
X11223271Y2413852D01*
X11224639Y2380362D01*
X11228049Y2374877D01*
X11250553Y2382328D01*
X11298982Y2402047D01*
X11363708Y2430082D01*
X11377243Y2436108D01*
X11459044Y2477704D01*
X11504112Y2514262D01*
X11514017Y2548504D01*
X11490326Y2583152D01*
X11470760Y2598461D01*
X11400160Y2629079D01*
X11334080Y2624020D01*
X11278759Y2586649D01*
X11240436Y2520327D01*
X11228149Y2467684D01*
X11223271Y2413852D01*
X11105301Y2413852D01*
X11106530Y2473080D01*
X11115832Y2563090D01*
G36*
X9650729Y2747138D02*
G01*
X9653711Y2695732D01*
X9656047Y2617608D01*
X9657549Y2518943D01*
X9658031Y2415457D01*
X9658031Y2065267D01*
X9596201Y2003437D01*
X9553593Y1965338D01*
X9516190Y1949905D01*
X9465070Y1950882D01*
X9444778Y1953367D01*
X9381354Y1960600D01*
X9328895Y1964745D01*
X9316108Y1965128D01*
X9272999Y1962624D01*
X9211344Y1956338D01*
X9187438Y1953367D01*
X9128722Y1948772D01*
X9089264Y1958754D01*
X9050138Y1989572D01*
X9036015Y2003437D01*
X8974185Y2065267D01*
X8974185Y2720297D01*
X9023950Y2742971D01*
X9066802Y2759766D01*
X9091873Y2765646D01*
X9098301Y2747064D01*
X9104309Y2695145D01*
X9109497Y2615628D01*
X9113464Y2514254D01*
X9115377Y2428608D01*
X9120723Y2091569D01*
X9167360Y2084975D01*
X9209776Y2089586D01*
X9230560Y2104513D01*
X9236370Y2132423D01*
X9241330Y2191875D01*
X9245046Y2275334D01*
X9247124Y2375268D01*
X9247424Y2426696D01*
X9247723Y2722746D01*
X9309254Y2744196D01*
X9352804Y2758780D01*
X9376494Y2765581D01*
X9377177Y2765646D01*
X9379554Y2747158D01*
X9382166Y2695894D01*
X9384795Y2618151D01*
X9387221Y2520226D01*
X9388915Y2428608D01*
X9394261Y2091569D01*
X9511492Y2091569D01*
X9516872Y2399054D01*
X9522251Y2706539D01*
X9579401Y2736093D01*
X9621597Y2756387D01*
X9646570Y2765596D01*
X9647291Y2765646D01*
X9650729Y2747138D01*
G37*
X9650729Y2747138D02*
X9653711Y2695732D01*
X9656047Y2617608D01*
X9657549Y2518943D01*
X9658031Y2415457D01*
X9658031Y2065267D01*
X9596201Y2003437D01*
X9553593Y1965338D01*
X9516190Y1949905D01*
X9465070Y1950882D01*
X9444778Y1953367D01*
X9381354Y1960600D01*
X9328895Y1964745D01*
X9316108Y1965128D01*
X9272999Y1962624D01*
X9211344Y1956338D01*
X9187438Y1953367D01*
X9128722Y1948772D01*
X9089264Y1958754D01*
X9050138Y1989572D01*
X9036015Y2003437D01*
X8974185Y2065267D01*
X8974185Y2720297D01*
X9023950Y2742971D01*
X9066802Y2759766D01*
X9091873Y2765646D01*
X9098301Y2747064D01*
X9104309Y2695145D01*
X9109497Y2615628D01*
X9113464Y2514254D01*
X9115377Y2428608D01*
X9120723Y2091569D01*
X9167360Y2084975D01*
X9209776Y2089586D01*
X9230560Y2104513D01*
X9236370Y2132423D01*
X9241330Y2191875D01*
X9245046Y2275334D01*
X9247124Y2375268D01*
X9247424Y2426696D01*
X9247723Y2722746D01*
X9309254Y2744196D01*
X9352804Y2758780D01*
X9376494Y2765581D01*
X9377177Y2765646D01*
X9379554Y2747158D01*
X9382166Y2695894D01*
X9384795Y2618151D01*
X9387221Y2520226D01*
X9388915Y2428608D01*
X9394261Y2091569D01*
X9511492Y2091569D01*
X9516872Y2399054D01*
X9522251Y2706539D01*
X9579401Y2736093D01*
X9621597Y2756387D01*
X9646570Y2765596D01*
X9647291Y2765646D01*
X9650729Y2747138D01*
G36*
X5526464Y2788711D02*
G01*
X5589167Y2752442D01*
X5632761Y2716442D01*
X5664645Y2678725D01*
X5686610Y2632601D01*
X5700449Y2571379D01*
X5707953Y2488369D01*
X5710917Y2376881D01*
X5711261Y2296738D01*
X5711261Y2001735D01*
X5545185Y1927285D01*
X5535415Y2250398D01*
X5531379Y2371071D01*
X5527144Y2458659D01*
X5521897Y2519150D01*
X5514825Y2558532D01*
X5505111Y2582793D01*
X5491944Y2597920D01*
X5487719Y2601194D01*
X5423709Y2626766D01*
X5359008Y2616647D01*
X5320492Y2589800D01*
X5304825Y2570776D01*
X5293980Y2545812D01*
X5287088Y2507966D01*
X5283279Y2450298D01*
X5281683Y2365865D01*
X5281415Y2277872D01*
X5281363Y2167477D01*
X5279472Y2089337D01*
X5273145Y2036635D01*
X5259783Y2002558D01*
X5236785Y1980289D01*
X5201554Y1963013D01*
X5154497Y1945062D01*
X5103103Y1925522D01*
X5109221Y2272315D01*
X5111684Y2397332D01*
X5114567Y2489718D01*
X5118698Y2555919D01*
X5124907Y2602380D01*
X5134026Y2635544D01*
X5146883Y2661856D01*
X5162384Y2685071D01*
X5237171Y2759231D01*
X5328428Y2802116D01*
X5427683Y2812388D01*
X5526464Y2788711D01*
G37*
X5526464Y2788711D02*
X5589167Y2752442D01*
X5632761Y2716442D01*
X5664645Y2678725D01*
X5686610Y2632601D01*
X5700449Y2571379D01*
X5707953Y2488369D01*
X5710917Y2376881D01*
X5711261Y2296738D01*
X5711261Y2001735D01*
X5545185Y1927285D01*
X5535415Y2250398D01*
X5531379Y2371071D01*
X5527144Y2458659D01*
X5521897Y2519150D01*
X5514825Y2558532D01*
X5505111Y2582793D01*
X5491944Y2597920D01*
X5487719Y2601194D01*
X5423709Y2626766D01*
X5359008Y2616647D01*
X5320492Y2589800D01*
X5304825Y2570776D01*
X5293980Y2545812D01*
X5287088Y2507966D01*
X5283279Y2450298D01*
X5281683Y2365865D01*
X5281415Y2277872D01*
X5281363Y2167477D01*
X5279472Y2089337D01*
X5273145Y2036635D01*
X5259783Y2002558D01*
X5236785Y1980289D01*
X5201554Y1963013D01*
X5154497Y1945062D01*
X5103103Y1925522D01*
X5109221Y2272315D01*
X5111684Y2397332D01*
X5114567Y2489718D01*
X5118698Y2555919D01*
X5124907Y2602380D01*
X5134026Y2635544D01*
X5146883Y2661856D01*
X5162384Y2685071D01*
X5237171Y2759231D01*
X5328428Y2802116D01*
X5427683Y2812388D01*
X5526464Y2788711D01*
G36*
X4389578Y2642745D02*
G01*
X4435221Y2708585D01*
X4517602Y2775119D01*
X4608346Y2808124D01*
X4700985Y2810227D01*
X4789054Y2784055D01*
X4866086Y2732233D01*
X4925616Y2657388D01*
X4961178Y2562146D01*
X4968371Y2492044D01*
X4967554Y2462791D01*
X4960714Y2440393D01*
X4941912Y2420326D01*
X4905208Y2398067D01*
X4844662Y2369091D01*
X4754334Y2328873D01*
X4753877Y2328671D01*
X4670733Y2290590D01*
X4602553Y2256775D01*
X4556305Y2230867D01*
X4538958Y2216505D01*
X4538954Y2216389D01*
X4554243Y2185115D01*
X4589996Y2150643D01*
X4631042Y2125810D01*
X4651837Y2120877D01*
X4708570Y2137938D01*
X4757427Y2180667D01*
X4781265Y2227645D01*
X4804197Y2262278D01*
X4849118Y2301719D01*
X4901923Y2335791D01*
X4948510Y2354320D01*
X4958252Y2355338D01*
X4969218Y2338585D01*
X4969879Y2295761D01*
X4961820Y2238019D01*
X4946627Y2176511D01*
X4925886Y2122391D01*
X4924838Y2120290D01*
X4862421Y2033140D01*
X4781526Y1973861D01*
X4689656Y1944766D01*
X4594313Y1948166D01*
X4502998Y1986372D01*
X4498938Y1989059D01*
X4427106Y2054158D01*
X4379873Y2139095D01*
X4353734Y2250779D01*
X4350226Y2282157D01*
X4344013Y2430264D01*
X4351461Y2499332D01*
X4538954Y2499332D01*
X4541390Y2456248D01*
X4554714Y2443674D01*
X4587932Y2453081D01*
X4640294Y2475317D01*
X4698824Y2503190D01*
X4700279Y2503928D01*
X4749889Y2530023D01*
X4769800Y2547437D01*
X4764890Y2565693D01*
X4744216Y2589680D01*
X4691619Y2624394D01*
X4634977Y2626944D01*
X4584169Y2601681D01*
X4549076Y2552953D01*
X4538954Y2499332D01*
X4351461Y2499332D01*
X4356792Y2548764D01*
X4389578Y2642745D01*
G37*
X4389578Y2642745D02*
X4435221Y2708585D01*
X4517602Y2775119D01*
X4608346Y2808124D01*
X4700985Y2810227D01*
X4789054Y2784055D01*
X4866086Y2732233D01*
X4925616Y2657388D01*
X4961178Y2562146D01*
X4968371Y2492044D01*
X4967554Y2462791D01*
X4960714Y2440393D01*
X4941912Y2420326D01*
X4905208Y2398067D01*
X4844662Y2369091D01*
X4754334Y2328873D01*
X4753877Y2328671D01*
X4670733Y2290590D01*
X4602553Y2256775D01*
X4556305Y2230867D01*
X4538958Y2216505D01*
X4538954Y2216389D01*
X4554243Y2185115D01*
X4589996Y2150643D01*
X4631042Y2125810D01*
X4651837Y2120877D01*
X4708570Y2137938D01*
X4757427Y2180667D01*
X4781265Y2227645D01*
X4804197Y2262278D01*
X4849118Y2301719D01*
X4901923Y2335791D01*
X4948510Y2354320D01*
X4958252Y2355338D01*
X4969218Y2338585D01*
X4969879Y2295761D01*
X4961820Y2238019D01*
X4946627Y2176511D01*
X4925886Y2122391D01*
X4924838Y2120290D01*
X4862421Y2033140D01*
X4781526Y1973861D01*
X4689656Y1944766D01*
X4594313Y1948166D01*
X4502998Y1986372D01*
X4498938Y1989059D01*
X4427106Y2054158D01*
X4379873Y2139095D01*
X4353734Y2250779D01*
X4350226Y2282157D01*
X4344013Y2430264D01*
X4351461Y2499332D01*
X4538954Y2499332D01*
X4541390Y2456248D01*
X4554714Y2443674D01*
X4587932Y2453081D01*
X4640294Y2475317D01*
X4698824Y2503190D01*
X4700279Y2503928D01*
X4749889Y2530023D01*
X4769800Y2547437D01*
X4764890Y2565693D01*
X4744216Y2589680D01*
X4691619Y2624394D01*
X4634977Y2626944D01*
X4584169Y2601681D01*
X4549076Y2552953D01*
X4538954Y2499332D01*
X4351461Y2499332D01*
X4356792Y2548764D01*
X4389578Y2642745D01*
D12*
%TO.C,C22*%
X42388836Y45844300D02*
X42173164Y45844300D01*
X42388836Y46564300D02*
X42173164Y46564300D01*
%TO.C,R5*%
X39186359Y46890000D02*
X39493641Y46890000D01*
X39186359Y47650000D02*
X39493641Y47650000D01*
%TO.C,Q1*%
X25949200Y24850800D02*
X26599200Y24850800D01*
X25949200Y21730800D02*
X25299200Y21730800D01*
X25949200Y24850800D02*
X24274200Y24850800D01*
X25949200Y21730800D02*
X26599200Y21730800D01*
%TO.C,C9*%
X19111200Y10365420D02*
X19111200Y10646580D01*
X18091200Y10365420D02*
X18091200Y10646580D01*
%TO.C,D9*%
X21528000Y21042000D02*
X20058000Y21042000D01*
X21528000Y18757000D02*
X21528000Y21042000D01*
X20058000Y21042000D02*
X20058000Y18757000D01*
%TO.C,C11*%
X16158380Y43358800D02*
X15877220Y43358800D01*
X16158380Y42338800D02*
X15877220Y42338800D01*
%TO.C,C4*%
X15348400Y10270148D02*
X15348400Y10792652D01*
X13878400Y10270148D02*
X13878400Y10792652D01*
%TO.C,R18*%
X37704041Y30220000D02*
X37396759Y30220000D01*
X37704041Y30980000D02*
X37396759Y30980000D01*
%TO.C,C16*%
X13877964Y46705200D02*
X14093636Y46705200D01*
X13877964Y47425200D02*
X14093636Y47425200D01*
%TO.C,U3*%
X41344800Y42808111D02*
X41344800Y39480489D01*
X46450200Y39480489D02*
X46450200Y42808111D01*
X46450200Y41449100D02*
G75*
G03*
X46450200Y40839500I0J-304800D01*
G01*
%TO.C,R11*%
X17771641Y38836600D02*
X17464359Y38836600D01*
X17771641Y39596600D02*
X17464359Y39596600D01*
%TO.C,C30*%
X18171252Y6520000D02*
X16748748Y6520000D01*
X18171252Y4700000D02*
X16748748Y4700000D01*
%TO.C,C31*%
X19495000Y2208748D02*
X19495000Y2731252D01*
X18025000Y2208748D02*
X18025000Y2731252D01*
%TO.C,R16*%
X43015645Y17205621D02*
X41987421Y18233845D01*
X44302579Y18492555D02*
X43274355Y19520779D01*
%TO.C,C25*%
X4861252Y43975000D02*
X4338748Y43975000D01*
X4861252Y45445000D02*
X4338748Y45445000D01*
%TO.C,C10*%
X18001000Y37223580D02*
X18001000Y36942420D01*
X16981000Y37223580D02*
X16981000Y36942420D01*
%TO.C,U5*%
X12811200Y30662200D02*
X12811200Y31387200D01*
X12811200Y26167200D02*
X12086200Y26167200D01*
X12811200Y26892200D02*
X12811200Y26167200D01*
X7591200Y31387200D02*
X8316200Y31387200D01*
X7591200Y26167200D02*
X8316200Y26167200D01*
X7591200Y30662200D02*
X7591200Y31387200D01*
X7591200Y26892200D02*
X7591200Y26167200D01*
%TO.C,R10*%
X17720600Y42951641D02*
X17720600Y42644359D01*
X18480600Y42951641D02*
X18480600Y42644359D01*
%TO.C,C26*%
X17335000Y2228748D02*
X17335000Y2751252D01*
X15865000Y2228748D02*
X15865000Y2751252D01*
%TO.C,R2*%
X14153241Y45467200D02*
X13845959Y45467200D01*
X14153241Y46227200D02*
X13845959Y46227200D01*
%TO.C,R8*%
X23207241Y22426200D02*
X22899959Y22426200D01*
X23207241Y21666200D02*
X22899959Y21666200D01*
%TO.C,R7*%
X23207241Y24915400D02*
X22899959Y24915400D01*
X23207241Y24155400D02*
X22899959Y24155400D01*
%TO.C,R24*%
X20413000Y17060641D02*
X20413000Y16753359D01*
X21173000Y17060641D02*
X21173000Y16753359D01*
%TO.C,SW1*%
X40540000Y48450000D02*
X40540000Y52590000D01*
X43680000Y48450000D02*
X43380000Y48450000D01*
X40840000Y48450000D02*
X40540000Y48450000D01*
X40540000Y52590000D02*
X40840000Y52590000D01*
X43380000Y52590000D02*
X43680000Y52590000D01*
X43680000Y52590000D02*
X43680000Y48450000D01*
%TO.C,L1*%
X51980000Y13270000D02*
X54980000Y13270000D01*
X54980000Y670000D02*
X51980000Y670000D01*
X45380000Y670000D02*
X42380000Y670000D01*
X54980000Y13270000D02*
X54980000Y670000D01*
X42380000Y670000D02*
X42380000Y13270000D01*
X42380000Y13270000D02*
X45380000Y13270000D01*
%TO.C,C24*%
X4338748Y41445000D02*
X4861252Y41445000D01*
X4338748Y39975000D02*
X4861252Y39975000D01*
%TO.C,R15*%
X46647845Y25565979D02*
X45619621Y24537755D01*
X47934779Y24279045D02*
X46906555Y23250821D01*
%TO.C,C13*%
X46007836Y48990000D02*
X45792164Y48990000D01*
X46007836Y48270000D02*
X45792164Y48270000D01*
%TD*%
%LPC*%
D16*
%TO.C,U7*%
X7540000Y52097500D03*
X6590000Y52097500D03*
X5640000Y52097500D03*
X5640000Y49822500D03*
X6590000Y49822500D03*
X7540000Y49822500D03*
%TD*%
D17*
%TO.C,C6*%
X42778049Y31379351D03*
X44121551Y30035849D03*
%TD*%
D18*
%TO.C,R6*%
X38820000Y42310000D03*
X38820000Y43330000D03*
%TD*%
D19*
%TO.C,C7*%
X29842500Y13840000D03*
X36342500Y13840000D03*
%TD*%
D20*
%TO.C,D3*%
X12411000Y20192100D03*
X12411000Y18617100D03*
%TD*%
D18*
%TO.C,R19*%
X21725000Y1911300D03*
X21725000Y2931300D03*
%TD*%
D21*
%TO.C,C32*%
X9325000Y21020000D03*
X7775000Y21020000D03*
%TD*%
D22*
%TO.C,U6*%
X8130000Y18760000D03*
D23*
X5830000Y12460000D03*
D22*
X5830000Y18760000D03*
X3530000Y18760000D03*
%TD*%
D24*
%TO.C,C1*%
X20430000Y9810000D03*
X20430000Y11710000D03*
%TD*%
D25*
%TO.C,U4*%
X23499500Y6726900D03*
X23499500Y5456900D03*
X23499500Y4186900D03*
X23499500Y2916900D03*
X28774500Y2916900D03*
X28774500Y4186900D03*
X28774500Y5456900D03*
X28774500Y6726900D03*
D26*
X26137000Y4821900D03*
%TD*%
D27*
%TO.C,SW2*%
X14266000Y52667800D03*
X14266000Y48467800D03*
%TD*%
D28*
%TO.C,S1*%
X44360000Y58090000D03*
X51160000Y58090000D03*
D29*
X50260000Y55340000D03*
X47760000Y55340000D03*
X45260000Y55340000D03*
%TD*%
D30*
%TO.C,C2*%
X16576600Y48464800D03*
X16576600Y49424800D03*
%TD*%
D31*
%TO.C,Q2*%
X21086700Y22365800D03*
X21086700Y24265800D03*
X19211700Y23315800D03*
%TD*%
D32*
%TO.C,C18*%
X22750000Y10885000D03*
X22750000Y13835000D03*
%TD*%
%TO.C,C3*%
X12330000Y9745000D03*
X12330000Y12695000D03*
%TD*%
D33*
%TO.C,R3*%
X10890000Y50420000D03*
X11910000Y50420000D03*
%TD*%
D34*
%TO.C,C20*%
X43820000Y46268300D03*
X44780000Y46268300D03*
%TD*%
D33*
%TO.C,R4*%
X38830000Y48470000D03*
X39850000Y48470000D03*
%TD*%
D35*
%TO.C,R17*%
X35306635Y22462835D03*
X34016165Y21172365D03*
%TD*%
D36*
%TO.C,U2*%
X41882911Y25571590D03*
X41529357Y25925144D03*
X41175804Y26278697D03*
X40822250Y26632250D03*
X40468697Y26985804D03*
X40115144Y27339357D03*
X39761590Y27692911D03*
D37*
X38400410Y27692911D03*
X38046856Y27339357D03*
X37693303Y26985804D03*
X37339750Y26632250D03*
X36986196Y26278697D03*
X36632643Y25925144D03*
X36279089Y25571590D03*
D36*
X36279089Y24210410D03*
X36632643Y23856856D03*
X36986196Y23503303D03*
X37339750Y23149750D03*
X37693303Y22796196D03*
X38046856Y22442643D03*
X38400410Y22089089D03*
D37*
X39761590Y22089089D03*
X40115144Y22442643D03*
X40468697Y22796196D03*
X40822250Y23149750D03*
X41175804Y23503303D03*
X41529357Y23856856D03*
X41882911Y24210410D03*
D38*
X39081000Y24891000D03*
%TD*%
D39*
%TO.C,C28*%
X23350000Y8710000D03*
X25250000Y8710000D03*
%TD*%
D19*
%TO.C,C19*%
X32877500Y4945000D03*
X39377500Y4945000D03*
%TD*%
D24*
%TO.C,C14*%
X27549400Y18073600D03*
X27549400Y19973600D03*
%TD*%
D34*
%TO.C,C17*%
X45840000Y46268300D03*
X46800000Y46268300D03*
%TD*%
D33*
%TO.C,R1*%
X13500000Y44706000D03*
X14520000Y44706000D03*
%TD*%
D24*
%TO.C,C12*%
X40503400Y13476200D03*
X40503400Y15376200D03*
%TD*%
D34*
%TO.C,C23*%
X4150000Y30030000D03*
X5110000Y30030000D03*
%TD*%
D40*
%TO.C,C21*%
X47507500Y41794300D03*
X47507500Y40834300D03*
%TD*%
D41*
%TO.C,D1*%
X17872000Y18769500D03*
X17872000Y20344500D03*
%TD*%
D42*
%TO.C,R14*%
X35443776Y19526576D03*
X36165024Y20247824D03*
%TD*%
D43*
%TO.C,J4*%
X8986600Y55790000D03*
X8336600Y55790000D03*
X7686600Y55790000D03*
X7036600Y55790000D03*
X6386600Y55790000D03*
D44*
X10186600Y55790000D03*
X5186600Y55790000D03*
D45*
X11186600Y58490000D03*
X4186600Y58490000D03*
%TD*%
D18*
%TO.C,R9*%
X17872000Y16507000D03*
X17872000Y17527000D03*
%TD*%
D33*
%TO.C,R23*%
X5130000Y28940000D03*
X6150000Y28940000D03*
%TD*%
D46*
%TO.C,R20*%
X14710000Y1785000D03*
X14710000Y3435000D03*
%TD*%
D47*
%TO.C,C8*%
X38100600Y32257000D03*
X36200600Y32257000D03*
%TD*%
D24*
%TO.C,C5*%
X16696200Y9733800D03*
X16696200Y11633800D03*
%TD*%
D18*
%TO.C,R22*%
X20440000Y1870000D03*
X20440000Y2890000D03*
%TD*%
D48*
%TO.C,R21*%
X5730000Y39060000D03*
X4710000Y39060000D03*
%TD*%
D49*
%TO.C,R12*%
X15205000Y17425400D03*
X15205000Y16405400D03*
%TD*%
D30*
%TO.C,C15*%
X11918700Y51720400D03*
X11918700Y52680400D03*
%TD*%
%TO.C,C29*%
X21670000Y4090000D03*
X21670000Y5050000D03*
%TD*%
D50*
%TO.C,U1*%
X19948000Y52284000D03*
X19948000Y51014000D03*
X19948000Y49744000D03*
X19948000Y48474000D03*
X19948000Y47204000D03*
X19948000Y45934000D03*
X19948000Y44664000D03*
X19948000Y43394000D03*
X19948000Y42124000D03*
X19948000Y40854000D03*
X19948000Y39584000D03*
X19948000Y38314000D03*
X19948000Y37044000D03*
X19948000Y35774000D03*
D51*
X22733000Y34774000D03*
X24003000Y34774000D03*
X25273000Y34774000D03*
X26543000Y34774000D03*
X27813000Y34774000D03*
X29083000Y34774000D03*
X30353000Y34774000D03*
X31623000Y34774000D03*
X32893000Y34774000D03*
X34163000Y34774000D03*
D50*
X36948000Y35774000D03*
X36948000Y37044000D03*
X36948000Y38314000D03*
X36948000Y39584000D03*
X36948000Y40854000D03*
X36948000Y42124000D03*
X36948000Y43394000D03*
X36948000Y44664000D03*
X36948000Y45934000D03*
X36948000Y47204000D03*
X36948000Y48474000D03*
X36948000Y49744000D03*
X36948000Y51014000D03*
X36948000Y52284000D03*
D52*
X27448000Y44784000D03*
%TD*%
D18*
%TO.C,R13*%
X12411000Y16380000D03*
X12411000Y17400000D03*
%TD*%
D53*
%TO.C,C27*%
X5080000Y42710000D03*
X4120000Y42710000D03*
%TD*%
D54*
%TO.C,D7*%
X5146600Y21824200D03*
X5146600Y25824200D03*
%TD*%
D20*
%TO.C,D2*%
X15205000Y20217500D03*
X15205000Y18642500D03*
%TD*%
D54*
%TO.C,D8*%
X25830000Y11540000D03*
X25830000Y15540000D03*
%TD*%
D53*
%TO.C,C22*%
X42761000Y46204300D03*
X41801000Y46204300D03*
%TD*%
D33*
%TO.C,R5*%
X38830000Y47270000D03*
X39850000Y47270000D03*
%TD*%
D55*
%TO.C,Q1*%
X25011700Y24240800D03*
X25011700Y22340800D03*
X26886700Y23290800D03*
%TD*%
D56*
%TO.C,C9*%
X18601200Y9731000D03*
X18601200Y11281000D03*
%TD*%
D20*
%TO.C,D9*%
X20793000Y20344500D03*
X20793000Y18769500D03*
%TD*%
D21*
%TO.C,C11*%
X16792800Y42848800D03*
X15242800Y42848800D03*
%TD*%
D24*
%TO.C,C4*%
X14613400Y9581400D03*
X14613400Y11481400D03*
%TD*%
D48*
%TO.C,R18*%
X38060400Y30600000D03*
X37040400Y30600000D03*
%TD*%
D34*
%TO.C,C16*%
X13505800Y47065200D03*
X14465800Y47065200D03*
%TD*%
D57*
%TO.C,U3*%
X46172499Y43963700D03*
X45522501Y43963700D03*
X44872499Y43963700D03*
X44222501Y43963700D03*
X43572502Y43963700D03*
X42922501Y43963700D03*
X42272502Y43963700D03*
X41622501Y43963700D03*
X41622501Y38324900D03*
X42272499Y38324900D03*
X42922501Y38324900D03*
X43572499Y38324900D03*
X44222498Y38324900D03*
X44872499Y38324900D03*
X45522498Y38324900D03*
X46172499Y38324900D03*
%TD*%
D48*
%TO.C,R11*%
X18128000Y39216600D03*
X17108000Y39216600D03*
%TD*%
D58*
%TO.C,C30*%
X18935000Y5610000D03*
X15985000Y5610000D03*
%TD*%
D24*
%TO.C,C31*%
X18760000Y1520000D03*
X18760000Y3420000D03*
%TD*%
D59*
%TO.C,R16*%
X44179144Y17329056D03*
X42110856Y19397344D03*
%TD*%
D47*
%TO.C,C25*%
X5550000Y44710000D03*
X3650000Y44710000D03*
%TD*%
D60*
%TO.C,C10*%
X17491000Y37858000D03*
X17491000Y36308000D03*
%TD*%
D61*
%TO.C,U5*%
X11701200Y31227200D03*
X11201200Y31227200D03*
X10701200Y31227200D03*
X10201200Y31227200D03*
X9701200Y31227200D03*
X9201200Y31227200D03*
X8701200Y31227200D03*
D62*
X7751200Y30277200D03*
X7751200Y29777200D03*
X7751200Y29277200D03*
X7751200Y28777200D03*
X7751200Y28277200D03*
X7751200Y27777200D03*
X7751200Y27277200D03*
D61*
X8701200Y26327200D03*
X9201200Y26327200D03*
X9701200Y26327200D03*
X10201200Y26327200D03*
X10701200Y26327200D03*
X11201200Y26327200D03*
X11701200Y26327200D03*
D62*
X12651200Y27277200D03*
X12651200Y27777200D03*
X12651200Y28277200D03*
X12651200Y28777200D03*
X12651200Y29277200D03*
X12651200Y29777200D03*
X12651200Y30277200D03*
D63*
X10201200Y28777200D03*
%TD*%
D49*
%TO.C,R10*%
X18100600Y43308000D03*
X18100600Y42288000D03*
%TD*%
D24*
%TO.C,C26*%
X16600000Y1540000D03*
X16600000Y3440000D03*
%TD*%
D48*
%TO.C,R2*%
X14509600Y45847200D03*
X13489600Y45847200D03*
%TD*%
%TO.C,R8*%
X23563600Y22046200D03*
X22543600Y22046200D03*
%TD*%
%TO.C,R7*%
X23563600Y24535400D03*
X22543600Y24535400D03*
%TD*%
D49*
%TO.C,R24*%
X20793000Y17417000D03*
X20793000Y16397000D03*
%TD*%
D64*
%TO.C,SW1*%
X42110000Y48420000D03*
X42110000Y52620000D03*
%TD*%
D65*
%TO.C,L1*%
X48680000Y2020000D03*
X48680000Y11920000D03*
%TD*%
D39*
%TO.C,C24*%
X3650000Y40710000D03*
X5550000Y40710000D03*
%TD*%
D66*
%TO.C,R15*%
X47811344Y25442544D03*
X45743056Y23374256D03*
%TD*%
D53*
%TO.C,C13*%
X46380000Y48630000D03*
X45420000Y48630000D03*
%TD*%
D67*
%TO.C,J1*%
X49798000Y15223000D03*
D68*
X51798000Y16823000D03*
D69*
X51798000Y19323000D03*
X51798000Y21823000D03*
X51798000Y24323000D03*
%TD*%
D67*
%TO.C,J3*%
X49781000Y28752000D03*
D68*
X51781000Y30352000D03*
D69*
X51781000Y32852000D03*
X51781000Y35352000D03*
X51781000Y37852000D03*
X51781000Y40352000D03*
X51781000Y42852000D03*
X51781000Y45352000D03*
X51781000Y47852000D03*
%TD*%
D67*
%TO.C,J2*%
X30410000Y29765000D03*
D70*
X28810000Y31765000D03*
D71*
X26310000Y31765000D03*
X23810000Y31765000D03*
X21310000Y31765000D03*
%TD*%
M02*
