%TF.GenerationSoftware,KiCad,Pcbnew,(6.0.7)*%
%TF.CreationDate,2023-01-19T11:49:32-06:00*%
%TF.ProjectId,SmartSpin2k,536d6172-7453-4706-996e-326b2e6b6963,2.35*%
%TF.SameCoordinates,Original*%
%TF.FileFunction,Soldermask,Top*%
%TF.FilePolarity,Negative*%
%FSLAX46Y46*%
G04 Gerber Fmt 4.6, Leading zero omitted, Abs format (unit mm)*
G04 Created by KiCad (PCBNEW (6.0.7)) date 2023-01-19 11:49:32*
%MOMM*%
%LPD*%
G01*
G04 APERTURE LIST*
G04 Aperture macros list*
%AMRoundRect*
0 Rectangle with rounded corners*
0 $1 Rounding radius*
0 $2 $3 $4 $5 $6 $7 $8 $9 X,Y pos of 4 corners*
0 Add a 4 corners polygon primitive as box body*
4,1,4,$2,$3,$4,$5,$6,$7,$8,$9,$2,$3,0*
0 Add four circle primitives for the rounded corners*
1,1,$1+$1,$2,$3*
1,1,$1+$1,$4,$5*
1,1,$1+$1,$6,$7*
1,1,$1+$1,$8,$9*
0 Add four rect primitives between the rounded corners*
20,1,$1+$1,$2,$3,$4,$5,0*
20,1,$1+$1,$4,$5,$6,$7,0*
20,1,$1+$1,$6,$7,$8,$9,0*
20,1,$1+$1,$8,$9,$2,$3,0*%
%AMRotRect*
0 Rectangle, with rotation*
0 The origin of the aperture is its center*
0 $1 length*
0 $2 width*
0 $3 Rotation angle, in degrees counterclockwise*
0 Add horizontal line*
21,1,$1,$2,0,0,$3*%
G04 Aperture macros list end*
%ADD10RoundRect,0.250000X-0.512652X-0.159099X-0.159099X-0.512652X0.512652X0.159099X0.159099X0.512652X0*%
%ADD11RoundRect,0.135000X0.185000X-0.135000X0.185000X0.135000X-0.185000X0.135000X-0.185000X-0.135000X0*%
%ADD12RoundRect,0.250000X-1.500000X-1.000000X1.500000X-1.000000X1.500000X1.000000X-1.500000X1.000000X0*%
%ADD13RoundRect,0.218750X-0.256250X0.218750X-0.256250X-0.218750X0.256250X-0.218750X0.256250X0.218750X0*%
%ADD14RoundRect,0.225000X0.225000X0.250000X-0.225000X0.250000X-0.225000X-0.250000X0.225000X-0.250000X0*%
%ADD15R,1.500000X2.000000*%
%ADD16R,3.800000X2.000000*%
%ADD17RoundRect,0.250000X0.475000X-0.250000X0.475000X0.250000X-0.475000X0.250000X-0.475000X-0.250000X0*%
%ADD18RoundRect,0.150000X-0.662500X-0.150000X0.662500X-0.150000X0.662500X0.150000X-0.662500X0.150000X0*%
%ADD19R,2.514000X3.200000*%
%ADD20RoundRect,0.200000X-0.800000X0.200000X-0.800000X-0.200000X0.800000X-0.200000X0.800000X0.200000X0*%
%ADD21C,0.900000*%
%ADD22R,1.250000X2.500000*%
%ADD23RoundRect,0.218750X0.218750X0.256250X-0.218750X0.256250X-0.218750X-0.256250X0.218750X-0.256250X0*%
%ADD24RoundRect,0.140000X0.170000X-0.140000X0.170000X0.140000X-0.170000X0.140000X-0.170000X-0.140000X0*%
%ADD25RoundRect,0.218750X-0.218750X-0.256250X0.218750X-0.256250X0.218750X0.256250X-0.218750X0.256250X0*%
%ADD26RoundRect,0.150000X0.587500X0.150000X-0.587500X0.150000X-0.587500X-0.150000X0.587500X-0.150000X0*%
%ADD27RoundRect,0.250000X0.650000X-0.325000X0.650000X0.325000X-0.650000X0.325000X-0.650000X-0.325000X0*%
%ADD28RoundRect,0.135000X-0.135000X-0.185000X0.135000X-0.185000X0.135000X0.185000X-0.135000X0.185000X0*%
%ADD29RoundRect,0.140000X-0.140000X-0.170000X0.140000X-0.170000X0.140000X0.170000X-0.140000X0.170000X0*%
%ADD30RoundRect,0.250000X-0.132583X0.503814X-0.503814X0.132583X0.132583X-0.503814X0.503814X-0.132583X0*%
%ADD31RoundRect,0.062500X0.185616X0.274004X-0.274004X-0.185616X-0.185616X-0.274004X0.274004X0.185616X0*%
%ADD32RoundRect,0.062500X-0.185616X0.274004X-0.274004X0.185616X0.185616X-0.274004X0.274004X-0.185616X0*%
%ADD33RotRect,3.750000X3.750000X225.000000*%
%ADD34RoundRect,0.250000X-0.250000X-0.475000X0.250000X-0.475000X0.250000X0.475000X-0.250000X0.475000X0*%
%ADD35RoundRect,0.140000X-0.170000X0.140000X-0.170000X-0.140000X0.170000X-0.140000X0.170000X0.140000X0*%
%ADD36RoundRect,0.218750X0.256250X-0.218750X0.256250X0.218750X-0.256250X0.218750X-0.256250X-0.218750X0*%
%ADD37RoundRect,0.135000X0.035355X-0.226274X0.226274X-0.035355X-0.035355X0.226274X-0.226274X0.035355X0*%
%ADD38R,0.400000X1.350000*%
%ADD39O,1.250000X0.950000*%
%ADD40O,1.000000X1.550000*%
%ADD41RoundRect,0.200000X0.275000X-0.200000X0.275000X0.200000X-0.275000X0.200000X-0.275000X-0.200000X0*%
%ADD42RoundRect,0.250000X0.250000X0.475000X-0.250000X0.475000X-0.250000X-0.475000X0.250000X-0.475000X0*%
%ADD43RoundRect,0.135000X0.135000X0.185000X-0.135000X0.185000X-0.135000X-0.185000X0.135000X-0.185000X0*%
%ADD44RoundRect,0.135000X-0.185000X0.135000X-0.185000X-0.135000X0.185000X-0.135000X0.185000X0.135000X0*%
%ADD45R,2.000000X0.900000*%
%ADD46R,0.900000X2.000000*%
%ADD47R,5.000000X5.000000*%
%ADD48RoundRect,0.140000X0.140000X0.170000X-0.140000X0.170000X-0.140000X-0.170000X0.140000X-0.170000X0*%
%ADD49R,1.800000X2.500000*%
%ADD50RoundRect,0.150000X-0.587500X-0.150000X0.587500X-0.150000X0.587500X0.150000X-0.587500X0.150000X0*%
%ADD51RoundRect,0.225000X0.250000X-0.225000X0.250000X0.225000X-0.250000X0.225000X-0.250000X-0.225000X0*%
%ADD52R,0.355600X1.676400*%
%ADD53RoundRect,0.250000X0.325000X0.650000X-0.325000X0.650000X-0.325000X-0.650000X0.325000X-0.650000X0*%
%ADD54RoundRect,0.250000X0.662913X0.220971X0.220971X0.662913X-0.662913X-0.220971X-0.220971X-0.662913X0*%
%ADD55RoundRect,0.225000X-0.250000X0.225000X-0.250000X-0.225000X0.250000X-0.225000X0.250000X0.225000X0*%
%ADD56RoundRect,0.062500X-0.062500X0.337500X-0.062500X-0.337500X0.062500X-0.337500X0.062500X0.337500X0*%
%ADD57RoundRect,0.062500X-0.337500X0.062500X-0.337500X-0.062500X0.337500X-0.062500X0.337500X0.062500X0*%
%ADD58R,3.350000X3.350000*%
%ADD59RoundRect,0.200000X0.800000X-0.200000X0.800000X0.200000X-0.800000X0.200000X-0.800000X-0.200000X0*%
%ADD60R,5.400000X2.900000*%
%ADD61RoundRect,0.250000X-0.220971X0.662913X-0.662913X0.220971X0.220971X-0.662913X0.662913X-0.220971X0*%
%ADD62C,1.200000*%
%ADD63RoundRect,0.250000X0.725000X-0.600000X0.725000X0.600000X-0.725000X0.600000X-0.725000X-0.600000X0*%
%ADD64O,1.950000X1.700000*%
%ADD65RoundRect,0.250000X0.600000X0.725000X-0.600000X0.725000X-0.600000X-0.725000X0.600000X-0.725000X0*%
%ADD66O,1.700000X1.950000*%
G04 APERTURE END LIST*
D10*
%TO.C,C6*%
X42778049Y31379351D03*
X44121551Y30035849D03*
%TD*%
D11*
%TO.C,R6*%
X38820000Y42310000D03*
X38820000Y43330000D03*
%TD*%
D12*
%TO.C,C7*%
X29842500Y13840000D03*
X36342500Y13840000D03*
%TD*%
D13*
%TO.C,D3*%
X12411000Y20192100D03*
X12411000Y18617100D03*
%TD*%
D11*
%TO.C,R19*%
X21725000Y1911300D03*
X21725000Y2931300D03*
%TD*%
D14*
%TO.C,C32*%
X9325000Y21020000D03*
X7775000Y21020000D03*
%TD*%
D15*
%TO.C,U6*%
X8130000Y18760000D03*
D16*
X5830000Y12460000D03*
D15*
X5830000Y18760000D03*
X3530000Y18760000D03*
%TD*%
D17*
%TO.C,C1*%
X20430000Y9810000D03*
X20430000Y11710000D03*
%TD*%
D18*
%TO.C,U4*%
X23499500Y6726900D03*
X23499500Y5456900D03*
X23499500Y4186900D03*
X23499500Y2916900D03*
X28774500Y2916900D03*
X28774500Y4186900D03*
X28774500Y5456900D03*
X28774500Y6726900D03*
D19*
X26137000Y4821900D03*
%TD*%
D20*
%TO.C,SW2*%
X14266000Y52667800D03*
X14266000Y48467800D03*
%TD*%
D21*
%TO.C,S1*%
X44360000Y58090000D03*
X51160000Y58090000D03*
D22*
X50260000Y55340000D03*
X47760000Y55340000D03*
X45260000Y55340000D03*
%TD*%
D23*
%TO.C,D5*%
X5070500Y52170600D03*
X3495500Y52170600D03*
%TD*%
D24*
%TO.C,C2*%
X16576600Y48464800D03*
X16576600Y49424800D03*
%TD*%
D25*
%TO.C,D4*%
X10074100Y53948600D03*
X11649100Y53948600D03*
%TD*%
D26*
%TO.C,Q2*%
X21086700Y22365800D03*
X21086700Y24265800D03*
X19211700Y23315800D03*
%TD*%
D27*
%TO.C,C18*%
X22750000Y10885000D03*
X22750000Y13835000D03*
%TD*%
%TO.C,C3*%
X12330000Y9745000D03*
X12330000Y12695000D03*
%TD*%
D28*
%TO.C,R3*%
X10890000Y50420000D03*
X11910000Y50420000D03*
%TD*%
D29*
%TO.C,C20*%
X43820000Y46268300D03*
X44780000Y46268300D03*
%TD*%
D28*
%TO.C,R4*%
X38830000Y48470000D03*
X39850000Y48470000D03*
%TD*%
D30*
%TO.C,R17*%
X35306635Y22462835D03*
X34016165Y21172365D03*
%TD*%
D31*
%TO.C,U2*%
X41882911Y25571590D03*
X41529357Y25925144D03*
X41175804Y26278697D03*
X40822250Y26632250D03*
X40468697Y26985804D03*
X40115144Y27339357D03*
X39761590Y27692911D03*
D32*
X38400410Y27692911D03*
X38046856Y27339357D03*
X37693303Y26985804D03*
X37339750Y26632250D03*
X36986196Y26278697D03*
X36632643Y25925144D03*
X36279089Y25571590D03*
D31*
X36279089Y24210410D03*
X36632643Y23856856D03*
X36986196Y23503303D03*
X37339750Y23149750D03*
X37693303Y22796196D03*
X38046856Y22442643D03*
X38400410Y22089089D03*
D32*
X39761590Y22089089D03*
X40115144Y22442643D03*
X40468697Y22796196D03*
X40822250Y23149750D03*
X41175804Y23503303D03*
X41529357Y23856856D03*
X41882911Y24210410D03*
D33*
X39081000Y24891000D03*
%TD*%
D34*
%TO.C,C28*%
X23350000Y8710000D03*
X25250000Y8710000D03*
%TD*%
D12*
%TO.C,C19*%
X32877500Y4945000D03*
X39377500Y4945000D03*
%TD*%
D23*
%TO.C,D6*%
X5095900Y53897800D03*
X3520900Y53897800D03*
%TD*%
D17*
%TO.C,C14*%
X27549400Y18073600D03*
X27549400Y19973600D03*
%TD*%
D29*
%TO.C,C17*%
X45840000Y46268300D03*
X46800000Y46268300D03*
%TD*%
D28*
%TO.C,R1*%
X13500000Y44706000D03*
X14520000Y44706000D03*
%TD*%
D17*
%TO.C,C12*%
X40503400Y13476200D03*
X40503400Y15376200D03*
%TD*%
D29*
%TO.C,C23*%
X4150000Y30030000D03*
X5110000Y30030000D03*
%TD*%
D35*
%TO.C,C21*%
X47507500Y41794300D03*
X47507500Y40834300D03*
%TD*%
D36*
%TO.C,D1*%
X17872000Y18769500D03*
X17872000Y20344500D03*
%TD*%
D37*
%TO.C,R14*%
X35443776Y19526576D03*
X36165024Y20247824D03*
%TD*%
D38*
%TO.C,J4*%
X8986600Y55790000D03*
X8336600Y55790000D03*
X7686600Y55790000D03*
X7036600Y55790000D03*
X6386600Y55790000D03*
D39*
X10186600Y55790000D03*
X5186600Y55790000D03*
D40*
X11186600Y58490000D03*
X4186600Y58490000D03*
%TD*%
D11*
%TO.C,R9*%
X17872000Y16507000D03*
X17872000Y17527000D03*
%TD*%
D28*
%TO.C,R23*%
X5130000Y28940000D03*
X6150000Y28940000D03*
%TD*%
D41*
%TO.C,R20*%
X14710000Y1785000D03*
X14710000Y3435000D03*
%TD*%
D42*
%TO.C,C8*%
X38100600Y32257000D03*
X36200600Y32257000D03*
%TD*%
D17*
%TO.C,C5*%
X16696200Y9733800D03*
X16696200Y11633800D03*
%TD*%
D11*
%TO.C,R22*%
X20440000Y1870000D03*
X20440000Y2890000D03*
%TD*%
D43*
%TO.C,R21*%
X5730000Y39060000D03*
X4710000Y39060000D03*
%TD*%
D44*
%TO.C,R12*%
X15205000Y17425400D03*
X15205000Y16405400D03*
%TD*%
D24*
%TO.C,C15*%
X11918700Y51720400D03*
X11918700Y52680400D03*
%TD*%
%TO.C,C29*%
X21670000Y4090000D03*
X21670000Y5050000D03*
%TD*%
D45*
%TO.C,U1*%
X19948000Y52284000D03*
X19948000Y51014000D03*
X19948000Y49744000D03*
X19948000Y48474000D03*
X19948000Y47204000D03*
X19948000Y45934000D03*
X19948000Y44664000D03*
X19948000Y43394000D03*
X19948000Y42124000D03*
X19948000Y40854000D03*
X19948000Y39584000D03*
X19948000Y38314000D03*
X19948000Y37044000D03*
X19948000Y35774000D03*
D46*
X22733000Y34774000D03*
X24003000Y34774000D03*
X25273000Y34774000D03*
X26543000Y34774000D03*
X27813000Y34774000D03*
X29083000Y34774000D03*
X30353000Y34774000D03*
X31623000Y34774000D03*
X32893000Y34774000D03*
X34163000Y34774000D03*
D45*
X36948000Y35774000D03*
X36948000Y37044000D03*
X36948000Y38314000D03*
X36948000Y39584000D03*
X36948000Y40854000D03*
X36948000Y42124000D03*
X36948000Y43394000D03*
X36948000Y44664000D03*
X36948000Y45934000D03*
X36948000Y47204000D03*
X36948000Y48474000D03*
X36948000Y49744000D03*
X36948000Y51014000D03*
X36948000Y52284000D03*
D47*
X27448000Y44784000D03*
%TD*%
D11*
%TO.C,R13*%
X12411000Y16380000D03*
X12411000Y17400000D03*
%TD*%
D48*
%TO.C,C27*%
X5080000Y42710000D03*
X4120000Y42710000D03*
%TD*%
D49*
%TO.C,D7*%
X5146600Y21824200D03*
X5146600Y25824200D03*
%TD*%
D13*
%TO.C,D2*%
X15205000Y20217500D03*
X15205000Y18642500D03*
%TD*%
D49*
%TO.C,D8*%
X25830000Y11540000D03*
X25830000Y15540000D03*
%TD*%
D48*
%TO.C,C22*%
X42761000Y46204300D03*
X41801000Y46204300D03*
%TD*%
D28*
%TO.C,R5*%
X38830000Y47270000D03*
X39850000Y47270000D03*
%TD*%
D50*
%TO.C,Q1*%
X25011700Y24240800D03*
X25011700Y22340800D03*
X26886700Y23290800D03*
%TD*%
D51*
%TO.C,C9*%
X18601200Y9731000D03*
X18601200Y11281000D03*
%TD*%
D13*
%TO.C,D9*%
X20793000Y20344500D03*
X20793000Y18769500D03*
%TD*%
D14*
%TO.C,C11*%
X16792800Y42848800D03*
X15242800Y42848800D03*
%TD*%
D17*
%TO.C,C4*%
X14613400Y9581400D03*
X14613400Y11481400D03*
%TD*%
D43*
%TO.C,R18*%
X38060400Y30600000D03*
X37040400Y30600000D03*
%TD*%
D29*
%TO.C,C16*%
X13505800Y47065200D03*
X14465800Y47065200D03*
%TD*%
D52*
%TO.C,U3*%
X46172499Y43963700D03*
X45522501Y43963700D03*
X44872499Y43963700D03*
X44222501Y43963700D03*
X43572502Y43963700D03*
X42922501Y43963700D03*
X42272502Y43963700D03*
X41622501Y43963700D03*
X41622501Y38324900D03*
X42272499Y38324900D03*
X42922501Y38324900D03*
X43572499Y38324900D03*
X44222498Y38324900D03*
X44872499Y38324900D03*
X45522498Y38324900D03*
X46172499Y38324900D03*
%TD*%
D43*
%TO.C,R11*%
X18128000Y39216600D03*
X17108000Y39216600D03*
%TD*%
D53*
%TO.C,C30*%
X18935000Y5610000D03*
X15985000Y5610000D03*
%TD*%
D17*
%TO.C,C31*%
X18760000Y1520000D03*
X18760000Y3420000D03*
%TD*%
D54*
%TO.C,R16*%
X44179144Y17329056D03*
X42110856Y19397344D03*
%TD*%
D42*
%TO.C,C25*%
X5550000Y44710000D03*
X3650000Y44710000D03*
%TD*%
D55*
%TO.C,C10*%
X17491000Y37858000D03*
X17491000Y36308000D03*
%TD*%
D56*
%TO.C,U5*%
X11701200Y31227200D03*
X11201200Y31227200D03*
X10701200Y31227200D03*
X10201200Y31227200D03*
X9701200Y31227200D03*
X9201200Y31227200D03*
X8701200Y31227200D03*
D57*
X7751200Y30277200D03*
X7751200Y29777200D03*
X7751200Y29277200D03*
X7751200Y28777200D03*
X7751200Y28277200D03*
X7751200Y27777200D03*
X7751200Y27277200D03*
D56*
X8701200Y26327200D03*
X9201200Y26327200D03*
X9701200Y26327200D03*
X10201200Y26327200D03*
X10701200Y26327200D03*
X11201200Y26327200D03*
X11701200Y26327200D03*
D57*
X12651200Y27277200D03*
X12651200Y27777200D03*
X12651200Y28277200D03*
X12651200Y28777200D03*
X12651200Y29277200D03*
X12651200Y29777200D03*
X12651200Y30277200D03*
D58*
X10201200Y28777200D03*
%TD*%
D44*
%TO.C,R10*%
X18100600Y43308000D03*
X18100600Y42288000D03*
%TD*%
D17*
%TO.C,C26*%
X16600000Y1540000D03*
X16600000Y3440000D03*
%TD*%
D43*
%TO.C,R2*%
X14509600Y45847200D03*
X13489600Y45847200D03*
%TD*%
%TO.C,R8*%
X23563600Y22046200D03*
X22543600Y22046200D03*
%TD*%
%TO.C,R7*%
X23563600Y24535400D03*
X22543600Y24535400D03*
%TD*%
D44*
%TO.C,R24*%
X20793000Y17417000D03*
X20793000Y16397000D03*
%TD*%
D59*
%TO.C,SW1*%
X42110000Y48420000D03*
X42110000Y52620000D03*
%TD*%
D60*
%TO.C,L1*%
X48680000Y2020000D03*
X48680000Y11920000D03*
%TD*%
D34*
%TO.C,C24*%
X3650000Y40710000D03*
X5550000Y40710000D03*
%TD*%
D61*
%TO.C,R15*%
X47811344Y25442544D03*
X45743056Y23374256D03*
%TD*%
D48*
%TO.C,C13*%
X46380000Y48630000D03*
X45420000Y48630000D03*
%TD*%
D62*
%TO.C,J1*%
X49798000Y15223000D03*
D63*
X51798000Y16823000D03*
D64*
X51798000Y19323000D03*
X51798000Y21823000D03*
X51798000Y24323000D03*
%TD*%
D62*
%TO.C,J3*%
X49781000Y28752000D03*
D63*
X51781000Y30352000D03*
D64*
X51781000Y32852000D03*
X51781000Y35352000D03*
X51781000Y37852000D03*
X51781000Y40352000D03*
X51781000Y42852000D03*
X51781000Y45352000D03*
X51781000Y47852000D03*
%TD*%
D62*
%TO.C,J2*%
X30410000Y29765000D03*
D65*
X28810000Y31765000D03*
D66*
X26310000Y31765000D03*
X23810000Y31765000D03*
X21310000Y31765000D03*
%TD*%
M02*
