M48
; DRILL file {KiCad (6.0.7)} date Wed Jan 18 18:15:29 2023
; FORMAT={-:-/ absolute / inch / decimal}
; #@! TF.CreationDate,2023-01-18T18:15:29-06:00
; #@! TF.GenerationSoftware,Kicad,Pcbnew,(6.0.7)
; #@! TF.FileFunction,Plated,1,2,PTH
FMAT,2
INCH
; #@! TA.AperFunction,Plated,PTH,ViaDrill
T1C0.0157
; #@! TA.AperFunction,Plated,PTH,ComponentDrill
T2C0.0197
; #@! TA.AperFunction,Plated,PTH,ComponentDrill
T3C0.0217
; #@! TA.AperFunction,Plated,PTH,ComponentDrill
T4C0.0374
%
G90
G05
T1
X0.124Y1.683
X0.1336Y1.341
X0.134Y2.167
X0.1501Y1.5298
X0.1636Y1.3883
X0.2012Y1.2206
X0.2332Y1.4109
X0.2575Y1.9735
X0.2646Y1.294
X0.2906Y1.339
X0.3196Y0.673
X0.3234Y1.4109
X0.3321Y2.1284
X0.3666Y1.101
X0.3805Y1.422
X0.4079Y1.8231
X0.4211Y2.0443
X0.4586Y2.1666
X0.4856Y0.452
X0.5116Y1.951
X0.5476Y1.011
X0.5753Y0.498
X0.5785Y0.9398
X0.5786Y1.44
X0.5791Y0.1783
X0.6036Y1.09
X0.6066Y1.7316
X0.6086Y0.995
X0.609Y1.805
X0.6186Y1.2764
X0.6186Y0.88
X0.6226Y2.053
X0.6526Y1.983
X0.6536Y1.09
X0.6536Y0.97
X0.6573Y0.5049
X0.6586Y1.275
X0.6588Y0.3275
X0.6616Y1.786
X0.6636Y0.65
X0.6786Y0.88
X0.6936Y1.58
X0.6946Y1.629
X0.7056Y1.911
X0.7076Y1.865
X0.7205Y2.0584
X0.7323Y0.4887
X0.8043Y0.506
X0.8531Y0.235
X0.8586Y1.56
X0.8736Y0.805
X0.8752Y0.367
X0.8886Y1.44
X0.8957Y0.5915
X0.9086Y1.6318
X0.9606Y0.612
X0.9899Y1.4363
X1.0276Y1.81
X1.0276Y1.76
X1.0276Y1.71
X1.029Y0.1026
X1.0436Y1.435
X1.0776Y1.81
X1.0776Y1.76
X1.0786Y1.71
X1.0921Y0.8515
X1.0926Y0.965
X1.1264Y0.643
X1.1276Y1.81
X1.1276Y1.76
X1.1276Y1.71
X1.2036Y1.0
X1.2046Y1.235
X1.2293Y1.2832
X1.2916Y0.892
X1.2926Y0.985
X1.2936Y1.2
X1.3196Y0.753
X1.3486Y1.0161
X1.3676Y0.7195
X1.3891Y2.0609
X1.4055Y1.109
X1.4146Y1.21
X1.4223Y0.2025
X1.4269Y1.3276
X1.4308Y0.6216
X1.4426Y1.0891
X1.4662Y0.977
X1.5016Y1.0123
X1.5016Y0.9416
X1.5235Y1.7586
X1.5369Y1.0477
X1.5369Y0.977
X1.5369Y0.9063
X1.5486Y1.4064
X1.5496Y1.249
X1.5503Y0.1202
X1.5586Y1.53
X1.5596Y1.155
X1.5723Y1.0123
X1.5723Y0.9416
X1.5806Y0.787
X1.5966Y0.648
X1.6016Y1.5272
X1.6023Y1.4023
X1.6076Y0.977
X1.616Y1.1255
X1.6302Y1.63
X1.6436Y1.7875
X1.6686Y2.03
X1.7186Y1.59
X1.7246Y1.066
X1.7486Y1.92
X1.7591Y0.7862
X1.7652Y0.6429
X1.7686Y0.987
X1.7803Y1.6695
X1.7922Y1.4485
X1.8332Y1.6166
X1.9096Y1.902
X1.9165Y0.7075
X1.9186Y1.636
X1.9336Y0.962
X1.9586Y1.41
T4
X0.839Y1.2506
X0.9374Y1.2506
X1.0358Y1.2506
X1.1343Y1.2506
X2.0386Y1.8839
X2.0386Y1.7855
X2.0386Y1.6871
X2.0386Y1.5887
X2.0386Y1.4902
X2.0386Y1.3918
X2.0386Y1.2934
X2.0386Y1.195
X2.0393Y0.9576
X2.0393Y0.8592
X2.0393Y0.7607
X2.0393Y0.6623
T2
G00X0.1648Y2.29
M15
G01X0.1648Y2.3156
M16
G05
G00X0.4404Y2.29
M15
G01X0.4404Y2.3156
M16
G05
T3
G00X0.2101Y2.1965
M15
G01X0.1983Y2.1965
M16
G05
G00X0.407Y2.1965
M15
G01X0.3951Y2.1965
M16
G05
T0
M30
