%TF.GenerationSoftware,KiCad,Pcbnew,(6.0.7)*%
%TF.CreationDate,2023-01-18T18:15:29-06:00*%
%TF.ProjectId,SmartSpin2k,536d6172-7453-4706-996e-326b2e6b6963,2.35*%
%TF.SameCoordinates,Original*%
%TF.FileFunction,Legend,Bot*%
%TF.FilePolarity,Positive*%
%FSLAX46Y46*%
G04 Gerber Fmt 4.6, Leading zero omitted, Abs format (unit mm)*
G04 Created by KiCad (PCBNEW (6.0.7)) date 2023-01-18 18:15:29*
%MOMM*%
%LPD*%
G01*
G04 APERTURE LIST*
G04 Aperture macros list*
%AMRoundRect*
0 Rectangle with rounded corners*
0 $1 Rounding radius*
0 $2 $3 $4 $5 $6 $7 $8 $9 X,Y pos of 4 corners*
0 Add a 4 corners polygon primitive as box body*
4,1,4,$2,$3,$4,$5,$6,$7,$8,$9,$2,$3,0*
0 Add four circle primitives for the rounded corners*
1,1,$1+$1,$2,$3*
1,1,$1+$1,$4,$5*
1,1,$1+$1,$6,$7*
1,1,$1+$1,$8,$9*
0 Add four rect primitives between the rounded corners*
20,1,$1+$1,$2,$3,$4,$5,0*
20,1,$1+$1,$4,$5,$6,$7,0*
20,1,$1+$1,$6,$7,$8,$9,0*
20,1,$1+$1,$8,$9,$2,$3,0*%
G04 Aperture macros list end*
%ADD10C,0.346007*%
%ADD11C,0.120000*%
%ADD12C,0.100000*%
%ADD13C,0.150000*%
%ADD14C,0.900000*%
%ADD15O,1.250000X0.950000*%
%ADD16O,1.000000X1.550000*%
%ADD17C,1.200000*%
%ADD18RoundRect,0.250000X0.725000X-0.600000X0.725000X0.600000X-0.725000X0.600000X-0.725000X-0.600000X0*%
%ADD19O,1.950000X1.700000*%
%ADD20RoundRect,0.250000X0.600000X0.725000X-0.600000X0.725000X-0.600000X-0.725000X0.600000X-0.725000X0*%
%ADD21O,1.700000X1.950000*%
G04 APERTURE END LIST*
D10*
X47356603Y18210800D02*
G75*
G03*
X47356603Y18210800I-173003J0D01*
G01*
X28992403Y29513800D02*
G75*
G03*
X28992403Y29513800I-173003J0D01*
G01*
D11*
X45609841Y24813759D02*
X39245880Y18449798D01*
X32881919Y24813759D01*
X39245880Y31177720D01*
X45609841Y24813759D01*
D10*
X47483003Y33380000D02*
G75*
G03*
X47483003Y33380000I-173003J0D01*
G01*
D11*
X48063195Y24138405D02*
X38163700Y14238910D01*
X28264205Y24138405D01*
X38163700Y34037900D01*
X48063195Y24138405D01*
D12*
X47573809Y21697143D02*
X47459523Y21659048D01*
X47421428Y21620953D01*
X47383333Y21544762D01*
X47383333Y21430477D01*
X47421428Y21354286D01*
X47459523Y21316191D01*
X47535714Y21278096D01*
X47840476Y21278096D01*
X47840476Y22078096D01*
X47573809Y22078096D01*
X47497619Y22040000D01*
X47459523Y22001905D01*
X47421428Y21925715D01*
X47421428Y21849524D01*
X47459523Y21773334D01*
X47497619Y21735239D01*
X47573809Y21697143D01*
X47840476Y21697143D01*
X46621428Y21278096D02*
X47078571Y21278096D01*
X46850000Y21278096D02*
X46850000Y22078096D01*
X46926190Y21963810D01*
X47002380Y21887620D01*
X47078571Y21849524D01*
X47651428Y16446667D02*
X47270476Y16446667D01*
X47727619Y16218096D02*
X47460952Y17018096D01*
X47194285Y16218096D01*
X46508571Y16218096D02*
X46965714Y16218096D01*
X46737142Y16218096D02*
X46737142Y17018096D01*
X46813333Y16903810D01*
X46889523Y16827620D01*
X46965714Y16789524D01*
X47876666Y30628096D02*
X47610000Y29828096D01*
X47343333Y30628096D01*
X47076666Y29828096D02*
X47076666Y30628096D01*
X46886190Y30628096D01*
X46771904Y30590000D01*
X46695714Y30513810D01*
X46657619Y30437620D01*
X46619523Y30285239D01*
X46619523Y30170953D01*
X46657619Y30018572D01*
X46695714Y29942381D01*
X46771904Y29866191D01*
X46886190Y29828096D01*
X47076666Y29828096D01*
X45819523Y29904286D02*
X45857619Y29866191D01*
X45971904Y29828096D01*
X46048095Y29828096D01*
X46162380Y29866191D01*
X46238571Y29942381D01*
X46276666Y30018572D01*
X46314761Y30170953D01*
X46314761Y30285239D01*
X46276666Y30437620D01*
X46238571Y30513810D01*
X46162380Y30590000D01*
X46048095Y30628096D01*
X45971904Y30628096D01*
X45857619Y30590000D01*
X45819523Y30551905D01*
X47525714Y43447144D02*
X47601904Y43485240D01*
X47716190Y43485240D01*
X47830476Y43447144D01*
X47906666Y43370954D01*
X47944761Y43294764D01*
X47982857Y43142383D01*
X47982857Y43028097D01*
X47944761Y42875716D01*
X47906666Y42799525D01*
X47830476Y42723335D01*
X47716190Y42685240D01*
X47640000Y42685240D01*
X47525714Y42723335D01*
X47487619Y42761430D01*
X47487619Y43028097D01*
X47640000Y43028097D01*
X47144761Y42685240D02*
X47144761Y43218573D01*
X47144761Y43066192D02*
X47106666Y43142383D01*
X47068571Y43180478D01*
X46992380Y43218573D01*
X46916190Y43218573D01*
X46535238Y42685240D02*
X46611428Y42723335D01*
X46649523Y42761430D01*
X46687619Y42837621D01*
X46687619Y43066192D01*
X46649523Y43142383D01*
X46611428Y43180478D01*
X46535238Y43218573D01*
X46420952Y43218573D01*
X46344761Y43180478D01*
X46306666Y43142383D01*
X46268571Y43066192D01*
X46268571Y42837621D01*
X46306666Y42761430D01*
X46344761Y42723335D01*
X46420952Y42685240D01*
X46535238Y42685240D01*
X45582857Y43218573D02*
X45582857Y42685240D01*
X45925714Y43218573D02*
X45925714Y42799525D01*
X45887619Y42723335D01*
X45811428Y42685240D01*
X45697142Y42685240D01*
X45620952Y42723335D01*
X45582857Y42761430D01*
X45201904Y43218573D02*
X45201904Y42685240D01*
X45201904Y43142383D02*
X45163809Y43180478D01*
X45087619Y43218573D01*
X44973333Y43218573D01*
X44897142Y43180478D01*
X44859047Y43104287D01*
X44859047Y42685240D01*
X44135238Y42685240D02*
X44135238Y43485240D01*
X44135238Y42723335D02*
X44211428Y42685240D01*
X44363809Y42685240D01*
X44440000Y42723335D01*
X44478095Y42761430D01*
X44516190Y42837621D01*
X44516190Y43066192D01*
X44478095Y43142383D01*
X44440000Y43180478D01*
X44363809Y43218573D01*
X44211428Y43218573D01*
X44135238Y43180478D01*
X24438253Y28038096D02*
X23981110Y28038096D01*
X24209681Y27238096D02*
X24209681Y28038096D01*
X23714443Y27238096D02*
X23714443Y28038096D01*
X23523967Y28038096D01*
X23409681Y28000000D01*
X23333491Y27923810D01*
X23295395Y27847620D01*
X23257300Y27695239D01*
X23257300Y27580953D01*
X23295395Y27428572D01*
X23333491Y27352381D01*
X23409681Y27276191D01*
X23523967Y27238096D01*
X23714443Y27238096D01*
X22762062Y28038096D02*
X22609681Y28038096D01*
X22533491Y28000000D01*
X22457300Y27923810D01*
X22419205Y27771429D01*
X22419205Y27504762D01*
X22457300Y27352381D01*
X22533491Y27276191D01*
X22609681Y27238096D01*
X22762062Y27238096D01*
X22838253Y27276191D01*
X22914443Y27352381D01*
X22952538Y27504762D01*
X22952538Y27771429D01*
X22914443Y27923810D01*
X22838253Y28000000D01*
X22762062Y28038096D01*
X47518095Y47828096D02*
X47784761Y48209048D01*
X47975238Y47828096D02*
X47975238Y48628096D01*
X47670476Y48628096D01*
X47594285Y48590000D01*
X47556190Y48551905D01*
X47518095Y48475715D01*
X47518095Y48361429D01*
X47556190Y48285239D01*
X47594285Y48247143D01*
X47670476Y48209048D01*
X47975238Y48209048D01*
X47213333Y47866191D02*
X47099047Y47828096D01*
X46908571Y47828096D01*
X46832380Y47866191D01*
X46794285Y47904286D01*
X46756190Y47980477D01*
X46756190Y48056667D01*
X46794285Y48132858D01*
X46832380Y48170953D01*
X46908571Y48209048D01*
X47060952Y48247143D01*
X47137142Y48285239D01*
X47175238Y48323334D01*
X47213333Y48399524D01*
X47213333Y48475715D01*
X47175238Y48551905D01*
X47137142Y48590000D01*
X47060952Y48628096D01*
X46870476Y48628096D01*
X46756190Y48590000D01*
X45841904Y48551905D02*
X45803809Y48590000D01*
X45727619Y48628096D01*
X45537142Y48628096D01*
X45460952Y48590000D01*
X45422857Y48551905D01*
X45384761Y48475715D01*
X45384761Y48399524D01*
X45422857Y48285239D01*
X45880000Y47828096D01*
X45384761Y47828096D01*
X45118095Y48628096D02*
X44622857Y48628096D01*
X44889523Y48323334D01*
X44775238Y48323334D01*
X44699047Y48285239D01*
X44660952Y48247143D01*
X44622857Y48170953D01*
X44622857Y47980477D01*
X44660952Y47904286D01*
X44699047Y47866191D01*
X44775238Y47828096D01*
X45003809Y47828096D01*
X45080000Y47866191D01*
X45118095Y47904286D01*
X44318095Y48551905D02*
X44280000Y48590000D01*
X44203809Y48628096D01*
X44013333Y48628096D01*
X43937142Y48590000D01*
X43899047Y48551905D01*
X43860952Y48475715D01*
X43860952Y48399524D01*
X43899047Y48285239D01*
X44356190Y47828096D01*
X43860952Y47828096D01*
X42908571Y47828096D02*
X42908571Y48628096D01*
X42527619Y48361429D02*
X42527619Y47828096D01*
X42527619Y48285239D02*
X42489523Y48323334D01*
X42413333Y48361429D01*
X42299047Y48361429D01*
X42222857Y48323334D01*
X42184761Y48247143D01*
X42184761Y47828096D01*
X47683809Y24227143D02*
X47569523Y24189048D01*
X47531428Y24150953D01*
X47493333Y24074762D01*
X47493333Y23960477D01*
X47531428Y23884286D01*
X47569523Y23846191D01*
X47645714Y23808096D01*
X47950476Y23808096D01*
X47950476Y24608096D01*
X47683809Y24608096D01*
X47607619Y24570000D01*
X47569523Y24531905D01*
X47531428Y24455715D01*
X47531428Y24379524D01*
X47569523Y24303334D01*
X47607619Y24265239D01*
X47683809Y24227143D01*
X47950476Y24227143D01*
X47188571Y24531905D02*
X47150476Y24570000D01*
X47074285Y24608096D01*
X46883809Y24608096D01*
X46807619Y24570000D01*
X46769523Y24531905D01*
X46731428Y24455715D01*
X46731428Y24379524D01*
X46769523Y24265239D01*
X47226666Y23808096D01*
X46731428Y23808096D01*
X47575714Y40875716D02*
X47651904Y40913812D01*
X47766190Y40913812D01*
X47880476Y40875716D01*
X47956666Y40799526D01*
X47994761Y40723336D01*
X48032857Y40570955D01*
X48032857Y40456669D01*
X47994761Y40304288D01*
X47956666Y40228097D01*
X47880476Y40151907D01*
X47766190Y40113812D01*
X47690000Y40113812D01*
X47575714Y40151907D01*
X47537619Y40190002D01*
X47537619Y40456669D01*
X47690000Y40456669D01*
X47194761Y40113812D02*
X47194761Y40647145D01*
X47194761Y40494764D02*
X47156666Y40570955D01*
X47118571Y40609050D01*
X47042380Y40647145D01*
X46966190Y40647145D01*
X46585238Y40113812D02*
X46661428Y40151907D01*
X46699523Y40190002D01*
X46737619Y40266193D01*
X46737619Y40494764D01*
X46699523Y40570955D01*
X46661428Y40609050D01*
X46585238Y40647145D01*
X46470952Y40647145D01*
X46394761Y40609050D01*
X46356666Y40570955D01*
X46318571Y40494764D01*
X46318571Y40266193D01*
X46356666Y40190002D01*
X46394761Y40151907D01*
X46470952Y40113812D01*
X46585238Y40113812D01*
X45632857Y40647145D02*
X45632857Y40113812D01*
X45975714Y40647145D02*
X45975714Y40228097D01*
X45937619Y40151907D01*
X45861428Y40113812D01*
X45747142Y40113812D01*
X45670952Y40151907D01*
X45632857Y40190002D01*
X45251904Y40647145D02*
X45251904Y40113812D01*
X45251904Y40570955D02*
X45213809Y40609050D01*
X45137619Y40647145D01*
X45023333Y40647145D01*
X44947142Y40609050D01*
X44909047Y40532859D01*
X44909047Y40113812D01*
X44185238Y40113812D02*
X44185238Y40913812D01*
X44185238Y40151907D02*
X44261428Y40113812D01*
X44413809Y40113812D01*
X44490000Y40151907D01*
X44528095Y40190002D01*
X44566190Y40266193D01*
X44566190Y40494764D01*
X44528095Y40570955D01*
X44490000Y40609050D01*
X44413809Y40647145D01*
X44261428Y40647145D01*
X44185238Y40609050D01*
X27239364Y28038096D02*
X26782221Y28038096D01*
X27010793Y27238096D02*
X27010793Y28038096D01*
X26058412Y27314286D02*
X26096507Y27276191D01*
X26210793Y27238096D01*
X26286983Y27238096D01*
X26401269Y27276191D01*
X26477459Y27352381D01*
X26515554Y27428572D01*
X26553650Y27580953D01*
X26553650Y27695239D01*
X26515554Y27847620D01*
X26477459Y27923810D01*
X26401269Y28000000D01*
X26286983Y28038096D01*
X26210793Y28038096D01*
X26096507Y28000000D01*
X26058412Y27961905D01*
X25715554Y27238096D02*
X25715554Y28038096D01*
X25258412Y27238096D02*
X25601269Y27695239D01*
X25258412Y28038096D02*
X25715554Y27580953D01*
X30116666Y28038096D02*
X29659523Y28038096D01*
X29888095Y27238096D02*
X29888095Y28038096D01*
X29392857Y27238096D02*
X29392857Y28038096D01*
X29126190Y27466667D01*
X28859523Y28038096D01*
X28859523Y27238096D01*
X28516666Y27276191D02*
X28402380Y27238096D01*
X28211904Y27238096D01*
X28135714Y27276191D01*
X28097619Y27314286D01*
X28059523Y27390477D01*
X28059523Y27466667D01*
X28097619Y27542858D01*
X28135714Y27580953D01*
X28211904Y27619048D01*
X28364285Y27657143D01*
X28440476Y27695239D01*
X28478571Y27733334D01*
X28516666Y27809524D01*
X28516666Y27885715D01*
X28478571Y27961905D01*
X28440476Y28000000D01*
X28364285Y28038096D01*
X28173809Y28038096D01*
X28059523Y28000000D01*
X47995714Y35009051D02*
X47881428Y34970956D01*
X47690952Y34970956D01*
X47614761Y35009051D01*
X47576666Y35047146D01*
X47538571Y35123337D01*
X47538571Y35199527D01*
X47576666Y35275718D01*
X47614761Y35313813D01*
X47690952Y35351908D01*
X47843333Y35390003D01*
X47919523Y35428099D01*
X47957619Y35466194D01*
X47995714Y35542384D01*
X47995714Y35618575D01*
X47957619Y35694765D01*
X47919523Y35732860D01*
X47843333Y35770956D01*
X47652857Y35770956D01*
X47538571Y35732860D01*
X47195714Y34970956D02*
X47195714Y35770956D01*
X46852857Y34970956D02*
X46852857Y35390003D01*
X46890952Y35466194D01*
X46967142Y35504289D01*
X47081428Y35504289D01*
X47157619Y35466194D01*
X47195714Y35428099D01*
X46471904Y34970956D02*
X46471904Y35504289D01*
X46471904Y35770956D02*
X46510000Y35732860D01*
X46471904Y35694765D01*
X46433809Y35732860D01*
X46471904Y35770956D01*
X46471904Y35694765D01*
X46205238Y35504289D02*
X45900476Y35504289D01*
X46090952Y34970956D02*
X46090952Y35656670D01*
X46052857Y35732860D01*
X45976666Y35770956D01*
X45900476Y35770956D01*
X45748095Y35504289D02*
X45443333Y35504289D01*
X45633809Y35770956D02*
X45633809Y35085241D01*
X45595714Y35009051D01*
X45519523Y34970956D01*
X45443333Y34970956D01*
X44567142Y34970956D02*
X44567142Y35770956D01*
X44376666Y35770956D01*
X44262380Y35732860D01*
X44186190Y35656670D01*
X44148095Y35580480D01*
X44110000Y35428099D01*
X44110000Y35313813D01*
X44148095Y35161432D01*
X44186190Y35085241D01*
X44262380Y35009051D01*
X44376666Y34970956D01*
X44567142Y34970956D01*
X43652857Y34970956D02*
X43729047Y35009051D01*
X43767142Y35047146D01*
X43805238Y35123337D01*
X43805238Y35351908D01*
X43767142Y35428099D01*
X43729047Y35466194D01*
X43652857Y35504289D01*
X43538571Y35504289D01*
X43462380Y35466194D01*
X43424285Y35428099D01*
X43386190Y35351908D01*
X43386190Y35123337D01*
X43424285Y35047146D01*
X43462380Y35009051D01*
X43538571Y34970956D01*
X43652857Y34970956D01*
X43119523Y35504289D02*
X42967142Y34970956D01*
X42814761Y35351908D01*
X42662380Y34970956D01*
X42510000Y35504289D01*
X42205238Y35504289D02*
X42205238Y34970956D01*
X42205238Y35428099D02*
X42167142Y35466194D01*
X42090952Y35504289D01*
X41976666Y35504289D01*
X41900476Y35466194D01*
X41862380Y35390003D01*
X41862380Y34970956D01*
X47821428Y18976667D02*
X47440476Y18976667D01*
X47897619Y18748096D02*
X47630952Y19548096D01*
X47364285Y18748096D01*
X47135714Y19471905D02*
X47097619Y19510000D01*
X47021428Y19548096D01*
X46830952Y19548096D01*
X46754761Y19510000D01*
X46716666Y19471905D01*
X46678571Y19395715D01*
X46678571Y19319524D01*
X46716666Y19205239D01*
X47173809Y18748096D01*
X46678571Y18748096D01*
X47600476Y45256668D02*
X47867142Y45637620D01*
X48057619Y45256668D02*
X48057619Y46056668D01*
X47752857Y46056668D01*
X47676666Y46018572D01*
X47638571Y45980477D01*
X47600476Y45904287D01*
X47600476Y45790001D01*
X47638571Y45713811D01*
X47676666Y45675715D01*
X47752857Y45637620D01*
X48057619Y45637620D01*
X47295714Y45294763D02*
X47181428Y45256668D01*
X46990952Y45256668D01*
X46914761Y45294763D01*
X46876666Y45332858D01*
X46838571Y45409049D01*
X46838571Y45485239D01*
X46876666Y45561430D01*
X46914761Y45599525D01*
X46990952Y45637620D01*
X47143333Y45675715D01*
X47219523Y45713811D01*
X47257619Y45751906D01*
X47295714Y45828096D01*
X47295714Y45904287D01*
X47257619Y45980477D01*
X47219523Y46018572D01*
X47143333Y46056668D01*
X46952857Y46056668D01*
X46838571Y46018572D01*
X46533809Y45980477D02*
X46495714Y46018572D01*
X46419523Y46056668D01*
X46229047Y46056668D01*
X46152857Y46018572D01*
X46114761Y45980477D01*
X46076666Y45904287D01*
X46076666Y45828096D01*
X46114761Y45713811D01*
X46571904Y45256668D01*
X46076666Y45256668D01*
X45810000Y46056668D02*
X45314761Y46056668D01*
X45581428Y45751906D01*
X45467142Y45751906D01*
X45390952Y45713811D01*
X45352857Y45675715D01*
X45314761Y45599525D01*
X45314761Y45409049D01*
X45352857Y45332858D01*
X45390952Y45294763D01*
X45467142Y45256668D01*
X45695714Y45256668D01*
X45771904Y45294763D01*
X45810000Y45332858D01*
X45010000Y45980477D02*
X44971904Y46018572D01*
X44895714Y46056668D01*
X44705238Y46056668D01*
X44629047Y46018572D01*
X44590952Y45980477D01*
X44552857Y45904287D01*
X44552857Y45828096D01*
X44590952Y45713811D01*
X45048095Y45256668D01*
X44552857Y45256668D01*
X43448095Y46056668D02*
X43295714Y46056668D01*
X43219523Y46018572D01*
X43143333Y45942382D01*
X43105238Y45790001D01*
X43105238Y45523334D01*
X43143333Y45370953D01*
X43219523Y45294763D01*
X43295714Y45256668D01*
X43448095Y45256668D01*
X43524285Y45294763D01*
X43600476Y45370953D01*
X43638571Y45523334D01*
X43638571Y45790001D01*
X43600476Y45942382D01*
X43524285Y46018572D01*
X43448095Y46056668D01*
X42419523Y45790001D02*
X42419523Y45256668D01*
X42762380Y45790001D02*
X42762380Y45370953D01*
X42724285Y45294763D01*
X42648095Y45256668D01*
X42533809Y45256668D01*
X42457619Y45294763D01*
X42419523Y45332858D01*
X42152857Y45790001D02*
X41848095Y45790001D01*
X42038571Y46056668D02*
X42038571Y45370953D01*
X42000476Y45294763D01*
X41924285Y45256668D01*
X41848095Y45256668D01*
X29063333Y35748096D02*
X29063333Y35176667D01*
X29101428Y35062381D01*
X29177619Y34986191D01*
X29291904Y34948096D01*
X29368095Y34948096D01*
X28796666Y35748096D02*
X28339523Y35748096D01*
X28568095Y34948096D02*
X28568095Y35748096D01*
X28110952Y35176667D02*
X27730000Y35176667D01*
X28187142Y34948096D02*
X27920476Y35748096D01*
X27653809Y34948096D01*
X26968095Y35710000D02*
X27044285Y35748096D01*
X27158571Y35748096D01*
X27272857Y35710000D01*
X27349047Y35633810D01*
X27387142Y35557620D01*
X27425238Y35405239D01*
X27425238Y35290953D01*
X27387142Y35138572D01*
X27349047Y35062381D01*
X27272857Y34986191D01*
X27158571Y34948096D01*
X27082380Y34948096D01*
X26968095Y34986191D01*
X26930000Y35024286D01*
X26930000Y35290953D01*
X27082380Y35290953D01*
X21599047Y28038096D02*
X21141904Y28038096D01*
X21370476Y27238096D02*
X21370476Y28038096D01*
X20875238Y27238096D02*
X20875238Y28038096D01*
X20684761Y28038096D01*
X20570476Y28000000D01*
X20494285Y27923810D01*
X20456190Y27847620D01*
X20418095Y27695239D01*
X20418095Y27580953D01*
X20456190Y27428572D01*
X20494285Y27352381D01*
X20570476Y27276191D01*
X20684761Y27238096D01*
X20875238Y27238096D01*
X20075238Y27238096D02*
X20075238Y28038096D01*
D13*
X22803333Y1702381D02*
X22803333Y702381D01*
X23041428Y702381D01*
X23184285Y750000D01*
X23279523Y845239D01*
X23327142Y940477D01*
X23374761Y1130953D01*
X23374761Y1273810D01*
X23327142Y1464286D01*
X23279523Y1559524D01*
X23184285Y1654762D01*
X23041428Y1702381D01*
X22803333Y1702381D01*
X24184285Y1654762D02*
X24089047Y1702381D01*
X23898571Y1702381D01*
X23803333Y1654762D01*
X23755714Y1559524D01*
X23755714Y1178572D01*
X23803333Y1083334D01*
X23898571Y1035715D01*
X24089047Y1035715D01*
X24184285Y1083334D01*
X24231904Y1178572D01*
X24231904Y1273810D01*
X23755714Y1369048D01*
X24612857Y1654762D02*
X24708095Y1702381D01*
X24898571Y1702381D01*
X24993809Y1654762D01*
X25041428Y1559524D01*
X25041428Y1511905D01*
X24993809Y1416667D01*
X24898571Y1369048D01*
X24755714Y1369048D01*
X24660476Y1321429D01*
X24612857Y1226191D01*
X24612857Y1178572D01*
X24660476Y1083334D01*
X24755714Y1035715D01*
X24898571Y1035715D01*
X24993809Y1083334D01*
X25470000Y1702381D02*
X25470000Y1035715D01*
X25470000Y702381D02*
X25422380Y750000D01*
X25470000Y797620D01*
X25517619Y750000D01*
X25470000Y702381D01*
X25470000Y797620D01*
X26374761Y1035715D02*
X26374761Y1845239D01*
X26327142Y1940477D01*
X26279523Y1988096D01*
X26184285Y2035715D01*
X26041428Y2035715D01*
X25946190Y1988096D01*
X26374761Y1654762D02*
X26279523Y1702381D01*
X26089047Y1702381D01*
X25993809Y1654762D01*
X25946190Y1607143D01*
X25898571Y1511905D01*
X25898571Y1226191D01*
X25946190Y1130953D01*
X25993809Y1083334D01*
X26089047Y1035715D01*
X26279523Y1035715D01*
X26374761Y1083334D01*
X26850952Y1035715D02*
X26850952Y1702381D01*
X26850952Y1130953D02*
X26898571Y1083334D01*
X26993809Y1035715D01*
X27136666Y1035715D01*
X27231904Y1083334D01*
X27279523Y1178572D01*
X27279523Y1702381D01*
X28136666Y1654762D02*
X28041428Y1702381D01*
X27850952Y1702381D01*
X27755714Y1654762D01*
X27708095Y1559524D01*
X27708095Y1178572D01*
X27755714Y1083334D01*
X27850952Y1035715D01*
X28041428Y1035715D01*
X28136666Y1083334D01*
X28184285Y1178572D01*
X28184285Y1273810D01*
X27708095Y1369048D01*
X29041428Y1702381D02*
X29041428Y702381D01*
X29041428Y1654762D02*
X28946190Y1702381D01*
X28755714Y1702381D01*
X28660476Y1654762D01*
X28612857Y1607143D01*
X28565238Y1511905D01*
X28565238Y1226191D01*
X28612857Y1130953D01*
X28660476Y1083334D01*
X28755714Y1035715D01*
X28946190Y1035715D01*
X29041428Y1083334D01*
X30612857Y1178572D02*
X30755714Y1226191D01*
X30803333Y1273810D01*
X30850952Y1369048D01*
X30850952Y1511905D01*
X30803333Y1607143D01*
X30755714Y1654762D01*
X30660476Y1702381D01*
X30279523Y1702381D01*
X30279523Y702381D01*
X30612857Y702381D01*
X30708095Y750000D01*
X30755714Y797620D01*
X30803333Y892858D01*
X30803333Y988096D01*
X30755714Y1083334D01*
X30708095Y1130953D01*
X30612857Y1178572D01*
X30279523Y1178572D01*
X31184285Y1035715D02*
X31422380Y1702381D01*
X31660476Y1035715D02*
X31422380Y1702381D01*
X31327142Y1940477D01*
X31279523Y1988096D01*
X31184285Y2035715D01*
X32755714Y1416667D02*
X33231904Y1416667D01*
X32660476Y1702381D02*
X32993809Y702381D01*
X33327142Y1702381D01*
X34231904Y1607143D02*
X34184285Y1654762D01*
X34041428Y1702381D01*
X33946190Y1702381D01*
X33803333Y1654762D01*
X33708095Y1559524D01*
X33660476Y1464286D01*
X33612857Y1273810D01*
X33612857Y1130953D01*
X33660476Y940477D01*
X33708095Y845239D01*
X33803333Y750000D01*
X33946190Y702381D01*
X34041428Y702381D01*
X34184285Y750000D01*
X34231904Y797620D01*
X34660476Y1178572D02*
X34993809Y1178572D01*
X35136666Y1702381D02*
X34660476Y1702381D01*
X34660476Y702381D01*
X35136666Y702381D01*
X36231904Y1797620D02*
X36136666Y1750000D01*
X36041428Y1654762D01*
X35898571Y1511905D01*
X35803333Y1464286D01*
X35708095Y1464286D01*
X35755714Y1702381D02*
X35660476Y1654762D01*
X35565238Y1559524D01*
X35517619Y1369048D01*
X35517619Y1035715D01*
X35565238Y845239D01*
X35660476Y750000D01*
X35755714Y702381D01*
X35946190Y702381D01*
X36041428Y750000D01*
X36136666Y845239D01*
X36184285Y1035715D01*
X36184285Y1369048D01*
X36136666Y1559524D01*
X36041428Y1654762D01*
X35946190Y1702381D01*
X35755714Y1702381D01*
D12*
X48163809Y37580479D02*
X48049523Y37542384D01*
X47859047Y37542384D01*
X47782857Y37580479D01*
X47744761Y37618574D01*
X47706666Y37694765D01*
X47706666Y37770955D01*
X47744761Y37847146D01*
X47782857Y37885241D01*
X47859047Y37923336D01*
X48011428Y37961431D01*
X48087619Y37999527D01*
X48125714Y38037622D01*
X48163809Y38113812D01*
X48163809Y38190003D01*
X48125714Y38266193D01*
X48087619Y38304288D01*
X48011428Y38342384D01*
X47820952Y38342384D01*
X47706666Y38304288D01*
X47363809Y37542384D02*
X47363809Y38342384D01*
X47020952Y37542384D02*
X47020952Y37961431D01*
X47059047Y38037622D01*
X47135238Y38075717D01*
X47249523Y38075717D01*
X47325714Y38037622D01*
X47363809Y37999527D01*
X46640000Y37542384D02*
X46640000Y38075717D01*
X46640000Y38342384D02*
X46678095Y38304288D01*
X46640000Y38266193D01*
X46601904Y38304288D01*
X46640000Y38342384D01*
X46640000Y38266193D01*
X46373333Y38075717D02*
X46068571Y38075717D01*
X46259047Y37542384D02*
X46259047Y38228098D01*
X46220952Y38304288D01*
X46144761Y38342384D01*
X46068571Y38342384D01*
X45916190Y38075717D02*
X45611428Y38075717D01*
X45801904Y38342384D02*
X45801904Y37656669D01*
X45763809Y37580479D01*
X45687619Y37542384D01*
X45611428Y37542384D01*
X44735238Y38342384D02*
X44735238Y37694765D01*
X44697142Y37618574D01*
X44659047Y37580479D01*
X44582857Y37542384D01*
X44430476Y37542384D01*
X44354285Y37580479D01*
X44316190Y37618574D01*
X44278095Y37694765D01*
X44278095Y38342384D01*
X43897142Y38075717D02*
X43897142Y37275717D01*
X43897142Y38037622D02*
X43820952Y38075717D01*
X43668571Y38075717D01*
X43592380Y38037622D01*
X43554285Y37999527D01*
X43516190Y37923336D01*
X43516190Y37694765D01*
X43554285Y37618574D01*
X43592380Y37580479D01*
X43668571Y37542384D01*
X43820952Y37542384D01*
X43897142Y37580479D01*
X47419523Y33161432D02*
X47495714Y33199528D01*
X47610000Y33199528D01*
X47724285Y33161432D01*
X47800476Y33085242D01*
X47838571Y33009052D01*
X47876666Y32856671D01*
X47876666Y32742385D01*
X47838571Y32590004D01*
X47800476Y32513813D01*
X47724285Y32437623D01*
X47610000Y32399528D01*
X47533809Y32399528D01*
X47419523Y32437623D01*
X47381428Y32475718D01*
X47381428Y32742385D01*
X47533809Y32742385D01*
X47038571Y32399528D02*
X47038571Y33199528D01*
X46581428Y32399528D01*
X46581428Y33199528D01*
X46200476Y32399528D02*
X46200476Y33199528D01*
X46010000Y33199528D01*
X45895714Y33161432D01*
X45819523Y33085242D01*
X45781428Y33009052D01*
X45743333Y32856671D01*
X45743333Y32742385D01*
X45781428Y32590004D01*
X45819523Y32513813D01*
X45895714Y32437623D01*
X46010000Y32399528D01*
X46200476Y32399528D01*
D13*
X7430723Y486420D02*
X7764057Y962610D01*
X8002152Y486420D02*
X8002152Y1486420D01*
X7621200Y1486420D01*
X7525961Y1438800D01*
X7478342Y1391181D01*
X7430723Y1295943D01*
X7430723Y1153086D01*
X7478342Y1057848D01*
X7525961Y1010229D01*
X7621200Y962610D01*
X8002152Y962610D01*
X6621200Y534039D02*
X6716438Y486420D01*
X6906914Y486420D01*
X7002152Y534039D01*
X7049771Y629277D01*
X7049771Y1010229D01*
X7002152Y1105467D01*
X6906914Y1153086D01*
X6716438Y1153086D01*
X6621200Y1105467D01*
X6573580Y1010229D01*
X6573580Y914991D01*
X7049771Y819753D01*
X6240247Y1153086D02*
X6002152Y486420D01*
X5764057Y1153086D01*
X5383104Y581658D02*
X5335485Y534039D01*
X5383104Y486420D01*
X5430723Y534039D01*
X5383104Y581658D01*
X5383104Y486420D01*
X4192628Y1391181D02*
X4145009Y1438800D01*
X4049771Y1486420D01*
X3811676Y1486420D01*
X3716438Y1438800D01*
X3668819Y1391181D01*
X3621200Y1295943D01*
X3621200Y1200705D01*
X3668819Y1057848D01*
X4240247Y486420D01*
X3621200Y486420D01*
X3192628Y581658D02*
X3145009Y534039D01*
X3192628Y486420D01*
X3240247Y534039D01*
X3192628Y581658D01*
X3192628Y486420D01*
X2287866Y1153086D02*
X2287866Y486420D01*
X2525961Y1534039D02*
X2764057Y819753D01*
X2145009Y819753D01*
%TO.C,J1*%
X54800380Y20906334D02*
X55514666Y20906334D01*
X55657523Y20953953D01*
X55752761Y21049191D01*
X55800380Y21192048D01*
X55800380Y21287286D01*
X55800380Y19906334D02*
X55800380Y20477762D01*
X55800380Y20192048D02*
X54800380Y20192048D01*
X54943238Y20287286D01*
X55038476Y20382524D01*
X55086095Y20477762D01*
%TO.C,J3*%
X54588380Y39345334D02*
X55302666Y39345334D01*
X55445523Y39392953D01*
X55540761Y39488191D01*
X55588380Y39631048D01*
X55588380Y39726286D01*
X54588380Y38964381D02*
X54588380Y38345334D01*
X54969333Y38678667D01*
X54969333Y38535810D01*
X55016952Y38440572D01*
X55064571Y38392953D01*
X55159809Y38345334D01*
X55397904Y38345334D01*
X55493142Y38392953D01*
X55540761Y38440572D01*
X55588380Y38535810D01*
X55588380Y38821524D01*
X55540761Y38916762D01*
X55493142Y38964381D01*
%TO.C,J2*%
X25393333Y35862620D02*
X25393333Y35148334D01*
X25440952Y35005477D01*
X25536190Y34910239D01*
X25679047Y34862620D01*
X25774285Y34862620D01*
X24964761Y35767381D02*
X24917142Y35815000D01*
X24821904Y35862620D01*
X24583809Y35862620D01*
X24488571Y35815000D01*
X24440952Y35767381D01*
X24393333Y35672143D01*
X24393333Y35576905D01*
X24440952Y35434048D01*
X25012380Y34862620D01*
X24393333Y34862620D01*
%TO.C,G\u002A\u002A\u002A*%
G36*
X25827235Y57279616D02*
G01*
X25835774Y56729567D01*
X25270794Y56729440D01*
X24705815Y56729312D01*
X24714842Y57002281D01*
X24723869Y57275249D01*
X25286923Y57293025D01*
X25281138Y57557844D01*
X25279667Y57641430D01*
X25280917Y57739162D01*
X25289018Y57794030D01*
X25306496Y57818340D01*
X25335879Y57824401D01*
X25390921Y57825452D01*
X25489943Y57826742D01*
X25607551Y57827902D01*
X25818697Y57829666D01*
X25827235Y57279616D01*
G37*
G36*
X35030889Y55570447D02*
G01*
X35030889Y56133501D01*
X35593943Y56133501D01*
X38440495Y56133501D01*
X38440495Y58980052D01*
X35593943Y58980052D01*
X35593943Y56133501D01*
X35030889Y56133501D01*
X35030889Y59574387D01*
X39034830Y59574387D01*
X39034830Y55570447D01*
X35030889Y55570447D01*
G37*
G36*
X27554781Y54411646D02*
G01*
X27554781Y53818722D01*
X28712170Y53818722D01*
X28712170Y53255668D01*
X29277660Y53255668D01*
X29268622Y52981961D01*
X29259583Y52708254D01*
X28703081Y52699576D01*
X28709736Y52422885D01*
X28711366Y52365975D01*
X28716466Y52250866D01*
X28722679Y52168417D01*
X28729007Y52133576D01*
X28729016Y52133567D01*
X28762540Y52130098D01*
X28850347Y52126733D01*
X28984183Y52123628D01*
X29155791Y52120939D01*
X29356915Y52118824D01*
X29579298Y52117439D01*
X30416973Y52113919D01*
X30417775Y52020077D01*
X30420983Y51644708D01*
X30421250Y51613427D01*
X30421740Y51556079D01*
X30422319Y51488304D01*
X30424257Y51261518D01*
X30424992Y51175496D01*
X30425527Y51112934D01*
X30426596Y50987811D01*
X30428467Y50768846D01*
X30431540Y50409116D01*
X29838278Y50409116D01*
X29838278Y49846062D01*
X29306505Y49846062D01*
X29306505Y50393476D01*
X29681874Y50393476D01*
X29697515Y50377836D01*
X29713155Y50393476D01*
X29697515Y50409116D01*
X29681874Y50393476D01*
X29306505Y50393476D01*
X29306505Y50768846D01*
X29838278Y50768846D01*
X29853918Y50753205D01*
X29869559Y50768846D01*
X29853918Y50784486D01*
X29838278Y50768846D01*
X29306505Y50768846D01*
X29306505Y50987811D01*
X29369066Y50987811D01*
X29384707Y50972171D01*
X29400347Y50987811D01*
X29744436Y50987811D01*
X29760076Y50972171D01*
X29775716Y50987811D01*
X29900840Y50987811D01*
X29916480Y50972171D01*
X29932120Y50987811D01*
X30338771Y50987811D01*
X30354411Y50972171D01*
X30370051Y50987811D01*
X30354411Y51003451D01*
X30338771Y50987811D01*
X29932120Y50987811D01*
X29916480Y51003451D01*
X29900840Y50987811D01*
X29775716Y50987811D01*
X29760076Y51003451D01*
X29744436Y50987811D01*
X29400347Y50987811D01*
X29384707Y51003451D01*
X29369066Y50987811D01*
X29306505Y50987811D01*
X29306505Y51112934D01*
X29838278Y51112934D01*
X29853918Y51097294D01*
X29869559Y51112934D01*
X29853918Y51128575D01*
X29838278Y51112934D01*
X29306505Y51112934D01*
X29306505Y51175496D01*
X29838278Y51175496D01*
X29853918Y51159855D01*
X29869559Y51175496D01*
X29853918Y51191136D01*
X29838278Y51175496D01*
X29306505Y51175496D01*
X29306505Y51488304D01*
X29838278Y51488304D01*
X29853918Y51472663D01*
X29869559Y51488304D01*
X29853918Y51503944D01*
X29838278Y51488304D01*
X29306505Y51488304D01*
X29306505Y51550865D01*
X29681874Y51550865D01*
X29697515Y51535225D01*
X29713155Y51550865D01*
X29744436Y51550865D01*
X29760076Y51535225D01*
X29771521Y51546670D01*
X29843811Y51546670D01*
X29869559Y51535225D01*
X29886119Y51537482D01*
X29888240Y51546670D01*
X30219181Y51546670D01*
X30244928Y51535225D01*
X30261488Y51537482D01*
X30265782Y51556079D01*
X30261197Y51559822D01*
X30224074Y51556079D01*
X30219181Y51546670D01*
X29888240Y51546670D01*
X29890413Y51556079D01*
X29885828Y51559822D01*
X29848705Y51556079D01*
X29845993Y51550865D01*
X29843811Y51546670D01*
X29771521Y51546670D01*
X29775716Y51550865D01*
X29760076Y51566506D01*
X29744436Y51550865D01*
X29713155Y51550865D01*
X29697515Y51566506D01*
X29681874Y51550865D01*
X29306505Y51550865D01*
X29306505Y51566506D01*
X28712170Y51566506D01*
X28712170Y51613427D01*
X29838278Y51613427D01*
X29853918Y51597786D01*
X29869559Y51613427D01*
X29853918Y51629067D01*
X29838278Y51613427D01*
X28712170Y51613427D01*
X28712170Y51644708D01*
X29275224Y51644708D01*
X29290864Y51629067D01*
X29306505Y51644708D01*
X29290864Y51660348D01*
X29275224Y51644708D01*
X28712170Y51644708D01*
X28712170Y52020077D01*
X29838278Y52020077D01*
X29853918Y52004437D01*
X29869559Y52020077D01*
X29853918Y52035717D01*
X29838278Y52020077D01*
X28712170Y52020077D01*
X28712170Y52129560D01*
X28149115Y52129560D01*
X28149115Y51566506D01*
X27583626Y51566506D01*
X27592664Y51840213D01*
X27601702Y52113919D01*
X27836308Y52118928D01*
X27851496Y52119257D01*
X27968761Y52122069D01*
X28061225Y52124746D01*
X28110015Y52126749D01*
X28116043Y52129324D01*
X28129090Y52158207D01*
X28138493Y52224182D01*
X28144679Y52333608D01*
X28148078Y52492845D01*
X28149115Y52708254D01*
X28149115Y53286949D01*
X27554781Y53286949D01*
X27554781Y52694577D01*
X26999547Y52701416D01*
X26444313Y52708254D01*
X26444313Y53271309D01*
X26491234Y53271309D01*
X26506874Y53255668D01*
X26522515Y53271309D01*
X26991726Y53271309D01*
X27007367Y53255668D01*
X27023007Y53271309D01*
X27007367Y53286949D01*
X26991726Y53271309D01*
X26522515Y53271309D01*
X26506874Y53286949D01*
X26491234Y53271309D01*
X26444313Y53271309D01*
X26444313Y53333870D01*
X27554781Y53333870D01*
X27570421Y53318230D01*
X27586061Y53333870D01*
X27570421Y53349511D01*
X27554781Y53333870D01*
X26444313Y53333870D01*
X26444313Y53396432D01*
X27554781Y53396432D01*
X27570421Y53380791D01*
X27586061Y53396432D01*
X27570421Y53412072D01*
X27554781Y53396432D01*
X26444313Y53396432D01*
X26444313Y53427713D01*
X26991726Y53427713D01*
X27007367Y53412072D01*
X27023007Y53427713D01*
X27007367Y53443353D01*
X26991726Y53427713D01*
X26444313Y53427713D01*
X26444313Y53458993D01*
X27554781Y53458993D01*
X27570421Y53443353D01*
X27586061Y53458993D01*
X27570421Y53474634D01*
X27554781Y53458993D01*
X26444313Y53458993D01*
X26444313Y53771801D01*
X27554781Y53771801D01*
X27570421Y53756161D01*
X27586061Y53771801D01*
X27570421Y53787442D01*
X27554781Y53771801D01*
X26444313Y53771801D01*
X26444313Y53850042D01*
X26154965Y53850023D01*
X25865618Y53850003D01*
X25865618Y53959486D01*
X26991726Y53959486D01*
X27007367Y53943846D01*
X27023007Y53959486D01*
X27007367Y53975126D01*
X26991726Y53959486D01*
X25865618Y53959486D01*
X25865618Y54241013D01*
X26991726Y54241013D01*
X27007367Y54225373D01*
X27023007Y54241013D01*
X27007367Y54256653D01*
X26991726Y54241013D01*
X25865618Y54241013D01*
X25865618Y54334855D01*
X26397391Y54334855D01*
X26413032Y54319215D01*
X26428672Y54334855D01*
X26413032Y54350496D01*
X26397391Y54334855D01*
X25865618Y54334855D01*
X25865618Y54410788D01*
X26419832Y54410586D01*
X26593486Y54409683D01*
X26769923Y54405801D01*
X26892786Y54398551D01*
X26967139Y54387601D01*
X26998048Y54372619D01*
X27005874Y54377952D01*
X27014353Y54432064D01*
X27016043Y54459979D01*
X27554781Y54459979D01*
X27570421Y54444338D01*
X27586061Y54459979D01*
X27570421Y54475619D01*
X27554781Y54459979D01*
X27016043Y54459979D01*
X27020221Y54529006D01*
X27022528Y54657703D01*
X27022884Y54897910D01*
X27554781Y54897910D01*
X27570421Y54882269D01*
X27586061Y54897910D01*
X27570421Y54913550D01*
X27554781Y54897910D01*
X27022884Y54897910D01*
X27023007Y54980551D01*
X27586205Y54960471D01*
X27586197Y54991752D01*
X28023992Y54991752D01*
X28039633Y54976112D01*
X28055273Y54991752D01*
X28086554Y54991752D01*
X28102194Y54976112D01*
X28117835Y54991752D01*
X28102194Y55007392D01*
X28086554Y54991752D01*
X28055273Y54991752D01*
X28039633Y55007392D01*
X28023992Y54991752D01*
X27586197Y54991752D01*
X27586133Y55249818D01*
X27586061Y55539166D01*
X28149115Y55539166D01*
X28149115Y56133501D01*
X28713126Y56133501D01*
X28704828Y55281099D01*
X28702011Y54991752D01*
X28701097Y54897910D01*
X28696834Y54459979D01*
X28696529Y54428698D01*
X27554781Y54411646D01*
G37*
G36*
X36745732Y53537123D02*
G01*
X36735692Y53255525D01*
X37017219Y53255668D01*
X37298746Y53255812D01*
X37288657Y52972333D01*
X37278569Y52688855D01*
X37010202Y52695309D01*
X36741836Y52701763D01*
X36748566Y52447162D01*
X36749293Y52412699D01*
X36748870Y52294944D01*
X36744126Y52205339D01*
X36735827Y52161060D01*
X36728797Y52155765D01*
X36672507Y52142381D01*
X36575062Y52133059D01*
X36452319Y52129560D01*
X36188278Y52129560D01*
X36188310Y52708254D01*
X35906767Y52697322D01*
X35625224Y52686389D01*
X35625224Y53255668D01*
X35914571Y53255596D01*
X36203918Y53255525D01*
X36193878Y53537123D01*
X36183838Y53818722D01*
X36755772Y53818722D01*
X36745732Y53537123D01*
G37*
G36*
X37293600Y46827466D02*
G01*
X37293724Y46452097D01*
X37293743Y46394749D01*
X37293765Y46326974D01*
X37293796Y46233131D01*
X37293931Y45826481D01*
X37293936Y45810841D01*
X37877441Y45810841D01*
X37877441Y45247786D01*
X37278666Y45247786D01*
X37288706Y44966188D01*
X37298746Y44684589D01*
X37017219Y44684680D01*
X36735692Y44684770D01*
X36741268Y44403224D01*
X36746843Y44121678D01*
X36190009Y44121678D01*
X36189882Y44686933D01*
X36189754Y45252188D01*
X36751476Y45232146D01*
X36751404Y45518887D01*
X36751971Y45576892D01*
X36757646Y45697703D01*
X36768325Y45781709D01*
X36782656Y45816054D01*
X36783337Y45816369D01*
X36758236Y45819105D01*
X36680370Y45820735D01*
X36558681Y45821219D01*
X36402111Y45820515D01*
X36219602Y45818585D01*
X35625224Y45810689D01*
X35625225Y45826481D01*
X36845175Y45826481D01*
X36860815Y45810841D01*
X36876455Y45826481D01*
X36907736Y45826481D01*
X36923377Y45810841D01*
X36939017Y45826481D01*
X37220544Y45826481D01*
X37236184Y45810841D01*
X37251825Y45826481D01*
X37236184Y45842121D01*
X37220544Y45826481D01*
X36939017Y45826481D01*
X36923377Y45842121D01*
X36907736Y45826481D01*
X36876455Y45826481D01*
X36860815Y45842121D01*
X36845175Y45826481D01*
X35625225Y45826481D01*
X35625251Y46100112D01*
X35625263Y46233131D01*
X36156997Y46233131D01*
X36172638Y46217491D01*
X36188278Y46233131D01*
X36172638Y46248772D01*
X36156997Y46233131D01*
X35625263Y46233131D01*
X35625271Y46326974D01*
X36156997Y46326974D01*
X36172638Y46311333D01*
X36188278Y46326974D01*
X36172638Y46342614D01*
X36156997Y46326974D01*
X35625271Y46326974D01*
X35625277Y46389535D01*
X35656505Y46389535D01*
X35672145Y46373895D01*
X35683590Y46385340D01*
X35974846Y46385340D01*
X36000593Y46373895D01*
X36017153Y46376152D01*
X36020243Y46389535D01*
X36063155Y46389535D01*
X36078795Y46373895D01*
X36090241Y46385340D01*
X36162530Y46385340D01*
X36188278Y46373895D01*
X36204838Y46376152D01*
X36207928Y46389535D01*
X36344682Y46389535D01*
X36360322Y46373895D01*
X36371768Y46385340D01*
X36725585Y46385340D01*
X36751332Y46373895D01*
X36767892Y46376152D01*
X36772186Y46394749D01*
X36767601Y46398492D01*
X36730478Y46394749D01*
X36727767Y46389535D01*
X36725585Y46385340D01*
X36371768Y46385340D01*
X36375963Y46389535D01*
X36360322Y46405176D01*
X36349896Y46394749D01*
X36344682Y46389535D01*
X36207928Y46389535D01*
X36209132Y46394749D01*
X36204547Y46398492D01*
X36167424Y46394749D01*
X36164712Y46389535D01*
X36162530Y46385340D01*
X36090241Y46385340D01*
X36094436Y46389535D01*
X36078795Y46405176D01*
X36068369Y46394749D01*
X36063155Y46389535D01*
X36020243Y46389535D01*
X36021447Y46394749D01*
X36016862Y46398492D01*
X35979739Y46394749D01*
X35977028Y46389535D01*
X35974846Y46385340D01*
X35683590Y46385340D01*
X35687785Y46389535D01*
X35672145Y46405176D01*
X35656505Y46389535D01*
X35625277Y46389535D01*
X35328083Y46382762D01*
X35030889Y46375988D01*
X35030889Y46452097D01*
X36156997Y46452097D01*
X36172638Y46436456D01*
X36188278Y46452097D01*
X36172638Y46467737D01*
X36156997Y46452097D01*
X35030889Y46452097D01*
X35030889Y46827466D01*
X36156997Y46827466D01*
X36172638Y46811826D01*
X36188278Y46827466D01*
X36172638Y46843107D01*
X36156997Y46827466D01*
X35030889Y46827466D01*
X35030889Y46890028D01*
X36156997Y46890028D01*
X36172638Y46874387D01*
X36188278Y46890028D01*
X36720051Y46890028D01*
X36735692Y46874387D01*
X36751332Y46890028D01*
X36735692Y46905668D01*
X36720051Y46890028D01*
X36188278Y46890028D01*
X36172638Y46905668D01*
X36156997Y46890028D01*
X35030889Y46890028D01*
X35030889Y46973111D01*
X35617404Y46954340D01*
X36203918Y46935569D01*
X36203675Y46952589D01*
X36782613Y46952589D01*
X36798253Y46936949D01*
X36813894Y46952589D01*
X37220544Y46952589D01*
X37236184Y46936949D01*
X37251825Y46952589D01*
X37236184Y46968230D01*
X37220544Y46952589D01*
X36813894Y46952589D01*
X36798253Y46968230D01*
X36782613Y46952589D01*
X36203675Y46952589D01*
X36202338Y47046432D01*
X36720051Y47046432D01*
X36735692Y47030791D01*
X36751332Y47046432D01*
X36735692Y47062072D01*
X36720051Y47046432D01*
X36202338Y47046432D01*
X36195204Y47546924D01*
X36250840Y47546924D01*
X36266480Y47531284D01*
X36282120Y47546924D01*
X36720051Y47546924D01*
X36735692Y47531284D01*
X36751332Y47546924D01*
X36907736Y47546924D01*
X36923377Y47531284D01*
X36939017Y47546924D01*
X36923377Y47562565D01*
X36907736Y47546924D01*
X36751332Y47546924D01*
X36735692Y47562565D01*
X36720051Y47546924D01*
X36282120Y47546924D01*
X36266480Y47562565D01*
X36250840Y47546924D01*
X36195204Y47546924D01*
X36194312Y47609486D01*
X36720051Y47609486D01*
X36735692Y47593846D01*
X36751332Y47609486D01*
X36735692Y47625126D01*
X36720051Y47609486D01*
X36194312Y47609486D01*
X36187380Y48095785D01*
X36740493Y48087242D01*
X37293607Y48078698D01*
X37287967Y47609486D01*
X37287215Y47546924D01*
X37287027Y47531284D01*
X37893081Y47531140D01*
X37892518Y47546924D01*
X38346652Y47546924D01*
X38362293Y47531284D01*
X38373738Y47542729D01*
X38414747Y47542729D01*
X38440495Y47531284D01*
X38457055Y47533541D01*
X38460145Y47546924D01*
X38659460Y47546924D01*
X38675101Y47531284D01*
X38690741Y47546924D01*
X38940987Y47546924D01*
X38956628Y47531284D01*
X38972268Y47546924D01*
X38956628Y47562565D01*
X38940987Y47546924D01*
X38690741Y47546924D01*
X38675101Y47562565D01*
X38659460Y47546924D01*
X38460145Y47546924D01*
X38461349Y47552138D01*
X38456764Y47555882D01*
X38419641Y47552138D01*
X38416929Y47546924D01*
X38414747Y47542729D01*
X38373738Y47542729D01*
X38377933Y47546924D01*
X38362293Y47562565D01*
X38346652Y47546924D01*
X37892518Y47546924D01*
X37890287Y47609486D01*
X38440495Y47609486D01*
X38456135Y47593846D01*
X38471776Y47609486D01*
X38456135Y47625126D01*
X38440495Y47609486D01*
X37890287Y47609486D01*
X37873001Y48094338D01*
X39003549Y48094338D01*
X39003549Y46405176D01*
X38471776Y46405176D01*
X38471810Y46694523D01*
X38471841Y46952589D01*
X38503056Y46952589D01*
X38518697Y46936949D01*
X38534337Y46952589D01*
X38518697Y46968230D01*
X38503056Y46952589D01*
X38471841Y46952589D01*
X38471845Y46983870D01*
X37882699Y46974778D01*
X37293554Y46965685D01*
X37293558Y46952589D01*
X37293579Y46890028D01*
X37293600Y46827466D01*
G37*
G36*
X19546971Y51261518D02*
G01*
X19547042Y50987811D01*
X19265443Y50997851D01*
X18983845Y51007891D01*
X18983845Y51535225D01*
X19546899Y51535225D01*
X19546971Y51261518D01*
G37*
G36*
X18389590Y40102097D02*
G01*
X18389550Y39812749D01*
X18389510Y39523402D01*
X17857736Y39523402D01*
X17857736Y40540028D01*
X18389510Y40540028D01*
X18405150Y40524387D01*
X18420790Y40540028D01*
X18405150Y40555668D01*
X18389510Y40540028D01*
X17857736Y40540028D01*
X17857736Y40649511D01*
X18121016Y40649511D01*
X18125180Y40649508D01*
X18273395Y40645228D01*
X18363683Y40632384D01*
X18400074Y40610410D01*
X18405278Y40614938D01*
X18411327Y40667917D01*
X18415913Y40763928D01*
X18418321Y40891937D01*
X18420790Y41212565D01*
X18983607Y41212565D01*
X18975906Y40661214D01*
X18974213Y40540028D01*
X18968204Y40109863D01*
X18389590Y40102097D01*
G37*
G36*
X25271283Y58416998D02*
G01*
X25271283Y57853944D01*
X24708229Y57853944D01*
X24708229Y58463919D01*
X25271283Y58463919D01*
X25286923Y58448279D01*
X25302564Y58463919D01*
X25286923Y58479560D01*
X25271283Y58463919D01*
X24708229Y58463919D01*
X24708229Y58870570D01*
X25271283Y58870570D01*
X25286923Y58854929D01*
X25302564Y58870570D01*
X25286923Y58886210D01*
X25271283Y58870570D01*
X24708229Y58870570D01*
X24708229Y58984345D01*
X25000544Y58974379D01*
X25292860Y58964412D01*
X25291868Y58995693D01*
X25740495Y58995693D01*
X25756135Y58980052D01*
X25771776Y58995693D01*
X25756135Y59011333D01*
X25740495Y58995693D01*
X25291868Y58995693D01*
X25288891Y59089535D01*
X25834337Y59089535D01*
X25849978Y59073895D01*
X25865618Y59089535D01*
X25849978Y59105176D01*
X25834337Y59089535D01*
X25288891Y59089535D01*
X25283681Y59253759D01*
X25274503Y59543107D01*
X26392795Y59543107D01*
X26402913Y59277147D01*
X26410051Y59089535D01*
X26413032Y59011187D01*
X26123684Y59011260D01*
X25834337Y59011333D01*
X25834337Y58416998D01*
X25271283Y58416998D01*
G37*
G36*
X29306505Y53286949D02*
G01*
X29302800Y53545015D01*
X29302290Y53583693D01*
X29301340Y53699867D01*
X29301510Y53786282D01*
X29302800Y53826543D01*
X29293249Y53832709D01*
X29235064Y53841609D01*
X29135577Y53847728D01*
X29008119Y53850003D01*
X28709734Y53850003D01*
X28711283Y53896924D01*
X29275224Y53896924D01*
X29290864Y53881284D01*
X29306505Y53896924D01*
X29290864Y53912565D01*
X29275224Y53896924D01*
X28711283Y53896924D01*
X28713349Y53959486D01*
X29275224Y53959486D01*
X29290864Y53943846D01*
X29306505Y53959486D01*
X29290864Y53975126D01*
X29275224Y53959486D01*
X28713349Y53959486D01*
X28727810Y54397417D01*
X29283044Y54405119D01*
X29838278Y54412820D01*
X29838278Y53286949D01*
X29306505Y53286949D01*
G37*
G36*
X30995577Y49267368D02*
G01*
X30995667Y48684908D01*
X30709738Y48691192D01*
X30423809Y48697477D01*
X30425722Y48610471D01*
X30427097Y48547910D01*
X30428472Y48485348D01*
X30435348Y48172540D01*
X30436379Y48125619D01*
X29838278Y48125619D01*
X29838278Y47562565D01*
X29275224Y47562565D01*
X29275224Y46405176D01*
X28696529Y46405176D01*
X28696529Y45810841D01*
X29275224Y45810841D01*
X29275152Y45521493D01*
X29275080Y45232146D01*
X29838278Y45252226D01*
X29838278Y44121678D01*
X29275224Y44121678D01*
X29275224Y43527343D01*
X29838278Y43527343D01*
X29838278Y42959849D01*
X29275080Y42979929D01*
X29275084Y42948649D01*
X29275151Y42385594D01*
X29275222Y41791259D01*
X29275224Y41775619D01*
X29869559Y41775619D01*
X29869665Y41791259D01*
X30307490Y41791259D01*
X30323130Y41775619D01*
X30338771Y41791259D01*
X30323130Y41806900D01*
X30307490Y41791259D01*
X29869665Y41791259D01*
X29871625Y42080607D01*
X29871850Y42120294D01*
X29872094Y42303315D01*
X29871776Y42385594D01*
X30213648Y42385594D01*
X30229288Y42369954D01*
X30244928Y42385594D01*
X30229288Y42401235D01*
X30213648Y42385594D01*
X29871776Y42385594D01*
X29871534Y42448156D01*
X30995667Y42448156D01*
X31011308Y42432515D01*
X31026948Y42448156D01*
X31011308Y42463796D01*
X30995667Y42448156D01*
X29871534Y42448156D01*
X29871353Y42494825D01*
X29869742Y42659301D01*
X29867824Y42792245D01*
X30432613Y42792245D01*
X30448253Y42776604D01*
X30463894Y42792245D01*
X30448253Y42807885D01*
X30432613Y42792245D01*
X29867824Y42792245D01*
X29866470Y42886087D01*
X30995667Y42886087D01*
X31011308Y42870447D01*
X31026948Y42886087D01*
X31011308Y42901727D01*
X30995667Y42886087D01*
X29866470Y42886087D01*
X29865793Y42933008D01*
X31026948Y42933008D01*
X31026948Y42948649D01*
X31496160Y42948649D01*
X31511800Y42933008D01*
X31527441Y42948649D01*
X31511800Y42964289D01*
X31496160Y42948649D01*
X31026948Y42948649D01*
X31026948Y43042491D01*
X34436554Y43042491D01*
X34452194Y43026850D01*
X34467835Y43042491D01*
X36156997Y43042491D01*
X36172638Y43026850D01*
X36188278Y43042491D01*
X36172638Y43058131D01*
X36156997Y43042491D01*
X34467835Y43042491D01*
X34452194Y43058131D01*
X34436554Y43042491D01*
X31026948Y43042491D01*
X31026948Y43168243D01*
X31565405Y43168243D01*
X31569148Y43131120D01*
X31578557Y43126226D01*
X31590002Y43151974D01*
X31587745Y43168534D01*
X31569148Y43172827D01*
X31565405Y43168243D01*
X31026948Y43168243D01*
X31026948Y43198895D01*
X36156997Y43198895D01*
X36172638Y43183254D01*
X36188278Y43198895D01*
X36172638Y43214535D01*
X36156997Y43198895D01*
X31026948Y43198895D01*
X31026948Y43531109D01*
X31300655Y43527160D01*
X31389995Y43526220D01*
X31549802Y43525326D01*
X31742695Y43524846D01*
X31951959Y43524817D01*
X32160877Y43525277D01*
X32747391Y43527343D01*
X32747391Y44090397D01*
X33279165Y44090397D01*
X33279165Y43527343D01*
X34467835Y43527343D01*
X34467835Y44090397D01*
X34999608Y44090397D01*
X34999608Y43527343D01*
X36751332Y43527343D01*
X36751332Y44092833D01*
X37291584Y44074757D01*
X37297314Y43198895D01*
X37297621Y43151974D01*
X37298337Y43042491D01*
X37298746Y42979929D01*
X34427908Y42965921D01*
X34428288Y42948649D01*
X34434113Y42683578D01*
X34440319Y42401235D01*
X33873500Y42401235D01*
X33873500Y42948649D01*
X34342712Y42948649D01*
X34358352Y42933008D01*
X34373992Y42948649D01*
X34358352Y42964289D01*
X34342712Y42948649D01*
X33873500Y42948649D01*
X33873500Y42961617D01*
X33294769Y42970773D01*
X32716039Y42979929D01*
X32716111Y42401235D01*
X32148616Y42401235D01*
X32158657Y42680926D01*
X32168697Y42960616D01*
X31871397Y42970273D01*
X31574097Y42979929D01*
X31574104Y42948649D01*
X31574118Y42886087D01*
X31574140Y42792245D01*
X31574219Y42448156D01*
X31574230Y42401235D01*
X31574234Y42385594D01*
X31574362Y41822540D01*
X31026948Y41804464D01*
X31026948Y42385594D01*
X31464879Y42385594D01*
X31480519Y42369954D01*
X31496160Y42385594D01*
X31480519Y42401235D01*
X31464879Y42385594D01*
X31026948Y42385594D01*
X31026948Y42401235D01*
X30721960Y42401303D01*
X30416973Y42401371D01*
X30417472Y42385594D01*
X30426870Y42088495D01*
X30436273Y41791259D01*
X30436768Y41775619D01*
X30995667Y41775619D01*
X30995667Y40086456D01*
X33310446Y40086456D01*
X33310446Y40649511D01*
X34438990Y40649511D01*
X34420914Y40102097D01*
X33873500Y40114343D01*
X33873107Y40039535D01*
X33872942Y40008254D01*
X33871904Y39811052D01*
X33871617Y39736675D01*
X33871553Y39695447D01*
X33871504Y39664166D01*
X33871360Y39571350D01*
X33871360Y39570323D01*
X33871369Y39507762D01*
X33871387Y39373108D01*
X33871689Y39160614D01*
X33871938Y39069831D01*
X33872260Y38952528D01*
X33872288Y38944708D01*
X33872618Y38850865D01*
X33874213Y38397294D01*
X32146832Y38397294D01*
X32157764Y38676930D01*
X32164564Y38850865D01*
X32716111Y38850865D01*
X32731751Y38835225D01*
X32747391Y38850865D01*
X32731751Y38866506D01*
X32716111Y38850865D01*
X32164564Y38850865D01*
X32168697Y38956566D01*
X31868563Y38966277D01*
X31568430Y38975988D01*
X31569422Y38944708D01*
X31577606Y38686641D01*
X31586783Y38397294D01*
X31026948Y38397294D01*
X31026948Y38944708D01*
X31152071Y38944708D01*
X31167712Y38929067D01*
X31183352Y38944708D01*
X31167712Y38960348D01*
X31152071Y38944708D01*
X31026948Y38944708D01*
X31026948Y38960348D01*
X30463894Y38960348D01*
X30463894Y38976617D01*
X32722794Y38976617D01*
X32726538Y38939494D01*
X32735946Y38934600D01*
X32740439Y38944708D01*
X32841234Y38944708D01*
X32856874Y38929067D01*
X32872515Y38944708D01*
X32903795Y38944708D01*
X32919436Y38929067D01*
X32930880Y38940512D01*
X33284698Y38940512D01*
X33310446Y38929067D01*
X33327006Y38931325D01*
X33330096Y38944708D01*
X33779657Y38944708D01*
X33795298Y38929067D01*
X33810938Y38944708D01*
X33795298Y38960348D01*
X33784870Y38949921D01*
X33779657Y38944708D01*
X33330096Y38944708D01*
X33331299Y38949921D01*
X33326715Y38953665D01*
X33289592Y38949921D01*
X33286881Y38944708D01*
X33284698Y38940512D01*
X32930880Y38940512D01*
X32935076Y38944708D01*
X32919436Y38960348D01*
X32903795Y38944708D01*
X32872515Y38944708D01*
X32856874Y38960348D01*
X32841234Y38944708D01*
X32740439Y38944708D01*
X32747391Y38960348D01*
X32745134Y38976908D01*
X32726538Y38981202D01*
X32722794Y38976617D01*
X30463894Y38976617D01*
X30463894Y39069831D01*
X31558721Y39069831D01*
X31574362Y39054190D01*
X31590002Y39069831D01*
X31574362Y39085471D01*
X31558721Y39069831D01*
X30463894Y39069831D01*
X30463894Y39523402D01*
X30169333Y39523402D01*
X30114661Y39523709D01*
X29975813Y39529137D01*
X29906635Y39539671D01*
X31002350Y39539671D01*
X31006094Y39502548D01*
X31015503Y39497655D01*
X31018131Y39503567D01*
X31564255Y39503567D01*
X31590002Y39492121D01*
X31606562Y39494379D01*
X31609652Y39507762D01*
X32121776Y39507762D01*
X32137416Y39492121D01*
X32153056Y39507762D01*
X33373007Y39507762D01*
X33388648Y39492121D01*
X33404288Y39507762D01*
X33388648Y39523402D01*
X33373007Y39507762D01*
X32153056Y39507762D01*
X32137416Y39523402D01*
X32121776Y39507762D01*
X31609652Y39507762D01*
X31610856Y39512975D01*
X31606271Y39516719D01*
X31569148Y39512975D01*
X31564255Y39503567D01*
X31018131Y39503567D01*
X31026948Y39523402D01*
X31024691Y39539962D01*
X31006094Y39544256D01*
X31002350Y39539671D01*
X29906635Y39539671D01*
X29892338Y39541848D01*
X29858995Y39562503D01*
X29853821Y39558158D01*
X29848020Y39507762D01*
X29847759Y39505499D01*
X29843161Y39409764D01*
X29840748Y39281998D01*
X29838278Y38962391D01*
X28712170Y38961165D01*
X27586061Y38959939D01*
X27586197Y39507762D01*
X28117835Y39507762D01*
X28133475Y39492121D01*
X28149115Y39507762D01*
X28133475Y39523402D01*
X28117835Y39507762D01*
X27586197Y39507762D01*
X27586205Y39539043D01*
X27304606Y39529002D01*
X27023007Y39518962D01*
X27023007Y39601604D01*
X27554781Y39601604D01*
X27570421Y39585964D01*
X27586061Y39601604D01*
X27570421Y39617245D01*
X27554781Y39601604D01*
X27023007Y39601604D01*
X27023007Y39695447D01*
X27554781Y39695447D01*
X27570421Y39679806D01*
X27586061Y39695447D01*
X27570421Y39711087D01*
X27554781Y39695447D01*
X27023007Y39695447D01*
X27023007Y40086456D01*
X27586061Y40086456D01*
X27586061Y40649511D01*
X28149115Y40649511D01*
X28149115Y40086456D01*
X28715935Y40086456D01*
X28709919Y39812749D01*
X28709115Y39757752D01*
X28709809Y39695447D01*
X28710380Y39644203D01*
X28713078Y39601604D01*
X28715473Y39563798D01*
X28723677Y39531222D01*
X28734329Y39529560D01*
X28796059Y39526404D01*
X28898040Y39524219D01*
X29024978Y39523402D01*
X29306505Y39523402D01*
X29306505Y39570323D01*
X30432613Y39570323D01*
X30448253Y39554683D01*
X30463894Y39570323D01*
X31558721Y39570323D01*
X31574362Y39554683D01*
X31590002Y39570323D01*
X31574362Y39585964D01*
X31558721Y39570323D01*
X30463894Y39570323D01*
X30448253Y39585964D01*
X30432613Y39570323D01*
X29306505Y39570323D01*
X29306505Y39664166D01*
X29838278Y39664166D01*
X29853918Y39648525D01*
X29869559Y39664166D01*
X29868931Y39664794D01*
X31002350Y39664794D01*
X31002413Y39664166D01*
X31006094Y39627671D01*
X31015503Y39622778D01*
X31026948Y39648525D01*
X31024816Y39664166D01*
X31558721Y39664166D01*
X31574362Y39648525D01*
X31590002Y39664166D01*
X31574362Y39679806D01*
X31558721Y39664166D01*
X31024816Y39664166D01*
X31024691Y39665085D01*
X31006094Y39669379D01*
X31002350Y39664794D01*
X29868931Y39664794D01*
X29853918Y39679806D01*
X29838278Y39664166D01*
X29306505Y39664166D01*
X29306505Y39695447D01*
X30432613Y39695447D01*
X30448253Y39679806D01*
X30463894Y39695447D01*
X30448253Y39711087D01*
X30432613Y39695447D01*
X29306505Y39695447D01*
X29306505Y40008254D01*
X31558721Y40008254D01*
X31574362Y39992614D01*
X31590002Y40008254D01*
X31574362Y40023895D01*
X31558721Y40008254D01*
X29306505Y40008254D01*
X29306505Y40039535D01*
X30432613Y40039535D01*
X30448253Y40023895D01*
X30463894Y40039535D01*
X30448253Y40055176D01*
X30432613Y40039535D01*
X29306505Y40039535D01*
X29306505Y40086456D01*
X29869559Y40086456D01*
X29869559Y40097902D01*
X30406865Y40097902D01*
X30432613Y40086456D01*
X30449173Y40088714D01*
X30453467Y40107310D01*
X30448882Y40111054D01*
X30411759Y40107310D01*
X30406865Y40097902D01*
X29869559Y40097902D01*
X29869559Y40477466D01*
X30432613Y40477466D01*
X30448253Y40461826D01*
X30463894Y40477466D01*
X30448253Y40493107D01*
X30432613Y40477466D01*
X29869559Y40477466D01*
X29869559Y40649511D01*
X30148479Y40649511D01*
X30182443Y40649381D01*
X30323578Y40644371D01*
X30408459Y40631600D01*
X30442050Y40610410D01*
X30447213Y40617963D01*
X30452359Y40675751D01*
X30456025Y40775911D01*
X30457642Y40907577D01*
X30458540Y41228205D01*
X30557736Y41228205D01*
X30573377Y41212565D01*
X30589017Y41228205D01*
X30620298Y41228205D01*
X30635938Y41212565D01*
X30651579Y41228205D01*
X30635938Y41243846D01*
X30620298Y41228205D01*
X30589017Y41228205D01*
X30573377Y41243846D01*
X30557736Y41228205D01*
X30458540Y41228205D01*
X30458584Y41243846D01*
X29277572Y41243846D01*
X29277086Y41228205D01*
X29268578Y40954498D01*
X29259583Y40665151D01*
X28727810Y40665151D01*
X28721612Y40946678D01*
X28721027Y40974243D01*
X28717916Y41152549D01*
X28716928Y41228205D01*
X28774731Y41228205D01*
X28790372Y41212565D01*
X28806012Y41228205D01*
X28790372Y41243846D01*
X28774731Y41228205D01*
X28716928Y41228205D01*
X28715702Y41322048D01*
X29275224Y41322048D01*
X29290864Y41306407D01*
X29306505Y41322048D01*
X29290864Y41337688D01*
X29275224Y41322048D01*
X28715702Y41322048D01*
X28715352Y41348833D01*
X28715314Y41353328D01*
X30432613Y41353328D01*
X30448253Y41337688D01*
X30463894Y41353328D01*
X30448253Y41368969D01*
X30432613Y41353328D01*
X28715314Y41353328D01*
X28713840Y41525373D01*
X28712763Y41728698D01*
X29275224Y41728698D01*
X29290864Y41713057D01*
X29306505Y41728698D01*
X29290864Y41744338D01*
X29275224Y41728698D01*
X28712763Y41728698D01*
X28712431Y41791259D01*
X28806012Y41791259D01*
X28821652Y41775619D01*
X28837293Y41791259D01*
X28821652Y41806900D01*
X28806012Y41791259D01*
X28712431Y41791259D01*
X28712265Y41822540D01*
X28164756Y41822540D01*
X28146680Y42369954D01*
X28437245Y42369951D01*
X28727810Y42369949D01*
X28727654Y42385594D01*
X28899854Y42385594D01*
X28915495Y42369954D01*
X28931135Y42385594D01*
X28915495Y42401235D01*
X28899854Y42385594D01*
X28727654Y42385594D01*
X28722049Y42948649D01*
X28774731Y42948649D01*
X28790372Y42933008D01*
X28806012Y42948649D01*
X28790372Y42964289D01*
X28774731Y42948649D01*
X28722049Y42948649D01*
X28722039Y42949696D01*
X28721115Y43042491D01*
X29275224Y43042491D01*
X29290864Y43026850D01*
X29306505Y43042491D01*
X29290864Y43058131D01*
X29275224Y43042491D01*
X28721115Y43042491D01*
X28716269Y43529443D01*
X27564650Y43530407D01*
X26413032Y43531370D01*
X26405910Y42948649D01*
X26405145Y42886087D01*
X26404381Y42823525D01*
X26403234Y42729683D01*
X26399794Y42448156D01*
X26398838Y42369954D01*
X27554781Y42369954D01*
X27554781Y41803134D01*
X27268851Y41809419D01*
X26982922Y41815704D01*
X26983459Y41791259D01*
X26993085Y41353328D01*
X26995492Y41243846D01*
X26402701Y41243846D01*
X26402745Y41228205D01*
X26403643Y40907577D01*
X26404894Y40792882D01*
X26408305Y40687604D01*
X26410037Y40665151D01*
X26413275Y40623158D01*
X26419235Y40610410D01*
X26422137Y40615412D01*
X26465597Y40634798D01*
X26561224Y40645943D01*
X26714024Y40649511D01*
X26994162Y40649511D01*
X26992611Y40602589D01*
X26989510Y40508747D01*
X26988476Y40477466D01*
X26985124Y40376058D01*
X26978654Y40180299D01*
X26976086Y40102606D01*
X26405212Y40105480D01*
X25834337Y40108355D01*
X25834337Y38397294D01*
X25274503Y38397294D01*
X25283610Y38686641D01*
X25291733Y38944708D01*
X25709214Y38944708D01*
X25724854Y38929067D01*
X25740495Y38944708D01*
X25771776Y38944708D01*
X25787416Y38929067D01*
X25803056Y38944708D01*
X25787416Y38960348D01*
X25771776Y38944708D01*
X25740495Y38944708D01*
X25724854Y38960348D01*
X25709214Y38944708D01*
X25291733Y38944708D01*
X25292718Y38975988D01*
X24695486Y38968868D01*
X24525306Y38966933D01*
X24313745Y38964759D01*
X24115486Y38962955D01*
X23946947Y38961669D01*
X23824547Y38961047D01*
X23550840Y38960348D01*
X23550840Y38397294D01*
X21861677Y38397294D01*
X21861677Y38820213D01*
X22400134Y38820213D01*
X22403877Y38783090D01*
X22413286Y38778196D01*
X22424731Y38803944D01*
X22422474Y38820504D01*
X22403877Y38824798D01*
X22400134Y38820213D01*
X21861677Y38820213D01*
X21861677Y38882146D01*
X22393450Y38882146D01*
X22409091Y38866506D01*
X22424731Y38882146D01*
X22409091Y38897786D01*
X22393450Y38882146D01*
X21861677Y38882146D01*
X21861677Y38929067D01*
X22424731Y38929067D01*
X22424731Y38944708D01*
X22487293Y38944708D01*
X22502933Y38929067D01*
X22518574Y38944708D01*
X23050347Y38944708D01*
X23065987Y38929067D01*
X23081628Y38944708D01*
X23112909Y38944708D01*
X23128549Y38929067D01*
X23144189Y38944708D01*
X23456997Y38944708D01*
X23472638Y38929067D01*
X23488278Y38944708D01*
X23472638Y38960348D01*
X23456997Y38944708D01*
X23144189Y38944708D01*
X23128549Y38960348D01*
X23112909Y38944708D01*
X23081628Y38944708D01*
X23065987Y38960348D01*
X23050347Y38944708D01*
X22518574Y38944708D01*
X22502933Y38960348D01*
X22487293Y38944708D01*
X22424731Y38944708D01*
X22424731Y39069831D01*
X25271283Y39069831D01*
X25286923Y39054190D01*
X25302564Y39069831D01*
X25286923Y39085471D01*
X25271283Y39069831D01*
X22424731Y39069831D01*
X22424731Y39525226D01*
X23284975Y39516494D01*
X24145218Y39507762D01*
X24708229Y39507762D01*
X24723869Y39492121D01*
X24735315Y39503567D01*
X25245535Y39503567D01*
X25271283Y39492121D01*
X25287843Y39494379D01*
X25292137Y39512975D01*
X25287552Y39516719D01*
X25250429Y39512975D01*
X25247717Y39507762D01*
X25245535Y39503567D01*
X24735315Y39503567D01*
X24739510Y39507762D01*
X24723869Y39523402D01*
X24708229Y39507762D01*
X24145218Y39507762D01*
X24145216Y39570323D01*
X25271283Y39570323D01*
X25286923Y39554683D01*
X25302564Y39570323D01*
X25286923Y39585964D01*
X25271283Y39570323D01*
X24145216Y39570323D01*
X24145212Y39664166D01*
X25271283Y39664166D01*
X25286923Y39648525D01*
X25302564Y39664166D01*
X25286923Y39679806D01*
X25271283Y39664166D01*
X24145212Y39664166D01*
X24145199Y40008254D01*
X25271283Y40008254D01*
X25286923Y39992614D01*
X25302564Y40008254D01*
X25286923Y40023895D01*
X25271283Y40008254D01*
X24145199Y40008254D01*
X24145196Y40078636D01*
X24145259Y40102097D01*
X25271283Y40102097D01*
X25286923Y40086456D01*
X25302564Y40102097D01*
X25286923Y40117737D01*
X25271283Y40102097D01*
X24145259Y40102097D01*
X24145417Y40160513D01*
X24145674Y40196568D01*
X25841020Y40196568D01*
X25844764Y40159445D01*
X25854173Y40154551D01*
X25865618Y40180299D01*
X26397391Y40180299D01*
X26398664Y40171725D01*
X26430518Y40149018D01*
X26441832Y40151474D01*
X26444313Y40180299D01*
X26437892Y40189660D01*
X26411186Y40211580D01*
X26408064Y40210766D01*
X26397391Y40180299D01*
X25865618Y40180299D01*
X25863360Y40196859D01*
X25844764Y40201153D01*
X25841020Y40196568D01*
X24145674Y40196568D01*
X24146725Y40344297D01*
X24145112Y40476768D01*
X24145037Y40477466D01*
X25834337Y40477466D01*
X25849978Y40461826D01*
X25865618Y40477466D01*
X26397391Y40477466D01*
X26413032Y40461826D01*
X26428672Y40477466D01*
X26413032Y40493107D01*
X26397391Y40477466D01*
X25865618Y40477466D01*
X25849978Y40493107D01*
X25834337Y40477466D01*
X24145037Y40477466D01*
X24141693Y40508747D01*
X25271283Y40508747D01*
X25286923Y40493107D01*
X25302564Y40508747D01*
X25286923Y40524387D01*
X25271283Y40508747D01*
X24141693Y40508747D01*
X24135564Y40566064D01*
X24120420Y40602589D01*
X25834337Y40602589D01*
X25849978Y40586949D01*
X25865618Y40602589D01*
X25849978Y40618230D01*
X25834337Y40602589D01*
X24120420Y40602589D01*
X24113066Y40620324D01*
X24072602Y40647688D01*
X24009157Y40656293D01*
X23917717Y40654279D01*
X23793266Y40649785D01*
X23582120Y40645313D01*
X23582120Y40665151D01*
X24708229Y40665151D01*
X24723869Y40649511D01*
X24739510Y40665151D01*
X25177441Y40665151D01*
X25193081Y40649511D01*
X25208721Y40665151D01*
X25193081Y40680791D01*
X25177441Y40665151D01*
X24739510Y40665151D01*
X24723869Y40680791D01*
X24708229Y40665151D01*
X23582120Y40665151D01*
X23582120Y40697060D01*
X25277966Y40697060D01*
X25281184Y40665151D01*
X25281710Y40659938D01*
X25291119Y40655044D01*
X25295612Y40665151D01*
X25834337Y40665151D01*
X25849978Y40649511D01*
X25865618Y40665151D01*
X25849978Y40680791D01*
X25834337Y40665151D01*
X25295612Y40665151D01*
X25302564Y40680791D01*
X25300306Y40697351D01*
X25281710Y40701645D01*
X25277966Y40697060D01*
X23582120Y40697060D01*
X23582120Y41212331D01*
X24723880Y41204628D01*
X25865639Y41196924D01*
X25865638Y41228205D01*
X25896899Y41228205D01*
X25912539Y41212565D01*
X25928180Y41228205D01*
X26209707Y41228205D01*
X26225347Y41212565D01*
X26240987Y41228205D01*
X26272268Y41228205D01*
X26287909Y41212565D01*
X26303549Y41228205D01*
X26287909Y41243846D01*
X26272268Y41228205D01*
X26240987Y41228205D01*
X26225347Y41243846D01*
X26209707Y41228205D01*
X25928180Y41228205D01*
X25912539Y41243846D01*
X25896899Y41228205D01*
X25865638Y41228205D01*
X25865636Y41353328D01*
X26397391Y41353328D01*
X26413032Y41337688D01*
X26428672Y41353328D01*
X26413032Y41368969D01*
X26397391Y41353328D01*
X25865636Y41353328D01*
X25865628Y41791259D01*
X26272268Y41791259D01*
X26287909Y41775619D01*
X26303549Y41791259D01*
X26334830Y41791259D01*
X26350470Y41775619D01*
X26366111Y41791259D01*
X26397391Y41791259D01*
X26413032Y41775619D01*
X26428672Y41791259D01*
X26413032Y41806900D01*
X26397391Y41791259D01*
X26366111Y41791259D01*
X26350470Y41806900D01*
X26334830Y41791259D01*
X26303549Y41791259D01*
X26287909Y41806900D01*
X26272268Y41791259D01*
X25865628Y41791259D01*
X25865628Y41799080D01*
X25865627Y41885102D01*
X26991726Y41885102D01*
X27007367Y41869461D01*
X27023007Y41885102D01*
X27007367Y41900742D01*
X26991726Y41885102D01*
X25865627Y41885102D01*
X25865621Y42229190D01*
X26991726Y42229190D01*
X27007367Y42213550D01*
X27023007Y42229190D01*
X27007367Y42244831D01*
X26991726Y42229190D01*
X25865621Y42229190D01*
X25865620Y42291752D01*
X26397391Y42291752D01*
X26413032Y42276112D01*
X26428672Y42291752D01*
X26991726Y42291752D01*
X27007367Y42276112D01*
X27023007Y42291752D01*
X27007367Y42307392D01*
X26991726Y42291752D01*
X26428672Y42291752D01*
X26413032Y42307392D01*
X26397391Y42291752D01*
X25865620Y42291752D01*
X25865618Y42401235D01*
X23550840Y42401235D01*
X23550840Y41806900D01*
X22987785Y41806900D01*
X22987785Y40965609D01*
X22987314Y40743110D01*
X22986001Y40541908D01*
X22983970Y40370256D01*
X22981348Y40236408D01*
X22978260Y40148615D01*
X22974831Y40115130D01*
X22964673Y40112607D01*
X22904630Y40110439D01*
X22804045Y40112192D01*
X22677617Y40117737D01*
X22393359Y40133378D01*
X22393405Y39828390D01*
X22393450Y39523402D01*
X21861677Y39523402D01*
X21861677Y40649511D01*
X20673007Y40649511D01*
X20671453Y40008254D01*
X20670941Y39797109D01*
X20670569Y39592431D01*
X20670434Y39354220D01*
X20670608Y39131279D01*
X20671050Y38944708D01*
X20671072Y38935428D01*
X20671808Y38778493D01*
X20672795Y38672296D01*
X20676716Y38399884D01*
X20416795Y38390769D01*
X20376667Y38389504D01*
X20259765Y38387563D01*
X20172366Y38388711D01*
X20130968Y38392831D01*
X20125196Y38402952D01*
X20115979Y38462812D01*
X20110727Y38563349D01*
X20110445Y38689999D01*
X20110773Y38708232D01*
X20112873Y38886627D01*
X20113102Y38944708D01*
X20579165Y38944708D01*
X20594805Y38929067D01*
X20610446Y38944708D01*
X20594805Y38960348D01*
X20579165Y38944708D01*
X20113102Y38944708D01*
X20113635Y39080041D01*
X20112891Y39249695D01*
X20109953Y39523402D01*
X19844066Y39523402D01*
X19788347Y39523762D01*
X19666946Y39529136D01*
X19598751Y39541721D01*
X19577018Y39562503D01*
X19576930Y39565514D01*
X19575358Y39620690D01*
X19572645Y39717212D01*
X19569321Y39836210D01*
X19564528Y40008254D01*
X20109953Y40008254D01*
X20125593Y39992614D01*
X20141234Y40008254D01*
X20125593Y40023895D01*
X20109953Y40008254D01*
X19564528Y40008254D01*
X19562785Y40070816D01*
X20125593Y40088452D01*
X20115584Y40367795D01*
X20105574Y40647139D01*
X19840002Y40656145D01*
X19574431Y40665151D01*
X19568485Y40931038D01*
X19562539Y41196924D01*
X20109953Y41215000D01*
X20109953Y41228205D01*
X20688648Y41228205D01*
X21535343Y41219893D01*
X21541906Y41219829D01*
X21765597Y41218441D01*
X21968338Y41218649D01*
X22141808Y41220326D01*
X22277686Y41223348D01*
X22367652Y41227589D01*
X22403385Y41232926D01*
X22403730Y41233382D01*
X22409308Y41272556D01*
X22414323Y41365521D01*
X22418574Y41504002D01*
X22421861Y41679722D01*
X22423980Y41884406D01*
X22424731Y42109776D01*
X22424731Y42385594D01*
X23112909Y42385594D01*
X23128549Y42369954D01*
X23144189Y42385594D01*
X23128549Y42401235D01*
X23112909Y42385594D01*
X22424731Y42385594D01*
X22424731Y42448156D01*
X25834337Y42448156D01*
X25849978Y42432515D01*
X25865618Y42448156D01*
X25849978Y42463796D01*
X25834337Y42448156D01*
X22424731Y42448156D01*
X22424731Y42729683D01*
X25834337Y42729683D01*
X25849978Y42714043D01*
X25865618Y42729683D01*
X25849978Y42745323D01*
X25834337Y42729683D01*
X22424731Y42729683D01*
X22424731Y42823525D01*
X25834337Y42823525D01*
X25849978Y42807885D01*
X25865618Y42823525D01*
X25849978Y42839166D01*
X25834337Y42823525D01*
X22424731Y42823525D01*
X22424731Y42886087D01*
X25271283Y42886087D01*
X25286923Y42870447D01*
X25302564Y42886087D01*
X25834337Y42886087D01*
X25849978Y42870447D01*
X25865618Y42886087D01*
X25849978Y42901727D01*
X25834337Y42886087D01*
X25302564Y42886087D01*
X25286923Y42901727D01*
X25271283Y42886087D01*
X22424731Y42886087D01*
X22424731Y42965279D01*
X21556689Y42956964D01*
X20688648Y42948649D01*
X20688648Y41228205D01*
X20109953Y41228205D01*
X20109953Y42964289D01*
X18968204Y42964289D01*
X18968204Y42369954D01*
X19546899Y42369954D01*
X19546899Y41243846D01*
X18980079Y41243846D01*
X18986326Y41528056D01*
X18992111Y41791259D01*
X19108968Y41791259D01*
X19124608Y41775619D01*
X19140249Y41791259D01*
X19124608Y41806900D01*
X19108968Y41791259D01*
X18992111Y41791259D01*
X18992573Y41812267D01*
X18425155Y41808340D01*
X17857736Y41804413D01*
X17857736Y42291752D01*
X18389510Y42291752D01*
X18405150Y42276112D01*
X18420790Y42291752D01*
X18405150Y42307392D01*
X18389510Y42291752D01*
X17857736Y42291752D01*
X17857736Y42369954D01*
X18389510Y42369954D01*
X18389868Y42362875D01*
X18403304Y42338673D01*
X18408322Y42340113D01*
X18436431Y42369954D01*
X18441318Y42382071D01*
X18422636Y42401235D01*
X18413557Y42400033D01*
X18389510Y42369954D01*
X17857736Y42369954D01*
X17857736Y42448156D01*
X18389510Y42448156D01*
X18405150Y42432515D01*
X18420790Y42448156D01*
X18405150Y42463796D01*
X18389510Y42448156D01*
X17857736Y42448156D01*
X17857736Y42933008D01*
X18147083Y42932938D01*
X18436431Y42932868D01*
X18435903Y42948649D01*
X18608475Y42948649D01*
X18624115Y42933008D01*
X18639756Y42948649D01*
X18624115Y42964289D01*
X18608475Y42948649D01*
X18435903Y42948649D01*
X18426419Y43232036D01*
X18416407Y43531205D01*
X18692305Y43527208D01*
X18724111Y43526785D01*
X18899602Y43525322D01*
X19093372Y43524778D01*
X19268973Y43525277D01*
X19569742Y43527343D01*
X19570583Y43613365D01*
X19571261Y43668402D01*
X19572837Y43775126D01*
X19574802Y43894892D01*
X19578180Y44090397D01*
X20109953Y44090397D01*
X20109953Y43527343D01*
X20704288Y43527343D01*
X20704288Y43668107D01*
X21236061Y43668107D01*
X21251702Y43652466D01*
X21267342Y43668107D01*
X21251702Y43683747D01*
X21236061Y43668107D01*
X20704288Y43668107D01*
X20704288Y44094163D01*
X21272240Y44081679D01*
X21274345Y44199880D01*
X21830396Y44199880D01*
X21846037Y44184240D01*
X21861677Y44199880D01*
X21846037Y44215520D01*
X21830396Y44199880D01*
X21274345Y44199880D01*
X21277611Y44383215D01*
X21279917Y44512688D01*
X21830396Y44512688D01*
X21846037Y44497048D01*
X21861677Y44512688D01*
X21846037Y44528328D01*
X21830396Y44512688D01*
X21279917Y44512688D01*
X21282982Y44684750D01*
X20701852Y44684732D01*
X20719928Y45232146D01*
X21267437Y45232146D01*
X21267427Y45357269D01*
X21830396Y45357269D01*
X21846037Y45341629D01*
X21861677Y45357269D01*
X21846037Y45372910D01*
X21830396Y45357269D01*
X21267427Y45357269D01*
X21267419Y45451740D01*
X22400134Y45451740D01*
X22403877Y45414617D01*
X22413286Y45409724D01*
X22424731Y45435471D01*
X22422474Y45452031D01*
X22403877Y45456325D01*
X22400134Y45451740D01*
X21267419Y45451740D01*
X21267396Y45732639D01*
X21830396Y45732639D01*
X21846037Y45716998D01*
X21861677Y45732639D01*
X22393450Y45732639D01*
X22409091Y45716998D01*
X22424731Y45732639D01*
X22409091Y45748279D01*
X22393450Y45732639D01*
X21861677Y45732639D01*
X21846037Y45748279D01*
X21830396Y45732639D01*
X21267396Y45732639D01*
X21267390Y45803020D01*
X21267388Y45822286D01*
X21335437Y45822286D01*
X21361184Y45810841D01*
X21377744Y45813098D01*
X21380834Y45826481D01*
X21705273Y45826481D01*
X21720914Y45810841D01*
X21736554Y45826481D01*
X21892958Y45826481D01*
X21908598Y45810841D01*
X21920044Y45822286D01*
X22242580Y45822286D01*
X22268327Y45810841D01*
X22284887Y45813098D01*
X22287977Y45826481D01*
X22330889Y45826481D01*
X22346529Y45810841D01*
X22362170Y45826481D01*
X22346529Y45842121D01*
X22330889Y45826481D01*
X22287977Y45826481D01*
X22289181Y45831694D01*
X22284596Y45835438D01*
X22247473Y45831694D01*
X22244762Y45826481D01*
X22242580Y45822286D01*
X21920044Y45822286D01*
X21924239Y45826481D01*
X21908598Y45842121D01*
X21892958Y45826481D01*
X21736554Y45826481D01*
X21720914Y45842121D01*
X21710486Y45831694D01*
X21705273Y45826481D01*
X21380834Y45826481D01*
X21382038Y45831694D01*
X21377454Y45835438D01*
X21340331Y45831694D01*
X21335437Y45822286D01*
X21267388Y45822286D01*
X21267349Y46295693D01*
X21830396Y46295693D01*
X21846037Y46280052D01*
X21861677Y46295693D01*
X21846037Y46311333D01*
X21830396Y46295693D01*
X21267349Y46295693D01*
X21267342Y46373895D01*
X21861677Y46373895D01*
X21861673Y46389535D01*
X21892958Y46389535D01*
X21908598Y46373895D01*
X21920044Y46385340D01*
X22242580Y46385340D01*
X22268327Y46373895D01*
X22284887Y46376152D01*
X22289181Y46394749D01*
X22284596Y46398492D01*
X22247473Y46394749D01*
X22244762Y46389535D01*
X22242580Y46385340D01*
X21920044Y46385340D01*
X21924239Y46389535D01*
X21908598Y46405176D01*
X21892958Y46389535D01*
X21861673Y46389535D01*
X21861531Y46952589D01*
X22127491Y46942471D01*
X22393450Y46932352D01*
X22393450Y45810841D01*
X24113894Y45810841D01*
X24113894Y45245974D01*
X23261492Y45247812D01*
X23059253Y45248208D01*
X22818752Y45248577D01*
X22592463Y45248823D01*
X22392474Y45248934D01*
X22230872Y45248903D01*
X22119744Y45248719D01*
X21830396Y45247786D01*
X21830396Y44653451D01*
X22393450Y44653451D01*
X22393450Y44121678D01*
X21830396Y44121678D01*
X21830396Y43527343D01*
X22424731Y43527343D01*
X22424731Y44090397D01*
X22987785Y44090397D01*
X22987785Y42933008D01*
X25865618Y42933008D01*
X25865620Y42948649D01*
X26272268Y42948649D01*
X26287909Y42933008D01*
X26303549Y42948649D01*
X26287909Y42964289D01*
X26272268Y42948649D01*
X25865620Y42948649D01*
X25865663Y43237996D01*
X25865709Y43542983D01*
X25286923Y43542983D01*
X25286923Y43605545D01*
X26397391Y43605545D01*
X26413032Y43589905D01*
X26428672Y43605545D01*
X26991726Y43605545D01*
X27007367Y43589905D01*
X27023007Y43605545D01*
X27007367Y43621185D01*
X26991726Y43605545D01*
X26428672Y43605545D01*
X26413032Y43621185D01*
X26397391Y43605545D01*
X25286923Y43605545D01*
X25286923Y43668107D01*
X25834337Y43668107D01*
X25849978Y43652466D01*
X25865618Y43668107D01*
X26397391Y43668107D01*
X26413032Y43652466D01*
X26428672Y43668107D01*
X26413032Y43683747D01*
X26397391Y43668107D01*
X25865618Y43668107D01*
X25849978Y43683747D01*
X25834337Y43668107D01*
X25286923Y43668107D01*
X25286923Y43980915D01*
X26397391Y43980915D01*
X26413032Y43965274D01*
X26428672Y43980915D01*
X27554781Y43980915D01*
X27570421Y43965274D01*
X27586061Y43980915D01*
X27570421Y43996555D01*
X27554781Y43980915D01*
X26428672Y43980915D01*
X26413032Y43996555D01*
X26397391Y43980915D01*
X25286923Y43980915D01*
X25286923Y44012195D01*
X25834337Y44012195D01*
X25849978Y43996555D01*
X25865618Y44012195D01*
X25849978Y44027836D01*
X25834337Y44012195D01*
X25286923Y44012195D01*
X25286923Y44043476D01*
X27554781Y44043476D01*
X27570421Y44027836D01*
X27586061Y44043476D01*
X27570421Y44059116D01*
X27554781Y44043476D01*
X25286923Y44043476D01*
X25286923Y44669092D01*
X25365125Y44669092D01*
X25380766Y44653451D01*
X25396406Y44669092D01*
X25380766Y44684732D01*
X25365125Y44669092D01*
X25286923Y44669092D01*
X25286923Y45232146D01*
X25865709Y45232146D01*
X25865663Y45521493D01*
X25865618Y45810841D01*
X26131505Y45810841D01*
X26187061Y45810483D01*
X26308555Y45805111D01*
X26376827Y45792526D01*
X26398613Y45771740D01*
X26399106Y45746608D01*
X26400345Y45665671D01*
X26402084Y45541523D01*
X26404165Y45385437D01*
X26406433Y45208688D01*
X26413032Y44684737D01*
X26123684Y44684734D01*
X25834337Y44684732D01*
X25834337Y44090397D01*
X27023007Y44090397D01*
X27023007Y45247786D01*
X27554781Y45247786D01*
X27558485Y44692552D01*
X27559383Y44534035D01*
X27559931Y44371927D01*
X27559964Y44240857D01*
X27559482Y44151331D01*
X27558485Y44113858D01*
X27558483Y44113849D01*
X27586999Y44106457D01*
X27668408Y44100021D01*
X27793060Y44094937D01*
X27951300Y44091598D01*
X28133475Y44090397D01*
X28712170Y44090397D01*
X28712170Y44168599D01*
X29275224Y44168599D01*
X29290864Y44152959D01*
X29306505Y44168599D01*
X29290864Y44184240D01*
X29275224Y44168599D01*
X28712170Y44168599D01*
X28712170Y44544597D01*
X29281907Y44544597D01*
X29285651Y44507474D01*
X29295060Y44502581D01*
X29306505Y44528328D01*
X29304247Y44544888D01*
X29285651Y44549182D01*
X29281907Y44544597D01*
X28712170Y44544597D01*
X28712170Y44606530D01*
X29275224Y44606530D01*
X29290864Y44590890D01*
X29306505Y44606530D01*
X29290864Y44622171D01*
X29275224Y44606530D01*
X28712170Y44606530D01*
X28712170Y44669092D01*
X29275224Y44669092D01*
X29290864Y44653451D01*
X29306505Y44669092D01*
X29290864Y44684732D01*
X29275224Y44669092D01*
X28712170Y44669092D01*
X28712170Y45245351D01*
X28164756Y45263427D01*
X28157519Y46099022D01*
X28150283Y46934617D01*
X28716401Y46952589D01*
X28722106Y47539107D01*
X28722182Y47546924D01*
X29212662Y47546924D01*
X29228303Y47531284D01*
X29243943Y47546924D01*
X29228303Y47562565D01*
X29212662Y47546924D01*
X28722182Y47546924D01*
X28722790Y47609486D01*
X29275224Y47609486D01*
X29290864Y47593846D01*
X29306505Y47609486D01*
X29290864Y47625126D01*
X29275224Y47609486D01*
X28722790Y47609486D01*
X28727658Y48109979D01*
X28774731Y48109979D01*
X28790372Y48094338D01*
X28806012Y48109979D01*
X28899854Y48109979D01*
X28915495Y48094338D01*
X28931135Y48109979D01*
X29212662Y48109979D01*
X29228303Y48094338D01*
X29243943Y48109979D01*
X29275224Y48109979D01*
X29290864Y48094338D01*
X29306505Y48109979D01*
X29290864Y48125619D01*
X29275224Y48109979D01*
X29243943Y48109979D01*
X29228303Y48125619D01*
X29212662Y48109979D01*
X28931135Y48109979D01*
X28915495Y48125619D01*
X28899854Y48109979D01*
X28806012Y48109979D01*
X28790372Y48125619D01*
X28774731Y48109979D01*
X28727658Y48109979D01*
X28727810Y48125624D01*
X28437245Y48125622D01*
X28146680Y48125619D01*
X28148229Y48172540D01*
X29838278Y48172540D01*
X29853918Y48156900D01*
X29869559Y48172540D01*
X29853918Y48188181D01*
X29838278Y48172540D01*
X28148229Y48172540D01*
X28158558Y48485348D01*
X29275224Y48485348D01*
X29290864Y48469708D01*
X29306505Y48485348D01*
X29290864Y48500988D01*
X29275224Y48485348D01*
X28158558Y48485348D01*
X28160624Y48547910D01*
X29275224Y48547910D01*
X29290864Y48532269D01*
X29306505Y48547910D01*
X29838278Y48547910D01*
X29853918Y48532269D01*
X29869559Y48547910D01*
X29853918Y48563550D01*
X29838278Y48547910D01*
X29306505Y48547910D01*
X29290864Y48563550D01*
X29275224Y48547910D01*
X28160624Y48547910D01*
X28162690Y48610471D01*
X29275224Y48610471D01*
X29290864Y48594831D01*
X29306505Y48610471D01*
X29290864Y48626112D01*
X29275224Y48610471D01*
X28162690Y48610471D01*
X28164756Y48673033D01*
X29853918Y48673033D01*
X29869559Y48954560D01*
X29885199Y49236087D01*
X30166726Y49240390D01*
X30448253Y49244692D01*
X30448253Y49329929D01*
X30995667Y49329929D01*
X31011308Y49314289D01*
X31026948Y49329929D01*
X31011308Y49345570D01*
X30995667Y49329929D01*
X30448253Y49329929D01*
X30448253Y49392491D01*
X30995667Y49392491D01*
X31011308Y49376850D01*
X31026948Y49392491D01*
X31011308Y49408131D01*
X30995667Y49392491D01*
X30448253Y49392491D01*
X30448253Y49830422D01*
X30557736Y49830422D01*
X30573377Y49814782D01*
X30589017Y49830422D01*
X30620298Y49830422D01*
X30635938Y49814782D01*
X30651579Y49830422D01*
X30635938Y49846062D01*
X30620298Y49830422D01*
X30589017Y49830422D01*
X30573377Y49846062D01*
X30557736Y49830422D01*
X30448253Y49830422D01*
X30448253Y50377824D01*
X31000107Y50377836D01*
X30990067Y50097274D01*
X30980518Y49830422D01*
X30980027Y49816713D01*
X31277194Y49807927D01*
X31574362Y49799141D01*
X31574362Y49267368D01*
X30995577Y49267368D01*
G37*
G36*
X34438990Y57290890D02*
G01*
X33871064Y57290890D01*
X33889140Y57827344D01*
X34420914Y57838304D01*
X34438990Y57290890D01*
G37*
G36*
X24702814Y43813143D02*
G01*
X24699328Y43682129D01*
X24694877Y43592186D01*
X24689768Y43554060D01*
X24664319Y43547157D01*
X24585012Y43539906D01*
X24462286Y43534151D01*
X24306546Y43530357D01*
X24128197Y43528989D01*
X23582120Y43528989D01*
X23582120Y44012195D01*
X24113894Y44012195D01*
X24129534Y43996555D01*
X24145175Y44012195D01*
X24129534Y44027836D01*
X24113894Y44012195D01*
X23582120Y44012195D01*
X23582120Y44137318D01*
X24113894Y44137318D01*
X24129534Y44121678D01*
X24145175Y44137318D01*
X24129534Y44152959D01*
X24113894Y44137318D01*
X23582120Y44137318D01*
X23582120Y44653451D01*
X24706116Y44653451D01*
X24705707Y44137318D01*
X24705690Y44116291D01*
X24705208Y44012195D01*
X24705033Y43974485D01*
X24702814Y43813143D01*
G37*
G36*
X33279165Y54413057D02*
G01*
X32747391Y54413057D01*
X32747391Y54976112D01*
X33279165Y54976112D01*
X33279165Y54413057D01*
G37*
G36*
X39003549Y51005982D02*
G01*
X38745482Y50995443D01*
X38704356Y50993687D01*
X38592182Y50988018D01*
X38512208Y50982647D01*
X38479596Y50978538D01*
X38477825Y50984426D01*
X38474721Y51036374D01*
X38472576Y51130645D01*
X38471776Y51253698D01*
X38471776Y51535225D01*
X39003549Y51535225D01*
X39003549Y51005982D01*
G37*
G36*
X25865618Y50409116D02*
G01*
X25865618Y50800126D01*
X26397391Y50800126D01*
X26413032Y50784486D01*
X26428672Y50800126D01*
X26413032Y50815767D01*
X26397391Y50800126D01*
X25865618Y50800126D01*
X25865618Y50970440D01*
X26428672Y50970567D01*
X26991726Y50970693D01*
X26991726Y50409116D01*
X25865618Y50409116D01*
G37*
G36*
X35593943Y52129560D02*
G01*
X35030889Y52129560D01*
X35030889Y52692614D01*
X35593943Y52692614D01*
X35593943Y52129560D01*
G37*
G36*
X30432613Y59011333D02*
G01*
X29869559Y59011333D01*
X29869559Y59543107D01*
X30432613Y59543107D01*
X30432613Y59011333D01*
G37*
G36*
X35883290Y52124134D02*
G01*
X36141357Y52113919D01*
X36150395Y51840213D01*
X36159433Y51566506D01*
X35625224Y51566506D01*
X35625224Y52134348D01*
X35883290Y52124134D01*
G37*
G36*
X22393450Y48688673D02*
G01*
X21861677Y48688673D01*
X21861677Y49251727D01*
X22393450Y49251727D01*
X22393450Y48688673D01*
G37*
G36*
X20704288Y47562565D02*
G01*
X20453270Y47563156D01*
X20214805Y47564909D01*
X20003912Y47567680D01*
X19827590Y47571322D01*
X19692836Y47575691D01*
X19606648Y47580641D01*
X19576023Y47586025D01*
X19575774Y47589675D01*
X19575026Y47609486D01*
X21236061Y47609486D01*
X21251702Y47593846D01*
X21267342Y47609486D01*
X21251702Y47625126D01*
X21236061Y47609486D01*
X19575026Y47609486D01*
X19573849Y47640673D01*
X19572020Y47703957D01*
X21242745Y47703957D01*
X21246488Y47666834D01*
X21255897Y47661940D01*
X21267342Y47687688D01*
X21265085Y47704248D01*
X21246488Y47708542D01*
X21242745Y47703957D01*
X19572020Y47703957D01*
X19571158Y47733769D01*
X19568203Y47851924D01*
X19565097Y47984855D01*
X21236061Y47984855D01*
X21251702Y47969215D01*
X21267342Y47984855D01*
X21251702Y48000496D01*
X21236061Y47984855D01*
X19565097Y47984855D01*
X19562539Y48094362D01*
X20413767Y48094350D01*
X21264994Y48094338D01*
X21265480Y48109979D01*
X21329904Y48109979D01*
X21345544Y48094338D01*
X21361184Y48109979D01*
X21345544Y48125619D01*
X21329904Y48109979D01*
X21265480Y48109979D01*
X21273988Y48383685D01*
X21282982Y48673033D01*
X21830396Y48691109D01*
X21830396Y47562565D01*
X20704288Y47562565D01*
G37*
G36*
X27554781Y46405176D02*
G01*
X25865618Y46405176D01*
X25865618Y46828095D01*
X26998410Y46828095D01*
X27002153Y46790972D01*
X27011562Y46786078D01*
X27023007Y46811826D01*
X27020750Y46828386D01*
X27002153Y46832680D01*
X26998410Y46828095D01*
X25865618Y46828095D01*
X25865618Y46936949D01*
X26092404Y46939364D01*
X26190183Y46940349D01*
X26340453Y46941784D01*
X26524764Y46943492D01*
X26728478Y46945337D01*
X26936961Y46947184D01*
X27554732Y46952589D01*
X27554744Y46811826D01*
X27554756Y46678882D01*
X27554781Y46405176D01*
G37*
G36*
X39003549Y53286949D02*
G01*
X38471776Y53286949D01*
X38471776Y54413057D01*
X39003549Y54413057D01*
X39003549Y53286949D01*
G37*
G36*
X27554781Y49846062D02*
G01*
X27023007Y49846062D01*
X27023007Y50377836D01*
X27554781Y50377836D01*
X27554781Y49846062D01*
G37*
G36*
X20673007Y51274552D02*
G01*
X20672834Y51231997D01*
X20670484Y51118203D01*
X20665960Y51035990D01*
X20659998Y51000845D01*
X20654394Y50998787D01*
X20601717Y50994117D01*
X20507191Y50991966D01*
X20386291Y50992788D01*
X20125593Y50997765D01*
X20107517Y51535225D01*
X20673007Y51535225D01*
X20673007Y51274552D01*
G37*
G36*
X20673007Y56727836D02*
G01*
X18983845Y56727836D01*
X18983845Y58416998D01*
X20673007Y58416998D01*
X20673007Y56727836D01*
G37*
G36*
X26991726Y57853944D02*
G01*
X25865618Y57853944D01*
X25865618Y58416998D01*
X26991726Y58416998D01*
X26991726Y57853944D01*
G37*
G36*
X37861800Y54397417D02*
G01*
X37878884Y53286949D01*
X37314386Y53286949D01*
X37314386Y54415493D01*
X37861800Y54397417D01*
G37*
G36*
X34432742Y58693091D02*
G01*
X34427934Y58562748D01*
X34421728Y58473745D01*
X34414538Y58436690D01*
X34409416Y58433856D01*
X34355965Y58425688D01*
X34260938Y58422026D01*
X34140831Y58423656D01*
X33889140Y58432639D01*
X33871638Y58995693D01*
X34342712Y58995693D01*
X34358352Y58980052D01*
X34373992Y58995693D01*
X34358352Y59011333D01*
X34342712Y58995693D01*
X33871638Y58995693D01*
X33871152Y59011333D01*
X33310446Y59011333D01*
X33310446Y59543107D01*
X34436554Y59543107D01*
X34436554Y59000906D01*
X34436525Y58995693D01*
X34435739Y58854162D01*
X34432742Y58693091D01*
G37*
G36*
X24708229Y53286949D02*
G01*
X24708229Y53333870D01*
X25271283Y53333870D01*
X25286923Y53318230D01*
X25302564Y53333870D01*
X25286923Y53349511D01*
X25271283Y53333870D01*
X24708229Y53333870D01*
X24708229Y53458993D01*
X25271283Y53458993D01*
X25286923Y53443353D01*
X25302564Y53458993D01*
X25286923Y53474634D01*
X25271283Y53458993D01*
X24708229Y53458993D01*
X24708229Y53771801D01*
X25271283Y53771801D01*
X25286923Y53756161D01*
X25302564Y53771801D01*
X25286923Y53787442D01*
X25271283Y53771801D01*
X24708229Y53771801D01*
X24708229Y53818722D01*
X25834337Y53818722D01*
X25834337Y53286949D01*
X24708229Y53286949D01*
G37*
G36*
X29858768Y55706264D02*
G01*
X29857614Y55681990D01*
X29850063Y55511802D01*
X29843919Y55354186D01*
X29839789Y55225777D01*
X29838278Y55143210D01*
X29838278Y55007392D01*
X29316159Y55007392D01*
X29295818Y55406222D01*
X29288147Y55568626D01*
X29281535Y55732846D01*
X29277039Y55872755D01*
X29275351Y55969277D01*
X29275224Y56133501D01*
X29879258Y56133501D01*
X29858768Y55706264D01*
G37*
G36*
X24113894Y59011333D02*
G01*
X23550840Y59011333D01*
X23550840Y58414563D01*
X23003426Y58432639D01*
X23003426Y59011424D01*
X22714079Y59011379D01*
X22424731Y59011333D01*
X22424731Y59543107D01*
X24113894Y59543107D01*
X24113894Y59011333D01*
G37*
G36*
X37298746Y54960471D02*
G01*
X37292058Y54694584D01*
X37290836Y54646616D01*
X37287823Y54533704D01*
X37285482Y54453482D01*
X37284238Y54420878D01*
X37279505Y54419441D01*
X37229801Y54416177D01*
X37137557Y54413908D01*
X37017219Y54413057D01*
X36751332Y54413057D01*
X36751332Y54978547D01*
X37298746Y54960471D01*
G37*
G36*
X35593943Y54413057D02*
G01*
X35030889Y54413057D01*
X35030889Y54976112D01*
X35593943Y54976112D01*
X35593943Y54413057D01*
G37*
G36*
X24695543Y54974045D02*
G01*
X24859486Y54973643D01*
X25070583Y54973568D01*
X25268859Y54973947D01*
X25437735Y54974746D01*
X25560630Y54975928D01*
X25834337Y54979877D01*
X25834337Y54414893D01*
X24421223Y54413710D01*
X24186245Y54413361D01*
X23910529Y54412539D01*
X23659600Y54411339D01*
X23439755Y54409814D01*
X23257289Y54408018D01*
X23118499Y54406004D01*
X23029678Y54403828D01*
X22997124Y54401542D01*
X22994015Y54375793D01*
X22991772Y54319215D01*
X22990869Y54296433D01*
X22988375Y54173649D01*
X22986731Y54017676D01*
X22986435Y53928205D01*
X22986139Y53838753D01*
X22986139Y53286949D01*
X22424731Y53286949D01*
X22424731Y53850003D01*
X21830396Y53850003D01*
X21830396Y53286949D01*
X21263577Y53286949D01*
X21269861Y53572878D01*
X21276146Y53858807D01*
X20990217Y53852522D01*
X20704288Y53846238D01*
X20704288Y53928205D01*
X21830396Y53928205D01*
X21846037Y53912565D01*
X21861677Y53928205D01*
X21846037Y53943846D01*
X21830396Y53928205D01*
X20704288Y53928205D01*
X20704288Y54303575D01*
X21830396Y54303575D01*
X21846037Y54287934D01*
X21861677Y54303575D01*
X21846037Y54319215D01*
X21830396Y54303575D01*
X20704288Y54303575D01*
X20704288Y54334855D01*
X21236061Y54334855D01*
X21251702Y54319215D01*
X21267342Y54334855D01*
X21266713Y54335484D01*
X22400134Y54335484D01*
X22400197Y54334855D01*
X22403351Y54303575D01*
X22403877Y54298361D01*
X22413286Y54293467D01*
X22424731Y54319215D01*
X22422474Y54335775D01*
X22403877Y54340069D01*
X22400134Y54335484D01*
X21266713Y54335484D01*
X21251702Y54350496D01*
X21236061Y54334855D01*
X20704288Y54334855D01*
X20704288Y54413057D01*
X20109953Y54413057D01*
X20109953Y53284513D01*
X19562539Y53302589D01*
X19562539Y53850039D01*
X19265372Y53850044D01*
X18968204Y53850048D01*
X18968365Y53834363D01*
X18969009Y53771801D01*
X18973519Y53333870D01*
X18976956Y53000046D01*
X18978691Y52799346D01*
X18979334Y52575911D01*
X18977801Y52404755D01*
X18973879Y52279965D01*
X18968297Y52207762D01*
X18967359Y52195626D01*
X18958028Y52145822D01*
X18945676Y52124641D01*
X18922334Y52105726D01*
X18939733Y52100316D01*
X18944744Y52098758D01*
X18953206Y52096048D01*
X18970895Y52059087D01*
X18979006Y51988796D01*
X18980774Y51973475D01*
X18983845Y51832392D01*
X18983845Y51566506D01*
X18389510Y51566506D01*
X18389514Y51550865D01*
X18389583Y51277158D01*
X18389656Y50987811D01*
X18123696Y50997930D01*
X17857736Y51008048D01*
X17857736Y51546670D01*
X18176077Y51546670D01*
X18201825Y51535225D01*
X18218385Y51537482D01*
X18221475Y51550865D01*
X18295667Y51550865D01*
X18311308Y51535225D01*
X18326948Y51550865D01*
X18311308Y51566506D01*
X18295667Y51550865D01*
X18221475Y51550865D01*
X18222679Y51556079D01*
X18218094Y51559822D01*
X18180971Y51556079D01*
X18176077Y51546670D01*
X17857736Y51546670D01*
X17857736Y51988796D01*
X18389510Y51988796D01*
X18405150Y51973156D01*
X18420790Y51988796D01*
X18405150Y52004437D01*
X18389510Y51988796D01*
X17857736Y51988796D01*
X17857736Y52109724D01*
X18301200Y52109724D01*
X18326948Y52098279D01*
X18343508Y52100537D01*
X18347802Y52119133D01*
X18343217Y52122877D01*
X18306094Y52119133D01*
X18301200Y52109724D01*
X17857736Y52109724D01*
X17857736Y52158804D01*
X18397179Y52158804D01*
X18405150Y52129560D01*
X18411577Y52120300D01*
X18413090Y52119133D01*
X18440123Y52098279D01*
X18444402Y52100316D01*
X18436431Y52129560D01*
X18430004Y52138820D01*
X18401458Y52160841D01*
X18397179Y52158804D01*
X17857736Y52158804D01*
X17857736Y52207762D01*
X18389510Y52207762D01*
X18405150Y52192121D01*
X18420790Y52207762D01*
X18405150Y52223402D01*
X18389510Y52207762D01*
X17857736Y52207762D01*
X17857736Y52692614D01*
X18416497Y52692614D01*
X18426464Y52989852D01*
X18436431Y53287089D01*
X18147083Y53287019D01*
X17857736Y53286949D01*
X17857736Y53333870D01*
X18389510Y53333870D01*
X18405150Y53318230D01*
X18420790Y53333870D01*
X18405150Y53349511D01*
X18389510Y53333870D01*
X17857736Y53333870D01*
X17857736Y53771801D01*
X18389510Y53771801D01*
X18405150Y53756161D01*
X18420790Y53771801D01*
X18405150Y53787442D01*
X18389510Y53771801D01*
X17857736Y53771801D01*
X17857736Y53834363D01*
X18389510Y53834363D01*
X18405150Y53818722D01*
X18420790Y53834363D01*
X18405150Y53850003D01*
X18389510Y53834363D01*
X17857736Y53834363D01*
X17857736Y54334855D01*
X18389510Y54334855D01*
X18405150Y54319215D01*
X18420790Y54334855D01*
X18405150Y54350496D01*
X18389510Y54334855D01*
X17857736Y54334855D01*
X17857736Y54428698D01*
X18389510Y54428698D01*
X18405150Y54413057D01*
X18420790Y54428698D01*
X18405150Y54444338D01*
X18389510Y54428698D01*
X17857736Y54428698D01*
X17857736Y54897910D01*
X18389510Y54897910D01*
X18405150Y54882269D01*
X18420790Y54897910D01*
X18405150Y54913550D01*
X18389510Y54897910D01*
X17857736Y54897910D01*
X17857736Y54975874D01*
X18412970Y54968173D01*
X18968204Y54960471D01*
X18968204Y54412962D01*
X19271495Y54413010D01*
X19574785Y54413057D01*
X19567438Y54741506D01*
X20673007Y54741506D01*
X20688648Y54725865D01*
X20704288Y54741506D01*
X20688648Y54757146D01*
X20673007Y54741506D01*
X19567438Y54741506D01*
X19563939Y54897910D01*
X20673007Y54897910D01*
X20688648Y54882269D01*
X20704288Y54897910D01*
X20688648Y54913550D01*
X20673007Y54897910D01*
X19563939Y54897910D01*
X19562539Y54960471D01*
X20398134Y54967687D01*
X21233730Y54974904D01*
X21236174Y54897910D01*
X21241140Y54741506D01*
X21251702Y54408826D01*
X21838219Y54403121D01*
X22424736Y54397417D01*
X22424734Y54686764D01*
X22424731Y54976112D01*
X23582120Y54976112D01*
X23582108Y54991752D01*
X23613401Y54991752D01*
X23629042Y54976112D01*
X23644682Y54991752D01*
X24051332Y54991752D01*
X24066973Y54976112D01*
X24082613Y54991752D01*
X24066973Y55007392D01*
X24051332Y54991752D01*
X23644682Y54991752D01*
X23629042Y55007392D01*
X23613401Y54991752D01*
X23582108Y54991752D01*
X23582006Y55124695D01*
X23581920Y55139168D01*
X23579820Y55237380D01*
X23575335Y55377808D01*
X23569037Y55543882D01*
X23561500Y55719030D01*
X23541108Y56164782D01*
X22987785Y56164782D01*
X22987785Y55570447D01*
X22424731Y55570447D01*
X22424731Y56696555D01*
X22714079Y56696510D01*
X23003426Y56696464D01*
X23003426Y56712195D01*
X23050347Y56712195D01*
X23065987Y56696555D01*
X23081628Y56712195D01*
X23144189Y56712195D01*
X23159830Y56696555D01*
X23175470Y56712195D01*
X23159830Y56727836D01*
X23144189Y56712195D01*
X23081628Y56712195D01*
X23065987Y56727836D01*
X23050347Y56712195D01*
X23003426Y56712195D01*
X23003426Y57275249D01*
X23277133Y57284288D01*
X23550840Y57293326D01*
X23550840Y56696555D01*
X24104195Y56696555D01*
X24124269Y56277984D01*
X24130090Y56100006D01*
X24132538Y55866630D01*
X24130592Y55628936D01*
X24124253Y55417763D01*
X24104873Y54991752D01*
X24104162Y54976112D01*
X24695543Y54974045D01*
G37*
G36*
X38448315Y42972228D02*
G01*
X37893081Y42979929D01*
X37892213Y43042491D01*
X38440495Y43042491D01*
X38456135Y43026850D01*
X38471776Y43042491D01*
X38456135Y43058131D01*
X38440495Y43042491D01*
X37892213Y43042491D01*
X37890044Y43198895D01*
X38440495Y43198895D01*
X38456135Y43183254D01*
X38471776Y43198895D01*
X38456135Y43214535D01*
X38440495Y43198895D01*
X37890044Y43198895D01*
X37885379Y43535163D01*
X37877678Y44090397D01*
X38440495Y44090397D01*
X38440495Y43527343D01*
X39003549Y43527343D01*
X39003549Y42964526D01*
X38448315Y42972228D01*
G37*
G36*
X34436554Y44121678D02*
G01*
X33873500Y44121678D01*
X33873500Y44653451D01*
X34436554Y44653451D01*
X34436554Y44121678D01*
G37*
G36*
X28147469Y47551315D02*
G01*
X28146719Y47403612D01*
X28143988Y47242864D01*
X28139614Y47113022D01*
X28133973Y47024637D01*
X28127438Y46988260D01*
X28120979Y46985089D01*
X28065528Y46976485D01*
X27968771Y46970484D01*
X27846735Y46968230D01*
X27586061Y46968230D01*
X27586061Y48094338D01*
X28147469Y48094338D01*
X28147469Y47551315D01*
G37*
G36*
X24113894Y57290890D02*
G01*
X23582120Y57290890D01*
X23582120Y58416998D01*
X24113894Y58416998D01*
X24113894Y57290890D01*
G37*
G36*
X39003549Y44121678D02*
G01*
X38471776Y44121678D01*
X38471776Y44653451D01*
X39003549Y44653451D01*
X39003549Y44121678D01*
G37*
G36*
X36461985Y51528623D02*
G01*
X36735692Y51519584D01*
X36741380Y51262749D01*
X36747069Y51005913D01*
X36491134Y50996862D01*
X36454203Y50995664D01*
X36338315Y50993417D01*
X36252007Y50994033D01*
X36211739Y50997477D01*
X36207584Y51003385D01*
X36197716Y51056202D01*
X36190852Y51150902D01*
X36188278Y51272402D01*
X36188278Y51537661D01*
X36461985Y51528623D01*
G37*
G36*
X21830396Y41806900D02*
G01*
X21267342Y41806900D01*
X21267342Y42369954D01*
X21830396Y42369954D01*
X21830396Y41806900D01*
G37*
G36*
X15892912Y61472603D02*
G01*
X15907391Y61461344D01*
X15874013Y61453704D01*
X15842286Y61455916D01*
X15832957Y61470134D01*
X15844024Y61476332D01*
X15892912Y61472603D01*
G37*
G36*
X35593943Y50972171D02*
G01*
X35411169Y50972171D01*
X35326075Y50973399D01*
X35183706Y50977698D01*
X35017382Y50984359D01*
X34848115Y50992618D01*
X34467835Y51013066D01*
X34467835Y51525526D01*
X34895071Y51546016D01*
X34919346Y51547170D01*
X35089533Y51554721D01*
X35247149Y51560864D01*
X35375559Y51564994D01*
X35458125Y51566506D01*
X35593943Y51566506D01*
X35593943Y50972171D01*
G37*
G36*
X20668772Y46121622D02*
G01*
X20670589Y46001486D01*
X20668112Y45907488D01*
X20661706Y45857789D01*
X20657572Y45852325D01*
X20608132Y45833802D01*
X20519805Y45820466D01*
X20411340Y45813142D01*
X20301484Y45812651D01*
X20208986Y45819816D01*
X20152594Y45835458D01*
X20146440Y45843284D01*
X20133706Y45899040D01*
X20125386Y46008393D01*
X20121318Y46174290D01*
X20121338Y46389535D01*
X20547884Y46389535D01*
X20563524Y46373895D01*
X20579165Y46389535D01*
X20563524Y46405176D01*
X20547884Y46389535D01*
X20121338Y46389535D01*
X20121339Y46399678D01*
X20121750Y46452097D01*
X20673007Y46452097D01*
X20688648Y46436456D01*
X20704288Y46452097D01*
X20688648Y46467737D01*
X20673007Y46452097D01*
X20121750Y46452097D01*
X20125188Y46890028D01*
X20673007Y46890028D01*
X20688648Y46874387D01*
X20704288Y46890028D01*
X20688648Y46905668D01*
X20673007Y46890028D01*
X20125188Y46890028D01*
X20125593Y46941594D01*
X20469682Y46941272D01*
X20565781Y46941121D01*
X20739076Y46940600D01*
X20900583Y46939840D01*
X21024916Y46938949D01*
X21236061Y46936949D01*
X21236061Y46405176D01*
X20946714Y46405249D01*
X20657367Y46405323D01*
X20658009Y46389535D01*
X20667642Y46152679D01*
X20668772Y46121622D01*
G37*
G36*
X35593943Y49814782D02*
G01*
X35030889Y49814782D01*
X35030889Y50409116D01*
X35593943Y50409116D01*
X35593943Y49814782D01*
G37*
G36*
X22987785Y49251727D02*
G01*
X22424731Y49251727D01*
X22424731Y49814782D01*
X22987785Y49814782D01*
X22987785Y49251727D01*
G37*
G36*
X37877441Y39523402D02*
G01*
X36188278Y39523402D01*
X36188278Y41212565D01*
X37877441Y41212565D01*
X37877441Y39523402D01*
G37*
G36*
X29858995Y58377897D02*
G01*
X29860104Y58380011D01*
X29887571Y58394457D01*
X29952568Y58404955D01*
X30061344Y58411928D01*
X30220145Y58415801D01*
X30435220Y58416998D01*
X30995667Y58416998D01*
X30995667Y57853944D01*
X30416973Y57854016D01*
X30417222Y57838304D01*
X30417676Y57809630D01*
X30418212Y57775742D01*
X30423655Y57431653D01*
X30426129Y57275285D01*
X30435038Y56712195D01*
X30435285Y56696555D01*
X30995667Y56696555D01*
X30997122Y56589679D01*
X30999180Y56438488D01*
X30999761Y56401049D01*
X31003396Y56234136D01*
X31008676Y56047668D01*
X31014670Y55875434D01*
X31026648Y55570447D01*
X30432613Y55570447D01*
X30432613Y55867614D01*
X30431802Y55944823D01*
X30427127Y56057194D01*
X30419221Y56133732D01*
X30409152Y56161077D01*
X30402550Y56160556D01*
X30346151Y56159615D01*
X30248646Y56159789D01*
X30126382Y56161077D01*
X29867072Y56164782D01*
X29870019Y56590489D01*
X30437528Y56590489D01*
X30444995Y56548623D01*
X30455673Y56549107D01*
X30461424Y56589679D01*
X30456415Y56620426D01*
X30442525Y56608578D01*
X30437528Y56590489D01*
X29870019Y56590489D01*
X29870861Y56712195D01*
X30338771Y56712195D01*
X30354411Y56696555D01*
X30370051Y56712195D01*
X30354411Y56727836D01*
X30338771Y56712195D01*
X29870861Y56712195D01*
X29871023Y56735656D01*
X29871343Y56911299D01*
X29869841Y57068303D01*
X29866723Y57191621D01*
X29862236Y57271632D01*
X29856626Y57298710D01*
X29824293Y57296351D01*
X29738833Y57294177D01*
X29610713Y57292464D01*
X29450161Y57291348D01*
X29267404Y57290962D01*
X28696529Y57291034D01*
X28716679Y56725132D01*
X28132379Y56734304D01*
X27548080Y56743476D01*
X27570686Y56156961D01*
X27593292Y55570447D01*
X26982027Y55570447D01*
X27002517Y55997683D01*
X27009431Y56167387D01*
X27016459Y56404895D01*
X27021242Y56645979D01*
X27023007Y56858261D01*
X27023007Y57291603D01*
X27587074Y57287997D01*
X28151142Y57284392D01*
X28152303Y57431653D01*
X29838278Y57431653D01*
X29853918Y57416013D01*
X29869559Y57431653D01*
X29853918Y57447294D01*
X29838278Y57431653D01*
X28152303Y57431653D01*
X28155289Y57810439D01*
X29280139Y57810439D01*
X29287606Y57768574D01*
X29298284Y57769058D01*
X29299231Y57775742D01*
X29838278Y57775742D01*
X29853918Y57760102D01*
X29869559Y57775742D01*
X29853918Y57791382D01*
X29838278Y57775742D01*
X29299231Y57775742D01*
X29304035Y57809630D01*
X29299364Y57838304D01*
X29838278Y57838304D01*
X29853918Y57822663D01*
X29869559Y57838304D01*
X29853918Y57853944D01*
X29838278Y57838304D01*
X29299364Y57838304D01*
X29299026Y57840377D01*
X29285136Y57828528D01*
X29280139Y57810439D01*
X28155289Y57810439D01*
X28156248Y57932146D01*
X29275224Y57932146D01*
X29290864Y57916506D01*
X29306505Y57932146D01*
X29290864Y57947786D01*
X29275224Y57932146D01*
X28156248Y57932146D01*
X28156495Y57963427D01*
X29838278Y57963427D01*
X29853918Y57947786D01*
X29869559Y57963427D01*
X29853918Y57979067D01*
X29838278Y57963427D01*
X28156495Y57963427D01*
X28157949Y58147863D01*
X28158961Y58276235D01*
X29275224Y58276235D01*
X29290864Y58260594D01*
X29306505Y58276235D01*
X29838278Y58276235D01*
X29853918Y58260594D01*
X29869559Y58276235D01*
X29853918Y58291875D01*
X29838278Y58276235D01*
X29306505Y58276235D01*
X29290864Y58291875D01*
X29275224Y58276235D01*
X28158961Y58276235D01*
X28159701Y58370077D01*
X29275224Y58370077D01*
X29290864Y58354437D01*
X29306505Y58370077D01*
X29290864Y58385717D01*
X29275224Y58370077D01*
X28159701Y58370077D01*
X28160194Y58432639D01*
X28712170Y58432639D01*
X28727810Y58416998D01*
X28743450Y58432639D01*
X28727810Y58448279D01*
X28712170Y58432639D01*
X28160194Y58432639D01*
X28164633Y58995693D01*
X28712170Y58995693D01*
X28727810Y58980052D01*
X28743450Y58995693D01*
X28868574Y58995693D01*
X28884214Y58980052D01*
X28899854Y58995693D01*
X29212662Y58995693D01*
X29228303Y58980052D01*
X29243943Y58995693D01*
X29228303Y59011333D01*
X29212662Y58995693D01*
X28899854Y58995693D01*
X28884214Y59011333D01*
X28868574Y58995693D01*
X28743450Y58995693D01*
X28727810Y59011333D01*
X28712170Y58995693D01*
X28164633Y58995693D01*
X28164756Y59011335D01*
X27875409Y59011334D01*
X27586061Y59011333D01*
X27586061Y59543107D01*
X29275224Y59543107D01*
X29275152Y59253759D01*
X29275088Y58995693D01*
X29275080Y58964412D01*
X29838278Y58984492D01*
X29840748Y58661644D01*
X29842414Y58558713D01*
X29846565Y58454229D01*
X29848511Y58432639D01*
X29852328Y58390287D01*
X29858995Y58377897D01*
G37*
G36*
X38440495Y52129560D02*
G01*
X37314386Y52129560D01*
X37314386Y52692614D01*
X38440495Y52692614D01*
X38440495Y52129560D01*
G37*
G36*
X26991726Y38397294D02*
G01*
X26428672Y38397294D01*
X26428672Y38929067D01*
X26991726Y38929067D01*
X26991726Y38397294D01*
G37*
G36*
X37877441Y48688673D02*
G01*
X37314386Y48688673D01*
X37314386Y49251727D01*
X37877441Y49251727D01*
X37877441Y48688673D01*
G37*
G36*
X39003549Y45247786D02*
G01*
X38471776Y45247786D01*
X38471776Y45810841D01*
X39003549Y45810841D01*
X39003549Y45247786D01*
G37*
G36*
X18983845Y38397294D02*
G01*
X17857736Y38397294D01*
X17857736Y38929067D01*
X18983845Y38929067D01*
X18983845Y38397294D01*
G37*
G36*
X35030889Y38366013D02*
G01*
X35030889Y38960348D01*
X35593943Y38960348D01*
X38440495Y38960348D01*
X38440495Y41806900D01*
X35593943Y41806900D01*
X35593943Y38960348D01*
X35030889Y38960348D01*
X35030889Y42369954D01*
X39034830Y42369954D01*
X39034830Y38366013D01*
X35030889Y38366013D01*
G37*
G36*
X31871529Y58418082D02*
G01*
X31026948Y58416979D01*
X31026948Y58808008D01*
X31558721Y58808008D01*
X31574362Y58792368D01*
X31590002Y58808008D01*
X31574362Y58823649D01*
X31558721Y58808008D01*
X31026948Y58808008D01*
X31026948Y58984492D01*
X31590146Y58964412D01*
X31590138Y58995693D01*
X31965372Y58995693D01*
X31981012Y58980052D01*
X31996652Y58995693D01*
X31981012Y59011333D01*
X31965372Y58995693D01*
X31590138Y58995693D01*
X31590074Y59253759D01*
X31590002Y59543107D01*
X32153056Y59543107D01*
X32153056Y58980052D01*
X32716111Y58980052D01*
X32716111Y58419186D01*
X31871529Y58418082D01*
G37*
G36*
X34436554Y55570447D02*
G01*
X33873500Y55570447D01*
X33873500Y56133501D01*
X34436554Y56133501D01*
X34436554Y55570447D01*
G37*
G36*
X34436554Y53286949D02*
G01*
X34147207Y53287022D01*
X33857859Y53287096D01*
X33868134Y53034452D01*
X33869235Y53003987D01*
X33870836Y52882972D01*
X33867876Y52787465D01*
X33860807Y52735938D01*
X33846183Y52717373D01*
X33801925Y52702401D01*
X33718610Y52696845D01*
X33584646Y52699161D01*
X33326086Y52708254D01*
X33309002Y53818722D01*
X33559970Y53818722D01*
X33592298Y53818658D01*
X33707752Y53817308D01*
X33794013Y53814564D01*
X33834399Y53810902D01*
X33841107Y53819302D01*
X33853134Y53875665D01*
X33864522Y53973681D01*
X33873500Y54100249D01*
X33889140Y54397417D01*
X34436554Y54415493D01*
X34436554Y53286949D01*
G37*
G36*
X31584143Y54772786D02*
G01*
X31584134Y54710225D01*
X31584091Y54428698D01*
X31860753Y54413057D01*
X32137416Y54397417D01*
X32138388Y54366136D01*
X32141791Y54256653D01*
X32146410Y54108070D01*
X32155404Y53818722D01*
X32716111Y53818722D01*
X32716111Y53286949D01*
X31590002Y53286949D01*
X31590002Y53850003D01*
X31026948Y53850003D01*
X31026993Y54139350D01*
X31027014Y54272923D01*
X31565405Y54272923D01*
X31569148Y54235800D01*
X31578557Y54230906D01*
X31590002Y54256653D01*
X31587745Y54273213D01*
X31569148Y54277507D01*
X31565405Y54272923D01*
X31027014Y54272923D01*
X31027029Y54366136D01*
X31558721Y54366136D01*
X31574362Y54350496D01*
X31590002Y54366136D01*
X31574362Y54381777D01*
X31558721Y54366136D01*
X31027029Y54366136D01*
X31027039Y54428698D01*
X30457803Y54428698D01*
X30459284Y54671124D01*
X30459431Y54694193D01*
X30460061Y54772786D01*
X30995667Y54772786D01*
X31011308Y54757146D01*
X31026948Y54772786D01*
X31011308Y54788427D01*
X30995667Y54772786D01*
X30460061Y54772786D01*
X30460369Y54811136D01*
X30461361Y54897910D01*
X30995667Y54897910D01*
X31011308Y54882269D01*
X31026948Y54897910D01*
X31011308Y54913550D01*
X30995667Y54897910D01*
X30461361Y54897910D01*
X30461401Y54901403D01*
X30462330Y54947051D01*
X30462471Y54948188D01*
X30497384Y54964810D01*
X30592322Y54972300D01*
X30745493Y54970511D01*
X31027092Y54960471D01*
X31027084Y54991752D01*
X31058229Y54991752D01*
X31073869Y54976112D01*
X31089510Y54991752D01*
X31073869Y55007392D01*
X31058229Y54991752D01*
X31027084Y54991752D01*
X31027068Y55054314D01*
X31558721Y55054314D01*
X31574362Y55038673D01*
X31590002Y55054314D01*
X31574362Y55069954D01*
X31558721Y55054314D01*
X31027068Y55054314D01*
X31027045Y55148156D01*
X31558721Y55148156D01*
X31574362Y55132515D01*
X31590002Y55148156D01*
X31574362Y55163796D01*
X31558721Y55148156D01*
X31027045Y55148156D01*
X31027020Y55249818D01*
X31026948Y55539166D01*
X31590002Y55539166D01*
X31590002Y56133501D01*
X32153056Y56133501D01*
X32153056Y55009740D01*
X31584176Y54991752D01*
X31584162Y54897910D01*
X31584143Y54772786D01*
G37*
G36*
X37877441Y44121678D02*
G01*
X37314386Y44121678D01*
X37314386Y44653451D01*
X37877441Y44653451D01*
X37877441Y44121678D01*
G37*
G36*
X33310446Y49846062D02*
G01*
X33310446Y50393476D01*
X33404288Y50393476D01*
X33419928Y50377836D01*
X33435569Y50393476D01*
X33685815Y50393476D01*
X33701455Y50377836D01*
X33717096Y50393476D01*
X33701455Y50409116D01*
X33685815Y50393476D01*
X33435569Y50393476D01*
X33419928Y50409116D01*
X33404288Y50393476D01*
X33310446Y50393476D01*
X33310446Y50974606D01*
X33584152Y50965568D01*
X33857859Y50956530D01*
X33865669Y50393476D01*
X33873263Y49846062D01*
X33310446Y49846062D01*
G37*
G36*
X20673007Y44121678D02*
G01*
X20116993Y44121678D01*
X20115611Y44387565D01*
X20114228Y44653451D01*
X20673007Y44653451D01*
X20673007Y44121678D01*
G37*
G36*
X35593943Y47531284D02*
G01*
X35030889Y47531284D01*
X35030889Y48125619D01*
X35593943Y48125619D01*
X35593943Y47531284D01*
G37*
G36*
X38440495Y44684732D02*
G01*
X37875005Y44684732D01*
X37893081Y45232146D01*
X38440495Y45250222D01*
X38440495Y44684732D01*
G37*
G36*
X37877441Y56727836D02*
G01*
X36188278Y56727836D01*
X36188278Y58416998D01*
X37877441Y58416998D01*
X37877441Y56727836D01*
G37*
G36*
X38151148Y49838745D02*
G01*
X37298746Y49830422D01*
X37298285Y49767860D01*
X37298055Y49736580D01*
X37296672Y49548895D01*
X37295750Y49423772D01*
X37295058Y49329929D01*
X37294597Y49267368D01*
X37022965Y49258330D01*
X36751332Y49249292D01*
X36751332Y48989836D01*
X36751082Y48949518D01*
X36747353Y48833864D01*
X36740085Y48748488D01*
X36730478Y48709527D01*
X36723920Y48706235D01*
X36668140Y48697273D01*
X36571120Y48691022D01*
X36448951Y48688673D01*
X36188278Y48688673D01*
X36188278Y49251727D01*
X35909045Y49251727D01*
X35778641Y49251859D01*
X35689534Y49259343D01*
X35638725Y49285218D01*
X35620833Y49329929D01*
X36156997Y49329929D01*
X36172638Y49314289D01*
X36188278Y49329929D01*
X36172638Y49345570D01*
X36156997Y49329929D01*
X35620833Y49329929D01*
X35616593Y49340526D01*
X35613920Y49423772D01*
X36156997Y49423772D01*
X36172638Y49408131D01*
X36188278Y49423772D01*
X36172638Y49439412D01*
X36156997Y49423772D01*
X35613920Y49423772D01*
X35613517Y49436311D01*
X35619875Y49583615D01*
X35626685Y49736580D01*
X36720051Y49736580D01*
X36735692Y49720939D01*
X36751332Y49736580D01*
X36735692Y49752220D01*
X36720051Y49736580D01*
X35626685Y49736580D01*
X35628077Y49767860D01*
X36156997Y49767860D01*
X36172638Y49752220D01*
X36188278Y49767860D01*
X36172638Y49783501D01*
X36156997Y49767860D01*
X35628077Y49767860D01*
X35630166Y49814782D01*
X36198570Y49814746D01*
X36766973Y49814710D01*
X36766724Y49830422D01*
X36813894Y49830422D01*
X36829534Y49814782D01*
X36845175Y49830422D01*
X37220544Y49830422D01*
X37236184Y49814782D01*
X37251825Y49830422D01*
X37236184Y49846062D01*
X37220544Y49830422D01*
X36845175Y49830422D01*
X36829534Y49846062D01*
X36813894Y49830422D01*
X36766724Y49830422D01*
X36758798Y50330915D01*
X37877441Y50330915D01*
X37893081Y50315274D01*
X37908721Y50330915D01*
X38440495Y50330915D01*
X38456135Y50315274D01*
X38471776Y50330915D01*
X38456135Y50346555D01*
X38440495Y50330915D01*
X37908721Y50330915D01*
X37893081Y50346555D01*
X37877441Y50330915D01*
X36758798Y50330915D01*
X36757807Y50393476D01*
X37189263Y50393476D01*
X37204904Y50377836D01*
X37220544Y50393476D01*
X37217285Y50396735D01*
X37260297Y50396735D01*
X37260445Y50393476D01*
X37260781Y50386056D01*
X37301353Y50380305D01*
X37332100Y50385314D01*
X37325138Y50393476D01*
X37376948Y50393476D01*
X37392588Y50377836D01*
X37408229Y50393476D01*
X37689756Y50393476D01*
X37705396Y50377836D01*
X37721037Y50393476D01*
X37752317Y50393476D01*
X37767958Y50377836D01*
X37779403Y50389281D01*
X37851693Y50389281D01*
X37877441Y50377836D01*
X37894001Y50380093D01*
X37898294Y50398690D01*
X37893710Y50402433D01*
X37856587Y50398690D01*
X37853875Y50393476D01*
X37851693Y50389281D01*
X37779403Y50389281D01*
X37783598Y50393476D01*
X37767958Y50409116D01*
X37752317Y50393476D01*
X37721037Y50393476D01*
X37705396Y50409116D01*
X37689756Y50393476D01*
X37408229Y50393476D01*
X37392588Y50409116D01*
X37376948Y50393476D01*
X37325138Y50393476D01*
X37320252Y50399204D01*
X37302163Y50404202D01*
X37260297Y50396735D01*
X37217285Y50396735D01*
X37204904Y50409116D01*
X37189263Y50393476D01*
X36757807Y50393476D01*
X36748677Y50969980D01*
X37596732Y50971088D01*
X38444788Y50972196D01*
X38434821Y50674946D01*
X38425558Y50398690D01*
X38424854Y50377695D01*
X38714202Y50377766D01*
X39003549Y50377836D01*
X39003549Y49847068D01*
X38151148Y49838745D01*
G37*
G36*
X31871529Y56728920D02*
G01*
X31026948Y56730023D01*
X31026948Y57243969D01*
X31558721Y57243969D01*
X31574362Y57228328D01*
X31590002Y57243969D01*
X31574362Y57259609D01*
X31558721Y57243969D01*
X31026948Y57243969D01*
X31026948Y57293377D01*
X32162106Y57285521D01*
X32155702Y57551824D01*
X32149297Y57818127D01*
X32432776Y57828215D01*
X32716254Y57838304D01*
X32716182Y57283060D01*
X32716177Y57243969D01*
X32716111Y56727816D01*
X31871529Y56728920D01*
G37*
G36*
X33584152Y57285125D02*
G01*
X33857859Y57275249D01*
X33865561Y56720015D01*
X33873263Y56164782D01*
X33802999Y56162408D01*
X33744217Y56161821D01*
X33641219Y56162535D01*
X33521591Y56164507D01*
X33310446Y56168979D01*
X33310446Y55570447D01*
X32716111Y55570447D01*
X32716111Y55706264D01*
X32716143Y55714588D01*
X32718064Y55804693D01*
X32722517Y55938274D01*
X32728898Y56098694D01*
X32736600Y56269318D01*
X32757090Y56696555D01*
X33310446Y56696555D01*
X33310446Y57295000D01*
X33584152Y57285125D01*
G37*
G36*
X28149115Y42401235D02*
G01*
X27586061Y42401235D01*
X27586061Y42933008D01*
X28149115Y42933008D01*
X28149115Y42401235D01*
G37*
G36*
X32747391Y48688673D02*
G01*
X32747437Y48978020D01*
X32747482Y49267368D01*
X32168697Y49267368D01*
X32168697Y49736580D01*
X32716111Y49736580D01*
X32731751Y49720939D01*
X32747391Y49736580D01*
X32731751Y49752220D01*
X32716111Y49736580D01*
X32168697Y49736580D01*
X32168697Y49799141D01*
X33279165Y49816225D01*
X33279165Y48688673D01*
X32747391Y48688673D01*
G37*
G36*
X21236061Y52690084D02*
G01*
X20977995Y52699169D01*
X20719928Y52708254D01*
X20701852Y53255668D01*
X21236061Y53255668D01*
X21236061Y52690084D01*
G37*
G36*
X31589234Y47562565D02*
G01*
X30995667Y47562565D01*
X30995667Y46405176D01*
X30416973Y46405316D01*
X30419600Y46326974D01*
X30426939Y46108078D01*
X30434284Y45889043D01*
X30436382Y45826481D01*
X30436906Y45810841D01*
X31026948Y45810841D01*
X31026948Y45826481D01*
X31089510Y45826481D01*
X31105150Y45810841D01*
X31120790Y45826481D01*
X31433598Y45826481D01*
X31449239Y45810841D01*
X31464879Y45826481D01*
X31449239Y45842121D01*
X31433598Y45826481D01*
X31120790Y45826481D01*
X31105150Y45842121D01*
X31089510Y45826481D01*
X31026948Y45826481D01*
X31026948Y46373895D01*
X31581490Y46373895D01*
X31587001Y46136186D01*
X31586338Y46023638D01*
X31575553Y45912763D01*
X31554682Y45852894D01*
X31537941Y45827071D01*
X31538257Y45826481D01*
X31545606Y45812780D01*
X31559665Y45813923D01*
X31627071Y45815376D01*
X31733636Y45815613D01*
X31863709Y45814545D01*
X32153056Y45810841D01*
X32153056Y44680439D01*
X31574362Y44700373D01*
X31580410Y44411025D01*
X31582208Y44325003D01*
X31586459Y44121678D01*
X30995667Y44121678D01*
X30995667Y43529749D01*
X29869559Y43529749D01*
X29869559Y43605545D01*
X30432613Y43605545D01*
X30448253Y43589905D01*
X30463894Y43605545D01*
X30448253Y43621185D01*
X30432613Y43605545D01*
X29869559Y43605545D01*
X29869559Y44090397D01*
X30454604Y44090397D01*
X30451965Y44324367D01*
X30999296Y44324367D01*
X31004928Y44238551D01*
X31010438Y44223704D01*
X31016013Y44250820D01*
X31018001Y44325003D01*
X31016594Y44382853D01*
X31011668Y44416662D01*
X31004502Y44394955D01*
X30999296Y44324367D01*
X30451965Y44324367D01*
X30451429Y44371897D01*
X30448253Y44653397D01*
X30737601Y44653424D01*
X31026948Y44653451D01*
X31027020Y45263427D01*
X31558721Y45263427D01*
X31574362Y45247786D01*
X31590002Y45263427D01*
X31574362Y45279067D01*
X31558721Y45263427D01*
X31027020Y45263427D01*
X30448289Y45254271D01*
X29869559Y45245115D01*
X29869569Y45357898D01*
X31565405Y45357898D01*
X31569148Y45320775D01*
X31578557Y45315881D01*
X31590002Y45341629D01*
X31587745Y45358189D01*
X31569148Y45362483D01*
X31565405Y45357898D01*
X29869569Y45357898D01*
X29869575Y45420459D01*
X30439296Y45420459D01*
X30443040Y45383337D01*
X30452449Y45378443D01*
X30463894Y45404190D01*
X30461636Y45420750D01*
X30443040Y45425044D01*
X30439296Y45420459D01*
X29869575Y45420459D01*
X29869585Y45535798D01*
X29869603Y45732639D01*
X30995667Y45732639D01*
X31011308Y45716998D01*
X31026948Y45732639D01*
X31558721Y45732639D01*
X31574362Y45716998D01*
X31590002Y45732639D01*
X31574362Y45748279D01*
X31558721Y45732639D01*
X31026948Y45732639D01*
X31011308Y45748279D01*
X30995667Y45732639D01*
X29869603Y45732639D01*
X29869612Y45826481D01*
X29900840Y45826481D01*
X29916480Y45810841D01*
X29932120Y45826481D01*
X30182367Y45826481D01*
X30198007Y45810841D01*
X30213648Y45826481D01*
X30276209Y45826481D01*
X30291849Y45810841D01*
X30307490Y45826481D01*
X30338771Y45826481D01*
X30354411Y45810841D01*
X30370051Y45826481D01*
X30354411Y45842121D01*
X30338771Y45826481D01*
X30307490Y45826481D01*
X30291849Y45842121D01*
X30276209Y45826481D01*
X30213648Y45826481D01*
X30198007Y45842121D01*
X30182367Y45826481D01*
X29932120Y45826481D01*
X29916480Y45842121D01*
X29900840Y45826481D01*
X29869612Y45826481D01*
X29588058Y45820048D01*
X29306505Y45813616D01*
X29306505Y45889043D01*
X29838278Y45889043D01*
X29853918Y45873402D01*
X29869559Y45889043D01*
X29853918Y45904683D01*
X29838278Y45889043D01*
X29306505Y45889043D01*
X29306505Y46326974D01*
X29838278Y46326974D01*
X29853918Y46311333D01*
X29869559Y46326974D01*
X29853918Y46342614D01*
X29838278Y46326974D01*
X29306505Y46326974D01*
X29306505Y46373895D01*
X29595852Y46373864D01*
X29885199Y46373834D01*
X29884066Y46452097D01*
X30432613Y46452097D01*
X30448253Y46436456D01*
X30463894Y46452097D01*
X30448253Y46467737D01*
X30432613Y46452097D01*
X29884066Y46452097D01*
X29878630Y46827466D01*
X30432613Y46827466D01*
X30448253Y46811826D01*
X30463894Y46827466D01*
X30448253Y46843107D01*
X30432613Y46827466D01*
X29878630Y46827466D01*
X29876818Y46952559D01*
X29876818Y46952589D01*
X30213648Y46952589D01*
X30229288Y46936949D01*
X30244928Y46952589D01*
X30338771Y46952589D01*
X30354411Y46936949D01*
X30370051Y46952589D01*
X30495175Y46952589D01*
X30510815Y46936949D01*
X30526455Y46952589D01*
X30557736Y46952589D01*
X30573377Y46936949D01*
X30589017Y46952589D01*
X30620298Y46952589D01*
X30635938Y46936949D01*
X30651579Y46952589D01*
X30635938Y46968230D01*
X30620298Y46952589D01*
X30589017Y46952589D01*
X30573377Y46968230D01*
X30557736Y46952589D01*
X30526455Y46952589D01*
X30510815Y46968230D01*
X30495175Y46952589D01*
X30370051Y46952589D01*
X30354411Y46968230D01*
X30338771Y46952589D01*
X30244928Y46952589D01*
X30229288Y46968230D01*
X30213648Y46952589D01*
X29876818Y46952589D01*
X29876365Y46983870D01*
X30432613Y46983870D01*
X30448253Y46968230D01*
X30463894Y46983870D01*
X30448253Y46999511D01*
X30432613Y46983870D01*
X29876365Y46983870D01*
X29875459Y47046432D01*
X30432613Y47046432D01*
X30448253Y47030791D01*
X30463894Y47046432D01*
X30448253Y47062072D01*
X30432613Y47046432D01*
X29875459Y47046432D01*
X29874091Y47140903D01*
X30439296Y47140903D01*
X30443040Y47103780D01*
X30452449Y47098886D01*
X30463894Y47124634D01*
X30461636Y47141194D01*
X30443040Y47145488D01*
X30439296Y47140903D01*
X29874091Y47140903D01*
X29869117Y47484363D01*
X30432613Y47484363D01*
X30448253Y47468722D01*
X30463894Y47484363D01*
X30448253Y47500003D01*
X30432613Y47484363D01*
X29869117Y47484363D01*
X29868438Y47531284D01*
X30166166Y47531284D01*
X30243876Y47532103D01*
X30356287Y47536783D01*
X30432841Y47544685D01*
X30438928Y47546924D01*
X30557736Y47546924D01*
X30573377Y47531284D01*
X30589017Y47546924D01*
X30651579Y47546924D01*
X30667219Y47531284D01*
X30682859Y47546924D01*
X30667219Y47562565D01*
X30651579Y47546924D01*
X30589017Y47546924D01*
X30573377Y47562565D01*
X30557736Y47546924D01*
X30438928Y47546924D01*
X30460190Y47554745D01*
X30459679Y47561110D01*
X30458858Y47609486D01*
X30995667Y47609486D01*
X31011308Y47593846D01*
X31026948Y47609486D01*
X31011308Y47625126D01*
X30995667Y47609486D01*
X30458858Y47609486D01*
X30458729Y47617120D01*
X30458880Y47703328D01*
X30995667Y47703328D01*
X31011308Y47687688D01*
X31026948Y47703328D01*
X31011308Y47718969D01*
X30995667Y47703328D01*
X30458880Y47703328D01*
X30458899Y47714306D01*
X30460190Y47836272D01*
X30462772Y48016136D01*
X30995667Y48016136D01*
X31011308Y48000496D01*
X31026948Y48016136D01*
X31011308Y48031777D01*
X30995667Y48016136D01*
X30462772Y48016136D01*
X30463894Y48094338D01*
X31026948Y48094338D01*
X31026948Y48109979D01*
X31058229Y48109979D01*
X31073869Y48094338D01*
X31089510Y48109979D01*
X31152071Y48109979D01*
X31167712Y48094338D01*
X31183352Y48109979D01*
X31167712Y48125619D01*
X31152071Y48109979D01*
X31089510Y48109979D01*
X31073869Y48125619D01*
X31058229Y48109979D01*
X31026948Y48109979D01*
X31026948Y48691109D01*
X31574362Y48673033D01*
X31581903Y48109979D01*
X31583160Y48016136D01*
X31587349Y47703328D01*
X31588606Y47609486D01*
X31589234Y47562565D01*
G37*
G36*
X32716111Y46113222D02*
G01*
X32715837Y46071988D01*
X32711886Y45955922D01*
X32704219Y45870043D01*
X32694095Y45830532D01*
X32688973Y45827699D01*
X32635522Y45819531D01*
X32540495Y45815869D01*
X32420388Y45817499D01*
X32168697Y45826481D01*
X32150621Y46373895D01*
X32716111Y46373895D01*
X32716111Y46113222D01*
G37*
G36*
X20103369Y51838977D02*
G01*
X20112425Y51564034D01*
X19565197Y51582146D01*
X19567749Y51848033D01*
X19570301Y52113919D01*
X20094313Y52113919D01*
X20103369Y51838977D01*
G37*
G36*
X25875317Y55007392D02*
G01*
X25868566Y55148156D01*
X26397391Y55148156D01*
X26413032Y55132515D01*
X26428672Y55148156D01*
X26413032Y55163796D01*
X26397391Y55148156D01*
X25868566Y55148156D01*
X25854827Y55434629D01*
X25853673Y55458903D01*
X25852194Y55492245D01*
X26397391Y55492245D01*
X26413032Y55476604D01*
X26428672Y55492245D01*
X26413032Y55507885D01*
X26397391Y55492245D01*
X25852194Y55492245D01*
X25846122Y55629091D01*
X25839978Y55786707D01*
X25835848Y55915116D01*
X25834337Y55997683D01*
X25834337Y56133501D01*
X26428672Y56133501D01*
X26428672Y55539166D01*
X26991726Y55539166D01*
X26991726Y55007392D01*
X25875317Y55007392D01*
G37*
G36*
X35593943Y45810841D02*
G01*
X35593943Y45247786D01*
X34999608Y45247786D01*
X34999608Y44684732D01*
X34469246Y44684732D01*
X34460720Y45252277D01*
X34452194Y45819823D01*
X33889140Y45817555D01*
X33880614Y45251144D01*
X33872088Y44684732D01*
X33310446Y44684732D01*
X33310446Y45810841D01*
X33873500Y45810841D01*
X33873500Y45826481D01*
X34499115Y45826481D01*
X34514756Y45810841D01*
X34530396Y45826481D01*
X34937047Y45826481D01*
X34952687Y45810841D01*
X34968327Y45826481D01*
X34952687Y45842121D01*
X34937047Y45826481D01*
X34530396Y45826481D01*
X34514756Y45842121D01*
X34499115Y45826481D01*
X33873500Y45826481D01*
X33873500Y46326974D01*
X34436554Y46326974D01*
X34452194Y46311333D01*
X34467835Y46326974D01*
X34452194Y46342614D01*
X34436554Y46326974D01*
X33873500Y46326974D01*
X33873500Y46373895D01*
X34999608Y46373895D01*
X34999608Y45810841D01*
X35593943Y45810841D01*
G37*
G36*
X32716111Y50972171D02*
G01*
X32716111Y50409116D01*
X31585709Y50409116D01*
X31605196Y50987811D01*
X32059214Y50987811D01*
X32074854Y50972171D01*
X32090495Y50987811D01*
X32074854Y51003451D01*
X32059214Y50987811D01*
X31605196Y50987811D01*
X31605643Y51001096D01*
X31316258Y50994454D01*
X31026874Y50987811D01*
X31026882Y51050373D01*
X31558721Y51050373D01*
X31574362Y51034732D01*
X31590002Y51050373D01*
X31574362Y51066013D01*
X31558721Y51050373D01*
X31026882Y51050373D01*
X31026899Y51175496D01*
X31558721Y51175496D01*
X31574362Y51159855D01*
X31590002Y51175496D01*
X31574362Y51191136D01*
X31558721Y51175496D01*
X31026899Y51175496D01*
X31026948Y51535225D01*
X31363216Y51538853D01*
X31478774Y51541089D01*
X31579457Y51545380D01*
X31593062Y51546670D01*
X31970905Y51546670D01*
X31996652Y51535225D01*
X32013212Y51537482D01*
X32016302Y51550865D01*
X32059214Y51550865D01*
X32074854Y51535225D01*
X32090495Y51550865D01*
X32074854Y51566506D01*
X32064428Y51556079D01*
X32059214Y51550865D01*
X32016302Y51550865D01*
X32017506Y51556079D01*
X32012922Y51559822D01*
X31975799Y51556079D01*
X31970905Y51546670D01*
X31593062Y51546670D01*
X31637748Y51550907D01*
X31643562Y51557015D01*
X31630415Y51561525D01*
X31608513Y51582298D01*
X31596963Y51627689D01*
X31593696Y51710301D01*
X31596641Y51842734D01*
X31605643Y52113919D01*
X33857859Y52113919D01*
X33866897Y51840213D01*
X33875935Y51566506D01*
X32137416Y51566506D01*
X32137416Y50972171D01*
X32716111Y50972171D01*
G37*
G36*
X17826455Y55570447D02*
G01*
X17826455Y56133501D01*
X18420790Y56133501D01*
X21267342Y56133501D01*
X21267342Y58980052D01*
X18420790Y58980052D01*
X18420790Y56133501D01*
X17826455Y56133501D01*
X17826455Y59574387D01*
X21830396Y59574387D01*
X21830396Y55570447D01*
X17826455Y55570447D01*
G37*
G36*
X33279165Y40649748D02*
G01*
X32723931Y40657449D01*
X32168697Y40665151D01*
X32150621Y41212565D01*
X32747391Y41212565D01*
X32747391Y41775619D01*
X33279165Y41775619D01*
X33279165Y40649748D01*
G37*
G36*
X31574362Y52708254D02*
G01*
X30995577Y52708254D01*
X30995667Y52129560D01*
X30463894Y52129560D01*
X30459984Y52379806D01*
X30459494Y52409649D01*
X30457074Y52527811D01*
X30454469Y52618769D01*
X30452164Y52664845D01*
X30451604Y52666993D01*
X30412699Y52685340D01*
X30316277Y52697858D01*
X30166726Y52703946D01*
X29885199Y52708254D01*
X29867123Y53255668D01*
X31592438Y53255668D01*
X31574362Y52708254D01*
G37*
G36*
X17860352Y43527343D02*
G01*
X17851224Y44129498D01*
X17849584Y44259605D01*
X17847748Y44517984D01*
X17847500Y44669092D01*
X17889017Y44669092D01*
X17904657Y44653451D01*
X17920298Y44669092D01*
X17904657Y44684732D01*
X17889017Y44669092D01*
X17847500Y44669092D01*
X17847303Y44789546D01*
X17848262Y45049048D01*
X17850638Y45271247D01*
X17859180Y45810841D01*
X18389510Y45810841D01*
X18389510Y43527343D01*
X17860352Y43527343D01*
G37*
G36*
X35593943Y44090397D02*
G01*
X35030889Y44090397D01*
X35030889Y44684732D01*
X35593943Y44684732D01*
X35593943Y44090397D01*
G37*
G36*
X34999608Y52994995D02*
G01*
X34999334Y52953767D01*
X34995377Y52837692D01*
X34987696Y52751797D01*
X34977554Y52712268D01*
X34974902Y52710463D01*
X34926572Y52701663D01*
X34835715Y52697631D01*
X34719487Y52699234D01*
X34483475Y52708254D01*
X34465399Y53255668D01*
X34999608Y53255668D01*
X34999608Y52994995D01*
G37*
G36*
X25857798Y52127476D02*
G01*
X25863766Y52127151D01*
X25919112Y52125766D01*
X26015760Y52124189D01*
X26137228Y52122702D01*
X26393197Y52120011D01*
X26393228Y52119133D01*
X26394536Y52082639D01*
X26403114Y51843187D01*
X26410225Y51644708D01*
X26413032Y51566362D01*
X26123684Y51566434D01*
X25834337Y51566506D01*
X25834337Y51284979D01*
X25833701Y51207553D01*
X25832143Y51175496D01*
X25827959Y51089413D01*
X25820570Y51050373D01*
X25815457Y51023358D01*
X25795236Y51002469D01*
X25761824Y51002086D01*
X25673975Y51001435D01*
X25543816Y51000627D01*
X25382231Y50999730D01*
X25200107Y50998811D01*
X25034185Y50997532D01*
X24876224Y50994515D01*
X24768461Y50989404D01*
X24755253Y50987811D01*
X24704012Y50981631D01*
X24675994Y50970631D01*
X24677523Y50955837D01*
X24678508Y50954556D01*
X24694037Y50900257D01*
X24694553Y50893969D01*
X24702239Y50800215D01*
X24702239Y50800126D01*
X24702128Y50768846D01*
X24701778Y50670148D01*
X24693759Y50456038D01*
X24692588Y50424757D01*
X24082613Y50408093D01*
X24050155Y50407195D01*
X23869500Y50401760D01*
X23716645Y50396429D01*
X23646068Y50393476D01*
X23600276Y50391560D01*
X23529079Y50387508D01*
X23511739Y50384632D01*
X23517538Y50382372D01*
X23536610Y50344487D01*
X23547425Y50256338D01*
X23550840Y50111949D01*
X23550840Y49846062D01*
X22983346Y49846062D01*
X23002863Y50393476D01*
X23112909Y50393476D01*
X23128549Y50377836D01*
X23144189Y50393476D01*
X23425716Y50393476D01*
X23441357Y50377836D01*
X23456997Y50393476D01*
X23441357Y50409116D01*
X23425716Y50393476D01*
X23144189Y50393476D01*
X23128549Y50409116D01*
X23112909Y50393476D01*
X23002863Y50393476D01*
X23003426Y50409260D01*
X22393450Y50409116D01*
X22393450Y49841622D01*
X22111852Y49851663D01*
X21830253Y49861703D01*
X21830260Y49830422D01*
X21830282Y49736580D01*
X21830324Y49556800D01*
X21830348Y49455052D01*
X21830363Y49392491D01*
X21830378Y49329929D01*
X21830396Y49251896D01*
X19546878Y49267368D01*
X19546879Y49236087D01*
X19546888Y48696493D01*
X19546888Y48673033D01*
X19546889Y48610471D01*
X19546890Y48547910D01*
X19546898Y48172540D01*
X19546899Y48125619D01*
X18983845Y48125619D01*
X18981659Y47883193D01*
X18981144Y47782305D01*
X18980952Y47627634D01*
X18981019Y47552138D01*
X18981120Y47439492D01*
X18981633Y47232922D01*
X18982477Y47022971D01*
X18982819Y46952589D01*
X18983731Y46764905D01*
X18985480Y46405176D01*
X17857736Y46405176D01*
X17857736Y46764905D01*
X18389510Y46764905D01*
X18405150Y46749264D01*
X18420790Y46764905D01*
X18405150Y46780545D01*
X18389510Y46764905D01*
X17857736Y46764905D01*
X17857736Y46997474D01*
X18397179Y46997474D01*
X18405150Y46968230D01*
X18411577Y46958970D01*
X18440123Y46936949D01*
X18444402Y46938986D01*
X18440694Y46952589D01*
X18608475Y46952589D01*
X18624115Y46936949D01*
X18639756Y46952589D01*
X18624115Y46968230D01*
X18608475Y46952589D01*
X18440694Y46952589D01*
X18436431Y46968230D01*
X18430004Y46977490D01*
X18401458Y46999511D01*
X18397179Y46997474D01*
X17857736Y46997474D01*
X17857736Y47531284D01*
X18436431Y47531284D01*
X18436431Y47542729D01*
X18488885Y47542729D01*
X18514633Y47531284D01*
X18531193Y47533541D01*
X18535487Y47552138D01*
X18530902Y47555882D01*
X18493779Y47552138D01*
X18488885Y47542729D01*
X18436431Y47542729D01*
X18436431Y48125619D01*
X17857736Y48125619D01*
X17857736Y48172540D01*
X18389510Y48172540D01*
X18405150Y48156900D01*
X18420790Y48172540D01*
X18952564Y48172540D01*
X18968204Y48156900D01*
X18983845Y48172540D01*
X18968204Y48188181D01*
X18952564Y48172540D01*
X18420790Y48172540D01*
X18405150Y48188181D01*
X18389510Y48172540D01*
X17857736Y48172540D01*
X17857736Y48547910D01*
X18389510Y48547910D01*
X18405150Y48532269D01*
X18420790Y48547910D01*
X18405150Y48563550D01*
X18389510Y48547910D01*
X17857736Y48547910D01*
X17857736Y48610471D01*
X18389510Y48610471D01*
X18405150Y48594831D01*
X18420790Y48610471D01*
X18405150Y48626112D01*
X18389510Y48610471D01*
X17857736Y48610471D01*
X17857736Y48673033D01*
X18389510Y48673033D01*
X18405150Y48657392D01*
X18420790Y48673033D01*
X18952564Y48673033D01*
X18968204Y48657392D01*
X18983845Y48673033D01*
X18968204Y48688673D01*
X18952564Y48673033D01*
X18420790Y48673033D01*
X18405150Y48688673D01*
X18389510Y48673033D01*
X17857736Y48673033D01*
X17857736Y49236087D01*
X18389510Y49236087D01*
X18983845Y49236087D01*
X18983845Y49329929D01*
X20109953Y49329929D01*
X20125593Y49314289D01*
X20141234Y49329929D01*
X20673007Y49329929D01*
X20688648Y49314289D01*
X20704288Y49329929D01*
X21236061Y49329929D01*
X21251702Y49314289D01*
X21267342Y49329929D01*
X21251702Y49345570D01*
X21236061Y49329929D01*
X20704288Y49329929D01*
X20688648Y49345570D01*
X20673007Y49329929D01*
X20141234Y49329929D01*
X20125593Y49345570D01*
X20109953Y49329929D01*
X18983845Y49329929D01*
X18983845Y49392491D01*
X21236061Y49392491D01*
X21251702Y49376850D01*
X21267342Y49392491D01*
X21251702Y49408131D01*
X21236061Y49392491D01*
X18983845Y49392491D01*
X18983845Y49455052D01*
X20109953Y49455052D01*
X20125593Y49439412D01*
X20141234Y49455052D01*
X21236061Y49455052D01*
X21251702Y49439412D01*
X21267342Y49455052D01*
X21251702Y49470693D01*
X21236061Y49455052D01*
X20141234Y49455052D01*
X20125593Y49470693D01*
X20109953Y49455052D01*
X18983845Y49455052D01*
X18983845Y49736580D01*
X20109953Y49736580D01*
X20125593Y49720939D01*
X20141234Y49736580D01*
X20673007Y49736580D01*
X20688648Y49720939D01*
X20704288Y49736580D01*
X21236061Y49736580D01*
X21251702Y49720939D01*
X21267342Y49736580D01*
X21251702Y49752220D01*
X21236061Y49736580D01*
X20704288Y49736580D01*
X20688648Y49752220D01*
X20673007Y49736580D01*
X20141234Y49736580D01*
X20125593Y49752220D01*
X20109953Y49736580D01*
X18983845Y49736580D01*
X18983845Y49830422D01*
X19015125Y49830422D01*
X19030766Y49814782D01*
X19046406Y49830422D01*
X19108968Y49830422D01*
X19124608Y49814782D01*
X19140249Y49830422D01*
X19453056Y49830422D01*
X19468697Y49814782D01*
X19484337Y49830422D01*
X19609460Y49830422D01*
X19625101Y49814782D01*
X19640741Y49830422D01*
X19625101Y49846062D01*
X19609460Y49830422D01*
X19484337Y49830422D01*
X19468697Y49846062D01*
X19453056Y49830422D01*
X19140249Y49830422D01*
X19124608Y49846062D01*
X19108968Y49830422D01*
X19046406Y49830422D01*
X19030766Y49846062D01*
X19015125Y49830422D01*
X18983845Y49830422D01*
X18983845Y49846062D01*
X18389510Y49846062D01*
X18389510Y49236087D01*
X17857736Y49236087D01*
X17857736Y49830422D01*
X18233106Y49830422D01*
X18248746Y49814782D01*
X18260191Y49826227D01*
X18301200Y49826227D01*
X18326948Y49814782D01*
X18343508Y49817039D01*
X18347802Y49835635D01*
X18343217Y49839379D01*
X18306094Y49835635D01*
X18303382Y49830422D01*
X18301200Y49826227D01*
X18260191Y49826227D01*
X18264386Y49830422D01*
X18248746Y49846062D01*
X18233106Y49830422D01*
X17857736Y49830422D01*
X17857736Y49924264D01*
X18389510Y49924264D01*
X18405150Y49908624D01*
X18420790Y49924264D01*
X18405150Y49939905D01*
X18389510Y49924264D01*
X17857736Y49924264D01*
X17857736Y50237072D01*
X18952564Y50237072D01*
X18968204Y50221432D01*
X18983845Y50237072D01*
X18968204Y50252713D01*
X18952564Y50237072D01*
X17857736Y50237072D01*
X17857736Y50330915D01*
X18389510Y50330915D01*
X18405150Y50315274D01*
X18420790Y50330915D01*
X18952564Y50330915D01*
X18968204Y50315274D01*
X18983845Y50330915D01*
X18968204Y50346555D01*
X18952564Y50330915D01*
X18420790Y50330915D01*
X18405150Y50346555D01*
X18389510Y50330915D01*
X17857736Y50330915D01*
X17857736Y50377836D01*
X18147083Y50377766D01*
X18436431Y50377695D01*
X18426435Y50676183D01*
X18416439Y50974670D01*
X18692321Y50965600D01*
X18968204Y50956530D01*
X18986192Y50377836D01*
X20114393Y50377836D01*
X20112709Y50330915D01*
X20109340Y50237072D01*
X20098112Y49924264D01*
X20094743Y49830422D01*
X20094313Y49818454D01*
X20399368Y49808798D01*
X20704424Y49799141D01*
X20704421Y49826227D01*
X20772383Y49826227D01*
X20798130Y49814782D01*
X20814690Y49817039D01*
X20817780Y49830422D01*
X21173500Y49830422D01*
X21189140Y49814782D01*
X21204781Y49830422D01*
X21236061Y49830422D01*
X21251702Y49814782D01*
X21267342Y49830422D01*
X21329904Y49830422D01*
X21345544Y49814782D01*
X21361184Y49830422D01*
X21736554Y49830422D01*
X21752194Y49814782D01*
X21767835Y49830422D01*
X21752194Y49846062D01*
X21736554Y49830422D01*
X21361184Y49830422D01*
X21345544Y49846062D01*
X21329904Y49830422D01*
X21267342Y49830422D01*
X21251702Y49846062D01*
X21236061Y49830422D01*
X21204781Y49830422D01*
X21189140Y49846062D01*
X21173500Y49830422D01*
X20817780Y49830422D01*
X20818984Y49835635D01*
X20814399Y49839379D01*
X20777276Y49835635D01*
X20772383Y49826227D01*
X20704421Y49826227D01*
X20704356Y50385411D01*
X20704356Y50389281D01*
X20834944Y50389281D01*
X20860692Y50377836D01*
X21236061Y50377836D01*
X21236420Y50370757D01*
X21249856Y50346555D01*
X21254873Y50347994D01*
X21282982Y50377836D01*
X21287870Y50389953D01*
X21284435Y50393476D01*
X21329904Y50393476D01*
X21345544Y50377836D01*
X21361184Y50393476D01*
X21736554Y50393476D01*
X21752194Y50377836D01*
X21767835Y50393476D01*
X21752194Y50409116D01*
X21736554Y50393476D01*
X21361184Y50393476D01*
X21345544Y50409116D01*
X21329904Y50393476D01*
X21284435Y50393476D01*
X21269188Y50409116D01*
X21260108Y50407914D01*
X21252734Y50398690D01*
X21236061Y50377836D01*
X20860692Y50377836D01*
X20877252Y50380093D01*
X20881546Y50398690D01*
X20876961Y50402433D01*
X20839838Y50398690D01*
X20834944Y50389281D01*
X20704356Y50389281D01*
X20704348Y50456038D01*
X21236061Y50456038D01*
X21251702Y50440397D01*
X21267342Y50456038D01*
X22393450Y50456038D01*
X22409091Y50440397D01*
X22424731Y50456038D01*
X22409091Y50471678D01*
X22393450Y50456038D01*
X21267342Y50456038D01*
X21251702Y50471678D01*
X21236061Y50456038D01*
X20704348Y50456038D01*
X20704312Y50768846D01*
X21236061Y50768846D01*
X21251702Y50753205D01*
X21267342Y50768846D01*
X21830396Y50768846D01*
X21846037Y50753205D01*
X21861677Y50768846D01*
X21846037Y50784486D01*
X21830396Y50768846D01*
X21267342Y50768846D01*
X21251702Y50784486D01*
X21236061Y50768846D01*
X20704312Y50768846D01*
X20704308Y50800126D01*
X24113894Y50800126D01*
X24129534Y50784486D01*
X24145175Y50800126D01*
X24129534Y50815767D01*
X24113894Y50800126D01*
X20704308Y50800126D01*
X20704297Y50894597D01*
X21242745Y50894597D01*
X21246488Y50857474D01*
X21255897Y50852581D01*
X21267342Y50878328D01*
X21265210Y50893969D01*
X22393450Y50893969D01*
X22409091Y50878328D01*
X22424731Y50893969D01*
X24113894Y50893969D01*
X24129534Y50878328D01*
X24145175Y50893969D01*
X24129534Y50909609D01*
X24113894Y50893969D01*
X22424731Y50893969D01*
X22409091Y50909609D01*
X22393450Y50893969D01*
X21265210Y50893969D01*
X21265085Y50894888D01*
X21246488Y50899182D01*
X21242745Y50894597D01*
X20704297Y50894597D01*
X20704288Y50971682D01*
X21556689Y50970584D01*
X21707160Y50970418D01*
X21986369Y50970234D01*
X22273128Y50970177D01*
X22549909Y50970247D01*
X22799184Y50970440D01*
X23003426Y50970756D01*
X23597761Y50972027D01*
X23597198Y50987811D01*
X24113894Y50987811D01*
X24129534Y50972171D01*
X24145175Y50987811D01*
X24129534Y51003451D01*
X24113894Y50987811D01*
X23597198Y50987811D01*
X23594968Y51050373D01*
X24113894Y51050373D01*
X24129534Y51034732D01*
X24145175Y51050373D01*
X25271283Y51050373D01*
X25286923Y51034732D01*
X25302564Y51050373D01*
X25286923Y51066013D01*
X25271283Y51050373D01*
X24145175Y51050373D01*
X24129534Y51066013D01*
X24113894Y51050373D01*
X23594968Y51050373D01*
X23590507Y51175496D01*
X24113894Y51175496D01*
X24129534Y51159855D01*
X24145175Y51175496D01*
X25271283Y51175496D01*
X25286923Y51159855D01*
X25302564Y51175496D01*
X25286923Y51191136D01*
X25271283Y51175496D01*
X24145175Y51175496D01*
X24129534Y51191136D01*
X24113894Y51175496D01*
X23590507Y51175496D01*
X23587721Y51253626D01*
X23579353Y51488304D01*
X25271283Y51488304D01*
X25286923Y51472663D01*
X25302564Y51488304D01*
X25286923Y51503944D01*
X25271283Y51488304D01*
X23579353Y51488304D01*
X23577682Y51535170D01*
X24692588Y51535170D01*
X24991460Y51535197D01*
X25290331Y51535225D01*
X25285106Y51644708D01*
X25834337Y51644708D01*
X25849978Y51629067D01*
X25865618Y51644708D01*
X25849978Y51660348D01*
X25834337Y51644708D01*
X25285106Y51644708D01*
X25278312Y51787081D01*
X25275953Y51918249D01*
X25283458Y52024890D01*
X25300787Y52080497D01*
X25302071Y52082639D01*
X25834337Y52082639D01*
X25849978Y52066998D01*
X25865618Y52082639D01*
X25849978Y52098279D01*
X25842694Y52090995D01*
X25834337Y52082639D01*
X25302071Y52082639D01*
X25307081Y52090995D01*
X25297418Y52106832D01*
X25265751Y52113919D01*
X25396406Y52113919D01*
X25412047Y52098279D01*
X25427687Y52113919D01*
X25677933Y52113919D01*
X25693574Y52098279D01*
X25705019Y52109724D01*
X25746028Y52109724D01*
X25771776Y52098279D01*
X25788336Y52100537D01*
X25792629Y52119133D01*
X25788045Y52122877D01*
X25750922Y52119133D01*
X25748210Y52113919D01*
X25746028Y52109724D01*
X25705019Y52109724D01*
X25709214Y52113919D01*
X25693574Y52129560D01*
X25677933Y52113919D01*
X25427687Y52113919D01*
X25412047Y52129560D01*
X25396406Y52113919D01*
X25265751Y52113919D01*
X25251091Y52117200D01*
X25159473Y52123500D01*
X25013934Y52127135D01*
X24692588Y52132213D01*
X24692588Y51535170D01*
X23577682Y51535170D01*
X23577680Y51535225D01*
X24145175Y51535225D01*
X24146448Y51824572D01*
X24146674Y51906948D01*
X24146739Y52069660D01*
X24146572Y52207762D01*
X25271283Y52207762D01*
X25286923Y52192121D01*
X25302564Y52207762D01*
X25286923Y52223402D01*
X25271283Y52207762D01*
X24146572Y52207762D01*
X24146503Y52265319D01*
X24145991Y52476254D01*
X24145943Y52489289D01*
X25271283Y52489289D01*
X25286923Y52473649D01*
X25302564Y52489289D01*
X25286923Y52504929D01*
X25271283Y52489289D01*
X24145943Y52489289D01*
X24145486Y52614412D01*
X25271283Y52614412D01*
X25286923Y52598772D01*
X25302564Y52614412D01*
X25286923Y52630052D01*
X25271283Y52614412D01*
X24145486Y52614412D01*
X24145228Y52684794D01*
X24142735Y53255668D01*
X24712669Y53255668D01*
X24702629Y52974069D01*
X24692588Y52692470D01*
X25263463Y52692542D01*
X25834337Y52692614D01*
X25834337Y52411087D01*
X25834925Y52348493D01*
X25839446Y52235760D01*
X25842309Y52207762D01*
X25847459Y52157389D01*
X25857798Y52127476D01*
G37*
G36*
X21265899Y51566506D02*
G01*
X21274256Y52109724D01*
X21335437Y52109724D01*
X21361184Y52098279D01*
X21377744Y52100537D01*
X21380834Y52113919D01*
X21736554Y52113919D01*
X21752194Y52098279D01*
X21767835Y52113919D01*
X21752194Y52129560D01*
X21741768Y52119133D01*
X21736554Y52113919D01*
X21380834Y52113919D01*
X21382038Y52119133D01*
X21377454Y52122877D01*
X21340331Y52119133D01*
X21335437Y52109724D01*
X21274256Y52109724D01*
X21274441Y52121740D01*
X21280586Y52521198D01*
X22400134Y52521198D01*
X22403877Y52484075D01*
X22413286Y52479182D01*
X22424731Y52504929D01*
X22422474Y52521489D01*
X22403877Y52525783D01*
X22400134Y52521198D01*
X21280586Y52521198D01*
X21282982Y52676974D01*
X21846037Y52683799D01*
X21976287Y52685313D01*
X22188978Y52687549D01*
X22393658Y52689442D01*
X22572146Y52690829D01*
X22706258Y52691548D01*
X23003426Y52692470D01*
X22983346Y53255668D01*
X23550840Y53255668D01*
X23550840Y52127627D01*
X22690598Y52136413D01*
X21830356Y52145200D01*
X21830358Y52113919D01*
X21830396Y51566506D01*
X21265899Y51566506D01*
G37*
G36*
X26401787Y49527418D02*
G01*
X26401126Y49421986D01*
X26398600Y49353273D01*
X26399468Y49345570D01*
X26403842Y49306777D01*
X26434238Y49267361D01*
X26467962Y49262740D01*
X26556262Y49257213D01*
X26686812Y49251965D01*
X26848661Y49247423D01*
X27030859Y49244018D01*
X27586124Y49236087D01*
X27586093Y49526156D01*
X27586061Y49816225D01*
X28696529Y49799141D01*
X28696529Y49267368D01*
X28149115Y49249292D01*
X28149115Y48688673D01*
X27554781Y48688673D01*
X27554781Y48125619D01*
X27023007Y48125619D01*
X27023078Y48414966D01*
X27023149Y48704314D01*
X26718090Y48688673D01*
X26651339Y48685657D01*
X26537570Y48680018D01*
X26465225Y48666961D01*
X26424824Y48635514D01*
X26406886Y48574707D01*
X26401929Y48473567D01*
X26400474Y48321124D01*
X26397391Y48125619D01*
X25865618Y48125619D01*
X25865618Y48688673D01*
X26428672Y48688673D01*
X26428672Y49251727D01*
X25271283Y49251727D01*
X25271283Y48690683D01*
X24426702Y48690794D01*
X23582120Y48690905D01*
X23582120Y49267368D01*
X24113894Y49267368D01*
X24129534Y49251727D01*
X24145175Y49267368D01*
X24129534Y49283008D01*
X24113894Y49267368D01*
X23582120Y49267368D01*
X23582120Y49736580D01*
X24113894Y49736580D01*
X24129534Y49720939D01*
X24145175Y49736580D01*
X24129534Y49752220D01*
X24113894Y49736580D01*
X23582120Y49736580D01*
X23582120Y49816225D01*
X24692588Y49799141D01*
X24693564Y49736580D01*
X24700880Y49267368D01*
X24701266Y49242639D01*
X24977958Y49249294D01*
X25034864Y49250924D01*
X25149980Y49256029D01*
X25232439Y49262251D01*
X25267293Y49268591D01*
X25270808Y49293901D01*
X25273917Y49361839D01*
X25841020Y49361839D01*
X25844764Y49324716D01*
X25854173Y49319822D01*
X25865618Y49345570D01*
X25863360Y49362130D01*
X25844764Y49366424D01*
X25841020Y49361839D01*
X25273917Y49361839D01*
X25274425Y49372930D01*
X25277275Y49495420D01*
X25279128Y49651059D01*
X25279428Y49736580D01*
X25834337Y49736580D01*
X25849978Y49720939D01*
X25865618Y49736580D01*
X25849978Y49752220D01*
X25834337Y49736580D01*
X25279428Y49736580D01*
X25279755Y49829535D01*
X25279574Y50377836D01*
X25834337Y50377836D01*
X25834337Y49814782D01*
X26397391Y49814782D01*
X26398776Y49736580D01*
X26400854Y49619277D01*
X26401787Y49527418D01*
G37*
G36*
X33873500Y55007392D02*
G01*
X33310446Y55007392D01*
X33310446Y55539166D01*
X33873500Y55539166D01*
X33873500Y55007392D01*
G37*
G36*
X35593943Y53255668D02*
G01*
X35030889Y53255668D01*
X35030889Y53850003D01*
X35593943Y53850003D01*
X35593943Y53255668D01*
G37*
G36*
X25271283Y55570447D02*
G01*
X24708229Y55570447D01*
X24708229Y56133501D01*
X25271283Y56133501D01*
X25271283Y55570447D01*
G37*
G36*
X33279165Y46965882D02*
G01*
X33279165Y46405176D01*
X32747391Y46405176D01*
X32747460Y46694523D01*
X32747521Y46952589D01*
X32903795Y46952589D01*
X32919436Y46936949D01*
X32935076Y46952589D01*
X32919436Y46968230D01*
X32903795Y46952589D01*
X32747521Y46952589D01*
X32747528Y46983870D01*
X32442472Y46974214D01*
X32137416Y46964557D01*
X32137846Y46952589D01*
X32147456Y46684866D01*
X32157496Y46405176D01*
X31590002Y46405176D01*
X31590002Y46952589D01*
X32059214Y46952589D01*
X32074854Y46936949D01*
X32090495Y46952589D01*
X32074854Y46968230D01*
X32059214Y46952589D01*
X31590002Y46952589D01*
X31590002Y47046432D01*
X32716111Y47046432D01*
X32731751Y47030791D01*
X32747391Y47046432D01*
X32731751Y47062072D01*
X32716111Y47046432D01*
X31590002Y47046432D01*
X31590002Y47171555D01*
X32716111Y47171555D01*
X32731751Y47155915D01*
X32747391Y47171555D01*
X32731751Y47187195D01*
X32716111Y47171555D01*
X31590002Y47171555D01*
X31590002Y47531284D01*
X32747391Y47531284D01*
X32747391Y47546924D01*
X32809953Y47546924D01*
X32825593Y47531284D01*
X32837039Y47542729D01*
X32878048Y47542729D01*
X32903795Y47531284D01*
X32920355Y47533541D01*
X32923445Y47546924D01*
X33216603Y47546924D01*
X33232244Y47531284D01*
X33243689Y47542729D01*
X33284698Y47542729D01*
X33310446Y47531284D01*
X33327006Y47533541D01*
X33331299Y47552138D01*
X33326715Y47555882D01*
X33289592Y47552138D01*
X33286880Y47546924D01*
X33284698Y47542729D01*
X33243689Y47542729D01*
X33247884Y47546924D01*
X33232244Y47562565D01*
X33216603Y47546924D01*
X32923445Y47546924D01*
X32924649Y47552138D01*
X32920064Y47555882D01*
X32882941Y47552138D01*
X32880230Y47546924D01*
X32878048Y47542729D01*
X32837039Y47542729D01*
X32841234Y47546924D01*
X32825593Y47562565D01*
X32809953Y47546924D01*
X32747391Y47546924D01*
X32747391Y48094338D01*
X33873500Y48094338D01*
X33873500Y48485348D01*
X34436554Y48485348D01*
X34452194Y48469708D01*
X34467835Y48485348D01*
X34452194Y48500988D01*
X34436554Y48485348D01*
X33873500Y48485348D01*
X33873500Y48547910D01*
X34436554Y48547910D01*
X34452194Y48532269D01*
X34467835Y48547910D01*
X34452194Y48563550D01*
X34436554Y48547910D01*
X33873500Y48547910D01*
X33873500Y48673033D01*
X34436554Y48673033D01*
X34452194Y48657392D01*
X34467835Y48673033D01*
X34452194Y48688673D01*
X34436554Y48673033D01*
X33873500Y48673033D01*
X33873500Y49814782D01*
X34436554Y49814782D01*
X34436554Y49251727D01*
X35593943Y49251727D01*
X35593943Y48688673D01*
X34999608Y48688673D01*
X34999608Y48125619D01*
X34420914Y48125763D01*
X34440994Y47562565D01*
X34149427Y47562610D01*
X33857859Y47562655D01*
X33857859Y46983870D01*
X33279165Y46965882D01*
G37*
G36*
X28712170Y50993025D02*
G01*
X28711396Y50846158D01*
X28708556Y50685305D01*
X28704002Y50555269D01*
X28698124Y50466630D01*
X28691316Y50429970D01*
X28665577Y50424351D01*
X28585673Y50418274D01*
X28462432Y50413448D01*
X28306435Y50410265D01*
X28128262Y50409116D01*
X27586061Y50409116D01*
X27586061Y50972171D01*
X27875409Y50972099D01*
X28164756Y50972027D01*
X28144676Y51535225D01*
X28712170Y51535225D01*
X28712170Y50993025D01*
G37*
G36*
X25271283Y46968230D02*
G01*
X25271283Y46405176D01*
X24692125Y46405176D01*
X24703493Y46154849D01*
X24704639Y46126799D01*
X24706667Y46005545D01*
X24703771Y45909154D01*
X24696397Y45856408D01*
X24678795Y45834396D01*
X24634293Y45820013D01*
X24551883Y45814916D01*
X24419375Y45817388D01*
X24160815Y45826481D01*
X24151821Y46115828D01*
X24142827Y46405176D01*
X23582120Y46405176D01*
X23582120Y46764905D01*
X24113894Y46764905D01*
X24129534Y46749264D01*
X24145175Y46764905D01*
X24129534Y46780545D01*
X24113894Y46764905D01*
X23582120Y46764905D01*
X23582120Y46890028D01*
X24113894Y46890028D01*
X24129534Y46874387D01*
X24145175Y46890028D01*
X24129534Y46905668D01*
X24113894Y46890028D01*
X23582120Y46890028D01*
X23582120Y46952589D01*
X23957490Y46952589D01*
X23973130Y46936949D01*
X23988771Y46952589D01*
X23973130Y46968230D01*
X23957490Y46952589D01*
X23582120Y46952589D01*
X23582120Y47546924D01*
X23957490Y47546924D01*
X23973130Y47531284D01*
X23988771Y47546924D01*
X23973130Y47562565D01*
X23957490Y47546924D01*
X23582120Y47546924D01*
X23582120Y47562565D01*
X22424731Y47562565D01*
X22424731Y48094338D01*
X24708229Y48094338D01*
X24708229Y47562565D01*
X24113894Y47562565D01*
X24113894Y46941954D01*
X24418882Y46941882D01*
X24723869Y46941811D01*
X24723505Y46952589D01*
X24802071Y46952589D01*
X24817712Y46936949D01*
X24833352Y46952589D01*
X24864633Y46952589D01*
X24880273Y46936949D01*
X24895914Y46952589D01*
X24880273Y46968230D01*
X24864633Y46952589D01*
X24833352Y46952589D01*
X24817712Y46968230D01*
X24802071Y46952589D01*
X24723505Y46952589D01*
X24720332Y47046432D01*
X25271283Y47046432D01*
X25286923Y47030791D01*
X25302564Y47046432D01*
X25286923Y47062072D01*
X25271283Y47046432D01*
X24720332Y47046432D01*
X24716080Y47172184D01*
X25277966Y47172184D01*
X25281710Y47135061D01*
X25291119Y47130167D01*
X25302564Y47155915D01*
X25300306Y47172474D01*
X25281710Y47176768D01*
X25277966Y47172184D01*
X24716080Y47172184D01*
X24713903Y47236547D01*
X24705523Y47484363D01*
X25271283Y47484363D01*
X25286923Y47468722D01*
X25302564Y47484363D01*
X25286923Y47500003D01*
X25271283Y47484363D01*
X24705523Y47484363D01*
X24703936Y47531284D01*
X24995430Y47531274D01*
X25286923Y47531264D01*
X25286714Y47546924D01*
X25396406Y47546924D01*
X25412047Y47531284D01*
X25427687Y47546924D01*
X25709214Y47546924D01*
X25724854Y47531284D01*
X25740495Y47546924D01*
X25724854Y47562565D01*
X25709214Y47546924D01*
X25427687Y47546924D01*
X25412047Y47562565D01*
X25396406Y47546924D01*
X25286714Y47546924D01*
X25279391Y48094338D01*
X25834337Y48094338D01*
X25834337Y46968230D01*
X25271283Y46968230D01*
G37*
G36*
X27554781Y58416998D02*
G01*
X27023007Y58416998D01*
X27023007Y58980052D01*
X27554781Y58980052D01*
X27554781Y58416998D01*
G37*
G36*
X33279165Y57853944D02*
G01*
X32747391Y57853944D01*
X32747391Y58416998D01*
X33279165Y58416998D01*
X33279165Y57853944D01*
G37*
D11*
%TO.C,J1*%
X54548000Y15223000D02*
X54548000Y13973000D01*
X48288000Y26883000D02*
X54258000Y26883000D01*
X51998000Y15023000D02*
X50658000Y15023000D01*
X51998000Y14273000D02*
X51998000Y15023000D01*
X51998000Y26873000D02*
X51998000Y26123000D01*
X48288000Y14263000D02*
X48288000Y26883000D01*
X54548000Y13973000D02*
X53298000Y13973000D01*
X51998000Y26123000D02*
X49048000Y26123000D01*
X53498000Y23573000D02*
X54248000Y23573000D01*
X54248000Y26873000D02*
X54248000Y25073000D01*
X49048000Y26123000D02*
X49048000Y20573000D01*
X53498000Y25073000D02*
X53498000Y26873000D01*
X54248000Y14273000D02*
X53498000Y14273000D01*
X49048000Y20573000D02*
X49048000Y16083000D01*
X53498000Y16073000D02*
X54248000Y16073000D01*
X54248000Y17573000D02*
X53498000Y17573000D01*
X54248000Y25073000D02*
X53498000Y25073000D01*
X53498000Y14273000D02*
X53498000Y16073000D01*
X54258000Y26883000D02*
X54258000Y14263000D01*
X54248000Y23573000D02*
X54248000Y17573000D01*
X54258000Y14263000D02*
X48288000Y14263000D01*
X54248000Y16073000D02*
X54248000Y14273000D01*
X53498000Y17573000D02*
X53498000Y23573000D01*
X53498000Y26873000D02*
X54248000Y26873000D01*
%TO.C,J3*%
X54231000Y31102000D02*
X53481000Y31102000D01*
X49031000Y49652000D02*
X49031000Y39102000D01*
X51981000Y28552000D02*
X50641000Y28552000D01*
X54231000Y47102000D02*
X54231000Y31102000D01*
X54241000Y50412000D02*
X54241000Y27792000D01*
X51981000Y49652000D02*
X49031000Y49652000D01*
X53481000Y27802000D02*
X53481000Y29602000D01*
X53481000Y29602000D02*
X54231000Y29602000D01*
X49031000Y39102000D02*
X49031000Y29612000D01*
X54231000Y48602000D02*
X53481000Y48602000D01*
X53481000Y31102000D02*
X53481000Y47102000D01*
X54231000Y50402000D02*
X54231000Y48602000D01*
X51981000Y50402000D02*
X51981000Y49652000D01*
X53481000Y50402000D02*
X54231000Y50402000D01*
X48271000Y27792000D02*
X48271000Y50412000D01*
X53481000Y47102000D02*
X54231000Y47102000D01*
X54231000Y27802000D02*
X53481000Y27802000D01*
X54531000Y27502000D02*
X53281000Y27502000D01*
X54531000Y28752000D02*
X54531000Y27502000D01*
X48271000Y50412000D02*
X54241000Y50412000D01*
X51981000Y27802000D02*
X51981000Y28552000D01*
X54241000Y27792000D02*
X48271000Y27792000D01*
X53481000Y48602000D02*
X53481000Y50402000D01*
X54231000Y29602000D02*
X54231000Y27802000D01*
%TO.C,J2*%
X31360000Y33465000D02*
X29560000Y33465000D01*
X20560000Y34215000D02*
X20560000Y33465000D01*
X29560000Y34215000D02*
X31360000Y34215000D01*
X22060000Y34215000D02*
X28060000Y34215000D01*
X31370000Y34225000D02*
X31370000Y28255000D01*
X25060000Y29015000D02*
X29550000Y29015000D01*
X20560000Y33465000D02*
X18760000Y33465000D01*
X18760000Y33465000D02*
X18760000Y34215000D01*
X28060000Y33465000D02*
X22060000Y33465000D01*
X22060000Y33465000D02*
X22060000Y34215000D01*
X29560000Y33465000D02*
X29560000Y34215000D01*
X18750000Y34225000D02*
X31370000Y34225000D01*
X18760000Y31965000D02*
X19510000Y31965000D01*
X19510000Y29015000D02*
X25060000Y29015000D01*
X31370000Y28255000D02*
X18750000Y28255000D01*
X31660000Y34515000D02*
X31660000Y33265000D01*
X31360000Y34215000D02*
X31360000Y33465000D01*
X30410000Y34515000D02*
X31660000Y34515000D01*
X19510000Y31965000D02*
X19510000Y29015000D01*
X18750000Y28255000D02*
X18750000Y34225000D01*
X31360000Y31965000D02*
X30610000Y31965000D01*
X30610000Y31965000D02*
X30610000Y30625000D01*
X28060000Y34215000D02*
X28060000Y33465000D01*
X18760000Y34215000D02*
X20560000Y34215000D01*
%TO.C,G\u002A\u002A\u002A*%
G36*
X19872738Y12672556D02*
G01*
X20217360Y12207949D01*
X20561981Y11743342D01*
X20775063Y12130317D01*
X20833294Y12236158D01*
X20913765Y12382604D01*
X21003291Y12545680D01*
X21096674Y12715912D01*
X21188713Y12883825D01*
X21274211Y13039946D01*
X21560277Y13562600D01*
X22064661Y13562600D01*
X22187846Y13562305D01*
X22311349Y13561350D01*
X22416369Y13559831D01*
X22497757Y13557846D01*
X22550366Y13555496D01*
X22569046Y13552880D01*
X22569029Y13552783D01*
X22559097Y13533133D01*
X22531852Y13482034D01*
X22488753Y13402160D01*
X22431258Y13296190D01*
X22360826Y13166798D01*
X22278915Y13016663D01*
X22186985Y12848460D01*
X22086493Y12664866D01*
X21978899Y12468558D01*
X21865661Y12262211D01*
X21861526Y12254679D01*
X21748397Y12048393D01*
X21640972Y11852027D01*
X21540712Y11668281D01*
X21449079Y11499857D01*
X21367534Y11349456D01*
X21297538Y11219777D01*
X21240554Y11113522D01*
X21198041Y11033391D01*
X21171461Y10982085D01*
X21162277Y10962305D01*
X21173127Y10944592D01*
X21205568Y10898334D01*
X21257562Y10826382D01*
X21327066Y10731504D01*
X21412034Y10616467D01*
X21510422Y10484041D01*
X21620186Y10336992D01*
X21739280Y10178088D01*
X21865661Y10010097D01*
X21989071Y9846137D01*
X22108324Y9687260D01*
X22218302Y9540295D01*
X22316964Y9407992D01*
X22402267Y9293104D01*
X22472169Y9198379D01*
X22524628Y9126570D01*
X22557601Y9080427D01*
X22569046Y9062702D01*
X22554151Y9059441D01*
X22505014Y9056476D01*
X22426560Y9054334D01*
X22323947Y9053108D01*
X22202334Y9052890D01*
X22066880Y9053770D01*
X21564714Y9058985D01*
X20723611Y10181045D01*
X19882508Y11303106D01*
X19872738Y10177239D01*
X19862969Y9051373D01*
X19423354Y9055179D01*
X18983738Y9058985D01*
X18978772Y11310792D01*
X18973805Y13562600D01*
X19872738Y13562600D01*
X19872738Y12672556D01*
G37*
G36*
X3396931Y13542773D02*
G01*
X3468667Y13542742D01*
X3704884Y13542427D01*
X3906023Y13541732D01*
X4075215Y13540583D01*
X4215594Y13538907D01*
X4330293Y13536628D01*
X4422443Y13533673D01*
X4495180Y13529967D01*
X4551634Y13525437D01*
X4594939Y13520007D01*
X4628228Y13513604D01*
X4772740Y13467747D01*
X4954494Y13377621D01*
X5131463Y13254264D01*
X5298574Y13100799D01*
X5342436Y13053902D01*
X5425070Y12954537D01*
X5487331Y12857403D01*
X5537242Y12748789D01*
X5582824Y12614985D01*
X5593606Y12578969D01*
X5612590Y12507659D01*
X5625031Y12441793D01*
X5632254Y12370244D01*
X5635584Y12281888D01*
X5636345Y12165600D01*
X5636085Y12093420D01*
X5634195Y11998592D01*
X5629460Y11927472D01*
X5620693Y11870458D01*
X5606712Y11817949D01*
X5586329Y11760342D01*
X5526459Y11622516D01*
X5405707Y11420152D01*
X5256309Y11243076D01*
X5080163Y11093401D01*
X4879168Y10973240D01*
X4819552Y10945132D01*
X4749212Y10916486D01*
X4677567Y10893939D01*
X4599224Y10876784D01*
X4508787Y10864312D01*
X4400865Y10855814D01*
X4270063Y10850584D01*
X4110988Y10847913D01*
X3918246Y10847093D01*
X3826148Y10846948D01*
X3658910Y10845791D01*
X3523802Y10842804D01*
X3416118Y10837171D01*
X3331154Y10828077D01*
X3264203Y10814704D01*
X3210560Y10796238D01*
X3165519Y10771860D01*
X3124375Y10740756D01*
X3082422Y10702108D01*
X3024874Y10634308D01*
X2969986Y10524217D01*
X2949393Y10406467D01*
X2962993Y10287441D01*
X3010687Y10173522D01*
X3092372Y10071090D01*
X3112281Y10051952D01*
X3137193Y10029221D01*
X3162488Y10010068D01*
X3191392Y9994188D01*
X3227127Y9981274D01*
X3272920Y9971020D01*
X3331994Y9963119D01*
X3407573Y9957266D01*
X3502883Y9953154D01*
X3621148Y9950476D01*
X3765591Y9948926D01*
X3939438Y9948199D01*
X4145913Y9947987D01*
X4388240Y9947985D01*
X5473612Y9947985D01*
X5468368Y9493715D01*
X5463123Y9039446D01*
X4495969Y9034278D01*
X4491538Y9034254D01*
X4207410Y9033269D01*
X3959646Y9033598D01*
X3745591Y9035347D01*
X3562589Y9038627D01*
X3407985Y9043544D01*
X3279123Y9050206D01*
X3173349Y9058723D01*
X3088005Y9069201D01*
X3020438Y9081750D01*
X2967990Y9096476D01*
X2932172Y9109738D01*
X2768972Y9189885D01*
X2606837Y9298815D01*
X2454628Y9429135D01*
X2321206Y9573452D01*
X2215431Y9724373D01*
X2192367Y9765993D01*
X2116936Y9946856D01*
X2067932Y10145973D01*
X2046487Y10353942D01*
X2053734Y10561362D01*
X2090805Y10758831D01*
X2105744Y10808829D01*
X2190732Y11012152D01*
X2307755Y11198346D01*
X2452845Y11363411D01*
X2622031Y11503348D01*
X2811344Y11614156D01*
X3016814Y11691836D01*
X3028736Y11695124D01*
X3073294Y11705888D01*
X3122102Y11714644D01*
X3180136Y11721731D01*
X3252371Y11727487D01*
X3343781Y11732251D01*
X3459342Y11736362D01*
X3604029Y11740157D01*
X3782815Y11743977D01*
X3880179Y11746069D01*
X4073189Y11751347D01*
X4228075Y11757367D01*
X4344602Y11764118D01*
X4422531Y11771587D01*
X4461627Y11779760D01*
X4491723Y11796716D01*
X4546454Y11836134D01*
X4603523Y11884464D01*
X4670397Y11961026D01*
X4723973Y12069332D01*
X4742650Y12185003D01*
X4726541Y12302553D01*
X4675759Y12416496D01*
X4590416Y12521346D01*
X4583693Y12527794D01*
X4556863Y12552661D01*
X4530359Y12573711D01*
X4500897Y12591262D01*
X4465193Y12605631D01*
X4419965Y12617138D01*
X4361927Y12626100D01*
X4287797Y12632835D01*
X4194292Y12637661D01*
X4078127Y12640896D01*
X3936020Y12642859D01*
X3764686Y12643867D01*
X3560842Y12644239D01*
X3321205Y12644292D01*
X2288123Y12644292D01*
X2288123Y13543061D01*
X3396931Y13542773D01*
G37*
G36*
X8579508Y20051544D02*
G01*
X8579428Y20036825D01*
X8574485Y19994173D01*
X8553796Y19973744D01*
X8506238Y19961932D01*
X8454184Y19949672D01*
X8355168Y19914208D01*
X8266242Y19868173D01*
X8201841Y19818374D01*
X8190809Y19806752D01*
X8162438Y19774532D01*
X8139453Y19741685D01*
X8121234Y19703939D01*
X8107164Y19657022D01*
X8096624Y19596662D01*
X8088996Y19518586D01*
X8083661Y19418522D01*
X8080002Y19292198D01*
X8077399Y19135342D01*
X8075235Y18943682D01*
X8068426Y18277610D01*
X8573082Y18279374D01*
X8750406Y18279176D01*
X8909096Y18276504D01*
X9042273Y18270477D01*
X9156932Y18260263D01*
X9260070Y18245031D01*
X9358680Y18223951D01*
X9459758Y18196192D01*
X9570299Y18160922D01*
X9613283Y18146051D01*
X9833604Y18050878D01*
X10021206Y17934544D01*
X10176612Y17796393D01*
X10300346Y17635768D01*
X10392934Y17452011D01*
X10454899Y17244465D01*
X10486766Y17012474D01*
X10488902Y16811314D01*
X10462253Y16615793D01*
X10404631Y16441211D01*
X10315174Y16285022D01*
X10193020Y16144676D01*
X10172361Y16125344D01*
X10052888Y16031676D01*
X9915526Y15954116D01*
X9753363Y15889274D01*
X9559487Y15833757D01*
X9351277Y15782710D01*
X8164315Y15775474D01*
X6977354Y15768237D01*
X6977381Y15842611D01*
X6977452Y15858886D01*
X6980986Y15893438D01*
X6996200Y15915170D01*
X7031704Y15932005D01*
X7096108Y15951867D01*
X7181204Y15984207D01*
X7280824Y16047635D01*
X7316369Y16087946D01*
X8091046Y16087946D01*
X8152104Y16075735D01*
X8204341Y16069675D01*
X8289458Y16065604D01*
X8397222Y16063757D01*
X8519247Y16063990D01*
X8647148Y16066157D01*
X8772537Y16070114D01*
X8887031Y16075716D01*
X8982243Y16082816D01*
X9049788Y16091271D01*
X9223673Y16135964D01*
X9381585Y16209193D01*
X9513269Y16309951D01*
X9620502Y16439321D01*
X9636268Y16463900D01*
X9687054Y16560781D01*
X9723134Y16667037D01*
X9747221Y16792384D01*
X9762023Y16946535D01*
X9765475Y17041721D01*
X9751581Y17247310D01*
X9707017Y17428823D01*
X9631918Y17586071D01*
X9526420Y17718863D01*
X9390659Y17827012D01*
X9224771Y17910327D01*
X9028892Y17968619D01*
X8940963Y17982773D01*
X8817911Y17994953D01*
X8664960Y18004658D01*
X8486700Y18011526D01*
X8091046Y18022657D01*
X8091046Y16087946D01*
X7316369Y16087946D01*
X7351522Y16127813D01*
X7388660Y16220482D01*
X7388817Y16221335D01*
X7392131Y16259854D01*
X7395096Y16333273D01*
X7397715Y16438071D01*
X7399992Y16570725D01*
X7401928Y16727712D01*
X7403527Y16905508D01*
X7404793Y17100592D01*
X7405727Y17309441D01*
X7406333Y17528532D01*
X7406614Y17754342D01*
X7406572Y17983349D01*
X7406510Y18022657D01*
X7406212Y18212030D01*
X7405535Y18436862D01*
X7404546Y18654322D01*
X7403246Y18860888D01*
X7401639Y19053038D01*
X7399727Y19227247D01*
X7397514Y19379995D01*
X7395003Y19507757D01*
X7392197Y19607011D01*
X7389098Y19674235D01*
X7385710Y19705906D01*
X7364933Y19760700D01*
X7312840Y19831141D01*
X7232221Y19887339D01*
X7118002Y19933608D01*
X6977354Y19978907D01*
X6977354Y20127523D01*
X8579508Y20127523D01*
X8579508Y20051544D01*
G37*
G36*
X14558277Y12520418D02*
G01*
X14558273Y12437647D01*
X14558127Y12205621D01*
X14557531Y12007815D01*
X14556168Y11840560D01*
X14553723Y11700183D01*
X14549881Y11583014D01*
X14544324Y11485382D01*
X14536736Y11403615D01*
X14526803Y11334041D01*
X14514207Y11272991D01*
X14498632Y11216792D01*
X14479763Y11161774D01*
X14457283Y11104265D01*
X14430877Y11040594D01*
X14384565Y10941450D01*
X14263215Y10746384D01*
X14112454Y10570905D01*
X13937203Y10419576D01*
X13742384Y10296964D01*
X13532920Y10207634D01*
X13491451Y10194331D01*
X13429219Y10177229D01*
X13368356Y10165914D01*
X13298753Y10159162D01*
X13210301Y10155754D01*
X13092892Y10154466D01*
X13077681Y10154410D01*
X12943818Y10155822D01*
X12839216Y10161321D01*
X12755072Y10171613D01*
X12682585Y10187405D01*
X12608788Y10210395D01*
X12458527Y10272167D01*
X12309480Y10350462D01*
X12179073Y10436652D01*
X12126506Y10474798D01*
X12082384Y10503590D01*
X12059213Y10514600D01*
X12048676Y10507652D01*
X12017097Y10475845D01*
X11971551Y10424150D01*
X11917956Y10359080D01*
X11793585Y10203561D01*
X11681238Y10202773D01*
X11568892Y10201985D01*
X11568892Y13562600D01*
X12388180Y13562600D01*
X12393729Y12541715D01*
X12399277Y11520831D01*
X12459525Y11393700D01*
X12487146Y11339423D01*
X12559546Y11232501D01*
X12649632Y11148755D01*
X12768090Y11077226D01*
X12824575Y11050974D01*
X12919358Y11021223D01*
X13028024Y11007324D01*
X13032500Y11007032D01*
X13109696Y11004170D01*
X13168316Y11009758D01*
X13225995Y11027198D01*
X13300371Y11059897D01*
X13335328Y11077134D01*
X13455276Y11155360D01*
X13550728Y11255161D01*
X13630200Y11384926D01*
X13688815Y11501292D01*
X13699577Y13582138D01*
X14558277Y13582138D01*
X14558277Y12520418D01*
G37*
G36*
X10773681Y6986851D02*
G01*
X10785714Y7111755D01*
X10815367Y7264180D01*
X10887844Y7493190D01*
X10989794Y7710541D01*
X11117810Y7911157D01*
X11268488Y8089959D01*
X11438422Y8241873D01*
X11624208Y8361822D01*
X11757426Y8423463D01*
X11932273Y8485350D01*
X12115969Y8532819D01*
X12131903Y8535958D01*
X12246214Y8550162D01*
X12380026Y8555875D01*
X12521724Y8553553D01*
X12659692Y8543650D01*
X12782312Y8526624D01*
X12877969Y8502930D01*
X13081828Y8420966D01*
X13298479Y8304362D01*
X13487862Y8168465D01*
X13541925Y8123962D01*
X13600479Y8077169D01*
X13642515Y8045260D01*
X13661377Y8033415D01*
X13663742Y8034912D01*
X13683926Y8059079D01*
X13719965Y8108233D01*
X13767623Y8176474D01*
X13822663Y8257908D01*
X13972310Y8482600D01*
X14226123Y8482600D01*
X14226123Y5141523D01*
X14013906Y5141523D01*
X13848716Y5336036D01*
X13830523Y5357452D01*
X13768477Y5429839D01*
X13725596Y5477091D01*
X13696949Y5502978D01*
X13677603Y5511270D01*
X13662629Y5505735D01*
X13647093Y5490142D01*
X13597279Y5443237D01*
X13520270Y5382020D01*
X13427047Y5314808D01*
X13326909Y5248036D01*
X13229159Y5188135D01*
X13143094Y5141538D01*
X13101917Y5121717D01*
X12980030Y5069126D01*
X12867703Y5032911D01*
X12752893Y5010490D01*
X12623560Y4999280D01*
X12467661Y4996700D01*
X12450654Y4996799D01*
X12338455Y4998693D01*
X12251987Y5003621D01*
X12179454Y5013051D01*
X12109060Y5028451D01*
X12029010Y5051289D01*
X11921132Y5087665D01*
X11694443Y5188673D01*
X11487569Y5315353D01*
X11305956Y5464089D01*
X11155052Y5631268D01*
X11136915Y5655592D01*
X11042312Y5799763D01*
X10953884Y5961313D01*
X10879109Y6125576D01*
X10825461Y6277883D01*
X10822510Y6288544D01*
X10800045Y6399576D01*
X10783380Y6536463D01*
X10773064Y6687665D01*
X10771579Y6754611D01*
X11649784Y6754611D01*
X11662373Y6584763D01*
X11694141Y6427517D01*
X11745097Y6293588D01*
X11792411Y6213852D01*
X11898726Y6089937D01*
X12028046Y5991640D01*
X12174781Y5920755D01*
X12333339Y5879078D01*
X12498128Y5868402D01*
X12663557Y5890523D01*
X12824034Y5947236D01*
X12976000Y6038672D01*
X13106912Y6159022D01*
X13208812Y6301908D01*
X13280263Y6464034D01*
X13319829Y6642104D01*
X13326072Y6832823D01*
X13297554Y7032897D01*
X13278717Y7103414D01*
X13209211Y7266946D01*
X13107852Y7409063D01*
X12973676Y7530944D01*
X12805717Y7633768D01*
X12787758Y7642686D01*
X12729687Y7667553D01*
X12672520Y7682830D01*
X12602938Y7691284D01*
X12507620Y7695680D01*
X12379927Y7693749D01*
X12238663Y7672341D01*
X12111493Y7626811D01*
X11987044Y7554065D01*
X11983721Y7551768D01*
X11887586Y7474430D01*
X11812455Y7386587D01*
X11746104Y7274028D01*
X11726972Y7232598D01*
X11682094Y7089245D01*
X11656361Y6926344D01*
X11649784Y6754611D01*
X10771579Y6754611D01*
X10769648Y6841641D01*
X10773681Y6986851D01*
G37*
G36*
X15574277Y6472978D02*
G01*
X15643654Y6339876D01*
X15684845Y6264134D01*
X15730371Y6195061D01*
X15779931Y6142837D01*
X15844009Y6096834D01*
X15933090Y6046422D01*
X16072508Y5971908D01*
X16536546Y5965745D01*
X17000585Y5959582D01*
X17000585Y5102446D01*
X16540607Y5102446D01*
X16409165Y5103078D01*
X16223010Y5107413D01*
X16065933Y5117065D01*
X15931816Y5133429D01*
X15814538Y5157904D01*
X15707981Y5191886D01*
X15606026Y5236772D01*
X15502554Y5293961D01*
X15391444Y5364849D01*
X15206623Y5488418D01*
X14942183Y5102446D01*
X14714585Y5102446D01*
X14714585Y8482600D01*
X15574277Y8482600D01*
X15574277Y6472978D01*
G37*
G36*
X15309058Y21392638D02*
G01*
X15306189Y21384303D01*
X15289202Y21339814D01*
X15261352Y21269896D01*
X15225765Y21182333D01*
X15185562Y21084908D01*
X15075919Y20821138D01*
X13136790Y20816159D01*
X11197661Y20811179D01*
X11197661Y21436600D01*
X15322910Y21436600D01*
X15309058Y21392638D01*
G37*
G36*
X10597453Y9811706D02*
G01*
X10721025Y9778276D01*
X10831178Y9722858D01*
X10916547Y9649025D01*
X10969864Y9574160D01*
X11025427Y9448287D01*
X11050111Y9314780D01*
X11044479Y9180605D01*
X11009094Y9052728D01*
X10944522Y8938115D01*
X10851327Y8843733D01*
X10747784Y8780430D01*
X10631771Y8744072D01*
X10494702Y8733209D01*
X10395469Y8741922D01*
X10262885Y8783118D01*
X10150282Y8854871D01*
X10061566Y8953568D01*
X10000643Y9075593D01*
X9971419Y9217334D01*
X9968457Y9280457D01*
X9980849Y9414789D01*
X10022466Y9530018D01*
X10095372Y9633059D01*
X10180294Y9713801D01*
X10281005Y9773986D01*
X10401805Y9810872D01*
X10471827Y9819573D01*
X10597453Y9811706D01*
G37*
G36*
X18192431Y12644292D02*
G01*
X16059231Y12644292D01*
X16065938Y12346331D01*
X16067190Y12292573D01*
X16070218Y12192251D01*
X16074360Y12120311D01*
X16080792Y12069280D01*
X16090687Y12031682D01*
X16105222Y12000043D01*
X16125569Y11966888D01*
X16176025Y11900742D01*
X16273563Y11817131D01*
X16385123Y11767426D01*
X16387262Y11766883D01*
X16433718Y11759992D01*
X16511137Y11753297D01*
X16612008Y11747256D01*
X16728816Y11742325D01*
X16854046Y11738959D01*
X16966260Y11736295D01*
X17109444Y11729998D01*
X17226066Y11719334D01*
X17323668Y11702428D01*
X17409789Y11677403D01*
X17491968Y11642386D01*
X17577745Y11595501D01*
X17674661Y11534873D01*
X17693999Y11522162D01*
X17881684Y11377722D01*
X18033730Y11217645D01*
X18150782Y11040752D01*
X18233487Y10845862D01*
X18282494Y10631795D01*
X18298450Y10397369D01*
X18290110Y10214454D01*
X18261297Y10040083D01*
X18209278Y9879321D01*
X18131347Y9721215D01*
X18038837Y9577669D01*
X17892688Y9407360D01*
X17725051Y9269603D01*
X17535509Y9164128D01*
X17323640Y9090665D01*
X17089026Y9048943D01*
X17083601Y9048395D01*
X17016760Y9043750D01*
X16922438Y9039780D01*
X16805388Y9036483D01*
X16670365Y9033860D01*
X16522121Y9031909D01*
X16365412Y9030630D01*
X16204990Y9030021D01*
X16045609Y9030083D01*
X15892023Y9030814D01*
X15748986Y9032213D01*
X15621252Y9034281D01*
X15513574Y9037016D01*
X15430706Y9040417D01*
X15377401Y9044484D01*
X15358414Y9049215D01*
X15358312Y9053858D01*
X15358045Y9090997D01*
X15357815Y9159061D01*
X15357635Y9252052D01*
X15357517Y9363974D01*
X15357475Y9488831D01*
X15357481Y9534837D01*
X15357551Y9655734D01*
X15357693Y9761539D01*
X15357892Y9846257D01*
X15358137Y9903892D01*
X15358414Y9928446D01*
X15369209Y9932411D01*
X15417210Y9937092D01*
X15502882Y9940964D01*
X15625421Y9944008D01*
X15784024Y9946205D01*
X15977886Y9947536D01*
X16206204Y9947985D01*
X17053054Y9947985D01*
X17139165Y9993434D01*
X17235044Y10063346D01*
X17310677Y10156839D01*
X17361733Y10264951D01*
X17384014Y10378789D01*
X17373323Y10489461D01*
X17361302Y10525735D01*
X17306202Y10627303D01*
X17227664Y10719291D01*
X17136441Y10788138D01*
X17110900Y10801884D01*
X17081722Y10814583D01*
X17047999Y10824162D01*
X17003976Y10831280D01*
X16943900Y10836593D01*
X16862017Y10840759D01*
X16752573Y10844434D01*
X16609815Y10848275D01*
X16541183Y10850100D01*
X16396351Y10854932D01*
X16280931Y10861420D01*
X16188046Y10871041D01*
X16110819Y10885274D01*
X16042374Y10905598D01*
X15975833Y10933491D01*
X15904321Y10970432D01*
X15820960Y11017900D01*
X15701301Y11094352D01*
X15524858Y11240288D01*
X15381376Y11407167D01*
X15270546Y11595451D01*
X15192064Y11805603D01*
X15145621Y12038087D01*
X15142510Y12070520D01*
X15137754Y12151312D01*
X15133525Y12261397D01*
X15129974Y12394709D01*
X15127251Y12545183D01*
X15125507Y12706754D01*
X15124892Y12873357D01*
X15124892Y13543061D01*
X18192431Y13543061D01*
X18192431Y12644292D01*
G37*
G36*
X14479769Y20147047D02*
G01*
X14571561Y20146390D01*
X14646156Y20144901D01*
X14696262Y20142780D01*
X14714585Y20140224D01*
X14709068Y20127834D01*
X14688242Y20087122D01*
X14655535Y20025299D01*
X14614800Y19949724D01*
X14606859Y19935167D01*
X14463955Y19689390D01*
X14293649Y19423109D01*
X14098654Y19140270D01*
X13881685Y18844819D01*
X13645457Y18540701D01*
X13572904Y18450539D01*
X13288969Y18111746D01*
X12991658Y17777650D01*
X12686013Y17453344D01*
X12377079Y17143916D01*
X12069898Y16854458D01*
X11769514Y16590061D01*
X11480969Y16355814D01*
X11300837Y16222527D01*
X11098404Y16084898D01*
X10890590Y15954698D01*
X10684151Y15835809D01*
X10485843Y15732112D01*
X10302425Y15647489D01*
X10140653Y15585822D01*
X10112685Y15576937D01*
X9992474Y15544195D01*
X9863947Y15516272D01*
X9738421Y15495146D01*
X9627212Y15482793D01*
X9541633Y15481189D01*
X9448969Y15487138D01*
X9585738Y15533116D01*
X9711300Y15579950D01*
X9912170Y15670008D01*
X10127563Y15782084D01*
X10350526Y15912060D01*
X10574105Y16055815D01*
X10791347Y16209230D01*
X10995298Y16368185D01*
X11104163Y16459865D01*
X11262420Y16598615D01*
X11436853Y16756513D01*
X11621772Y16928097D01*
X11811484Y17107908D01*
X12000298Y17290483D01*
X12182522Y17470362D01*
X12352464Y17642085D01*
X12504433Y17800189D01*
X12632736Y17939215D01*
X12660777Y17970547D01*
X13006046Y18371608D01*
X13322384Y18768375D01*
X13607940Y19158328D01*
X13860862Y19538948D01*
X14079298Y19907715D01*
X14211914Y20147061D01*
X14463249Y20147061D01*
X14479769Y20147047D01*
G37*
G36*
X12545815Y20072111D02*
G01*
X12545797Y20061583D01*
X12543044Y20023717D01*
X12529332Y20000682D01*
X12495771Y19984024D01*
X12433469Y19965287D01*
X12346519Y19936677D01*
X12257771Y19892015D01*
X12194469Y19835205D01*
X12148832Y19760656D01*
X12143985Y19750029D01*
X12134752Y19727634D01*
X12127161Y19703146D01*
X12121049Y19672865D01*
X12116258Y19633093D01*
X12112627Y19580133D01*
X12109994Y19510285D01*
X12108200Y19419851D01*
X12107084Y19305134D01*
X12106486Y19162434D01*
X12106245Y18988055D01*
X12106200Y18778296D01*
X12106200Y17888224D01*
X11866854Y17657442D01*
X11627508Y17426661D01*
X11627508Y18512361D01*
X11627470Y18602889D01*
X11626817Y18872657D01*
X11625347Y19103987D01*
X11623051Y19297365D01*
X11619920Y19453274D01*
X11615945Y19572197D01*
X11611117Y19654618D01*
X11605427Y19701020D01*
X11602271Y19714825D01*
X11571803Y19796354D01*
X11521398Y19859021D01*
X11444681Y19908735D01*
X11335279Y19951404D01*
X11197661Y19995654D01*
X11197661Y20147061D01*
X12545815Y20147061D01*
X12545815Y20072111D01*
G37*
G36*
X10279354Y7400775D02*
G01*
X10279211Y7166876D01*
X10278568Y6942207D01*
X10277166Y6750002D01*
X10274751Y6586788D01*
X10271067Y6449093D01*
X10265859Y6333443D01*
X10258872Y6236366D01*
X10249850Y6154389D01*
X10238538Y6084039D01*
X10224681Y6021843D01*
X10208023Y5964329D01*
X10188308Y5908023D01*
X10165282Y5849453D01*
X10164987Y5848730D01*
X10067612Y5660581D01*
X9938777Y5493866D01*
X9781168Y5351017D01*
X9597465Y5234468D01*
X9390354Y5146653D01*
X9342010Y5131094D01*
X9281907Y5114794D01*
X9222724Y5104201D01*
X9154466Y5098136D01*
X9067136Y5095424D01*
X8950738Y5094888D01*
X8879095Y5095179D01*
X8781327Y5097045D01*
X8708496Y5101520D01*
X8651659Y5109630D01*
X8601874Y5122401D01*
X8550200Y5140861D01*
X8516323Y5154948D01*
X8414428Y5206192D01*
X8314383Y5267655D01*
X8227896Y5331711D01*
X8166672Y5390733D01*
X8121032Y5445843D01*
X8010114Y5332488D01*
X8000756Y5323039D01*
X7908310Y5242584D01*
X7806284Y5179178D01*
X7684857Y5127670D01*
X7534207Y5082909D01*
X7321962Y5047604D01*
X7110370Y5050614D01*
X6902679Y5092103D01*
X6700356Y5171777D01*
X6504868Y5289342D01*
X6413382Y5354482D01*
X6295498Y5228464D01*
X6286947Y5219325D01*
X6232542Y5162435D01*
X6193557Y5127857D01*
X6160028Y5110036D01*
X6121991Y5103418D01*
X6069484Y5102446D01*
X5961354Y5102446D01*
X5961354Y8463061D01*
X6821046Y8463061D01*
X6821046Y7382223D01*
X6821060Y7145633D01*
X6821331Y6931227D01*
X6822212Y6749716D01*
X6824058Y6597925D01*
X6827222Y6472681D01*
X6832060Y6370811D01*
X6838925Y6289140D01*
X6848172Y6224496D01*
X6860155Y6173705D01*
X6875228Y6133594D01*
X6893745Y6100989D01*
X6916061Y6072716D01*
X6942530Y6045602D01*
X6973506Y6016474D01*
X7022090Y5975596D01*
X7087346Y5930951D01*
X7142076Y5903970D01*
X7232385Y5887552D01*
X7345065Y5898480D01*
X7453953Y5939036D01*
X7551060Y6004882D01*
X7628397Y6091677D01*
X7677975Y6195081D01*
X7683167Y6226712D01*
X7687855Y6289268D01*
X7691754Y6383062D01*
X7694889Y6509398D01*
X7697283Y6669584D01*
X7698963Y6864924D01*
X7699952Y7096724D01*
X7700277Y7366290D01*
X7700277Y8463061D01*
X8558447Y8463061D01*
X8564093Y7354254D01*
X8565242Y7140142D01*
X8566552Y6934496D01*
X8567991Y6761878D01*
X8569669Y6619093D01*
X8571696Y6502944D01*
X8574182Y6410237D01*
X8577237Y6337774D01*
X8580970Y6282361D01*
X8585491Y6240803D01*
X8590911Y6209902D01*
X8597339Y6186464D01*
X8604885Y6167292D01*
X8612318Y6151587D01*
X8683310Y6046444D01*
X8777601Y5962927D01*
X8885822Y5909629D01*
X8899764Y5905503D01*
X9020632Y5890946D01*
X9138278Y5911895D01*
X9246328Y5965325D01*
X9338406Y6048209D01*
X9408138Y6157523D01*
X9414511Y6171726D01*
X9422234Y6192074D01*
X9428746Y6216043D01*
X9434172Y6246857D01*
X9438636Y6287739D01*
X9442262Y6341912D01*
X9445175Y6412600D01*
X9447497Y6503024D01*
X9449354Y6616410D01*
X9450869Y6755979D01*
X9452168Y6924956D01*
X9453373Y7126563D01*
X9454609Y7364023D01*
X9460248Y8482600D01*
X10279354Y8482600D01*
X10279354Y7400775D01*
G37*
G36*
X2241191Y17890617D02*
G01*
X2257177Y18177550D01*
X2300057Y18453984D01*
X2369820Y18710985D01*
X2395147Y18781562D01*
X2475043Y18971856D01*
X2567591Y19155033D01*
X2665009Y19315167D01*
X2676879Y19332258D01*
X2756567Y19434589D01*
X2854787Y19545621D01*
X2961540Y19655016D01*
X3066825Y19752437D01*
X3160642Y19827545D01*
X3294748Y19912317D01*
X3471955Y20002518D01*
X3666222Y20082930D01*
X3865912Y20148792D01*
X4059388Y20195341D01*
X4119618Y20204655D01*
X4253594Y20215988D01*
X4406211Y20219787D01*
X4566011Y20216411D01*
X4721534Y20206216D01*
X4861321Y20189562D01*
X4973916Y20166805D01*
X4977487Y20165838D01*
X5258570Y20072864D01*
X5517063Y19953245D01*
X5750188Y19808704D01*
X5955161Y19640962D01*
X6129201Y19451740D01*
X6132339Y19447764D01*
X6307082Y19197961D01*
X6446227Y18936569D01*
X6550401Y18661555D01*
X6620232Y18370884D01*
X6656349Y18062522D01*
X6659379Y17734436D01*
X6650602Y17584573D01*
X6621003Y17342295D01*
X6571082Y17118636D01*
X6498160Y16902765D01*
X6399559Y16683852D01*
X6355284Y16599002D01*
X6214895Y16371143D01*
X6056697Y16174247D01*
X5875821Y16003497D01*
X5667398Y15854075D01*
X5426557Y15721161D01*
X5399547Y15708072D01*
X5271035Y15649447D01*
X5154650Y15604588D01*
X5041886Y15571794D01*
X4924235Y15549363D01*
X4793190Y15535594D01*
X4640245Y15528786D01*
X4456892Y15527236D01*
X4451536Y15527250D01*
X4313679Y15527983D01*
X4206894Y15529809D01*
X4123441Y15533410D01*
X4055581Y15539471D01*
X3995577Y15548676D01*
X3935687Y15561709D01*
X3868175Y15579253D01*
X3862620Y15580762D01*
X3638846Y15650137D01*
X3444550Y15729911D01*
X3270710Y15825003D01*
X3108304Y15940332D01*
X2948312Y16080817D01*
X2933558Y16095040D01*
X2750603Y16294808D01*
X2597805Y16510767D01*
X2471445Y16748903D01*
X2367806Y17015199D01*
X2354704Y17056186D01*
X2344219Y17099061D01*
X3733969Y17099061D01*
X4241969Y17099061D01*
X4241969Y17226061D01*
X4241591Y17264626D01*
X4237734Y17318938D01*
X4228158Y17345826D01*
X4210967Y17353061D01*
X4205872Y17355289D01*
X4212124Y17380429D01*
X4245536Y17433450D01*
X4306049Y17514254D01*
X4346194Y17564285D01*
X4395320Y17621710D01*
X4432723Y17660929D01*
X4452502Y17675446D01*
X4463559Y17668757D01*
X4495648Y17636923D01*
X4541048Y17584836D01*
X4593754Y17519138D01*
X4648357Y17446276D01*
X4681079Y17396188D01*
X4692060Y17367571D01*
X4683457Y17356513D01*
X4676732Y17354353D01*
X4661882Y17336666D01*
X4654362Y17296097D01*
X4652277Y17224629D01*
X4652277Y17099061D01*
X5140738Y17099061D01*
X5140738Y17353061D01*
X5077238Y17353419D01*
X5076683Y17353423D01*
X5052972Y17356598D01*
X5027341Y17367797D01*
X4996622Y17390269D01*
X4957645Y17427262D01*
X4907241Y17482022D01*
X4842242Y17557799D01*
X4759480Y17657839D01*
X4655785Y17785391D01*
X4610447Y17841422D01*
X4831631Y18094104D01*
X4855591Y18121430D01*
X4931953Y18207348D01*
X4989011Y18268534D01*
X5031371Y18309097D01*
X5063637Y18333148D01*
X5090417Y18344798D01*
X5116315Y18348155D01*
X5179815Y18349523D01*
X5179815Y18603523D01*
X4671815Y18603523D01*
X4671815Y18476523D01*
X4672030Y18447700D01*
X4675547Y18388297D01*
X4684684Y18358002D01*
X4701123Y18349523D01*
X4714495Y18348378D01*
X4730431Y18339194D01*
X4729463Y18336475D01*
X4712457Y18310653D01*
X4678666Y18265004D01*
X4633867Y18206805D01*
X4583837Y18143330D01*
X4534354Y18081856D01*
X4491194Y18029659D01*
X4460135Y17994013D01*
X4446955Y17982195D01*
X4435384Y17996545D01*
X4404169Y18035898D01*
X4358440Y18093803D01*
X4303222Y18163908D01*
X4245593Y18238313D01*
X4208164Y18290477D01*
X4190478Y18322496D01*
X4189806Y18339344D01*
X4203422Y18345997D01*
X4220966Y18351599D01*
X4234404Y18369803D01*
X4240520Y18408870D01*
X4241969Y18477882D01*
X4241969Y18603523D01*
X3753508Y18603523D01*
X3753508Y18349523D01*
X3810097Y18349523D01*
X3810782Y18349521D01*
X3834880Y18345609D01*
X3861770Y18331508D01*
X3895772Y18303147D01*
X3941205Y18256458D01*
X4002386Y18187373D01*
X4083635Y18091823D01*
X4141425Y18022600D01*
X4204897Y17945040D01*
X4255319Y17881660D01*
X4288584Y17837642D01*
X4300585Y17818164D01*
X4296294Y17810289D01*
X4270345Y17777140D01*
X4224822Y17723801D01*
X4164270Y17655541D01*
X4093231Y17577633D01*
X4056003Y17537395D01*
X3986468Y17463433D01*
X3935463Y17412411D01*
X3897646Y17380096D01*
X3867677Y17362255D01*
X3840217Y17354654D01*
X3809924Y17353061D01*
X3733969Y17353061D01*
X3733969Y17099061D01*
X2344219Y17099061D01*
X2289944Y17320999D01*
X2285629Y17353061D01*
X2252110Y17602121D01*
X2241191Y17890617D01*
G37*
G36*
X10924123Y10201985D02*
G01*
X10064431Y10201985D01*
X10064431Y13562600D01*
X10924123Y13562600D01*
X10924123Y10201985D01*
G37*
G36*
X20376772Y20166427D02*
G01*
X20644508Y20166253D01*
X21354572Y18324927D01*
X21412324Y18175286D01*
X21510975Y17920235D01*
X21606172Y17674807D01*
X21696861Y17441690D01*
X21781984Y17223568D01*
X21860489Y17023127D01*
X21931320Y16843053D01*
X21993421Y16686032D01*
X22045738Y16554749D01*
X22087216Y16451890D01*
X22116800Y16380141D01*
X22133434Y16342188D01*
X22151872Y16305688D01*
X22244551Y16158690D01*
X22351065Y16045895D01*
X22473897Y15964547D01*
X22480850Y15961030D01*
X22539985Y15929170D01*
X22572319Y15903997D01*
X22585852Y15876720D01*
X22588585Y15838549D01*
X22588585Y15770446D01*
X21120953Y15770446D01*
X21132969Y15932744D01*
X21256391Y15966422D01*
X21271403Y15970699D01*
X21385909Y16019503D01*
X21467224Y16088205D01*
X21516090Y16177410D01*
X21527187Y16229308D01*
X21530470Y16332998D01*
X21518021Y16460212D01*
X21490651Y16603932D01*
X21449170Y16757138D01*
X21439911Y16785977D01*
X21416616Y16855799D01*
X21383434Y16953402D01*
X21341627Y17075193D01*
X21292455Y17217576D01*
X21237179Y17376959D01*
X21177061Y17549746D01*
X21113361Y17732343D01*
X21047342Y17921156D01*
X20980264Y18112590D01*
X20913389Y18303052D01*
X20847977Y18488946D01*
X20785290Y18666679D01*
X20726589Y18832656D01*
X20673135Y18983283D01*
X20626190Y19114965D01*
X20587015Y19224109D01*
X20556870Y19307120D01*
X20537017Y19360403D01*
X20528718Y19380364D01*
X20528630Y19380451D01*
X20526614Y19381542D01*
X20524041Y19379449D01*
X20520282Y19371867D01*
X20514709Y19356489D01*
X20506694Y19331009D01*
X20495608Y19293120D01*
X20480825Y19240515D01*
X20461714Y19170888D01*
X20437649Y19081932D01*
X20408000Y18971342D01*
X20372141Y18836809D01*
X20329442Y18676028D01*
X20279276Y18486693D01*
X20221014Y18266496D01*
X20154027Y18013131D01*
X20077689Y17724292D01*
X20076737Y17720689D01*
X20013836Y17482723D01*
X19952494Y17250739D01*
X19893645Y17028270D01*
X19838227Y16818851D01*
X19787173Y16626013D01*
X19741421Y16453290D01*
X19701905Y16304216D01*
X19669562Y16182323D01*
X19645326Y16091145D01*
X19630134Y16034215D01*
X19567262Y15799754D01*
X18930062Y15799754D01*
X18350316Y17558215D01*
X18326483Y17630495D01*
X18243882Y17880916D01*
X18164804Y18120507D01*
X18090118Y18346639D01*
X18020695Y18556684D01*
X17957405Y18748012D01*
X17901119Y18917996D01*
X17852707Y19064008D01*
X17813039Y19183418D01*
X17782984Y19273598D01*
X17763415Y19331919D01*
X17755199Y19355754D01*
X17753312Y19360241D01*
X17750088Y19364936D01*
X17745992Y19364744D01*
X17740344Y19357491D01*
X17732468Y19341005D01*
X17721684Y19313113D01*
X17707315Y19271641D01*
X17688683Y19214417D01*
X17665108Y19139267D01*
X17635914Y19044018D01*
X17600421Y18926497D01*
X17557952Y18784532D01*
X17507828Y18615948D01*
X17449372Y18418573D01*
X17381905Y18190235D01*
X17304748Y17928759D01*
X17217224Y17631972D01*
X17150202Y17404255D01*
X17087247Y17189090D01*
X17034062Y17005419D01*
X16989851Y16850156D01*
X16953818Y16720216D01*
X16925169Y16612514D01*
X16903110Y16523965D01*
X16886844Y16451483D01*
X16875576Y16391983D01*
X16868512Y16342379D01*
X16864857Y16299586D01*
X16863815Y16260520D01*
X16870204Y16199511D01*
X16908694Y16104938D01*
X16978043Y16026287D01*
X17073693Y15968093D01*
X17191085Y15934891D01*
X17221709Y15929935D01*
X17258026Y15918205D01*
X17271898Y15894190D01*
X17274123Y15846381D01*
X17274123Y15770446D01*
X14634072Y15770446D01*
X14640136Y15840305D01*
X14644826Y15875022D01*
X14658777Y15902957D01*
X14690858Y15923357D01*
X14750768Y15945438D01*
X14793375Y15960810D01*
X14884826Y16005484D01*
X14949912Y16060592D01*
X14997892Y16133168D01*
X15007237Y16153351D01*
X15015643Y16178046D01*
X15022536Y16209659D01*
X15028165Y16252209D01*
X15032781Y16309717D01*
X15036631Y16386201D01*
X15039967Y16485681D01*
X15043038Y16612177D01*
X15046093Y16769707D01*
X15049383Y16962292D01*
X15051151Y17067359D01*
X15054900Y17280072D01*
X15059051Y17504809D01*
X15063404Y17731353D01*
X15067762Y17949483D01*
X15071926Y18148979D01*
X15075699Y18319623D01*
X15089602Y18924723D01*
X14919171Y18690854D01*
X14811476Y18545057D01*
X14526892Y18177717D01*
X14234652Y17825055D01*
X13936770Y17488799D01*
X13635260Y17170678D01*
X13332139Y16872418D01*
X13029422Y16595748D01*
X12729123Y16342395D01*
X12433257Y16114087D01*
X12143840Y15912551D01*
X11862887Y15739516D01*
X11592414Y15596708D01*
X11334434Y15485857D01*
X11090964Y15408688D01*
X11051469Y15399383D01*
X10965715Y15382448D01*
X10871881Y15367109D01*
X10777721Y15354269D01*
X10690989Y15344832D01*
X10619437Y15339701D01*
X10570821Y15339780D01*
X10552892Y15345973D01*
X10553039Y15346541D01*
X10573002Y15358408D01*
X10620046Y15377656D01*
X10684777Y15400408D01*
X10800331Y15442718D01*
X11012991Y15539110D01*
X11241104Y15663556D01*
X11480520Y15813392D01*
X11727087Y15985957D01*
X11976655Y16178587D01*
X12225074Y16388619D01*
X12245648Y16406938D01*
X12346144Y16499035D01*
X12466806Y16612894D01*
X12602247Y16743169D01*
X12747082Y16884513D01*
X12895923Y17031582D01*
X13043386Y17179028D01*
X13184084Y17321507D01*
X13312632Y17453671D01*
X13423642Y17570177D01*
X13511730Y17665677D01*
X13725472Y17909590D01*
X13979322Y18215680D01*
X14222933Y18527235D01*
X14452846Y18839381D01*
X14665599Y19147240D01*
X14857731Y19445939D01*
X15025782Y19730603D01*
X15166290Y19996355D01*
X15231678Y20128956D01*
X15388324Y20123355D01*
X15544969Y20117754D01*
X15554738Y18154138D01*
X15555305Y18041324D01*
X15556937Y17730483D01*
X15558522Y17455668D01*
X15560107Y17214594D01*
X15561739Y17004978D01*
X15563463Y16824536D01*
X15565326Y16670983D01*
X15567375Y16542034D01*
X15569655Y16435407D01*
X15572213Y16348817D01*
X15575096Y16279980D01*
X15578350Y16226611D01*
X15582022Y16186427D01*
X15586157Y16157142D01*
X15590802Y16136474D01*
X15596003Y16122138D01*
X15636897Y16052869D01*
X15700380Y15997730D01*
X15783753Y15971899D01*
X15784814Y15971759D01*
X15854851Y15976826D01*
X15920341Y16012696D01*
X15984554Y16082007D01*
X16050760Y16187399D01*
X16064004Y16211739D01*
X16076551Y16235904D01*
X16089118Y16262151D01*
X16102475Y16292827D01*
X16117390Y16330284D01*
X16134635Y16376870D01*
X16154978Y16434936D01*
X16179189Y16506831D01*
X16208038Y16594905D01*
X16242294Y16701507D01*
X16282727Y16828989D01*
X16330106Y16979698D01*
X16385202Y17155985D01*
X16448784Y17360200D01*
X16521621Y17594692D01*
X16604483Y17861811D01*
X16698140Y18163908D01*
X16767210Y18386686D01*
X16838724Y18617271D01*
X16907635Y18839383D01*
X16972821Y19049417D01*
X17033163Y19243765D01*
X17087540Y19418821D01*
X17134833Y19570978D01*
X17173921Y19696628D01*
X17203685Y19792166D01*
X17223003Y19853985D01*
X17305726Y20117754D01*
X17601492Y20123142D01*
X17897257Y20128529D01*
X18261225Y19019219D01*
X18288827Y18935106D01*
X18364092Y18705879D01*
X18441610Y18469958D01*
X18519321Y18233603D01*
X18595165Y18003077D01*
X18667080Y17784639D01*
X18733008Y17584551D01*
X18790888Y17409075D01*
X18838658Y17264472D01*
X18880307Y17138082D01*
X18926940Y16995401D01*
X18968251Y16867720D01*
X19002833Y16759454D01*
X19029278Y16675015D01*
X19046177Y16618819D01*
X19052123Y16595279D01*
X19053055Y16586980D01*
X19066845Y16571523D01*
X19073517Y16589518D01*
X19090068Y16642019D01*
X19115590Y16725943D01*
X19149190Y16838206D01*
X19189972Y16975722D01*
X19237041Y17135409D01*
X19289502Y17314181D01*
X19346460Y17508955D01*
X19407020Y17716646D01*
X19470288Y17934169D01*
X19535367Y18158442D01*
X19601364Y18386378D01*
X19667383Y18614895D01*
X19732529Y18840907D01*
X19795908Y19061331D01*
X19856623Y19273083D01*
X19913781Y19473077D01*
X19966486Y19658230D01*
X20013844Y19825458D01*
X20054958Y19971675D01*
X20088935Y20093799D01*
X20109037Y20166600D01*
X20376772Y20166427D01*
G37*
G36*
X7035969Y14832600D02*
G01*
X7035969Y14090138D01*
X7035974Y14062477D01*
X7036206Y13898297D01*
X7036759Y13747733D01*
X7037591Y13615028D01*
X7038664Y13504427D01*
X7039938Y13420173D01*
X7041373Y13366508D01*
X7042929Y13347677D01*
X7054996Y13352832D01*
X7095628Y13372871D01*
X7157591Y13404509D01*
X7233429Y13443977D01*
X7318114Y13486417D01*
X7481176Y13553749D01*
X7637913Y13595602D01*
X7801118Y13614884D01*
X7983585Y13614502D01*
X8093653Y13606746D01*
X8351096Y13565706D01*
X8585509Y13493261D01*
X8797633Y13388917D01*
X8988207Y13252179D01*
X9157972Y13082552D01*
X9307669Y12879541D01*
X9438038Y12642652D01*
X9459902Y12595579D01*
X9513226Y12464320D01*
X9551085Y12336797D01*
X9577153Y12198825D01*
X9595105Y12036216D01*
X9601509Y11934850D01*
X9595765Y11655491D01*
X9554780Y11391213D01*
X9478934Y11143078D01*
X9368609Y10912146D01*
X9224186Y10699480D01*
X9046045Y10506141D01*
X8983010Y10448797D01*
X8894314Y10378055D01*
X8801878Y10319311D01*
X8688916Y10261044D01*
X8626020Y10231202D01*
X8494638Y10172825D01*
X8381534Y10130807D01*
X8275897Y10102625D01*
X8166913Y10085755D01*
X8043772Y10077672D01*
X7895661Y10075852D01*
X7833099Y10076095D01*
X7732474Y10077348D01*
X7657302Y10080644D01*
X7598496Y10087211D01*
X7546969Y10098274D01*
X7493633Y10115061D01*
X7429399Y10138798D01*
X7333661Y10178311D01*
X7150205Y10269801D01*
X6975381Y10376215D01*
X6824368Y10488771D01*
X6805208Y10504726D01*
X6749040Y10549631D01*
X6706378Y10580973D01*
X6685250Y10592754D01*
X6683792Y10592287D01*
X6662342Y10573349D01*
X6622207Y10530796D01*
X6568539Y10470259D01*
X6506492Y10397369D01*
X6343173Y10201985D01*
X6117661Y10201985D01*
X6117661Y11836907D01*
X7018853Y11836907D01*
X7035698Y11638061D01*
X7061372Y11517733D01*
X7122767Y11353092D01*
X7211453Y11215095D01*
X7328960Y11101562D01*
X7476818Y11010317D01*
X7501200Y10998417D01*
X7572998Y10966849D01*
X7636860Y10947427D01*
X7708456Y10936275D01*
X7803456Y10929516D01*
X7956147Y10931331D01*
X8135088Y10962794D01*
X8292693Y11025955D01*
X8427366Y11119639D01*
X8537506Y11242671D01*
X8621515Y11393876D01*
X8677794Y11572079D01*
X8689275Y11654237D01*
X8694570Y11769385D01*
X8692438Y11904233D01*
X8690574Y11944511D01*
X8683470Y12044023D01*
X8672363Y12121162D01*
X8655017Y12188445D01*
X8629196Y12258394D01*
X8613242Y12294758D01*
X8524815Y12438549D01*
X8407584Y12558094D01*
X8265270Y12650197D01*
X8101595Y12711661D01*
X7941963Y12737509D01*
X7768394Y12735316D01*
X7599904Y12704387D01*
X7448386Y12645919D01*
X7368572Y12597757D01*
X7246140Y12489823D01*
X7148341Y12355835D01*
X7076786Y12199730D01*
X7033086Y12025442D01*
X7018853Y11836907D01*
X6117661Y11836907D01*
X6117661Y14832600D01*
X7035969Y14832600D01*
G37*
G36*
X17694206Y21442472D02*
G01*
X17994011Y21442248D01*
X18306745Y21441875D01*
X18630178Y21441349D01*
X21357661Y21436329D01*
X21357661Y20811369D01*
X18475738Y20811369D01*
X18438331Y20811370D01*
X18107151Y20811463D01*
X17787048Y20811702D01*
X17480175Y20812078D01*
X17188688Y20812583D01*
X16914739Y20813207D01*
X16660482Y20813944D01*
X16428072Y20814783D01*
X16219661Y20815717D01*
X16037405Y20816737D01*
X15883456Y20817834D01*
X15759969Y20819000D01*
X15669097Y20820226D01*
X15612995Y20821504D01*
X15593815Y20822824D01*
X15599388Y20839781D01*
X15619122Y20886208D01*
X15649865Y20954279D01*
X15688207Y21036848D01*
X15730737Y21126769D01*
X15774042Y21216895D01*
X15814712Y21300082D01*
X15849335Y21369182D01*
X15874500Y21417051D01*
X15886795Y21436542D01*
X15898132Y21437364D01*
X15945928Y21438417D01*
X16028965Y21439360D01*
X16145012Y21440189D01*
X16291838Y21440900D01*
X16467212Y21441489D01*
X16668902Y21441953D01*
X16894678Y21442287D01*
X17142308Y21442487D01*
X17409561Y21442550D01*
X17694206Y21442472D01*
G37*
G36*
X21095506Y20144622D02*
G01*
X21104911Y20103100D01*
X21106161Y20039600D01*
X21137763Y20103100D01*
X21142461Y20112289D01*
X21165616Y20150924D01*
X21181147Y20166600D01*
X21183812Y20165614D01*
X21203780Y20144039D01*
X21231333Y20103100D01*
X21269738Y20039600D01*
X21275861Y20103100D01*
X21286965Y20148382D01*
X21312304Y20166600D01*
X21321294Y20165512D01*
X21333001Y20152642D01*
X21335041Y20118394D01*
X21328653Y20054254D01*
X21321914Y20005472D01*
X21312833Y19953327D01*
X21305710Y19927254D01*
X21300981Y19920800D01*
X21274149Y19912127D01*
X21244656Y19934959D01*
X21219739Y19984478D01*
X21196017Y20056356D01*
X21159142Y19984478D01*
X21157486Y19981277D01*
X21122949Y19928976D01*
X21094433Y19915266D01*
X21072440Y19940055D01*
X21057471Y20003250D01*
X21054165Y20028686D01*
X21047640Y20089167D01*
X21045046Y20130250D01*
X21045207Y20136186D01*
X21055771Y20165647D01*
X21075831Y20166965D01*
X21095506Y20144622D01*
G37*
G36*
X20930685Y20162870D02*
G01*
X20943569Y20136237D01*
X20947354Y20078064D01*
X20947526Y20064278D01*
X20955660Y20004560D01*
X20976661Y19978281D01*
X20990209Y19969980D01*
X21005969Y19939817D01*
X21003864Y19931289D01*
X20977723Y19917033D01*
X20918046Y19912600D01*
X20880754Y19913792D01*
X20841630Y19922590D01*
X20830123Y19941908D01*
X20833527Y19955575D01*
X20859431Y19971215D01*
X20874738Y19977467D01*
X20885601Y20007473D01*
X20888738Y20068908D01*
X20890614Y20119932D01*
X20899616Y20156142D01*
X20918046Y20166600D01*
X20930685Y20162870D01*
G37*
G36*
X19853200Y7625737D02*
G01*
X19447777Y7619438D01*
X19042354Y7613138D01*
X18922705Y7550602D01*
X18873375Y7523315D01*
X18769247Y7449478D01*
X18687576Y7360460D01*
X18616428Y7244325D01*
X18553892Y7124677D01*
X18547937Y6543408D01*
X18541982Y5962138D01*
X19853200Y5962138D01*
X19853200Y5102446D01*
X18544123Y5102446D01*
X18544123Y3754292D01*
X17684431Y3754292D01*
X17684431Y5102446D01*
X17274123Y5102446D01*
X17274123Y5962138D01*
X17681625Y5962138D01*
X17688234Y6611792D01*
X17694844Y7261446D01*
X17749734Y7417754D01*
X17768767Y7470155D01*
X17842475Y7640895D01*
X17928515Y7789692D01*
X18034315Y7929907D01*
X18068780Y7969368D01*
X18235169Y8127703D01*
X18424215Y8262857D01*
X18627649Y8369553D01*
X18837200Y8442511D01*
X18862577Y8448800D01*
X18919057Y8460325D01*
X18981059Y8468822D01*
X19055291Y8474740D01*
X19148464Y8478529D01*
X19267287Y8480641D01*
X19418469Y8481524D01*
X19853200Y8482600D01*
X19853200Y7625737D01*
G37*
G36*
X3460111Y8463045D02*
G01*
X3742481Y8462462D01*
X3985799Y8461039D01*
X4190081Y8458775D01*
X4355340Y8455671D01*
X4481590Y8451727D01*
X4568847Y8446942D01*
X4617123Y8441316D01*
X4720123Y8412586D01*
X4884314Y8340970D01*
X5047897Y8241167D01*
X5203325Y8118677D01*
X5343047Y7978998D01*
X5459515Y7827630D01*
X5504122Y7749541D01*
X5565609Y7596341D01*
X5610108Y7422527D01*
X5636449Y7237734D01*
X5643462Y7051598D01*
X5629976Y6873753D01*
X5594821Y6713836D01*
X5583647Y6680335D01*
X5503032Y6502597D01*
X5391675Y6331592D01*
X5255765Y6173789D01*
X5101493Y6035655D01*
X4935051Y5923660D01*
X4762629Y5844273D01*
X4715307Y5828691D01*
X4643535Y5809533D01*
X4564866Y5794598D01*
X4473942Y5783415D01*
X4365404Y5775514D01*
X4233891Y5770424D01*
X4074046Y5767673D01*
X3880508Y5766792D01*
X3766774Y5766325D01*
X3623285Y5764461D01*
X3497553Y5761347D01*
X3394908Y5757165D01*
X3320678Y5752097D01*
X3280193Y5746324D01*
X3204211Y5716953D01*
X3102554Y5646966D01*
X3022928Y5552989D01*
X2970999Y5442348D01*
X2952431Y5322371D01*
X2952503Y5312200D01*
X2965932Y5201206D01*
X3006167Y5104280D01*
X3078420Y5008446D01*
X3097134Y4987807D01*
X3122193Y4961972D01*
X3148129Y4940147D01*
X3178127Y4921991D01*
X3215368Y4907169D01*
X3263036Y4895341D01*
X3324315Y4886170D01*
X3402387Y4879318D01*
X3500437Y4874447D01*
X3621647Y4871219D01*
X3769201Y4869297D01*
X3946282Y4868343D01*
X4156073Y4868018D01*
X4401757Y4867985D01*
X5472892Y4867985D01*
X5472892Y3967803D01*
X3059892Y3978985D01*
X2937214Y4030671D01*
X2889345Y4051500D01*
X2727268Y4135340D01*
X2584402Y4234672D01*
X2445071Y4359985D01*
X2396167Y4410489D01*
X2262742Y4576495D01*
X2163101Y4753221D01*
X2093966Y4947386D01*
X2052060Y5165707D01*
X2045121Y5248361D01*
X2048213Y5422616D01*
X2071524Y5599279D01*
X2113106Y5759393D01*
X2192856Y5940371D01*
X2309434Y6120362D01*
X2453504Y6282517D01*
X2619664Y6421637D01*
X2802515Y6532524D01*
X2996658Y6609979D01*
X3028377Y6618981D01*
X3071109Y6629113D01*
X3118352Y6637265D01*
X3175044Y6643780D01*
X3246121Y6648998D01*
X3336522Y6653262D01*
X3451185Y6656914D01*
X3595047Y6660296D01*
X3773046Y6663750D01*
X3829456Y6664792D01*
X3993756Y6668015D01*
X4124794Y6671110D01*
X4227039Y6674414D01*
X4304962Y6678265D01*
X4363033Y6683000D01*
X4405722Y6688954D01*
X4437499Y6696466D01*
X4462835Y6705873D01*
X4486200Y6717511D01*
X4545991Y6754634D01*
X4641585Y6842857D01*
X4706001Y6946064D01*
X4738082Y7058724D01*
X4736669Y7175309D01*
X4700604Y7290288D01*
X4628729Y7398132D01*
X4628641Y7398233D01*
X4600336Y7431045D01*
X4575593Y7458911D01*
X4551132Y7482264D01*
X4523673Y7501532D01*
X4489937Y7517147D01*
X4446644Y7529539D01*
X4390516Y7539138D01*
X4318272Y7546375D01*
X4226634Y7551680D01*
X4112321Y7555483D01*
X3972055Y7558216D01*
X3802555Y7560308D01*
X3600543Y7562190D01*
X3362738Y7564292D01*
X2297892Y7574061D01*
X2292641Y8018561D01*
X2287389Y8463061D01*
X3400487Y8463061D01*
X3460111Y8463045D01*
G37*
%TD*%
%LPC*%
D14*
%TO.C,S1*%
X44360000Y58090000D03*
X51160000Y58090000D03*
%TD*%
D15*
%TO.C,J4*%
X10186600Y55790000D03*
X5186600Y55790000D03*
D16*
X11186600Y58490000D03*
X4186600Y58490000D03*
%TD*%
D17*
%TO.C,J1*%
X49798000Y15223000D03*
D18*
X51798000Y16823000D03*
D19*
X51798000Y19323000D03*
X51798000Y21823000D03*
X51798000Y24323000D03*
%TD*%
D17*
%TO.C,J3*%
X49781000Y28752000D03*
D18*
X51781000Y30352000D03*
D19*
X51781000Y32852000D03*
X51781000Y35352000D03*
X51781000Y37852000D03*
X51781000Y40352000D03*
X51781000Y42852000D03*
X51781000Y45352000D03*
X51781000Y47852000D03*
%TD*%
D17*
%TO.C,J2*%
X30410000Y29765000D03*
D20*
X28810000Y31765000D03*
D21*
X26310000Y31765000D03*
X23810000Y31765000D03*
X21310000Y31765000D03*
%TD*%
M02*
