%TF.GenerationSoftware,KiCad,Pcbnew,(6.0.7)*%
%TF.CreationDate,2023-01-18T18:15:29-06:00*%
%TF.ProjectId,SmartSpin2k,536d6172-7453-4706-996e-326b2e6b6963,2.35*%
%TF.SameCoordinates,Original*%
%TF.FileFunction,Copper,L2,Bot*%
%TF.FilePolarity,Positive*%
%FSLAX46Y46*%
G04 Gerber Fmt 4.6, Leading zero omitted, Abs format (unit mm)*
G04 Created by KiCad (PCBNEW (6.0.7)) date 2023-01-18 18:15:29*
%MOMM*%
%LPD*%
G01*
G04 APERTURE LIST*
G04 Aperture macros list*
%AMRoundRect*
0 Rectangle with rounded corners*
0 $1 Rounding radius*
0 $2 $3 $4 $5 $6 $7 $8 $9 X,Y pos of 4 corners*
0 Add a 4 corners polygon primitive as box body*
4,1,4,$2,$3,$4,$5,$6,$7,$8,$9,$2,$3,0*
0 Add four circle primitives for the rounded corners*
1,1,$1+$1,$2,$3*
1,1,$1+$1,$4,$5*
1,1,$1+$1,$6,$7*
1,1,$1+$1,$8,$9*
0 Add four rect primitives between the rounded corners*
20,1,$1+$1,$2,$3,$4,$5,0*
20,1,$1+$1,$4,$5,$6,$7,0*
20,1,$1+$1,$6,$7,$8,$9,0*
20,1,$1+$1,$8,$9,$2,$3,0*%
G04 Aperture macros list end*
%TA.AperFunction,ComponentPad*%
%ADD10O,1.250000X0.950000*%
%TD*%
%TA.AperFunction,ComponentPad*%
%ADD11O,1.000000X1.550000*%
%TD*%
%TA.AperFunction,ComponentPad*%
%ADD12RoundRect,0.250000X0.725000X-0.600000X0.725000X0.600000X-0.725000X0.600000X-0.725000X-0.600000X0*%
%TD*%
%TA.AperFunction,ComponentPad*%
%ADD13O,1.950000X1.700000*%
%TD*%
%TA.AperFunction,ComponentPad*%
%ADD14RoundRect,0.250000X0.600000X0.725000X-0.600000X0.725000X-0.600000X-0.725000X0.600000X-0.725000X0*%
%TD*%
%TA.AperFunction,ComponentPad*%
%ADD15O,1.700000X1.950000*%
%TD*%
%TA.AperFunction,ViaPad*%
%ADD16C,0.800000*%
%TD*%
%TA.AperFunction,Conductor*%
%ADD17C,0.500000*%
%TD*%
%TA.AperFunction,Conductor*%
%ADD18C,0.250000*%
%TD*%
G04 APERTURE END LIST*
D10*
%TO.P,J4,SH*%
%TO.N,GND*%
X10186600Y55790000D03*
X5186600Y55790000D03*
D11*
X11186600Y58490000D03*
X4186600Y58490000D03*
%TD*%
D12*
%TO.P,J1,1,1*%
%TO.N,/A1*%
X51798000Y16823000D03*
D13*
%TO.P,J1,2,2*%
%TO.N,/A2*%
X51798000Y19323000D03*
%TO.P,J1,3,3*%
%TO.N,/B1*%
X51798000Y21823000D03*
%TO.P,J1,4,4*%
%TO.N,/B2*%
X51798000Y24323000D03*
%TD*%
D12*
%TO.P,J3,1,1*%
%TO.N,/VDC*%
X51781000Y30352000D03*
D13*
%TO.P,J3,2,2*%
%TO.N,GND*%
X51781000Y32852000D03*
%TO.P,J3,3,3*%
%TO.N,/ShiftDown*%
X51781000Y35352000D03*
%TO.P,J3,4,4*%
%TO.N,/ShiftUp*%
X51781000Y37852000D03*
%TO.P,J3,5,5*%
%TO.N,GND*%
X51781000Y40352000D03*
%TO.P,J3,6,6*%
X51781000Y42852000D03*
%TO.P,J3,7,7*%
%TO.N,/RS232OUT1*%
X51781000Y45352000D03*
%TO.P,J3,8,8*%
%TO.N,/RS232IN1*%
X51781000Y47852000D03*
%TD*%
D14*
%TO.P,J2,1,1*%
%TO.N,Net-(J2-Pad1)*%
X28810000Y31765000D03*
D15*
%TO.P,J2,2,2*%
%TO.N,Net-(J2-Pad2)*%
X26310000Y31765000D03*
%TO.P,J2,3,3*%
%TO.N,Net-(J2-Pad3)*%
X23810000Y31765000D03*
%TO.P,J2,4,4*%
%TO.N,Net-(J2-Pad4)*%
X21310000Y31765000D03*
%TD*%
D16*
%TO.N,GND*%
X28642000Y44703000D03*
X5110000Y31004500D03*
X44415000Y48767000D03*
X26102000Y43433000D03*
X39038000Y26611000D03*
X36243200Y33721000D03*
X27397000Y43433000D03*
X16576600Y50367200D03*
X36342500Y15788100D03*
X40554200Y16458200D03*
X39614400Y29336000D03*
X26102000Y45973000D03*
X39038000Y24815000D03*
X49114000Y24433800D03*
X39038000Y23019000D03*
X22571000Y36575000D03*
X27372000Y45973000D03*
X18301300Y52284000D03*
X14613400Y12648100D03*
X3403400Y55041900D03*
X38140000Y25713000D03*
X11649100Y55032900D03*
X39936000Y25713000D03*
X37241000Y24815000D03*
X40834000Y24815000D03*
X38140000Y23917000D03*
X45522500Y36791500D03*
X22750000Y15024900D03*
X35931400Y30733000D03*
X8118400Y17093200D03*
X41748000Y45401402D03*
X3148600Y42748000D03*
X22190000Y20446000D03*
X28642000Y45973000D03*
X16856000Y16509000D03*
X16696200Y12823600D03*
X35283800Y52347300D03*
X14697000Y36575000D03*
X39360400Y31723600D03*
X42383000Y51561000D03*
X18601200Y12413600D03*
X44836200Y16328900D03*
X27372000Y44703000D03*
X39936000Y23917000D03*
X28642000Y43433000D03*
X26102000Y44703000D03*
X32807200Y22655800D03*
X14710000Y4529800D03*
X9312200Y27964400D03*
X20430000Y12851200D03*
X21670000Y5969700D03*
X33518400Y19125200D03*
X39377500Y3052900D03*
X15468900Y45847200D03*
X48733000Y41553400D03*
X15408200Y43981500D03*
X12334800Y11479800D03*
X15814600Y52145200D03*
X24399800Y15543800D03*
X26137000Y2606700D03*
%TO.N,/VDC*%
X40147800Y19988800D03*
X16732400Y8317400D03*
X28611800Y16331800D03*
X36127600Y5142400D03*
X44923000Y25068800D03*
X22229100Y9320800D03*
%TO.N,/3V3*%
X9664300Y36117800D03*
X4154600Y35262100D03*
X8214700Y35837600D03*
X35700300Y28167600D03*
X5922200Y35837600D03*
%TO.N,Net-(C14-Pad2)*%
X41047250Y28588950D03*
X34737600Y18275700D03*
%TO.N,/VBUS*%
X3394000Y34060400D03*
X10696800Y51925000D03*
X3812100Y38856500D03*
X7381800Y34009600D03*
%TO.N,/ShiftDown*%
X17618000Y40131000D03*
X16602000Y27685000D03*
X15713000Y22351000D03*
X16602000Y24637000D03*
%TO.N,/ShiftUp*%
X14692701Y23870701D03*
X15459000Y25272000D03*
X17643400Y41375600D03*
X23079000Y41447549D03*
X15332000Y27685000D03*
%TO.N,/A1*%
X48680000Y17970000D03*
X44680000Y19970000D03*
%TO.N,/B2*%
X43805400Y27075400D03*
%TO.N,/RS232IN1*%
X48504400Y48309800D03*
%TO.N,/D-*%
X6541300Y50126100D03*
X8434500Y54062100D03*
X10361600Y46305800D03*
%TO.N,/IO0_BOOT*%
X43653000Y40385000D03*
X39335000Y35723300D03*
X30597400Y31368000D03*
%TO.N,/DTR*%
X27752600Y24510000D03*
X27739900Y21627100D03*
%TO.N,/EN*%
X6721400Y32866600D03*
X17922800Y48538400D03*
X13909600Y25678400D03*
X12995200Y49554400D03*
%TO.N,/TMCUART1*%
X40699100Y35618900D03*
X36642200Y27663500D03*
%TO.N,/TXD0*%
X16729000Y32384000D03*
X40681600Y38792000D03*
%TO.N,/RXD0*%
X15713000Y32421500D03*
X39589000Y38861000D03*
%TO.N,/DriverDIR*%
X31224700Y32592800D03*
X26508000Y36448000D03*
%TO.N,/DriverSTEP*%
X25144446Y36481597D03*
X32858000Y30479000D03*
%TO.N,Net-(C21-Pad1)*%
X46562500Y41062602D03*
X45218700Y42405500D03*
%TO.N,/DriverEN*%
X21809000Y39623000D03*
X49749000Y35813000D03*
%TO.N,Net-(D1-Pad2)*%
X17237000Y22351000D03*
X30572000Y25399000D03*
%TO.N,Net-(R1-Pad2)*%
X16805200Y45363400D03*
X17973600Y47370000D03*
%TO.N,Net-(R17-Pad1)*%
X32832600Y25018000D03*
X34255000Y25808900D03*
%TO.N,/T1IN*%
X38696250Y44668750D03*
X41406100Y41401000D03*
%TD*%
D17*
%TO.N,GND*%
X39038000Y26611000D02*
X39038000Y28759600D01*
X39038000Y28759600D02*
X39614400Y29336000D01*
%TO.N,/VDC*%
X40147800Y19988800D02*
X38502900Y19988800D01*
X16732400Y8317400D02*
X20597400Y8317400D01*
X21912100Y9632100D02*
X28611800Y16331800D01*
X22229100Y9320800D02*
X22243100Y9306800D01*
X43881600Y24027400D02*
X43881600Y22960600D01*
X44923000Y25068800D02*
X43881600Y24027400D01*
X20597400Y8317400D02*
X21912100Y9632100D01*
X22243100Y9306800D02*
X31963200Y9306800D01*
X31963200Y9306800D02*
X36127600Y5142400D01*
X40909800Y19988800D02*
X40147800Y19988800D01*
X43881600Y22960600D02*
X40909800Y19988800D01*
X38502900Y19988800D02*
X34845900Y16331800D01*
X34845900Y16331800D02*
X28611800Y16331800D01*
X22229100Y9320800D02*
X22223400Y9320800D01*
X22223400Y9320800D02*
X21912100Y9632100D01*
D18*
%TO.N,/3V3*%
X4730100Y35837600D02*
X4154600Y35262100D01*
X8214700Y35837600D02*
X5922200Y35837600D01*
X8214700Y32070700D02*
X8214700Y35837600D01*
X9384100Y35837600D02*
X9664300Y36117800D01*
X34074700Y26542000D02*
X13743400Y26542000D01*
X13743400Y26542000D02*
X8214700Y32070700D01*
X8214700Y35837600D02*
X9384100Y35837600D01*
X5922200Y35837600D02*
X4730100Y35837600D01*
X35700300Y28167600D02*
X34074700Y26542000D01*
%TO.N,Net-(C14-Pad2)*%
X34737600Y18275700D02*
X34718800Y18294500D01*
X34718800Y18294500D02*
X34718800Y18821305D01*
X36699095Y20801600D02*
X40478000Y20801600D01*
X43230400Y23554000D02*
X43230400Y24189372D01*
X40478000Y20801600D02*
X43230400Y23554000D01*
X41123450Y28588950D02*
X41047250Y28588950D01*
X34718800Y18821305D02*
X36699095Y20801600D01*
X43230400Y24189372D02*
X44084800Y25043772D01*
X44084800Y25043772D02*
X44084800Y25627600D01*
X44084800Y25627600D02*
X41123450Y28588950D01*
%TO.N,/VBUS*%
X3812100Y38856500D02*
X3937800Y38856500D01*
X12136500Y50485300D02*
X10696800Y51925000D01*
X12136500Y47055200D02*
X12136500Y47180900D01*
X3937800Y38856500D02*
X12136500Y47055200D01*
X7381800Y34009600D02*
X3444800Y34009600D01*
X12136500Y47180900D02*
X12136500Y50485300D01*
X3444800Y34009600D02*
X3394000Y34060400D01*
%TO.N,/ShiftDown*%
X14988000Y33894200D02*
X18532400Y37438600D01*
X50481000Y36652000D02*
X51781000Y35352000D01*
X41873604Y40639000D02*
X44365204Y43130600D01*
X44365204Y43130600D02*
X45519100Y43130600D01*
X18532400Y37438600D02*
X21732800Y40639000D01*
X14988000Y29299000D02*
X14988000Y33894200D01*
X50481000Y38168700D02*
X50481000Y36652000D01*
X21732800Y40639000D02*
X41873604Y40639000D01*
X18532400Y37438600D02*
X18532400Y39216600D01*
X18532400Y39216600D02*
X17618000Y40131000D01*
X16602000Y23240000D02*
X15713000Y22351000D01*
X16602000Y24637000D02*
X16602000Y23240000D01*
X45519100Y43130600D02*
X50481000Y38168700D01*
X16602000Y27685000D02*
X14988000Y29299000D01*
%TO.N,/ShiftUp*%
X14538000Y34080596D02*
X16221000Y35763596D01*
X23074749Y41451800D02*
X17719600Y41451800D01*
X17719600Y41451800D02*
X17643400Y41375600D01*
X16221000Y35763596D02*
X16221000Y39953200D01*
X15459000Y24637000D02*
X15459000Y25272000D01*
X14692701Y23870701D02*
X15459000Y24637000D01*
X16221000Y39953200D02*
X17643400Y41375600D01*
X15453650Y28196955D02*
X14538000Y29112604D01*
X23079000Y41447549D02*
X23074749Y41451800D01*
X14538000Y29112604D02*
X14538000Y34080596D01*
X15332000Y27685000D02*
X14941695Y27685000D01*
X14941695Y27685000D02*
X15453650Y28196955D01*
D17*
%TO.N,/A1*%
X44680000Y19970000D02*
X46680000Y17970000D01*
X46680000Y17970000D02*
X48680000Y17970000D01*
%TO.N,/B2*%
X43805400Y27075400D02*
X44491200Y26389600D01*
X44491200Y26389600D02*
X49731400Y26389600D01*
X49731400Y26389600D02*
X51798000Y24323000D01*
D18*
%TO.N,/RS232IN1*%
X48962200Y47852000D02*
X51781000Y47852000D01*
X48504400Y48309800D02*
X48962200Y47852000D01*
%TO.N,/D-*%
X6541300Y52168900D02*
X6541300Y50126100D01*
X10361600Y46305800D02*
X6541300Y50126100D01*
X8434500Y54062100D02*
X6541300Y52168900D01*
%TO.N,/IO0_BOOT*%
X43653000Y40385000D02*
X43653000Y40041300D01*
X43653000Y40041300D02*
X39335000Y35723300D01*
X31163700Y31867700D02*
X30664000Y31368000D01*
X35415400Y31867700D02*
X31163700Y31867700D01*
X30664000Y31368000D02*
X30597400Y31368000D01*
X39271000Y35723300D02*
X35415400Y31867700D01*
X39335000Y35723300D02*
X39271000Y35723300D01*
%TO.N,/DTR*%
X27739900Y24497300D02*
X27752600Y24510000D01*
X27739900Y21627100D02*
X27739900Y24497300D01*
%TO.N,/EN*%
X6721400Y32866600D02*
X6746800Y32866600D01*
X13909600Y25703800D02*
X13909600Y25678400D01*
X13452400Y49097200D02*
X17364000Y49097200D01*
X6746800Y32866600D02*
X13909600Y25703800D01*
X17364000Y49097200D02*
X17922800Y48538400D01*
X12995200Y49554400D02*
X13452400Y49097200D01*
%TO.N,/TMCUART1*%
X40699100Y35618900D02*
X40699100Y31720400D01*
X40699100Y31720400D02*
X36642200Y27663500D01*
%TO.N,/TXD0*%
X40025600Y38136000D02*
X40681600Y38792000D01*
X16729000Y33146000D02*
X21936000Y38353000D01*
X16729000Y32384000D02*
X16729000Y33146000D01*
X21936000Y38353000D02*
X39071695Y38353000D01*
X39071695Y38353000D02*
X39288695Y38136000D01*
X39288695Y38136000D02*
X40025600Y38136000D01*
%TO.N,/RXD0*%
X15713000Y33146000D02*
X15713000Y32421500D01*
X21428000Y38861000D02*
X15713000Y33146000D01*
X39589000Y38861000D02*
X21428000Y38861000D01*
%TO.N,/DriverDIR*%
X26508000Y36418400D02*
X30333600Y32592800D01*
X30333600Y32592800D02*
X31224700Y32592800D01*
X26508000Y36448000D02*
X26508000Y36418400D01*
%TO.N,/DriverSTEP*%
X30953000Y28751800D02*
X29632200Y28751800D01*
X27549400Y32968000D02*
X25144446Y35372954D01*
X32680200Y30479000D02*
X30953000Y28751800D01*
X29632200Y28751800D02*
X27549400Y30834600D01*
X25144446Y35372954D02*
X25144446Y36481597D01*
X32858000Y30479000D02*
X32680200Y30479000D01*
X27549400Y30834600D02*
X27549400Y32968000D01*
%TO.N,Net-(C21-Pad1)*%
X46562500Y41062602D02*
X46561598Y41062602D01*
X46561598Y41062602D02*
X45218700Y42405500D01*
%TO.N,/DriverEN*%
X45050000Y41401000D02*
X43272000Y41401000D01*
X22063000Y39877000D02*
X21809000Y39623000D01*
X49749000Y36702000D02*
X45050000Y41401000D01*
X41748000Y39877000D02*
X22063000Y39877000D01*
X49749000Y35813000D02*
X49749000Y36702000D01*
X43272000Y41401000D02*
X41748000Y39877000D01*
%TO.N,Net-(D1-Pad2)*%
X17237000Y24256000D02*
X18380000Y25399000D01*
X17237000Y22351000D02*
X17237000Y24256000D01*
X18380000Y25399000D02*
X30572000Y25399000D01*
%TO.N,Net-(R1-Pad2)*%
X17973600Y46531800D02*
X16805200Y45363400D01*
X17973600Y47370000D02*
X17973600Y46531800D01*
%TO.N,Net-(R17-Pad1)*%
X33464100Y25018000D02*
X32832600Y25018000D01*
X34255000Y25808900D02*
X33464100Y25018000D01*
%TO.N,/T1IN*%
X41406100Y41401000D02*
X40224000Y41401000D01*
X40224000Y41401000D02*
X38696250Y42928750D01*
X38696250Y42928750D02*
X38696250Y44668750D01*
%TD*%
%TA.AperFunction,Conductor*%
%TO.N,GND*%
G36*
X3525679Y59814677D02*
G01*
X3593787Y59794631D01*
X3640245Y59740946D01*
X3650304Y59670665D01*
X3620770Y59606104D01*
X3604550Y59590480D01*
X3482727Y59492532D01*
X3473968Y59483954D01*
X3354822Y59341961D01*
X3347892Y59331841D01*
X3258598Y59169415D01*
X3253766Y59158142D01*
X3197720Y58981462D01*
X3195170Y58969468D01*
X3178993Y58825239D01*
X3178600Y58818215D01*
X3178600Y58762115D01*
X3183075Y58746876D01*
X3184465Y58745671D01*
X3192148Y58744000D01*
X5176485Y58744000D01*
X5191724Y58748475D01*
X5192929Y58749865D01*
X5194600Y58757548D01*
X5194600Y58811657D01*
X5194299Y58817805D01*
X5180788Y58955603D01*
X5178405Y58967638D01*
X5124833Y59145076D01*
X5120159Y59156416D01*
X5033140Y59320077D01*
X5026351Y59330294D01*
X4909203Y59473933D01*
X4900559Y59482637D01*
X4769879Y59590744D01*
X4730141Y59649578D01*
X4728518Y59720556D01*
X4765527Y59781143D01*
X4829417Y59812104D01*
X4850275Y59813829D01*
X9727605Y59810706D01*
X10520109Y59810199D01*
X10588217Y59790153D01*
X10634675Y59736468D01*
X10644734Y59666187D01*
X10615200Y59601626D01*
X10598980Y59586002D01*
X10482727Y59492532D01*
X10473968Y59483954D01*
X10354822Y59341961D01*
X10347892Y59331841D01*
X10258598Y59169415D01*
X10253766Y59158142D01*
X10197720Y58981462D01*
X10195170Y58969468D01*
X10178993Y58825239D01*
X10178600Y58818215D01*
X10178600Y58762115D01*
X10183075Y58746876D01*
X10184465Y58745671D01*
X10192148Y58744000D01*
X12176485Y58744000D01*
X12191724Y58748475D01*
X12192929Y58749865D01*
X12194600Y58757548D01*
X12194600Y58811657D01*
X12194299Y58817805D01*
X12180788Y58955603D01*
X12178405Y58967638D01*
X12124833Y59145076D01*
X12120159Y59156416D01*
X12033140Y59320077D01*
X12026351Y59330294D01*
X11909203Y59473933D01*
X11900559Y59482637D01*
X11775301Y59586259D01*
X11735562Y59645093D01*
X11733940Y59716071D01*
X11770950Y59776658D01*
X11834840Y59807619D01*
X11855695Y59809344D01*
X14322082Y59807765D01*
X14390189Y59787719D01*
X14436647Y59734034D01*
X14448000Y59681765D01*
X14448000Y53999000D01*
X42156588Y53999000D01*
X42224709Y53978998D01*
X42271202Y53925342D01*
X42282587Y53872510D01*
X42282102Y53747768D01*
X52054111Y53712860D01*
X52122159Y53692615D01*
X52168460Y53638794D01*
X52179659Y53587240D01*
X52186880Y51186065D01*
X52186879Y51184912D01*
X52186421Y51110476D01*
X52194815Y51081103D01*
X52198333Y51064742D01*
X52202756Y51034506D01*
X52206496Y51026347D01*
X52206497Y51026342D01*
X52213050Y51012043D01*
X52219657Y50994167D01*
X52223973Y50979063D01*
X52223975Y50979058D01*
X52226442Y50970425D01*
X52242743Y50944586D01*
X52250712Y50929870D01*
X52263442Y50902093D01*
X52269323Y50895309D01*
X52269325Y50895306D01*
X52279622Y50883428D01*
X52290982Y50868124D01*
X52304161Y50847234D01*
X52319723Y50833489D01*
X52327053Y50827015D01*
X52338844Y50815114D01*
X52352526Y50799332D01*
X52358853Y50792034D01*
X52366403Y50787173D01*
X52366406Y50787170D01*
X52379623Y50778660D01*
X52394823Y50767157D01*
X52413332Y50750809D01*
X52421455Y50746995D01*
X52440976Y50737829D01*
X52455631Y50729717D01*
X52481318Y50713177D01*
X52489924Y50710631D01*
X52489927Y50710630D01*
X52505017Y50706166D01*
X52522820Y50699399D01*
X52545178Y50688901D01*
X52575358Y50684200D01*
X52591690Y50680531D01*
X52620994Y50671863D01*
X52629977Y50671835D01*
X52629978Y50671835D01*
X52655102Y50671757D01*
X52655304Y50671749D01*
X52655764Y50671677D01*
X52680110Y50671676D01*
X52681230Y50671676D01*
X52681616Y50671675D01*
X52682583Y50671672D01*
X52766651Y50671411D01*
X52767374Y50671620D01*
X52768123Y50671672D01*
X55624008Y50671547D01*
X55692125Y50651542D01*
X55738616Y50597884D01*
X55750000Y50545547D01*
X55750000Y634500D01*
X55729998Y566379D01*
X55676342Y519886D01*
X55624000Y508500D01*
X1536000Y508500D01*
X1467879Y528502D01*
X1421386Y582158D01*
X1410000Y634500D01*
X1410000Y8317400D01*
X15818896Y8317400D01*
X15838858Y8127472D01*
X15897873Y7945844D01*
X15993360Y7780456D01*
X15997778Y7775549D01*
X15997779Y7775548D01*
X16088686Y7674586D01*
X16121147Y7638534D01*
X16173425Y7600552D01*
X16270304Y7530165D01*
X16275648Y7526282D01*
X16281676Y7523598D01*
X16281678Y7523597D01*
X16444081Y7451291D01*
X16450112Y7448606D01*
X16543513Y7428753D01*
X16630456Y7410272D01*
X16630461Y7410272D01*
X16636913Y7408900D01*
X16827887Y7408900D01*
X16834339Y7410272D01*
X16834344Y7410272D01*
X16921287Y7428753D01*
X17014688Y7448606D01*
X17020719Y7451291D01*
X17183122Y7523597D01*
X17183124Y7523598D01*
X17189152Y7526282D01*
X17194491Y7530161D01*
X17194498Y7530165D01*
X17200928Y7534837D01*
X17274987Y7558900D01*
X20530330Y7558900D01*
X20549280Y7557467D01*
X20563515Y7555301D01*
X20563519Y7555301D01*
X20570749Y7554201D01*
X20578041Y7554794D01*
X20578044Y7554794D01*
X20623418Y7558485D01*
X20633633Y7558900D01*
X20641693Y7558900D01*
X20654983Y7560449D01*
X20669907Y7562189D01*
X20674282Y7562622D01*
X20739739Y7567946D01*
X20739742Y7567947D01*
X20747037Y7568540D01*
X20754001Y7570796D01*
X20759960Y7571987D01*
X20765815Y7573371D01*
X20773081Y7574218D01*
X20841727Y7599135D01*
X20845855Y7600552D01*
X20908336Y7620793D01*
X20908338Y7620794D01*
X20915299Y7623049D01*
X20921554Y7626845D01*
X20927028Y7629351D01*
X20932458Y7632070D01*
X20939337Y7634567D01*
X21000376Y7674586D01*
X21004080Y7676923D01*
X21066507Y7714805D01*
X21074884Y7722203D01*
X21074908Y7722176D01*
X21077900Y7724829D01*
X21081133Y7727532D01*
X21087252Y7731544D01*
X21140528Y7787783D01*
X21142906Y7790225D01*
X21787237Y8434556D01*
X21849549Y8468582D01*
X21920364Y8463517D01*
X21927580Y8460568D01*
X21940777Y8454692D01*
X21940785Y8454689D01*
X21946812Y8452006D01*
X22040212Y8432153D01*
X22127156Y8413672D01*
X22127161Y8413672D01*
X22133613Y8412300D01*
X22324587Y8412300D01*
X22331039Y8413672D01*
X22331044Y8413672D01*
X22417988Y8432153D01*
X22511388Y8452006D01*
X22530619Y8460568D01*
X22679820Y8526996D01*
X22679823Y8526998D01*
X22685852Y8529682D01*
X22688686Y8531741D01*
X22750480Y8548300D01*
X31596829Y8548300D01*
X31664950Y8528298D01*
X31685924Y8511395D01*
X35207475Y4989844D01*
X35238213Y4939686D01*
X35293073Y4770844D01*
X35388560Y4605456D01*
X35516347Y4463534D01*
X35670848Y4351282D01*
X35676876Y4348598D01*
X35676878Y4348597D01*
X35839281Y4276291D01*
X35845312Y4273606D01*
X35938712Y4253753D01*
X36025656Y4235272D01*
X36025661Y4235272D01*
X36032113Y4233900D01*
X36223087Y4233900D01*
X36229539Y4235272D01*
X36229544Y4235272D01*
X36316488Y4253753D01*
X36409888Y4273606D01*
X36415919Y4276291D01*
X36578322Y4348597D01*
X36578324Y4348598D01*
X36584352Y4351282D01*
X36738853Y4463534D01*
X36866640Y4605456D01*
X36962127Y4770844D01*
X37021142Y4952472D01*
X37041104Y5142400D01*
X37021142Y5332328D01*
X36962127Y5513956D01*
X36866640Y5679344D01*
X36738853Y5821266D01*
X36584352Y5933518D01*
X36578324Y5936202D01*
X36578322Y5936203D01*
X36415919Y6008509D01*
X36415918Y6008509D01*
X36409888Y6011194D01*
X36403433Y6012566D01*
X36403424Y6012569D01*
X36346828Y6024599D01*
X36283931Y6058750D01*
X32546970Y9795711D01*
X32534584Y9810123D01*
X32526051Y9821718D01*
X32526046Y9821723D01*
X32521708Y9827618D01*
X32516130Y9832357D01*
X32516127Y9832360D01*
X32481432Y9861835D01*
X32473916Y9868765D01*
X32468221Y9874460D01*
X32462080Y9879318D01*
X32445949Y9892081D01*
X32442545Y9894872D01*
X32392497Y9937391D01*
X32392495Y9937392D01*
X32386915Y9942133D01*
X32380399Y9945461D01*
X32375350Y9948828D01*
X32370221Y9951995D01*
X32364484Y9956534D01*
X32298325Y9987455D01*
X32294425Y9989361D01*
X32229392Y10022569D01*
X32222284Y10024308D01*
X32216641Y10026407D01*
X32210878Y10028324D01*
X32204250Y10031422D01*
X32132783Y10046287D01*
X32128499Y10047257D01*
X32057590Y10064608D01*
X32051988Y10064956D01*
X32051985Y10064956D01*
X32046436Y10065300D01*
X32046438Y10065336D01*
X32042445Y10065575D01*
X32038253Y10065949D01*
X32031085Y10067440D01*
X31964875Y10065649D01*
X31953679Y10065346D01*
X31950272Y10065300D01*
X23722171Y10065300D01*
X23654050Y10085302D01*
X23607557Y10138958D01*
X23597453Y10209232D01*
X23626947Y10273812D01*
X23633076Y10280395D01*
X28768131Y15415450D01*
X28831028Y15449601D01*
X28887624Y15461631D01*
X28887633Y15461634D01*
X28894088Y15463006D01*
X28922092Y15475474D01*
X29062522Y15537997D01*
X29062524Y15537998D01*
X29068552Y15540682D01*
X29073891Y15544561D01*
X29073898Y15544565D01*
X29080328Y15549237D01*
X29154387Y15573300D01*
X34778830Y15573300D01*
X34797780Y15571867D01*
X34812015Y15569701D01*
X34812019Y15569701D01*
X34819249Y15568601D01*
X34826541Y15569194D01*
X34826544Y15569194D01*
X34871918Y15572885D01*
X34882133Y15573300D01*
X34890193Y15573300D01*
X34903483Y15574849D01*
X34918407Y15576589D01*
X34922782Y15577022D01*
X34988239Y15582346D01*
X34988242Y15582347D01*
X34995537Y15582940D01*
X35002501Y15585196D01*
X35008460Y15586387D01*
X35014315Y15587771D01*
X35021581Y15588618D01*
X35090227Y15613535D01*
X35094355Y15614952D01*
X35156836Y15635193D01*
X35156838Y15635194D01*
X35163799Y15637449D01*
X35170054Y15641245D01*
X35175528Y15643751D01*
X35180958Y15646470D01*
X35187837Y15648967D01*
X35248876Y15688986D01*
X35252580Y15691323D01*
X35315007Y15729205D01*
X35323384Y15736603D01*
X35323408Y15736576D01*
X35326400Y15739229D01*
X35329633Y15741932D01*
X35335752Y15745944D01*
X35389028Y15802183D01*
X35391406Y15804625D01*
X38780176Y19193395D01*
X38842488Y19227421D01*
X38869271Y19230300D01*
X39605213Y19230300D01*
X39679272Y19206237D01*
X39685702Y19201565D01*
X39685709Y19201561D01*
X39691048Y19197682D01*
X39697076Y19194998D01*
X39697078Y19194997D01*
X39859481Y19122691D01*
X39865512Y19120006D01*
X39941327Y19103891D01*
X40045856Y19081672D01*
X40045861Y19081672D01*
X40052313Y19080300D01*
X40243287Y19080300D01*
X40249739Y19081672D01*
X40249744Y19081672D01*
X40354273Y19103891D01*
X40430088Y19120006D01*
X40436119Y19122691D01*
X40598522Y19194997D01*
X40598524Y19194998D01*
X40604552Y19197682D01*
X40609891Y19201561D01*
X40609898Y19201565D01*
X40616328Y19206237D01*
X40690387Y19230300D01*
X40842730Y19230300D01*
X40861680Y19228867D01*
X40875915Y19226701D01*
X40875919Y19226701D01*
X40883149Y19225601D01*
X40890441Y19226194D01*
X40890444Y19226194D01*
X40935818Y19229885D01*
X40946033Y19230300D01*
X40954093Y19230300D01*
X40967383Y19231849D01*
X40982307Y19233589D01*
X40986682Y19234022D01*
X41052139Y19239346D01*
X41052142Y19239347D01*
X41059437Y19239940D01*
X41066401Y19242196D01*
X41072360Y19243387D01*
X41078215Y19244771D01*
X41085481Y19245618D01*
X41154127Y19270535D01*
X41158255Y19271952D01*
X41220736Y19292193D01*
X41220738Y19292194D01*
X41227699Y19294449D01*
X41233954Y19298245D01*
X41239428Y19300751D01*
X41244858Y19303470D01*
X41251737Y19305967D01*
X41271176Y19318712D01*
X41312776Y19345986D01*
X41316480Y19348323D01*
X41378907Y19386205D01*
X41386048Y19392511D01*
X41387284Y19393603D01*
X41387308Y19393576D01*
X41390300Y19396229D01*
X41393533Y19398932D01*
X41399652Y19402944D01*
X41452928Y19459183D01*
X41455306Y19461625D01*
X41963681Y19970000D01*
X43766496Y19970000D01*
X43767186Y19963435D01*
X43770303Y19933783D01*
X43786458Y19780072D01*
X43845473Y19598444D01*
X43940960Y19433056D01*
X43945378Y19428149D01*
X43945379Y19428148D01*
X44017245Y19348333D01*
X44068747Y19291134D01*
X44153049Y19229885D01*
X44203273Y19193395D01*
X44223248Y19178882D01*
X44229276Y19176198D01*
X44229278Y19176197D01*
X44391681Y19103891D01*
X44397712Y19101206D01*
X44404167Y19099834D01*
X44404176Y19099831D01*
X44460772Y19087801D01*
X44523669Y19053650D01*
X46096230Y17481089D01*
X46108616Y17466677D01*
X46117149Y17455082D01*
X46117154Y17455077D01*
X46121492Y17449182D01*
X46127070Y17444443D01*
X46127073Y17444440D01*
X46161768Y17414965D01*
X46169284Y17408035D01*
X46174979Y17402340D01*
X46177861Y17400060D01*
X46197251Y17384719D01*
X46200655Y17381928D01*
X46250703Y17339409D01*
X46256285Y17334667D01*
X46262801Y17331339D01*
X46267850Y17327972D01*
X46272979Y17324805D01*
X46278716Y17320266D01*
X46344875Y17289345D01*
X46348769Y17287442D01*
X46413808Y17254231D01*
X46420916Y17252492D01*
X46426559Y17250393D01*
X46432322Y17248476D01*
X46438950Y17245378D01*
X46446112Y17243888D01*
X46446113Y17243888D01*
X46510412Y17230514D01*
X46514696Y17229544D01*
X46585610Y17212192D01*
X46591212Y17211844D01*
X46591215Y17211844D01*
X46596764Y17211500D01*
X46596762Y17211464D01*
X46600755Y17211225D01*
X46604947Y17210851D01*
X46612115Y17209360D01*
X46689520Y17211454D01*
X46692928Y17211500D01*
X48137413Y17211500D01*
X48211472Y17187437D01*
X48217902Y17182765D01*
X48217909Y17182761D01*
X48223248Y17178882D01*
X48229276Y17176198D01*
X48229278Y17176197D01*
X48391681Y17103891D01*
X48397712Y17101206D01*
X48491112Y17081353D01*
X48578056Y17062872D01*
X48578061Y17062872D01*
X48584513Y17061500D01*
X48775487Y17061500D01*
X48781939Y17062872D01*
X48781944Y17062872D01*
X48868888Y17081353D01*
X48962288Y17101206D01*
X48968319Y17103891D01*
X49130722Y17176197D01*
X49130724Y17176198D01*
X49136752Y17178882D01*
X49142097Y17182765D01*
X49206481Y17229543D01*
X49291253Y17291134D01*
X49394259Y17405534D01*
X49414621Y17428148D01*
X49414622Y17428149D01*
X49419040Y17433056D01*
X49499437Y17572308D01*
X49511223Y17592721D01*
X49511224Y17592722D01*
X49514527Y17598444D01*
X49573542Y17780072D01*
X49585214Y17891120D01*
X49592814Y17963435D01*
X49593504Y17970000D01*
X49588007Y18022305D01*
X49574232Y18153365D01*
X49574232Y18153367D01*
X49573542Y18159928D01*
X49514527Y18341556D01*
X49419040Y18506944D01*
X49411199Y18515653D01*
X49295675Y18643955D01*
X49295674Y18643956D01*
X49291253Y18648866D01*
X49178748Y18730606D01*
X49142094Y18757237D01*
X49142093Y18757238D01*
X49136752Y18761118D01*
X49130724Y18763802D01*
X49130722Y18763803D01*
X48968319Y18836109D01*
X48968318Y18836109D01*
X48962288Y18838794D01*
X48868887Y18858647D01*
X48781944Y18877128D01*
X48781939Y18877128D01*
X48775487Y18878500D01*
X48584513Y18878500D01*
X48578061Y18877128D01*
X48578056Y18877128D01*
X48491113Y18858647D01*
X48397712Y18838794D01*
X48391682Y18836109D01*
X48391681Y18836109D01*
X48229278Y18763803D01*
X48229276Y18763802D01*
X48223248Y18761118D01*
X48217909Y18757239D01*
X48217902Y18757235D01*
X48211472Y18752563D01*
X48137413Y18728500D01*
X47046371Y18728500D01*
X46978250Y18748502D01*
X46957276Y18765405D01*
X45600125Y20122556D01*
X45569387Y20172715D01*
X45550741Y20230103D01*
X45514527Y20341556D01*
X45419040Y20506944D01*
X45370661Y20560675D01*
X45295675Y20643955D01*
X45295674Y20643956D01*
X45291253Y20648866D01*
X45136752Y20761118D01*
X45130724Y20763802D01*
X45130722Y20763803D01*
X44968319Y20836109D01*
X44968318Y20836109D01*
X44962288Y20838794D01*
X44868887Y20858647D01*
X44781944Y20877128D01*
X44781939Y20877128D01*
X44775487Y20878500D01*
X44584513Y20878500D01*
X44578061Y20877128D01*
X44578056Y20877128D01*
X44491113Y20858647D01*
X44397712Y20838794D01*
X44391682Y20836109D01*
X44391681Y20836109D01*
X44229278Y20763803D01*
X44229276Y20763802D01*
X44223248Y20761118D01*
X44068747Y20648866D01*
X44064326Y20643956D01*
X44064325Y20643955D01*
X43989340Y20560675D01*
X43940960Y20506944D01*
X43845473Y20341556D01*
X43786458Y20159928D01*
X43785768Y20153367D01*
X43785768Y20153365D01*
X43774006Y20041458D01*
X43766496Y19970000D01*
X41963681Y19970000D01*
X44370511Y22376830D01*
X44384923Y22389216D01*
X44396518Y22397749D01*
X44396523Y22397754D01*
X44402418Y22402092D01*
X44407157Y22407670D01*
X44407160Y22407673D01*
X44436635Y22442368D01*
X44443565Y22449884D01*
X44449260Y22455579D01*
X44466881Y22477851D01*
X44469672Y22481255D01*
X44512191Y22531303D01*
X44512192Y22531305D01*
X44516933Y22536885D01*
X44520261Y22543401D01*
X44523628Y22548450D01*
X44526795Y22553579D01*
X44531334Y22559316D01*
X44562255Y22625475D01*
X44564161Y22629375D01*
X44564657Y22630347D01*
X44597369Y22694408D01*
X44599108Y22701517D01*
X44601204Y22707151D01*
X44603123Y22712921D01*
X44606222Y22719550D01*
X44621091Y22791035D01*
X44622061Y22795318D01*
X44623316Y22800445D01*
X44639408Y22866210D01*
X44640100Y22877364D01*
X44640135Y22877362D01*
X44640375Y22881334D01*
X44640752Y22885555D01*
X44642241Y22892715D01*
X44640146Y22970142D01*
X44640100Y22973550D01*
X44640100Y23661029D01*
X44660102Y23729150D01*
X44677005Y23750124D01*
X45079331Y24152450D01*
X45142228Y24186601D01*
X45198824Y24198631D01*
X45198833Y24198634D01*
X45205288Y24200006D01*
X45244037Y24217258D01*
X45373722Y24274997D01*
X45373724Y24274998D01*
X45379752Y24277682D01*
X45534253Y24389934D01*
X45545518Y24402445D01*
X45657621Y24526948D01*
X45657622Y24526949D01*
X45662040Y24531856D01*
X45745026Y24675591D01*
X45754223Y24691521D01*
X45754224Y24691522D01*
X45757527Y24697244D01*
X45816542Y24878872D01*
X45836504Y25068800D01*
X45829552Y25134945D01*
X45817232Y25252165D01*
X45817232Y25252167D01*
X45816542Y25258728D01*
X45757527Y25440356D01*
X45754223Y25446079D01*
X45751539Y25452107D01*
X45753844Y25453133D01*
X45739781Y25511090D01*
X45762999Y25578183D01*
X45818804Y25622072D01*
X45865639Y25631100D01*
X49365029Y25631100D01*
X49433150Y25611098D01*
X49454124Y25594195D01*
X50309422Y24738897D01*
X50343448Y24676585D01*
X50343388Y24622745D01*
X50342976Y24620871D01*
X50341393Y24615773D01*
X50331432Y24540620D01*
X50312112Y24394845D01*
X50311102Y24387226D01*
X50311302Y24381897D01*
X50311302Y24381895D01*
X50312691Y24344904D01*
X50319751Y24156842D01*
X50320846Y24151623D01*
X50323611Y24138444D01*
X50367093Y23931209D01*
X50369051Y23926250D01*
X50369052Y23926248D01*
X50412432Y23816405D01*
X50451776Y23716779D01*
X50454543Y23712220D01*
X50454544Y23712217D01*
X50485606Y23661029D01*
X50571377Y23519683D01*
X50574874Y23515653D01*
X50684659Y23389137D01*
X50722477Y23345555D01*
X50753274Y23320303D01*
X50896627Y23202760D01*
X50896633Y23202756D01*
X50900755Y23199376D01*
X50932250Y23181448D01*
X50981555Y23130368D01*
X50995417Y23060738D01*
X50969434Y22994667D01*
X50940284Y22967427D01*
X50933226Y22962675D01*
X50818681Y22885559D01*
X50814824Y22881880D01*
X50814822Y22881878D01*
X50798398Y22866210D01*
X50651865Y22726424D01*
X50514246Y22541458D01*
X50511830Y22536707D01*
X50511828Y22536703D01*
X50472048Y22458461D01*
X50409760Y22335949D01*
X50408178Y22330855D01*
X50408177Y22330852D01*
X50357904Y22168947D01*
X50341393Y22115773D01*
X50340692Y22110484D01*
X50325038Y21992371D01*
X50311102Y21887226D01*
X50319751Y21656842D01*
X50367093Y21431209D01*
X50369051Y21426250D01*
X50369052Y21426248D01*
X50434326Y21260966D01*
X50451776Y21216779D01*
X50571377Y21019683D01*
X50574874Y21015653D01*
X50661438Y20915897D01*
X50722477Y20845555D01*
X50729419Y20839863D01*
X50896627Y20702760D01*
X50896633Y20702756D01*
X50900755Y20699376D01*
X50932250Y20681448D01*
X50981555Y20630368D01*
X50995417Y20560738D01*
X50969434Y20494667D01*
X50940284Y20467427D01*
X50818681Y20385559D01*
X50651865Y20226424D01*
X50514246Y20041458D01*
X50409760Y19835949D01*
X50408178Y19830855D01*
X50408177Y19830852D01*
X50346115Y19630980D01*
X50341393Y19615773D01*
X50340692Y19610484D01*
X50311944Y19393576D01*
X50311102Y19387226D01*
X50319751Y19156842D01*
X50320846Y19151623D01*
X50327480Y19120006D01*
X50367093Y18931209D01*
X50369051Y18926250D01*
X50369052Y18926248D01*
X50434266Y18761118D01*
X50451776Y18716779D01*
X50454543Y18712220D01*
X50454544Y18712217D01*
X50516998Y18609297D01*
X50571377Y18519683D01*
X50574874Y18515653D01*
X50698976Y18372638D01*
X50722477Y18345555D01*
X50758120Y18316330D01*
X50798114Y18257671D01*
X50800046Y18186701D01*
X50763302Y18125952D01*
X50744532Y18111752D01*
X50713155Y18092335D01*
X50598652Y18021478D01*
X50473695Y17896303D01*
X50380885Y17745738D01*
X50378581Y17738791D01*
X50334115Y17604729D01*
X50325203Y17577861D01*
X50314500Y17473400D01*
X50314500Y16396615D01*
X50294498Y16328494D01*
X50240842Y16282001D01*
X50170568Y16271897D01*
X50141405Y16279747D01*
X50114263Y16290686D01*
X49906663Y16331228D01*
X49901101Y16331500D01*
X49745154Y16331500D01*
X49587434Y16316452D01*
X49384466Y16256908D01*
X49379139Y16254164D01*
X49379138Y16254164D01*
X49201751Y16162804D01*
X49201748Y16162802D01*
X49196420Y16160058D01*
X49030080Y16029396D01*
X49026148Y16024865D01*
X49026145Y16024862D01*
X48924051Y15907209D01*
X48891448Y15869637D01*
X48888448Y15864451D01*
X48888445Y15864447D01*
X48822963Y15751256D01*
X48785527Y15686546D01*
X48716139Y15486729D01*
X48715278Y15480794D01*
X48715278Y15480792D01*
X48703803Y15401647D01*
X48685787Y15277396D01*
X48695567Y15066101D01*
X48745125Y14860466D01*
X48747607Y14855008D01*
X48747608Y14855004D01*
X48791053Y14759454D01*
X48832674Y14667913D01*
X48955054Y14495389D01*
X49107850Y14349119D01*
X49285548Y14234380D01*
X49291114Y14232137D01*
X49476168Y14157558D01*
X49476171Y14157557D01*
X49481737Y14155314D01*
X49689337Y14114772D01*
X49694899Y14114500D01*
X49850846Y14114500D01*
X50008566Y14129548D01*
X50211534Y14189092D01*
X50295111Y14232137D01*
X50394249Y14283196D01*
X50394252Y14283198D01*
X50399580Y14285942D01*
X50565920Y14416604D01*
X50569852Y14421135D01*
X50569855Y14421138D01*
X50700621Y14571833D01*
X50704552Y14576363D01*
X50707552Y14581549D01*
X50707555Y14581553D01*
X50807467Y14754258D01*
X50810473Y14759454D01*
X50879861Y14959271D01*
X50910213Y15168604D01*
X50902619Y15332674D01*
X50919450Y15401647D01*
X50970898Y15450571D01*
X51028484Y15464500D01*
X52573400Y15464500D01*
X52576646Y15464837D01*
X52576650Y15464837D01*
X52672308Y15474762D01*
X52672312Y15474763D01*
X52679166Y15475474D01*
X52685702Y15477655D01*
X52685704Y15477655D01*
X52839998Y15529132D01*
X52846946Y15531450D01*
X52997348Y15624522D01*
X53010253Y15637449D01*
X53117134Y15744517D01*
X53122305Y15749697D01*
X53193038Y15864447D01*
X53211275Y15894032D01*
X53211276Y15894034D01*
X53215115Y15900262D01*
X53270797Y16068139D01*
X53281500Y16172600D01*
X53281500Y17473400D01*
X53280702Y17481089D01*
X53271238Y17572308D01*
X53271237Y17572312D01*
X53270526Y17579166D01*
X53264632Y17596834D01*
X53216868Y17739998D01*
X53214550Y17746946D01*
X53121478Y17897348D01*
X52996303Y18022305D01*
X52850660Y18112081D01*
X52803168Y18164852D01*
X52791744Y18234924D01*
X52820018Y18300048D01*
X52829805Y18310510D01*
X52940278Y18415897D01*
X52944135Y18419576D01*
X53081754Y18604542D01*
X53100276Y18640971D01*
X53154947Y18748502D01*
X53186240Y18810051D01*
X53194332Y18836109D01*
X53253024Y19025129D01*
X53254607Y19030227D01*
X53258991Y19063306D01*
X53284198Y19253489D01*
X53284198Y19253494D01*
X53284898Y19258774D01*
X53276249Y19489158D01*
X53228907Y19714791D01*
X53226948Y19719752D01*
X53146185Y19924256D01*
X53146184Y19924258D01*
X53144224Y19929221D01*
X53129792Y19953005D01*
X53027390Y20121757D01*
X53024623Y20126317D01*
X53005919Y20147872D01*
X52877023Y20296412D01*
X52877021Y20296414D01*
X52873523Y20300445D01*
X52816405Y20347279D01*
X52699373Y20443240D01*
X52699367Y20443244D01*
X52695245Y20446624D01*
X52663750Y20464552D01*
X52614445Y20515632D01*
X52600583Y20585262D01*
X52626566Y20651333D01*
X52655716Y20678573D01*
X52717208Y20719972D01*
X52777319Y20760441D01*
X52944135Y20919576D01*
X53081754Y21104542D01*
X53186240Y21310051D01*
X53202108Y21361152D01*
X53253024Y21525129D01*
X53254607Y21530227D01*
X53267446Y21627100D01*
X53284198Y21753489D01*
X53284198Y21753494D01*
X53284898Y21758774D01*
X53282958Y21810465D01*
X53279877Y21892511D01*
X53276249Y21989158D01*
X53228907Y22214791D01*
X53216853Y22245313D01*
X53146185Y22424256D01*
X53146184Y22424258D01*
X53144224Y22429221D01*
X53131686Y22449884D01*
X53027390Y22621757D01*
X53024623Y22626317D01*
X52941467Y22722146D01*
X52877023Y22796412D01*
X52877021Y22796414D01*
X52873523Y22800445D01*
X52831970Y22834516D01*
X52699373Y22943240D01*
X52699367Y22943244D01*
X52695245Y22946624D01*
X52663750Y22964552D01*
X52614445Y23015632D01*
X52600583Y23085262D01*
X52626566Y23151333D01*
X52655716Y23178573D01*
X52691642Y23202760D01*
X52777319Y23260441D01*
X52789227Y23271800D01*
X52940278Y23415897D01*
X52944135Y23419576D01*
X53081754Y23604542D01*
X53110474Y23661029D01*
X53145108Y23729150D01*
X53186240Y23810051D01*
X53204839Y23869947D01*
X53253024Y24025129D01*
X53254607Y24030227D01*
X53259067Y24063875D01*
X53284198Y24253489D01*
X53284198Y24253494D01*
X53284898Y24258774D01*
X53284043Y24281563D01*
X53276449Y24483827D01*
X53276249Y24489158D01*
X53228907Y24714791D01*
X53226797Y24720134D01*
X53146185Y24924256D01*
X53146184Y24924258D01*
X53144224Y24929221D01*
X53138452Y24938734D01*
X53027390Y25121757D01*
X53024623Y25126317D01*
X52909723Y25258728D01*
X52877023Y25296412D01*
X52877021Y25296414D01*
X52873523Y25300445D01*
X52794554Y25365196D01*
X52699373Y25443240D01*
X52699367Y25443244D01*
X52695245Y25446624D01*
X52690609Y25449263D01*
X52690606Y25449265D01*
X52499529Y25558032D01*
X52494886Y25560675D01*
X52278175Y25639337D01*
X52272926Y25640286D01*
X52272923Y25640287D01*
X52055392Y25679623D01*
X52055385Y25679624D01*
X52051308Y25680361D01*
X52033586Y25681197D01*
X52028644Y25681430D01*
X52028637Y25681430D01*
X52027156Y25681500D01*
X51615110Y25681500D01*
X51600060Y25680223D01*
X51578575Y25678400D01*
X51509007Y25692571D01*
X51478827Y25714854D01*
X50315170Y26878511D01*
X50302784Y26892923D01*
X50294251Y26904518D01*
X50294246Y26904523D01*
X50289908Y26910418D01*
X50284330Y26915157D01*
X50284327Y26915160D01*
X50249632Y26944635D01*
X50242116Y26951565D01*
X50236421Y26957260D01*
X50230280Y26962118D01*
X50214149Y26974881D01*
X50210745Y26977672D01*
X50160697Y27020191D01*
X50160695Y27020192D01*
X50155115Y27024933D01*
X50148599Y27028261D01*
X50143550Y27031628D01*
X50138421Y27034795D01*
X50132684Y27039334D01*
X50066525Y27070255D01*
X50062625Y27072161D01*
X49997592Y27105369D01*
X49990484Y27107108D01*
X49984841Y27109207D01*
X49979078Y27111124D01*
X49972450Y27114222D01*
X49900983Y27129087D01*
X49896699Y27130057D01*
X49887639Y27132274D01*
X49825790Y27147408D01*
X49820188Y27147756D01*
X49820185Y27147756D01*
X49814636Y27148100D01*
X49814638Y27148136D01*
X49810645Y27148375D01*
X49806453Y27148749D01*
X49799285Y27150240D01*
X49733075Y27148449D01*
X49721879Y27148146D01*
X49718472Y27148100D01*
X44857571Y27148100D01*
X44789450Y27168102D01*
X44768476Y27185005D01*
X44725525Y27227956D01*
X44694787Y27278115D01*
X44656773Y27395111D01*
X44639927Y27446956D01*
X44619894Y27481655D01*
X44547741Y27606626D01*
X44544440Y27612344D01*
X44521266Y27638082D01*
X44421075Y27749355D01*
X44421074Y27749356D01*
X44416653Y27754266D01*
X44262152Y27866518D01*
X44256124Y27869202D01*
X44256122Y27869203D01*
X44093719Y27941509D01*
X44093718Y27941509D01*
X44087688Y27944194D01*
X43994288Y27964047D01*
X43907344Y27982528D01*
X43907339Y27982528D01*
X43900887Y27983900D01*
X43709913Y27983900D01*
X43703461Y27982528D01*
X43703456Y27982528D01*
X43616512Y27964047D01*
X43523112Y27944194D01*
X43517082Y27941509D01*
X43517081Y27941509D01*
X43354678Y27869203D01*
X43354676Y27869202D01*
X43348648Y27866518D01*
X43194147Y27754266D01*
X43121847Y27673968D01*
X43061405Y27636731D01*
X42990421Y27638082D01*
X42939119Y27669186D01*
X41985422Y28622883D01*
X41951396Y28685195D01*
X41949207Y28698808D01*
X41948704Y28703601D01*
X41940792Y28778878D01*
X41931851Y28806396D01*
X48668787Y28806396D01*
X48678567Y28595101D01*
X48679971Y28589276D01*
X48679971Y28589275D01*
X48681632Y28582385D01*
X48728125Y28389466D01*
X48730607Y28384008D01*
X48730608Y28384004D01*
X48780970Y28273241D01*
X48815674Y28196913D01*
X48938054Y28024389D01*
X49090850Y27878119D01*
X49268548Y27763380D01*
X49274114Y27761137D01*
X49459168Y27686558D01*
X49459171Y27686557D01*
X49464737Y27684314D01*
X49672337Y27643772D01*
X49677899Y27643500D01*
X49833846Y27643500D01*
X49991566Y27658548D01*
X50194534Y27718092D01*
X50255245Y27749360D01*
X50377249Y27812196D01*
X50377252Y27812198D01*
X50382580Y27814942D01*
X50548920Y27945604D01*
X50552852Y27950135D01*
X50552855Y27950138D01*
X50683621Y28100833D01*
X50687552Y28105363D01*
X50690552Y28110549D01*
X50690555Y28110553D01*
X50790467Y28283258D01*
X50793473Y28288454D01*
X50862861Y28488271D01*
X50871972Y28551109D01*
X50892352Y28691664D01*
X50892352Y28691667D01*
X50893213Y28697604D01*
X50885619Y28861674D01*
X50902450Y28930647D01*
X50953898Y28979571D01*
X51011484Y28993500D01*
X52556400Y28993500D01*
X52559646Y28993837D01*
X52559650Y28993837D01*
X52655308Y29003762D01*
X52655312Y29003763D01*
X52662166Y29004474D01*
X52668702Y29006655D01*
X52668704Y29006655D01*
X52822998Y29058132D01*
X52829946Y29060450D01*
X52980348Y29153522D01*
X53105305Y29278697D01*
X53167791Y29380068D01*
X53194275Y29423032D01*
X53194276Y29423034D01*
X53198115Y29429262D01*
X53244961Y29570500D01*
X53251632Y29590611D01*
X53251632Y29590613D01*
X53253797Y29597139D01*
X53254996Y29608834D01*
X53264172Y29698402D01*
X53264500Y29701600D01*
X53264500Y31002400D01*
X53262048Y31026031D01*
X53254238Y31101308D01*
X53254237Y31101312D01*
X53253526Y31108166D01*
X53230204Y31178072D01*
X53199868Y31268998D01*
X53197550Y31275946D01*
X53104478Y31426348D01*
X52979303Y31551305D01*
X52972675Y31555391D01*
X52897599Y31601668D01*
X52833220Y31641353D01*
X52785727Y31694124D01*
X52774303Y31764196D01*
X52802577Y31829320D01*
X52812364Y31839782D01*
X52922906Y31945234D01*
X52929941Y31953186D01*
X53061141Y32129525D01*
X53066745Y32138562D01*
X53166357Y32334484D01*
X53170357Y32344335D01*
X53235534Y32554240D01*
X53237817Y32564624D01*
X53239861Y32580043D01*
X53237665Y32594207D01*
X53224478Y32598000D01*
X50339808Y32598000D01*
X50326277Y32594027D01*
X50324752Y32583420D01*
X50349477Y32465579D01*
X50352537Y32455383D01*
X50433263Y32250971D01*
X50437994Y32241439D01*
X50552016Y32053538D01*
X50558280Y32044948D01*
X50702327Y31878948D01*
X50709956Y31871530D01*
X50741569Y31845609D01*
X50781564Y31786949D01*
X50783496Y31715979D01*
X50746752Y31655230D01*
X50727983Y31641031D01*
X50581652Y31550478D01*
X50456695Y31425303D01*
X50452855Y31419073D01*
X50452854Y31419072D01*
X50370653Y31285717D01*
X50363885Y31274738D01*
X50347301Y31224737D01*
X50321562Y31147136D01*
X50308203Y31106861D01*
X50307503Y31100025D01*
X50307502Y31100022D01*
X50304233Y31068114D01*
X50297500Y31002400D01*
X50297500Y29925615D01*
X50277498Y29857494D01*
X50223842Y29811001D01*
X50153568Y29800897D01*
X50124405Y29808747D01*
X50097263Y29819686D01*
X49889663Y29860228D01*
X49884101Y29860500D01*
X49728154Y29860500D01*
X49570434Y29845452D01*
X49367466Y29785908D01*
X49362139Y29783164D01*
X49362138Y29783164D01*
X49184751Y29691804D01*
X49184748Y29691802D01*
X49179420Y29689058D01*
X49013080Y29558396D01*
X49009148Y29553865D01*
X49009145Y29553862D01*
X48907051Y29436209D01*
X48874448Y29398637D01*
X48871448Y29393451D01*
X48871445Y29393447D01*
X48805061Y29278697D01*
X48768527Y29215546D01*
X48699139Y29015729D01*
X48698278Y29009794D01*
X48698278Y29009792D01*
X48673888Y28841575D01*
X48668787Y28806396D01*
X41931851Y28806396D01*
X41881777Y28960506D01*
X41856549Y29004203D01*
X41815831Y29074728D01*
X41786290Y29125894D01*
X41735281Y29182546D01*
X41662925Y29262905D01*
X41662924Y29262906D01*
X41658503Y29267816D01*
X41504002Y29380068D01*
X41497974Y29382752D01*
X41497972Y29382753D01*
X41335569Y29455059D01*
X41335568Y29455059D01*
X41329538Y29457744D01*
X41236137Y29477597D01*
X41149194Y29496078D01*
X41149189Y29496078D01*
X41142737Y29497450D01*
X40951763Y29497450D01*
X40945311Y29496078D01*
X40945306Y29496078D01*
X40858363Y29477597D01*
X40764962Y29457744D01*
X40758932Y29455059D01*
X40758931Y29455059D01*
X40596528Y29382753D01*
X40596526Y29382752D01*
X40590498Y29380068D01*
X40435997Y29267816D01*
X40431576Y29262906D01*
X40431575Y29262905D01*
X40359220Y29182546D01*
X40308210Y29125894D01*
X40278669Y29074728D01*
X40237952Y29004203D01*
X40212723Y28960506D01*
X40153708Y28778878D01*
X40153018Y28772317D01*
X40153018Y28772315D01*
X40139881Y28647321D01*
X40133746Y28588950D01*
X40153708Y28399022D01*
X40212723Y28217394D01*
X40216026Y28211672D01*
X40216027Y28211671D01*
X40236568Y28176093D01*
X40308210Y28052006D01*
X40312628Y28047099D01*
X40312629Y28047098D01*
X40407702Y27941509D01*
X40435997Y27910084D01*
X40590498Y27797832D01*
X40596526Y27795148D01*
X40596528Y27795147D01*
X40736365Y27732888D01*
X40764962Y27720156D01*
X40835997Y27705057D01*
X40945306Y27681822D01*
X40945311Y27681822D01*
X40951763Y27680450D01*
X41083856Y27680450D01*
X41151977Y27660448D01*
X41172951Y27643545D01*
X43391714Y25424782D01*
X43425740Y25362470D01*
X43420675Y25291655D01*
X43391714Y25246592D01*
X42838142Y24693020D01*
X42829862Y24685485D01*
X42823382Y24681372D01*
X42776757Y24631721D01*
X42774002Y24628879D01*
X42754265Y24609142D01*
X42751785Y24605945D01*
X42744082Y24596925D01*
X42713814Y24564693D01*
X42709995Y24557747D01*
X42709993Y24557744D01*
X42704052Y24546938D01*
X42693201Y24530419D01*
X42680786Y24514413D01*
X42677641Y24507144D01*
X42677638Y24507140D01*
X42663226Y24473835D01*
X42658009Y24463185D01*
X42636705Y24424432D01*
X42634734Y24416757D01*
X42634734Y24416756D01*
X42631667Y24404810D01*
X42625263Y24386106D01*
X42617219Y24367517D01*
X42615980Y24359694D01*
X42615977Y24359684D01*
X42610301Y24323848D01*
X42607895Y24312228D01*
X42596900Y24269402D01*
X42596900Y24249148D01*
X42595349Y24229438D01*
X42592180Y24209429D01*
X42592926Y24201537D01*
X42596341Y24165411D01*
X42596900Y24153553D01*
X42596900Y23868595D01*
X42576898Y23800474D01*
X42559995Y23779500D01*
X40252500Y21472005D01*
X40190188Y21437979D01*
X40163405Y21435100D01*
X36777862Y21435100D01*
X36766679Y21435627D01*
X36759186Y21437302D01*
X36751260Y21437053D01*
X36751259Y21437053D01*
X36691109Y21435162D01*
X36687150Y21435100D01*
X36659239Y21435100D01*
X36655305Y21434603D01*
X36655304Y21434603D01*
X36655239Y21434595D01*
X36643402Y21433662D01*
X36611144Y21432648D01*
X36607125Y21432522D01*
X36599206Y21432273D01*
X36579752Y21426621D01*
X36560395Y21422613D01*
X36548165Y21421068D01*
X36548164Y21421068D01*
X36540298Y21420074D01*
X36532927Y21417155D01*
X36532925Y21417155D01*
X36499183Y21403796D01*
X36487953Y21399951D01*
X36453112Y21389829D01*
X36453111Y21389829D01*
X36445502Y21387618D01*
X36438683Y21383585D01*
X36438678Y21383583D01*
X36428067Y21377307D01*
X36410319Y21368612D01*
X36391478Y21361152D01*
X36385062Y21356490D01*
X36385061Y21356490D01*
X36355708Y21335164D01*
X36345788Y21328648D01*
X36314560Y21310180D01*
X36314557Y21310178D01*
X36307733Y21306142D01*
X36293412Y21291821D01*
X36278379Y21278981D01*
X36261988Y21267072D01*
X36256937Y21260966D01*
X36233797Y21232995D01*
X36225807Y21224216D01*
X34326547Y19324957D01*
X34318261Y19317417D01*
X34311782Y19313305D01*
X34265581Y19264105D01*
X34265157Y19263654D01*
X34262402Y19260812D01*
X34242665Y19241075D01*
X34240185Y19237878D01*
X34232482Y19228858D01*
X34202214Y19196626D01*
X34198395Y19189680D01*
X34198393Y19189677D01*
X34192452Y19178871D01*
X34181601Y19162352D01*
X34169186Y19146346D01*
X34166041Y19139077D01*
X34166038Y19139073D01*
X34151626Y19105768D01*
X34146409Y19095118D01*
X34125105Y19056365D01*
X34123134Y19048690D01*
X34123134Y19048689D01*
X34120067Y19036743D01*
X34113663Y19018039D01*
X34105619Y18999450D01*
X34104379Y18991625D01*
X34104377Y18991616D01*
X34098700Y18955775D01*
X34096298Y18944173D01*
X34095745Y18942017D01*
X34067337Y18889030D01*
X34002984Y18817558D01*
X34002982Y18817555D01*
X33998560Y18812644D01*
X33995258Y18806925D01*
X33995256Y18806922D01*
X33943212Y18716779D01*
X33903073Y18647256D01*
X33844058Y18465628D01*
X33824096Y18275700D01*
X33844058Y18085772D01*
X33903073Y17904144D01*
X33998560Y17738756D01*
X34126347Y17596834D01*
X34280848Y17484582D01*
X34286876Y17481898D01*
X34286878Y17481897D01*
X34407601Y17428148D01*
X34455312Y17406906D01*
X34552441Y17386260D01*
X34614913Y17352533D01*
X34649235Y17290383D01*
X34644507Y17219544D01*
X34615338Y17173919D01*
X34568624Y17127205D01*
X34506312Y17093179D01*
X34479529Y17090300D01*
X29154387Y17090300D01*
X29080328Y17114363D01*
X29073898Y17119035D01*
X29073891Y17119039D01*
X29068552Y17122918D01*
X29062524Y17125602D01*
X29062522Y17125603D01*
X28900119Y17197909D01*
X28900118Y17197909D01*
X28894088Y17200594D01*
X28800688Y17220447D01*
X28713744Y17238928D01*
X28713739Y17238928D01*
X28707287Y17240300D01*
X28516313Y17240300D01*
X28509861Y17238928D01*
X28509856Y17238928D01*
X28422912Y17220447D01*
X28329512Y17200594D01*
X28323482Y17197909D01*
X28323481Y17197909D01*
X28161078Y17125603D01*
X28161076Y17125602D01*
X28155048Y17122918D01*
X28149707Y17119038D01*
X28149706Y17119037D01*
X28143273Y17114363D01*
X28000547Y17010666D01*
X27872760Y16868744D01*
X27777273Y16703356D01*
X27775231Y16697071D01*
X27722413Y16534515D01*
X27691675Y16484356D01*
X21395450Y10188131D01*
X21389763Y10182785D01*
X21343696Y10142100D01*
X21339468Y10136117D01*
X21336105Y10131359D01*
X21322303Y10114984D01*
X20320124Y9112805D01*
X20257812Y9078779D01*
X20231029Y9075900D01*
X17274987Y9075900D01*
X17200928Y9099963D01*
X17194498Y9104635D01*
X17194491Y9104639D01*
X17189152Y9108518D01*
X17183124Y9111202D01*
X17183122Y9111203D01*
X17020719Y9183509D01*
X17020718Y9183509D01*
X17014688Y9186194D01*
X16921287Y9206047D01*
X16834344Y9224528D01*
X16834339Y9224528D01*
X16827887Y9225900D01*
X16636913Y9225900D01*
X16630461Y9224528D01*
X16630456Y9224528D01*
X16543513Y9206047D01*
X16450112Y9186194D01*
X16444082Y9183509D01*
X16444081Y9183509D01*
X16281678Y9111203D01*
X16281676Y9111202D01*
X16275648Y9108518D01*
X16270307Y9104638D01*
X16270306Y9104637D01*
X16263873Y9099963D01*
X16121147Y8996266D01*
X15993360Y8854344D01*
X15897873Y8688956D01*
X15838858Y8507328D01*
X15818896Y8317400D01*
X1410000Y8317400D01*
X1410000Y34060400D01*
X2480496Y34060400D01*
X2500458Y33870472D01*
X2559473Y33688844D01*
X2654960Y33523456D01*
X2659378Y33518549D01*
X2659379Y33518548D01*
X2756974Y33410158D01*
X2782747Y33381534D01*
X2853033Y33330468D01*
X2931261Y33273632D01*
X2937248Y33269282D01*
X2943276Y33266598D01*
X2943278Y33266597D01*
X3105681Y33194291D01*
X3111712Y33191606D01*
X3205112Y33171753D01*
X3292056Y33153272D01*
X3292061Y33153272D01*
X3298513Y33151900D01*
X3489487Y33151900D01*
X3495939Y33153272D01*
X3495944Y33153272D01*
X3582888Y33171753D01*
X3676288Y33191606D01*
X3682319Y33194291D01*
X3844722Y33266597D01*
X3844724Y33266598D01*
X3850752Y33269282D01*
X3856740Y33273632D01*
X3964653Y33352036D01*
X4031521Y33375895D01*
X4038714Y33376100D01*
X5758270Y33376100D01*
X5826391Y33356098D01*
X5872884Y33302442D01*
X5882988Y33232168D01*
X5878105Y33211170D01*
X5827858Y33056528D01*
X5807896Y32866600D01*
X5808586Y32860035D01*
X5820343Y32748178D01*
X5827858Y32676672D01*
X5886873Y32495044D01*
X5982360Y32329656D01*
X5986778Y32324749D01*
X5986779Y32324748D01*
X6058427Y32245175D01*
X6110147Y32187734D01*
X6264648Y32075482D01*
X6270676Y32072798D01*
X6270678Y32072797D01*
X6402373Y32014163D01*
X6439112Y31997806D01*
X6532512Y31977953D01*
X6619456Y31959472D01*
X6619461Y31959472D01*
X6625913Y31958100D01*
X6707206Y31958100D01*
X6775327Y31938098D01*
X6796301Y31921195D01*
X12959881Y25757615D01*
X12993907Y25695303D01*
X12995728Y25678361D01*
X12996096Y25678400D01*
X13014520Y25503109D01*
X13016058Y25488472D01*
X13075073Y25306844D01*
X13170560Y25141456D01*
X13174978Y25136549D01*
X13174979Y25136548D01*
X13235980Y25068800D01*
X13298347Y24999534D01*
X13376447Y24942791D01*
X13434793Y24900400D01*
X13452848Y24887282D01*
X13458876Y24884598D01*
X13458878Y24884597D01*
X13585836Y24828072D01*
X13627312Y24809606D01*
X13720712Y24789753D01*
X13807656Y24771272D01*
X13807661Y24771272D01*
X13814113Y24769900D01*
X13998943Y24769900D01*
X14067064Y24749898D01*
X14113557Y24696242D01*
X14123661Y24625968D01*
X14094167Y24561388D01*
X14085355Y24552406D01*
X14081448Y24549567D01*
X14077027Y24544657D01*
X13961865Y24416756D01*
X13953661Y24407645D01*
X13916939Y24344040D01*
X13862153Y24249148D01*
X13858174Y24242257D01*
X13799159Y24060629D01*
X13798469Y24054068D01*
X13798469Y24054066D01*
X13790983Y23982842D01*
X13779197Y23870701D01*
X13779887Y23864136D01*
X13795375Y23716779D01*
X13799159Y23680773D01*
X13858174Y23499145D01*
X13861477Y23493423D01*
X13861478Y23493422D01*
X13888086Y23447336D01*
X13953661Y23333757D01*
X13958079Y23328850D01*
X13958080Y23328849D01*
X14017930Y23262379D01*
X14081448Y23191835D01*
X14095742Y23181450D01*
X14228133Y23085262D01*
X14235949Y23079583D01*
X14241977Y23076899D01*
X14241979Y23076898D01*
X14403111Y23005158D01*
X14410413Y23001907D01*
X14503813Y22982054D01*
X14590757Y22963573D01*
X14590762Y22963573D01*
X14597214Y22962201D01*
X14788188Y22962201D01*
X14788420Y22962250D01*
X14855937Y22949901D01*
X14907782Y22901398D01*
X14925175Y22832564D01*
X14908385Y22774365D01*
X14878473Y22722556D01*
X14819458Y22540928D01*
X14818768Y22534367D01*
X14818768Y22534365D01*
X14804866Y22402092D01*
X14799496Y22351000D01*
X14800186Y22344435D01*
X14814361Y22209572D01*
X14819458Y22161072D01*
X14878473Y21979444D01*
X14973960Y21814056D01*
X14978378Y21809149D01*
X14978379Y21809148D01*
X15018936Y21764105D01*
X15101747Y21672134D01*
X15256248Y21559882D01*
X15262276Y21557198D01*
X15262278Y21557197D01*
X15424681Y21484891D01*
X15430712Y21482206D01*
X15524112Y21462353D01*
X15611056Y21443872D01*
X15611061Y21443872D01*
X15617513Y21442500D01*
X15808487Y21442500D01*
X15814939Y21443872D01*
X15814944Y21443872D01*
X15901888Y21462353D01*
X15995288Y21482206D01*
X16001319Y21484891D01*
X16163722Y21557197D01*
X16163724Y21557198D01*
X16169752Y21559882D01*
X16324253Y21672134D01*
X16381365Y21735564D01*
X16441810Y21772802D01*
X16512794Y21771450D01*
X16568634Y21735564D01*
X16625747Y21672134D01*
X16780248Y21559882D01*
X16786276Y21557198D01*
X16786278Y21557197D01*
X16948681Y21484891D01*
X16954712Y21482206D01*
X17048112Y21462353D01*
X17135056Y21443872D01*
X17135061Y21443872D01*
X17141513Y21442500D01*
X17332487Y21442500D01*
X17338939Y21443872D01*
X17338944Y21443872D01*
X17425888Y21462353D01*
X17519288Y21482206D01*
X17525319Y21484891D01*
X17687722Y21557197D01*
X17687724Y21557198D01*
X17693752Y21559882D01*
X17848253Y21672134D01*
X17931064Y21764105D01*
X17971621Y21809148D01*
X17971622Y21809149D01*
X17976040Y21814056D01*
X18071527Y21979444D01*
X18130542Y22161072D01*
X18135640Y22209572D01*
X18149814Y22344435D01*
X18150504Y22351000D01*
X18145134Y22402092D01*
X18131232Y22534365D01*
X18131232Y22534367D01*
X18130542Y22540928D01*
X18071527Y22722556D01*
X17976040Y22887944D01*
X17902863Y22969215D01*
X17872147Y23033221D01*
X17870500Y23053524D01*
X17870500Y23941405D01*
X17890502Y24009526D01*
X17907405Y24030501D01*
X18605501Y24728596D01*
X18667813Y24762621D01*
X18694596Y24765500D01*
X26726013Y24765500D01*
X26794134Y24745498D01*
X26840627Y24691842D01*
X26851323Y24626331D01*
X26839096Y24510000D01*
X26839786Y24503435D01*
X26857463Y24335251D01*
X26859058Y24320072D01*
X26918073Y24138444D01*
X26921376Y24132722D01*
X26921377Y24132721D01*
X26963000Y24060629D01*
X27013560Y23973056D01*
X27068850Y23911651D01*
X27074036Y23905891D01*
X27104753Y23841883D01*
X27106400Y23821580D01*
X27106400Y22329624D01*
X27086398Y22261503D01*
X27074042Y22245321D01*
X27000860Y22164044D01*
X26905373Y21998656D01*
X26846358Y21817028D01*
X26845668Y21810467D01*
X26845668Y21810465D01*
X26840235Y21758774D01*
X26826396Y21627100D01*
X26827086Y21620535D01*
X26841343Y21484891D01*
X26846358Y21437172D01*
X26905373Y21255544D01*
X27000860Y21090156D01*
X27128647Y20948234D01*
X27173155Y20915897D01*
X27274634Y20842168D01*
X27283148Y20835982D01*
X27289176Y20833298D01*
X27289178Y20833297D01*
X27444549Y20764122D01*
X27457612Y20758306D01*
X27551013Y20738453D01*
X27637956Y20719972D01*
X27637961Y20719972D01*
X27644413Y20718600D01*
X27835387Y20718600D01*
X27841839Y20719972D01*
X27841844Y20719972D01*
X27928787Y20738453D01*
X28022188Y20758306D01*
X28035251Y20764122D01*
X28190622Y20833297D01*
X28190624Y20833298D01*
X28196652Y20835982D01*
X28205167Y20842168D01*
X28306645Y20915897D01*
X28351153Y20948234D01*
X28478940Y21090156D01*
X28574427Y21255544D01*
X28633442Y21437172D01*
X28638458Y21484891D01*
X28652714Y21620535D01*
X28653404Y21627100D01*
X28639565Y21758774D01*
X28634132Y21810465D01*
X28634132Y21810467D01*
X28633442Y21817028D01*
X28574427Y21998656D01*
X28478940Y22164044D01*
X28405763Y22245315D01*
X28375047Y22309321D01*
X28373400Y22329624D01*
X28373400Y23793371D01*
X28393402Y23861492D01*
X28405764Y23877681D01*
X28487221Y23968148D01*
X28487222Y23968149D01*
X28491640Y23973056D01*
X28587127Y24138444D01*
X28646142Y24320072D01*
X28647738Y24335251D01*
X28665414Y24503435D01*
X28666104Y24510000D01*
X28653877Y24626331D01*
X28666649Y24696168D01*
X28715151Y24748014D01*
X28779187Y24765500D01*
X29863800Y24765500D01*
X29931921Y24745498D01*
X29951147Y24729157D01*
X29951420Y24729460D01*
X29956332Y24725037D01*
X29960747Y24720134D01*
X29968101Y24714791D01*
X30082437Y24631721D01*
X30115248Y24607882D01*
X30121276Y24605198D01*
X30121278Y24605197D01*
X30273163Y24537574D01*
X30289712Y24530206D01*
X30364012Y24514413D01*
X30470056Y24491872D01*
X30470061Y24491872D01*
X30476513Y24490500D01*
X30667487Y24490500D01*
X30673939Y24491872D01*
X30673944Y24491872D01*
X30779988Y24514413D01*
X30854288Y24530206D01*
X30870837Y24537574D01*
X31022722Y24605197D01*
X31022724Y24605198D01*
X31028752Y24607882D01*
X31061564Y24631721D01*
X31137344Y24686779D01*
X31183253Y24720134D01*
X31210053Y24749898D01*
X31306621Y24857148D01*
X31306622Y24857149D01*
X31311040Y24862056D01*
X31390413Y24999534D01*
X31403223Y25021721D01*
X31403224Y25021722D01*
X31406527Y25027444D01*
X31465542Y25209072D01*
X31469486Y25246592D01*
X31484814Y25392435D01*
X31485504Y25399000D01*
X31479922Y25452107D01*
X31466232Y25582365D01*
X31466232Y25582367D01*
X31465542Y25588928D01*
X31415297Y25743565D01*
X31413269Y25814531D01*
X31449932Y25875329D01*
X31513644Y25906654D01*
X31535130Y25908500D01*
X32129181Y25908500D01*
X32197302Y25888498D01*
X32243795Y25834842D01*
X32253899Y25764568D01*
X32224405Y25699988D01*
X32221345Y25696868D01*
X32221347Y25696866D01*
X32173347Y25643556D01*
X32093560Y25554944D01*
X32055182Y25488472D01*
X32003526Y25399000D01*
X31998073Y25389556D01*
X31939058Y25207928D01*
X31938368Y25201367D01*
X31938368Y25201365D01*
X31920749Y25033729D01*
X31919096Y25018000D01*
X31919786Y25011435D01*
X31934379Y24872594D01*
X31939058Y24828072D01*
X31998073Y24646444D01*
X32001376Y24640722D01*
X32001377Y24640721D01*
X32021887Y24605197D01*
X32093560Y24481056D01*
X32097978Y24476149D01*
X32097979Y24476148D01*
X32175963Y24389538D01*
X32221347Y24339134D01*
X32258380Y24312228D01*
X32363337Y24235972D01*
X32375848Y24226882D01*
X32381876Y24224198D01*
X32381878Y24224197D01*
X32544281Y24151891D01*
X32550312Y24149206D01*
X32643712Y24129353D01*
X32730656Y24110872D01*
X32730661Y24110872D01*
X32737113Y24109500D01*
X32928087Y24109500D01*
X32934539Y24110872D01*
X32934544Y24110872D01*
X33021488Y24129353D01*
X33114888Y24149206D01*
X33120919Y24151891D01*
X33283322Y24224197D01*
X33283324Y24224198D01*
X33289352Y24226882D01*
X33301864Y24235972D01*
X33426650Y24326635D01*
X33443853Y24339134D01*
X33448268Y24344037D01*
X33448271Y24344040D01*
X33449049Y24344904D01*
X33449624Y24345258D01*
X33453180Y24348460D01*
X33453765Y24347810D01*
X33509494Y24382145D01*
X33538727Y24386533D01*
X33553186Y24386987D01*
X33556070Y24387078D01*
X33563989Y24387327D01*
X33583443Y24392979D01*
X33602800Y24396987D01*
X33615030Y24398532D01*
X33615031Y24398532D01*
X33622897Y24399526D01*
X33630268Y24402445D01*
X33630270Y24402445D01*
X33664012Y24415804D01*
X33675242Y24419649D01*
X33710083Y24429771D01*
X33710084Y24429771D01*
X33717693Y24431982D01*
X33724512Y24436015D01*
X33724517Y24436017D01*
X33735128Y24442293D01*
X33752876Y24450988D01*
X33771717Y24458448D01*
X33807487Y24484436D01*
X33817407Y24490952D01*
X33848635Y24509420D01*
X33848638Y24509422D01*
X33855462Y24513458D01*
X33869783Y24527779D01*
X33884817Y24540620D01*
X33901207Y24552528D01*
X33929398Y24586605D01*
X33937388Y24595384D01*
X34205499Y24863495D01*
X34267811Y24897521D01*
X34294594Y24900400D01*
X34350487Y24900400D01*
X34356939Y24901772D01*
X34356944Y24901772D01*
X34462720Y24924256D01*
X34537288Y24940106D01*
X34662045Y24995651D01*
X34705722Y25015097D01*
X34705724Y25015098D01*
X34711752Y25017782D01*
X34866253Y25130034D01*
X34872118Y25136548D01*
X34989621Y25267048D01*
X34989622Y25267049D01*
X34994040Y25271956D01*
X35082274Y25424782D01*
X35086223Y25431621D01*
X35086224Y25431622D01*
X35089527Y25437344D01*
X35148542Y25618972D01*
X35150466Y25637273D01*
X35167814Y25802335D01*
X35168504Y25808900D01*
X35159709Y25892577D01*
X35149232Y25992265D01*
X35149232Y25992267D01*
X35148542Y25998828D01*
X35089527Y26180456D01*
X34994040Y26345844D01*
X34970005Y26372538D01*
X34939288Y26436546D01*
X34948053Y26507000D01*
X34974547Y26545943D01*
X35650799Y27222195D01*
X35713111Y27256221D01*
X35739894Y27259100D01*
X35753890Y27259100D01*
X35822011Y27239098D01*
X35863008Y27196101D01*
X35903160Y27126556D01*
X35907578Y27121649D01*
X35907579Y27121648D01*
X35918781Y27109207D01*
X36030947Y26984634D01*
X36185448Y26872382D01*
X36191476Y26869698D01*
X36191478Y26869697D01*
X36353881Y26797391D01*
X36359912Y26794706D01*
X36453312Y26774853D01*
X36540256Y26756372D01*
X36540261Y26756372D01*
X36546713Y26755000D01*
X36737687Y26755000D01*
X36744139Y26756372D01*
X36744144Y26756372D01*
X36831088Y26774853D01*
X36924488Y26794706D01*
X36930519Y26797391D01*
X37092922Y26869697D01*
X37092924Y26869698D01*
X37098952Y26872382D01*
X37253453Y26984634D01*
X37365619Y27109207D01*
X37376821Y27121648D01*
X37376822Y27121649D01*
X37381240Y27126556D01*
X37446216Y27239098D01*
X37473423Y27286221D01*
X37473424Y27286222D01*
X37476727Y27291944D01*
X37535742Y27473572D01*
X37553107Y27638794D01*
X37580120Y27704450D01*
X37589322Y27714718D01*
X39329664Y29455059D01*
X41091353Y31216748D01*
X41099639Y31224288D01*
X41106118Y31228400D01*
X41116296Y31239238D01*
X41152743Y31278051D01*
X41155498Y31280893D01*
X41175235Y31300630D01*
X41177715Y31303827D01*
X41185420Y31312849D01*
X41210259Y31339300D01*
X41215686Y31345079D01*
X41219505Y31352025D01*
X41219507Y31352028D01*
X41225448Y31362834D01*
X41236299Y31379353D01*
X41243858Y31389099D01*
X41248714Y31395359D01*
X41251859Y31402628D01*
X41251862Y31402632D01*
X41266274Y31435937D01*
X41271491Y31446587D01*
X41292795Y31485340D01*
X41297833Y31504963D01*
X41304237Y31523666D01*
X41309133Y31534980D01*
X41309133Y31534981D01*
X41312281Y31542255D01*
X41313520Y31550078D01*
X41313523Y31550088D01*
X41319199Y31585924D01*
X41321605Y31597544D01*
X41330628Y31632689D01*
X41330628Y31632690D01*
X41332600Y31640370D01*
X41332600Y31660624D01*
X41334151Y31680335D01*
X41336080Y31692514D01*
X41337320Y31700343D01*
X41333159Y31744362D01*
X41332600Y31756219D01*
X41332600Y34916376D01*
X41352602Y34984497D01*
X41364958Y35000679D01*
X41438140Y35081956D01*
X41507389Y35201898D01*
X41530323Y35241621D01*
X41530324Y35241622D01*
X41533627Y35247344D01*
X41592642Y35428972D01*
X41593352Y35435721D01*
X41611914Y35612335D01*
X41612604Y35618900D01*
X41596182Y35775150D01*
X41593332Y35802265D01*
X41593332Y35802267D01*
X41592642Y35808828D01*
X41533627Y35990456D01*
X41530216Y35996365D01*
X41476980Y36088571D01*
X41438140Y36155844D01*
X41422262Y36173479D01*
X41314775Y36292855D01*
X41314774Y36292856D01*
X41310353Y36297766D01*
X41209330Y36371164D01*
X41161197Y36406135D01*
X41161194Y36406136D01*
X41155852Y36410018D01*
X41149816Y36412706D01*
X41146522Y36414607D01*
X41097528Y36465989D01*
X41084091Y36535703D01*
X41110477Y36601614D01*
X41120426Y36612822D01*
X44045247Y39537643D01*
X44053537Y39545187D01*
X44060018Y39549300D01*
X44081463Y39572137D01*
X44107804Y39593015D01*
X44109752Y39593882D01*
X44115094Y39597764D01*
X44115097Y39597765D01*
X44199053Y39658763D01*
X44264253Y39706134D01*
X44296042Y39741439D01*
X44387621Y39843148D01*
X44387622Y39843149D01*
X44392040Y39848056D01*
X44487527Y40013444D01*
X44546542Y40195072D01*
X44550446Y40232211D01*
X44565814Y40378435D01*
X44566504Y40385000D01*
X44546542Y40574928D01*
X44544503Y40581203D01*
X44544502Y40581208D01*
X44537563Y40602562D01*
X44535534Y40673529D01*
X44572195Y40734328D01*
X44635907Y40765654D01*
X44657395Y40767500D01*
X44735406Y40767500D01*
X44803527Y40747498D01*
X44824501Y40730595D01*
X49017893Y36537203D01*
X49051919Y36474891D01*
X49046854Y36404076D01*
X49022437Y36363801D01*
X49009960Y36349944D01*
X48914473Y36184556D01*
X48855458Y36002928D01*
X48854768Y35996367D01*
X48854768Y35996365D01*
X48837014Y35827439D01*
X48835496Y35813000D01*
X48836186Y35806435D01*
X48854346Y35633656D01*
X48855458Y35623072D01*
X48914473Y35441444D01*
X48917776Y35435722D01*
X48917777Y35435721D01*
X48918164Y35435051D01*
X49009960Y35276056D01*
X49014378Y35271149D01*
X49014379Y35271148D01*
X49112826Y35161812D01*
X49137747Y35134134D01*
X49209564Y35081956D01*
X49281671Y35029567D01*
X49292248Y35021882D01*
X49298276Y35019198D01*
X49298278Y35019197D01*
X49448674Y34952237D01*
X49466712Y34944206D01*
X49560113Y34924353D01*
X49647056Y34905872D01*
X49647061Y34905872D01*
X49653513Y34904500D01*
X49844487Y34904500D01*
X49850939Y34905872D01*
X49850944Y34905872D01*
X49937887Y34924353D01*
X50031288Y34944206D01*
X50054441Y34954514D01*
X50187658Y35013826D01*
X50258025Y35023260D01*
X50322322Y34993153D01*
X50356099Y34945001D01*
X50434776Y34745779D01*
X50437543Y34741220D01*
X50437544Y34741217D01*
X50497083Y34643100D01*
X50554377Y34548683D01*
X50557874Y34544653D01*
X50684817Y34398364D01*
X50705477Y34374555D01*
X50730060Y34354398D01*
X50879627Y34231760D01*
X50879633Y34231756D01*
X50883755Y34228376D01*
X50888398Y34225733D01*
X50915735Y34210171D01*
X50965041Y34159088D01*
X50978902Y34089458D01*
X50952918Y34023387D01*
X50923768Y33996149D01*
X50806422Y33917148D01*
X50798130Y33910481D01*
X50639100Y33758772D01*
X50632059Y33750814D01*
X50500859Y33574475D01*
X50495255Y33565438D01*
X50395643Y33369516D01*
X50391643Y33359665D01*
X50326466Y33149760D01*
X50324183Y33139376D01*
X50322139Y33123957D01*
X50324335Y33109793D01*
X50337522Y33106000D01*
X53222192Y33106000D01*
X53235723Y33109973D01*
X53237248Y33120580D01*
X53212523Y33238421D01*
X53209463Y33248617D01*
X53128737Y33453029D01*
X53124006Y33462561D01*
X53009984Y33650462D01*
X53003720Y33659052D01*
X52859673Y33825052D01*
X52852042Y33832472D01*
X52682089Y33971826D01*
X52673326Y33977848D01*
X52646289Y33993238D01*
X52596982Y34044320D01*
X52583120Y34113951D01*
X52609103Y34180022D01*
X52638253Y34207261D01*
X52711547Y34256606D01*
X52760319Y34289441D01*
X52767231Y34296034D01*
X52882123Y34405637D01*
X52927135Y34448576D01*
X53064754Y34633542D01*
X53169240Y34839051D01*
X53181457Y34878394D01*
X53236024Y35054129D01*
X53237607Y35059227D01*
X53240619Y35081956D01*
X53267198Y35282489D01*
X53267198Y35282494D01*
X53267898Y35287774D01*
X53266197Y35333098D01*
X53259449Y35512827D01*
X53259249Y35518158D01*
X53211907Y35743791D01*
X53199523Y35775150D01*
X53129185Y35953256D01*
X53129184Y35953258D01*
X53127224Y35958221D01*
X53107664Y35990456D01*
X53010390Y36150757D01*
X53007623Y36155317D01*
X52921534Y36254526D01*
X52860023Y36325412D01*
X52860021Y36325414D01*
X52856523Y36329445D01*
X52814627Y36363798D01*
X52682373Y36472240D01*
X52682367Y36472244D01*
X52678245Y36475624D01*
X52646750Y36493552D01*
X52597445Y36544632D01*
X52583583Y36614262D01*
X52609566Y36680333D01*
X52638716Y36707573D01*
X52695942Y36746100D01*
X52760319Y36789441D01*
X52816189Y36842738D01*
X52923278Y36944897D01*
X52927135Y36948576D01*
X52936226Y36960794D01*
X53014010Y37065340D01*
X53064754Y37133542D01*
X53070435Y37144714D01*
X53157924Y37316794D01*
X53169240Y37339051D01*
X53171928Y37347706D01*
X53236024Y37554129D01*
X53237607Y37559227D01*
X53238880Y37568832D01*
X53267198Y37782489D01*
X53267198Y37782494D01*
X53267898Y37787774D01*
X53259249Y38018158D01*
X53211907Y38243791D01*
X53127224Y38458221D01*
X53007623Y38655317D01*
X53003304Y38660294D01*
X52860023Y38825412D01*
X52860021Y38825414D01*
X52856523Y38829445D01*
X52792511Y38881932D01*
X52682373Y38972240D01*
X52682367Y38972244D01*
X52678245Y38975624D01*
X52673602Y38978267D01*
X52646265Y38993829D01*
X52596959Y39044912D01*
X52583098Y39114542D01*
X52609082Y39180613D01*
X52638232Y39207851D01*
X52755578Y39286852D01*
X52763870Y39293519D01*
X52922900Y39445228D01*
X52929941Y39453186D01*
X53061141Y39629525D01*
X53066745Y39638562D01*
X53166357Y39834484D01*
X53170357Y39844335D01*
X53235534Y40054240D01*
X53237817Y40064624D01*
X53239861Y40080043D01*
X53237665Y40094207D01*
X53224478Y40098000D01*
X50339808Y40098000D01*
X50326277Y40094027D01*
X50324752Y40083420D01*
X50349477Y39965579D01*
X50352537Y39955383D01*
X50433263Y39750971D01*
X50437994Y39741439D01*
X50552016Y39553538D01*
X50558280Y39544948D01*
X50702327Y39378948D01*
X50709958Y39371528D01*
X50879911Y39232174D01*
X50888674Y39226152D01*
X50915711Y39210762D01*
X50965018Y39159680D01*
X50978880Y39090049D01*
X50952897Y39023978D01*
X50923747Y38996739D01*
X50822816Y38928788D01*
X50801681Y38914559D01*
X50797823Y38910879D01*
X50795520Y38909027D01*
X50729897Y38881932D01*
X50660043Y38894616D01*
X50627475Y38918130D01*
X48921648Y40623957D01*
X50322139Y40623957D01*
X50324335Y40609793D01*
X50337522Y40606000D01*
X51508885Y40606000D01*
X51524124Y40610475D01*
X51525329Y40611865D01*
X51527000Y40619548D01*
X51527000Y40624115D01*
X52035000Y40624115D01*
X52039475Y40608876D01*
X52040865Y40607671D01*
X52048548Y40606000D01*
X53222192Y40606000D01*
X53235723Y40609973D01*
X53237248Y40620580D01*
X53212523Y40738421D01*
X53209463Y40748617D01*
X53128737Y40953029D01*
X53124006Y40962561D01*
X53009984Y41150462D01*
X53003720Y41159052D01*
X52859673Y41325052D01*
X52852042Y41332472D01*
X52682089Y41471826D01*
X52673323Y41477850D01*
X52645801Y41493517D01*
X52596496Y41544600D01*
X52582635Y41614230D01*
X52608619Y41680301D01*
X52637768Y41707538D01*
X52755575Y41786850D01*
X52763870Y41793519D01*
X52922900Y41945228D01*
X52929941Y41953186D01*
X53061141Y42129525D01*
X53066745Y42138562D01*
X53166357Y42334484D01*
X53170357Y42344335D01*
X53235534Y42554240D01*
X53237817Y42564624D01*
X53239861Y42580043D01*
X53237665Y42594207D01*
X53224478Y42598000D01*
X52053115Y42598000D01*
X52037876Y42593525D01*
X52036671Y42592135D01*
X52035000Y42584452D01*
X52035000Y40624115D01*
X51527000Y40624115D01*
X51527000Y42579885D01*
X51522525Y42595124D01*
X51521135Y42596329D01*
X51513452Y42598000D01*
X50339808Y42598000D01*
X50326277Y42594027D01*
X50324752Y42583420D01*
X50349477Y42465579D01*
X50352537Y42455383D01*
X50433263Y42250971D01*
X50437994Y42241439D01*
X50552016Y42053538D01*
X50558280Y42044948D01*
X50702327Y41878948D01*
X50709958Y41871528D01*
X50879911Y41732174D01*
X50888677Y41726150D01*
X50916199Y41710483D01*
X50965504Y41659400D01*
X50979365Y41589770D01*
X50953381Y41523699D01*
X50924232Y41496462D01*
X50806425Y41417150D01*
X50798130Y41410481D01*
X50639100Y41258772D01*
X50632059Y41250814D01*
X50500859Y41074475D01*
X50495255Y41065438D01*
X50395643Y40869516D01*
X50391643Y40859665D01*
X50326466Y40649760D01*
X50324183Y40639376D01*
X50322139Y40623957D01*
X48921648Y40623957D01*
X46022752Y43522853D01*
X46015212Y43531139D01*
X46011100Y43537618D01*
X45961448Y43584244D01*
X45958607Y43586998D01*
X45938870Y43606735D01*
X45935673Y43609215D01*
X45926651Y43616920D01*
X45922497Y43620821D01*
X45894421Y43647186D01*
X45887475Y43651005D01*
X45887472Y43651007D01*
X45876666Y43656948D01*
X45860147Y43667799D01*
X45859683Y43668159D01*
X45844141Y43680214D01*
X45836872Y43683359D01*
X45836868Y43683362D01*
X45803563Y43697774D01*
X45792913Y43702991D01*
X45754160Y43724295D01*
X45734537Y43729333D01*
X45715834Y43735737D01*
X45704520Y43740633D01*
X45704519Y43740633D01*
X45697245Y43743781D01*
X45689422Y43745020D01*
X45689412Y43745023D01*
X45653576Y43750699D01*
X45641956Y43753105D01*
X45606811Y43762128D01*
X45606810Y43762128D01*
X45599130Y43764100D01*
X45578876Y43764100D01*
X45559165Y43765651D01*
X45546986Y43767580D01*
X45539157Y43768820D01*
X45509886Y43766053D01*
X45495139Y43764659D01*
X45483281Y43764100D01*
X44443972Y43764100D01*
X44432789Y43764627D01*
X44425296Y43766302D01*
X44417370Y43766053D01*
X44417369Y43766053D01*
X44357206Y43764162D01*
X44353248Y43764100D01*
X44325348Y43764100D01*
X44321358Y43763596D01*
X44309524Y43762664D01*
X44265315Y43761274D01*
X44257699Y43759061D01*
X44257697Y43759061D01*
X44245856Y43755621D01*
X44226497Y43751612D01*
X44225187Y43751446D01*
X44206407Y43749074D01*
X44199041Y43746158D01*
X44199035Y43746156D01*
X44165302Y43732800D01*
X44154072Y43728955D01*
X44138032Y43724295D01*
X44111611Y43716619D01*
X44104788Y43712584D01*
X44094170Y43706305D01*
X44076417Y43697608D01*
X44068772Y43694581D01*
X44057587Y43690152D01*
X44043909Y43680214D01*
X44021816Y43664163D01*
X44011899Y43657649D01*
X43973842Y43635142D01*
X43959521Y43620821D01*
X43944488Y43607981D01*
X43928097Y43596072D01*
X43902754Y43565438D01*
X43899906Y43561995D01*
X43891916Y43553216D01*
X42301333Y41962633D01*
X42239021Y41928607D01*
X42168206Y41933672D01*
X42118602Y41967417D01*
X42017353Y42079866D01*
X41897812Y42166718D01*
X41868194Y42188237D01*
X41868193Y42188238D01*
X41862852Y42192118D01*
X41856824Y42194802D01*
X41856822Y42194803D01*
X41694419Y42267109D01*
X41694418Y42267109D01*
X41688388Y42269794D01*
X41594987Y42289647D01*
X41508044Y42308128D01*
X41508039Y42308128D01*
X41501587Y42309500D01*
X41310613Y42309500D01*
X41304161Y42308128D01*
X41304156Y42308128D01*
X41217213Y42289647D01*
X41123812Y42269794D01*
X41117782Y42267109D01*
X41117781Y42267109D01*
X40955378Y42194803D01*
X40955376Y42194802D01*
X40949348Y42192118D01*
X40944007Y42188238D01*
X40944006Y42188237D01*
X40816429Y42095546D01*
X40794847Y42079866D01*
X40790432Y42074963D01*
X40785520Y42070540D01*
X40784395Y42071789D01*
X40731086Y42038949D01*
X40697900Y42034500D01*
X40538594Y42034500D01*
X40470473Y42054502D01*
X40449499Y42071405D01*
X39366655Y43154250D01*
X39332629Y43216562D01*
X39329750Y43243345D01*
X39329750Y43966226D01*
X39349752Y44034347D01*
X39362108Y44050529D01*
X39435290Y44131806D01*
X39530777Y44297194D01*
X39589792Y44478822D01*
X39605604Y44629260D01*
X39609064Y44662185D01*
X39609754Y44668750D01*
X39601136Y44750744D01*
X39590482Y44852115D01*
X39590482Y44852117D01*
X39589792Y44858678D01*
X39530777Y45040306D01*
X39435290Y45205694D01*
X39307503Y45347616D01*
X39153002Y45459868D01*
X39146974Y45462552D01*
X39146972Y45462553D01*
X38984569Y45534859D01*
X38984568Y45534859D01*
X38978538Y45537544D01*
X38874745Y45559606D01*
X38798194Y45575878D01*
X38798189Y45575878D01*
X38791737Y45577250D01*
X38600763Y45577250D01*
X38594311Y45575878D01*
X38594306Y45575878D01*
X38517755Y45559606D01*
X38413962Y45537544D01*
X38407932Y45534859D01*
X38407931Y45534859D01*
X38245528Y45462553D01*
X38245526Y45462552D01*
X38239498Y45459868D01*
X38084997Y45347616D01*
X37957210Y45205694D01*
X37861723Y45040306D01*
X37802708Y44858678D01*
X37802018Y44852117D01*
X37802018Y44852115D01*
X37791364Y44750744D01*
X37782746Y44668750D01*
X37783436Y44662185D01*
X37786897Y44629260D01*
X37802708Y44478822D01*
X37861723Y44297194D01*
X37957210Y44131806D01*
X38030387Y44050535D01*
X38061103Y43986529D01*
X38062750Y43966226D01*
X38062750Y43007517D01*
X38062223Y42996334D01*
X38060548Y42988841D01*
X38060797Y42980915D01*
X38060797Y42980914D01*
X38062688Y42920764D01*
X38062750Y42916805D01*
X38062750Y42888894D01*
X38063247Y42884960D01*
X38063247Y42884959D01*
X38063255Y42884894D01*
X38064188Y42873057D01*
X38065577Y42828861D01*
X38071228Y42809411D01*
X38075237Y42790050D01*
X38077776Y42769953D01*
X38080695Y42762582D01*
X38080695Y42762580D01*
X38094054Y42728838D01*
X38097899Y42717608D01*
X38110232Y42675157D01*
X38114265Y42668338D01*
X38114267Y42668333D01*
X38120543Y42657722D01*
X38129238Y42639974D01*
X38136698Y42621133D01*
X38141360Y42614717D01*
X38141360Y42614716D01*
X38162686Y42585363D01*
X38169202Y42575443D01*
X38181742Y42554240D01*
X38191708Y42537388D01*
X38206029Y42523067D01*
X38218869Y42508034D01*
X38230778Y42491643D01*
X38236884Y42486592D01*
X38264855Y42463452D01*
X38273624Y42455472D01*
X39241502Y41487593D01*
X39275526Y41425283D01*
X39270461Y41354467D01*
X39227914Y41297632D01*
X39161394Y41272821D01*
X39152405Y41272500D01*
X24114043Y41272500D01*
X24045922Y41292502D01*
X23999429Y41346158D01*
X23988733Y41411670D01*
X23991814Y41440984D01*
X23992504Y41447549D01*
X23977556Y41589770D01*
X23973232Y41630914D01*
X23973232Y41630916D01*
X23972542Y41637477D01*
X23913527Y41819105D01*
X23818040Y41984493D01*
X23739439Y42071789D01*
X23694675Y42121504D01*
X23694674Y42121505D01*
X23690253Y42126415D01*
X23535752Y42238667D01*
X23529724Y42241351D01*
X23529722Y42241352D01*
X23367319Y42313658D01*
X23367318Y42313658D01*
X23361288Y42316343D01*
X23267887Y42336196D01*
X23180944Y42354677D01*
X23180939Y42354677D01*
X23174487Y42356049D01*
X22983513Y42356049D01*
X22977061Y42354677D01*
X22977056Y42354677D01*
X22890113Y42336196D01*
X22796712Y42316343D01*
X22790682Y42313658D01*
X22790681Y42313658D01*
X22628278Y42241352D01*
X22628276Y42241351D01*
X22622248Y42238667D01*
X22467747Y42126415D01*
X22463325Y42121504D01*
X22459063Y42117666D01*
X22395056Y42086947D01*
X22374750Y42085300D01*
X18253154Y42085300D01*
X18185033Y42105302D01*
X18179093Y42109364D01*
X18105494Y42162837D01*
X18105493Y42162838D01*
X18100152Y42166718D01*
X18094124Y42169402D01*
X18094122Y42169403D01*
X17931719Y42241709D01*
X17931718Y42241709D01*
X17925688Y42244394D01*
X17818823Y42267109D01*
X17745344Y42282728D01*
X17745339Y42282728D01*
X17738887Y42284100D01*
X17547913Y42284100D01*
X17541461Y42282728D01*
X17541456Y42282728D01*
X17467977Y42267109D01*
X17361112Y42244394D01*
X17355082Y42241709D01*
X17355081Y42241709D01*
X17192678Y42169403D01*
X17192676Y42169402D01*
X17186648Y42166718D01*
X17032147Y42054466D01*
X17027726Y42049556D01*
X17027725Y42049555D01*
X16963995Y41978775D01*
X16904360Y41912544D01*
X16808873Y41747156D01*
X16749858Y41565528D01*
X16749168Y41558967D01*
X16749168Y41558965D01*
X16732493Y41400308D01*
X16705480Y41334651D01*
X16696278Y41324383D01*
X15828747Y40456852D01*
X15820461Y40449312D01*
X15813982Y40445200D01*
X15808557Y40439423D01*
X15767357Y40395549D01*
X15764602Y40392707D01*
X15744865Y40372970D01*
X15742385Y40369773D01*
X15734682Y40360753D01*
X15704414Y40328521D01*
X15700595Y40321575D01*
X15700593Y40321572D01*
X15694652Y40310766D01*
X15683801Y40294247D01*
X15671386Y40278241D01*
X15668241Y40270972D01*
X15668238Y40270968D01*
X15653826Y40237663D01*
X15648609Y40227013D01*
X15627305Y40188260D01*
X15625334Y40180585D01*
X15625334Y40180584D01*
X15622267Y40168638D01*
X15615863Y40149934D01*
X15607819Y40131345D01*
X15606580Y40123522D01*
X15606577Y40123512D01*
X15600901Y40087676D01*
X15598495Y40076056D01*
X15587500Y40033230D01*
X15587500Y40012976D01*
X15585949Y39993266D01*
X15582780Y39973257D01*
X15583526Y39965365D01*
X15586941Y39929239D01*
X15587500Y39917381D01*
X15587500Y36078191D01*
X15567498Y36010070D01*
X15550595Y35989096D01*
X14145747Y34584248D01*
X14137461Y34576708D01*
X14130982Y34572596D01*
X14125557Y34566819D01*
X14084357Y34522945D01*
X14081602Y34520103D01*
X14061865Y34500366D01*
X14059385Y34497169D01*
X14051682Y34488149D01*
X14021414Y34455917D01*
X14017595Y34448971D01*
X14017593Y34448968D01*
X14011652Y34438162D01*
X14000801Y34421643D01*
X13988386Y34405637D01*
X13985241Y34398368D01*
X13985238Y34398364D01*
X13970826Y34365059D01*
X13965609Y34354409D01*
X13944305Y34315656D01*
X13942334Y34307981D01*
X13942334Y34307980D01*
X13939267Y34296034D01*
X13932863Y34277330D01*
X13924819Y34258741D01*
X13923580Y34250918D01*
X13923577Y34250908D01*
X13917901Y34215072D01*
X13915495Y34203452D01*
X13904500Y34160626D01*
X13904500Y34140372D01*
X13902949Y34120662D01*
X13899780Y34100653D01*
X13902965Y34066965D01*
X13903941Y34056635D01*
X13904500Y34044777D01*
X13904500Y29191371D01*
X13903973Y29180188D01*
X13902298Y29172695D01*
X13902547Y29164769D01*
X13902547Y29164768D01*
X13904438Y29104618D01*
X13904500Y29100659D01*
X13904500Y29072748D01*
X13904997Y29068814D01*
X13904997Y29068813D01*
X13905005Y29068748D01*
X13905938Y29056911D01*
X13907327Y29012714D01*
X13909538Y29005104D01*
X13912978Y28993262D01*
X13916986Y28973910D01*
X13917957Y28966229D01*
X13919526Y28953807D01*
X13935806Y28912690D01*
X13939641Y28901489D01*
X13951982Y28859010D01*
X13956015Y28852191D01*
X13956017Y28852186D01*
X13962293Y28841575D01*
X13970990Y28823825D01*
X13978448Y28804987D01*
X13983109Y28798571D01*
X13983110Y28798570D01*
X14004428Y28769229D01*
X14010947Y28759305D01*
X14029422Y28728064D01*
X14029426Y28728059D01*
X14033458Y28721241D01*
X14047782Y28706917D01*
X14060621Y28691885D01*
X14072528Y28675497D01*
X14106601Y28647309D01*
X14115367Y28639331D01*
X14468627Y28286071D01*
X14502653Y28223759D01*
X14497588Y28152944D01*
X14476643Y28116692D01*
X14476421Y28116424D01*
X14468417Y28107627D01*
X14465560Y28104770D01*
X14448436Y28082694D01*
X14445970Y28079616D01*
X14402562Y28027144D01*
X14399294Y28020200D01*
X14398952Y28019713D01*
X14397067Y28016638D01*
X14396786Y28016107D01*
X14392081Y28010041D01*
X14388931Y28002761D01*
X14365038Y27947548D01*
X14363409Y27943940D01*
X14334412Y27882318D01*
X14332974Y27874780D01*
X14332767Y27874232D01*
X14331697Y27870755D01*
X14331559Y27870181D01*
X14328514Y27863145D01*
X14327275Y27855324D01*
X14327275Y27855323D01*
X14317859Y27795874D01*
X14317178Y27791975D01*
X14304420Y27725094D01*
X14304902Y27717433D01*
X14304837Y27716842D01*
X14304666Y27713220D01*
X14304675Y27712633D01*
X14303475Y27705057D01*
X14309889Y27637212D01*
X14310194Y27633320D01*
X14314470Y27565350D01*
X14316842Y27558052D01*
X14316924Y27557472D01*
X14317663Y27553906D01*
X14317816Y27553345D01*
X14318538Y27545708D01*
X14321223Y27538249D01*
X14321224Y27538246D01*
X14341598Y27481655D01*
X14342880Y27477912D01*
X14354981Y27440671D01*
X14363931Y27413125D01*
X14368042Y27406647D01*
X14368267Y27406104D01*
X14369863Y27402846D01*
X14370157Y27402330D01*
X14372756Y27395111D01*
X14377212Y27388555D01*
X14377212Y27388554D01*
X14388243Y27372323D01*
X14409989Y27304739D01*
X14391745Y27236127D01*
X14339303Y27188270D01*
X14284031Y27175500D01*
X14057994Y27175500D01*
X13989873Y27195502D01*
X13968899Y27212405D01*
X8885105Y32296200D01*
X8851079Y32358512D01*
X8848200Y32385295D01*
X8848200Y35078100D01*
X8868202Y35146221D01*
X8921858Y35192714D01*
X8974200Y35204100D01*
X9305333Y35204100D01*
X9316516Y35203573D01*
X9324009Y35201898D01*
X9331935Y35202147D01*
X9331936Y35202147D01*
X9392086Y35204038D01*
X9396045Y35204100D01*
X9423956Y35204100D01*
X9427891Y35204597D01*
X9427956Y35204605D01*
X9439793Y35205538D01*
X9472051Y35206552D01*
X9476070Y35206678D01*
X9483989Y35206927D01*
X9494157Y35209881D01*
X9496933Y35209983D01*
X9499428Y35210378D01*
X9499476Y35210076D01*
X9555504Y35212129D01*
X9568813Y35209300D01*
X9759787Y35209300D01*
X9766239Y35210672D01*
X9766244Y35210672D01*
X9853187Y35229153D01*
X9946588Y35249006D01*
X9956940Y35253615D01*
X10115022Y35323997D01*
X10115024Y35323998D01*
X10121052Y35326682D01*
X10275553Y35438934D01*
X10283472Y35447729D01*
X10398921Y35575948D01*
X10398922Y35575949D01*
X10403340Y35580856D01*
X10498827Y35746244D01*
X10557842Y35927872D01*
X10559091Y35939750D01*
X10577114Y36111235D01*
X10577804Y36117800D01*
X10573861Y36155317D01*
X10558532Y36301165D01*
X10558532Y36301167D01*
X10557842Y36307728D01*
X10498827Y36489356D01*
X10488560Y36507140D01*
X10455004Y36565260D01*
X10403340Y36654744D01*
X10390770Y36668705D01*
X10279975Y36791755D01*
X10279974Y36791756D01*
X10275553Y36796666D01*
X10121052Y36908918D01*
X10115024Y36911602D01*
X10115022Y36911603D01*
X9952619Y36983909D01*
X9952618Y36983909D01*
X9946588Y36986594D01*
X9853187Y37006447D01*
X9766244Y37024928D01*
X9766239Y37024928D01*
X9759787Y37026300D01*
X9568813Y37026300D01*
X9562361Y37024928D01*
X9562356Y37024928D01*
X9475412Y37006447D01*
X9382012Y36986594D01*
X9375982Y36983909D01*
X9375981Y36983909D01*
X9213578Y36911603D01*
X9213576Y36911602D01*
X9207548Y36908918D01*
X9053047Y36796666D01*
X9048626Y36791756D01*
X9048625Y36791755D01*
X8937831Y36668705D01*
X8925260Y36654744D01*
X8921959Y36649026D01*
X8909638Y36627687D01*
X8858254Y36578694D01*
X8788540Y36565260D01*
X8726459Y36588753D01*
X8676794Y36624837D01*
X8676793Y36624838D01*
X8671452Y36628718D01*
X8665424Y36631402D01*
X8665422Y36631403D01*
X8503019Y36703709D01*
X8503018Y36703709D01*
X8496988Y36706394D01*
X8403588Y36726247D01*
X8316644Y36744728D01*
X8316639Y36744728D01*
X8310187Y36746100D01*
X8119213Y36746100D01*
X8112761Y36744728D01*
X8112756Y36744728D01*
X8025812Y36726247D01*
X7932412Y36706394D01*
X7926382Y36703709D01*
X7926381Y36703709D01*
X7763978Y36631403D01*
X7763976Y36631402D01*
X7757948Y36628718D01*
X7752607Y36624838D01*
X7752606Y36624837D01*
X7704210Y36589675D01*
X7603447Y36516466D01*
X7599032Y36511563D01*
X7594120Y36507140D01*
X7592995Y36508389D01*
X7539686Y36475549D01*
X7506500Y36471100D01*
X6630400Y36471100D01*
X6562279Y36491102D01*
X6543053Y36507443D01*
X6542780Y36507140D01*
X6537868Y36511563D01*
X6533453Y36516466D01*
X6432690Y36589675D01*
X6384294Y36624837D01*
X6384293Y36624838D01*
X6378952Y36628718D01*
X6372924Y36631402D01*
X6372922Y36631403D01*
X6210519Y36703709D01*
X6210518Y36703709D01*
X6204488Y36706394D01*
X6111088Y36726247D01*
X6024144Y36744728D01*
X6024139Y36744728D01*
X6017687Y36746100D01*
X5826713Y36746100D01*
X5820261Y36744728D01*
X5820256Y36744728D01*
X5733312Y36726247D01*
X5639912Y36706394D01*
X5633882Y36703709D01*
X5633881Y36703709D01*
X5471478Y36631403D01*
X5471476Y36631402D01*
X5465448Y36628718D01*
X5460107Y36624838D01*
X5460106Y36624837D01*
X5411710Y36589675D01*
X5310947Y36516466D01*
X5306532Y36511563D01*
X5301620Y36507140D01*
X5300495Y36508389D01*
X5247186Y36475549D01*
X5214000Y36471100D01*
X4808867Y36471100D01*
X4797684Y36471627D01*
X4790191Y36473302D01*
X4782265Y36473053D01*
X4782264Y36473053D01*
X4722101Y36471162D01*
X4718143Y36471100D01*
X4690244Y36471100D01*
X4686254Y36470596D01*
X4674420Y36469664D01*
X4630211Y36468274D01*
X4622597Y36466062D01*
X4622592Y36466061D01*
X4610759Y36462623D01*
X4591396Y36458612D01*
X4571303Y36456074D01*
X4563936Y36453157D01*
X4563931Y36453156D01*
X4530192Y36439798D01*
X4518965Y36435954D01*
X4476507Y36423618D01*
X4469681Y36419581D01*
X4459072Y36413307D01*
X4441324Y36404612D01*
X4422483Y36397152D01*
X4416067Y36392490D01*
X4416066Y36392490D01*
X4386713Y36371164D01*
X4376793Y36364648D01*
X4345565Y36346180D01*
X4345562Y36346178D01*
X4338738Y36342142D01*
X4324417Y36327821D01*
X4309384Y36314981D01*
X4292993Y36303072D01*
X4287940Y36296964D01*
X4264808Y36269002D01*
X4256818Y36260222D01*
X4204101Y36207505D01*
X4141789Y36173479D01*
X4115006Y36170600D01*
X4059113Y36170600D01*
X4052661Y36169228D01*
X4052656Y36169228D01*
X3965760Y36150757D01*
X3872312Y36130894D01*
X3866282Y36128209D01*
X3866281Y36128209D01*
X3703878Y36055903D01*
X3703876Y36055902D01*
X3697848Y36053218D01*
X3543347Y35940966D01*
X3538926Y35936056D01*
X3538925Y35936055D01*
X3424370Y35808828D01*
X3415560Y35799044D01*
X3357286Y35698110D01*
X3333483Y35656882D01*
X3320073Y35633656D01*
X3261058Y35452028D01*
X3260368Y35445467D01*
X3260368Y35445465D01*
X3247517Y35323194D01*
X3241096Y35262100D01*
X3260369Y35078735D01*
X3260635Y35076200D01*
X3247863Y35006361D01*
X3199361Y34954514D01*
X3161523Y34939783D01*
X3118176Y34930569D01*
X3118167Y34930566D01*
X3111712Y34929194D01*
X3105682Y34926509D01*
X3105681Y34926509D01*
X2943278Y34854203D01*
X2943276Y34854202D01*
X2937248Y34851518D01*
X2931907Y34847638D01*
X2931906Y34847637D01*
X2888599Y34816172D01*
X2782747Y34739266D01*
X2778326Y34734356D01*
X2778325Y34734355D01*
X2737007Y34688466D01*
X2654960Y34597344D01*
X2629498Y34553243D01*
X2566945Y34444897D01*
X2559473Y34431956D01*
X2500458Y34250328D01*
X2499768Y34243767D01*
X2499768Y34243765D01*
X2491030Y34160626D01*
X2480496Y34060400D01*
X1410000Y34060400D01*
X1410000Y38856500D01*
X2898596Y38856500D01*
X2918558Y38666572D01*
X2977573Y38484944D01*
X2980876Y38479222D01*
X2980877Y38479221D01*
X2995868Y38453256D01*
X3073060Y38319556D01*
X3200847Y38177634D01*
X3355348Y38065382D01*
X3361376Y38062698D01*
X3361378Y38062697D01*
X3449693Y38023377D01*
X3529812Y37987706D01*
X3623212Y37967853D01*
X3710156Y37949372D01*
X3710161Y37949372D01*
X3716613Y37948000D01*
X3907587Y37948000D01*
X3914039Y37949372D01*
X3914044Y37949372D01*
X4000987Y37967853D01*
X4094388Y37987706D01*
X4174507Y38023377D01*
X4262822Y38062697D01*
X4262824Y38062698D01*
X4268852Y38065382D01*
X4423353Y38177634D01*
X4551140Y38319556D01*
X4628332Y38453256D01*
X4643323Y38479221D01*
X4643324Y38479222D01*
X4646627Y38484944D01*
X4705642Y38666572D01*
X4708244Y38691330D01*
X4735257Y38756987D01*
X4744459Y38767255D01*
X8626392Y42649187D01*
X12528753Y46551548D01*
X12537039Y46559088D01*
X12543518Y46563200D01*
X12568380Y46589675D01*
X12590143Y46612851D01*
X12592898Y46615693D01*
X12612635Y46635430D01*
X12615115Y46638627D01*
X12622820Y46647649D01*
X12633825Y46659368D01*
X12653086Y46679879D01*
X12656905Y46686825D01*
X12656907Y46686828D01*
X12662848Y46697634D01*
X12673699Y46714153D01*
X12681258Y46723899D01*
X12686114Y46730159D01*
X12689259Y46737428D01*
X12689262Y46737432D01*
X12703674Y46770737D01*
X12708891Y46781387D01*
X12730195Y46820140D01*
X12732253Y46828153D01*
X12734206Y46835762D01*
X12735233Y46839763D01*
X12741637Y46858466D01*
X12746533Y46869780D01*
X12746533Y46869781D01*
X12749681Y46877055D01*
X12750920Y46884878D01*
X12750923Y46884888D01*
X12756599Y46920724D01*
X12759005Y46932344D01*
X12768028Y46967489D01*
X12768028Y46967490D01*
X12770000Y46975170D01*
X12770000Y46995424D01*
X12771551Y47015135D01*
X12773480Y47027314D01*
X12774720Y47035143D01*
X12770559Y47079162D01*
X12770000Y47091019D01*
X12770000Y48520290D01*
X12790002Y48588411D01*
X12843658Y48634904D01*
X12899713Y48644058D01*
X12899713Y48645900D01*
X12957475Y48645900D01*
X13025596Y48625898D01*
X13034702Y48619459D01*
X13035821Y48618591D01*
X13044847Y48610882D01*
X13077079Y48580614D01*
X13084028Y48576794D01*
X13094832Y48570854D01*
X13111356Y48560001D01*
X13127359Y48547587D01*
X13167943Y48530024D01*
X13178573Y48524817D01*
X13217340Y48503505D01*
X13225017Y48501534D01*
X13225022Y48501532D01*
X13236958Y48498468D01*
X13255666Y48492063D01*
X13274255Y48484019D01*
X13282080Y48482780D01*
X13282082Y48482779D01*
X13317919Y48477103D01*
X13329540Y48474696D01*
X13364689Y48465672D01*
X13372370Y48463700D01*
X13392631Y48463700D01*
X13412340Y48462149D01*
X13432343Y48458981D01*
X13440235Y48459727D01*
X13445462Y48460221D01*
X13476354Y48463141D01*
X13488211Y48463700D01*
X16903696Y48463700D01*
X16971817Y48443698D01*
X17018310Y48390042D01*
X17026163Y48361281D01*
X17027194Y48361500D01*
X17028568Y48355035D01*
X17029258Y48348472D01*
X17031298Y48342195D01*
X17031298Y48342193D01*
X17061659Y48248752D01*
X17088273Y48166844D01*
X17183760Y48001456D01*
X17188179Y47996548D01*
X17192061Y47991205D01*
X17190574Y47990125D01*
X17217423Y47934174D01*
X17208657Y47863721D01*
X17202189Y47850875D01*
X17139073Y47741556D01*
X17080058Y47559928D01*
X17060096Y47370000D01*
X17060786Y47363435D01*
X17076461Y47214300D01*
X17080058Y47180072D01*
X17139073Y46998444D01*
X17142376Y46992722D01*
X17142377Y46992721D01*
X17183945Y46920724D01*
X17232998Y46835762D01*
X17234560Y46833056D01*
X17234065Y46832770D01*
X17256420Y46770106D01*
X17240336Y46700956D01*
X17219721Y46673825D01*
X17027837Y46481942D01*
X16854699Y46308804D01*
X16792387Y46274779D01*
X16765604Y46271900D01*
X16709713Y46271900D01*
X16703261Y46270528D01*
X16703256Y46270528D01*
X16632200Y46255424D01*
X16522912Y46232194D01*
X16516882Y46229509D01*
X16516881Y46229509D01*
X16354478Y46157203D01*
X16354476Y46157202D01*
X16348448Y46154518D01*
X16193947Y46042266D01*
X16189526Y46037356D01*
X16189525Y46037355D01*
X16091531Y45928521D01*
X16066160Y45900344D01*
X16062859Y45894626D01*
X15993547Y45774574D01*
X15970673Y45734956D01*
X15911658Y45553328D01*
X15910968Y45546767D01*
X15910968Y45546765D01*
X15907401Y45512827D01*
X15891696Y45363400D01*
X15892386Y45356835D01*
X15909798Y45191173D01*
X15911658Y45173472D01*
X15970673Y44991844D01*
X15973976Y44986122D01*
X15973977Y44986121D01*
X15991802Y44955248D01*
X16066160Y44826456D01*
X16193947Y44684534D01*
X16348448Y44572282D01*
X16354476Y44569598D01*
X16354478Y44569597D01*
X16401452Y44548683D01*
X16522912Y44494606D01*
X16616313Y44474753D01*
X16703256Y44456272D01*
X16703261Y44456272D01*
X16709713Y44454900D01*
X16900687Y44454900D01*
X16907139Y44456272D01*
X16907144Y44456272D01*
X16994087Y44474753D01*
X17087488Y44494606D01*
X17208948Y44548683D01*
X17255922Y44569597D01*
X17255924Y44569598D01*
X17261952Y44572282D01*
X17416453Y44684534D01*
X17544240Y44826456D01*
X17618598Y44955248D01*
X17636423Y44986121D01*
X17636424Y44986122D01*
X17639727Y44991844D01*
X17698742Y45173472D01*
X17700603Y45191173D01*
X17716107Y45338692D01*
X17743120Y45404349D01*
X17752322Y45414618D01*
X18365858Y46028153D01*
X18374137Y46035687D01*
X18380618Y46039800D01*
X18427244Y46089452D01*
X18429998Y46092293D01*
X18449735Y46112030D01*
X18452215Y46115227D01*
X18459920Y46124249D01*
X18484759Y46150700D01*
X18490186Y46156479D01*
X18494005Y46163425D01*
X18494007Y46163428D01*
X18499948Y46174234D01*
X18510799Y46190753D01*
X18518358Y46200499D01*
X18523214Y46206759D01*
X18526359Y46214028D01*
X18526362Y46214032D01*
X18540774Y46247337D01*
X18545991Y46257987D01*
X18567295Y46296740D01*
X18572333Y46316363D01*
X18578737Y46335066D01*
X18583633Y46346380D01*
X18583633Y46346381D01*
X18586781Y46353655D01*
X18588020Y46361478D01*
X18588023Y46361488D01*
X18593699Y46397324D01*
X18596105Y46408944D01*
X18605128Y46444089D01*
X18605128Y46444090D01*
X18607100Y46451770D01*
X18607100Y46472024D01*
X18608651Y46491735D01*
X18608939Y46493550D01*
X18611820Y46511743D01*
X18607659Y46555762D01*
X18607100Y46567619D01*
X18607100Y46667476D01*
X18627102Y46735597D01*
X18639458Y46751779D01*
X18712640Y46833056D01*
X18797227Y46979565D01*
X18804823Y46992721D01*
X18804824Y46992722D01*
X18808127Y46998444D01*
X18867142Y47180072D01*
X18870740Y47214300D01*
X18886414Y47363435D01*
X18887104Y47370000D01*
X18867142Y47559928D01*
X18808127Y47741556D01*
X18786755Y47778574D01*
X18715944Y47901222D01*
X18715942Y47901225D01*
X18712640Y47906944D01*
X18708221Y47911852D01*
X18704339Y47917195D01*
X18705826Y47918275D01*
X18678977Y47974226D01*
X18687743Y48044679D01*
X18694212Y48057526D01*
X18754023Y48161121D01*
X18754024Y48161122D01*
X18757327Y48166844D01*
X18803777Y48309800D01*
X47590896Y48309800D01*
X47591586Y48303235D01*
X47606523Y48161121D01*
X47610858Y48119872D01*
X47669873Y47938244D01*
X47765360Y47772856D01*
X47769778Y47767949D01*
X47769779Y47767948D01*
X47888725Y47635845D01*
X47893147Y47630934D01*
X48047648Y47518682D01*
X48053676Y47515998D01*
X48053678Y47515997D01*
X48216081Y47443691D01*
X48222112Y47441006D01*
X48315513Y47421153D01*
X48402456Y47402672D01*
X48402461Y47402672D01*
X48408913Y47401300D01*
X48466501Y47401300D01*
X48534622Y47381298D01*
X48543730Y47374857D01*
X48545625Y47373387D01*
X48554647Y47365682D01*
X48586879Y47335414D01*
X48593825Y47331595D01*
X48593828Y47331593D01*
X48604634Y47325652D01*
X48621153Y47314801D01*
X48637159Y47302386D01*
X48644428Y47299241D01*
X48644432Y47299238D01*
X48677737Y47284826D01*
X48688387Y47279609D01*
X48727140Y47258305D01*
X48734815Y47256334D01*
X48734816Y47256334D01*
X48746762Y47253267D01*
X48765467Y47246863D01*
X48784055Y47238819D01*
X48791878Y47237580D01*
X48791888Y47237577D01*
X48827724Y47231901D01*
X48839344Y47229495D01*
X48874489Y47220472D01*
X48882170Y47218500D01*
X48902424Y47218500D01*
X48922134Y47216949D01*
X48942143Y47213780D01*
X48950035Y47214526D01*
X48986161Y47217941D01*
X48998019Y47218500D01*
X50380404Y47218500D01*
X50448525Y47198498D01*
X50488122Y47157867D01*
X50554377Y47048683D01*
X50557874Y47044653D01*
X50696511Y46884888D01*
X50705477Y46874555D01*
X50709608Y46871168D01*
X50879627Y46731760D01*
X50879633Y46731756D01*
X50883755Y46728376D01*
X50915250Y46710448D01*
X50964555Y46659368D01*
X50978417Y46589738D01*
X50952434Y46523667D01*
X50923284Y46496427D01*
X50801681Y46414559D01*
X50634865Y46255424D01*
X50497246Y46070458D01*
X50494830Y46065707D01*
X50494828Y46065703D01*
X50475737Y46028153D01*
X50392760Y45864949D01*
X50391178Y45859855D01*
X50391177Y45859852D01*
X50352396Y45734956D01*
X50324393Y45644773D01*
X50323692Y45639484D01*
X50299372Y45455987D01*
X50294102Y45416226D01*
X50302751Y45185842D01*
X50350093Y44960209D01*
X50352051Y44955250D01*
X50352052Y44955248D01*
X50392782Y44852115D01*
X50434776Y44745779D01*
X50554377Y44548683D01*
X50557874Y44544653D01*
X50644438Y44444897D01*
X50705477Y44374555D01*
X50709608Y44371168D01*
X50879627Y44231760D01*
X50879633Y44231756D01*
X50883755Y44228376D01*
X50888398Y44225733D01*
X50915735Y44210171D01*
X50965041Y44159088D01*
X50978902Y44089458D01*
X50952918Y44023387D01*
X50923768Y43996149D01*
X50806422Y43917148D01*
X50798130Y43910481D01*
X50639100Y43758772D01*
X50632059Y43750814D01*
X50500859Y43574475D01*
X50495255Y43565438D01*
X50395643Y43369516D01*
X50391643Y43359665D01*
X50326466Y43149760D01*
X50324183Y43139376D01*
X50322139Y43123957D01*
X50324335Y43109793D01*
X50337522Y43106000D01*
X53222192Y43106000D01*
X53235723Y43109973D01*
X53237248Y43120580D01*
X53212523Y43238421D01*
X53209463Y43248617D01*
X53128737Y43453029D01*
X53124006Y43462561D01*
X53009984Y43650462D01*
X53003720Y43659052D01*
X52859673Y43825052D01*
X52852042Y43832472D01*
X52682089Y43971826D01*
X52673326Y43977848D01*
X52646289Y43993238D01*
X52596982Y44044320D01*
X52583120Y44113951D01*
X52609103Y44180022D01*
X52638253Y44207261D01*
X52691532Y44243131D01*
X52760319Y44289441D01*
X52768447Y44297194D01*
X52923278Y44444897D01*
X52927135Y44448576D01*
X53064754Y44633542D01*
X53085993Y44675315D01*
X53162836Y44826456D01*
X53169240Y44839051D01*
X53175335Y44858678D01*
X53236024Y45054129D01*
X53237607Y45059227D01*
X53253619Y45180035D01*
X53267198Y45282489D01*
X53267198Y45282494D01*
X53267898Y45287774D01*
X53265987Y45338692D01*
X53261437Y45459868D01*
X53259249Y45518158D01*
X53211907Y45743791D01*
X53203944Y45763954D01*
X53129185Y45953256D01*
X53129184Y45953258D01*
X53127224Y45958221D01*
X53007623Y46155317D01*
X52939722Y46233566D01*
X52860023Y46325412D01*
X52860021Y46325414D01*
X52856523Y46329445D01*
X52759567Y46408944D01*
X52682373Y46472240D01*
X52682367Y46472244D01*
X52678245Y46475624D01*
X52646750Y46493552D01*
X52597445Y46544632D01*
X52583583Y46614262D01*
X52609566Y46680333D01*
X52638716Y46707573D01*
X52674642Y46731760D01*
X52760319Y46789441D01*
X52805740Y46832770D01*
X52860373Y46884888D01*
X52927135Y46948576D01*
X53064754Y47133542D01*
X53086324Y47175966D01*
X53117648Y47237577D01*
X53169240Y47339051D01*
X53176812Y47363435D01*
X53236024Y47554129D01*
X53237607Y47559227D01*
X53247762Y47635845D01*
X53267198Y47782489D01*
X53267198Y47782494D01*
X53267898Y47787774D01*
X53259249Y48018158D01*
X53211907Y48243791D01*
X53170566Y48348472D01*
X53129185Y48453256D01*
X53129184Y48453258D01*
X53127224Y48458221D01*
X53124239Y48463141D01*
X53010390Y48650757D01*
X53007623Y48655317D01*
X52985028Y48681356D01*
X52860023Y48825412D01*
X52860021Y48825414D01*
X52856523Y48829445D01*
X52758333Y48909956D01*
X52682373Y48972240D01*
X52682367Y48972244D01*
X52678245Y48975624D01*
X52673609Y48978263D01*
X52673606Y48978265D01*
X52482529Y49087032D01*
X52477886Y49089675D01*
X52261175Y49168337D01*
X52255926Y49169286D01*
X52255923Y49169287D01*
X52038392Y49208623D01*
X52038385Y49208624D01*
X52034308Y49209361D01*
X52016586Y49210197D01*
X52011644Y49210430D01*
X52011637Y49210430D01*
X52010156Y49210500D01*
X51598110Y49210500D01*
X51531191Y49204822D01*
X51431591Y49196371D01*
X51431587Y49196370D01*
X51426280Y49195920D01*
X51421125Y49194582D01*
X51421119Y49194581D01*
X51208297Y49139343D01*
X51208293Y49139342D01*
X51203128Y49138001D01*
X51198262Y49135809D01*
X51198259Y49135808D01*
X51089980Y49087032D01*
X50992925Y49043312D01*
X50801681Y48914559D01*
X50634865Y48755424D01*
X50497246Y48570458D01*
X50494830Y48565706D01*
X50494825Y48565698D01*
X50489078Y48554394D01*
X50440375Y48502737D01*
X50376762Y48485500D01*
X49494109Y48485500D01*
X49425988Y48505502D01*
X49379495Y48559158D01*
X49374276Y48572564D01*
X49358517Y48621066D01*
X49338927Y48681356D01*
X49243440Y48846744D01*
X49115653Y48988666D01*
X49004222Y49069626D01*
X48966494Y49097037D01*
X48966493Y49097038D01*
X48961152Y49100918D01*
X48955124Y49103602D01*
X48955122Y49103603D01*
X48792719Y49175909D01*
X48792718Y49175909D01*
X48786688Y49178594D01*
X48693288Y49198447D01*
X48606344Y49216928D01*
X48606339Y49216928D01*
X48599887Y49218300D01*
X48408913Y49218300D01*
X48402461Y49216928D01*
X48402456Y49216928D01*
X48315513Y49198447D01*
X48222112Y49178594D01*
X48216082Y49175909D01*
X48216081Y49175909D01*
X48053678Y49103603D01*
X48053676Y49103602D01*
X48047648Y49100918D01*
X48042307Y49097038D01*
X48042306Y49097037D01*
X48004578Y49069626D01*
X47893147Y48988666D01*
X47765360Y48846744D01*
X47669873Y48681356D01*
X47610858Y48499728D01*
X47610168Y48493167D01*
X47610168Y48493165D01*
X47604969Y48443698D01*
X47590896Y48309800D01*
X18803777Y48309800D01*
X18816342Y48348472D01*
X18828357Y48462783D01*
X18835614Y48531835D01*
X18836304Y48538400D01*
X18827876Y48618591D01*
X18817032Y48721765D01*
X18817032Y48721767D01*
X18816342Y48728328D01*
X18757327Y48909956D01*
X18661840Y49075344D01*
X18605424Y49138001D01*
X18538475Y49212355D01*
X18538474Y49212356D01*
X18534053Y49217266D01*
X18379552Y49329518D01*
X18373524Y49332202D01*
X18373522Y49332203D01*
X18211119Y49404509D01*
X18211118Y49404509D01*
X18205088Y49407194D01*
X18111687Y49427047D01*
X18024744Y49445528D01*
X18024739Y49445528D01*
X18018287Y49446900D01*
X17962395Y49446900D01*
X17894274Y49466902D01*
X17873300Y49483805D01*
X17867652Y49489453D01*
X17860112Y49497739D01*
X17856000Y49504218D01*
X17806348Y49550844D01*
X17803507Y49553598D01*
X17783770Y49573335D01*
X17780573Y49575815D01*
X17771551Y49583520D01*
X17745100Y49608359D01*
X17739321Y49613786D01*
X17732375Y49617605D01*
X17732372Y49617607D01*
X17721566Y49623548D01*
X17705047Y49634399D01*
X17704583Y49634759D01*
X17689041Y49646814D01*
X17681772Y49649959D01*
X17681768Y49649962D01*
X17648463Y49664374D01*
X17637813Y49669591D01*
X17599060Y49690895D01*
X17579437Y49695933D01*
X17560734Y49702337D01*
X17549420Y49707233D01*
X17549419Y49707233D01*
X17542145Y49710381D01*
X17534322Y49711620D01*
X17534312Y49711623D01*
X17498476Y49717299D01*
X17486856Y49719705D01*
X17451711Y49728728D01*
X17451710Y49728728D01*
X17444030Y49730700D01*
X17423776Y49730700D01*
X17404065Y49732251D01*
X17391886Y49734180D01*
X17384057Y49735420D01*
X17376165Y49734674D01*
X17340039Y49731259D01*
X17328181Y49730700D01*
X13984714Y49730700D01*
X13916593Y49750702D01*
X13870100Y49804358D01*
X13864881Y49817764D01*
X13831769Y49919671D01*
X13829727Y49925956D01*
X13734240Y50091344D01*
X13697035Y50132665D01*
X13610875Y50228355D01*
X13610874Y50228356D01*
X13606453Y50233266D01*
X13507357Y50305264D01*
X13457294Y50341637D01*
X13457293Y50341638D01*
X13451952Y50345518D01*
X13445924Y50348202D01*
X13445922Y50348203D01*
X13283519Y50420509D01*
X13283518Y50420509D01*
X13277488Y50423194D01*
X13184087Y50443047D01*
X13097144Y50461528D01*
X13097139Y50461528D01*
X13090687Y50462900D01*
X12899713Y50462900D01*
X12899713Y50464107D01*
X12836478Y50475669D01*
X12784629Y50524169D01*
X12771364Y50569864D01*
X12768663Y50569436D01*
X12767422Y50577270D01*
X12767173Y50585190D01*
X12761522Y50604642D01*
X12757514Y50623994D01*
X12755967Y50636237D01*
X12754974Y50644097D01*
X12752056Y50651468D01*
X12738700Y50685203D01*
X12734855Y50696430D01*
X12728578Y50718035D01*
X12722518Y50738893D01*
X12718484Y50745715D01*
X12718481Y50745721D01*
X12712206Y50756332D01*
X12703510Y50774082D01*
X12698972Y50785544D01*
X12698969Y50785549D01*
X12696052Y50792917D01*
X12670073Y50828675D01*
X12663557Y50838593D01*
X12645075Y50869843D01*
X12641042Y50876663D01*
X12626718Y50890987D01*
X12613876Y50906022D01*
X12601972Y50922407D01*
X12567906Y50950589D01*
X12559127Y50958578D01*
X11643922Y51873783D01*
X11609896Y51936095D01*
X11607707Y51949708D01*
X11591032Y52108365D01*
X11591032Y52108367D01*
X11590342Y52114928D01*
X11531327Y52296556D01*
X11527390Y52303376D01*
X11439141Y52456226D01*
X11435840Y52461944D01*
X11413579Y52486668D01*
X11312475Y52598955D01*
X11312474Y52598956D01*
X11308053Y52603866D01*
X11153552Y52716118D01*
X11147524Y52718802D01*
X11147522Y52718803D01*
X10985119Y52791109D01*
X10985118Y52791109D01*
X10979088Y52793794D01*
X10885688Y52813647D01*
X10798744Y52832128D01*
X10798739Y52832128D01*
X10792287Y52833500D01*
X10601313Y52833500D01*
X10594861Y52832128D01*
X10594856Y52832128D01*
X10507913Y52813647D01*
X10414512Y52793794D01*
X10408482Y52791109D01*
X10408481Y52791109D01*
X10246078Y52718803D01*
X10246076Y52718802D01*
X10240048Y52716118D01*
X10085547Y52603866D01*
X10081126Y52598956D01*
X10081125Y52598955D01*
X9980022Y52486668D01*
X9957760Y52461944D01*
X9954459Y52456226D01*
X9866211Y52303376D01*
X9862273Y52296556D01*
X9803258Y52114928D01*
X9783296Y51925000D01*
X9803258Y51735072D01*
X9862273Y51553444D01*
X9957760Y51388056D01*
X10085547Y51246134D01*
X10240048Y51133882D01*
X10246076Y51131198D01*
X10246078Y51131197D01*
X10395378Y51064725D01*
X10414512Y51056206D01*
X10474849Y51043381D01*
X10594856Y51017872D01*
X10594861Y51017872D01*
X10601313Y51016500D01*
X10657206Y51016500D01*
X10725327Y50996498D01*
X10746301Y50979595D01*
X11466095Y50259801D01*
X11500121Y50197489D01*
X11503000Y50170706D01*
X11503000Y47369794D01*
X11482998Y47301673D01*
X11466095Y47280699D01*
X11160177Y46974781D01*
X11097865Y46940755D01*
X11027050Y46945820D01*
X10982741Y46975963D01*
X10982180Y46975340D01*
X10977616Y46979449D01*
X10977446Y46979565D01*
X10977268Y46979763D01*
X10977266Y46979764D01*
X10972853Y46984666D01*
X10878465Y47053243D01*
X10823694Y47093037D01*
X10823693Y47093038D01*
X10818352Y47096918D01*
X10812324Y47099602D01*
X10812322Y47099603D01*
X10649919Y47171909D01*
X10649918Y47171909D01*
X10643888Y47174594D01*
X10550488Y47194447D01*
X10463544Y47212928D01*
X10463539Y47212928D01*
X10457087Y47214300D01*
X10401194Y47214300D01*
X10333073Y47234302D01*
X10312099Y47251205D01*
X7488422Y50074883D01*
X7454396Y50137195D01*
X7452207Y50150808D01*
X7435532Y50309465D01*
X7435532Y50309467D01*
X7434842Y50316028D01*
X7375827Y50497656D01*
X7280340Y50663044D01*
X7207163Y50744315D01*
X7176447Y50808321D01*
X7174800Y50828624D01*
X7174800Y51854306D01*
X7194802Y51922427D01*
X7211705Y51943401D01*
X8385000Y53116695D01*
X8447312Y53150721D01*
X8474095Y53153600D01*
X8529987Y53153600D01*
X8536439Y53154972D01*
X8536444Y53154972D01*
X8623388Y53173453D01*
X8716788Y53193306D01*
X8722819Y53195991D01*
X8885222Y53268297D01*
X8885224Y53268298D01*
X8891252Y53270982D01*
X9045753Y53383234D01*
X9173540Y53525156D01*
X9269027Y53690544D01*
X9328042Y53872172D01*
X9348004Y54062100D01*
X9328042Y54252028D01*
X9269027Y54433656D01*
X9173540Y54599044D01*
X9045753Y54740966D01*
X8891252Y54853218D01*
X8885224Y54855902D01*
X8885222Y54855903D01*
X8722819Y54928209D01*
X8722818Y54928209D01*
X8716788Y54930894D01*
X8623388Y54950747D01*
X8536444Y54969228D01*
X8536439Y54969228D01*
X8529987Y54970600D01*
X8339013Y54970600D01*
X8332561Y54969228D01*
X8332556Y54969228D01*
X8245612Y54950747D01*
X8152212Y54930894D01*
X8146182Y54928209D01*
X8146181Y54928209D01*
X7983778Y54855903D01*
X7983776Y54855902D01*
X7977748Y54853218D01*
X7823247Y54740966D01*
X7695460Y54599044D01*
X7599973Y54433656D01*
X7540958Y54252028D01*
X7540268Y54245467D01*
X7540268Y54245465D01*
X7523593Y54086807D01*
X7496580Y54021150D01*
X7487378Y54010882D01*
X6149047Y52672552D01*
X6140761Y52665012D01*
X6134282Y52660900D01*
X6128857Y52655123D01*
X6087657Y52611249D01*
X6084902Y52608407D01*
X6065165Y52588670D01*
X6062685Y52585473D01*
X6054982Y52576453D01*
X6024714Y52544221D01*
X6020895Y52537275D01*
X6020893Y52537272D01*
X6014952Y52526466D01*
X6004101Y52509947D01*
X5991686Y52493941D01*
X5988541Y52486672D01*
X5988538Y52486668D01*
X5974126Y52453363D01*
X5968909Y52442713D01*
X5947605Y52403960D01*
X5945634Y52396285D01*
X5945634Y52396284D01*
X5942567Y52384338D01*
X5936163Y52365634D01*
X5928119Y52347045D01*
X5926880Y52339222D01*
X5926877Y52339212D01*
X5921201Y52303376D01*
X5918795Y52291756D01*
X5907800Y52248930D01*
X5907800Y52228676D01*
X5906249Y52208966D01*
X5903080Y52188957D01*
X5903826Y52181065D01*
X5907241Y52144939D01*
X5907800Y52133081D01*
X5907800Y50828624D01*
X5887798Y50760503D01*
X5875442Y50744321D01*
X5802260Y50663044D01*
X5706773Y50497656D01*
X5647758Y50316028D01*
X5647068Y50309467D01*
X5647068Y50309465D01*
X5635299Y50197489D01*
X5627796Y50126100D01*
X5628486Y50119535D01*
X5634441Y50062881D01*
X5647758Y49936172D01*
X5706773Y49754544D01*
X5710076Y49748822D01*
X5710077Y49748821D01*
X5732271Y49710381D01*
X5802260Y49589156D01*
X5806678Y49584249D01*
X5806679Y49584248D01*
X5835550Y49552184D01*
X5930047Y49447234D01*
X6084548Y49334982D01*
X6090576Y49332298D01*
X6090578Y49332297D01*
X6096820Y49329518D01*
X6259012Y49257306D01*
X6352413Y49237453D01*
X6439356Y49218972D01*
X6439361Y49218972D01*
X6445813Y49217600D01*
X6501706Y49217600D01*
X6569827Y49197598D01*
X6590801Y49180695D01*
X9414478Y46357017D01*
X9448504Y46294705D01*
X9450693Y46281094D01*
X9451659Y46271900D01*
X9467178Y46124249D01*
X9468058Y46115872D01*
X9527073Y45934244D01*
X9530376Y45928522D01*
X9530377Y45928521D01*
X9564286Y45869790D01*
X9622560Y45768856D01*
X9699709Y45683174D01*
X9730425Y45619167D01*
X9721660Y45548714D01*
X9695166Y45509770D01*
X6834582Y42649187D01*
X3987300Y39801905D01*
X3924988Y39767879D01*
X3898205Y39765000D01*
X3716613Y39765000D01*
X3710161Y39763628D01*
X3710156Y39763628D01*
X3623212Y39745147D01*
X3529812Y39725294D01*
X3523782Y39722609D01*
X3523781Y39722609D01*
X3361378Y39650303D01*
X3361376Y39650302D01*
X3355348Y39647618D01*
X3350007Y39643738D01*
X3350006Y39643737D01*
X3308489Y39613573D01*
X3200847Y39535366D01*
X3196426Y39530456D01*
X3196425Y39530455D01*
X3094626Y39417395D01*
X3073060Y39393444D01*
X3045360Y39345466D01*
X2986490Y39243500D01*
X2977573Y39228056D01*
X2918558Y39046428D01*
X2917868Y39039867D01*
X2917868Y39039865D01*
X2908864Y38954195D01*
X2898596Y38856500D01*
X1410000Y38856500D01*
X1410000Y55525925D01*
X4086325Y55525925D01*
X4146323Y55362855D01*
X4151897Y55351427D01*
X4250399Y55192560D01*
X4258149Y55182496D01*
X4386586Y55046678D01*
X4396206Y55038375D01*
X4549331Y54931155D01*
X4560420Y54924958D01*
X4731982Y54850716D01*
X4744085Y54846877D01*
X4914864Y54811199D01*
X4928925Y54812322D01*
X4932600Y54822429D01*
X4932600Y54830610D01*
X5440600Y54830610D01*
X5444816Y54816250D01*
X5457295Y54814191D01*
X5528931Y54821467D01*
X5541370Y54824021D01*
X5719743Y54879920D01*
X5731431Y54884929D01*
X5894920Y54975553D01*
X5905353Y54982804D01*
X6047288Y55104456D01*
X6056041Y55113647D01*
X6170621Y55261364D01*
X6177345Y55272124D01*
X6259881Y55439860D01*
X6264309Y55451767D01*
X6281683Y55518469D01*
X6281453Y55525925D01*
X9086325Y55525925D01*
X9146323Y55362855D01*
X9151897Y55351427D01*
X9250399Y55192560D01*
X9258149Y55182496D01*
X9386586Y55046678D01*
X9396206Y55038375D01*
X9549331Y54931155D01*
X9560420Y54924958D01*
X9731982Y54850716D01*
X9744085Y54846877D01*
X9914864Y54811199D01*
X9928925Y54812322D01*
X9932600Y54822429D01*
X9932600Y54830610D01*
X10440600Y54830610D01*
X10444816Y54816250D01*
X10457295Y54814191D01*
X10528931Y54821467D01*
X10541370Y54824021D01*
X10719743Y54879920D01*
X10731431Y54884929D01*
X10894920Y54975553D01*
X10905353Y54982804D01*
X11047288Y55104456D01*
X11056041Y55113647D01*
X11170621Y55261364D01*
X11177345Y55272124D01*
X11259881Y55439860D01*
X11264309Y55451767D01*
X11281683Y55518469D01*
X11281249Y55532564D01*
X11273068Y55536000D01*
X10458715Y55536000D01*
X10443476Y55531525D01*
X10442271Y55530135D01*
X10440600Y55522452D01*
X10440600Y54830610D01*
X9932600Y54830610D01*
X9932600Y55517885D01*
X9928125Y55533124D01*
X9926735Y55534329D01*
X9919052Y55536000D01*
X9100733Y55536000D01*
X9087202Y55532027D01*
X9086325Y55525925D01*
X6281453Y55525925D01*
X6281249Y55532564D01*
X6273068Y55536000D01*
X5458715Y55536000D01*
X5443476Y55531525D01*
X5442271Y55530135D01*
X5440600Y55522452D01*
X5440600Y54830610D01*
X4932600Y54830610D01*
X4932600Y55517885D01*
X4928125Y55533124D01*
X4926735Y55534329D01*
X4919052Y55536000D01*
X4100733Y55536000D01*
X4087202Y55532027D01*
X4086325Y55525925D01*
X1410000Y55525925D01*
X1410000Y56061531D01*
X4091517Y56061531D01*
X4091951Y56047436D01*
X4100132Y56044000D01*
X4914485Y56044000D01*
X4929724Y56048475D01*
X4930929Y56049865D01*
X4932600Y56057548D01*
X4932600Y56062115D01*
X5440600Y56062115D01*
X5445075Y56046876D01*
X5446465Y56045671D01*
X5454148Y56044000D01*
X6272467Y56044000D01*
X6285998Y56047973D01*
X6286875Y56054075D01*
X6284132Y56061531D01*
X9091517Y56061531D01*
X9091951Y56047436D01*
X9100132Y56044000D01*
X9914485Y56044000D01*
X9929724Y56048475D01*
X9930929Y56049865D01*
X9932600Y56057548D01*
X9932600Y56062115D01*
X10440600Y56062115D01*
X10445075Y56046876D01*
X10446465Y56045671D01*
X10454148Y56044000D01*
X11272467Y56044000D01*
X11285998Y56047973D01*
X11286875Y56054075D01*
X11226877Y56217145D01*
X11221303Y56228573D01*
X11122801Y56387440D01*
X11115051Y56397504D01*
X10986614Y56533322D01*
X10976994Y56541625D01*
X10823869Y56648845D01*
X10812780Y56655042D01*
X10641218Y56729284D01*
X10629115Y56733123D01*
X10458336Y56768801D01*
X10444275Y56767678D01*
X10440600Y56757571D01*
X10440600Y56062115D01*
X9932600Y56062115D01*
X9932600Y56749390D01*
X9928384Y56763750D01*
X9915905Y56765809D01*
X9844269Y56758533D01*
X9831830Y56755979D01*
X9653457Y56700080D01*
X9641769Y56695071D01*
X9478280Y56604447D01*
X9467847Y56597196D01*
X9325912Y56475544D01*
X9317159Y56466353D01*
X9202579Y56318636D01*
X9195855Y56307876D01*
X9113319Y56140140D01*
X9108891Y56128233D01*
X9091517Y56061531D01*
X6284132Y56061531D01*
X6226877Y56217145D01*
X6221303Y56228573D01*
X6122801Y56387440D01*
X6115051Y56397504D01*
X5986614Y56533322D01*
X5976994Y56541625D01*
X5823869Y56648845D01*
X5812780Y56655042D01*
X5641218Y56729284D01*
X5629115Y56733123D01*
X5458336Y56768801D01*
X5444275Y56767678D01*
X5440600Y56757571D01*
X5440600Y56062115D01*
X4932600Y56062115D01*
X4932600Y56749390D01*
X4928384Y56763750D01*
X4915905Y56765809D01*
X4844269Y56758533D01*
X4831830Y56755979D01*
X4653457Y56700080D01*
X4641769Y56695071D01*
X4478280Y56604447D01*
X4467847Y56597196D01*
X4325912Y56475544D01*
X4317159Y56466353D01*
X4202579Y56318636D01*
X4195855Y56307876D01*
X4113319Y56140140D01*
X4108891Y56128233D01*
X4091517Y56061531D01*
X1410000Y56061531D01*
X1410000Y58168343D01*
X3178600Y58168343D01*
X3178901Y58162195D01*
X3192412Y58024397D01*
X3194795Y58012362D01*
X3248367Y57834924D01*
X3253041Y57823584D01*
X3340060Y57659923D01*
X3346849Y57649706D01*
X3463997Y57506067D01*
X3472641Y57497363D01*
X3615456Y57379216D01*
X3625627Y57372356D01*
X3788676Y57284196D01*
X3799981Y57279444D01*
X3915292Y57243750D01*
X3929395Y57243544D01*
X3932600Y57250299D01*
X3932600Y57257076D01*
X4440600Y57257076D01*
X4444573Y57243545D01*
X4452368Y57242425D01*
X4560121Y57274138D01*
X4571489Y57278731D01*
X4735754Y57364607D01*
X4746015Y57371321D01*
X4890473Y57487468D01*
X4899232Y57496046D01*
X5018378Y57638039D01*
X5025308Y57648159D01*
X5114602Y57810585D01*
X5119434Y57821858D01*
X5175480Y57998538D01*
X5178030Y58010532D01*
X5194207Y58154761D01*
X5194600Y58161785D01*
X5194600Y58168343D01*
X10178600Y58168343D01*
X10178901Y58162195D01*
X10192412Y58024397D01*
X10194795Y58012362D01*
X10248367Y57834924D01*
X10253041Y57823584D01*
X10340060Y57659923D01*
X10346849Y57649706D01*
X10463997Y57506067D01*
X10472641Y57497363D01*
X10615456Y57379216D01*
X10625627Y57372356D01*
X10788676Y57284196D01*
X10799981Y57279444D01*
X10915292Y57243750D01*
X10929395Y57243544D01*
X10932600Y57250299D01*
X10932600Y57257076D01*
X11440600Y57257076D01*
X11444573Y57243545D01*
X11452368Y57242425D01*
X11560121Y57274138D01*
X11571489Y57278731D01*
X11735754Y57364607D01*
X11746015Y57371321D01*
X11890473Y57487468D01*
X11899232Y57496046D01*
X12018378Y57638039D01*
X12025308Y57648159D01*
X12114602Y57810585D01*
X12119434Y57821858D01*
X12175480Y57998538D01*
X12178030Y58010532D01*
X12194207Y58154761D01*
X12194600Y58161785D01*
X12194600Y58217885D01*
X12190125Y58233124D01*
X12188735Y58234329D01*
X12181052Y58236000D01*
X11458715Y58236000D01*
X11443476Y58231525D01*
X11442271Y58230135D01*
X11440600Y58222452D01*
X11440600Y57257076D01*
X10932600Y57257076D01*
X10932600Y58217885D01*
X10928125Y58233124D01*
X10926735Y58234329D01*
X10919052Y58236000D01*
X10196715Y58236000D01*
X10181476Y58231525D01*
X10180271Y58230135D01*
X10178600Y58222452D01*
X10178600Y58168343D01*
X5194600Y58168343D01*
X5194600Y58217885D01*
X5190125Y58233124D01*
X5188735Y58234329D01*
X5181052Y58236000D01*
X4458715Y58236000D01*
X4443476Y58231525D01*
X4442271Y58230135D01*
X4440600Y58222452D01*
X4440600Y57257076D01*
X3932600Y57257076D01*
X3932600Y58217885D01*
X3928125Y58233124D01*
X3926735Y58234329D01*
X3919052Y58236000D01*
X3196715Y58236000D01*
X3181476Y58231525D01*
X3180271Y58230135D01*
X3178600Y58222452D01*
X3178600Y58168343D01*
X1410000Y58168343D01*
X1410000Y59689951D01*
X1430002Y59758072D01*
X1483658Y59804565D01*
X1536081Y59815951D01*
X3525679Y59814677D01*
G37*
%TD.AperFunction*%
%TA.AperFunction,Conductor*%
G36*
X38825027Y37699498D02*
G01*
X38843158Y37685351D01*
X38846389Y37682317D01*
X38849206Y37679585D01*
X38868925Y37659866D01*
X38872120Y37657388D01*
X38881142Y37649682D01*
X38913374Y37619414D01*
X38920323Y37615594D01*
X38931127Y37609654D01*
X38947651Y37598801D01*
X38963654Y37586387D01*
X39004238Y37568824D01*
X39014868Y37563617D01*
X39053635Y37542305D01*
X39061312Y37540334D01*
X39061317Y37540332D01*
X39073253Y37537268D01*
X39091961Y37530863D01*
X39110550Y37522819D01*
X39118375Y37521580D01*
X39118377Y37521579D01*
X39154214Y37515903D01*
X39165835Y37513496D01*
X39197654Y37505327D01*
X39208665Y37502500D01*
X39228926Y37502500D01*
X39248635Y37500949D01*
X39268638Y37497781D01*
X39276530Y37498527D01*
X39281757Y37499021D01*
X39312649Y37501941D01*
X39324506Y37502500D01*
X39914105Y37502500D01*
X39982226Y37482498D01*
X40028719Y37428842D01*
X40038823Y37358568D01*
X40009329Y37293988D01*
X40003200Y37287405D01*
X39384500Y36668705D01*
X39322188Y36634679D01*
X39295405Y36631800D01*
X39239513Y36631800D01*
X39233061Y36630428D01*
X39233056Y36630428D01*
X39150229Y36612822D01*
X39052712Y36592094D01*
X39046682Y36589409D01*
X39046681Y36589409D01*
X38884278Y36517103D01*
X38884276Y36517102D01*
X38878248Y36514418D01*
X38872907Y36510538D01*
X38872906Y36510537D01*
X38862930Y36503289D01*
X38723747Y36402166D01*
X38719326Y36397256D01*
X38719325Y36397255D01*
X38630165Y36298232D01*
X38595960Y36260244D01*
X38548633Y36178271D01*
X38532748Y36150757D01*
X38500473Y36094856D01*
X38441458Y35913228D01*
X38440768Y35906667D01*
X38440768Y35906665D01*
X38431610Y35819524D01*
X38404597Y35753867D01*
X38395395Y35743599D01*
X35189900Y32538105D01*
X35127588Y32504079D01*
X35100805Y32501200D01*
X32261283Y32501200D01*
X32193162Y32521202D01*
X32146669Y32574858D01*
X32135973Y32614029D01*
X32118932Y32776166D01*
X32118931Y32776169D01*
X32118242Y32782728D01*
X32059227Y32964356D01*
X31963740Y33129744D01*
X31856707Y33248617D01*
X31840375Y33266755D01*
X31840374Y33266756D01*
X31835953Y33271666D01*
X31681452Y33383918D01*
X31675424Y33386602D01*
X31675422Y33386603D01*
X31513019Y33458909D01*
X31513018Y33458909D01*
X31506988Y33461594D01*
X31413587Y33481447D01*
X31326644Y33499928D01*
X31326639Y33499928D01*
X31320187Y33501300D01*
X31129213Y33501300D01*
X31122761Y33499928D01*
X31122756Y33499928D01*
X31035813Y33481447D01*
X30942412Y33461594D01*
X30936382Y33458909D01*
X30936381Y33458909D01*
X30773978Y33386603D01*
X30773976Y33386602D01*
X30767948Y33383918D01*
X30762607Y33380038D01*
X30762606Y33380037D01*
X30664130Y33308490D01*
X30597262Y33284631D01*
X30528111Y33300712D01*
X30500974Y33321331D01*
X27457719Y36364586D01*
X27423693Y36426898D01*
X27421465Y36447627D01*
X27421504Y36448000D01*
X27419227Y36469663D01*
X27402232Y36631365D01*
X27402232Y36631367D01*
X27401542Y36637928D01*
X27342527Y36819556D01*
X27247040Y36984944D01*
X27119253Y37126866D01*
X26964752Y37239118D01*
X26958724Y37241802D01*
X26958722Y37241803D01*
X26796319Y37314109D01*
X26796318Y37314109D01*
X26790288Y37316794D01*
X26685578Y37339051D01*
X26609944Y37355128D01*
X26609939Y37355128D01*
X26603487Y37356500D01*
X26412513Y37356500D01*
X26406061Y37355128D01*
X26406056Y37355128D01*
X26330422Y37339051D01*
X26225712Y37316794D01*
X26219682Y37314109D01*
X26219681Y37314109D01*
X26057278Y37241803D01*
X26057276Y37241802D01*
X26051248Y37239118D01*
X26045907Y37235238D01*
X26045906Y37235237D01*
X25921312Y37144714D01*
X25854444Y37120855D01*
X25785293Y37136936D01*
X25762940Y37153014D01*
X25760119Y37155554D01*
X25755699Y37160463D01*
X25601198Y37272715D01*
X25595170Y37275399D01*
X25595168Y37275400D01*
X25432765Y37347706D01*
X25432764Y37347706D01*
X25426734Y37350391D01*
X25333333Y37370244D01*
X25246390Y37388725D01*
X25246385Y37388725D01*
X25239933Y37390097D01*
X25048959Y37390097D01*
X25042507Y37388725D01*
X25042502Y37388725D01*
X24955559Y37370244D01*
X24862158Y37350391D01*
X24856128Y37347706D01*
X24856127Y37347706D01*
X24693724Y37275400D01*
X24693722Y37275399D01*
X24687694Y37272715D01*
X24533193Y37160463D01*
X24528772Y37155553D01*
X24528771Y37155552D01*
X24519013Y37144714D01*
X24405406Y37018541D01*
X24372066Y36960794D01*
X24320627Y36871699D01*
X24309919Y36853153D01*
X24250904Y36671525D01*
X24250214Y36664964D01*
X24250214Y36664962D01*
X24234674Y36517103D01*
X24230942Y36481597D01*
X24231632Y36475032D01*
X24249706Y36303072D01*
X24250904Y36291669D01*
X24309919Y36110041D01*
X24405406Y35944653D01*
X24478583Y35863382D01*
X24509299Y35799376D01*
X24510946Y35779073D01*
X24510946Y35451721D01*
X24510419Y35440538D01*
X24508744Y35433045D01*
X24508993Y35425119D01*
X24508993Y35425118D01*
X24510884Y35364968D01*
X24510946Y35361009D01*
X24510946Y35333098D01*
X24511443Y35329164D01*
X24511443Y35329163D01*
X24511451Y35329098D01*
X24512384Y35317261D01*
X24513773Y35273065D01*
X24516959Y35262100D01*
X24519424Y35253615D01*
X24523433Y35234254D01*
X24525972Y35214157D01*
X24528891Y35206786D01*
X24528891Y35206784D01*
X24542250Y35173042D01*
X24546095Y35161812D01*
X24552709Y35139045D01*
X24558428Y35119361D01*
X24562461Y35112542D01*
X24562463Y35112537D01*
X24568739Y35101926D01*
X24577434Y35084178D01*
X24584894Y35065337D01*
X24589556Y35058921D01*
X24589556Y35058920D01*
X24610882Y35029567D01*
X24617398Y35019647D01*
X24633067Y34993153D01*
X24639904Y34981592D01*
X24654225Y34967271D01*
X24667065Y34952238D01*
X24678974Y34935847D01*
X24713051Y34907656D01*
X24721830Y34899666D01*
X26172987Y33448509D01*
X26207013Y33386197D01*
X26201948Y33315382D01*
X26159401Y33258546D01*
X26109767Y33236099D01*
X25918209Y33195907D01*
X25913250Y33193949D01*
X25913248Y33193948D01*
X25708744Y33113185D01*
X25708742Y33113184D01*
X25703779Y33111224D01*
X25699220Y33108457D01*
X25699217Y33108456D01*
X25602827Y33049965D01*
X25506683Y32991623D01*
X25502653Y32988126D01*
X25355041Y32860035D01*
X25332555Y32840523D01*
X25329168Y32836392D01*
X25189760Y32666373D01*
X25189756Y32666367D01*
X25186376Y32662245D01*
X25168448Y32630750D01*
X25117368Y32581445D01*
X25047738Y32567583D01*
X24981667Y32593566D01*
X24954427Y32622716D01*
X24922328Y32670394D01*
X24872559Y32744319D01*
X24861840Y32755556D01*
X24755908Y32866600D01*
X24713424Y32911135D01*
X24528458Y33048754D01*
X24523707Y33051170D01*
X24523703Y33051172D01*
X24401731Y33113185D01*
X24322949Y33153240D01*
X24317855Y33154822D01*
X24317852Y33154823D01*
X24107871Y33220024D01*
X24102773Y33221607D01*
X24097484Y33222308D01*
X23879511Y33251198D01*
X23879506Y33251198D01*
X23874226Y33251898D01*
X23868897Y33251698D01*
X23868895Y33251698D01*
X23759034Y33247574D01*
X23643842Y33243249D01*
X23638623Y33242154D01*
X23609765Y33236099D01*
X23418209Y33195907D01*
X23413250Y33193949D01*
X23413248Y33193948D01*
X23208744Y33113185D01*
X23208742Y33113184D01*
X23203779Y33111224D01*
X23199220Y33108457D01*
X23199217Y33108456D01*
X23102827Y33049965D01*
X23006683Y32991623D01*
X23002653Y32988126D01*
X22855041Y32860035D01*
X22832555Y32840523D01*
X22829168Y32836392D01*
X22689760Y32666373D01*
X22689756Y32666367D01*
X22686376Y32662245D01*
X22668448Y32630750D01*
X22617368Y32581445D01*
X22547738Y32567583D01*
X22481667Y32593566D01*
X22454427Y32622716D01*
X22422328Y32670394D01*
X22372559Y32744319D01*
X22361840Y32755556D01*
X22255908Y32866600D01*
X22213424Y32911135D01*
X22028458Y33048754D01*
X22023707Y33051170D01*
X22023703Y33051172D01*
X21901731Y33113185D01*
X21822949Y33153240D01*
X21817855Y33154822D01*
X21817852Y33154823D01*
X21607871Y33220024D01*
X21602773Y33221607D01*
X21597484Y33222308D01*
X21379511Y33251198D01*
X21379506Y33251198D01*
X21374226Y33251898D01*
X21368897Y33251698D01*
X21368895Y33251698D01*
X21259034Y33247574D01*
X21143842Y33243249D01*
X21138623Y33242154D01*
X21109765Y33236099D01*
X20918209Y33195907D01*
X20913250Y33193949D01*
X20913248Y33193948D01*
X20708744Y33113185D01*
X20708742Y33113184D01*
X20703779Y33111224D01*
X20699220Y33108457D01*
X20699217Y33108456D01*
X20602827Y33049965D01*
X20506683Y32991623D01*
X20502653Y32988126D01*
X20355041Y32860035D01*
X20332555Y32840523D01*
X20329168Y32836392D01*
X20189760Y32666373D01*
X20189756Y32666367D01*
X20186376Y32662245D01*
X20183738Y32657610D01*
X20183735Y32657606D01*
X20141506Y32583420D01*
X20072325Y32461886D01*
X19993663Y32245175D01*
X19992714Y32239926D01*
X19992713Y32239923D01*
X19953377Y32022392D01*
X19953376Y32022385D01*
X19952639Y32018308D01*
X19951500Y31994156D01*
X19951500Y31582110D01*
X19954114Y31551305D01*
X19964717Y31426348D01*
X19966080Y31410280D01*
X19967418Y31405125D01*
X19967419Y31405119D01*
X20022657Y31192297D01*
X20023999Y31187128D01*
X20026191Y31182262D01*
X20026192Y31182259D01*
X20060156Y31106861D01*
X20118688Y30976925D01*
X20247441Y30785681D01*
X20406576Y30618865D01*
X20591542Y30481246D01*
X20596293Y30478830D01*
X20596297Y30478828D01*
X20666298Y30443238D01*
X20797051Y30376760D01*
X20802145Y30375178D01*
X20802148Y30375177D01*
X20963828Y30324974D01*
X21017227Y30308393D01*
X21022516Y30307692D01*
X21240489Y30278802D01*
X21240494Y30278802D01*
X21245774Y30278102D01*
X21251103Y30278302D01*
X21251105Y30278302D01*
X21370755Y30282794D01*
X21476158Y30286751D01*
X21701791Y30334093D01*
X21706750Y30336051D01*
X21706752Y30336052D01*
X21911256Y30416815D01*
X21911258Y30416816D01*
X21916221Y30418776D01*
X21921375Y30421903D01*
X22108757Y30535610D01*
X22108756Y30535610D01*
X22113317Y30538377D01*
X22165210Y30583407D01*
X22283412Y30685977D01*
X22283414Y30685979D01*
X22287445Y30689477D01*
X22321516Y30731030D01*
X22430240Y30863627D01*
X22430244Y30863633D01*
X22433624Y30867755D01*
X22451552Y30899250D01*
X22502632Y30948555D01*
X22572262Y30962417D01*
X22638333Y30936434D01*
X22665573Y30907284D01*
X22747441Y30785681D01*
X22906576Y30618865D01*
X23091542Y30481246D01*
X23096293Y30478830D01*
X23096297Y30478828D01*
X23166298Y30443238D01*
X23297051Y30376760D01*
X23302145Y30375178D01*
X23302148Y30375177D01*
X23463828Y30324974D01*
X23517227Y30308393D01*
X23522516Y30307692D01*
X23740489Y30278802D01*
X23740494Y30278802D01*
X23745774Y30278102D01*
X23751103Y30278302D01*
X23751105Y30278302D01*
X23870755Y30282794D01*
X23976158Y30286751D01*
X24201791Y30334093D01*
X24206750Y30336051D01*
X24206752Y30336052D01*
X24411256Y30416815D01*
X24411258Y30416816D01*
X24416221Y30418776D01*
X24421375Y30421903D01*
X24608757Y30535610D01*
X24608756Y30535610D01*
X24613317Y30538377D01*
X24665210Y30583407D01*
X24783412Y30685977D01*
X24783414Y30685979D01*
X24787445Y30689477D01*
X24821516Y30731030D01*
X24930240Y30863627D01*
X24930244Y30863633D01*
X24933624Y30867755D01*
X24951552Y30899250D01*
X25002632Y30948555D01*
X25072262Y30962417D01*
X25138333Y30936434D01*
X25165573Y30907284D01*
X25247441Y30785681D01*
X25406576Y30618865D01*
X25591542Y30481246D01*
X25596293Y30478830D01*
X25596297Y30478828D01*
X25666298Y30443238D01*
X25797051Y30376760D01*
X25802145Y30375178D01*
X25802148Y30375177D01*
X25963828Y30324974D01*
X26017227Y30308393D01*
X26022516Y30307692D01*
X26240489Y30278802D01*
X26240494Y30278802D01*
X26245774Y30278102D01*
X26251103Y30278302D01*
X26251105Y30278302D01*
X26370755Y30282794D01*
X26476158Y30286751D01*
X26701791Y30334093D01*
X26706750Y30336051D01*
X26706752Y30336052D01*
X26911255Y30416815D01*
X26916221Y30418776D01*
X26923881Y30423424D01*
X26925365Y30423819D01*
X26925561Y30423916D01*
X26925581Y30423876D01*
X26992493Y30441664D01*
X27060076Y30419914D01*
X27080009Y30402887D01*
X27083928Y30397493D01*
X27090030Y30392445D01*
X27118005Y30369302D01*
X27126784Y30361312D01*
X29128548Y28359547D01*
X29136088Y28351261D01*
X29140200Y28344782D01*
X29145977Y28339357D01*
X29189851Y28298157D01*
X29192693Y28295402D01*
X29212430Y28275665D01*
X29215627Y28273185D01*
X29224647Y28265482D01*
X29256879Y28235214D01*
X29263825Y28231395D01*
X29263828Y28231393D01*
X29274634Y28225452D01*
X29291153Y28214601D01*
X29307159Y28202186D01*
X29314428Y28199041D01*
X29314432Y28199038D01*
X29347737Y28184626D01*
X29358387Y28179409D01*
X29397140Y28158105D01*
X29404815Y28156134D01*
X29404816Y28156134D01*
X29416762Y28153067D01*
X29435467Y28146663D01*
X29454055Y28138619D01*
X29461878Y28137380D01*
X29461888Y28137377D01*
X29497724Y28131701D01*
X29509344Y28129295D01*
X29541159Y28121127D01*
X29552170Y28118300D01*
X29572424Y28118300D01*
X29592134Y28116749D01*
X29612143Y28113580D01*
X29620035Y28114326D01*
X29638780Y28116098D01*
X29656162Y28117741D01*
X29668019Y28118300D01*
X30874233Y28118300D01*
X30885416Y28117773D01*
X30892909Y28116098D01*
X30900835Y28116347D01*
X30900836Y28116347D01*
X30960986Y28118238D01*
X30964945Y28118300D01*
X30992856Y28118300D01*
X30996791Y28118797D01*
X30996856Y28118805D01*
X31008693Y28119738D01*
X31040951Y28120752D01*
X31044970Y28120878D01*
X31052889Y28121127D01*
X31072343Y28126779D01*
X31091700Y28130787D01*
X31103930Y28132332D01*
X31103931Y28132332D01*
X31111797Y28133326D01*
X31119168Y28136245D01*
X31119170Y28136245D01*
X31152912Y28149604D01*
X31164142Y28153449D01*
X31198983Y28163571D01*
X31198984Y28163571D01*
X31206593Y28165782D01*
X31213412Y28169815D01*
X31213417Y28169817D01*
X31224028Y28176093D01*
X31241776Y28184788D01*
X31260617Y28192248D01*
X31296387Y28218236D01*
X31306307Y28224752D01*
X31337535Y28243220D01*
X31337538Y28243222D01*
X31344362Y28247258D01*
X31358683Y28261579D01*
X31373717Y28274420D01*
X31383694Y28281669D01*
X31390107Y28286328D01*
X31418298Y28320405D01*
X31426288Y28329184D01*
X32635866Y29538762D01*
X32698178Y29572788D01*
X32751161Y29572913D01*
X32753863Y29572339D01*
X32756057Y29571872D01*
X32756059Y29571872D01*
X32762513Y29570500D01*
X32953487Y29570500D01*
X32959939Y29571872D01*
X32959944Y29571872D01*
X33048101Y29590611D01*
X33140288Y29610206D01*
X33147902Y29613596D01*
X33308722Y29685197D01*
X33308724Y29685198D01*
X33314752Y29687882D01*
X33329232Y29698402D01*
X33387339Y29740620D01*
X33469253Y29800134D01*
X33508537Y29843763D01*
X33592621Y29937148D01*
X33592622Y29937149D01*
X33597040Y29942056D01*
X33692527Y30107444D01*
X33751542Y30289072D01*
X33755316Y30324974D01*
X33770814Y30472435D01*
X33771504Y30479000D01*
X33756408Y30622633D01*
X33752232Y30662365D01*
X33752232Y30662367D01*
X33751542Y30668928D01*
X33692527Y30850556D01*
X33684981Y30863627D01*
X33622127Y30972492D01*
X33597040Y31015944D01*
X33589886Y31023890D01*
X33588858Y31026031D01*
X33588741Y31026192D01*
X33588770Y31026213D01*
X33559168Y31087894D01*
X33567930Y31158348D01*
X33613392Y31212880D01*
X33683521Y31234200D01*
X35336633Y31234200D01*
X35347816Y31233673D01*
X35355309Y31231998D01*
X35363235Y31232247D01*
X35363236Y31232247D01*
X35423386Y31234138D01*
X35427345Y31234200D01*
X35455256Y31234200D01*
X35459191Y31234697D01*
X35459256Y31234705D01*
X35471093Y31235638D01*
X35503351Y31236652D01*
X35507370Y31236778D01*
X35515289Y31237027D01*
X35534743Y31242679D01*
X35554100Y31246687D01*
X35566330Y31248232D01*
X35566331Y31248232D01*
X35574197Y31249226D01*
X35581568Y31252145D01*
X35581570Y31252145D01*
X35615312Y31265504D01*
X35626542Y31269349D01*
X35661383Y31279471D01*
X35661384Y31279471D01*
X35668993Y31281682D01*
X35675812Y31285715D01*
X35675817Y31285717D01*
X35686428Y31291993D01*
X35704176Y31300688D01*
X35723017Y31308148D01*
X35729488Y31312849D01*
X35758787Y31334136D01*
X35768707Y31340652D01*
X35799935Y31359120D01*
X35799938Y31359122D01*
X35806762Y31363158D01*
X35821083Y31377479D01*
X35836117Y31390320D01*
X35852507Y31402228D01*
X35880698Y31436305D01*
X35888688Y31445084D01*
X39221500Y34777895D01*
X39283812Y34811921D01*
X39310595Y34814800D01*
X39430487Y34814800D01*
X39436939Y34816172D01*
X39436944Y34816172D01*
X39544578Y34839051D01*
X39617288Y34854506D01*
X39670942Y34878394D01*
X39785722Y34929497D01*
X39785724Y34929498D01*
X39791752Y34932182D01*
X39865540Y34985792D01*
X39932406Y35009650D01*
X40001558Y34993570D01*
X40051038Y34942657D01*
X40065600Y34883856D01*
X40065600Y32034994D01*
X40045598Y31966873D01*
X40028695Y31945899D01*
X36691700Y28608905D01*
X36629388Y28574879D01*
X36602605Y28572000D01*
X36588610Y28572000D01*
X36520489Y28592002D01*
X36479491Y28635000D01*
X36439340Y28704544D01*
X36381098Y28769229D01*
X36315975Y28841555D01*
X36315974Y28841556D01*
X36311553Y28846466D01*
X36173955Y28946437D01*
X36162394Y28954837D01*
X36162393Y28954838D01*
X36157052Y28958718D01*
X36151024Y28961402D01*
X36151022Y28961403D01*
X35988619Y29033709D01*
X35988618Y29033709D01*
X35982588Y29036394D01*
X35886092Y29056905D01*
X35802244Y29074728D01*
X35802239Y29074728D01*
X35795787Y29076100D01*
X35604813Y29076100D01*
X35598361Y29074728D01*
X35598356Y29074728D01*
X35514508Y29056905D01*
X35418012Y29036394D01*
X35411982Y29033709D01*
X35411981Y29033709D01*
X35249578Y28961403D01*
X35249576Y28961402D01*
X35243548Y28958718D01*
X35238207Y28954838D01*
X35238206Y28954837D01*
X35226645Y28946437D01*
X35089047Y28846466D01*
X35084626Y28841556D01*
X35084625Y28841555D01*
X35019503Y28769229D01*
X34961260Y28704544D01*
X34957253Y28697604D01*
X34884736Y28572000D01*
X34865773Y28539156D01*
X34806758Y28357528D01*
X34806068Y28350967D01*
X34806068Y28350965D01*
X34805418Y28344782D01*
X34790942Y28207042D01*
X34789393Y28192308D01*
X34762380Y28126651D01*
X34753178Y28116382D01*
X33849199Y27212404D01*
X33786887Y27178379D01*
X33760104Y27175500D01*
X17565130Y27175500D01*
X17497009Y27195502D01*
X17450516Y27249158D01*
X17440412Y27319432D01*
X17445295Y27340430D01*
X17495542Y27495072D01*
X17501597Y27552677D01*
X17514814Y27678435D01*
X17515504Y27685000D01*
X17501847Y27814942D01*
X17496232Y27868365D01*
X17496232Y27868367D01*
X17495542Y27874928D01*
X17436527Y28056556D01*
X17341040Y28221944D01*
X17293791Y28274420D01*
X17217675Y28358955D01*
X17217674Y28358956D01*
X17213253Y28363866D01*
X17058752Y28476118D01*
X17052724Y28478802D01*
X17052722Y28478803D01*
X16890319Y28551109D01*
X16890318Y28551109D01*
X16884288Y28553794D01*
X16790888Y28573647D01*
X16703944Y28592128D01*
X16703939Y28592128D01*
X16697487Y28593500D01*
X16641595Y28593500D01*
X16573474Y28613502D01*
X16552499Y28630405D01*
X15658404Y29524501D01*
X15624379Y29586813D01*
X15621500Y29613596D01*
X15621500Y31387000D01*
X15641502Y31455121D01*
X15695158Y31501614D01*
X15747500Y31513000D01*
X15808487Y31513000D01*
X15814939Y31514372D01*
X15814944Y31514372D01*
X15911894Y31534980D01*
X15995288Y31552706D01*
X16094245Y31596764D01*
X16134844Y31614840D01*
X16205211Y31624274D01*
X16260155Y31601668D01*
X16272248Y31592882D01*
X16278276Y31590198D01*
X16278278Y31590197D01*
X16427710Y31523666D01*
X16446712Y31515206D01*
X16540113Y31495353D01*
X16627056Y31476872D01*
X16627061Y31476872D01*
X16633513Y31475500D01*
X16824487Y31475500D01*
X16830939Y31476872D01*
X16830944Y31476872D01*
X16917887Y31495353D01*
X17011288Y31515206D01*
X17030290Y31523666D01*
X17179722Y31590197D01*
X17179724Y31590198D01*
X17185752Y31592882D01*
X17215975Y31614840D01*
X17332907Y31699797D01*
X17340253Y31705134D01*
X17393433Y31764196D01*
X17463621Y31842148D01*
X17463622Y31842149D01*
X17468040Y31847056D01*
X17552110Y31992669D01*
X17560223Y32006721D01*
X17560224Y32006722D01*
X17563527Y32012444D01*
X17622542Y32194072D01*
X17627521Y32241439D01*
X17641814Y32377435D01*
X17642504Y32384000D01*
X17638186Y32425085D01*
X17623232Y32567365D01*
X17623232Y32567367D01*
X17622542Y32573928D01*
X17563527Y32755556D01*
X17491421Y32880448D01*
X17474683Y32949441D01*
X17497903Y33016533D01*
X17511445Y33032541D01*
X22161500Y37682595D01*
X22223812Y37716621D01*
X22250595Y37719500D01*
X38756906Y37719500D01*
X38825027Y37699498D01*
G37*
%TD.AperFunction*%
%TD*%
M02*
