M48
; DRILL file {KiCad (6.0.7)} date Tue Jan 17 20:56:03 2023
; FORMAT={-:-/ absolute / inch / decimal}
; #@! TF.CreationDate,2023-01-17T20:56:03-06:00
; #@! TF.GenerationSoftware,Kicad,Pcbnew,(6.0.7)
; #@! TF.FileFunction,Plated,1,2,PTH
FMAT,2
INCH
; #@! TA.AperFunction,Plated,PTH,ViaDrill
T1C0.0157
; #@! TA.AperFunction,Plated,PTH,ComponentDrill
T2C0.0197
; #@! TA.AperFunction,Plated,PTH,ComponentDrill
T3C0.0217
; #@! TA.AperFunction,Plated,PTH,ComponentDrill
T4C0.0374
%
G90
G05
T1
X4.9003Y-4.182
X4.91Y-4.524
X4.9104Y-3.698
X4.9265Y-4.3352
X4.9399Y-4.4767
X4.9776Y-4.6443
X5.0095Y-4.454
X5.0339Y-3.8915
X5.041Y-4.571
X5.067Y-4.526
X5.096Y-5.192
X5.0998Y-4.454
X5.1084Y-3.7365
X5.143Y-4.764
X5.1569Y-4.443
X5.1843Y-4.0419
X5.1975Y-3.8207
X5.235Y-3.6983
X5.262Y-5.413
X5.288Y-3.914
X5.324Y-4.854
X5.3517Y-5.367
X5.3548Y-4.9252
X5.355Y-4.425
X5.3555Y-5.6866
X5.38Y-4.775
X5.383Y-4.1334
X5.385Y-4.87
X5.3854Y-4.06
X5.395Y-4.5885
X5.395Y-4.985
X5.399Y-3.812
X5.429Y-3.882
X5.43Y-4.775
X5.43Y-4.895
X5.4337Y-5.3601
X5.435Y-4.59
X5.4351Y-5.5375
X5.438Y-4.079
X5.44Y-5.215
X5.455Y-4.985
X5.47Y-4.285
X5.471Y-4.236
X5.482Y-3.954
X5.484Y-4.0
X5.4969Y-3.8065
X5.5087Y-5.3762
X5.5807Y-5.359
X5.6295Y-5.6299
X5.635Y-4.305
X5.65Y-5.06
X5.6515Y-5.498
X5.665Y-4.425
X5.672Y-5.2734
X5.685Y-4.2332
X5.737Y-5.253
X5.7663Y-4.4287
X5.804Y-4.055
X5.804Y-4.105
X5.804Y-4.155
X5.8054Y-5.7623
X5.82Y-4.43
X5.854Y-4.055
X5.854Y-4.105
X5.855Y-4.155
X5.8685Y-5.0135
X5.869Y-4.9
X5.9028Y-5.222
X5.904Y-4.055
X5.904Y-4.105
X5.904Y-4.155
X5.98Y-4.865
X5.981Y-4.63
X6.0057Y-4.5818
X6.068Y-4.973
X6.069Y-4.88
X6.07Y-4.665
X6.096Y-5.112
X6.125Y-4.8489
X6.144Y-5.1454
X6.1655Y-3.804
X6.1819Y-4.756
X6.191Y-4.655
X6.1987Y-5.6625
X6.2033Y-4.5374
X6.2072Y-5.2434
X6.219Y-4.7758
X6.2426Y-4.888
X6.278Y-4.8526
X6.278Y-4.9233
X6.2999Y-4.1063
X6.3133Y-4.8173
X6.3133Y-4.888
X6.3133Y-4.9587
X6.325Y-4.4585
X6.326Y-4.616
X6.3267Y-5.7448
X6.335Y-4.335
X6.336Y-4.71
X6.3487Y-4.8526
X6.3487Y-4.9233
X6.357Y-5.078
X6.373Y-5.217
X6.378Y-4.3377
X6.3787Y-4.4626
X6.384Y-4.888
X6.3924Y-4.7394
X6.4065Y-4.235
X6.42Y-4.0775
X6.445Y-3.835
X6.495Y-4.275
X6.501Y-4.799
X6.525Y-3.945
X6.5354Y-5.0787
X6.5416Y-5.2221
X6.545Y-4.878
X6.5566Y-4.1955
X6.5686Y-4.4165
X6.6095Y-4.2483
X6.686Y-3.963
X6.6929Y-5.1575
X6.695Y-4.229
X6.71Y-4.903
X6.735Y-4.455
T4
X5.6154Y-4.6144
X5.7138Y-4.6144
X5.8122Y-4.6144
X5.9106Y-4.6144
X6.815Y-3.981
X6.815Y-4.0794
X6.815Y-4.1779
X6.815Y-4.2763
X6.815Y-4.3747
X6.815Y-4.4731
X6.815Y-4.5716
X6.815Y-4.67
X6.8157Y-4.9074
X6.8157Y-5.0058
X6.8157Y-5.1042
X6.8157Y-5.2026
T2
G00X4.9412Y-3.575
M15
G01X4.9412Y-3.5494
M16
G05
G00X5.2168Y-3.575
M15
G01X5.2168Y-3.5494
M16
G05
T3
G00X4.9865Y-3.6685
M15
G01X4.9747Y-3.6685
M16
G05
G00X5.1833Y-3.6685
M15
G01X5.1715Y-3.6685
M16
G05
T0
M30
