%TF.GenerationSoftware,KiCad,Pcbnew,(6.0.7)*%
%TF.CreationDate,2023-01-21T14:40:08-06:00*%
%TF.ProjectId,SmartSpin2k_Panelized,536d6172-7453-4706-996e-326b5f50616e,2.35*%
%TF.SameCoordinates,Original*%
%TF.FileFunction,Soldermask,Bot*%
%TF.FilePolarity,Negative*%
%FSLAX46Y46*%
G04 Gerber Fmt 4.6, Leading zero omitted, Abs format (unit mm)*
G04 Created by KiCad (PCBNEW (6.0.7)) date 2023-01-21 14:40:08*
%MOMM*%
%LPD*%
G01*
G04 APERTURE LIST*
G04 Aperture macros list*
%AMRoundRect*
0 Rectangle with rounded corners*
0 $1 Rounding radius*
0 $2 $3 $4 $5 $6 $7 $8 $9 X,Y pos of 4 corners*
0 Add a 4 corners polygon primitive as box body*
4,1,4,$2,$3,$4,$5,$6,$7,$8,$9,$2,$3,0*
0 Add four circle primitives for the rounded corners*
1,1,$1+$1,$2,$3*
1,1,$1+$1,$4,$5*
1,1,$1+$1,$6,$7*
1,1,$1+$1,$8,$9*
0 Add four rect primitives between the rounded corners*
20,1,$1+$1,$2,$3,$4,$5,0*
20,1,$1+$1,$4,$5,$6,$7,0*
20,1,$1+$1,$6,$7,$8,$9,0*
20,1,$1+$1,$8,$9,$2,$3,0*%
G04 Aperture macros list end*
%ADD10C,2.000000*%
%ADD11C,1.200000*%
%ADD12RoundRect,0.250000X0.725000X-0.600000X0.725000X0.600000X-0.725000X0.600000X-0.725000X-0.600000X0*%
%ADD13O,1.950000X1.700000*%
%ADD14RoundRect,0.250000X0.600000X0.725000X-0.600000X0.725000X-0.600000X-0.725000X0.600000X-0.725000X0*%
%ADD15O,1.700000X1.950000*%
%ADD16O,1.000000X1.550000*%
%ADD17O,1.250000X0.950000*%
%ADD18C,0.900000*%
%ADD19C,1.152000*%
G04 APERTURE END LIST*
D10*
%TO.C,REF\u002A\u002A*%
X184450000Y-201550000D03*
%TD*%
D11*
%TO.C,J3*%
X115931000Y-38548000D03*
D12*
X117931000Y-36948000D03*
D13*
X117931000Y-34448000D03*
X117931000Y-31948000D03*
X117931000Y-29448000D03*
X117931000Y-26948000D03*
X117931000Y-24448000D03*
X117931000Y-21948000D03*
X117931000Y-19448000D03*
%TD*%
D11*
%TO.C,J2*%
X96560000Y-168135000D03*
D14*
X94960000Y-166135000D03*
D15*
X92460000Y-166135000D03*
X89960000Y-166135000D03*
X87460000Y-166135000D03*
%TD*%
D10*
%TO.C,REF\u002A\u002A*%
X5000000Y-3350000D03*
%TD*%
D11*
%TO.C,J2*%
X96560000Y-102835000D03*
D14*
X94960000Y-100835000D03*
D15*
X92460000Y-100835000D03*
X89960000Y-100835000D03*
X87460000Y-100835000D03*
%TD*%
D11*
%TO.C,J2*%
X155710000Y-168135000D03*
D14*
X154110000Y-166135000D03*
D15*
X151610000Y-166135000D03*
X149110000Y-166135000D03*
X146610000Y-166135000D03*
%TD*%
D11*
%TO.C,J2*%
X37410000Y-168135000D03*
D14*
X35810000Y-166135000D03*
D15*
X33310000Y-166135000D03*
X30810000Y-166135000D03*
X28310000Y-166135000D03*
%TD*%
D11*
%TO.C,J2*%
X37410000Y-37535000D03*
D14*
X35810000Y-35535000D03*
D15*
X33310000Y-35535000D03*
X30810000Y-35535000D03*
X28310000Y-35535000D03*
%TD*%
D11*
%TO.C,J3*%
X115931000Y-169148000D03*
D12*
X117931000Y-167548000D03*
D13*
X117931000Y-165048000D03*
X117931000Y-162548000D03*
X117931000Y-160048000D03*
X117931000Y-157548000D03*
X117931000Y-155048000D03*
X117931000Y-152548000D03*
X117931000Y-150048000D03*
%TD*%
D11*
%TO.C,J1*%
X56798000Y-117377000D03*
D12*
X58798000Y-115777000D03*
D13*
X58798000Y-113277000D03*
X58798000Y-110777000D03*
X58798000Y-108277000D03*
%TD*%
D11*
%TO.C,J2*%
X96560000Y-37535000D03*
D14*
X94960000Y-35535000D03*
D15*
X92460000Y-35535000D03*
X89960000Y-35535000D03*
X87460000Y-35535000D03*
%TD*%
D11*
%TO.C,J2*%
X155710000Y-102835000D03*
D14*
X154110000Y-100835000D03*
D15*
X151610000Y-100835000D03*
X149110000Y-100835000D03*
X146610000Y-100835000D03*
%TD*%
D11*
%TO.C,J2*%
X155710000Y-37535000D03*
D14*
X154110000Y-35535000D03*
D15*
X151610000Y-35535000D03*
X149110000Y-35535000D03*
X146610000Y-35535000D03*
%TD*%
D11*
%TO.C,J1*%
X175098000Y-117377000D03*
D12*
X177098000Y-115777000D03*
D13*
X177098000Y-113277000D03*
X177098000Y-110777000D03*
X177098000Y-108277000D03*
%TD*%
D11*
%TO.C,J3*%
X56781000Y-38548000D03*
D12*
X58781000Y-36948000D03*
D13*
X58781000Y-34448000D03*
X58781000Y-31948000D03*
X58781000Y-29448000D03*
X58781000Y-26948000D03*
X58781000Y-24448000D03*
X58781000Y-21948000D03*
X58781000Y-19448000D03*
%TD*%
D10*
%TO.C,REF\u002A\u002A*%
X184450000Y-3350000D03*
%TD*%
D11*
%TO.C,J3*%
X175081000Y-38548000D03*
D12*
X177081000Y-36948000D03*
D13*
X177081000Y-34448000D03*
X177081000Y-31948000D03*
X177081000Y-29448000D03*
X177081000Y-26948000D03*
X177081000Y-24448000D03*
X177081000Y-21948000D03*
X177081000Y-19448000D03*
%TD*%
D11*
%TO.C,J1*%
X115948000Y-52077000D03*
D12*
X117948000Y-50477000D03*
D13*
X117948000Y-47977000D03*
X117948000Y-45477000D03*
X117948000Y-42977000D03*
%TD*%
D11*
%TO.C,J1*%
X115948000Y-182677000D03*
D12*
X117948000Y-181077000D03*
D13*
X117948000Y-178577000D03*
X117948000Y-176077000D03*
X117948000Y-173577000D03*
%TD*%
D11*
%TO.C,J1*%
X56798000Y-52077000D03*
D12*
X58798000Y-50477000D03*
D13*
X58798000Y-47977000D03*
X58798000Y-45477000D03*
X58798000Y-42977000D03*
%TD*%
D11*
%TO.C,J3*%
X115931000Y-103848000D03*
D12*
X117931000Y-102248000D03*
D13*
X117931000Y-99748000D03*
X117931000Y-97248000D03*
X117931000Y-94748000D03*
X117931000Y-92248000D03*
X117931000Y-89748000D03*
X117931000Y-87248000D03*
X117931000Y-84748000D03*
%TD*%
D11*
%TO.C,J1*%
X175098000Y-182677000D03*
D12*
X177098000Y-181077000D03*
D13*
X177098000Y-178577000D03*
X177098000Y-176077000D03*
X177098000Y-173577000D03*
%TD*%
D11*
%TO.C,J3*%
X175081000Y-169148000D03*
D12*
X177081000Y-167548000D03*
D13*
X177081000Y-165048000D03*
X177081000Y-162548000D03*
X177081000Y-160048000D03*
X177081000Y-157548000D03*
X177081000Y-155048000D03*
X177081000Y-152548000D03*
X177081000Y-150048000D03*
%TD*%
D11*
%TO.C,J3*%
X56781000Y-103848000D03*
D12*
X58781000Y-102248000D03*
D13*
X58781000Y-99748000D03*
X58781000Y-97248000D03*
X58781000Y-94748000D03*
X58781000Y-92248000D03*
X58781000Y-89748000D03*
X58781000Y-87248000D03*
X58781000Y-84748000D03*
%TD*%
D11*
%TO.C,J1*%
X56798000Y-182677000D03*
D12*
X58798000Y-181077000D03*
D13*
X58798000Y-178577000D03*
X58798000Y-176077000D03*
X58798000Y-173577000D03*
%TD*%
D11*
%TO.C,J2*%
X37410000Y-102835000D03*
D14*
X35810000Y-100835000D03*
D15*
X33310000Y-100835000D03*
X30810000Y-100835000D03*
X28310000Y-100835000D03*
%TD*%
D11*
%TO.C,J3*%
X175081000Y-103848000D03*
D12*
X177081000Y-102248000D03*
D13*
X177081000Y-99748000D03*
X177081000Y-97248000D03*
X177081000Y-94748000D03*
X177081000Y-92248000D03*
X177081000Y-89748000D03*
X177081000Y-87248000D03*
X177081000Y-84748000D03*
%TD*%
D11*
%TO.C,J3*%
X56781000Y-169148000D03*
D12*
X58781000Y-167548000D03*
D13*
X58781000Y-165048000D03*
X58781000Y-162548000D03*
X58781000Y-160048000D03*
X58781000Y-157548000D03*
X58781000Y-155048000D03*
X58781000Y-152548000D03*
X58781000Y-150048000D03*
%TD*%
D11*
%TO.C,J1*%
X115948000Y-117377000D03*
D12*
X117948000Y-115777000D03*
D13*
X117948000Y-113277000D03*
X117948000Y-110777000D03*
X117948000Y-108277000D03*
%TD*%
D11*
%TO.C,J1*%
X175098000Y-52077000D03*
D12*
X177098000Y-50477000D03*
D13*
X177098000Y-47977000D03*
X177098000Y-45477000D03*
X177098000Y-42977000D03*
%TD*%
D10*
%TO.C,REF\u002A\u002A*%
X5000000Y-201550000D03*
%TD*%
D16*
%TO.C,J4*%
X77336600Y-8810000D03*
X70336600Y-8810000D03*
D17*
X76336600Y-11510000D03*
X71336600Y-11510000D03*
%TD*%
D18*
%TO.C,S1*%
X58160000Y-9210000D03*
X51360000Y-9210000D03*
%TD*%
D17*
%TO.C,J4*%
X130486600Y-76810000D03*
D16*
X129486600Y-74110000D03*
D17*
X135486600Y-76810000D03*
D16*
X136486600Y-74110000D03*
%TD*%
D17*
%TO.C,J4*%
X76336600Y-142110000D03*
D16*
X77336600Y-139410000D03*
D17*
X71336600Y-142110000D03*
D16*
X70336600Y-139410000D03*
%TD*%
D17*
%TO.C,J4*%
X76336600Y-76810000D03*
D16*
X77336600Y-74110000D03*
D17*
X71336600Y-76810000D03*
D16*
X70336600Y-74110000D03*
%TD*%
D17*
%TO.C,J4*%
X135486600Y-142110000D03*
X130486600Y-142110000D03*
D16*
X129486600Y-139410000D03*
X136486600Y-139410000D03*
%TD*%
D18*
%TO.C,S1*%
X110510000Y-9210000D03*
X117310000Y-9210000D03*
%TD*%
D19*
%TO.C,REF\u002A\u002A*%
X10000000Y-3350000D03*
%TD*%
D16*
%TO.C,J4*%
X11186600Y-139410000D03*
D17*
X17186600Y-142110000D03*
D16*
X18186600Y-139410000D03*
D17*
X12186600Y-142110000D03*
%TD*%
D19*
%TO.C,REF\u002A\u002A*%
X179450000Y-3350000D03*
%TD*%
D18*
%TO.C,S1*%
X176460000Y-9210000D03*
X169660000Y-9210000D03*
%TD*%
%TO.C,S1*%
X110510000Y-139810000D03*
X117310000Y-139810000D03*
%TD*%
%TO.C,S1*%
X58160000Y-74510000D03*
X51360000Y-74510000D03*
%TD*%
D17*
%TO.C,J4*%
X130486600Y-11510000D03*
X135486600Y-11510000D03*
D16*
X129486600Y-8810000D03*
X136486600Y-8810000D03*
%TD*%
%TO.C,J4*%
X11186600Y-8810000D03*
D17*
X17186600Y-11510000D03*
X12186600Y-11510000D03*
D16*
X18186600Y-8810000D03*
%TD*%
D18*
%TO.C,S1*%
X169660000Y-74510000D03*
X176460000Y-74510000D03*
%TD*%
D17*
%TO.C,J4*%
X12186600Y-76810000D03*
D16*
X18186600Y-74110000D03*
D17*
X17186600Y-76810000D03*
D16*
X11186600Y-74110000D03*
%TD*%
D18*
%TO.C,S1*%
X58160000Y-139810000D03*
X51360000Y-139810000D03*
%TD*%
%TO.C,S1*%
X117310000Y-74510000D03*
X110510000Y-74510000D03*
%TD*%
%TO.C,S1*%
X169660000Y-139810000D03*
X176460000Y-139810000D03*
%TD*%
D19*
%TO.C,REF\u002A\u002A*%
X10000000Y-201550000D03*
%TD*%
M02*
