%TF.GenerationSoftware,KiCad,Pcbnew,(6.0.7)*%
%TF.CreationDate,2023-01-19T16:19:46-06:00*%
%TF.ProjectId,SmartSpin2k_Panelized,536d6172-7453-4706-996e-326b5f50616e,2.35*%
%TF.SameCoordinates,Original*%
%TF.FileFunction,Soldermask,Bot*%
%TF.FilePolarity,Negative*%
%FSLAX46Y46*%
G04 Gerber Fmt 4.6, Leading zero omitted, Abs format (unit mm)*
G04 Created by KiCad (PCBNEW (6.0.7)) date 2023-01-19 16:19:46*
%MOMM*%
%LPD*%
G01*
G04 APERTURE LIST*
G04 Aperture macros list*
%AMRoundRect*
0 Rectangle with rounded corners*
0 $1 Rounding radius*
0 $2 $3 $4 $5 $6 $7 $8 $9 X,Y pos of 4 corners*
0 Add a 4 corners polygon primitive as box body*
4,1,4,$2,$3,$4,$5,$6,$7,$8,$9,$2,$3,0*
0 Add four circle primitives for the rounded corners*
1,1,$1+$1,$2,$3*
1,1,$1+$1,$4,$5*
1,1,$1+$1,$6,$7*
1,1,$1+$1,$8,$9*
0 Add four rect primitives between the rounded corners*
20,1,$1+$1,$2,$3,$4,$5,0*
20,1,$1+$1,$4,$5,$6,$7,0*
20,1,$1+$1,$6,$7,$8,$9,0*
20,1,$1+$1,$8,$9,$2,$3,0*%
G04 Aperture macros list end*
%ADD10C,1.200000*%
%ADD11RoundRect,0.250000X0.725000X-0.600000X0.725000X0.600000X-0.725000X0.600000X-0.725000X-0.600000X0*%
%ADD12O,1.950000X1.700000*%
%ADD13RoundRect,0.250000X0.600000X0.725000X-0.600000X0.725000X-0.600000X-0.725000X0.600000X-0.725000X0*%
%ADD14O,1.700000X1.950000*%
%ADD15C,2.000000*%
%ADD16C,0.900000*%
%ADD17O,1.000000X1.550000*%
%ADD18O,1.250000X0.950000*%
%ADD19C,1.152000*%
G04 APERTURE END LIST*
D10*
%TO.C,J3*%
X58781000Y-105898000D03*
D11*
X60781000Y-104298000D03*
D12*
X60781000Y-101798000D03*
X60781000Y-99298000D03*
X60781000Y-96798000D03*
X60781000Y-94298000D03*
X60781000Y-91798000D03*
X60781000Y-89298000D03*
X60781000Y-86798000D03*
%TD*%
D10*
%TO.C,J1*%
X173123200Y-119427000D03*
D11*
X175123200Y-117827000D03*
D12*
X175123200Y-115327000D03*
X175123200Y-112827000D03*
X175123200Y-110327000D03*
%TD*%
D10*
%TO.C,J1*%
X115960600Y-119427000D03*
D11*
X117960600Y-117827000D03*
D12*
X117960600Y-115327000D03*
X117960600Y-112827000D03*
X117960600Y-110327000D03*
%TD*%
D10*
%TO.C,J1*%
X115960600Y-54102000D03*
D11*
X117960600Y-52502000D03*
D12*
X117960600Y-50002000D03*
X117960600Y-47502000D03*
X117960600Y-45002000D03*
%TD*%
D10*
%TO.C,J3*%
X173106200Y-40573000D03*
D11*
X175106200Y-38973000D03*
D12*
X175106200Y-36473000D03*
X175106200Y-33973000D03*
X175106200Y-31473000D03*
X175106200Y-28973000D03*
X175106200Y-26473000D03*
X175106200Y-23973000D03*
X175106200Y-21473000D03*
%TD*%
D10*
%TO.C,J2*%
X39410000Y-104885000D03*
D13*
X37810000Y-102885000D03*
D14*
X35310000Y-102885000D03*
X32810000Y-102885000D03*
X30310000Y-102885000D03*
%TD*%
D10*
%TO.C,J3*%
X58781000Y-171223000D03*
D11*
X60781000Y-169623000D03*
D12*
X60781000Y-167123000D03*
X60781000Y-164623000D03*
X60781000Y-162123000D03*
X60781000Y-159623000D03*
X60781000Y-157123000D03*
X60781000Y-154623000D03*
X60781000Y-152123000D03*
%TD*%
D10*
%TO.C,J2*%
X96572600Y-170210000D03*
D13*
X94972600Y-168210000D03*
D14*
X92472600Y-168210000D03*
X89972600Y-168210000D03*
X87472600Y-168210000D03*
%TD*%
D10*
%TO.C,J3*%
X115943600Y-105898000D03*
D11*
X117943600Y-104298000D03*
D12*
X117943600Y-101798000D03*
X117943600Y-99298000D03*
X117943600Y-96798000D03*
X117943600Y-94298000D03*
X117943600Y-91798000D03*
X117943600Y-89298000D03*
X117943600Y-86798000D03*
%TD*%
D15*
%TO.C,REF\u002A\u002A*%
X8000000Y-204975000D03*
%TD*%
D10*
%TO.C,J3*%
X115943600Y-40573000D03*
D11*
X117943600Y-38973000D03*
D12*
X117943600Y-36473000D03*
X117943600Y-33973000D03*
X117943600Y-31473000D03*
X117943600Y-28973000D03*
X117943600Y-26473000D03*
X117943600Y-23973000D03*
X117943600Y-21473000D03*
%TD*%
D10*
%TO.C,J2*%
X96572600Y-39560000D03*
D13*
X94972600Y-37560000D03*
D14*
X92472600Y-37560000D03*
X89972600Y-37560000D03*
X87472600Y-37560000D03*
%TD*%
D15*
%TO.C,REF\u002A\u002A*%
X181487800Y-4000000D03*
%TD*%
D10*
%TO.C,J2*%
X39410000Y-39560000D03*
D13*
X37810000Y-37560000D03*
D14*
X35310000Y-37560000D03*
X32810000Y-37560000D03*
X30310000Y-37560000D03*
%TD*%
D10*
%TO.C,J2*%
X153735200Y-170210000D03*
D13*
X152135200Y-168210000D03*
D14*
X149635200Y-168210000D03*
X147135200Y-168210000D03*
X144635200Y-168210000D03*
%TD*%
D10*
%TO.C,J2*%
X39410000Y-170210000D03*
D13*
X37810000Y-168210000D03*
D14*
X35310000Y-168210000D03*
X32810000Y-168210000D03*
X30310000Y-168210000D03*
%TD*%
D10*
%TO.C,J2*%
X153735200Y-104885000D03*
D13*
X152135200Y-102885000D03*
D14*
X149635200Y-102885000D03*
X147135200Y-102885000D03*
X144635200Y-102885000D03*
%TD*%
D10*
%TO.C,J3*%
X173106200Y-105898000D03*
D11*
X175106200Y-104298000D03*
D12*
X175106200Y-101798000D03*
X175106200Y-99298000D03*
X175106200Y-96798000D03*
X175106200Y-94298000D03*
X175106200Y-91798000D03*
X175106200Y-89298000D03*
X175106200Y-86798000D03*
%TD*%
D10*
%TO.C,J1*%
X58798000Y-184752000D03*
D11*
X60798000Y-183152000D03*
D12*
X60798000Y-180652000D03*
X60798000Y-178152000D03*
X60798000Y-175652000D03*
%TD*%
D15*
%TO.C,REF\u002A\u002A*%
X181487800Y-204975000D03*
%TD*%
D10*
%TO.C,J3*%
X58781000Y-40573000D03*
D11*
X60781000Y-38973000D03*
D12*
X60781000Y-36473000D03*
X60781000Y-33973000D03*
X60781000Y-31473000D03*
X60781000Y-28973000D03*
X60781000Y-26473000D03*
X60781000Y-23973000D03*
X60781000Y-21473000D03*
%TD*%
D10*
%TO.C,J1*%
X173123200Y-54102000D03*
D11*
X175123200Y-52502000D03*
D12*
X175123200Y-50002000D03*
X175123200Y-47502000D03*
X175123200Y-45002000D03*
%TD*%
D10*
%TO.C,J1*%
X115960600Y-184752000D03*
D11*
X117960600Y-183152000D03*
D12*
X117960600Y-180652000D03*
X117960600Y-178152000D03*
X117960600Y-175652000D03*
%TD*%
D10*
%TO.C,J1*%
X58798000Y-119427000D03*
D11*
X60798000Y-117827000D03*
D12*
X60798000Y-115327000D03*
X60798000Y-112827000D03*
X60798000Y-110327000D03*
%TD*%
D15*
%TO.C,REF\u002A\u002A*%
X8000000Y-4000000D03*
%TD*%
D10*
%TO.C,J2*%
X96572600Y-104885000D03*
D13*
X94972600Y-102885000D03*
D14*
X92472600Y-102885000D03*
X89972600Y-102885000D03*
X87472600Y-102885000D03*
%TD*%
D10*
%TO.C,J3*%
X115943600Y-171223000D03*
D11*
X117943600Y-169623000D03*
D12*
X117943600Y-167123000D03*
X117943600Y-164623000D03*
X117943600Y-162123000D03*
X117943600Y-159623000D03*
X117943600Y-157123000D03*
X117943600Y-154623000D03*
X117943600Y-152123000D03*
%TD*%
D10*
%TO.C,J2*%
X153735200Y-39560000D03*
D13*
X152135200Y-37560000D03*
D14*
X149635200Y-37560000D03*
X147135200Y-37560000D03*
X144635200Y-37560000D03*
%TD*%
D10*
%TO.C,J3*%
X173106200Y-171223000D03*
D11*
X175106200Y-169623000D03*
D12*
X175106200Y-167123000D03*
X175106200Y-164623000D03*
X175106200Y-162123000D03*
X175106200Y-159623000D03*
X175106200Y-157123000D03*
X175106200Y-154623000D03*
X175106200Y-152123000D03*
%TD*%
D10*
%TO.C,J1*%
X173123200Y-184752000D03*
D11*
X175123200Y-183152000D03*
D12*
X175123200Y-180652000D03*
X175123200Y-178152000D03*
X175123200Y-175652000D03*
%TD*%
D10*
%TO.C,J1*%
X58798000Y-54102000D03*
D11*
X60798000Y-52502000D03*
D12*
X60798000Y-50002000D03*
X60798000Y-47502000D03*
X60798000Y-45002000D03*
%TD*%
D16*
%TO.C,S1*%
X174485200Y-141885000D03*
X167685200Y-141885000D03*
%TD*%
%TO.C,S1*%
X167685200Y-76560000D03*
X174485200Y-76560000D03*
%TD*%
D17*
%TO.C,J4*%
X77349200Y-76160000D03*
D18*
X76349200Y-78860000D03*
X71349200Y-78860000D03*
D17*
X70349200Y-76160000D03*
%TD*%
D16*
%TO.C,S1*%
X60160000Y-11235000D03*
X53360000Y-11235000D03*
%TD*%
D17*
%TO.C,J4*%
X134511800Y-76160000D03*
D18*
X128511800Y-78860000D03*
D17*
X127511800Y-76160000D03*
D18*
X133511800Y-78860000D03*
%TD*%
D17*
%TO.C,J4*%
X134511800Y-10835000D03*
D18*
X133511800Y-13535000D03*
D17*
X127511800Y-10835000D03*
D18*
X128511800Y-13535000D03*
%TD*%
%TO.C,J4*%
X14186600Y-13535000D03*
X19186600Y-13535000D03*
D17*
X20186600Y-10835000D03*
X13186600Y-10835000D03*
%TD*%
D18*
%TO.C,J4*%
X71349200Y-13535000D03*
D17*
X70349200Y-10835000D03*
X77349200Y-10835000D03*
D18*
X76349200Y-13535000D03*
%TD*%
D19*
%TO.C,REF\u002A\u002A*%
X3000000Y-205975000D03*
%TD*%
D18*
%TO.C,J4*%
X19186600Y-144185000D03*
D17*
X20186600Y-141485000D03*
D18*
X14186600Y-144185000D03*
D17*
X13186600Y-141485000D03*
%TD*%
D19*
%TO.C,REF\u002A\u002A*%
X3000000Y-3000000D03*
%TD*%
%TO.C,REF\u002A\u002A*%
X186487800Y-3000000D03*
%TD*%
D16*
%TO.C,S1*%
X110522600Y-141885000D03*
X117322600Y-141885000D03*
%TD*%
%TO.C,S1*%
X167685200Y-11235000D03*
X174485200Y-11235000D03*
%TD*%
%TO.C,S1*%
X117322600Y-11235000D03*
X110522600Y-11235000D03*
%TD*%
%TO.C,S1*%
X53360000Y-141885000D03*
X60160000Y-141885000D03*
%TD*%
D17*
%TO.C,J4*%
X134511800Y-141485000D03*
D18*
X128511800Y-144185000D03*
D17*
X127511800Y-141485000D03*
D18*
X133511800Y-144185000D03*
%TD*%
D17*
%TO.C,J4*%
X70349200Y-141485000D03*
X77349200Y-141485000D03*
D18*
X71349200Y-144185000D03*
X76349200Y-144185000D03*
%TD*%
D16*
%TO.C,S1*%
X117322600Y-76560000D03*
X110522600Y-76560000D03*
%TD*%
D17*
%TO.C,J4*%
X13186600Y-76160000D03*
D18*
X19186600Y-78860000D03*
X14186600Y-78860000D03*
D17*
X20186600Y-76160000D03*
%TD*%
D16*
%TO.C,S1*%
X60160000Y-76560000D03*
X53360000Y-76560000D03*
%TD*%
M02*
