M48
; DRILL file {KiCad (6.0.7)} date Sat Jan 21 14:40:08 2023
; FORMAT={-:-/ absolute / inch / decimal}
; #@! TF.CreationDate,2023-01-21T14:40:08-06:00
; #@! TF.GenerationSoftware,Kicad,Pcbnew,(6.0.7)
; #@! TF.FileFunction,NonPlated,1,2,NPTH
FMAT,2
INCH
; #@! TA.AperFunction,NonPlated,NPTH,ComponentDrill
T1C0.0354
; #@! TA.AperFunction,NonPlated,NPTH,ComponentDrill
T2C0.0454
; #@! TA.AperFunction,NonPlated,NPTH,ComponentDrill
T3C0.0472
%
G90
G05
T1
X2.022Y-0.3626
X2.022Y-2.9335
X2.022Y-5.5043
X2.2898Y-0.3626
X2.2898Y-2.9335
X2.2898Y-5.5043
X4.3508Y-0.3626
X4.3508Y-2.9335
X4.3508Y-5.5043
X4.6185Y-0.3626
X4.6185Y-2.9335
X4.6185Y-5.5043
X6.6795Y-0.3626
X6.6795Y-2.9335
X6.6795Y-5.5043
X6.9472Y-0.3626
X6.9472Y-2.9335
X6.9472Y-5.5043
T2
X0.3937Y-0.1319
X0.3937Y-7.935
X7.065Y-0.1319
T3
X1.4728Y-1.4778
X1.4728Y-4.0486
X1.4728Y-6.6195
X2.2355Y-1.5176
X2.2355Y-4.0885
X2.2355Y-6.6594
X2.2361Y-2.0503
X2.2361Y-4.6211
X2.2361Y-7.192
X3.8016Y-1.4778
X3.8016Y-4.0486
X3.8016Y-6.6195
X4.5642Y-1.5176
X4.5642Y-4.0885
X4.5642Y-6.6594
X4.5649Y-2.0503
X4.5649Y-4.6211
X4.5649Y-7.192
X6.1303Y-1.4778
X6.1303Y-4.0486
X6.1303Y-6.6195
X6.893Y-1.5176
X6.893Y-4.0885
X6.893Y-6.6594
X6.8936Y-2.0503
X6.8936Y-4.6211
X6.8936Y-7.192
T0
M30
