%TF.GenerationSoftware,KiCad,Pcbnew,(6.0.7)*%
%TF.CreationDate,2023-01-19T16:19:46-06:00*%
%TF.ProjectId,SmartSpin2k_Panelized,536d6172-7453-4706-996e-326b5f50616e,2.35*%
%TF.SameCoordinates,Original*%
%TF.FileFunction,Soldermask,Top*%
%TF.FilePolarity,Negative*%
%FSLAX46Y46*%
G04 Gerber Fmt 4.6, Leading zero omitted, Abs format (unit mm)*
G04 Created by KiCad (PCBNEW (6.0.7)) date 2023-01-19 16:19:46*
%MOMM*%
%LPD*%
G01*
G04 APERTURE LIST*
G04 Aperture macros list*
%AMRoundRect*
0 Rectangle with rounded corners*
0 $1 Rounding radius*
0 $2 $3 $4 $5 $6 $7 $8 $9 X,Y pos of 4 corners*
0 Add a 4 corners polygon primitive as box body*
4,1,4,$2,$3,$4,$5,$6,$7,$8,$9,$2,$3,0*
0 Add four circle primitives for the rounded corners*
1,1,$1+$1,$2,$3*
1,1,$1+$1,$4,$5*
1,1,$1+$1,$6,$7*
1,1,$1+$1,$8,$9*
0 Add four rect primitives between the rounded corners*
20,1,$1+$1,$2,$3,$4,$5,0*
20,1,$1+$1,$4,$5,$6,$7,0*
20,1,$1+$1,$6,$7,$8,$9,0*
20,1,$1+$1,$8,$9,$2,$3,0*%
%AMRotRect*
0 Rectangle, with rotation*
0 The origin of the aperture is its center*
0 $1 length*
0 $2 width*
0 $3 Rotation angle, in degrees counterclockwise*
0 Add horizontal line*
21,1,$1,$2,0,0,$3*%
G04 Aperture macros list end*
%ADD10C,1.200000*%
%ADD11RoundRect,0.250000X0.725000X-0.600000X0.725000X0.600000X-0.725000X0.600000X-0.725000X-0.600000X0*%
%ADD12O,1.950000X1.700000*%
%ADD13RoundRect,0.250000X0.600000X0.725000X-0.600000X0.725000X-0.600000X-0.725000X0.600000X-0.725000X0*%
%ADD14O,1.700000X1.950000*%
%ADD15R,1.800000X2.500000*%
%ADD16RoundRect,0.135000X0.185000X-0.135000X0.185000X0.135000X-0.185000X0.135000X-0.185000X-0.135000X0*%
%ADD17RoundRect,0.150000X-0.587500X-0.150000X0.587500X-0.150000X0.587500X0.150000X-0.587500X0.150000X0*%
%ADD18RoundRect,0.250000X-1.500000X-1.000000X1.500000X-1.000000X1.500000X1.000000X-1.500000X1.000000X0*%
%ADD19RoundRect,0.250000X0.650000X-0.325000X0.650000X0.325000X-0.650000X0.325000X-0.650000X-0.325000X0*%
%ADD20RoundRect,0.140000X-0.140000X-0.170000X0.140000X-0.170000X0.140000X0.170000X-0.140000X0.170000X0*%
%ADD21RoundRect,0.250000X0.475000X-0.250000X0.475000X0.250000X-0.475000X0.250000X-0.475000X-0.250000X0*%
%ADD22RoundRect,0.062500X-0.062500X0.337500X-0.062500X-0.337500X0.062500X-0.337500X0.062500X0.337500X0*%
%ADD23RoundRect,0.062500X-0.337500X0.062500X-0.337500X-0.062500X0.337500X-0.062500X0.337500X0.062500X0*%
%ADD24R,3.350000X3.350000*%
%ADD25RoundRect,0.250000X0.325000X0.650000X-0.325000X0.650000X-0.325000X-0.650000X0.325000X-0.650000X0*%
%ADD26RoundRect,0.218750X-0.256250X0.218750X-0.256250X-0.218750X0.256250X-0.218750X0.256250X0.218750X0*%
%ADD27RoundRect,0.250000X-0.512652X-0.159099X-0.159099X-0.512652X0.512652X0.159099X0.159099X0.512652X0*%
%ADD28RoundRect,0.200000X0.275000X-0.200000X0.275000X0.200000X-0.275000X0.200000X-0.275000X-0.200000X0*%
%ADD29R,0.355600X1.676400*%
%ADD30RoundRect,0.250000X-0.250000X-0.475000X0.250000X-0.475000X0.250000X0.475000X-0.250000X0.475000X0*%
%ADD31RoundRect,0.200000X-0.800000X0.200000X-0.800000X-0.200000X0.800000X-0.200000X0.800000X0.200000X0*%
%ADD32RoundRect,0.135000X-0.135000X-0.185000X0.135000X-0.185000X0.135000X0.185000X-0.135000X0.185000X0*%
%ADD33RoundRect,0.225000X-0.250000X0.225000X-0.250000X-0.225000X0.250000X-0.225000X0.250000X0.225000X0*%
%ADD34RoundRect,0.135000X0.135000X0.185000X-0.135000X0.185000X-0.135000X-0.185000X0.135000X-0.185000X0*%
%ADD35RoundRect,0.225000X0.225000X0.250000X-0.225000X0.250000X-0.225000X-0.250000X0.225000X-0.250000X0*%
%ADD36RoundRect,0.150000X0.587500X0.150000X-0.587500X0.150000X-0.587500X-0.150000X0.587500X-0.150000X0*%
%ADD37RoundRect,0.135000X-0.185000X0.135000X-0.185000X-0.135000X0.185000X-0.135000X0.185000X0.135000X0*%
%ADD38RoundRect,0.250000X0.250000X0.475000X-0.250000X0.475000X-0.250000X-0.475000X0.250000X-0.475000X0*%
%ADD39RoundRect,0.218750X0.218750X0.256250X-0.218750X0.256250X-0.218750X-0.256250X0.218750X-0.256250X0*%
%ADD40R,1.500000X2.000000*%
%ADD41R,3.800000X2.000000*%
%ADD42RoundRect,0.135000X0.035355X-0.226274X0.226274X-0.035355X-0.035355X0.226274X-0.226274X0.035355X0*%
%ADD43RoundRect,0.250000X-0.132583X0.503814X-0.503814X0.132583X0.132583X-0.503814X0.503814X-0.132583X0*%
%ADD44RoundRect,0.200000X0.800000X-0.200000X0.800000X0.200000X-0.800000X0.200000X-0.800000X-0.200000X0*%
%ADD45RoundRect,0.218750X-0.218750X-0.256250X0.218750X-0.256250X0.218750X0.256250X-0.218750X0.256250X0*%
%ADD46C,0.900000*%
%ADD47R,1.250000X2.500000*%
%ADD48RoundRect,0.140000X0.140000X0.170000X-0.140000X0.170000X-0.140000X-0.170000X0.140000X-0.170000X0*%
%ADD49RoundRect,0.150000X-0.662500X-0.150000X0.662500X-0.150000X0.662500X0.150000X-0.662500X0.150000X0*%
%ADD50R,2.514000X3.200000*%
%ADD51R,2.000000X0.900000*%
%ADD52R,0.900000X2.000000*%
%ADD53R,5.000000X5.000000*%
%ADD54RoundRect,0.140000X0.170000X-0.140000X0.170000X0.140000X-0.170000X0.140000X-0.170000X-0.140000X0*%
%ADD55RoundRect,0.250000X-0.220971X0.662913X-0.662913X0.220971X0.220971X-0.662913X0.662913X-0.220971X0*%
%ADD56RoundRect,0.062500X0.185616X0.274004X-0.274004X-0.185616X-0.185616X-0.274004X0.274004X0.185616X0*%
%ADD57RoundRect,0.062500X-0.185616X0.274004X-0.274004X0.185616X0.185616X-0.274004X0.274004X-0.185616X0*%
%ADD58RotRect,3.750000X3.750000X225.000000*%
%ADD59RoundRect,0.250000X0.662913X0.220971X0.220971X0.662913X-0.662913X-0.220971X-0.220971X-0.662913X0*%
%ADD60RoundRect,0.218750X0.256250X-0.218750X0.256250X0.218750X-0.256250X0.218750X-0.256250X-0.218750X0*%
%ADD61RoundRect,0.225000X0.250000X-0.225000X0.250000X0.225000X-0.250000X0.225000X-0.250000X-0.225000X0*%
%ADD62C,2.000000*%
%ADD63R,5.400000X2.900000*%
%ADD64R,0.400000X1.350000*%
%ADD65O,1.000000X1.550000*%
%ADD66O,1.250000X0.950000*%
%ADD67RoundRect,0.140000X-0.170000X0.140000X-0.170000X-0.140000X0.170000X-0.140000X0.170000X0.140000X0*%
%ADD68C,1.152000*%
G04 APERTURE END LIST*
D10*
%TO.C,J3*%
X58781000Y-105898000D03*
D11*
X60781000Y-104298000D03*
D12*
X60781000Y-101798000D03*
X60781000Y-99298000D03*
X60781000Y-96798000D03*
X60781000Y-94298000D03*
X60781000Y-91798000D03*
X60781000Y-89298000D03*
X60781000Y-86798000D03*
%TD*%
D10*
%TO.C,J1*%
X173123200Y-119427000D03*
D11*
X175123200Y-117827000D03*
D12*
X175123200Y-115327000D03*
X175123200Y-112827000D03*
X175123200Y-110327000D03*
%TD*%
D10*
%TO.C,J1*%
X115960600Y-119427000D03*
D11*
X117960600Y-117827000D03*
D12*
X117960600Y-115327000D03*
X117960600Y-112827000D03*
X117960600Y-110327000D03*
%TD*%
D10*
%TO.C,J1*%
X115960600Y-54102000D03*
D11*
X117960600Y-52502000D03*
D12*
X117960600Y-50002000D03*
X117960600Y-47502000D03*
X117960600Y-45002000D03*
%TD*%
D10*
%TO.C,J3*%
X173106200Y-40573000D03*
D11*
X175106200Y-38973000D03*
D12*
X175106200Y-36473000D03*
X175106200Y-33973000D03*
X175106200Y-31473000D03*
X175106200Y-28973000D03*
X175106200Y-26473000D03*
X175106200Y-23973000D03*
X175106200Y-21473000D03*
%TD*%
D10*
%TO.C,J2*%
X39410000Y-104885000D03*
D13*
X37810000Y-102885000D03*
D14*
X35310000Y-102885000D03*
X32810000Y-102885000D03*
X30310000Y-102885000D03*
%TD*%
D10*
%TO.C,J3*%
X58781000Y-171223000D03*
D11*
X60781000Y-169623000D03*
D12*
X60781000Y-167123000D03*
X60781000Y-164623000D03*
X60781000Y-162123000D03*
X60781000Y-159623000D03*
X60781000Y-157123000D03*
X60781000Y-154623000D03*
X60781000Y-152123000D03*
%TD*%
D10*
%TO.C,J2*%
X96572600Y-170210000D03*
D13*
X94972600Y-168210000D03*
D14*
X92472600Y-168210000D03*
X89972600Y-168210000D03*
X87472600Y-168210000D03*
%TD*%
D10*
%TO.C,J3*%
X115943600Y-105898000D03*
D11*
X117943600Y-104298000D03*
D12*
X117943600Y-101798000D03*
X117943600Y-99298000D03*
X117943600Y-96798000D03*
X117943600Y-94298000D03*
X117943600Y-91798000D03*
X117943600Y-89298000D03*
X117943600Y-86798000D03*
%TD*%
D10*
%TO.C,J3*%
X115943600Y-40573000D03*
D11*
X117943600Y-38973000D03*
D12*
X117943600Y-36473000D03*
X117943600Y-33973000D03*
X117943600Y-31473000D03*
X117943600Y-28973000D03*
X117943600Y-26473000D03*
X117943600Y-23973000D03*
X117943600Y-21473000D03*
%TD*%
D10*
%TO.C,J2*%
X96572600Y-39560000D03*
D13*
X94972600Y-37560000D03*
D14*
X92472600Y-37560000D03*
X89972600Y-37560000D03*
X87472600Y-37560000D03*
%TD*%
D10*
%TO.C,J2*%
X39410000Y-39560000D03*
D13*
X37810000Y-37560000D03*
D14*
X35310000Y-37560000D03*
X32810000Y-37560000D03*
X30310000Y-37560000D03*
%TD*%
D10*
%TO.C,J2*%
X153735200Y-170210000D03*
D13*
X152135200Y-168210000D03*
D14*
X149635200Y-168210000D03*
X147135200Y-168210000D03*
X144635200Y-168210000D03*
%TD*%
D10*
%TO.C,J2*%
X39410000Y-170210000D03*
D13*
X37810000Y-168210000D03*
D14*
X35310000Y-168210000D03*
X32810000Y-168210000D03*
X30310000Y-168210000D03*
%TD*%
D10*
%TO.C,J2*%
X153735200Y-104885000D03*
D13*
X152135200Y-102885000D03*
D14*
X149635200Y-102885000D03*
X147135200Y-102885000D03*
X144635200Y-102885000D03*
%TD*%
D10*
%TO.C,J3*%
X173106200Y-105898000D03*
D11*
X175106200Y-104298000D03*
D12*
X175106200Y-101798000D03*
X175106200Y-99298000D03*
X175106200Y-96798000D03*
X175106200Y-94298000D03*
X175106200Y-91798000D03*
X175106200Y-89298000D03*
X175106200Y-86798000D03*
%TD*%
D10*
%TO.C,J1*%
X58798000Y-184752000D03*
D11*
X60798000Y-183152000D03*
D12*
X60798000Y-180652000D03*
X60798000Y-178152000D03*
X60798000Y-175652000D03*
%TD*%
D10*
%TO.C,J3*%
X58781000Y-40573000D03*
D11*
X60781000Y-38973000D03*
D12*
X60781000Y-36473000D03*
X60781000Y-33973000D03*
X60781000Y-31473000D03*
X60781000Y-28973000D03*
X60781000Y-26473000D03*
X60781000Y-23973000D03*
X60781000Y-21473000D03*
%TD*%
D10*
%TO.C,J1*%
X173123200Y-54102000D03*
D11*
X175123200Y-52502000D03*
D12*
X175123200Y-50002000D03*
X175123200Y-47502000D03*
X175123200Y-45002000D03*
%TD*%
D10*
%TO.C,J1*%
X115960600Y-184752000D03*
D11*
X117960600Y-183152000D03*
D12*
X117960600Y-180652000D03*
X117960600Y-178152000D03*
X117960600Y-175652000D03*
%TD*%
D10*
%TO.C,J1*%
X58798000Y-119427000D03*
D11*
X60798000Y-117827000D03*
D12*
X60798000Y-115327000D03*
X60798000Y-112827000D03*
X60798000Y-110327000D03*
%TD*%
D10*
%TO.C,J2*%
X96572600Y-104885000D03*
D13*
X94972600Y-102885000D03*
D14*
X92472600Y-102885000D03*
X89972600Y-102885000D03*
X87472600Y-102885000D03*
%TD*%
D10*
%TO.C,J3*%
X115943600Y-171223000D03*
D11*
X117943600Y-169623000D03*
D12*
X117943600Y-167123000D03*
X117943600Y-164623000D03*
X117943600Y-162123000D03*
X117943600Y-159623000D03*
X117943600Y-157123000D03*
X117943600Y-154623000D03*
X117943600Y-152123000D03*
%TD*%
D10*
%TO.C,J2*%
X153735200Y-39560000D03*
D13*
X152135200Y-37560000D03*
D14*
X149635200Y-37560000D03*
X147135200Y-37560000D03*
X144635200Y-37560000D03*
%TD*%
D10*
%TO.C,J3*%
X173106200Y-171223000D03*
D11*
X175106200Y-169623000D03*
D12*
X175106200Y-167123000D03*
X175106200Y-164623000D03*
X175106200Y-162123000D03*
X175106200Y-159623000D03*
X175106200Y-157123000D03*
X175106200Y-154623000D03*
X175106200Y-152123000D03*
%TD*%
D10*
%TO.C,J1*%
X173123200Y-184752000D03*
D11*
X175123200Y-183152000D03*
D12*
X175123200Y-180652000D03*
X175123200Y-178152000D03*
X175123200Y-175652000D03*
%TD*%
D10*
%TO.C,J1*%
X58798000Y-54102000D03*
D11*
X60798000Y-52502000D03*
D12*
X60798000Y-50002000D03*
X60798000Y-47502000D03*
X60798000Y-45002000D03*
%TD*%
D15*
%TO.C,D7*%
X14146600Y-178150800D03*
X14146600Y-174150800D03*
%TD*%
D16*
%TO.C,R19*%
X145050200Y-198063700D03*
X145050200Y-197043700D03*
%TD*%
D17*
%TO.C,Q1*%
X91174300Y-175734200D03*
X91174300Y-177634200D03*
X93049300Y-176684200D03*
%TD*%
D18*
%TO.C,C7*%
X96005100Y-55485000D03*
X102505100Y-55485000D03*
%TD*%
D19*
%TO.C,C3*%
X135655200Y-59580000D03*
X135655200Y-56630000D03*
%TD*%
D20*
%TO.C,C23*%
X13150000Y-104620000D03*
X14110000Y-104620000D03*
%TD*%
D21*
%TO.C,C4*%
X80776000Y-125068600D03*
X80776000Y-123168600D03*
%TD*%
D22*
%TO.C,U5*%
X135026400Y-168747800D03*
X134526400Y-168747800D03*
X134026400Y-168747800D03*
X133526400Y-168747800D03*
X133026400Y-168747800D03*
X132526400Y-168747800D03*
X132026400Y-168747800D03*
D23*
X131076400Y-169697800D03*
X131076400Y-170197800D03*
X131076400Y-170697800D03*
X131076400Y-171197800D03*
X131076400Y-171697800D03*
X131076400Y-172197800D03*
X131076400Y-172697800D03*
D22*
X132026400Y-173647800D03*
X132526400Y-173647800D03*
X133026400Y-173647800D03*
X133526400Y-173647800D03*
X134026400Y-173647800D03*
X134526400Y-173647800D03*
X135026400Y-173647800D03*
D23*
X135976400Y-172697800D03*
X135976400Y-172197800D03*
X135976400Y-171697800D03*
X135976400Y-171197800D03*
X135976400Y-170697800D03*
X135976400Y-170197800D03*
X135976400Y-169697800D03*
D24*
X133526400Y-171197800D03*
%TD*%
D25*
%TO.C,C30*%
X85097600Y-194365000D03*
X82147600Y-194365000D03*
%TD*%
D26*
%TO.C,D3*%
X135736200Y-49132900D03*
X135736200Y-50707900D03*
%TD*%
D27*
%TO.C,C6*%
X108940649Y-103270649D03*
X110284151Y-104614151D03*
%TD*%
D18*
%TO.C,C19*%
X41877500Y-129705000D03*
X48377500Y-129705000D03*
%TD*%
D28*
%TO.C,R20*%
X23710000Y-132865000D03*
X23710000Y-131215000D03*
%TD*%
D29*
%TO.C,U3*%
X112335099Y-156011300D03*
X111685101Y-156011300D03*
X111035099Y-156011300D03*
X110385101Y-156011300D03*
X109735102Y-156011300D03*
X109085101Y-156011300D03*
X108435102Y-156011300D03*
X107785101Y-156011300D03*
X107785101Y-161650100D03*
X108435099Y-161650100D03*
X109085101Y-161650100D03*
X109735099Y-161650100D03*
X110385098Y-161650100D03*
X111035099Y-161650100D03*
X111685098Y-161650100D03*
X112335099Y-161650100D03*
%TD*%
D30*
%TO.C,C24*%
X126975200Y-28615000D03*
X128875200Y-28615000D03*
%TD*%
D27*
%TO.C,C6*%
X166103249Y-103270649D03*
X167446751Y-104614151D03*
%TD*%
D21*
%TO.C,C31*%
X27760000Y-67805000D03*
X27760000Y-65905000D03*
%TD*%
D31*
%TO.C,SW2*%
X23266000Y-81982200D03*
X23266000Y-86182200D03*
%TD*%
D16*
%TO.C,R19*%
X30725000Y-198063700D03*
X30725000Y-197043700D03*
%TD*%
D32*
%TO.C,R4*%
X47830000Y-20855000D03*
X48850000Y-20855000D03*
%TD*%
D20*
%TO.C,C17*%
X54840000Y-23056700D03*
X55800000Y-23056700D03*
%TD*%
D33*
%TO.C,C10*%
X140816200Y-31467000D03*
X140816200Y-33017000D03*
%TD*%
D34*
%TO.C,R2*%
X23509600Y-88802800D03*
X22489600Y-88802800D03*
%TD*%
D25*
%TO.C,C30*%
X142260200Y-129040000D03*
X139310200Y-129040000D03*
%TD*%
D18*
%TO.C,C7*%
X38842500Y-55485000D03*
X45342500Y-55485000D03*
%TD*%
D35*
%TO.C,C32*%
X75487600Y-178955000D03*
X73937600Y-178955000D03*
%TD*%
D36*
%TO.C,Q2*%
X144411900Y-112284200D03*
X144411900Y-110384200D03*
X142536900Y-111334200D03*
%TD*%
D37*
%TO.C,R10*%
X27100600Y-156667000D03*
X27100600Y-157687000D03*
%TD*%
D25*
%TO.C,C30*%
X85097600Y-129040000D03*
X82147600Y-129040000D03*
%TD*%
D34*
%TO.C,R21*%
X71892600Y-95590000D03*
X70872600Y-95590000D03*
%TD*%
D38*
%TO.C,C25*%
X128875200Y-24615000D03*
X126975200Y-24615000D03*
%TD*%
D29*
%TO.C,U3*%
X112335099Y-90686300D03*
X111685101Y-90686300D03*
X111035099Y-90686300D03*
X110385101Y-90686300D03*
X109735102Y-90686300D03*
X109085101Y-90686300D03*
X108435102Y-90686300D03*
X107785101Y-90686300D03*
X107785101Y-96325100D03*
X108435099Y-96325100D03*
X109085101Y-96325100D03*
X109735099Y-96325100D03*
X110385098Y-96325100D03*
X111035099Y-96325100D03*
X111685098Y-96325100D03*
X112335099Y-96325100D03*
%TD*%
D39*
%TO.C,D5*%
X14070500Y-17154400D03*
X12495500Y-17154400D03*
%TD*%
D32*
%TO.C,R23*%
X14130000Y-105710000D03*
X15150000Y-105710000D03*
%TD*%
D21*
%TO.C,C31*%
X142085200Y-67805000D03*
X142085200Y-65905000D03*
%TD*%
D18*
%TO.C,C19*%
X99040100Y-64380000D03*
X105540100Y-64380000D03*
%TD*%
D40*
%TO.C,U6*%
X131455200Y-115890000D03*
D41*
X129155200Y-122190000D03*
D40*
X129155200Y-115890000D03*
X126855200Y-115890000D03*
%TD*%
D16*
%TO.C,R13*%
X78573600Y-118270000D03*
X78573600Y-117250000D03*
%TD*%
%TO.C,R19*%
X30725000Y-132738700D03*
X30725000Y-131718700D03*
%TD*%
D42*
%TO.C,R14*%
X101606376Y-115123424D03*
X102327624Y-114402176D03*
%TD*%
D36*
%TO.C,Q2*%
X87249300Y-177609200D03*
X87249300Y-175709200D03*
X85374300Y-176659200D03*
%TD*%
D43*
%TO.C,R17*%
X101469235Y-177512165D03*
X100178765Y-178802635D03*
%TD*%
D32*
%TO.C,R23*%
X71292600Y-105710000D03*
X72312600Y-105710000D03*
%TD*%
D15*
%TO.C,D8*%
X34830000Y-188435000D03*
X34830000Y-184435000D03*
%TD*%
D32*
%TO.C,R3*%
X77052600Y-18905000D03*
X78072600Y-18905000D03*
%TD*%
D20*
%TO.C,C20*%
X52820000Y-23056700D03*
X53780000Y-23056700D03*
%TD*%
D34*
%TO.C,R7*%
X89726200Y-175439600D03*
X88706200Y-175439600D03*
%TD*%
D37*
%TO.C,R24*%
X29793000Y-117233000D03*
X29793000Y-118253000D03*
%TD*%
D30*
%TO.C,C24*%
X12650000Y-28615000D03*
X14550000Y-28615000D03*
%TD*%
D32*
%TO.C,R1*%
X136825200Y-24619000D03*
X137845200Y-24619000D03*
%TD*%
D25*
%TO.C,C30*%
X142260200Y-63715000D03*
X139310200Y-63715000D03*
%TD*%
D20*
%TO.C,C23*%
X127475200Y-169945000D03*
X128435200Y-169945000D03*
%TD*%
D43*
%TO.C,R17*%
X101469235Y-112187165D03*
X100178765Y-113477635D03*
%TD*%
D44*
%TO.C,SW1*%
X165435200Y-20905000D03*
X165435200Y-16705000D03*
%TD*%
D39*
%TO.C,D5*%
X71233100Y-82479400D03*
X69658100Y-82479400D03*
%TD*%
D20*
%TO.C,C17*%
X54840000Y-88381700D03*
X55800000Y-88381700D03*
%TD*%
D21*
%TO.C,C1*%
X143755200Y-190165000D03*
X143755200Y-188265000D03*
%TD*%
D37*
%TO.C,R12*%
X81367600Y-182549600D03*
X81367600Y-183569600D03*
%TD*%
D21*
%TO.C,C14*%
X150874600Y-181901400D03*
X150874600Y-180001400D03*
%TD*%
D45*
%TO.C,D4*%
X19074100Y-146026400D03*
X20649100Y-146026400D03*
%TD*%
D46*
%TO.C,S1*%
X174485200Y-141885000D03*
X167685200Y-141885000D03*
D47*
X173585200Y-144635000D03*
X171085200Y-144635000D03*
X168585200Y-144635000D03*
%TD*%
D26*
%TO.C,D3*%
X135736200Y-179782900D03*
X135736200Y-181357900D03*
%TD*%
D16*
%TO.C,R6*%
X162145200Y-157665000D03*
X162145200Y-156645000D03*
%TD*%
D35*
%TO.C,C32*%
X18325000Y-178955000D03*
X16775000Y-178955000D03*
%TD*%
D48*
%TO.C,C27*%
X71242600Y-157265000D03*
X70282600Y-157265000D03*
%TD*%
D49*
%TO.C,U4*%
X89662100Y-193248100D03*
X89662100Y-194518100D03*
X89662100Y-195788100D03*
X89662100Y-197058100D03*
X94937100Y-197058100D03*
X94937100Y-195788100D03*
X94937100Y-194518100D03*
X94937100Y-193248100D03*
D50*
X92299600Y-195153100D03*
%TD*%
D21*
%TO.C,C4*%
X137938600Y-190393600D03*
X137938600Y-188493600D03*
%TD*%
D45*
%TO.C,D4*%
X19074100Y-15376400D03*
X20649100Y-15376400D03*
%TD*%
D20*
%TO.C,C20*%
X109982600Y-153706700D03*
X110942600Y-153706700D03*
%TD*%
D34*
%TO.C,R18*%
X47060400Y-169375000D03*
X46040400Y-169375000D03*
%TD*%
D51*
%TO.C,U1*%
X143273200Y-147691000D03*
X143273200Y-148961000D03*
X143273200Y-150231000D03*
X143273200Y-151501000D03*
X143273200Y-152771000D03*
X143273200Y-154041000D03*
X143273200Y-155311000D03*
X143273200Y-156581000D03*
X143273200Y-157851000D03*
X143273200Y-159121000D03*
X143273200Y-160391000D03*
X143273200Y-161661000D03*
X143273200Y-162931000D03*
X143273200Y-164201000D03*
D52*
X146058200Y-165201000D03*
X147328200Y-165201000D03*
X148598200Y-165201000D03*
X149868200Y-165201000D03*
X151138200Y-165201000D03*
X152408200Y-165201000D03*
X153678200Y-165201000D03*
X154948200Y-165201000D03*
X156218200Y-165201000D03*
X157488200Y-165201000D03*
D51*
X160273200Y-164201000D03*
X160273200Y-162931000D03*
X160273200Y-161661000D03*
X160273200Y-160391000D03*
X160273200Y-159121000D03*
X160273200Y-157851000D03*
X160273200Y-156581000D03*
X160273200Y-155311000D03*
X160273200Y-154041000D03*
X160273200Y-152771000D03*
X160273200Y-151501000D03*
X160273200Y-150231000D03*
X160273200Y-148961000D03*
X160273200Y-147691000D03*
D53*
X150773200Y-155191000D03*
%TD*%
D31*
%TO.C,SW2*%
X23266000Y-16657200D03*
X23266000Y-20857200D03*
%TD*%
D21*
%TO.C,C12*%
X49503400Y-186498800D03*
X49503400Y-184598800D03*
%TD*%
D16*
%TO.C,R6*%
X104982600Y-157665000D03*
X104982600Y-156645000D03*
%TD*%
%TO.C,R6*%
X162145200Y-92340000D03*
X162145200Y-91320000D03*
%TD*%
D26*
%TO.C,D3*%
X21411000Y-179782900D03*
X21411000Y-181357900D03*
%TD*%
D49*
%TO.C,U4*%
X89662100Y-127923100D03*
X89662100Y-129193100D03*
X89662100Y-130463100D03*
X89662100Y-131733100D03*
X94937100Y-131733100D03*
X94937100Y-130463100D03*
X94937100Y-129193100D03*
X94937100Y-127923100D03*
D50*
X92299600Y-129828100D03*
%TD*%
D48*
%TO.C,C27*%
X128405200Y-91940000D03*
X127445200Y-91940000D03*
%TD*%
D51*
%TO.C,U1*%
X86110600Y-147691000D03*
X86110600Y-148961000D03*
X86110600Y-150231000D03*
X86110600Y-151501000D03*
X86110600Y-152771000D03*
X86110600Y-154041000D03*
X86110600Y-155311000D03*
X86110600Y-156581000D03*
X86110600Y-157851000D03*
X86110600Y-159121000D03*
X86110600Y-160391000D03*
X86110600Y-161661000D03*
X86110600Y-162931000D03*
X86110600Y-164201000D03*
D52*
X88895600Y-165201000D03*
X90165600Y-165201000D03*
X91435600Y-165201000D03*
X92705600Y-165201000D03*
X93975600Y-165201000D03*
X95245600Y-165201000D03*
X96515600Y-165201000D03*
X97785600Y-165201000D03*
X99055600Y-165201000D03*
X100325600Y-165201000D03*
D51*
X103110600Y-164201000D03*
X103110600Y-162931000D03*
X103110600Y-161661000D03*
X103110600Y-160391000D03*
X103110600Y-159121000D03*
X103110600Y-157851000D03*
X103110600Y-156581000D03*
X103110600Y-155311000D03*
X103110600Y-154041000D03*
X103110600Y-152771000D03*
X103110600Y-151501000D03*
X103110600Y-150231000D03*
X103110600Y-148961000D03*
X103110600Y-147691000D03*
D53*
X93610600Y-155191000D03*
%TD*%
D54*
%TO.C,C2*%
X25576600Y-20860200D03*
X25576600Y-19900200D03*
%TD*%
D55*
%TO.C,R15*%
X113973944Y-109207456D03*
X111905656Y-111275744D03*
%TD*%
D46*
%TO.C,S1*%
X167685200Y-76560000D03*
X174485200Y-76560000D03*
D47*
X173585200Y-79310000D03*
X171085200Y-79310000D03*
X168585200Y-79310000D03*
%TD*%
D37*
%TO.C,R24*%
X144118200Y-51908000D03*
X144118200Y-52928000D03*
%TD*%
D19*
%TO.C,C3*%
X21330000Y-59580000D03*
X21330000Y-56630000D03*
%TD*%
D56*
%TO.C,U2*%
X165208111Y-43753410D03*
X164854557Y-43399856D03*
X164501004Y-43046303D03*
X164147450Y-42692750D03*
X163793897Y-42339196D03*
X163440344Y-41985643D03*
X163086790Y-41632089D03*
D57*
X161725610Y-41632089D03*
X161372056Y-41985643D03*
X161018503Y-42339196D03*
X160664950Y-42692750D03*
X160311396Y-43046303D03*
X159957843Y-43399856D03*
X159604289Y-43753410D03*
D56*
X159604289Y-45114590D03*
X159957843Y-45468144D03*
X160311396Y-45821697D03*
X160664950Y-46175250D03*
X161018503Y-46528804D03*
X161372056Y-46882357D03*
X161725610Y-47235911D03*
D57*
X163086790Y-47235911D03*
X163440344Y-46882357D03*
X163793897Y-46528804D03*
X164147450Y-46175250D03*
X164501004Y-45821697D03*
X164854557Y-45468144D03*
X165208111Y-45114590D03*
D58*
X162406200Y-44434000D03*
%TD*%
D25*
%TO.C,C30*%
X27935000Y-129040000D03*
X24985000Y-129040000D03*
%TD*%
D34*
%TO.C,R11*%
X84290600Y-95433400D03*
X83270600Y-95433400D03*
%TD*%
D29*
%TO.C,U3*%
X169497699Y-90686300D03*
X168847701Y-90686300D03*
X168197699Y-90686300D03*
X167547701Y-90686300D03*
X166897702Y-90686300D03*
X166247701Y-90686300D03*
X165597702Y-90686300D03*
X164947701Y-90686300D03*
X164947701Y-96325100D03*
X165597699Y-96325100D03*
X166247701Y-96325100D03*
X166897699Y-96325100D03*
X167547698Y-96325100D03*
X168197699Y-96325100D03*
X168847698Y-96325100D03*
X169497699Y-96325100D03*
%TD*%
D54*
%TO.C,C29*%
X30670000Y-65235000D03*
X30670000Y-64275000D03*
%TD*%
D27*
%TO.C,C6*%
X166103249Y-37945649D03*
X167446751Y-39289151D03*
%TD*%
D26*
%TO.C,D3*%
X78573600Y-49132900D03*
X78573600Y-50707900D03*
%TD*%
D54*
%TO.C,C2*%
X25576600Y-86185200D03*
X25576600Y-85225200D03*
%TD*%
D16*
%TO.C,R9*%
X84034600Y-52818000D03*
X84034600Y-51798000D03*
%TD*%
D48*
%TO.C,C22*%
X108923600Y-88445700D03*
X107963600Y-88445700D03*
%TD*%
D59*
%TO.C,R16*%
X167504344Y-182645944D03*
X165436056Y-180577656D03*
%TD*%
D35*
%TO.C,C11*%
X140118000Y-157126200D03*
X138568000Y-157126200D03*
%TD*%
D26*
%TO.C,D2*%
X138530200Y-49107500D03*
X138530200Y-50682500D03*
%TD*%
D32*
%TO.C,R5*%
X104992600Y-152705000D03*
X106012600Y-152705000D03*
%TD*%
D18*
%TO.C,C7*%
X153167700Y-186135000D03*
X159667700Y-186135000D03*
%TD*%
D48*
%TO.C,C22*%
X51761000Y-23120700D03*
X50801000Y-23120700D03*
%TD*%
D16*
%TO.C,R13*%
X78573600Y-183595000D03*
X78573600Y-182575000D03*
%TD*%
D20*
%TO.C,C16*%
X22505800Y-152909800D03*
X23465800Y-152909800D03*
%TD*%
D15*
%TO.C,D7*%
X14146600Y-47500800D03*
X14146600Y-43500800D03*
%TD*%
D19*
%TO.C,C3*%
X78492600Y-59580000D03*
X78492600Y-56630000D03*
%TD*%
D38*
%TO.C,C25*%
X71712600Y-155265000D03*
X69812600Y-155265000D03*
%TD*%
D20*
%TO.C,C17*%
X169165200Y-23056700D03*
X170125200Y-23056700D03*
%TD*%
D32*
%TO.C,R23*%
X128455200Y-171035000D03*
X129475200Y-171035000D03*
%TD*%
%TO.C,R1*%
X136825200Y-89944000D03*
X137845200Y-89944000D03*
%TD*%
D30*
%TO.C,C28*%
X146675200Y-60615000D03*
X148575200Y-60615000D03*
%TD*%
D56*
%TO.C,U2*%
X165208111Y-174403410D03*
X164854557Y-174049856D03*
X164501004Y-173696303D03*
X164147450Y-173342750D03*
X163793897Y-172989196D03*
X163440344Y-172635643D03*
X163086790Y-172282089D03*
D57*
X161725610Y-172282089D03*
X161372056Y-172635643D03*
X161018503Y-172989196D03*
X160664950Y-173342750D03*
X160311396Y-173696303D03*
X159957843Y-174049856D03*
X159604289Y-174403410D03*
D56*
X159604289Y-175764590D03*
X159957843Y-176118144D03*
X160311396Y-176471697D03*
X160664950Y-176825250D03*
X161018503Y-177178804D03*
X161372056Y-177532357D03*
X161725610Y-177885911D03*
D57*
X163086790Y-177885911D03*
X163440344Y-177532357D03*
X163793897Y-177178804D03*
X164147450Y-176825250D03*
X164501004Y-176471697D03*
X164854557Y-176118144D03*
X165208111Y-175764590D03*
D58*
X162406200Y-175084000D03*
%TD*%
D39*
%TO.C,D6*%
X71258500Y-80752200D03*
X69683500Y-80752200D03*
%TD*%
D19*
%TO.C,C3*%
X135655200Y-124905000D03*
X135655200Y-121955000D03*
%TD*%
D36*
%TO.C,Q2*%
X30086700Y-112284200D03*
X30086700Y-110384200D03*
X28211700Y-111334200D03*
%TD*%
D35*
%TO.C,C11*%
X82955400Y-26476200D03*
X81405400Y-26476200D03*
%TD*%
D31*
%TO.C,SW2*%
X23266000Y-147307200D03*
X23266000Y-151507200D03*
%TD*%
D18*
%TO.C,C7*%
X38842500Y-120810000D03*
X45342500Y-120810000D03*
%TD*%
D30*
%TO.C,C28*%
X89512600Y-125940000D03*
X91412600Y-125940000D03*
%TD*%
D20*
%TO.C,C20*%
X167145200Y-88381700D03*
X168105200Y-88381700D03*
%TD*%
D26*
%TO.C,D9*%
X86955600Y-179630500D03*
X86955600Y-181205500D03*
%TD*%
D32*
%TO.C,R5*%
X162155200Y-22055000D03*
X163175200Y-22055000D03*
%TD*%
D34*
%TO.C,R18*%
X47060400Y-38725000D03*
X46040400Y-38725000D03*
%TD*%
D38*
%TO.C,C8*%
X104263200Y-37068000D03*
X102363200Y-37068000D03*
%TD*%
D34*
%TO.C,R18*%
X161385600Y-104050000D03*
X160365600Y-104050000D03*
%TD*%
D16*
%TO.C,R6*%
X104982600Y-27015000D03*
X104982600Y-25995000D03*
%TD*%
D60*
%TO.C,D1*%
X26872000Y-50555500D03*
X26872000Y-48980500D03*
%TD*%
D18*
%TO.C,C19*%
X156202700Y-129705000D03*
X162702700Y-129705000D03*
%TD*%
D59*
%TO.C,R16*%
X53179144Y-117320944D03*
X51110856Y-115252656D03*
%TD*%
D26*
%TO.C,D9*%
X86955600Y-48980500D03*
X86955600Y-50555500D03*
%TD*%
D16*
%TO.C,R22*%
X143765200Y-67455000D03*
X143765200Y-66435000D03*
%TD*%
D48*
%TO.C,C22*%
X108923600Y-153770700D03*
X107963600Y-153770700D03*
%TD*%
D19*
%TO.C,C18*%
X31750000Y-58440000D03*
X31750000Y-55490000D03*
%TD*%
D61*
%TO.C,C9*%
X84763800Y-59594000D03*
X84763800Y-58044000D03*
%TD*%
D37*
%TO.C,R12*%
X24205000Y-182549600D03*
X24205000Y-183569600D03*
%TD*%
D30*
%TO.C,C28*%
X32350000Y-60615000D03*
X34250000Y-60615000D03*
%TD*%
D43*
%TO.C,R17*%
X101469235Y-46862165D03*
X100178765Y-48152635D03*
%TD*%
D15*
%TO.C,D7*%
X71309200Y-112825800D03*
X71309200Y-108825800D03*
%TD*%
D44*
%TO.C,SW1*%
X51110000Y-151555000D03*
X51110000Y-147355000D03*
%TD*%
D55*
%TO.C,R15*%
X56811344Y-174532456D03*
X54743056Y-176600744D03*
%TD*%
D30*
%TO.C,C28*%
X146675200Y-191265000D03*
X148575200Y-191265000D03*
%TD*%
D44*
%TO.C,SW1*%
X51110000Y-86230000D03*
X51110000Y-82030000D03*
%TD*%
D26*
%TO.C,D9*%
X86955600Y-114305500D03*
X86955600Y-115880500D03*
%TD*%
D21*
%TO.C,C31*%
X27760000Y-133130000D03*
X27760000Y-131230000D03*
%TD*%
%TO.C,C31*%
X84922600Y-133130000D03*
X84922600Y-131230000D03*
%TD*%
D34*
%TO.C,R21*%
X14730000Y-30265000D03*
X13710000Y-30265000D03*
%TD*%
D59*
%TO.C,R16*%
X110341744Y-117320944D03*
X108273456Y-115252656D03*
%TD*%
D62*
%TO.C,REF\u002A\u002A*%
X8000000Y-4000000D03*
%TD*%
D17*
%TO.C,Q1*%
X91174300Y-45084200D03*
X91174300Y-46984200D03*
X93049300Y-46034200D03*
%TD*%
D40*
%TO.C,U6*%
X17130000Y-115890000D03*
D41*
X14830000Y-122190000D03*
D40*
X14830000Y-115890000D03*
X12530000Y-115890000D03*
%TD*%
D35*
%TO.C,C32*%
X132650200Y-178955000D03*
X131100200Y-178955000D03*
%TD*%
%TO.C,C32*%
X18325000Y-113630000D03*
X16775000Y-113630000D03*
%TD*%
D60*
%TO.C,D1*%
X84034600Y-50555500D03*
X84034600Y-48980500D03*
%TD*%
D30*
%TO.C,C28*%
X32350000Y-125940000D03*
X34250000Y-125940000D03*
%TD*%
D26*
%TO.C,D3*%
X135736200Y-114457900D03*
X135736200Y-116032900D03*
%TD*%
D37*
%TO.C,R10*%
X27100600Y-91342000D03*
X27100600Y-92362000D03*
%TD*%
D32*
%TO.C,R3*%
X77052600Y-84230000D03*
X78072600Y-84230000D03*
%TD*%
D48*
%TO.C,C13*%
X169705200Y-20695000D03*
X168745200Y-20695000D03*
%TD*%
D16*
%TO.C,R6*%
X47820000Y-157665000D03*
X47820000Y-156645000D03*
%TD*%
D51*
%TO.C,U1*%
X143273200Y-82366000D03*
X143273200Y-83636000D03*
X143273200Y-84906000D03*
X143273200Y-86176000D03*
X143273200Y-87446000D03*
X143273200Y-88716000D03*
X143273200Y-89986000D03*
X143273200Y-91256000D03*
X143273200Y-92526000D03*
X143273200Y-93796000D03*
X143273200Y-95066000D03*
X143273200Y-96336000D03*
X143273200Y-97606000D03*
X143273200Y-98876000D03*
D52*
X146058200Y-99876000D03*
X147328200Y-99876000D03*
X148598200Y-99876000D03*
X149868200Y-99876000D03*
X151138200Y-99876000D03*
X152408200Y-99876000D03*
X153678200Y-99876000D03*
X154948200Y-99876000D03*
X156218200Y-99876000D03*
X157488200Y-99876000D03*
D51*
X160273200Y-98876000D03*
X160273200Y-97606000D03*
X160273200Y-96336000D03*
X160273200Y-95066000D03*
X160273200Y-93796000D03*
X160273200Y-92526000D03*
X160273200Y-91256000D03*
X160273200Y-89986000D03*
X160273200Y-88716000D03*
X160273200Y-87446000D03*
X160273200Y-86176000D03*
X160273200Y-84906000D03*
X160273200Y-83636000D03*
X160273200Y-82366000D03*
D53*
X150773200Y-89866000D03*
%TD*%
D54*
%TO.C,C15*%
X135243900Y-148254600D03*
X135243900Y-147294600D03*
%TD*%
D34*
%TO.C,R8*%
X146888800Y-112603800D03*
X145868800Y-112603800D03*
%TD*%
D55*
%TO.C,R15*%
X171136544Y-43882456D03*
X169068256Y-45950744D03*
%TD*%
D48*
%TO.C,C22*%
X166086200Y-88445700D03*
X165126200Y-88445700D03*
%TD*%
D20*
%TO.C,C23*%
X70312600Y-104620000D03*
X71272600Y-104620000D03*
%TD*%
D38*
%TO.C,C25*%
X71712600Y-89940000D03*
X69812600Y-89940000D03*
%TD*%
D54*
%TO.C,C15*%
X78081300Y-148254600D03*
X78081300Y-147294600D03*
%TD*%
D20*
%TO.C,C20*%
X52820000Y-153706700D03*
X53780000Y-153706700D03*
%TD*%
D31*
%TO.C,SW2*%
X137591200Y-147307200D03*
X137591200Y-151507200D03*
%TD*%
D39*
%TO.C,D5*%
X71233100Y-147804400D03*
X69658100Y-147804400D03*
%TD*%
D59*
%TO.C,R16*%
X167504344Y-51995944D03*
X165436056Y-49927656D03*
%TD*%
D16*
%TO.C,R9*%
X141197200Y-52818000D03*
X141197200Y-51798000D03*
%TD*%
D39*
%TO.C,D5*%
X71233100Y-17154400D03*
X69658100Y-17154400D03*
%TD*%
D60*
%TO.C,D1*%
X84034600Y-115880500D03*
X84034600Y-114305500D03*
%TD*%
D54*
%TO.C,C2*%
X82739200Y-151510200D03*
X82739200Y-150550200D03*
%TD*%
D21*
%TO.C,C12*%
X163828600Y-55848800D03*
X163828600Y-53948800D03*
%TD*%
D16*
%TO.C,R9*%
X84034600Y-118143000D03*
X84034600Y-117123000D03*
%TD*%
D15*
%TO.C,D7*%
X128471800Y-112825800D03*
X128471800Y-108825800D03*
%TD*%
D21*
%TO.C,C1*%
X29430000Y-59515000D03*
X29430000Y-57615000D03*
%TD*%
%TO.C,C5*%
X140021400Y-190241200D03*
X140021400Y-188341200D03*
%TD*%
D56*
%TO.C,U2*%
X108045511Y-43753410D03*
X107691957Y-43399856D03*
X107338404Y-43046303D03*
X106984850Y-42692750D03*
X106631297Y-42339196D03*
X106277744Y-41985643D03*
X105924190Y-41632089D03*
D57*
X104563010Y-41632089D03*
X104209456Y-41985643D03*
X103855903Y-42339196D03*
X103502350Y-42692750D03*
X103148796Y-43046303D03*
X102795243Y-43399856D03*
X102441689Y-43753410D03*
D56*
X102441689Y-45114590D03*
X102795243Y-45468144D03*
X103148796Y-45821697D03*
X103502350Y-46175250D03*
X103855903Y-46528804D03*
X104209456Y-46882357D03*
X104563010Y-47235911D03*
D57*
X105924190Y-47235911D03*
X106277744Y-46882357D03*
X106631297Y-46528804D03*
X106984850Y-46175250D03*
X107338404Y-45821697D03*
X107691957Y-45468144D03*
X108045511Y-45114590D03*
D58*
X105243600Y-44434000D03*
%TD*%
D21*
%TO.C,C1*%
X143755200Y-59515000D03*
X143755200Y-57615000D03*
%TD*%
D20*
%TO.C,C23*%
X13150000Y-39295000D03*
X14110000Y-39295000D03*
%TD*%
D21*
%TO.C,C12*%
X163828600Y-186498800D03*
X163828600Y-184598800D03*
%TD*%
D15*
%TO.C,D7*%
X128471800Y-47500800D03*
X128471800Y-43500800D03*
%TD*%
D18*
%TO.C,C19*%
X41877500Y-64380000D03*
X48377500Y-64380000D03*
%TD*%
D63*
%TO.C,L1*%
X57680000Y-197955000D03*
X57680000Y-188055000D03*
%TD*%
D20*
%TO.C,C20*%
X167145200Y-153706700D03*
X168105200Y-153706700D03*
%TD*%
D34*
%TO.C,R18*%
X104223000Y-104050000D03*
X103203000Y-104050000D03*
%TD*%
%TO.C,R21*%
X129055200Y-95590000D03*
X128035200Y-95590000D03*
%TD*%
%TO.C,R11*%
X141453200Y-95433400D03*
X140433200Y-95433400D03*
%TD*%
D54*
%TO.C,C15*%
X135243900Y-17604600D03*
X135243900Y-16644600D03*
%TD*%
D43*
%TO.C,R17*%
X44306635Y-177512165D03*
X43016165Y-178802635D03*
%TD*%
D30*
%TO.C,C28*%
X146675200Y-125940000D03*
X148575200Y-125940000D03*
%TD*%
D18*
%TO.C,C19*%
X41877500Y-195030000D03*
X48377500Y-195030000D03*
%TD*%
D54*
%TO.C,C29*%
X144995200Y-195885000D03*
X144995200Y-194925000D03*
%TD*%
%TO.C,C15*%
X135243900Y-82929600D03*
X135243900Y-81969600D03*
%TD*%
D25*
%TO.C,C30*%
X142260200Y-194365000D03*
X139310200Y-194365000D03*
%TD*%
D32*
%TO.C,R3*%
X19890000Y-149555000D03*
X20910000Y-149555000D03*
%TD*%
D17*
%TO.C,Q1*%
X34011700Y-110409200D03*
X34011700Y-112309200D03*
X35886700Y-111359200D03*
%TD*%
%TO.C,Q1*%
X148336900Y-110409200D03*
X148336900Y-112309200D03*
X150211900Y-111359200D03*
%TD*%
D40*
%TO.C,U6*%
X74292600Y-50565000D03*
D41*
X71992600Y-56865000D03*
D40*
X71992600Y-50565000D03*
X69692600Y-50565000D03*
%TD*%
D34*
%TO.C,R2*%
X137834800Y-23477800D03*
X136814800Y-23477800D03*
%TD*%
D49*
%TO.C,U4*%
X146824700Y-62598100D03*
X146824700Y-63868100D03*
X146824700Y-65138100D03*
X146824700Y-66408100D03*
X152099700Y-66408100D03*
X152099700Y-65138100D03*
X152099700Y-63868100D03*
X152099700Y-62598100D03*
D50*
X149462200Y-64503100D03*
%TD*%
D42*
%TO.C,R14*%
X101606376Y-49798424D03*
X102327624Y-49077176D03*
%TD*%
D45*
%TO.C,D4*%
X133399300Y-146026400D03*
X134974300Y-146026400D03*
%TD*%
D61*
%TO.C,C9*%
X141926400Y-59594000D03*
X141926400Y-58044000D03*
%TD*%
D32*
%TO.C,R1*%
X79662600Y-155269000D03*
X80682600Y-155269000D03*
%TD*%
D38*
%TO.C,C8*%
X104263200Y-167718000D03*
X102363200Y-167718000D03*
%TD*%
D37*
%TO.C,R10*%
X141425800Y-156667000D03*
X141425800Y-157687000D03*
%TD*%
D54*
%TO.C,C15*%
X78081300Y-17604600D03*
X78081300Y-16644600D03*
%TD*%
D42*
%TO.C,R14*%
X44443776Y-180448424D03*
X45165024Y-179727176D03*
%TD*%
D35*
%TO.C,C11*%
X25792800Y-91801200D03*
X24242800Y-91801200D03*
%TD*%
D21*
%TO.C,C1*%
X143755200Y-124840000D03*
X143755200Y-122940000D03*
%TD*%
D29*
%TO.C,U3*%
X55172499Y-156011300D03*
X54522501Y-156011300D03*
X53872499Y-156011300D03*
X53222501Y-156011300D03*
X52572502Y-156011300D03*
X51922501Y-156011300D03*
X51272502Y-156011300D03*
X50622501Y-156011300D03*
X50622501Y-161650100D03*
X51272499Y-161650100D03*
X51922501Y-161650100D03*
X52572499Y-161650100D03*
X53222498Y-161650100D03*
X53872499Y-161650100D03*
X54522498Y-161650100D03*
X55172499Y-161650100D03*
%TD*%
D33*
%TO.C,C10*%
X26491000Y-31467000D03*
X26491000Y-33017000D03*
%TD*%
D56*
%TO.C,U2*%
X50882911Y-174403410D03*
X50529357Y-174049856D03*
X50175804Y-173696303D03*
X49822250Y-173342750D03*
X49468697Y-172989196D03*
X49115144Y-172635643D03*
X48761590Y-172282089D03*
D57*
X47400410Y-172282089D03*
X47046856Y-172635643D03*
X46693303Y-172989196D03*
X46339750Y-173342750D03*
X45986196Y-173696303D03*
X45632643Y-174049856D03*
X45279089Y-174403410D03*
D56*
X45279089Y-175764590D03*
X45632643Y-176118144D03*
X45986196Y-176471697D03*
X46339750Y-176825250D03*
X46693303Y-177178804D03*
X47046856Y-177532357D03*
X47400410Y-177885911D03*
D57*
X48761590Y-177885911D03*
X49115144Y-177532357D03*
X49468697Y-177178804D03*
X49822250Y-176825250D03*
X50175804Y-176471697D03*
X50529357Y-176118144D03*
X50882911Y-175764590D03*
D58*
X48081000Y-175084000D03*
%TD*%
D21*
%TO.C,C4*%
X80776000Y-190393600D03*
X80776000Y-188493600D03*
%TD*%
D54*
%TO.C,C2*%
X139901800Y-151510200D03*
X139901800Y-150550200D03*
%TD*%
D19*
%TO.C,C18*%
X88912600Y-58440000D03*
X88912600Y-55490000D03*
%TD*%
D40*
%TO.C,U6*%
X74292600Y-181215000D03*
D41*
X71992600Y-187515000D03*
D40*
X71992600Y-181215000D03*
X69692600Y-181215000D03*
%TD*%
D51*
%TO.C,U1*%
X143273200Y-17041000D03*
X143273200Y-18311000D03*
X143273200Y-19581000D03*
X143273200Y-20851000D03*
X143273200Y-22121000D03*
X143273200Y-23391000D03*
X143273200Y-24661000D03*
X143273200Y-25931000D03*
X143273200Y-27201000D03*
X143273200Y-28471000D03*
X143273200Y-29741000D03*
X143273200Y-31011000D03*
X143273200Y-32281000D03*
X143273200Y-33551000D03*
D52*
X146058200Y-34551000D03*
X147328200Y-34551000D03*
X148598200Y-34551000D03*
X149868200Y-34551000D03*
X151138200Y-34551000D03*
X152408200Y-34551000D03*
X153678200Y-34551000D03*
X154948200Y-34551000D03*
X156218200Y-34551000D03*
X157488200Y-34551000D03*
D51*
X160273200Y-33551000D03*
X160273200Y-32281000D03*
X160273200Y-31011000D03*
X160273200Y-29741000D03*
X160273200Y-28471000D03*
X160273200Y-27201000D03*
X160273200Y-25931000D03*
X160273200Y-24661000D03*
X160273200Y-23391000D03*
X160273200Y-22121000D03*
X160273200Y-20851000D03*
X160273200Y-19581000D03*
X160273200Y-18311000D03*
X160273200Y-17041000D03*
D53*
X150773200Y-24541000D03*
%TD*%
D51*
%TO.C,U1*%
X86110600Y-17041000D03*
X86110600Y-18311000D03*
X86110600Y-19581000D03*
X86110600Y-20851000D03*
X86110600Y-22121000D03*
X86110600Y-23391000D03*
X86110600Y-24661000D03*
X86110600Y-25931000D03*
X86110600Y-27201000D03*
X86110600Y-28471000D03*
X86110600Y-29741000D03*
X86110600Y-31011000D03*
X86110600Y-32281000D03*
X86110600Y-33551000D03*
D52*
X88895600Y-34551000D03*
X90165600Y-34551000D03*
X91435600Y-34551000D03*
X92705600Y-34551000D03*
X93975600Y-34551000D03*
X95245600Y-34551000D03*
X96515600Y-34551000D03*
X97785600Y-34551000D03*
X99055600Y-34551000D03*
X100325600Y-34551000D03*
D51*
X103110600Y-33551000D03*
X103110600Y-32281000D03*
X103110600Y-31011000D03*
X103110600Y-29741000D03*
X103110600Y-28471000D03*
X103110600Y-27201000D03*
X103110600Y-25931000D03*
X103110600Y-24661000D03*
X103110600Y-23391000D03*
X103110600Y-22121000D03*
X103110600Y-20851000D03*
X103110600Y-19581000D03*
X103110600Y-18311000D03*
X103110600Y-17041000D03*
D53*
X93610600Y-24541000D03*
%TD*%
D16*
%TO.C,R6*%
X47820000Y-92340000D03*
X47820000Y-91320000D03*
%TD*%
D63*
%TO.C,L1*%
X172005200Y-132630000D03*
X172005200Y-122730000D03*
%TD*%
D34*
%TO.C,R18*%
X161385600Y-38725000D03*
X160365600Y-38725000D03*
%TD*%
D32*
%TO.C,R5*%
X47830000Y-22055000D03*
X48850000Y-22055000D03*
%TD*%
%TO.C,R5*%
X104992600Y-87380000D03*
X106012600Y-87380000D03*
%TD*%
D43*
%TO.C,R17*%
X158631835Y-177512165D03*
X157341365Y-178802635D03*
%TD*%
D48*
%TO.C,C27*%
X14080000Y-157265000D03*
X13120000Y-157265000D03*
%TD*%
D60*
%TO.C,D1*%
X141197200Y-181205500D03*
X141197200Y-179630500D03*
%TD*%
D32*
%TO.C,R5*%
X104992600Y-22055000D03*
X106012600Y-22055000D03*
%TD*%
D17*
%TO.C,Q1*%
X91174300Y-110409200D03*
X91174300Y-112309200D03*
X93049300Y-111359200D03*
%TD*%
D59*
%TO.C,R16*%
X110341744Y-51995944D03*
X108273456Y-49927656D03*
%TD*%
D21*
%TO.C,C14*%
X93712000Y-51251400D03*
X93712000Y-49351400D03*
%TD*%
D20*
%TO.C,C23*%
X13150000Y-169945000D03*
X14110000Y-169945000D03*
%TD*%
D37*
%TO.C,R10*%
X84263200Y-26017000D03*
X84263200Y-27037000D03*
%TD*%
D32*
%TO.C,R3*%
X77052600Y-149555000D03*
X78072600Y-149555000D03*
%TD*%
D21*
%TO.C,C12*%
X49503400Y-55848800D03*
X49503400Y-53948800D03*
%TD*%
D28*
%TO.C,R20*%
X80872600Y-132865000D03*
X80872600Y-131215000D03*
%TD*%
D20*
%TO.C,C16*%
X79668400Y-87584800D03*
X80628400Y-87584800D03*
%TD*%
D64*
%TO.C,J4*%
X75149200Y-78860000D03*
X74499200Y-78860000D03*
X73849200Y-78860000D03*
X73199200Y-78860000D03*
X72549200Y-78860000D03*
D65*
X77349200Y-76160000D03*
D66*
X76349200Y-78860000D03*
X71349200Y-78860000D03*
D65*
X70349200Y-76160000D03*
%TD*%
D22*
%TO.C,U5*%
X77863800Y-168747800D03*
X77363800Y-168747800D03*
X76863800Y-168747800D03*
X76363800Y-168747800D03*
X75863800Y-168747800D03*
X75363800Y-168747800D03*
X74863800Y-168747800D03*
D23*
X73913800Y-169697800D03*
X73913800Y-170197800D03*
X73913800Y-170697800D03*
X73913800Y-171197800D03*
X73913800Y-171697800D03*
X73913800Y-172197800D03*
X73913800Y-172697800D03*
D22*
X74863800Y-173647800D03*
X75363800Y-173647800D03*
X75863800Y-173647800D03*
X76363800Y-173647800D03*
X76863800Y-173647800D03*
X77363800Y-173647800D03*
X77863800Y-173647800D03*
D23*
X78813800Y-172697800D03*
X78813800Y-172197800D03*
X78813800Y-171697800D03*
X78813800Y-171197800D03*
X78813800Y-170697800D03*
X78813800Y-170197800D03*
X78813800Y-169697800D03*
D24*
X76363800Y-171197800D03*
%TD*%
D35*
%TO.C,C11*%
X25792800Y-26476200D03*
X24242800Y-26476200D03*
%TD*%
D19*
%TO.C,C3*%
X78492600Y-190230000D03*
X78492600Y-187280000D03*
%TD*%
D45*
%TO.C,D4*%
X76236700Y-80701400D03*
X77811700Y-80701400D03*
%TD*%
D34*
%TO.C,R8*%
X32563600Y-47278800D03*
X31543600Y-47278800D03*
%TD*%
D48*
%TO.C,C13*%
X55380000Y-86020000D03*
X54420000Y-86020000D03*
%TD*%
D62*
%TO.C,REF\u002A\u002A*%
X8000000Y-204975000D03*
%TD*%
D63*
%TO.C,L1*%
X57680000Y-67305000D03*
X57680000Y-57405000D03*
%TD*%
D36*
%TO.C,Q2*%
X144411900Y-177609200D03*
X144411900Y-175709200D03*
X142536900Y-176659200D03*
%TD*%
%TO.C,Q2*%
X87249300Y-46959200D03*
X87249300Y-45059200D03*
X85374300Y-46009200D03*
%TD*%
D38*
%TO.C,C8*%
X161425800Y-167718000D03*
X159525800Y-167718000D03*
%TD*%
D48*
%TO.C,C27*%
X14080000Y-26615000D03*
X13120000Y-26615000D03*
%TD*%
D30*
%TO.C,C24*%
X69812600Y-93940000D03*
X71712600Y-93940000D03*
%TD*%
D51*
%TO.C,U1*%
X28948000Y-82366000D03*
X28948000Y-83636000D03*
X28948000Y-84906000D03*
X28948000Y-86176000D03*
X28948000Y-87446000D03*
X28948000Y-88716000D03*
X28948000Y-89986000D03*
X28948000Y-91256000D03*
X28948000Y-92526000D03*
X28948000Y-93796000D03*
X28948000Y-95066000D03*
X28948000Y-96336000D03*
X28948000Y-97606000D03*
X28948000Y-98876000D03*
D52*
X31733000Y-99876000D03*
X33003000Y-99876000D03*
X34273000Y-99876000D03*
X35543000Y-99876000D03*
X36813000Y-99876000D03*
X38083000Y-99876000D03*
X39353000Y-99876000D03*
X40623000Y-99876000D03*
X41893000Y-99876000D03*
X43163000Y-99876000D03*
D51*
X45948000Y-98876000D03*
X45948000Y-97606000D03*
X45948000Y-96336000D03*
X45948000Y-95066000D03*
X45948000Y-93796000D03*
X45948000Y-92526000D03*
X45948000Y-91256000D03*
X45948000Y-89986000D03*
X45948000Y-88716000D03*
X45948000Y-87446000D03*
X45948000Y-86176000D03*
X45948000Y-84906000D03*
X45948000Y-83636000D03*
X45948000Y-82366000D03*
D53*
X36448000Y-89866000D03*
%TD*%
D21*
%TO.C,C12*%
X49503400Y-121173800D03*
X49503400Y-119273800D03*
%TD*%
D34*
%TO.C,R2*%
X23509600Y-154127800D03*
X22489600Y-154127800D03*
%TD*%
D54*
%TO.C,C2*%
X82739200Y-86185200D03*
X82739200Y-85225200D03*
%TD*%
D17*
%TO.C,Q1*%
X34011700Y-45084200D03*
X34011700Y-46984200D03*
X35886700Y-46034200D03*
%TD*%
D39*
%TO.C,D5*%
X128395700Y-17154400D03*
X126820700Y-17154400D03*
%TD*%
D26*
%TO.C,D2*%
X24205000Y-179757500D03*
X24205000Y-181332500D03*
%TD*%
D49*
%TO.C,U4*%
X146824700Y-127923100D03*
X146824700Y-129193100D03*
X146824700Y-130463100D03*
X146824700Y-131733100D03*
X152099700Y-131733100D03*
X152099700Y-130463100D03*
X152099700Y-129193100D03*
X152099700Y-127923100D03*
D50*
X149462200Y-129828100D03*
%TD*%
D15*
%TO.C,D8*%
X34830000Y-123110000D03*
X34830000Y-119110000D03*
%TD*%
D34*
%TO.C,R7*%
X89726200Y-110114600D03*
X88706200Y-110114600D03*
%TD*%
D48*
%TO.C,C13*%
X169705200Y-151345000D03*
X168745200Y-151345000D03*
%TD*%
D61*
%TO.C,C9*%
X141926400Y-124919000D03*
X141926400Y-123369000D03*
%TD*%
D18*
%TO.C,C7*%
X153167700Y-55485000D03*
X159667700Y-55485000D03*
%TD*%
D34*
%TO.C,R11*%
X27128000Y-160758400D03*
X26108000Y-160758400D03*
%TD*%
D26*
%TO.C,D2*%
X24205000Y-114432500D03*
X24205000Y-116007500D03*
%TD*%
D21*
%TO.C,C31*%
X142085200Y-133130000D03*
X142085200Y-131230000D03*
%TD*%
D34*
%TO.C,R11*%
X27128000Y-95433400D03*
X26108000Y-95433400D03*
%TD*%
D18*
%TO.C,C7*%
X96005100Y-186135000D03*
X102505100Y-186135000D03*
%TD*%
D34*
%TO.C,R11*%
X27128000Y-30108400D03*
X26108000Y-30108400D03*
%TD*%
D32*
%TO.C,R1*%
X22500000Y-24619000D03*
X23520000Y-24619000D03*
%TD*%
D16*
%TO.C,R19*%
X30725000Y-67413700D03*
X30725000Y-66393700D03*
%TD*%
D48*
%TO.C,C22*%
X51761000Y-88445700D03*
X50801000Y-88445700D03*
%TD*%
D21*
%TO.C,C31*%
X84922600Y-67805000D03*
X84922600Y-65905000D03*
%TD*%
D46*
%TO.C,S1*%
X60160000Y-11235000D03*
X53360000Y-11235000D03*
D47*
X59260000Y-13985000D03*
X56760000Y-13985000D03*
X54260000Y-13985000D03*
%TD*%
D37*
%TO.C,R12*%
X138530200Y-117224600D03*
X138530200Y-118244600D03*
%TD*%
D30*
%TO.C,C24*%
X126975200Y-93940000D03*
X128875200Y-93940000D03*
%TD*%
D54*
%TO.C,C29*%
X144995200Y-130560000D03*
X144995200Y-129600000D03*
%TD*%
D48*
%TO.C,C13*%
X112542600Y-151345000D03*
X111582600Y-151345000D03*
%TD*%
D18*
%TO.C,C19*%
X99040100Y-195030000D03*
X105540100Y-195030000D03*
%TD*%
%TO.C,C7*%
X96005100Y-120810000D03*
X102505100Y-120810000D03*
%TD*%
D16*
%TO.C,R9*%
X26872000Y-52818000D03*
X26872000Y-51798000D03*
%TD*%
%TO.C,R13*%
X21411000Y-183595000D03*
X21411000Y-182575000D03*
%TD*%
D18*
%TO.C,C19*%
X156202700Y-195030000D03*
X162702700Y-195030000D03*
%TD*%
D21*
%TO.C,C5*%
X140021400Y-59591200D03*
X140021400Y-57691200D03*
%TD*%
D22*
%TO.C,U5*%
X20701200Y-103422800D03*
X20201200Y-103422800D03*
X19701200Y-103422800D03*
X19201200Y-103422800D03*
X18701200Y-103422800D03*
X18201200Y-103422800D03*
X17701200Y-103422800D03*
D23*
X16751200Y-104372800D03*
X16751200Y-104872800D03*
X16751200Y-105372800D03*
X16751200Y-105872800D03*
X16751200Y-106372800D03*
X16751200Y-106872800D03*
X16751200Y-107372800D03*
D22*
X17701200Y-108322800D03*
X18201200Y-108322800D03*
X18701200Y-108322800D03*
X19201200Y-108322800D03*
X19701200Y-108322800D03*
X20201200Y-108322800D03*
X20701200Y-108322800D03*
D23*
X21651200Y-107372800D03*
X21651200Y-106872800D03*
X21651200Y-106372800D03*
X21651200Y-105872800D03*
X21651200Y-105372800D03*
X21651200Y-104872800D03*
X21651200Y-104372800D03*
D24*
X19201200Y-105872800D03*
%TD*%
D21*
%TO.C,C12*%
X106666000Y-55848800D03*
X106666000Y-53948800D03*
%TD*%
D48*
%TO.C,C13*%
X112542600Y-86020000D03*
X111582600Y-86020000D03*
%TD*%
D22*
%TO.C,U5*%
X77863800Y-38097800D03*
X77363800Y-38097800D03*
X76863800Y-38097800D03*
X76363800Y-38097800D03*
X75863800Y-38097800D03*
X75363800Y-38097800D03*
X74863800Y-38097800D03*
D23*
X73913800Y-39047800D03*
X73913800Y-39547800D03*
X73913800Y-40047800D03*
X73913800Y-40547800D03*
X73913800Y-41047800D03*
X73913800Y-41547800D03*
X73913800Y-42047800D03*
D22*
X74863800Y-42997800D03*
X75363800Y-42997800D03*
X75863800Y-42997800D03*
X76363800Y-42997800D03*
X76863800Y-42997800D03*
X77363800Y-42997800D03*
X77863800Y-42997800D03*
D23*
X78813800Y-42047800D03*
X78813800Y-41547800D03*
X78813800Y-41047800D03*
X78813800Y-40547800D03*
X78813800Y-40047800D03*
X78813800Y-39547800D03*
X78813800Y-39047800D03*
D24*
X76363800Y-40547800D03*
%TD*%
D15*
%TO.C,D7*%
X128471800Y-178150800D03*
X128471800Y-174150800D03*
%TD*%
D43*
%TO.C,R17*%
X44306635Y-112187165D03*
X43016165Y-113477635D03*
%TD*%
D38*
%TO.C,C25*%
X14550000Y-24615000D03*
X12650000Y-24615000D03*
%TD*%
D55*
%TO.C,R15*%
X113973944Y-43882456D03*
X111905656Y-45950744D03*
%TD*%
D20*
%TO.C,C17*%
X169165200Y-153706700D03*
X170125200Y-153706700D03*
%TD*%
D61*
%TO.C,C9*%
X84763800Y-124919000D03*
X84763800Y-123369000D03*
%TD*%
D31*
%TO.C,SW2*%
X137591200Y-81982200D03*
X137591200Y-86182200D03*
%TD*%
D20*
%TO.C,C16*%
X136831000Y-87584800D03*
X137791000Y-87584800D03*
%TD*%
D54*
%TO.C,C15*%
X20918700Y-148254600D03*
X20918700Y-147294600D03*
%TD*%
D20*
%TO.C,C20*%
X52820000Y-88381700D03*
X53780000Y-88381700D03*
%TD*%
D64*
%TO.C,J4*%
X132311800Y-78860000D03*
X131661800Y-78860000D03*
X131011800Y-78860000D03*
X130361800Y-78860000D03*
X129711800Y-78860000D03*
D65*
X134511800Y-76160000D03*
D66*
X128511800Y-78860000D03*
D65*
X127511800Y-76160000D03*
D66*
X133511800Y-78860000D03*
%TD*%
D30*
%TO.C,C28*%
X32350000Y-191265000D03*
X34250000Y-191265000D03*
%TD*%
D21*
%TO.C,C26*%
X139925200Y-67785000D03*
X139925200Y-65885000D03*
%TD*%
D34*
%TO.C,R7*%
X146888800Y-44789600D03*
X145868800Y-44789600D03*
%TD*%
D32*
%TO.C,R23*%
X14130000Y-40385000D03*
X15150000Y-40385000D03*
%TD*%
D21*
%TO.C,C12*%
X106666000Y-186498800D03*
X106666000Y-184598800D03*
%TD*%
D67*
%TO.C,C21*%
X56507500Y-158180700D03*
X56507500Y-159140700D03*
%TD*%
D34*
%TO.C,R2*%
X23509600Y-23477800D03*
X22489600Y-23477800D03*
%TD*%
D32*
%TO.C,R23*%
X71292600Y-171035000D03*
X72312600Y-171035000D03*
%TD*%
D35*
%TO.C,C11*%
X140118000Y-26476200D03*
X138568000Y-26476200D03*
%TD*%
D21*
%TO.C,C4*%
X23613400Y-59743600D03*
X23613400Y-57843600D03*
%TD*%
D64*
%TO.C,J4*%
X132311800Y-13535000D03*
X131661800Y-13535000D03*
X131011800Y-13535000D03*
X130361800Y-13535000D03*
X129711800Y-13535000D03*
D65*
X134511800Y-10835000D03*
D66*
X133511800Y-13535000D03*
D65*
X127511800Y-10835000D03*
D66*
X128511800Y-13535000D03*
%TD*%
D38*
%TO.C,C25*%
X128875200Y-89940000D03*
X126975200Y-89940000D03*
%TD*%
D56*
%TO.C,U2*%
X165208111Y-109078410D03*
X164854557Y-108724856D03*
X164501004Y-108371303D03*
X164147450Y-108017750D03*
X163793897Y-107664196D03*
X163440344Y-107310643D03*
X163086790Y-106957089D03*
D57*
X161725610Y-106957089D03*
X161372056Y-107310643D03*
X161018503Y-107664196D03*
X160664950Y-108017750D03*
X160311396Y-108371303D03*
X159957843Y-108724856D03*
X159604289Y-109078410D03*
D56*
X159604289Y-110439590D03*
X159957843Y-110793144D03*
X160311396Y-111146697D03*
X160664950Y-111500250D03*
X161018503Y-111853804D03*
X161372056Y-112207357D03*
X161725610Y-112560911D03*
D57*
X163086790Y-112560911D03*
X163440344Y-112207357D03*
X163793897Y-111853804D03*
X164147450Y-111500250D03*
X164501004Y-111146697D03*
X164854557Y-110793144D03*
X165208111Y-110439590D03*
D58*
X162406200Y-109759000D03*
%TD*%
D67*
%TO.C,C21*%
X170832700Y-92855700D03*
X170832700Y-93815700D03*
%TD*%
D64*
%TO.C,J4*%
X17986600Y-13535000D03*
X17336600Y-13535000D03*
X16686600Y-13535000D03*
X16036600Y-13535000D03*
X15386600Y-13535000D03*
D66*
X14186600Y-13535000D03*
X19186600Y-13535000D03*
D65*
X20186600Y-10835000D03*
X13186600Y-10835000D03*
%TD*%
D36*
%TO.C,Q2*%
X87249300Y-112284200D03*
X87249300Y-110384200D03*
X85374300Y-111334200D03*
%TD*%
D18*
%TO.C,C19*%
X156202700Y-64380000D03*
X162702700Y-64380000D03*
%TD*%
D37*
%TO.C,R10*%
X141425800Y-91342000D03*
X141425800Y-92362000D03*
%TD*%
D67*
%TO.C,C21*%
X56507500Y-92855700D03*
X56507500Y-93815700D03*
%TD*%
D63*
%TO.C,L1*%
X172005200Y-67305000D03*
X172005200Y-57405000D03*
%TD*%
D21*
%TO.C,C14*%
X36549400Y-181901400D03*
X36549400Y-180001400D03*
%TD*%
D37*
%TO.C,R12*%
X138530200Y-182549600D03*
X138530200Y-183569600D03*
%TD*%
D21*
%TO.C,C1*%
X29430000Y-124840000D03*
X29430000Y-122940000D03*
%TD*%
D28*
%TO.C,R20*%
X23710000Y-67540000D03*
X23710000Y-65890000D03*
%TD*%
D19*
%TO.C,C18*%
X146075200Y-123765000D03*
X146075200Y-120815000D03*
%TD*%
D55*
%TO.C,R15*%
X171136544Y-174532456D03*
X169068256Y-176600744D03*
%TD*%
D35*
%TO.C,C11*%
X25792800Y-157126200D03*
X24242800Y-157126200D03*
%TD*%
D20*
%TO.C,C17*%
X54840000Y-153706700D03*
X55800000Y-153706700D03*
%TD*%
D21*
%TO.C,C31*%
X142085200Y-198455000D03*
X142085200Y-196555000D03*
%TD*%
%TO.C,C12*%
X106666000Y-121173800D03*
X106666000Y-119273800D03*
%TD*%
D64*
%TO.C,J4*%
X75149200Y-13535000D03*
X74499200Y-13535000D03*
X73849200Y-13535000D03*
X73199200Y-13535000D03*
X72549200Y-13535000D03*
D66*
X71349200Y-13535000D03*
D65*
X70349200Y-10835000D03*
X77349200Y-10835000D03*
D66*
X76349200Y-13535000D03*
%TD*%
D21*
%TO.C,C1*%
X86592600Y-190165000D03*
X86592600Y-188265000D03*
%TD*%
D38*
%TO.C,C25*%
X71712600Y-24615000D03*
X69812600Y-24615000D03*
%TD*%
D18*
%TO.C,C7*%
X153167700Y-120810000D03*
X159667700Y-120810000D03*
%TD*%
D39*
%TO.C,D6*%
X128421100Y-15427200D03*
X126846100Y-15427200D03*
%TD*%
%TO.C,D6*%
X14095900Y-146077200D03*
X12520900Y-146077200D03*
%TD*%
D48*
%TO.C,C13*%
X112542600Y-20695000D03*
X111582600Y-20695000D03*
%TD*%
D67*
%TO.C,C21*%
X113670100Y-27530700D03*
X113670100Y-28490700D03*
%TD*%
D21*
%TO.C,C5*%
X82858800Y-59591200D03*
X82858800Y-57691200D03*
%TD*%
%TO.C,C4*%
X80776000Y-59743600D03*
X80776000Y-57843600D03*
%TD*%
D27*
%TO.C,C6*%
X108940649Y-37945649D03*
X110284151Y-39289151D03*
%TD*%
D37*
%TO.C,R12*%
X81367600Y-51899600D03*
X81367600Y-52919600D03*
%TD*%
D44*
%TO.C,SW1*%
X51110000Y-20905000D03*
X51110000Y-16705000D03*
%TD*%
D48*
%TO.C,C22*%
X108923600Y-23120700D03*
X107963600Y-23120700D03*
%TD*%
D30*
%TO.C,C24*%
X126975200Y-159265000D03*
X128875200Y-159265000D03*
%TD*%
D54*
%TO.C,C15*%
X78081300Y-82929600D03*
X78081300Y-81969600D03*
%TD*%
D20*
%TO.C,C23*%
X127475200Y-39295000D03*
X128435200Y-39295000D03*
%TD*%
D21*
%TO.C,C1*%
X86592600Y-124840000D03*
X86592600Y-122940000D03*
%TD*%
D16*
%TO.C,R6*%
X47820000Y-27015000D03*
X47820000Y-25995000D03*
%TD*%
D68*
%TO.C,REF\u002A\u002A*%
X3000000Y-205975000D03*
%TD*%
D21*
%TO.C,C5*%
X140021400Y-124916200D03*
X140021400Y-123016200D03*
%TD*%
D20*
%TO.C,C16*%
X136831000Y-152909800D03*
X137791000Y-152909800D03*
%TD*%
D15*
%TO.C,D8*%
X91992600Y-188435000D03*
X91992600Y-184435000D03*
%TD*%
D17*
%TO.C,Q1*%
X148336900Y-45084200D03*
X148336900Y-46984200D03*
X150211900Y-46034200D03*
%TD*%
D25*
%TO.C,C30*%
X27935000Y-63715000D03*
X24985000Y-63715000D03*
%TD*%
D32*
%TO.C,R23*%
X128455200Y-105710000D03*
X129475200Y-105710000D03*
%TD*%
D34*
%TO.C,R2*%
X137834800Y-88802800D03*
X136814800Y-88802800D03*
%TD*%
D56*
%TO.C,U2*%
X50882911Y-109078410D03*
X50529357Y-108724856D03*
X50175804Y-108371303D03*
X49822250Y-108017750D03*
X49468697Y-107664196D03*
X49115144Y-107310643D03*
X48761590Y-106957089D03*
D57*
X47400410Y-106957089D03*
X47046856Y-107310643D03*
X46693303Y-107664196D03*
X46339750Y-108017750D03*
X45986196Y-108371303D03*
X45632643Y-108724856D03*
X45279089Y-109078410D03*
D56*
X45279089Y-110439590D03*
X45632643Y-110793144D03*
X45986196Y-111146697D03*
X46339750Y-111500250D03*
X46693303Y-111853804D03*
X47046856Y-112207357D03*
X47400410Y-112560911D03*
D57*
X48761590Y-112560911D03*
X49115144Y-112207357D03*
X49468697Y-111853804D03*
X49822250Y-111500250D03*
X50175804Y-111146697D03*
X50529357Y-110793144D03*
X50882911Y-110439590D03*
D58*
X48081000Y-109759000D03*
%TD*%
D64*
%TO.C,J4*%
X17986600Y-144185000D03*
X17336600Y-144185000D03*
X16686600Y-144185000D03*
X16036600Y-144185000D03*
X15386600Y-144185000D03*
D66*
X19186600Y-144185000D03*
D65*
X20186600Y-141485000D03*
D66*
X14186600Y-144185000D03*
D65*
X13186600Y-141485000D03*
%TD*%
D22*
%TO.C,U5*%
X135026400Y-38097800D03*
X134526400Y-38097800D03*
X134026400Y-38097800D03*
X133526400Y-38097800D03*
X133026400Y-38097800D03*
X132526400Y-38097800D03*
X132026400Y-38097800D03*
D23*
X131076400Y-39047800D03*
X131076400Y-39547800D03*
X131076400Y-40047800D03*
X131076400Y-40547800D03*
X131076400Y-41047800D03*
X131076400Y-41547800D03*
X131076400Y-42047800D03*
D22*
X132026400Y-42997800D03*
X132526400Y-42997800D03*
X133026400Y-42997800D03*
X133526400Y-42997800D03*
X134026400Y-42997800D03*
X134526400Y-42997800D03*
X135026400Y-42997800D03*
D23*
X135976400Y-42047800D03*
X135976400Y-41547800D03*
X135976400Y-41047800D03*
X135976400Y-40547800D03*
X135976400Y-40047800D03*
X135976400Y-39547800D03*
X135976400Y-39047800D03*
D24*
X133526400Y-40547800D03*
%TD*%
D26*
%TO.C,D9*%
X144118200Y-114305500D03*
X144118200Y-115880500D03*
%TD*%
D16*
%TO.C,R13*%
X135736200Y-183595000D03*
X135736200Y-182575000D03*
%TD*%
D43*
%TO.C,R17*%
X158631835Y-46862165D03*
X157341365Y-48152635D03*
%TD*%
D37*
%TO.C,R12*%
X24205000Y-117224600D03*
X24205000Y-118244600D03*
%TD*%
D45*
%TO.C,D4*%
X133399300Y-15376400D03*
X134974300Y-15376400D03*
%TD*%
D55*
%TO.C,R15*%
X56811344Y-43882456D03*
X54743056Y-45950744D03*
%TD*%
D21*
%TO.C,C26*%
X139925200Y-133110000D03*
X139925200Y-131210000D03*
%TD*%
D34*
%TO.C,R2*%
X80672200Y-88802800D03*
X79652200Y-88802800D03*
%TD*%
D63*
%TO.C,L1*%
X114842600Y-67305000D03*
X114842600Y-57405000D03*
%TD*%
D16*
%TO.C,R13*%
X21411000Y-118270000D03*
X21411000Y-117250000D03*
%TD*%
D21*
%TO.C,C26*%
X139925200Y-198435000D03*
X139925200Y-196535000D03*
%TD*%
%TO.C,C1*%
X86592600Y-59515000D03*
X86592600Y-57615000D03*
%TD*%
D15*
%TO.C,D8*%
X149155200Y-57785000D03*
X149155200Y-53785000D03*
%TD*%
D60*
%TO.C,D1*%
X141197200Y-50555500D03*
X141197200Y-48980500D03*
%TD*%
D16*
%TO.C,R22*%
X29440000Y-132780000D03*
X29440000Y-131760000D03*
%TD*%
D60*
%TO.C,D1*%
X141197200Y-115880500D03*
X141197200Y-114305500D03*
%TD*%
D34*
%TO.C,R2*%
X137834800Y-154127800D03*
X136814800Y-154127800D03*
%TD*%
D54*
%TO.C,C29*%
X87832600Y-195885000D03*
X87832600Y-194925000D03*
%TD*%
D34*
%TO.C,R8*%
X89726200Y-112603800D03*
X88706200Y-112603800D03*
%TD*%
D35*
%TO.C,C11*%
X82955400Y-91801200D03*
X81405400Y-91801200D03*
%TD*%
D40*
%TO.C,U6*%
X74292600Y-115890000D03*
X71992600Y-115890000D03*
D41*
X71992600Y-122190000D03*
D40*
X69692600Y-115890000D03*
%TD*%
D38*
%TO.C,C8*%
X47100600Y-167718000D03*
X45200600Y-167718000D03*
%TD*%
D48*
%TO.C,C22*%
X166086200Y-153770700D03*
X165126200Y-153770700D03*
%TD*%
D37*
%TO.C,R24*%
X144118200Y-117233000D03*
X144118200Y-118253000D03*
%TD*%
D31*
%TO.C,SW2*%
X137591200Y-16657200D03*
X137591200Y-20857200D03*
%TD*%
D34*
%TO.C,R8*%
X89726200Y-47278800D03*
X88706200Y-47278800D03*
%TD*%
D32*
%TO.C,R5*%
X162155200Y-152705000D03*
X163175200Y-152705000D03*
%TD*%
D19*
%TO.C,C3*%
X135655200Y-190230000D03*
X135655200Y-187280000D03*
%TD*%
D34*
%TO.C,R2*%
X80672200Y-154127800D03*
X79652200Y-154127800D03*
%TD*%
D63*
%TO.C,L1*%
X114842600Y-197955000D03*
X114842600Y-188055000D03*
%TD*%
D16*
%TO.C,R22*%
X86602600Y-67455000D03*
X86602600Y-66435000D03*
%TD*%
D37*
%TO.C,R12*%
X81367600Y-117224600D03*
X81367600Y-118244600D03*
%TD*%
D63*
%TO.C,L1*%
X172005200Y-197955000D03*
X172005200Y-188055000D03*
%TD*%
D31*
%TO.C,SW2*%
X80428600Y-81982200D03*
X80428600Y-86182200D03*
%TD*%
D59*
%TO.C,R16*%
X167504344Y-117320944D03*
X165436056Y-115252656D03*
%TD*%
D48*
%TO.C,C27*%
X71242600Y-26615000D03*
X70282600Y-26615000D03*
%TD*%
D42*
%TO.C,R14*%
X44443776Y-49798424D03*
X45165024Y-49077176D03*
%TD*%
D55*
%TO.C,R15*%
X113973944Y-174532456D03*
X111905656Y-176600744D03*
%TD*%
D68*
%TO.C,REF\u002A\u002A*%
X3000000Y-3000000D03*
%TD*%
D33*
%TO.C,C10*%
X83653600Y-162117000D03*
X83653600Y-163667000D03*
%TD*%
D34*
%TO.C,R18*%
X104223000Y-38725000D03*
X103203000Y-38725000D03*
%TD*%
D42*
%TO.C,R14*%
X101606376Y-180448424D03*
X102327624Y-179727176D03*
%TD*%
D39*
%TO.C,D6*%
X71258500Y-146077200D03*
X69683500Y-146077200D03*
%TD*%
D22*
%TO.C,U5*%
X20701200Y-168747800D03*
X20201200Y-168747800D03*
X19701200Y-168747800D03*
X19201200Y-168747800D03*
X18701200Y-168747800D03*
X18201200Y-168747800D03*
X17701200Y-168747800D03*
D23*
X16751200Y-169697800D03*
X16751200Y-170197800D03*
X16751200Y-170697800D03*
X16751200Y-171197800D03*
X16751200Y-171697800D03*
X16751200Y-172197800D03*
X16751200Y-172697800D03*
D22*
X17701200Y-173647800D03*
X18201200Y-173647800D03*
X18701200Y-173647800D03*
X19201200Y-173647800D03*
X19701200Y-173647800D03*
X20201200Y-173647800D03*
X20701200Y-173647800D03*
D23*
X21651200Y-172697800D03*
X21651200Y-172197800D03*
X21651200Y-171697800D03*
X21651200Y-171197800D03*
X21651200Y-170697800D03*
X21651200Y-170197800D03*
X21651200Y-169697800D03*
D24*
X19201200Y-171197800D03*
%TD*%
D21*
%TO.C,C26*%
X25600000Y-67785000D03*
X25600000Y-65885000D03*
%TD*%
D20*
%TO.C,C20*%
X109982600Y-88381700D03*
X110942600Y-88381700D03*
%TD*%
D25*
%TO.C,C30*%
X85097600Y-63715000D03*
X82147600Y-63715000D03*
%TD*%
D36*
%TO.C,Q2*%
X30086700Y-46959200D03*
X30086700Y-45059200D03*
X28211700Y-46009200D03*
%TD*%
D29*
%TO.C,U3*%
X112335099Y-25361300D03*
X111685101Y-25361300D03*
X111035099Y-25361300D03*
X110385101Y-25361300D03*
X109735102Y-25361300D03*
X109085101Y-25361300D03*
X108435102Y-25361300D03*
X107785101Y-25361300D03*
X107785101Y-31000100D03*
X108435099Y-31000100D03*
X109085101Y-31000100D03*
X109735099Y-31000100D03*
X110385098Y-31000100D03*
X111035099Y-31000100D03*
X111685098Y-31000100D03*
X112335099Y-31000100D03*
%TD*%
%TO.C,U3*%
X55172499Y-25361300D03*
X54522501Y-25361300D03*
X53872499Y-25361300D03*
X53222501Y-25361300D03*
X52572502Y-25361300D03*
X51922501Y-25361300D03*
X51272502Y-25361300D03*
X50622501Y-25361300D03*
X50622501Y-31000100D03*
X51272499Y-31000100D03*
X51922501Y-31000100D03*
X52572499Y-31000100D03*
X53222498Y-31000100D03*
X53872499Y-31000100D03*
X54522498Y-31000100D03*
X55172499Y-31000100D03*
%TD*%
D38*
%TO.C,C8*%
X161425800Y-37068000D03*
X159525800Y-37068000D03*
%TD*%
D56*
%TO.C,U2*%
X50882911Y-43753410D03*
X50529357Y-43399856D03*
X50175804Y-43046303D03*
X49822250Y-42692750D03*
X49468697Y-42339196D03*
X49115144Y-41985643D03*
X48761590Y-41632089D03*
D57*
X47400410Y-41632089D03*
X47046856Y-41985643D03*
X46693303Y-42339196D03*
X46339750Y-42692750D03*
X45986196Y-43046303D03*
X45632643Y-43399856D03*
X45279089Y-43753410D03*
D56*
X45279089Y-45114590D03*
X45632643Y-45468144D03*
X45986196Y-45821697D03*
X46339750Y-46175250D03*
X46693303Y-46528804D03*
X47046856Y-46882357D03*
X47400410Y-47235911D03*
D57*
X48761590Y-47235911D03*
X49115144Y-46882357D03*
X49468697Y-46528804D03*
X49822250Y-46175250D03*
X50175804Y-45821697D03*
X50529357Y-45468144D03*
X50882911Y-45114590D03*
D58*
X48081000Y-44434000D03*
%TD*%
D16*
%TO.C,R9*%
X84034600Y-183468000D03*
X84034600Y-182448000D03*
%TD*%
%TO.C,R19*%
X87887600Y-67413700D03*
X87887600Y-66393700D03*
%TD*%
D37*
%TO.C,R12*%
X138530200Y-51899600D03*
X138530200Y-52919600D03*
%TD*%
D21*
%TO.C,C26*%
X82762600Y-67785000D03*
X82762600Y-65885000D03*
%TD*%
D56*
%TO.C,U2*%
X108045511Y-174403410D03*
X107691957Y-174049856D03*
X107338404Y-173696303D03*
X106984850Y-173342750D03*
X106631297Y-172989196D03*
X106277744Y-172635643D03*
X105924190Y-172282089D03*
D57*
X104563010Y-172282089D03*
X104209456Y-172635643D03*
X103855903Y-172989196D03*
X103502350Y-173342750D03*
X103148796Y-173696303D03*
X102795243Y-174049856D03*
X102441689Y-174403410D03*
D56*
X102441689Y-175764590D03*
X102795243Y-176118144D03*
X103148796Y-176471697D03*
X103502350Y-176825250D03*
X103855903Y-177178804D03*
X104209456Y-177532357D03*
X104563010Y-177885911D03*
D57*
X105924190Y-177885911D03*
X106277744Y-177532357D03*
X106631297Y-177178804D03*
X106984850Y-176825250D03*
X107338404Y-176471697D03*
X107691957Y-176118144D03*
X108045511Y-175764590D03*
D58*
X105243600Y-175084000D03*
%TD*%
D33*
%TO.C,C10*%
X83653600Y-96792000D03*
X83653600Y-98342000D03*
%TD*%
D34*
%TO.C,R11*%
X84290600Y-30108400D03*
X83270600Y-30108400D03*
%TD*%
D68*
%TO.C,REF\u002A\u002A*%
X186487800Y-3000000D03*
%TD*%
D51*
%TO.C,U1*%
X86110600Y-82366000D03*
X86110600Y-83636000D03*
X86110600Y-84906000D03*
X86110600Y-86176000D03*
X86110600Y-87446000D03*
X86110600Y-88716000D03*
X86110600Y-89986000D03*
X86110600Y-91256000D03*
X86110600Y-92526000D03*
X86110600Y-93796000D03*
X86110600Y-95066000D03*
X86110600Y-96336000D03*
X86110600Y-97606000D03*
X86110600Y-98876000D03*
D52*
X88895600Y-99876000D03*
X90165600Y-99876000D03*
X91435600Y-99876000D03*
X92705600Y-99876000D03*
X93975600Y-99876000D03*
X95245600Y-99876000D03*
X96515600Y-99876000D03*
X97785600Y-99876000D03*
X99055600Y-99876000D03*
X100325600Y-99876000D03*
D51*
X103110600Y-98876000D03*
X103110600Y-97606000D03*
X103110600Y-96336000D03*
X103110600Y-95066000D03*
X103110600Y-93796000D03*
X103110600Y-92526000D03*
X103110600Y-91256000D03*
X103110600Y-89986000D03*
X103110600Y-88716000D03*
X103110600Y-87446000D03*
X103110600Y-86176000D03*
X103110600Y-84906000D03*
X103110600Y-83636000D03*
X103110600Y-82366000D03*
D53*
X93610600Y-89866000D03*
%TD*%
D39*
%TO.C,D5*%
X128395700Y-82479400D03*
X126820700Y-82479400D03*
%TD*%
D56*
%TO.C,U2*%
X108045511Y-109078410D03*
X107691957Y-108724856D03*
X107338404Y-108371303D03*
X106984850Y-108017750D03*
X106631297Y-107664196D03*
X106277744Y-107310643D03*
X105924190Y-106957089D03*
D57*
X104563010Y-106957089D03*
X104209456Y-107310643D03*
X103855903Y-107664196D03*
X103502350Y-108017750D03*
X103148796Y-108371303D03*
X102795243Y-108724856D03*
X102441689Y-109078410D03*
D56*
X102441689Y-110439590D03*
X102795243Y-110793144D03*
X103148796Y-111146697D03*
X103502350Y-111500250D03*
X103855903Y-111853804D03*
X104209456Y-112207357D03*
X104563010Y-112560911D03*
D57*
X105924190Y-112560911D03*
X106277744Y-112207357D03*
X106631297Y-111853804D03*
X106984850Y-111500250D03*
X107338404Y-111146697D03*
X107691957Y-110793144D03*
X108045511Y-110439590D03*
D58*
X105243600Y-109759000D03*
%TD*%
D21*
%TO.C,C26*%
X25600000Y-198435000D03*
X25600000Y-196535000D03*
%TD*%
D40*
%TO.C,U6*%
X17130000Y-50565000D03*
D41*
X14830000Y-56865000D03*
D40*
X14830000Y-50565000D03*
X12530000Y-50565000D03*
%TD*%
D33*
%TO.C,C10*%
X140816200Y-162117000D03*
X140816200Y-163667000D03*
%TD*%
D16*
%TO.C,R13*%
X135736200Y-118270000D03*
X135736200Y-117250000D03*
%TD*%
D21*
%TO.C,C14*%
X36549400Y-51251400D03*
X36549400Y-49351400D03*
%TD*%
D26*
%TO.C,D2*%
X81367600Y-114432500D03*
X81367600Y-116007500D03*
%TD*%
D34*
%TO.C,R18*%
X104223000Y-169375000D03*
X103203000Y-169375000D03*
%TD*%
D26*
%TO.C,D2*%
X138530200Y-179757500D03*
X138530200Y-181332500D03*
%TD*%
D15*
%TO.C,D8*%
X149155200Y-188435000D03*
X149155200Y-184435000D03*
%TD*%
D67*
%TO.C,C21*%
X113670100Y-158180700D03*
X113670100Y-159140700D03*
%TD*%
D32*
%TO.C,R3*%
X134215200Y-149555000D03*
X135235200Y-149555000D03*
%TD*%
D34*
%TO.C,R8*%
X89726200Y-177928800D03*
X88706200Y-177928800D03*
%TD*%
D46*
%TO.C,S1*%
X110522600Y-141885000D03*
X117322600Y-141885000D03*
D47*
X116422600Y-144635000D03*
X113922600Y-144635000D03*
X111422600Y-144635000D03*
%TD*%
D34*
%TO.C,R18*%
X47060400Y-104050000D03*
X46040400Y-104050000D03*
%TD*%
D20*
%TO.C,C17*%
X169165200Y-88381700D03*
X170125200Y-88381700D03*
%TD*%
D39*
%TO.C,D6*%
X14095900Y-15427200D03*
X12520900Y-15427200D03*
%TD*%
D59*
%TO.C,R16*%
X53179144Y-51995944D03*
X51110856Y-49927656D03*
%TD*%
D34*
%TO.C,R11*%
X84290600Y-160758400D03*
X83270600Y-160758400D03*
%TD*%
D35*
%TO.C,C32*%
X18325000Y-48305000D03*
X16775000Y-48305000D03*
%TD*%
D67*
%TO.C,C21*%
X170832700Y-158180700D03*
X170832700Y-159140700D03*
%TD*%
D28*
%TO.C,R20*%
X80872600Y-67540000D03*
X80872600Y-65890000D03*
%TD*%
D26*
%TO.C,D9*%
X144118200Y-48980500D03*
X144118200Y-50555500D03*
%TD*%
D32*
%TO.C,R4*%
X47830000Y-86180000D03*
X48850000Y-86180000D03*
%TD*%
D34*
%TO.C,R7*%
X146888800Y-110114600D03*
X145868800Y-110114600D03*
%TD*%
D32*
%TO.C,R23*%
X71292600Y-40385000D03*
X72312600Y-40385000D03*
%TD*%
D40*
%TO.C,U6*%
X131455200Y-50565000D03*
D41*
X129155200Y-56865000D03*
D40*
X129155200Y-50565000D03*
X126855200Y-50565000D03*
%TD*%
D26*
%TO.C,D9*%
X29793000Y-179630500D03*
X29793000Y-181205500D03*
%TD*%
D61*
%TO.C,C9*%
X27601200Y-190244000D03*
X27601200Y-188694000D03*
%TD*%
D21*
%TO.C,C14*%
X93712000Y-116576400D03*
X93712000Y-114676400D03*
%TD*%
D34*
%TO.C,R8*%
X32563600Y-112603800D03*
X31543600Y-112603800D03*
%TD*%
D20*
%TO.C,C17*%
X112002600Y-153706700D03*
X112962600Y-153706700D03*
%TD*%
D45*
%TO.C,D4*%
X133399300Y-80701400D03*
X134974300Y-80701400D03*
%TD*%
%TO.C,D4*%
X76236700Y-146026400D03*
X77811700Y-146026400D03*
%TD*%
D46*
%TO.C,S1*%
X167685200Y-11235000D03*
X174485200Y-11235000D03*
D47*
X173585200Y-13985000D03*
X171085200Y-13985000D03*
X168585200Y-13985000D03*
%TD*%
D22*
%TO.C,U5*%
X77863800Y-103422800D03*
X77363800Y-103422800D03*
X76863800Y-103422800D03*
X76363800Y-103422800D03*
X75863800Y-103422800D03*
X75363800Y-103422800D03*
X74863800Y-103422800D03*
D23*
X73913800Y-104372800D03*
X73913800Y-104872800D03*
X73913800Y-105372800D03*
X73913800Y-105872800D03*
X73913800Y-106372800D03*
X73913800Y-106872800D03*
X73913800Y-107372800D03*
D22*
X74863800Y-108322800D03*
X75363800Y-108322800D03*
X75863800Y-108322800D03*
X76363800Y-108322800D03*
X76863800Y-108322800D03*
X77363800Y-108322800D03*
X77863800Y-108322800D03*
D23*
X78813800Y-107372800D03*
X78813800Y-106872800D03*
X78813800Y-106372800D03*
X78813800Y-105872800D03*
X78813800Y-105372800D03*
X78813800Y-104872800D03*
X78813800Y-104372800D03*
D24*
X76363800Y-105872800D03*
%TD*%
D19*
%TO.C,C18*%
X88912600Y-123765000D03*
X88912600Y-120815000D03*
%TD*%
D46*
%TO.C,S1*%
X117322600Y-11235000D03*
X110522600Y-11235000D03*
D47*
X116422600Y-13985000D03*
X113922600Y-13985000D03*
X111422600Y-13985000D03*
%TD*%
D15*
%TO.C,D7*%
X71309200Y-47500800D03*
X71309200Y-43500800D03*
%TD*%
D32*
%TO.C,R4*%
X104992600Y-151505000D03*
X106012600Y-151505000D03*
%TD*%
D15*
%TO.C,D8*%
X91992600Y-57785000D03*
X91992600Y-53785000D03*
%TD*%
D34*
%TO.C,R8*%
X146888800Y-47278800D03*
X145868800Y-47278800D03*
%TD*%
D42*
%TO.C,R14*%
X44443776Y-115123424D03*
X45165024Y-114402176D03*
%TD*%
D46*
%TO.C,S1*%
X53360000Y-141885000D03*
X60160000Y-141885000D03*
D47*
X59260000Y-144635000D03*
X56760000Y-144635000D03*
X54260000Y-144635000D03*
%TD*%
D20*
%TO.C,C23*%
X70312600Y-169945000D03*
X71272600Y-169945000D03*
%TD*%
D26*
%TO.C,D2*%
X138530200Y-114432500D03*
X138530200Y-116007500D03*
%TD*%
%TO.C,D3*%
X21411000Y-49132900D03*
X21411000Y-50707900D03*
%TD*%
D18*
%TO.C,C19*%
X99040100Y-129705000D03*
X105540100Y-129705000D03*
%TD*%
D42*
%TO.C,R14*%
X158768976Y-115123424D03*
X159490224Y-114402176D03*
%TD*%
D26*
%TO.C,D9*%
X29793000Y-48980500D03*
X29793000Y-50555500D03*
%TD*%
D34*
%TO.C,R11*%
X141453200Y-160758400D03*
X140433200Y-160758400D03*
%TD*%
D32*
%TO.C,R4*%
X162155200Y-86180000D03*
X163175200Y-86180000D03*
%TD*%
D34*
%TO.C,R8*%
X146888800Y-177928800D03*
X145868800Y-177928800D03*
%TD*%
D16*
%TO.C,R9*%
X26872000Y-118143000D03*
X26872000Y-117123000D03*
%TD*%
D34*
%TO.C,R2*%
X80672200Y-23477800D03*
X79652200Y-23477800D03*
%TD*%
D17*
%TO.C,Q1*%
X34011700Y-175734200D03*
X34011700Y-177634200D03*
X35886700Y-176684200D03*
%TD*%
D26*
%TO.C,D2*%
X81367600Y-49107500D03*
X81367600Y-50682500D03*
%TD*%
D34*
%TO.C,R21*%
X14730000Y-95590000D03*
X13710000Y-95590000D03*
%TD*%
D30*
%TO.C,C24*%
X69812600Y-28615000D03*
X71712600Y-28615000D03*
%TD*%
D32*
%TO.C,R1*%
X79662600Y-24619000D03*
X80682600Y-24619000D03*
%TD*%
D30*
%TO.C,C28*%
X89512600Y-60615000D03*
X91412600Y-60615000D03*
%TD*%
D20*
%TO.C,C16*%
X22505800Y-87584800D03*
X23465800Y-87584800D03*
%TD*%
D39*
%TO.C,D6*%
X128421100Y-146077200D03*
X126846100Y-146077200D03*
%TD*%
D64*
%TO.C,J4*%
X132311800Y-144185000D03*
X131661800Y-144185000D03*
X131011800Y-144185000D03*
X130361800Y-144185000D03*
X129711800Y-144185000D03*
D65*
X134511800Y-141485000D03*
D66*
X128511800Y-144185000D03*
D65*
X127511800Y-141485000D03*
D66*
X133511800Y-144185000D03*
%TD*%
D32*
%TO.C,R5*%
X47830000Y-152705000D03*
X48850000Y-152705000D03*
%TD*%
D16*
%TO.C,R22*%
X86602600Y-132780000D03*
X86602600Y-131760000D03*
%TD*%
D37*
%TO.C,R10*%
X27100600Y-26017000D03*
X27100600Y-27037000D03*
%TD*%
D64*
%TO.C,J4*%
X75149200Y-144185000D03*
X74499200Y-144185000D03*
X73849200Y-144185000D03*
X73199200Y-144185000D03*
X72549200Y-144185000D03*
D65*
X70349200Y-141485000D03*
X77349200Y-141485000D03*
D66*
X71349200Y-144185000D03*
X76349200Y-144185000D03*
%TD*%
D63*
%TO.C,L1*%
X57680000Y-132630000D03*
X57680000Y-122730000D03*
%TD*%
D21*
%TO.C,C1*%
X29430000Y-190165000D03*
X29430000Y-188265000D03*
%TD*%
D40*
%TO.C,U6*%
X17130000Y-181215000D03*
X14830000Y-181215000D03*
D41*
X14830000Y-187515000D03*
D40*
X12530000Y-181215000D03*
%TD*%
D54*
%TO.C,C29*%
X144995200Y-65235000D03*
X144995200Y-64275000D03*
%TD*%
D30*
%TO.C,C28*%
X89512600Y-191265000D03*
X91412600Y-191265000D03*
%TD*%
D29*
%TO.C,U3*%
X55172499Y-90686300D03*
X54522501Y-90686300D03*
X53872499Y-90686300D03*
X53222501Y-90686300D03*
X52572502Y-90686300D03*
X51922501Y-90686300D03*
X51272502Y-90686300D03*
X50622501Y-90686300D03*
X50622501Y-96325100D03*
X51272499Y-96325100D03*
X51922501Y-96325100D03*
X52572499Y-96325100D03*
X53222498Y-96325100D03*
X53872499Y-96325100D03*
X54522498Y-96325100D03*
X55172499Y-96325100D03*
%TD*%
D48*
%TO.C,C13*%
X169705200Y-86020000D03*
X168745200Y-86020000D03*
%TD*%
D16*
%TO.C,R6*%
X162145200Y-27015000D03*
X162145200Y-25995000D03*
%TD*%
D39*
%TO.C,D5*%
X128395700Y-147804400D03*
X126820700Y-147804400D03*
%TD*%
D26*
%TO.C,D3*%
X78573600Y-179782900D03*
X78573600Y-181357900D03*
%TD*%
D61*
%TO.C,C9*%
X27601200Y-124919000D03*
X27601200Y-123369000D03*
%TD*%
D32*
%TO.C,R4*%
X162155200Y-151505000D03*
X163175200Y-151505000D03*
%TD*%
%TO.C,R4*%
X104992600Y-20855000D03*
X106012600Y-20855000D03*
%TD*%
D54*
%TO.C,C2*%
X139901800Y-20860200D03*
X139901800Y-19900200D03*
%TD*%
D37*
%TO.C,R24*%
X29793000Y-51908000D03*
X29793000Y-52928000D03*
%TD*%
D32*
%TO.C,R4*%
X104992600Y-86180000D03*
X106012600Y-86180000D03*
%TD*%
D59*
%TO.C,R16*%
X53179144Y-182645944D03*
X51110856Y-180577656D03*
%TD*%
D38*
%TO.C,C8*%
X47100600Y-37068000D03*
X45200600Y-37068000D03*
%TD*%
D36*
%TO.C,Q2*%
X30086700Y-177609200D03*
X30086700Y-175709200D03*
X28211700Y-176659200D03*
%TD*%
D33*
%TO.C,C10*%
X26491000Y-162117000D03*
X26491000Y-163667000D03*
%TD*%
D19*
%TO.C,C3*%
X78492600Y-124905000D03*
X78492600Y-121955000D03*
%TD*%
D34*
%TO.C,R18*%
X161385600Y-169375000D03*
X160365600Y-169375000D03*
%TD*%
D16*
%TO.C,R9*%
X141197200Y-183468000D03*
X141197200Y-182448000D03*
%TD*%
D44*
%TO.C,SW1*%
X108272600Y-151555000D03*
X108272600Y-147355000D03*
%TD*%
D38*
%TO.C,C25*%
X14550000Y-89940000D03*
X12650000Y-89940000D03*
%TD*%
D39*
%TO.C,D5*%
X14070500Y-82479400D03*
X12495500Y-82479400D03*
%TD*%
D16*
%TO.C,R9*%
X141197200Y-118143000D03*
X141197200Y-117123000D03*
%TD*%
D62*
%TO.C,REF\u002A\u002A*%
X181487800Y-204975000D03*
%TD*%
%TO.C,REF\u002A\u002A*%
X181487800Y-4000000D03*
%TD*%
D20*
%TO.C,C20*%
X109982600Y-23056700D03*
X110942600Y-23056700D03*
%TD*%
D21*
%TO.C,C14*%
X36549400Y-116576400D03*
X36549400Y-114676400D03*
%TD*%
D35*
%TO.C,C32*%
X75487600Y-48305000D03*
X73937600Y-48305000D03*
%TD*%
D21*
%TO.C,C14*%
X93712000Y-181901400D03*
X93712000Y-180001400D03*
%TD*%
D37*
%TO.C,R24*%
X86955600Y-51908000D03*
X86955600Y-52928000D03*
%TD*%
D16*
%TO.C,R22*%
X29440000Y-67455000D03*
X29440000Y-66435000D03*
%TD*%
D55*
%TO.C,R15*%
X171136544Y-109207456D03*
X169068256Y-111275744D03*
%TD*%
D49*
%TO.C,U4*%
X89662100Y-62598100D03*
X89662100Y-63868100D03*
X89662100Y-65138100D03*
X89662100Y-66408100D03*
X94937100Y-66408100D03*
X94937100Y-65138100D03*
X94937100Y-63868100D03*
X94937100Y-62598100D03*
D50*
X92299600Y-64503100D03*
%TD*%
D26*
%TO.C,D2*%
X81367600Y-179757500D03*
X81367600Y-181332500D03*
%TD*%
D16*
%TO.C,R19*%
X87887600Y-198063700D03*
X87887600Y-197043700D03*
%TD*%
D19*
%TO.C,C3*%
X21330000Y-124905000D03*
X21330000Y-121955000D03*
%TD*%
D48*
%TO.C,C27*%
X71242600Y-91940000D03*
X70282600Y-91940000D03*
%TD*%
%TO.C,C13*%
X55380000Y-151345000D03*
X54420000Y-151345000D03*
%TD*%
D37*
%TO.C,R24*%
X86955600Y-182558000D03*
X86955600Y-183578000D03*
%TD*%
D28*
%TO.C,R20*%
X80872600Y-198190000D03*
X80872600Y-196540000D03*
%TD*%
D27*
%TO.C,C6*%
X51778049Y-168595649D03*
X53121551Y-169939151D03*
%TD*%
D49*
%TO.C,U4*%
X32499500Y-62598100D03*
X32499500Y-63868100D03*
X32499500Y-65138100D03*
X32499500Y-66408100D03*
X37774500Y-66408100D03*
X37774500Y-65138100D03*
X37774500Y-63868100D03*
X37774500Y-62598100D03*
D50*
X35137000Y-64503100D03*
%TD*%
D60*
%TO.C,D1*%
X26872000Y-181205500D03*
X26872000Y-179630500D03*
%TD*%
D40*
%TO.C,U6*%
X131455200Y-181215000D03*
X129155200Y-181215000D03*
D41*
X129155200Y-187515000D03*
D40*
X126855200Y-181215000D03*
%TD*%
D54*
%TO.C,C2*%
X139901800Y-86185200D03*
X139901800Y-85225200D03*
%TD*%
D61*
%TO.C,C9*%
X84763800Y-190244000D03*
X84763800Y-188694000D03*
%TD*%
D32*
%TO.C,R3*%
X134215200Y-18905000D03*
X135235200Y-18905000D03*
%TD*%
D18*
%TO.C,C7*%
X38842500Y-186135000D03*
X45342500Y-186135000D03*
%TD*%
D34*
%TO.C,R21*%
X14730000Y-160915000D03*
X13710000Y-160915000D03*
%TD*%
D16*
%TO.C,R19*%
X87887600Y-132738700D03*
X87887600Y-131718700D03*
%TD*%
D29*
%TO.C,U3*%
X169497699Y-25361300D03*
X168847701Y-25361300D03*
X168197699Y-25361300D03*
X167547701Y-25361300D03*
X166897702Y-25361300D03*
X166247701Y-25361300D03*
X165597702Y-25361300D03*
X164947701Y-25361300D03*
X164947701Y-31000100D03*
X165597699Y-31000100D03*
X166247701Y-31000100D03*
X166897699Y-31000100D03*
X167547698Y-31000100D03*
X168197699Y-31000100D03*
X168847698Y-31000100D03*
X169497699Y-31000100D03*
%TD*%
D34*
%TO.C,R8*%
X32563600Y-177928800D03*
X31543600Y-177928800D03*
%TD*%
D67*
%TO.C,C21*%
X113670100Y-92855700D03*
X113670100Y-93815700D03*
%TD*%
D61*
%TO.C,C9*%
X141926400Y-190244000D03*
X141926400Y-188694000D03*
%TD*%
D48*
%TO.C,C27*%
X14080000Y-91940000D03*
X13120000Y-91940000D03*
%TD*%
D42*
%TO.C,R14*%
X158768976Y-180448424D03*
X159490224Y-179727176D03*
%TD*%
D43*
%TO.C,R17*%
X158631835Y-112187165D03*
X157341365Y-113477635D03*
%TD*%
D54*
%TO.C,C15*%
X20918700Y-82929600D03*
X20918700Y-81969600D03*
%TD*%
%TO.C,C29*%
X30670000Y-195885000D03*
X30670000Y-194925000D03*
%TD*%
D35*
%TO.C,C11*%
X82955400Y-157126200D03*
X81405400Y-157126200D03*
%TD*%
D26*
%TO.C,D3*%
X78573600Y-114457900D03*
X78573600Y-116032900D03*
%TD*%
D16*
%TO.C,R22*%
X29440000Y-198105000D03*
X29440000Y-197085000D03*
%TD*%
D35*
%TO.C,C32*%
X132650200Y-113630000D03*
X131100200Y-113630000D03*
%TD*%
D20*
%TO.C,C23*%
X70312600Y-39295000D03*
X71272600Y-39295000D03*
%TD*%
D38*
%TO.C,C25*%
X128875200Y-155265000D03*
X126975200Y-155265000D03*
%TD*%
D16*
%TO.C,R22*%
X86602600Y-198105000D03*
X86602600Y-197085000D03*
%TD*%
D21*
%TO.C,C14*%
X150874600Y-116576400D03*
X150874600Y-114676400D03*
%TD*%
D55*
%TO.C,R15*%
X56811344Y-109207456D03*
X54743056Y-111275744D03*
%TD*%
D31*
%TO.C,SW2*%
X80428600Y-16657200D03*
X80428600Y-20857200D03*
%TD*%
D21*
%TO.C,C4*%
X137938600Y-125068600D03*
X137938600Y-123168600D03*
%TD*%
D34*
%TO.C,R21*%
X129055200Y-30265000D03*
X128035200Y-30265000D03*
%TD*%
D37*
%TO.C,R10*%
X84263200Y-156667000D03*
X84263200Y-157687000D03*
%TD*%
D54*
%TO.C,C15*%
X20918700Y-17604600D03*
X20918700Y-16644600D03*
%TD*%
D48*
%TO.C,C22*%
X51761000Y-153770700D03*
X50801000Y-153770700D03*
%TD*%
D51*
%TO.C,U1*%
X28948000Y-147691000D03*
X28948000Y-148961000D03*
X28948000Y-150231000D03*
X28948000Y-151501000D03*
X28948000Y-152771000D03*
X28948000Y-154041000D03*
X28948000Y-155311000D03*
X28948000Y-156581000D03*
X28948000Y-157851000D03*
X28948000Y-159121000D03*
X28948000Y-160391000D03*
X28948000Y-161661000D03*
X28948000Y-162931000D03*
X28948000Y-164201000D03*
D52*
X31733000Y-165201000D03*
X33003000Y-165201000D03*
X34273000Y-165201000D03*
X35543000Y-165201000D03*
X36813000Y-165201000D03*
X38083000Y-165201000D03*
X39353000Y-165201000D03*
X40623000Y-165201000D03*
X41893000Y-165201000D03*
X43163000Y-165201000D03*
D51*
X45948000Y-164201000D03*
X45948000Y-162931000D03*
X45948000Y-161661000D03*
X45948000Y-160391000D03*
X45948000Y-159121000D03*
X45948000Y-157851000D03*
X45948000Y-156581000D03*
X45948000Y-155311000D03*
X45948000Y-154041000D03*
X45948000Y-152771000D03*
X45948000Y-151501000D03*
X45948000Y-150231000D03*
X45948000Y-148961000D03*
X45948000Y-147691000D03*
D53*
X36448000Y-155191000D03*
%TD*%
D60*
%TO.C,D1*%
X84034600Y-181205500D03*
X84034600Y-179630500D03*
%TD*%
D37*
%TO.C,R24*%
X29793000Y-182558000D03*
X29793000Y-183578000D03*
%TD*%
D28*
%TO.C,R20*%
X138035200Y-132865000D03*
X138035200Y-131215000D03*
%TD*%
D19*
%TO.C,C18*%
X31750000Y-123765000D03*
X31750000Y-120815000D03*
%TD*%
D16*
%TO.C,R6*%
X104982600Y-92340000D03*
X104982600Y-91320000D03*
%TD*%
D54*
%TO.C,C29*%
X30670000Y-130560000D03*
X30670000Y-129600000D03*
%TD*%
D37*
%TO.C,R10*%
X84263200Y-91342000D03*
X84263200Y-92362000D03*
%TD*%
D15*
%TO.C,D8*%
X149155200Y-123110000D03*
X149155200Y-119110000D03*
%TD*%
D20*
%TO.C,C16*%
X79668400Y-22259800D03*
X80628400Y-22259800D03*
%TD*%
D34*
%TO.C,R11*%
X141453200Y-30108400D03*
X140433200Y-30108400D03*
%TD*%
D29*
%TO.C,U3*%
X169497699Y-156011300D03*
X168847701Y-156011300D03*
X168197699Y-156011300D03*
X167547701Y-156011300D03*
X166897702Y-156011300D03*
X166247701Y-156011300D03*
X165597702Y-156011300D03*
X164947701Y-156011300D03*
X164947701Y-161650100D03*
X165597699Y-161650100D03*
X166247701Y-161650100D03*
X166897699Y-161650100D03*
X167547698Y-161650100D03*
X168197699Y-161650100D03*
X168847698Y-161650100D03*
X169497699Y-161650100D03*
%TD*%
D27*
%TO.C,C6*%
X51778049Y-37945649D03*
X53121551Y-39289151D03*
%TD*%
D21*
%TO.C,C4*%
X23613400Y-125068600D03*
X23613400Y-123168600D03*
%TD*%
D15*
%TO.C,D7*%
X71309200Y-178150800D03*
X71309200Y-174150800D03*
%TD*%
D39*
%TO.C,D6*%
X128421100Y-80752200D03*
X126846100Y-80752200D03*
%TD*%
D32*
%TO.C,R3*%
X134215200Y-84230000D03*
X135235200Y-84230000D03*
%TD*%
D21*
%TO.C,C12*%
X163828600Y-121173800D03*
X163828600Y-119273800D03*
%TD*%
D46*
%TO.C,S1*%
X117322600Y-76560000D03*
X110522600Y-76560000D03*
D47*
X116422600Y-79310000D03*
X113922600Y-79310000D03*
X111422600Y-79310000D03*
%TD*%
D34*
%TO.C,R7*%
X146888800Y-175439600D03*
X145868800Y-175439600D03*
%TD*%
D15*
%TO.C,D8*%
X91992600Y-123110000D03*
X91992600Y-119110000D03*
%TD*%
D38*
%TO.C,C25*%
X14550000Y-155265000D03*
X12650000Y-155265000D03*
%TD*%
D37*
%TO.C,R24*%
X86955600Y-117233000D03*
X86955600Y-118253000D03*
%TD*%
D38*
%TO.C,C8*%
X47100600Y-102393000D03*
X45200600Y-102393000D03*
%TD*%
D34*
%TO.C,R21*%
X71892600Y-30265000D03*
X70872600Y-30265000D03*
%TD*%
D61*
%TO.C,C9*%
X27601200Y-59594000D03*
X27601200Y-58044000D03*
%TD*%
D20*
%TO.C,C20*%
X167145200Y-23056700D03*
X168105200Y-23056700D03*
%TD*%
D32*
%TO.C,R1*%
X136825200Y-155269000D03*
X137845200Y-155269000D03*
%TD*%
D15*
%TO.C,D8*%
X34830000Y-57785000D03*
X34830000Y-53785000D03*
%TD*%
D21*
%TO.C,C31*%
X27760000Y-198455000D03*
X27760000Y-196555000D03*
%TD*%
D63*
%TO.C,L1*%
X114842600Y-132630000D03*
X114842600Y-122730000D03*
%TD*%
D54*
%TO.C,C2*%
X82739200Y-20860200D03*
X82739200Y-19900200D03*
%TD*%
D21*
%TO.C,C14*%
X150874600Y-51251400D03*
X150874600Y-49351400D03*
%TD*%
D33*
%TO.C,C10*%
X140816200Y-96792000D03*
X140816200Y-98342000D03*
%TD*%
D49*
%TO.C,U4*%
X32499500Y-193248100D03*
X32499500Y-194518100D03*
X32499500Y-195788100D03*
X32499500Y-197058100D03*
X37774500Y-197058100D03*
X37774500Y-195788100D03*
X37774500Y-194518100D03*
X37774500Y-193248100D03*
D50*
X35137000Y-195153100D03*
%TD*%
D51*
%TO.C,U1*%
X28948000Y-17041000D03*
X28948000Y-18311000D03*
X28948000Y-19581000D03*
X28948000Y-20851000D03*
X28948000Y-22121000D03*
X28948000Y-23391000D03*
X28948000Y-24661000D03*
X28948000Y-25931000D03*
X28948000Y-27201000D03*
X28948000Y-28471000D03*
X28948000Y-29741000D03*
X28948000Y-31011000D03*
X28948000Y-32281000D03*
X28948000Y-33551000D03*
D52*
X31733000Y-34551000D03*
X33003000Y-34551000D03*
X34273000Y-34551000D03*
X35543000Y-34551000D03*
X36813000Y-34551000D03*
X38083000Y-34551000D03*
X39353000Y-34551000D03*
X40623000Y-34551000D03*
X41893000Y-34551000D03*
X43163000Y-34551000D03*
D51*
X45948000Y-33551000D03*
X45948000Y-32281000D03*
X45948000Y-31011000D03*
X45948000Y-29741000D03*
X45948000Y-28471000D03*
X45948000Y-27201000D03*
X45948000Y-25931000D03*
X45948000Y-24661000D03*
X45948000Y-23391000D03*
X45948000Y-22121000D03*
X45948000Y-20851000D03*
X45948000Y-19581000D03*
X45948000Y-18311000D03*
X45948000Y-17041000D03*
D53*
X36448000Y-24541000D03*
%TD*%
D64*
%TO.C,J4*%
X17986600Y-78860000D03*
X17336600Y-78860000D03*
X16686600Y-78860000D03*
X16036600Y-78860000D03*
X15386600Y-78860000D03*
D65*
X13186600Y-76160000D03*
D66*
X19186600Y-78860000D03*
X14186600Y-78860000D03*
D65*
X20186600Y-76160000D03*
%TD*%
D33*
%TO.C,C10*%
X26491000Y-96792000D03*
X26491000Y-98342000D03*
%TD*%
D21*
%TO.C,C5*%
X82858800Y-124916200D03*
X82858800Y-123016200D03*
%TD*%
D32*
%TO.C,R4*%
X162155200Y-20855000D03*
X163175200Y-20855000D03*
%TD*%
D34*
%TO.C,R7*%
X32563600Y-110114600D03*
X31543600Y-110114600D03*
%TD*%
D26*
%TO.C,D9*%
X144118200Y-179630500D03*
X144118200Y-181205500D03*
%TD*%
D21*
%TO.C,C5*%
X25696200Y-124916200D03*
X25696200Y-123016200D03*
%TD*%
D34*
%TO.C,R7*%
X32563600Y-44789600D03*
X31543600Y-44789600D03*
%TD*%
D35*
%TO.C,C32*%
X75487600Y-113630000D03*
X73937600Y-113630000D03*
%TD*%
D19*
%TO.C,C18*%
X146075200Y-189090000D03*
X146075200Y-186140000D03*
%TD*%
D30*
%TO.C,C24*%
X12650000Y-159265000D03*
X14550000Y-159265000D03*
%TD*%
D28*
%TO.C,R20*%
X23710000Y-198190000D03*
X23710000Y-196540000D03*
%TD*%
D32*
%TO.C,R23*%
X128455200Y-40385000D03*
X129475200Y-40385000D03*
%TD*%
D49*
%TO.C,U4*%
X146824700Y-193248100D03*
X146824700Y-194518100D03*
X146824700Y-195788100D03*
X146824700Y-197058100D03*
X152099700Y-197058100D03*
X152099700Y-195788100D03*
X152099700Y-194518100D03*
X152099700Y-193248100D03*
D50*
X149462200Y-195153100D03*
%TD*%
D43*
%TO.C,R17*%
X44306635Y-46862165D03*
X43016165Y-48152635D03*
%TD*%
D35*
%TO.C,C11*%
X140118000Y-91801200D03*
X138568000Y-91801200D03*
%TD*%
D22*
%TO.C,U5*%
X135026400Y-103422800D03*
X134526400Y-103422800D03*
X134026400Y-103422800D03*
X133526400Y-103422800D03*
X133026400Y-103422800D03*
X132526400Y-103422800D03*
X132026400Y-103422800D03*
D23*
X131076400Y-104372800D03*
X131076400Y-104872800D03*
X131076400Y-105372800D03*
X131076400Y-105872800D03*
X131076400Y-106372800D03*
X131076400Y-106872800D03*
X131076400Y-107372800D03*
D22*
X132026400Y-108322800D03*
X132526400Y-108322800D03*
X133026400Y-108322800D03*
X133526400Y-108322800D03*
X134026400Y-108322800D03*
X134526400Y-108322800D03*
X135026400Y-108322800D03*
D23*
X135976400Y-107372800D03*
X135976400Y-106872800D03*
X135976400Y-106372800D03*
X135976400Y-105872800D03*
X135976400Y-105372800D03*
X135976400Y-104872800D03*
X135976400Y-104372800D03*
D24*
X133526400Y-105872800D03*
%TD*%
D21*
%TO.C,C26*%
X25600000Y-133110000D03*
X25600000Y-131210000D03*
%TD*%
D19*
%TO.C,C18*%
X146075200Y-58440000D03*
X146075200Y-55490000D03*
%TD*%
D48*
%TO.C,C27*%
X128405200Y-157265000D03*
X127445200Y-157265000D03*
%TD*%
D16*
%TO.C,R19*%
X145050200Y-132738700D03*
X145050200Y-131718700D03*
%TD*%
D67*
%TO.C,C21*%
X170832700Y-27530700D03*
X170832700Y-28490700D03*
%TD*%
D32*
%TO.C,R5*%
X162155200Y-87380000D03*
X163175200Y-87380000D03*
%TD*%
D48*
%TO.C,C27*%
X128405200Y-26615000D03*
X127445200Y-26615000D03*
%TD*%
D21*
%TO.C,C4*%
X23613400Y-190393600D03*
X23613400Y-188493600D03*
%TD*%
D54*
%TO.C,C29*%
X87832600Y-130560000D03*
X87832600Y-129600000D03*
%TD*%
D49*
%TO.C,U4*%
X32499500Y-127923100D03*
X32499500Y-129193100D03*
X32499500Y-130463100D03*
X32499500Y-131733100D03*
X37774500Y-131733100D03*
X37774500Y-130463100D03*
X37774500Y-129193100D03*
X37774500Y-127923100D03*
D50*
X35137000Y-129828100D03*
%TD*%
D27*
%TO.C,C6*%
X166103249Y-168595649D03*
X167446751Y-169939151D03*
%TD*%
D20*
%TO.C,C17*%
X112002600Y-23056700D03*
X112962600Y-23056700D03*
%TD*%
D27*
%TO.C,C6*%
X51778049Y-103270649D03*
X53121551Y-104614151D03*
%TD*%
D28*
%TO.C,R20*%
X138035200Y-67540000D03*
X138035200Y-65890000D03*
%TD*%
D17*
%TO.C,Q1*%
X148336900Y-175734200D03*
X148336900Y-177634200D03*
X150211900Y-176684200D03*
%TD*%
D36*
%TO.C,Q2*%
X144411900Y-46959200D03*
X144411900Y-45059200D03*
X142536900Y-46009200D03*
%TD*%
D67*
%TO.C,C21*%
X56507500Y-27530700D03*
X56507500Y-28490700D03*
%TD*%
D19*
%TO.C,C18*%
X31750000Y-189090000D03*
X31750000Y-186140000D03*
%TD*%
D34*
%TO.C,R21*%
X71892600Y-160915000D03*
X70872600Y-160915000D03*
%TD*%
D32*
%TO.C,R3*%
X19890000Y-18905000D03*
X20910000Y-18905000D03*
%TD*%
D16*
%TO.C,R22*%
X143765200Y-132780000D03*
X143765200Y-131760000D03*
%TD*%
D21*
%TO.C,C5*%
X25696200Y-59591200D03*
X25696200Y-57691200D03*
%TD*%
D26*
%TO.C,D3*%
X21411000Y-114457900D03*
X21411000Y-116032900D03*
%TD*%
D21*
%TO.C,C26*%
X82762600Y-133110000D03*
X82762600Y-131210000D03*
%TD*%
D16*
%TO.C,R19*%
X145050200Y-67413700D03*
X145050200Y-66393700D03*
%TD*%
D32*
%TO.C,R5*%
X47830000Y-87380000D03*
X48850000Y-87380000D03*
%TD*%
D30*
%TO.C,C24*%
X12650000Y-93940000D03*
X14550000Y-93940000D03*
%TD*%
D20*
%TO.C,C16*%
X22505800Y-22259800D03*
X23465800Y-22259800D03*
%TD*%
D32*
%TO.C,R23*%
X14130000Y-171035000D03*
X15150000Y-171035000D03*
%TD*%
D19*
%TO.C,C18*%
X88912600Y-189090000D03*
X88912600Y-186140000D03*
%TD*%
D48*
%TO.C,C22*%
X166086200Y-23120700D03*
X165126200Y-23120700D03*
%TD*%
D38*
%TO.C,C8*%
X104263200Y-102393000D03*
X102363200Y-102393000D03*
%TD*%
D21*
%TO.C,C31*%
X84922600Y-198455000D03*
X84922600Y-196555000D03*
%TD*%
D45*
%TO.C,D4*%
X76236700Y-15376400D03*
X77811700Y-15376400D03*
%TD*%
D39*
%TO.C,D6*%
X71258500Y-15427200D03*
X69683500Y-15427200D03*
%TD*%
D32*
%TO.C,R1*%
X22500000Y-155269000D03*
X23520000Y-155269000D03*
%TD*%
D38*
%TO.C,C8*%
X161425800Y-102393000D03*
X159525800Y-102393000D03*
%TD*%
D31*
%TO.C,SW2*%
X80428600Y-147307200D03*
X80428600Y-151507200D03*
%TD*%
D28*
%TO.C,R20*%
X138035200Y-198190000D03*
X138035200Y-196540000D03*
%TD*%
D48*
%TO.C,C13*%
X55380000Y-20695000D03*
X54420000Y-20695000D03*
%TD*%
D21*
%TO.C,C4*%
X137938600Y-59743600D03*
X137938600Y-57843600D03*
%TD*%
D34*
%TO.C,R21*%
X129055200Y-160915000D03*
X128035200Y-160915000D03*
%TD*%
D32*
%TO.C,R1*%
X79662600Y-89944000D03*
X80682600Y-89944000D03*
%TD*%
D34*
%TO.C,R7*%
X89726200Y-44789600D03*
X88706200Y-44789600D03*
%TD*%
%TO.C,R7*%
X32563600Y-175439600D03*
X31543600Y-175439600D03*
%TD*%
D33*
%TO.C,C10*%
X83653600Y-31467000D03*
X83653600Y-33017000D03*
%TD*%
D54*
%TO.C,C2*%
X25576600Y-151510200D03*
X25576600Y-150550200D03*
%TD*%
D35*
%TO.C,C32*%
X132650200Y-48305000D03*
X131100200Y-48305000D03*
%TD*%
D44*
%TO.C,SW1*%
X165435200Y-86230000D03*
X165435200Y-82030000D03*
%TD*%
D16*
%TO.C,R13*%
X21411000Y-52945000D03*
X21411000Y-51925000D03*
%TD*%
D20*
%TO.C,C16*%
X79668400Y-152909800D03*
X80628400Y-152909800D03*
%TD*%
D54*
%TO.C,C29*%
X87832600Y-65235000D03*
X87832600Y-64275000D03*
%TD*%
D39*
%TO.C,D5*%
X14070500Y-147804400D03*
X12495500Y-147804400D03*
%TD*%
D32*
%TO.C,R1*%
X22500000Y-89944000D03*
X23520000Y-89944000D03*
%TD*%
D21*
%TO.C,C26*%
X82762600Y-198435000D03*
X82762600Y-196535000D03*
%TD*%
D16*
%TO.C,R22*%
X143765200Y-198105000D03*
X143765200Y-197085000D03*
%TD*%
%TO.C,R13*%
X135736200Y-52945000D03*
X135736200Y-51925000D03*
%TD*%
D30*
%TO.C,C24*%
X69812600Y-159265000D03*
X71712600Y-159265000D03*
%TD*%
D39*
%TO.C,D6*%
X14095900Y-80752200D03*
X12520900Y-80752200D03*
%TD*%
D16*
%TO.C,R9*%
X26872000Y-183468000D03*
X26872000Y-182448000D03*
%TD*%
D20*
%TO.C,C16*%
X136831000Y-22259800D03*
X137791000Y-22259800D03*
%TD*%
D15*
%TO.C,D7*%
X14146600Y-112825800D03*
X14146600Y-108825800D03*
%TD*%
D46*
%TO.C,S1*%
X60160000Y-76560000D03*
X53360000Y-76560000D03*
D47*
X59260000Y-79310000D03*
X56760000Y-79310000D03*
X54260000Y-79310000D03*
%TD*%
D20*
%TO.C,C23*%
X127475200Y-104620000D03*
X128435200Y-104620000D03*
%TD*%
D26*
%TO.C,D2*%
X24205000Y-49107500D03*
X24205000Y-50682500D03*
%TD*%
D16*
%TO.C,R13*%
X78573600Y-52945000D03*
X78573600Y-51925000D03*
%TD*%
D27*
%TO.C,C6*%
X108940649Y-168595649D03*
X110284151Y-169939151D03*
%TD*%
D44*
%TO.C,SW1*%
X108272600Y-20905000D03*
X108272600Y-16705000D03*
%TD*%
D37*
%TO.C,R10*%
X141425800Y-26017000D03*
X141425800Y-27037000D03*
%TD*%
D21*
%TO.C,C5*%
X82858800Y-190241200D03*
X82858800Y-188341200D03*
%TD*%
D25*
%TO.C,C30*%
X27935000Y-194365000D03*
X24985000Y-194365000D03*
%TD*%
D37*
%TO.C,R24*%
X144118200Y-182558000D03*
X144118200Y-183578000D03*
%TD*%
D26*
%TO.C,D9*%
X29793000Y-114305500D03*
X29793000Y-115880500D03*
%TD*%
D44*
%TO.C,SW1*%
X165435200Y-151555000D03*
X165435200Y-147355000D03*
%TD*%
D45*
%TO.C,D4*%
X19074100Y-80701400D03*
X20649100Y-80701400D03*
%TD*%
D19*
%TO.C,C3*%
X21330000Y-190230000D03*
X21330000Y-187280000D03*
%TD*%
D59*
%TO.C,R16*%
X110341744Y-182645944D03*
X108273456Y-180577656D03*
%TD*%
D20*
%TO.C,C17*%
X112002600Y-88381700D03*
X112962600Y-88381700D03*
%TD*%
D21*
%TO.C,C5*%
X25696200Y-190241200D03*
X25696200Y-188341200D03*
%TD*%
D32*
%TO.C,R4*%
X47830000Y-151505000D03*
X48850000Y-151505000D03*
%TD*%
D60*
%TO.C,D1*%
X26872000Y-115880500D03*
X26872000Y-114305500D03*
%TD*%
D32*
%TO.C,R3*%
X19890000Y-84230000D03*
X20910000Y-84230000D03*
%TD*%
D44*
%TO.C,SW1*%
X108272600Y-86230000D03*
X108272600Y-82030000D03*
%TD*%
D42*
%TO.C,R14*%
X158768976Y-49798424D03*
X159490224Y-49077176D03*
%TD*%
D37*
%TO.C,R12*%
X24205000Y-51899600D03*
X24205000Y-52919600D03*
%TD*%
D22*
%TO.C,U5*%
X20701200Y-38097800D03*
X20201200Y-38097800D03*
X19701200Y-38097800D03*
X19201200Y-38097800D03*
X18701200Y-38097800D03*
X18201200Y-38097800D03*
X17701200Y-38097800D03*
D23*
X16751200Y-39047800D03*
X16751200Y-39547800D03*
X16751200Y-40047800D03*
X16751200Y-40547800D03*
X16751200Y-41047800D03*
X16751200Y-41547800D03*
X16751200Y-42047800D03*
D22*
X17701200Y-42997800D03*
X18201200Y-42997800D03*
X18701200Y-42997800D03*
X19201200Y-42997800D03*
X19701200Y-42997800D03*
X20201200Y-42997800D03*
X20701200Y-42997800D03*
D23*
X21651200Y-42047800D03*
X21651200Y-41547800D03*
X21651200Y-41047800D03*
X21651200Y-40547800D03*
X21651200Y-40047800D03*
X21651200Y-39547800D03*
X21651200Y-39047800D03*
D24*
X19201200Y-40547800D03*
%TD*%
M02*
