M48
; DRILL file {KiCad (6.0.7)} date Thu Jan 19 16:19:46 2023
; FORMAT={-:-/ absolute / inch / decimal}
; #@! TF.CreationDate,2023-01-19T16:19:46-06:00
; #@! TF.GenerationSoftware,Kicad,Pcbnew,(6.0.7)
; #@! TF.FileFunction,NonPlated,1,2,NPTH
FMAT,2
INCH
; #@! TA.AperFunction,NonPlated,NPTH,ComponentDrill
T1C0.0354
; #@! TA.AperFunction,NonPlated,NPTH,ComponentDrill
T2C0.0454
; #@! TA.AperFunction,NonPlated,NPTH,ComponentDrill
T3C0.0472
%
G90
G05
T1
X2.1008Y-0.4423
X2.1008Y-3.0142
X2.1008Y-5.586
X2.3685Y-0.4423
X2.3685Y-3.0142
X2.3685Y-5.586
X4.3513Y-0.4423
X4.3513Y-3.0142
X4.3513Y-5.586
X4.619Y-0.4423
X4.619Y-3.0142
X4.619Y-5.586
X6.6018Y-0.4423
X6.6018Y-3.0142
X6.6018Y-5.586
X6.8695Y-0.4423
X6.8695Y-3.0142
X6.8695Y-5.586
T2
X0.1181Y-0.1181
X0.1181Y-8.1093
X7.342Y-0.1181
T3
X1.5516Y-1.5575
X1.5516Y-4.1293
X1.5516Y-6.7012
X2.3142Y-1.5974
X2.3142Y-4.1692
X2.3142Y-6.7411
X2.3149Y-2.13
X2.3149Y-4.7019
X2.3149Y-7.2737
X3.8021Y-1.5575
X3.8021Y-4.1293
X3.8021Y-6.7012
X4.5647Y-1.5974
X4.5647Y-4.1692
X4.5647Y-6.7411
X4.5654Y-2.13
X4.5654Y-4.7019
X4.5654Y-7.2737
X6.0526Y-1.5575
X6.0526Y-4.1293
X6.0526Y-6.7012
X6.8152Y-1.5974
X6.8152Y-4.1692
X6.8152Y-6.7411
X6.8159Y-2.13
X6.8159Y-4.7019
X6.8159Y-7.2737
T0
M30
