%TF.GenerationSoftware,KiCad,Pcbnew,(6.0.7)*%
%TF.CreationDate,2023-01-21T14:40:07-06:00*%
%TF.ProjectId,SmartSpin2k_Panelized,536d6172-7453-4706-996e-326b5f50616e,2.35*%
%TF.SameCoordinates,Original*%
%TF.FileFunction,Paste,Top*%
%TF.FilePolarity,Positive*%
%FSLAX46Y46*%
G04 Gerber Fmt 4.6, Leading zero omitted, Abs format (unit mm)*
G04 Created by KiCad (PCBNEW (6.0.7)) date 2023-01-21 14:40:07*
%MOMM*%
%LPD*%
G01*
G04 APERTURE LIST*
G04 Aperture macros list*
%AMRoundRect*
0 Rectangle with rounded corners*
0 $1 Rounding radius*
0 $2 $3 $4 $5 $6 $7 $8 $9 X,Y pos of 4 corners*
0 Add a 4 corners polygon primitive as box body*
4,1,4,$2,$3,$4,$5,$6,$7,$8,$9,$2,$3,0*
0 Add four circle primitives for the rounded corners*
1,1,$1+$1,$2,$3*
1,1,$1+$1,$4,$5*
1,1,$1+$1,$6,$7*
1,1,$1+$1,$8,$9*
0 Add four rect primitives between the rounded corners*
20,1,$1+$1,$2,$3,$4,$5,0*
20,1,$1+$1,$4,$5,$6,$7,0*
20,1,$1+$1,$6,$7,$8,$9,0*
20,1,$1+$1,$8,$9,$2,$3,0*%
G04 Aperture macros list end*
%ADD10R,1.800000X2.500000*%
%ADD11RoundRect,0.135000X-0.135000X-0.185000X0.135000X-0.185000X0.135000X0.185000X-0.135000X0.185000X0*%
%ADD12RoundRect,0.225000X-0.250000X0.225000X-0.250000X-0.225000X0.250000X-0.225000X0.250000X0.225000X0*%
%ADD13R,0.355600X1.676400*%
%ADD14RoundRect,0.140000X0.170000X-0.140000X0.170000X0.140000X-0.170000X0.140000X-0.170000X-0.140000X0*%
%ADD15RoundRect,0.135000X0.135000X0.185000X-0.135000X0.185000X-0.135000X-0.185000X0.135000X-0.185000X0*%
%ADD16RoundRect,0.150000X-0.150000X0.512500X-0.150000X-0.512500X0.150000X-0.512500X0.150000X0.512500X0*%
%ADD17RoundRect,0.250000X0.250000X0.475000X-0.250000X0.475000X-0.250000X-0.475000X0.250000X-0.475000X0*%
%ADD18RoundRect,0.150000X-0.587500X-0.150000X0.587500X-0.150000X0.587500X0.150000X-0.587500X0.150000X0*%
%ADD19RoundRect,0.250000X0.475000X-0.250000X0.475000X0.250000X-0.475000X0.250000X-0.475000X-0.250000X0*%
%ADD20RoundRect,0.218750X-0.256250X0.218750X-0.256250X-0.218750X0.256250X-0.218750X0.256250X0.218750X0*%
%ADD21RoundRect,0.225000X0.225000X0.250000X-0.225000X0.250000X-0.225000X-0.250000X0.225000X-0.250000X0*%
%ADD22RoundRect,0.250000X0.650000X-0.325000X0.650000X0.325000X-0.650000X0.325000X-0.650000X-0.325000X0*%
%ADD23R,2.000000X0.900000*%
%ADD24R,0.900000X2.000000*%
%ADD25R,5.000000X5.000000*%
%ADD26RoundRect,0.200000X0.800000X-0.200000X0.800000X0.200000X-0.800000X0.200000X-0.800000X-0.200000X0*%
%ADD27R,5.400000X2.900000*%
%ADD28RoundRect,0.140000X-0.140000X-0.170000X0.140000X-0.170000X0.140000X0.170000X-0.140000X0.170000X0*%
%ADD29RoundRect,0.150000X0.587500X0.150000X-0.587500X0.150000X-0.587500X-0.150000X0.587500X-0.150000X0*%
%ADD30RoundRect,0.135000X0.185000X-0.135000X0.185000X0.135000X-0.185000X0.135000X-0.185000X-0.135000X0*%
%ADD31RoundRect,0.135000X-0.185000X0.135000X-0.185000X-0.135000X0.185000X-0.135000X0.185000X0.135000X0*%
%ADD32RoundRect,0.218750X0.256250X-0.218750X0.256250X0.218750X-0.256250X0.218750X-0.256250X-0.218750X0*%
%ADD33RoundRect,0.140000X0.140000X0.170000X-0.140000X0.170000X-0.140000X-0.170000X0.140000X-0.170000X0*%
%ADD34RoundRect,0.250000X0.662913X0.220971X0.220971X0.662913X-0.662913X-0.220971X-0.220971X-0.662913X0*%
%ADD35R,0.400000X1.350000*%
%ADD36RoundRect,0.135000X0.035355X-0.226274X0.226274X-0.035355X-0.035355X0.226274X-0.226274X0.035355X0*%
%ADD37RoundRect,0.250000X0.000000X0.360624X-0.360624X0.000000X0.000000X-0.360624X0.360624X0.000000X0*%
%ADD38RoundRect,0.062500X0.185616X0.274004X-0.274004X-0.185616X-0.185616X-0.274004X0.274004X0.185616X0*%
%ADD39RoundRect,0.062500X-0.185616X0.274004X-0.274004X0.185616X0.185616X-0.274004X0.274004X-0.185616X0*%
%ADD40RoundRect,0.200000X-0.800000X0.200000X-0.800000X-0.200000X0.800000X-0.200000X0.800000X0.200000X0*%
%ADD41R,1.250000X2.500000*%
%ADD42RoundRect,0.250000X-1.500000X-1.000000X1.500000X-1.000000X1.500000X1.000000X-1.500000X1.000000X0*%
%ADD43RoundRect,0.225000X-0.225000X0.225000X-0.225000X-0.225000X0.225000X-0.225000X0.225000X0.225000X0*%
%ADD44RoundRect,0.062500X-0.062500X0.337500X-0.062500X-0.337500X0.062500X-0.337500X0.062500X0.337500X0*%
%ADD45RoundRect,0.062500X-0.337500X0.062500X-0.337500X-0.062500X0.337500X-0.062500X0.337500X0.062500X0*%
%ADD46RoundRect,0.250000X-0.220971X0.662913X-0.662913X0.220971X0.220971X-0.662913X0.662913X-0.220971X0*%
%ADD47RoundRect,0.250000X-0.250000X-0.475000X0.250000X-0.475000X0.250000X0.475000X-0.250000X0.475000X0*%
%ADD48RoundRect,0.250000X-0.132583X0.503814X-0.503814X0.132583X0.132583X-0.503814X0.503814X-0.132583X0*%
%ADD49RoundRect,0.250000X-0.255000X-0.395000X0.255000X-0.395000X0.255000X0.395000X-0.255000X0.395000X0*%
%ADD50RoundRect,0.150000X-0.662500X-0.150000X0.662500X-0.150000X0.662500X0.150000X-0.662500X0.150000X0*%
%ADD51RoundRect,0.250000X0.325000X0.650000X-0.325000X0.650000X-0.325000X-0.650000X0.325000X-0.650000X0*%
%ADD52RoundRect,0.200000X0.275000X-0.200000X0.275000X0.200000X-0.275000X0.200000X-0.275000X-0.200000X0*%
%ADD53RoundRect,0.225000X0.250000X-0.225000X0.250000X0.225000X-0.250000X0.225000X-0.250000X-0.225000X0*%
%ADD54RoundRect,0.140000X-0.170000X0.140000X-0.170000X-0.140000X0.170000X-0.140000X0.170000X0.140000X0*%
%ADD55RoundRect,0.250000X-0.512652X-0.159099X-0.159099X-0.512652X0.512652X0.159099X0.159099X0.512652X0*%
%ADD56R,1.500000X2.000000*%
%ADD57R,3.800000X2.000000*%
G04 APERTURE END LIST*
D10*
%TO.C,D7*%
X130446600Y-45475800D03*
X130446600Y-41475800D03*
%TD*%
D11*
%TO.C,R1*%
X79650000Y-22594000D03*
X80670000Y-22594000D03*
%TD*%
D12*
%TO.C,C10*%
X24491000Y-29442000D03*
X24491000Y-30992000D03*
%TD*%
D13*
%TO.C,U3*%
X53172499Y-23336300D03*
X52522501Y-23336300D03*
X51872499Y-23336300D03*
X51222501Y-23336300D03*
X50572502Y-23336300D03*
X49922501Y-23336300D03*
X49272502Y-23336300D03*
X48622501Y-23336300D03*
X48622501Y-28975100D03*
X49272499Y-28975100D03*
X49922501Y-28975100D03*
X50572499Y-28975100D03*
X51222498Y-28975100D03*
X51872499Y-28975100D03*
X52522498Y-28975100D03*
X53172499Y-28975100D03*
%TD*%
D14*
%TO.C,C15*%
X137218700Y-146179600D03*
X137218700Y-145219600D03*
%TD*%
D15*
%TO.C,R8*%
X148863600Y-175853800D03*
X147843600Y-175853800D03*
%TD*%
D16*
%TO.C,U7*%
X73690000Y-80502500D03*
X72740000Y-80502500D03*
X71790000Y-80502500D03*
X71790000Y-82777500D03*
X72740000Y-82777500D03*
X73690000Y-82777500D03*
%TD*%
D17*
%TO.C,C8*%
X163400600Y-100343000D03*
X161500600Y-100343000D03*
%TD*%
%TO.C,C25*%
X12550000Y-87890000D03*
X10650000Y-87890000D03*
%TD*%
D18*
%TO.C,Q1*%
X150311700Y-108359200D03*
X150311700Y-110259200D03*
X152186700Y-109309200D03*
%TD*%
D19*
%TO.C,C1*%
X27430000Y-122790000D03*
X27430000Y-120890000D03*
%TD*%
D10*
%TO.C,D8*%
X91980000Y-186360000D03*
X91980000Y-182360000D03*
%TD*%
D11*
%TO.C,R23*%
X12130000Y-38360000D03*
X13150000Y-38360000D03*
%TD*%
%TO.C,R5*%
X104980000Y-85330000D03*
X106000000Y-85330000D03*
%TD*%
D15*
%TO.C,R2*%
X139809600Y-152052800D03*
X138789600Y-152052800D03*
%TD*%
D19*
%TO.C,C26*%
X82750000Y-65760000D03*
X82750000Y-63860000D03*
%TD*%
D10*
%TO.C,D7*%
X12146600Y-176075800D03*
X12146600Y-172075800D03*
%TD*%
D20*
%TO.C,D9*%
X86943000Y-177555500D03*
X86943000Y-179130500D03*
%TD*%
D15*
%TO.C,R7*%
X89713600Y-173364600D03*
X88693600Y-173364600D03*
%TD*%
D21*
%TO.C,C32*%
X16325000Y-111580000D03*
X14775000Y-111580000D03*
%TD*%
D22*
%TO.C,C3*%
X137630000Y-122855000D03*
X137630000Y-119905000D03*
%TD*%
D23*
%TO.C,U1*%
X26948000Y-80316000D03*
X26948000Y-81586000D03*
X26948000Y-82856000D03*
X26948000Y-84126000D03*
X26948000Y-85396000D03*
X26948000Y-86666000D03*
X26948000Y-87936000D03*
X26948000Y-89206000D03*
X26948000Y-90476000D03*
X26948000Y-91746000D03*
X26948000Y-93016000D03*
X26948000Y-94286000D03*
X26948000Y-95556000D03*
X26948000Y-96826000D03*
D24*
X29733000Y-97826000D03*
X31003000Y-97826000D03*
X32273000Y-97826000D03*
X33543000Y-97826000D03*
X34813000Y-97826000D03*
X36083000Y-97826000D03*
X37353000Y-97826000D03*
X38623000Y-97826000D03*
X39893000Y-97826000D03*
X41163000Y-97826000D03*
D23*
X43948000Y-96826000D03*
X43948000Y-95556000D03*
X43948000Y-94286000D03*
X43948000Y-93016000D03*
X43948000Y-91746000D03*
X43948000Y-90476000D03*
X43948000Y-89206000D03*
X43948000Y-87936000D03*
X43948000Y-86666000D03*
X43948000Y-85396000D03*
X43948000Y-84126000D03*
X43948000Y-82856000D03*
X43948000Y-81586000D03*
X43948000Y-80316000D03*
D25*
X34448000Y-87816000D03*
%TD*%
D26*
%TO.C,SW1*%
X49110000Y-149480000D03*
X49110000Y-145280000D03*
%TD*%
D27*
%TO.C,L1*%
X173980000Y-65280000D03*
X173980000Y-55380000D03*
%TD*%
D28*
%TO.C,C23*%
X70300000Y-167870000D03*
X71260000Y-167870000D03*
%TD*%
D29*
%TO.C,Q2*%
X146386700Y-44934200D03*
X146386700Y-43034200D03*
X144511700Y-43984200D03*
%TD*%
D30*
%TO.C,R13*%
X19411000Y-181520000D03*
X19411000Y-180500000D03*
%TD*%
D14*
%TO.C,C29*%
X146970000Y-128510000D03*
X146970000Y-127550000D03*
%TD*%
D31*
%TO.C,R12*%
X140505000Y-180474600D03*
X140505000Y-181494600D03*
%TD*%
D21*
%TO.C,C32*%
X75475000Y-111580000D03*
X73925000Y-111580000D03*
%TD*%
D19*
%TO.C,C4*%
X80763400Y-123018600D03*
X80763400Y-121118600D03*
%TD*%
D32*
%TO.C,D1*%
X143172000Y-113830500D03*
X143172000Y-112255500D03*
%TD*%
D33*
%TO.C,C22*%
X108911000Y-21095700D03*
X107951000Y-21095700D03*
%TD*%
D19*
%TO.C,C5*%
X141996200Y-188166200D03*
X141996200Y-186266200D03*
%TD*%
D34*
%TO.C,R16*%
X169479144Y-180570944D03*
X167410856Y-178502656D03*
%TD*%
D19*
%TO.C,C14*%
X152849400Y-49226400D03*
X152849400Y-47326400D03*
%TD*%
D11*
%TO.C,R3*%
X136190000Y-147480000D03*
X137210000Y-147480000D03*
%TD*%
D28*
%TO.C,C16*%
X138805800Y-85534800D03*
X139765800Y-85534800D03*
%TD*%
D35*
%TO.C,J4*%
X75136600Y-11510000D03*
X74486600Y-11510000D03*
X73836600Y-11510000D03*
X73186600Y-11510000D03*
X72536600Y-11510000D03*
%TD*%
D12*
%TO.C,C10*%
X83641000Y-160042000D03*
X83641000Y-161592000D03*
%TD*%
D30*
%TO.C,R6*%
X45820000Y-155590000D03*
X45820000Y-154570000D03*
%TD*%
D11*
%TO.C,R23*%
X12130000Y-168960000D03*
X13150000Y-168960000D03*
%TD*%
D26*
%TO.C,SW1*%
X167410000Y-149480000D03*
X167410000Y-145280000D03*
%TD*%
D19*
%TO.C,C12*%
X47503400Y-184423800D03*
X47503400Y-182523800D03*
%TD*%
D36*
%TO.C,R14*%
X101593776Y-178373424D03*
X102315024Y-177652176D03*
%TD*%
D20*
%TO.C,D3*%
X19411000Y-112407900D03*
X19411000Y-113982900D03*
%TD*%
D17*
%TO.C,C8*%
X45100600Y-100343000D03*
X43200600Y-100343000D03*
%TD*%
D37*
%TO.C,U2*%
X45197117Y-106825117D03*
X46081000Y-107709000D03*
X46964883Y-106825117D03*
X46081000Y-105941233D03*
X47848767Y-107709000D03*
X46964883Y-108592883D03*
X45197117Y-108592883D03*
X44313233Y-107709000D03*
X46081000Y-109476767D03*
D38*
X48882911Y-107028410D03*
X48529357Y-106674856D03*
X48175804Y-106321303D03*
X47822250Y-105967750D03*
X47468697Y-105614196D03*
X47115144Y-105260643D03*
X46761590Y-104907089D03*
D39*
X45400410Y-104907089D03*
X45046856Y-105260643D03*
X44693303Y-105614196D03*
X44339750Y-105967750D03*
X43986196Y-106321303D03*
X43632643Y-106674856D03*
X43279089Y-107028410D03*
D38*
X43279089Y-108389590D03*
X43632643Y-108743144D03*
X43986196Y-109096697D03*
X44339750Y-109450250D03*
X44693303Y-109803804D03*
X45046856Y-110157357D03*
X45400410Y-110510911D03*
D39*
X46761590Y-110510911D03*
X47115144Y-110157357D03*
X47468697Y-109803804D03*
X47822250Y-109450250D03*
X48175804Y-109096697D03*
X48529357Y-108743144D03*
X48882911Y-108389590D03*
%TD*%
D30*
%TO.C,R13*%
X78561000Y-50920000D03*
X78561000Y-49900000D03*
%TD*%
D40*
%TO.C,SW2*%
X80416000Y-79932200D03*
X80416000Y-84132200D03*
%TD*%
D15*
%TO.C,R21*%
X131030000Y-93540000D03*
X130010000Y-93540000D03*
%TD*%
D41*
%TO.C,S1*%
X57260000Y-11960000D03*
X54760000Y-11960000D03*
X52260000Y-11960000D03*
%TD*%
D28*
%TO.C,C23*%
X70300000Y-37270000D03*
X71260000Y-37270000D03*
%TD*%
D21*
%TO.C,C32*%
X16325000Y-176880000D03*
X14775000Y-176880000D03*
%TD*%
D42*
%TO.C,C7*%
X155142500Y-53460000D03*
X161642500Y-53460000D03*
%TD*%
D43*
%TO.C,U5*%
X75231200Y-169122800D03*
X76351200Y-170242800D03*
X77471200Y-168002800D03*
X77471200Y-169122800D03*
X75231200Y-168002800D03*
X76351200Y-169122800D03*
X77471200Y-170242800D03*
X76351200Y-168002800D03*
X75231200Y-170242800D03*
D44*
X77851200Y-166672800D03*
X77351200Y-166672800D03*
X76851200Y-166672800D03*
X76351200Y-166672800D03*
X75851200Y-166672800D03*
X75351200Y-166672800D03*
X74851200Y-166672800D03*
D45*
X73901200Y-167622800D03*
X73901200Y-168122800D03*
X73901200Y-168622800D03*
X73901200Y-169122800D03*
X73901200Y-169622800D03*
X73901200Y-170122800D03*
X73901200Y-170622800D03*
D44*
X74851200Y-171572800D03*
X75351200Y-171572800D03*
X75851200Y-171572800D03*
X76351200Y-171572800D03*
X76851200Y-171572800D03*
X77351200Y-171572800D03*
X77851200Y-171572800D03*
D45*
X78801200Y-170622800D03*
X78801200Y-170122800D03*
X78801200Y-169622800D03*
X78801200Y-169122800D03*
X78801200Y-168622800D03*
X78801200Y-168122800D03*
X78801200Y-167622800D03*
%TD*%
D46*
%TO.C,R15*%
X173111344Y-41857456D03*
X171043056Y-43925744D03*
%TD*%
D47*
%TO.C,C24*%
X128950000Y-91890000D03*
X130850000Y-91890000D03*
%TD*%
D28*
%TO.C,C23*%
X129450000Y-37270000D03*
X130410000Y-37270000D03*
%TD*%
D35*
%TO.C,J4*%
X134286600Y-76810000D03*
X133636600Y-76810000D03*
X132986600Y-76810000D03*
X132336600Y-76810000D03*
X131686600Y-76810000D03*
%TD*%
D15*
%TO.C,R21*%
X12730000Y-93540000D03*
X11710000Y-93540000D03*
%TD*%
D30*
%TO.C,R19*%
X147025000Y-65388700D03*
X147025000Y-64368700D03*
%TD*%
D40*
%TO.C,SW2*%
X21266000Y-145232200D03*
X21266000Y-149432200D03*
%TD*%
D26*
%TO.C,SW1*%
X108260000Y-84180000D03*
X108260000Y-79980000D03*
%TD*%
D10*
%TO.C,D8*%
X151130000Y-121060000D03*
X151130000Y-117060000D03*
%TD*%
D48*
%TO.C,R17*%
X160606635Y-175437165D03*
X159316165Y-176727635D03*
%TD*%
D20*
%TO.C,D2*%
X22205000Y-47082500D03*
X22205000Y-48657500D03*
%TD*%
D11*
%TO.C,R4*%
X164130000Y-84130000D03*
X165150000Y-84130000D03*
%TD*%
D15*
%TO.C,R11*%
X143428000Y-158683400D03*
X142408000Y-158683400D03*
%TD*%
D49*
%TO.C,U4*%
X33767000Y-126978100D03*
X32507000Y-128578100D03*
X32507000Y-126978100D03*
X33767000Y-128578100D03*
D50*
X30499500Y-125873100D03*
X30499500Y-127143100D03*
X30499500Y-128413100D03*
X30499500Y-129683100D03*
X35774500Y-129683100D03*
X35774500Y-128413100D03*
X35774500Y-127143100D03*
X35774500Y-125873100D03*
%TD*%
D28*
%TO.C,C20*%
X109970000Y-86331700D03*
X110930000Y-86331700D03*
%TD*%
D51*
%TO.C,C30*%
X85085000Y-61690000D03*
X82135000Y-61690000D03*
%TD*%
D11*
%TO.C,R5*%
X104980000Y-20030000D03*
X106000000Y-20030000D03*
%TD*%
D49*
%TO.C,U4*%
X32507000Y-193878100D03*
X32507000Y-192278100D03*
X33767000Y-193878100D03*
X33767000Y-192278100D03*
D50*
X30499500Y-191173100D03*
X30499500Y-192443100D03*
X30499500Y-193713100D03*
X30499500Y-194983100D03*
X35774500Y-194983100D03*
X35774500Y-193713100D03*
X35774500Y-192443100D03*
X35774500Y-191173100D03*
%TD*%
D35*
%TO.C,J4*%
X75136600Y-142110000D03*
X74486600Y-142110000D03*
X73836600Y-142110000D03*
X73186600Y-142110000D03*
X72536600Y-142110000D03*
%TD*%
D31*
%TO.C,R24*%
X27793000Y-49883000D03*
X27793000Y-50903000D03*
%TD*%
D20*
%TO.C,D9*%
X86943000Y-46955500D03*
X86943000Y-48530500D03*
%TD*%
D15*
%TO.C,R8*%
X89713600Y-175853800D03*
X88693600Y-175853800D03*
%TD*%
D34*
%TO.C,R16*%
X110329144Y-180570944D03*
X108260856Y-178502656D03*
%TD*%
D11*
%TO.C,R3*%
X77040000Y-16880000D03*
X78060000Y-16880000D03*
%TD*%
D15*
%TO.C,R18*%
X45060400Y-36700000D03*
X44040400Y-36700000D03*
%TD*%
D22*
%TO.C,C3*%
X78480000Y-57555000D03*
X78480000Y-54605000D03*
%TD*%
D30*
%TO.C,R13*%
X137711000Y-50920000D03*
X137711000Y-49900000D03*
%TD*%
D19*
%TO.C,C5*%
X82846200Y-122866200D03*
X82846200Y-120966200D03*
%TD*%
D28*
%TO.C,C16*%
X20505800Y-150834800D03*
X21465800Y-150834800D03*
%TD*%
D22*
%TO.C,C3*%
X78480000Y-188155000D03*
X78480000Y-185205000D03*
%TD*%
D31*
%TO.C,R10*%
X84250600Y-89292000D03*
X84250600Y-90312000D03*
%TD*%
D40*
%TO.C,SW2*%
X139566000Y-79932200D03*
X139566000Y-84132200D03*
%TD*%
D29*
%TO.C,Q2*%
X146386700Y-175534200D03*
X146386700Y-173634200D03*
X144511700Y-174584200D03*
%TD*%
D22*
%TO.C,C18*%
X148050000Y-56415000D03*
X148050000Y-53465000D03*
%TD*%
D36*
%TO.C,R14*%
X42443776Y-47773424D03*
X43165024Y-47052176D03*
%TD*%
D11*
%TO.C,R5*%
X164130000Y-20030000D03*
X165150000Y-20030000D03*
%TD*%
D31*
%TO.C,R10*%
X143400600Y-154592000D03*
X143400600Y-155612000D03*
%TD*%
D42*
%TO.C,C7*%
X95992500Y-53460000D03*
X102492500Y-53460000D03*
%TD*%
D37*
%TO.C,U2*%
X105231000Y-40641233D03*
X106114883Y-43292883D03*
X104347117Y-43292883D03*
X104347117Y-41525117D03*
X103463233Y-42409000D03*
X105231000Y-42409000D03*
X105231000Y-44176767D03*
X106114883Y-41525117D03*
X106998767Y-42409000D03*
D38*
X108032911Y-41728410D03*
X107679357Y-41374856D03*
X107325804Y-41021303D03*
X106972250Y-40667750D03*
X106618697Y-40314196D03*
X106265144Y-39960643D03*
X105911590Y-39607089D03*
D39*
X104550410Y-39607089D03*
X104196856Y-39960643D03*
X103843303Y-40314196D03*
X103489750Y-40667750D03*
X103136196Y-41021303D03*
X102782643Y-41374856D03*
X102429089Y-41728410D03*
D38*
X102429089Y-43089590D03*
X102782643Y-43443144D03*
X103136196Y-43796697D03*
X103489750Y-44150250D03*
X103843303Y-44503804D03*
X104196856Y-44857357D03*
X104550410Y-45210911D03*
D39*
X105911590Y-45210911D03*
X106265144Y-44857357D03*
X106618697Y-44503804D03*
X106972250Y-44150250D03*
X107325804Y-43796697D03*
X107679357Y-43443144D03*
X108032911Y-43089590D03*
%TD*%
D35*
%TO.C,J4*%
X75136600Y-76810000D03*
X74486600Y-76810000D03*
X73836600Y-76810000D03*
X73186600Y-76810000D03*
X72536600Y-76810000D03*
%TD*%
D21*
%TO.C,C32*%
X75475000Y-46280000D03*
X73925000Y-46280000D03*
%TD*%
D30*
%TO.C,R22*%
X86590000Y-196030000D03*
X86590000Y-195010000D03*
%TD*%
D15*
%TO.C,R7*%
X148863600Y-173364600D03*
X147843600Y-173364600D03*
%TD*%
D11*
%TO.C,R3*%
X17890000Y-16880000D03*
X18910000Y-16880000D03*
%TD*%
%TO.C,R1*%
X138800000Y-22594000D03*
X139820000Y-22594000D03*
%TD*%
D47*
%TO.C,C28*%
X148650000Y-123890000D03*
X150550000Y-123890000D03*
%TD*%
D13*
%TO.C,U3*%
X112322499Y-23336300D03*
X111672501Y-23336300D03*
X111022499Y-23336300D03*
X110372501Y-23336300D03*
X109722502Y-23336300D03*
X109072501Y-23336300D03*
X108422502Y-23336300D03*
X107772501Y-23336300D03*
X107772501Y-28975100D03*
X108422499Y-28975100D03*
X109072501Y-28975100D03*
X109722499Y-28975100D03*
X110372498Y-28975100D03*
X111022499Y-28975100D03*
X111672498Y-28975100D03*
X112322499Y-28975100D03*
%TD*%
%TO.C,U3*%
X171472499Y-153936300D03*
X170822501Y-153936300D03*
X170172499Y-153936300D03*
X169522501Y-153936300D03*
X168872502Y-153936300D03*
X168222501Y-153936300D03*
X167572502Y-153936300D03*
X166922501Y-153936300D03*
X166922501Y-159575100D03*
X167572499Y-159575100D03*
X168222501Y-159575100D03*
X168872499Y-159575100D03*
X169522498Y-159575100D03*
X170172499Y-159575100D03*
X170822498Y-159575100D03*
X171472499Y-159575100D03*
%TD*%
D15*
%TO.C,R8*%
X148863600Y-45253800D03*
X147843600Y-45253800D03*
%TD*%
D26*
%TO.C,SW1*%
X167410000Y-84180000D03*
X167410000Y-79980000D03*
%TD*%
D14*
%TO.C,C2*%
X82726600Y-149435200D03*
X82726600Y-148475200D03*
%TD*%
D43*
%TO.C,U5*%
X135501200Y-37402800D03*
X134381200Y-39642800D03*
X136621200Y-37402800D03*
X136621200Y-38522800D03*
X134381200Y-37402800D03*
X134381200Y-38522800D03*
X136621200Y-39642800D03*
X135501200Y-39642800D03*
X135501200Y-38522800D03*
D44*
X137001200Y-36072800D03*
X136501200Y-36072800D03*
X136001200Y-36072800D03*
X135501200Y-36072800D03*
X135001200Y-36072800D03*
X134501200Y-36072800D03*
X134001200Y-36072800D03*
D45*
X133051200Y-37022800D03*
X133051200Y-37522800D03*
X133051200Y-38022800D03*
X133051200Y-38522800D03*
X133051200Y-39022800D03*
X133051200Y-39522800D03*
X133051200Y-40022800D03*
D44*
X134001200Y-40972800D03*
X134501200Y-40972800D03*
X135001200Y-40972800D03*
X135501200Y-40972800D03*
X136001200Y-40972800D03*
X136501200Y-40972800D03*
X137001200Y-40972800D03*
D45*
X137951200Y-40022800D03*
X137951200Y-39522800D03*
X137951200Y-39022800D03*
X137951200Y-38522800D03*
X137951200Y-38022800D03*
X137951200Y-37522800D03*
X137951200Y-37022800D03*
%TD*%
D15*
%TO.C,R2*%
X80659600Y-86752800D03*
X79639600Y-86752800D03*
%TD*%
D19*
%TO.C,C12*%
X106653400Y-184423800D03*
X106653400Y-182523800D03*
%TD*%
%TO.C,C14*%
X152849400Y-114526400D03*
X152849400Y-112626400D03*
%TD*%
%TO.C,C5*%
X23696200Y-188166200D03*
X23696200Y-186266200D03*
%TD*%
D33*
%TO.C,C22*%
X108911000Y-86395700D03*
X107951000Y-86395700D03*
%TD*%
D34*
%TO.C,R16*%
X110329144Y-49970944D03*
X108260856Y-47902656D03*
%TD*%
D47*
%TO.C,C28*%
X89500000Y-123890000D03*
X91400000Y-123890000D03*
%TD*%
D19*
%TO.C,C4*%
X80763400Y-57718600D03*
X80763400Y-55818600D03*
%TD*%
%TO.C,C31*%
X144060000Y-131080000D03*
X144060000Y-129180000D03*
%TD*%
D52*
%TO.C,R20*%
X21710000Y-65515000D03*
X21710000Y-63865000D03*
%TD*%
D22*
%TO.C,C18*%
X88900000Y-187015000D03*
X88900000Y-184065000D03*
%TD*%
D17*
%TO.C,C25*%
X12550000Y-22590000D03*
X10650000Y-22590000D03*
%TD*%
D33*
%TO.C,C13*%
X112530000Y-83970000D03*
X111570000Y-83970000D03*
%TD*%
D32*
%TO.C,D1*%
X24872000Y-179130500D03*
X24872000Y-177555500D03*
%TD*%
D14*
%TO.C,C29*%
X28670000Y-128510000D03*
X28670000Y-127550000D03*
%TD*%
D11*
%TO.C,R3*%
X77040000Y-82180000D03*
X78060000Y-82180000D03*
%TD*%
D16*
%TO.C,U7*%
X132840000Y-80502500D03*
X131890000Y-80502500D03*
X130940000Y-80502500D03*
X130940000Y-82777500D03*
X131890000Y-82777500D03*
X132840000Y-82777500D03*
%TD*%
D20*
%TO.C,D9*%
X27793000Y-177555500D03*
X27793000Y-179130500D03*
%TD*%
D28*
%TO.C,C23*%
X70300000Y-102570000D03*
X71260000Y-102570000D03*
%TD*%
D52*
%TO.C,R20*%
X80860000Y-196115000D03*
X80860000Y-194465000D03*
%TD*%
D28*
%TO.C,C23*%
X129450000Y-167870000D03*
X130410000Y-167870000D03*
%TD*%
D14*
%TO.C,C29*%
X87820000Y-193810000D03*
X87820000Y-192850000D03*
%TD*%
D33*
%TO.C,C22*%
X168061000Y-21095700D03*
X167101000Y-21095700D03*
%TD*%
D20*
%TO.C,D9*%
X27793000Y-46955500D03*
X27793000Y-48530500D03*
%TD*%
D28*
%TO.C,C17*%
X52840000Y-21031700D03*
X53800000Y-21031700D03*
%TD*%
D19*
%TO.C,C26*%
X141900000Y-196360000D03*
X141900000Y-194460000D03*
%TD*%
D42*
%TO.C,C19*%
X39877500Y-192955000D03*
X46377500Y-192955000D03*
%TD*%
D53*
%TO.C,C9*%
X143901200Y-122869000D03*
X143901200Y-121319000D03*
%TD*%
D31*
%TO.C,R10*%
X143400600Y-89292000D03*
X143400600Y-90312000D03*
%TD*%
D15*
%TO.C,R11*%
X84278000Y-93383400D03*
X83258000Y-93383400D03*
%TD*%
D47*
%TO.C,C24*%
X69800000Y-26590000D03*
X71700000Y-26590000D03*
%TD*%
D22*
%TO.C,C3*%
X78480000Y-122855000D03*
X78480000Y-119905000D03*
%TD*%
D17*
%TO.C,C25*%
X71700000Y-22590000D03*
X69800000Y-22590000D03*
%TD*%
D52*
%TO.C,R20*%
X80860000Y-65515000D03*
X80860000Y-63865000D03*
%TD*%
%TO.C,R20*%
X140010000Y-130815000D03*
X140010000Y-129165000D03*
%TD*%
D53*
%TO.C,C9*%
X143901200Y-57569000D03*
X143901200Y-56019000D03*
%TD*%
D18*
%TO.C,Q1*%
X150311700Y-173659200D03*
X150311700Y-175559200D03*
X152186700Y-174609200D03*
%TD*%
D34*
%TO.C,R16*%
X51179144Y-180570944D03*
X49110856Y-178502656D03*
%TD*%
D11*
%TO.C,R23*%
X130430000Y-168960000D03*
X131450000Y-168960000D03*
%TD*%
D21*
%TO.C,C32*%
X16325000Y-46280000D03*
X14775000Y-46280000D03*
%TD*%
D11*
%TO.C,R3*%
X77040000Y-147480000D03*
X78060000Y-147480000D03*
%TD*%
D42*
%TO.C,C7*%
X155142500Y-184060000D03*
X161642500Y-184060000D03*
%TD*%
D15*
%TO.C,R7*%
X148863600Y-42764600D03*
X147843600Y-42764600D03*
%TD*%
D22*
%TO.C,C18*%
X148050000Y-121715000D03*
X148050000Y-118765000D03*
%TD*%
D33*
%TO.C,C27*%
X12080000Y-89890000D03*
X11120000Y-89890000D03*
%TD*%
D10*
%TO.C,D8*%
X91980000Y-55760000D03*
X91980000Y-51760000D03*
%TD*%
D40*
%TO.C,SW2*%
X21266000Y-14632200D03*
X21266000Y-18832200D03*
%TD*%
D19*
%TO.C,C31*%
X25760000Y-196380000D03*
X25760000Y-194480000D03*
%TD*%
D31*
%TO.C,R12*%
X22205000Y-115174600D03*
X22205000Y-116194600D03*
%TD*%
D15*
%TO.C,R18*%
X104210400Y-102000000D03*
X103190400Y-102000000D03*
%TD*%
D21*
%TO.C,C32*%
X75475000Y-176880000D03*
X73925000Y-176880000D03*
%TD*%
D42*
%TO.C,C19*%
X158177500Y-192955000D03*
X164677500Y-192955000D03*
%TD*%
D36*
%TO.C,R14*%
X42443776Y-113073424D03*
X43165024Y-112352176D03*
%TD*%
D19*
%TO.C,C1*%
X27430000Y-57490000D03*
X27430000Y-55590000D03*
%TD*%
D14*
%TO.C,C15*%
X18918700Y-146179600D03*
X18918700Y-145219600D03*
%TD*%
%TO.C,C29*%
X146970000Y-193810000D03*
X146970000Y-192850000D03*
%TD*%
D17*
%TO.C,C25*%
X12550000Y-153190000D03*
X10650000Y-153190000D03*
%TD*%
D28*
%TO.C,C20*%
X109970000Y-21031700D03*
X110930000Y-21031700D03*
%TD*%
D35*
%TO.C,J4*%
X134286600Y-142110000D03*
X133636600Y-142110000D03*
X132986600Y-142110000D03*
X132336600Y-142110000D03*
X131686600Y-142110000D03*
%TD*%
D33*
%TO.C,C22*%
X108911000Y-151695700D03*
X107951000Y-151695700D03*
%TD*%
D23*
%TO.C,U1*%
X86098000Y-80316000D03*
X86098000Y-81586000D03*
X86098000Y-82856000D03*
X86098000Y-84126000D03*
X86098000Y-85396000D03*
X86098000Y-86666000D03*
X86098000Y-87936000D03*
X86098000Y-89206000D03*
X86098000Y-90476000D03*
X86098000Y-91746000D03*
X86098000Y-93016000D03*
X86098000Y-94286000D03*
X86098000Y-95556000D03*
X86098000Y-96826000D03*
D24*
X88883000Y-97826000D03*
X90153000Y-97826000D03*
X91423000Y-97826000D03*
X92693000Y-97826000D03*
X93963000Y-97826000D03*
X95233000Y-97826000D03*
X96503000Y-97826000D03*
X97773000Y-97826000D03*
X99043000Y-97826000D03*
X100313000Y-97826000D03*
D23*
X103098000Y-96826000D03*
X103098000Y-95556000D03*
X103098000Y-94286000D03*
X103098000Y-93016000D03*
X103098000Y-91746000D03*
X103098000Y-90476000D03*
X103098000Y-89206000D03*
X103098000Y-87936000D03*
X103098000Y-86666000D03*
X103098000Y-85396000D03*
X103098000Y-84126000D03*
X103098000Y-82856000D03*
X103098000Y-81586000D03*
X103098000Y-80316000D03*
D25*
X93598000Y-87816000D03*
%TD*%
D20*
%TO.C,D2*%
X140505000Y-177682500D03*
X140505000Y-179257500D03*
%TD*%
D12*
%TO.C,C10*%
X24491000Y-94742000D03*
X24491000Y-96292000D03*
%TD*%
D22*
%TO.C,C3*%
X19330000Y-57555000D03*
X19330000Y-54605000D03*
%TD*%
D11*
%TO.C,R4*%
X104980000Y-18830000D03*
X106000000Y-18830000D03*
%TD*%
%TO.C,R3*%
X136190000Y-82180000D03*
X137210000Y-82180000D03*
%TD*%
D23*
%TO.C,U1*%
X145248000Y-145616000D03*
X145248000Y-146886000D03*
X145248000Y-148156000D03*
X145248000Y-149426000D03*
X145248000Y-150696000D03*
X145248000Y-151966000D03*
X145248000Y-153236000D03*
X145248000Y-154506000D03*
X145248000Y-155776000D03*
X145248000Y-157046000D03*
X145248000Y-158316000D03*
X145248000Y-159586000D03*
X145248000Y-160856000D03*
X145248000Y-162126000D03*
D24*
X148033000Y-163126000D03*
X149303000Y-163126000D03*
X150573000Y-163126000D03*
X151843000Y-163126000D03*
X153113000Y-163126000D03*
X154383000Y-163126000D03*
X155653000Y-163126000D03*
X156923000Y-163126000D03*
X158193000Y-163126000D03*
X159463000Y-163126000D03*
D23*
X162248000Y-162126000D03*
X162248000Y-160856000D03*
X162248000Y-159586000D03*
X162248000Y-158316000D03*
X162248000Y-157046000D03*
X162248000Y-155776000D03*
X162248000Y-154506000D03*
X162248000Y-153236000D03*
X162248000Y-151966000D03*
X162248000Y-150696000D03*
X162248000Y-149426000D03*
X162248000Y-148156000D03*
X162248000Y-146886000D03*
X162248000Y-145616000D03*
D25*
X152748000Y-153116000D03*
%TD*%
D32*
%TO.C,D1*%
X143172000Y-179130500D03*
X143172000Y-177555500D03*
%TD*%
D14*
%TO.C,C15*%
X18918700Y-80879600D03*
X18918700Y-79919600D03*
%TD*%
D31*
%TO.C,R12*%
X81355000Y-49874600D03*
X81355000Y-50894600D03*
%TD*%
D18*
%TO.C,Q1*%
X32011700Y-108359200D03*
X32011700Y-110259200D03*
X33886700Y-109309200D03*
%TD*%
D10*
%TO.C,D8*%
X91980000Y-121060000D03*
X91980000Y-117060000D03*
%TD*%
D14*
%TO.C,C2*%
X23576600Y-18835200D03*
X23576600Y-17875200D03*
%TD*%
D36*
%TO.C,R14*%
X101593776Y-47773424D03*
X102315024Y-47052176D03*
%TD*%
D11*
%TO.C,R23*%
X71280000Y-38360000D03*
X72300000Y-38360000D03*
%TD*%
D19*
%TO.C,C14*%
X93699400Y-114526400D03*
X93699400Y-112626400D03*
%TD*%
D47*
%TO.C,C24*%
X10650000Y-91890000D03*
X12550000Y-91890000D03*
%TD*%
D41*
%TO.C,S1*%
X116410000Y-11960000D03*
X113910000Y-11960000D03*
X111410000Y-11960000D03*
%TD*%
D54*
%TO.C,C21*%
X54507500Y-90805700D03*
X54507500Y-91765700D03*
%TD*%
D19*
%TO.C,C1*%
X86580000Y-57490000D03*
X86580000Y-55590000D03*
%TD*%
D11*
%TO.C,R23*%
X130430000Y-103660000D03*
X131450000Y-103660000D03*
%TD*%
D47*
%TO.C,C24*%
X128950000Y-26590000D03*
X130850000Y-26590000D03*
%TD*%
D19*
%TO.C,C31*%
X84910000Y-65780000D03*
X84910000Y-63880000D03*
%TD*%
D15*
%TO.C,R18*%
X163360400Y-167300000D03*
X162340400Y-167300000D03*
%TD*%
D33*
%TO.C,C27*%
X71230000Y-89890000D03*
X70270000Y-89890000D03*
%TD*%
D22*
%TO.C,C3*%
X19330000Y-122855000D03*
X19330000Y-119905000D03*
%TD*%
D30*
%TO.C,R6*%
X164120000Y-90290000D03*
X164120000Y-89270000D03*
%TD*%
D28*
%TO.C,C16*%
X20505800Y-20234800D03*
X21465800Y-20234800D03*
%TD*%
D19*
%TO.C,C12*%
X47503400Y-53823800D03*
X47503400Y-51923800D03*
%TD*%
D33*
%TO.C,C13*%
X112530000Y-18670000D03*
X111570000Y-18670000D03*
%TD*%
D31*
%TO.C,R10*%
X84250600Y-23992000D03*
X84250600Y-25012000D03*
%TD*%
%TO.C,R12*%
X140505000Y-49874600D03*
X140505000Y-50894600D03*
%TD*%
D16*
%TO.C,U7*%
X14540000Y-145802500D03*
X13590000Y-145802500D03*
X12640000Y-145802500D03*
X12640000Y-148077500D03*
X13590000Y-148077500D03*
X14540000Y-148077500D03*
%TD*%
D30*
%TO.C,R22*%
X86590000Y-65430000D03*
X86590000Y-64410000D03*
%TD*%
D19*
%TO.C,C5*%
X82846200Y-188166200D03*
X82846200Y-186266200D03*
%TD*%
D54*
%TO.C,C21*%
X54507500Y-156105700D03*
X54507500Y-157065700D03*
%TD*%
D20*
%TO.C,D2*%
X22205000Y-177682500D03*
X22205000Y-179257500D03*
%TD*%
D11*
%TO.C,R4*%
X104980000Y-149430000D03*
X106000000Y-149430000D03*
%TD*%
%TO.C,R23*%
X130430000Y-38360000D03*
X131450000Y-38360000D03*
%TD*%
%TO.C,R23*%
X71280000Y-168960000D03*
X72300000Y-168960000D03*
%TD*%
D30*
%TO.C,R22*%
X145740000Y-196030000D03*
X145740000Y-195010000D03*
%TD*%
D11*
%TO.C,R23*%
X12130000Y-103660000D03*
X13150000Y-103660000D03*
%TD*%
D19*
%TO.C,C4*%
X80763400Y-188318600D03*
X80763400Y-186418600D03*
%TD*%
D22*
%TO.C,C18*%
X88900000Y-56415000D03*
X88900000Y-53465000D03*
%TD*%
D28*
%TO.C,C23*%
X11150000Y-167870000D03*
X12110000Y-167870000D03*
%TD*%
D15*
%TO.C,R21*%
X71880000Y-28240000D03*
X70860000Y-28240000D03*
%TD*%
D20*
%TO.C,D3*%
X19411000Y-177707900D03*
X19411000Y-179282900D03*
%TD*%
D53*
%TO.C,C9*%
X84751200Y-57569000D03*
X84751200Y-56019000D03*
%TD*%
D33*
%TO.C,C27*%
X130380000Y-155190000D03*
X129420000Y-155190000D03*
%TD*%
D29*
%TO.C,Q2*%
X146386700Y-110234200D03*
X146386700Y-108334200D03*
X144511700Y-109284200D03*
%TD*%
D46*
%TO.C,R15*%
X54811344Y-41857456D03*
X52743056Y-43925744D03*
%TD*%
D30*
%TO.C,R6*%
X104970000Y-24990000D03*
X104970000Y-23970000D03*
%TD*%
%TO.C,R19*%
X28725000Y-130688700D03*
X28725000Y-129668700D03*
%TD*%
D15*
%TO.C,R11*%
X143428000Y-28083400D03*
X142408000Y-28083400D03*
%TD*%
D14*
%TO.C,C15*%
X78068700Y-146179600D03*
X78068700Y-145219600D03*
%TD*%
D16*
%TO.C,U7*%
X14540000Y-15202500D03*
X13590000Y-15202500D03*
X12640000Y-15202500D03*
X12640000Y-17477500D03*
X13590000Y-17477500D03*
X14540000Y-17477500D03*
%TD*%
D15*
%TO.C,R8*%
X30563600Y-110553800D03*
X29543600Y-110553800D03*
%TD*%
D19*
%TO.C,C14*%
X34549400Y-49226400D03*
X34549400Y-47326400D03*
%TD*%
D40*
%TO.C,SW2*%
X80416000Y-14632200D03*
X80416000Y-18832200D03*
%TD*%
D31*
%TO.C,R24*%
X86943000Y-115183000D03*
X86943000Y-116203000D03*
%TD*%
D10*
%TO.C,D7*%
X130446600Y-176075800D03*
X130446600Y-172075800D03*
%TD*%
D11*
%TO.C,R5*%
X164130000Y-150630000D03*
X165150000Y-150630000D03*
%TD*%
D15*
%TO.C,R11*%
X84278000Y-28083400D03*
X83258000Y-28083400D03*
%TD*%
D30*
%TO.C,R6*%
X164120000Y-155590000D03*
X164120000Y-154570000D03*
%TD*%
D19*
%TO.C,C12*%
X106653400Y-53823800D03*
X106653400Y-51923800D03*
%TD*%
D11*
%TO.C,R5*%
X104980000Y-150630000D03*
X106000000Y-150630000D03*
%TD*%
D22*
%TO.C,C18*%
X29750000Y-121715000D03*
X29750000Y-118765000D03*
%TD*%
D53*
%TO.C,C9*%
X25601200Y-188169000D03*
X25601200Y-186619000D03*
%TD*%
D19*
%TO.C,C12*%
X47503400Y-119123800D03*
X47503400Y-117223800D03*
%TD*%
D17*
%TO.C,C8*%
X104250600Y-35043000D03*
X102350600Y-35043000D03*
%TD*%
D19*
%TO.C,C12*%
X165803400Y-184423800D03*
X165803400Y-182523800D03*
%TD*%
D12*
%TO.C,C10*%
X83641000Y-29442000D03*
X83641000Y-30992000D03*
%TD*%
D30*
%TO.C,R22*%
X27440000Y-65430000D03*
X27440000Y-64410000D03*
%TD*%
D11*
%TO.C,R5*%
X45830000Y-20030000D03*
X46850000Y-20030000D03*
%TD*%
D30*
%TO.C,R9*%
X143172000Y-50793000D03*
X143172000Y-49773000D03*
%TD*%
D26*
%TO.C,SW1*%
X108260000Y-149480000D03*
X108260000Y-145280000D03*
%TD*%
D19*
%TO.C,C14*%
X93699400Y-179826400D03*
X93699400Y-177926400D03*
%TD*%
D10*
%TO.C,D8*%
X32830000Y-55760000D03*
X32830000Y-51760000D03*
%TD*%
D28*
%TO.C,C17*%
X171140000Y-86331700D03*
X172100000Y-86331700D03*
%TD*%
D49*
%TO.C,U4*%
X150807000Y-61678100D03*
X152067000Y-63278100D03*
X150807000Y-63278100D03*
X152067000Y-61678100D03*
D50*
X148799500Y-60573100D03*
X148799500Y-61843100D03*
X148799500Y-63113100D03*
X148799500Y-64383100D03*
X154074500Y-64383100D03*
X154074500Y-63113100D03*
X154074500Y-61843100D03*
X154074500Y-60573100D03*
%TD*%
D30*
%TO.C,R19*%
X147025000Y-130688700D03*
X147025000Y-129668700D03*
%TD*%
D19*
%TO.C,C31*%
X144060000Y-196380000D03*
X144060000Y-194480000D03*
%TD*%
D55*
%TO.C,C6*%
X168078049Y-166520649D03*
X169421551Y-167864151D03*
%TD*%
D31*
%TO.C,R10*%
X143400600Y-23992000D03*
X143400600Y-25012000D03*
%TD*%
D33*
%TO.C,C27*%
X71230000Y-24590000D03*
X70270000Y-24590000D03*
%TD*%
D20*
%TO.C,D2*%
X22205000Y-112382500D03*
X22205000Y-113957500D03*
%TD*%
D52*
%TO.C,R20*%
X80860000Y-130815000D03*
X80860000Y-129165000D03*
%TD*%
D51*
%TO.C,C30*%
X85085000Y-126990000D03*
X82135000Y-126990000D03*
%TD*%
D14*
%TO.C,C29*%
X28670000Y-193810000D03*
X28670000Y-192850000D03*
%TD*%
D52*
%TO.C,R20*%
X140010000Y-196115000D03*
X140010000Y-194465000D03*
%TD*%
D49*
%TO.C,U4*%
X150807000Y-126978100D03*
X152067000Y-128578100D03*
X152067000Y-126978100D03*
X150807000Y-128578100D03*
D50*
X148799500Y-125873100D03*
X148799500Y-127143100D03*
X148799500Y-128413100D03*
X148799500Y-129683100D03*
X154074500Y-129683100D03*
X154074500Y-128413100D03*
X154074500Y-127143100D03*
X154074500Y-125873100D03*
%TD*%
D11*
%TO.C,R3*%
X17890000Y-147480000D03*
X18910000Y-147480000D03*
%TD*%
D30*
%TO.C,R22*%
X145740000Y-130730000D03*
X145740000Y-129710000D03*
%TD*%
D10*
%TO.C,D7*%
X12146600Y-45475800D03*
X12146600Y-41475800D03*
%TD*%
D36*
%TO.C,R14*%
X160743776Y-113073424D03*
X161465024Y-112352176D03*
%TD*%
D11*
%TO.C,R5*%
X164130000Y-85330000D03*
X165150000Y-85330000D03*
%TD*%
D23*
%TO.C,U1*%
X86098000Y-145616000D03*
X86098000Y-146886000D03*
X86098000Y-148156000D03*
X86098000Y-149426000D03*
X86098000Y-150696000D03*
X86098000Y-151966000D03*
X86098000Y-153236000D03*
X86098000Y-154506000D03*
X86098000Y-155776000D03*
X86098000Y-157046000D03*
X86098000Y-158316000D03*
X86098000Y-159586000D03*
X86098000Y-160856000D03*
X86098000Y-162126000D03*
D24*
X88883000Y-163126000D03*
X90153000Y-163126000D03*
X91423000Y-163126000D03*
X92693000Y-163126000D03*
X93963000Y-163126000D03*
X95233000Y-163126000D03*
X96503000Y-163126000D03*
X97773000Y-163126000D03*
X99043000Y-163126000D03*
X100313000Y-163126000D03*
D23*
X103098000Y-162126000D03*
X103098000Y-160856000D03*
X103098000Y-159586000D03*
X103098000Y-158316000D03*
X103098000Y-157046000D03*
X103098000Y-155776000D03*
X103098000Y-154506000D03*
X103098000Y-153236000D03*
X103098000Y-151966000D03*
X103098000Y-150696000D03*
X103098000Y-149426000D03*
X103098000Y-148156000D03*
X103098000Y-146886000D03*
X103098000Y-145616000D03*
D25*
X93598000Y-153116000D03*
%TD*%
D14*
%TO.C,C15*%
X78068700Y-80879600D03*
X78068700Y-79919600D03*
%TD*%
D13*
%TO.C,U3*%
X171472499Y-23336300D03*
X170822501Y-23336300D03*
X170172499Y-23336300D03*
X169522501Y-23336300D03*
X168872502Y-23336300D03*
X168222501Y-23336300D03*
X167572502Y-23336300D03*
X166922501Y-23336300D03*
X166922501Y-28975100D03*
X167572499Y-28975100D03*
X168222501Y-28975100D03*
X168872499Y-28975100D03*
X169522498Y-28975100D03*
X170172499Y-28975100D03*
X170822498Y-28975100D03*
X171472499Y-28975100D03*
%TD*%
D15*
%TO.C,R21*%
X131030000Y-158840000D03*
X130010000Y-158840000D03*
%TD*%
%TO.C,R11*%
X25128000Y-158683400D03*
X24108000Y-158683400D03*
%TD*%
D30*
%TO.C,R9*%
X143172000Y-181393000D03*
X143172000Y-180373000D03*
%TD*%
D32*
%TO.C,D1*%
X24872000Y-113830500D03*
X24872000Y-112255500D03*
%TD*%
D14*
%TO.C,C15*%
X18918700Y-15579600D03*
X18918700Y-14619600D03*
%TD*%
D15*
%TO.C,R18*%
X45060400Y-102000000D03*
X44040400Y-102000000D03*
%TD*%
D47*
%TO.C,C28*%
X89500000Y-189190000D03*
X91400000Y-189190000D03*
%TD*%
D15*
%TO.C,R2*%
X139809600Y-21452800D03*
X138789600Y-21452800D03*
%TD*%
D30*
%TO.C,R19*%
X87875000Y-130688700D03*
X87875000Y-129668700D03*
%TD*%
D33*
%TO.C,C13*%
X53380000Y-83970000D03*
X52420000Y-83970000D03*
%TD*%
D27*
%TO.C,L1*%
X173980000Y-195880000D03*
X173980000Y-185980000D03*
%TD*%
D53*
%TO.C,C9*%
X84751200Y-188169000D03*
X84751200Y-186619000D03*
%TD*%
D14*
%TO.C,C2*%
X23576600Y-84135200D03*
X23576600Y-83175200D03*
%TD*%
D11*
%TO.C,R23*%
X71280000Y-103660000D03*
X72300000Y-103660000D03*
%TD*%
D31*
%TO.C,R24*%
X146093000Y-49883000D03*
X146093000Y-50903000D03*
%TD*%
D19*
%TO.C,C1*%
X145730000Y-57490000D03*
X145730000Y-55590000D03*
%TD*%
D55*
%TO.C,C6*%
X108928049Y-35920649D03*
X110271551Y-37264151D03*
%TD*%
D19*
%TO.C,C26*%
X141900000Y-65760000D03*
X141900000Y-63860000D03*
%TD*%
D11*
%TO.C,R4*%
X45830000Y-18830000D03*
X46850000Y-18830000D03*
%TD*%
D15*
%TO.C,R7*%
X89713600Y-108064600D03*
X88693600Y-108064600D03*
%TD*%
D19*
%TO.C,C4*%
X139913400Y-57718600D03*
X139913400Y-55818600D03*
%TD*%
D43*
%TO.C,U5*%
X18321200Y-39642800D03*
X17201200Y-38522800D03*
X18321200Y-38522800D03*
X16081200Y-37402800D03*
X16081200Y-39642800D03*
X17201200Y-37402800D03*
X18321200Y-37402800D03*
X16081200Y-38522800D03*
X17201200Y-39642800D03*
D44*
X18701200Y-36072800D03*
X18201200Y-36072800D03*
X17701200Y-36072800D03*
X17201200Y-36072800D03*
X16701200Y-36072800D03*
X16201200Y-36072800D03*
X15701200Y-36072800D03*
D45*
X14751200Y-37022800D03*
X14751200Y-37522800D03*
X14751200Y-38022800D03*
X14751200Y-38522800D03*
X14751200Y-39022800D03*
X14751200Y-39522800D03*
X14751200Y-40022800D03*
D44*
X15701200Y-40972800D03*
X16201200Y-40972800D03*
X16701200Y-40972800D03*
X17201200Y-40972800D03*
X17701200Y-40972800D03*
X18201200Y-40972800D03*
X18701200Y-40972800D03*
D45*
X19651200Y-40022800D03*
X19651200Y-39522800D03*
X19651200Y-39022800D03*
X19651200Y-38522800D03*
X19651200Y-38022800D03*
X19651200Y-37522800D03*
X19651200Y-37022800D03*
%TD*%
D19*
%TO.C,C12*%
X106653400Y-119123800D03*
X106653400Y-117223800D03*
%TD*%
D20*
%TO.C,D9*%
X146093000Y-46955500D03*
X146093000Y-48530500D03*
%TD*%
D12*
%TO.C,C10*%
X24491000Y-160042000D03*
X24491000Y-161592000D03*
%TD*%
D33*
%TO.C,C22*%
X49761000Y-21095700D03*
X48801000Y-21095700D03*
%TD*%
D14*
%TO.C,C29*%
X87820000Y-63210000D03*
X87820000Y-62250000D03*
%TD*%
D10*
%TO.C,D7*%
X71296600Y-110775800D03*
X71296600Y-106775800D03*
%TD*%
D29*
%TO.C,Q2*%
X28086700Y-175534200D03*
X28086700Y-173634200D03*
X26211700Y-174584200D03*
%TD*%
D23*
%TO.C,U1*%
X145248000Y-15016000D03*
X145248000Y-16286000D03*
X145248000Y-17556000D03*
X145248000Y-18826000D03*
X145248000Y-20096000D03*
X145248000Y-21366000D03*
X145248000Y-22636000D03*
X145248000Y-23906000D03*
X145248000Y-25176000D03*
X145248000Y-26446000D03*
X145248000Y-27716000D03*
X145248000Y-28986000D03*
X145248000Y-30256000D03*
X145248000Y-31526000D03*
D24*
X148033000Y-32526000D03*
X149303000Y-32526000D03*
X150573000Y-32526000D03*
X151843000Y-32526000D03*
X153113000Y-32526000D03*
X154383000Y-32526000D03*
X155653000Y-32526000D03*
X156923000Y-32526000D03*
X158193000Y-32526000D03*
X159463000Y-32526000D03*
D23*
X162248000Y-31526000D03*
X162248000Y-30256000D03*
X162248000Y-28986000D03*
X162248000Y-27716000D03*
X162248000Y-26446000D03*
X162248000Y-25176000D03*
X162248000Y-23906000D03*
X162248000Y-22636000D03*
X162248000Y-21366000D03*
X162248000Y-20096000D03*
X162248000Y-18826000D03*
X162248000Y-17556000D03*
X162248000Y-16286000D03*
X162248000Y-15016000D03*
D25*
X152748000Y-22516000D03*
%TD*%
D28*
%TO.C,C20*%
X109970000Y-151631700D03*
X110930000Y-151631700D03*
%TD*%
D15*
%TO.C,R18*%
X163360400Y-102000000D03*
X162340400Y-102000000D03*
%TD*%
D14*
%TO.C,C2*%
X82726600Y-84135200D03*
X82726600Y-83175200D03*
%TD*%
D15*
%TO.C,R21*%
X71880000Y-93540000D03*
X70860000Y-93540000D03*
%TD*%
D11*
%TO.C,R3*%
X136190000Y-16880000D03*
X137210000Y-16880000D03*
%TD*%
D21*
%TO.C,C11*%
X82942800Y-89751200D03*
X81392800Y-89751200D03*
%TD*%
D19*
%TO.C,C5*%
X23696200Y-57566200D03*
X23696200Y-55666200D03*
%TD*%
%TO.C,C5*%
X23696200Y-122866200D03*
X23696200Y-120966200D03*
%TD*%
%TO.C,C14*%
X34549400Y-114526400D03*
X34549400Y-112626400D03*
%TD*%
D21*
%TO.C,C32*%
X134625000Y-111580000D03*
X133075000Y-111580000D03*
%TD*%
D27*
%TO.C,L1*%
X55680000Y-195880000D03*
X55680000Y-185980000D03*
%TD*%
D11*
%TO.C,R1*%
X79650000Y-153194000D03*
X80670000Y-153194000D03*
%TD*%
D20*
%TO.C,D9*%
X27793000Y-112255500D03*
X27793000Y-113830500D03*
%TD*%
D29*
%TO.C,Q2*%
X87236700Y-175534200D03*
X87236700Y-173634200D03*
X85361700Y-174584200D03*
%TD*%
D19*
%TO.C,C31*%
X25760000Y-65780000D03*
X25760000Y-63880000D03*
%TD*%
D47*
%TO.C,C24*%
X69800000Y-91890000D03*
X71700000Y-91890000D03*
%TD*%
D15*
%TO.C,R18*%
X104210400Y-167300000D03*
X103190400Y-167300000D03*
%TD*%
D26*
%TO.C,SW1*%
X108260000Y-18880000D03*
X108260000Y-14680000D03*
%TD*%
D35*
%TO.C,J4*%
X15986600Y-142110000D03*
X15336600Y-142110000D03*
X14686600Y-142110000D03*
X14036600Y-142110000D03*
X13386600Y-142110000D03*
%TD*%
D42*
%TO.C,C19*%
X158177500Y-62355000D03*
X164677500Y-62355000D03*
%TD*%
D28*
%TO.C,C20*%
X169120000Y-86331700D03*
X170080000Y-86331700D03*
%TD*%
D47*
%TO.C,C24*%
X69800000Y-157190000D03*
X71700000Y-157190000D03*
%TD*%
D33*
%TO.C,C13*%
X53380000Y-18670000D03*
X52420000Y-18670000D03*
%TD*%
D14*
%TO.C,C15*%
X78068700Y-15579600D03*
X78068700Y-14619600D03*
%TD*%
D46*
%TO.C,R15*%
X113961344Y-107157456D03*
X111893056Y-109225744D03*
%TD*%
D54*
%TO.C,C21*%
X172807500Y-25505700D03*
X172807500Y-26465700D03*
%TD*%
D20*
%TO.C,D2*%
X140505000Y-112382500D03*
X140505000Y-113957500D03*
%TD*%
%TO.C,D3*%
X137711000Y-177707900D03*
X137711000Y-179282900D03*
%TD*%
D26*
%TO.C,SW1*%
X49110000Y-18880000D03*
X49110000Y-14680000D03*
%TD*%
D33*
%TO.C,C13*%
X53380000Y-149270000D03*
X52420000Y-149270000D03*
%TD*%
D34*
%TO.C,R16*%
X169479144Y-49970944D03*
X167410856Y-47902656D03*
%TD*%
D19*
%TO.C,C4*%
X139913400Y-123018600D03*
X139913400Y-121118600D03*
%TD*%
D20*
%TO.C,D3*%
X137711000Y-47107900D03*
X137711000Y-48682900D03*
%TD*%
D30*
%TO.C,R13*%
X78561000Y-181520000D03*
X78561000Y-180500000D03*
%TD*%
D14*
%TO.C,C29*%
X146970000Y-63210000D03*
X146970000Y-62250000D03*
%TD*%
D31*
%TO.C,R24*%
X27793000Y-115183000D03*
X27793000Y-116203000D03*
%TD*%
D47*
%TO.C,C28*%
X148650000Y-58590000D03*
X150550000Y-58590000D03*
%TD*%
D40*
%TO.C,SW2*%
X80416000Y-145232200D03*
X80416000Y-149432200D03*
%TD*%
D41*
%TO.C,S1*%
X175560000Y-11960000D03*
X173060000Y-11960000D03*
X170560000Y-11960000D03*
%TD*%
D36*
%TO.C,R14*%
X160743776Y-178373424D03*
X161465024Y-177652176D03*
%TD*%
D17*
%TO.C,C8*%
X45100600Y-165643000D03*
X43200600Y-165643000D03*
%TD*%
D14*
%TO.C,C2*%
X82726600Y-18835200D03*
X82726600Y-17875200D03*
%TD*%
%TO.C,C2*%
X141876600Y-18835200D03*
X141876600Y-17875200D03*
%TD*%
D10*
%TO.C,D7*%
X12146600Y-110775800D03*
X12146600Y-106775800D03*
%TD*%
D21*
%TO.C,C32*%
X134625000Y-176880000D03*
X133075000Y-176880000D03*
%TD*%
D17*
%TO.C,C8*%
X163400600Y-35043000D03*
X161500600Y-35043000D03*
%TD*%
D48*
%TO.C,R17*%
X101456635Y-44837165D03*
X100166165Y-46127635D03*
%TD*%
D16*
%TO.C,U7*%
X132840000Y-15202500D03*
X131890000Y-15202500D03*
X130940000Y-15202500D03*
X130940000Y-17477500D03*
X131890000Y-17477500D03*
X132840000Y-17477500D03*
%TD*%
D20*
%TO.C,D3*%
X78561000Y-177707900D03*
X78561000Y-179282900D03*
%TD*%
D28*
%TO.C,C16*%
X79655800Y-85534800D03*
X80615800Y-85534800D03*
%TD*%
D56*
%TO.C,U6*%
X74280000Y-48540000D03*
D57*
X71980000Y-54840000D03*
D56*
X71980000Y-48540000D03*
X69680000Y-48540000D03*
%TD*%
D31*
%TO.C,R24*%
X146093000Y-115183000D03*
X146093000Y-116203000D03*
%TD*%
D30*
%TO.C,R22*%
X86590000Y-130730000D03*
X86590000Y-129710000D03*
%TD*%
D28*
%TO.C,C17*%
X111990000Y-151631700D03*
X112950000Y-151631700D03*
%TD*%
D19*
%TO.C,C5*%
X141996200Y-57566200D03*
X141996200Y-55666200D03*
%TD*%
D30*
%TO.C,R6*%
X104970000Y-155590000D03*
X104970000Y-154570000D03*
%TD*%
D11*
%TO.C,R1*%
X20500000Y-153194000D03*
X21520000Y-153194000D03*
%TD*%
D53*
%TO.C,C9*%
X143901200Y-188169000D03*
X143901200Y-186619000D03*
%TD*%
D43*
%TO.C,U5*%
X76351200Y-103822800D03*
X76351200Y-104942800D03*
X75231200Y-104942800D03*
X77471200Y-104942800D03*
X75231200Y-103822800D03*
X76351200Y-102702800D03*
X77471200Y-102702800D03*
X77471200Y-103822800D03*
X75231200Y-102702800D03*
D44*
X77851200Y-101372800D03*
X77351200Y-101372800D03*
X76851200Y-101372800D03*
X76351200Y-101372800D03*
X75851200Y-101372800D03*
X75351200Y-101372800D03*
X74851200Y-101372800D03*
D45*
X73901200Y-102322800D03*
X73901200Y-102822800D03*
X73901200Y-103322800D03*
X73901200Y-103822800D03*
X73901200Y-104322800D03*
X73901200Y-104822800D03*
X73901200Y-105322800D03*
D44*
X74851200Y-106272800D03*
X75351200Y-106272800D03*
X75851200Y-106272800D03*
X76351200Y-106272800D03*
X76851200Y-106272800D03*
X77351200Y-106272800D03*
X77851200Y-106272800D03*
D45*
X78801200Y-105322800D03*
X78801200Y-104822800D03*
X78801200Y-104322800D03*
X78801200Y-103822800D03*
X78801200Y-103322800D03*
X78801200Y-102822800D03*
X78801200Y-102322800D03*
%TD*%
D28*
%TO.C,C23*%
X11150000Y-102570000D03*
X12110000Y-102570000D03*
%TD*%
D56*
%TO.C,U6*%
X15130000Y-179140000D03*
X12830000Y-179140000D03*
D57*
X12830000Y-185440000D03*
D56*
X10530000Y-179140000D03*
%TD*%
D14*
%TO.C,C2*%
X141876600Y-84135200D03*
X141876600Y-83175200D03*
%TD*%
D27*
%TO.C,L1*%
X114830000Y-195880000D03*
X114830000Y-185980000D03*
%TD*%
D33*
%TO.C,C27*%
X71230000Y-155190000D03*
X70270000Y-155190000D03*
%TD*%
D48*
%TO.C,R17*%
X101456635Y-175437165D03*
X100166165Y-176727635D03*
%TD*%
D41*
%TO.C,S1*%
X116410000Y-142560000D03*
X113910000Y-142560000D03*
X111410000Y-142560000D03*
%TD*%
D22*
%TO.C,C3*%
X137630000Y-57555000D03*
X137630000Y-54605000D03*
%TD*%
D30*
%TO.C,R9*%
X24872000Y-181393000D03*
X24872000Y-180373000D03*
%TD*%
D33*
%TO.C,C22*%
X168061000Y-151695700D03*
X167101000Y-151695700D03*
%TD*%
D20*
%TO.C,D9*%
X86943000Y-112255500D03*
X86943000Y-113830500D03*
%TD*%
D30*
%TO.C,R22*%
X27440000Y-130730000D03*
X27440000Y-129710000D03*
%TD*%
D16*
%TO.C,U7*%
X73690000Y-145802500D03*
X72740000Y-145802500D03*
X71790000Y-145802500D03*
X71790000Y-148077500D03*
X72740000Y-148077500D03*
X73690000Y-148077500D03*
%TD*%
D48*
%TO.C,R17*%
X42306635Y-175437165D03*
X41016165Y-176727635D03*
%TD*%
D15*
%TO.C,R8*%
X30563600Y-175853800D03*
X29543600Y-175853800D03*
%TD*%
D30*
%TO.C,R9*%
X84022000Y-50793000D03*
X84022000Y-49773000D03*
%TD*%
D54*
%TO.C,C21*%
X113657500Y-156105700D03*
X113657500Y-157065700D03*
%TD*%
D41*
%TO.C,S1*%
X57260000Y-77260000D03*
X54760000Y-77260000D03*
X52260000Y-77260000D03*
%TD*%
D21*
%TO.C,C11*%
X23792800Y-155051200D03*
X22242800Y-155051200D03*
%TD*%
D28*
%TO.C,C20*%
X50820000Y-21031700D03*
X51780000Y-21031700D03*
%TD*%
D48*
%TO.C,R17*%
X101456635Y-110137165D03*
X100166165Y-111427635D03*
%TD*%
D52*
%TO.C,R20*%
X21710000Y-130815000D03*
X21710000Y-129165000D03*
%TD*%
D42*
%TO.C,C19*%
X39877500Y-127655000D03*
X46377500Y-127655000D03*
%TD*%
D31*
%TO.C,R10*%
X25100600Y-154592000D03*
X25100600Y-155612000D03*
%TD*%
D30*
%TO.C,R9*%
X24872000Y-50793000D03*
X24872000Y-49773000D03*
%TD*%
D11*
%TO.C,R4*%
X164130000Y-18830000D03*
X165150000Y-18830000D03*
%TD*%
D35*
%TO.C,J4*%
X134286600Y-11510000D03*
X133636600Y-11510000D03*
X132986600Y-11510000D03*
X132336600Y-11510000D03*
X131686600Y-11510000D03*
%TD*%
D22*
%TO.C,C18*%
X29750000Y-56415000D03*
X29750000Y-53465000D03*
%TD*%
D31*
%TO.C,R24*%
X86943000Y-180483000D03*
X86943000Y-181503000D03*
%TD*%
D15*
%TO.C,R7*%
X89713600Y-42764600D03*
X88693600Y-42764600D03*
%TD*%
D10*
%TO.C,D8*%
X32830000Y-186360000D03*
X32830000Y-182360000D03*
%TD*%
D15*
%TO.C,R8*%
X89713600Y-45253800D03*
X88693600Y-45253800D03*
%TD*%
D52*
%TO.C,R20*%
X140010000Y-65515000D03*
X140010000Y-63865000D03*
%TD*%
D51*
%TO.C,C30*%
X25935000Y-192290000D03*
X22985000Y-192290000D03*
%TD*%
D30*
%TO.C,R19*%
X87875000Y-65388700D03*
X87875000Y-64368700D03*
%TD*%
D17*
%TO.C,C25*%
X71700000Y-153190000D03*
X69800000Y-153190000D03*
%TD*%
D30*
%TO.C,R9*%
X84022000Y-181393000D03*
X84022000Y-180373000D03*
%TD*%
D53*
%TO.C,C9*%
X25601200Y-57569000D03*
X25601200Y-56019000D03*
%TD*%
D28*
%TO.C,C23*%
X129450000Y-102570000D03*
X130410000Y-102570000D03*
%TD*%
D30*
%TO.C,R9*%
X84022000Y-116093000D03*
X84022000Y-115073000D03*
%TD*%
D55*
%TO.C,C6*%
X49778049Y-166520649D03*
X51121551Y-167864151D03*
%TD*%
D18*
%TO.C,Q1*%
X32011700Y-43059200D03*
X32011700Y-44959200D03*
X33886700Y-44009200D03*
%TD*%
D35*
%TO.C,J4*%
X15986600Y-11510000D03*
X15336600Y-11510000D03*
X14686600Y-11510000D03*
X14036600Y-11510000D03*
X13386600Y-11510000D03*
%TD*%
D33*
%TO.C,C22*%
X49761000Y-86395700D03*
X48801000Y-86395700D03*
%TD*%
D13*
%TO.C,U3*%
X112322499Y-88636300D03*
X111672501Y-88636300D03*
X111022499Y-88636300D03*
X110372501Y-88636300D03*
X109722502Y-88636300D03*
X109072501Y-88636300D03*
X108422502Y-88636300D03*
X107772501Y-88636300D03*
X107772501Y-94275100D03*
X108422499Y-94275100D03*
X109072501Y-94275100D03*
X109722499Y-94275100D03*
X110372498Y-94275100D03*
X111022499Y-94275100D03*
X111672498Y-94275100D03*
X112322499Y-94275100D03*
%TD*%
D18*
%TO.C,Q1*%
X150311700Y-43059200D03*
X150311700Y-44959200D03*
X152186700Y-44009200D03*
%TD*%
D13*
%TO.C,U3*%
X171472499Y-88636300D03*
X170822501Y-88636300D03*
X170172499Y-88636300D03*
X169522501Y-88636300D03*
X168872502Y-88636300D03*
X168222501Y-88636300D03*
X167572502Y-88636300D03*
X166922501Y-88636300D03*
X166922501Y-94275100D03*
X167572499Y-94275100D03*
X168222501Y-94275100D03*
X168872499Y-94275100D03*
X169522498Y-94275100D03*
X170172499Y-94275100D03*
X170822498Y-94275100D03*
X171472499Y-94275100D03*
%TD*%
D51*
%TO.C,C30*%
X144235000Y-61690000D03*
X141285000Y-61690000D03*
%TD*%
D31*
%TO.C,R12*%
X81355000Y-180474600D03*
X81355000Y-181494600D03*
%TD*%
D37*
%TO.C,U2*%
X162613233Y-173009000D03*
X166148767Y-173009000D03*
X163497117Y-172125117D03*
X165264883Y-173892883D03*
X164381000Y-171241233D03*
X164381000Y-173009000D03*
X163497117Y-173892883D03*
X164381000Y-174776767D03*
X165264883Y-172125117D03*
D38*
X167182911Y-172328410D03*
X166829357Y-171974856D03*
X166475804Y-171621303D03*
X166122250Y-171267750D03*
X165768697Y-170914196D03*
X165415144Y-170560643D03*
X165061590Y-170207089D03*
D39*
X163700410Y-170207089D03*
X163346856Y-170560643D03*
X162993303Y-170914196D03*
X162639750Y-171267750D03*
X162286196Y-171621303D03*
X161932643Y-171974856D03*
X161579089Y-172328410D03*
D38*
X161579089Y-173689590D03*
X161932643Y-174043144D03*
X162286196Y-174396697D03*
X162639750Y-174750250D03*
X162993303Y-175103804D03*
X163346856Y-175457357D03*
X163700410Y-175810911D03*
D39*
X165061590Y-175810911D03*
X165415144Y-175457357D03*
X165768697Y-175103804D03*
X166122250Y-174750250D03*
X166475804Y-174396697D03*
X166829357Y-174043144D03*
X167182911Y-173689590D03*
%TD*%
D43*
%TO.C,U5*%
X136621200Y-169122800D03*
X135501200Y-168002800D03*
X134381200Y-169122800D03*
X134381200Y-170242800D03*
X135501200Y-169122800D03*
X135501200Y-170242800D03*
X136621200Y-170242800D03*
X134381200Y-168002800D03*
X136621200Y-168002800D03*
D44*
X137001200Y-166672800D03*
X136501200Y-166672800D03*
X136001200Y-166672800D03*
X135501200Y-166672800D03*
X135001200Y-166672800D03*
X134501200Y-166672800D03*
X134001200Y-166672800D03*
D45*
X133051200Y-167622800D03*
X133051200Y-168122800D03*
X133051200Y-168622800D03*
X133051200Y-169122800D03*
X133051200Y-169622800D03*
X133051200Y-170122800D03*
X133051200Y-170622800D03*
D44*
X134001200Y-171572800D03*
X134501200Y-171572800D03*
X135001200Y-171572800D03*
X135501200Y-171572800D03*
X136001200Y-171572800D03*
X136501200Y-171572800D03*
X137001200Y-171572800D03*
D45*
X137951200Y-170622800D03*
X137951200Y-170122800D03*
X137951200Y-169622800D03*
X137951200Y-169122800D03*
X137951200Y-168622800D03*
X137951200Y-168122800D03*
X137951200Y-167622800D03*
%TD*%
D48*
%TO.C,R17*%
X160606635Y-110137165D03*
X159316165Y-111427635D03*
%TD*%
D31*
%TO.C,R10*%
X84250600Y-154592000D03*
X84250600Y-155612000D03*
%TD*%
D14*
%TO.C,C2*%
X23576600Y-149435200D03*
X23576600Y-148475200D03*
%TD*%
D15*
%TO.C,R18*%
X45060400Y-167300000D03*
X44040400Y-167300000D03*
%TD*%
D56*
%TO.C,U6*%
X15130000Y-113840000D03*
D57*
X12830000Y-120140000D03*
D56*
X12830000Y-113840000D03*
X10530000Y-113840000D03*
%TD*%
D20*
%TO.C,D9*%
X146093000Y-177555500D03*
X146093000Y-179130500D03*
%TD*%
D47*
%TO.C,C28*%
X30350000Y-123890000D03*
X32250000Y-123890000D03*
%TD*%
D29*
%TO.C,Q2*%
X28086700Y-44934200D03*
X28086700Y-43034200D03*
X26211700Y-43984200D03*
%TD*%
D55*
%TO.C,C6*%
X108928049Y-101220649D03*
X110271551Y-102564151D03*
%TD*%
D28*
%TO.C,C16*%
X138805800Y-20234800D03*
X139765800Y-20234800D03*
%TD*%
D31*
%TO.C,R10*%
X25100600Y-23992000D03*
X25100600Y-25012000D03*
%TD*%
D56*
%TO.C,U6*%
X133430000Y-113840000D03*
X131130000Y-113840000D03*
D57*
X131130000Y-120140000D03*
D56*
X128830000Y-113840000D03*
%TD*%
D41*
%TO.C,S1*%
X175560000Y-77260000D03*
X173060000Y-77260000D03*
X170560000Y-77260000D03*
%TD*%
D15*
%TO.C,R8*%
X30563600Y-45253800D03*
X29543600Y-45253800D03*
%TD*%
D19*
%TO.C,C1*%
X145730000Y-122790000D03*
X145730000Y-120890000D03*
%TD*%
D55*
%TO.C,C6*%
X108928049Y-166520649D03*
X110271551Y-167864151D03*
%TD*%
D19*
%TO.C,C1*%
X86580000Y-122790000D03*
X86580000Y-120890000D03*
%TD*%
D48*
%TO.C,R17*%
X42306635Y-44837165D03*
X41016165Y-46127635D03*
%TD*%
D15*
%TO.C,R7*%
X30563600Y-42764600D03*
X29543600Y-42764600D03*
%TD*%
D30*
%TO.C,R22*%
X27440000Y-196030000D03*
X27440000Y-195010000D03*
%TD*%
D48*
%TO.C,R17*%
X42306635Y-110137165D03*
X41016165Y-111427635D03*
%TD*%
D15*
%TO.C,R7*%
X30563600Y-173364600D03*
X29543600Y-173364600D03*
%TD*%
D54*
%TO.C,C21*%
X172807500Y-90805700D03*
X172807500Y-91765700D03*
%TD*%
D42*
%TO.C,C7*%
X36842500Y-118760000D03*
X43342500Y-118760000D03*
%TD*%
D40*
%TO.C,SW2*%
X21266000Y-79932200D03*
X21266000Y-84132200D03*
%TD*%
D26*
%TO.C,SW1*%
X49110000Y-84180000D03*
X49110000Y-79980000D03*
%TD*%
D56*
%TO.C,U6*%
X74280000Y-179140000D03*
X71980000Y-179140000D03*
D57*
X71980000Y-185440000D03*
D56*
X69680000Y-179140000D03*
%TD*%
D42*
%TO.C,C7*%
X155142500Y-118760000D03*
X161642500Y-118760000D03*
%TD*%
D15*
%TO.C,R11*%
X25128000Y-28083400D03*
X24108000Y-28083400D03*
%TD*%
D31*
%TO.C,R24*%
X86943000Y-49883000D03*
X86943000Y-50903000D03*
%TD*%
D20*
%TO.C,D9*%
X146093000Y-112255500D03*
X146093000Y-113830500D03*
%TD*%
D19*
%TO.C,C31*%
X25760000Y-131080000D03*
X25760000Y-129180000D03*
%TD*%
D34*
%TO.C,R16*%
X110329144Y-115270944D03*
X108260856Y-113202656D03*
%TD*%
D20*
%TO.C,D2*%
X81355000Y-47082500D03*
X81355000Y-48657500D03*
%TD*%
D36*
%TO.C,R14*%
X42443776Y-178373424D03*
X43165024Y-177652176D03*
%TD*%
D54*
%TO.C,C21*%
X113657500Y-90805700D03*
X113657500Y-91765700D03*
%TD*%
D30*
%TO.C,R6*%
X164120000Y-24990000D03*
X164120000Y-23970000D03*
%TD*%
D43*
%TO.C,U5*%
X17201200Y-170242800D03*
X16081200Y-168002800D03*
X17201200Y-169122800D03*
X18321200Y-170242800D03*
X17201200Y-168002800D03*
X18321200Y-168002800D03*
X18321200Y-169122800D03*
X16081200Y-170242800D03*
X16081200Y-169122800D03*
D44*
X18701200Y-166672800D03*
X18201200Y-166672800D03*
X17701200Y-166672800D03*
X17201200Y-166672800D03*
X16701200Y-166672800D03*
X16201200Y-166672800D03*
X15701200Y-166672800D03*
D45*
X14751200Y-167622800D03*
X14751200Y-168122800D03*
X14751200Y-168622800D03*
X14751200Y-169122800D03*
X14751200Y-169622800D03*
X14751200Y-170122800D03*
X14751200Y-170622800D03*
D44*
X15701200Y-171572800D03*
X16201200Y-171572800D03*
X16701200Y-171572800D03*
X17201200Y-171572800D03*
X17701200Y-171572800D03*
X18201200Y-171572800D03*
X18701200Y-171572800D03*
D45*
X19651200Y-170622800D03*
X19651200Y-170122800D03*
X19651200Y-169622800D03*
X19651200Y-169122800D03*
X19651200Y-168622800D03*
X19651200Y-168122800D03*
X19651200Y-167622800D03*
%TD*%
D21*
%TO.C,C11*%
X23792800Y-24451200D03*
X22242800Y-24451200D03*
%TD*%
%TO.C,C11*%
X142092800Y-155051200D03*
X140542800Y-155051200D03*
%TD*%
D28*
%TO.C,C20*%
X169120000Y-151631700D03*
X170080000Y-151631700D03*
%TD*%
D30*
%TO.C,R6*%
X104970000Y-90290000D03*
X104970000Y-89270000D03*
%TD*%
D28*
%TO.C,C17*%
X171140000Y-151631700D03*
X172100000Y-151631700D03*
%TD*%
D19*
%TO.C,C31*%
X84910000Y-131080000D03*
X84910000Y-129180000D03*
%TD*%
D31*
%TO.C,R12*%
X81355000Y-115174600D03*
X81355000Y-116194600D03*
%TD*%
D46*
%TO.C,R15*%
X54811344Y-172457456D03*
X52743056Y-174525744D03*
%TD*%
D20*
%TO.C,D2*%
X81355000Y-177682500D03*
X81355000Y-179257500D03*
%TD*%
D19*
%TO.C,C26*%
X23600000Y-131060000D03*
X23600000Y-129160000D03*
%TD*%
D30*
%TO.C,R13*%
X19411000Y-116220000D03*
X19411000Y-115200000D03*
%TD*%
D47*
%TO.C,C28*%
X89500000Y-58590000D03*
X91400000Y-58590000D03*
%TD*%
D55*
%TO.C,C6*%
X49778049Y-35920649D03*
X51121551Y-37264151D03*
%TD*%
D47*
%TO.C,C28*%
X30350000Y-189190000D03*
X32250000Y-189190000D03*
%TD*%
D30*
%TO.C,R13*%
X19411000Y-50920000D03*
X19411000Y-49900000D03*
%TD*%
D12*
%TO.C,C10*%
X142791000Y-29442000D03*
X142791000Y-30992000D03*
%TD*%
D30*
%TO.C,R13*%
X78561000Y-116220000D03*
X78561000Y-115200000D03*
%TD*%
D33*
%TO.C,C27*%
X130380000Y-89890000D03*
X129420000Y-89890000D03*
%TD*%
%TO.C,C13*%
X171680000Y-83970000D03*
X170720000Y-83970000D03*
%TD*%
D34*
%TO.C,R16*%
X51179144Y-115270944D03*
X49110856Y-113202656D03*
%TD*%
D17*
%TO.C,C8*%
X45100600Y-35043000D03*
X43200600Y-35043000D03*
%TD*%
D11*
%TO.C,R1*%
X138800000Y-153194000D03*
X139820000Y-153194000D03*
%TD*%
D55*
%TO.C,C6*%
X49778049Y-101220649D03*
X51121551Y-102564151D03*
%TD*%
D35*
%TO.C,J4*%
X15986600Y-76810000D03*
X15336600Y-76810000D03*
X14686600Y-76810000D03*
X14036600Y-76810000D03*
X13386600Y-76810000D03*
%TD*%
D10*
%TO.C,D8*%
X151130000Y-186360000D03*
X151130000Y-182360000D03*
%TD*%
D30*
%TO.C,R19*%
X147025000Y-195988700D03*
X147025000Y-194968700D03*
%TD*%
D15*
%TO.C,R18*%
X104210400Y-36700000D03*
X103190400Y-36700000D03*
%TD*%
D23*
%TO.C,U1*%
X26948000Y-15016000D03*
X26948000Y-16286000D03*
X26948000Y-17556000D03*
X26948000Y-18826000D03*
X26948000Y-20096000D03*
X26948000Y-21366000D03*
X26948000Y-22636000D03*
X26948000Y-23906000D03*
X26948000Y-25176000D03*
X26948000Y-26446000D03*
X26948000Y-27716000D03*
X26948000Y-28986000D03*
X26948000Y-30256000D03*
X26948000Y-31526000D03*
D24*
X29733000Y-32526000D03*
X31003000Y-32526000D03*
X32273000Y-32526000D03*
X33543000Y-32526000D03*
X34813000Y-32526000D03*
X36083000Y-32526000D03*
X37353000Y-32526000D03*
X38623000Y-32526000D03*
X39893000Y-32526000D03*
X41163000Y-32526000D03*
D23*
X43948000Y-31526000D03*
X43948000Y-30256000D03*
X43948000Y-28986000D03*
X43948000Y-27716000D03*
X43948000Y-26446000D03*
X43948000Y-25176000D03*
X43948000Y-23906000D03*
X43948000Y-22636000D03*
X43948000Y-21366000D03*
X43948000Y-20096000D03*
X43948000Y-18826000D03*
X43948000Y-17556000D03*
X43948000Y-16286000D03*
X43948000Y-15016000D03*
D25*
X34448000Y-22516000D03*
%TD*%
D37*
%TO.C,U2*%
X105231000Y-174776767D03*
X105231000Y-171241233D03*
X106998767Y-173009000D03*
X105231000Y-173009000D03*
X106114883Y-173892883D03*
X103463233Y-173009000D03*
X104347117Y-172125117D03*
X104347117Y-173892883D03*
X106114883Y-172125117D03*
D38*
X108032911Y-172328410D03*
X107679357Y-171974856D03*
X107325804Y-171621303D03*
X106972250Y-171267750D03*
X106618697Y-170914196D03*
X106265144Y-170560643D03*
X105911590Y-170207089D03*
D39*
X104550410Y-170207089D03*
X104196856Y-170560643D03*
X103843303Y-170914196D03*
X103489750Y-171267750D03*
X103136196Y-171621303D03*
X102782643Y-171974856D03*
X102429089Y-172328410D03*
D38*
X102429089Y-173689590D03*
X102782643Y-174043144D03*
X103136196Y-174396697D03*
X103489750Y-174750250D03*
X103843303Y-175103804D03*
X104196856Y-175457357D03*
X104550410Y-175810911D03*
D39*
X105911590Y-175810911D03*
X106265144Y-175457357D03*
X106618697Y-175103804D03*
X106972250Y-174750250D03*
X107325804Y-174396697D03*
X107679357Y-174043144D03*
X108032911Y-173689590D03*
%TD*%
D20*
%TO.C,D3*%
X137711000Y-112407900D03*
X137711000Y-113982900D03*
%TD*%
D42*
%TO.C,C7*%
X95992500Y-184060000D03*
X102492500Y-184060000D03*
%TD*%
D19*
%TO.C,C26*%
X23600000Y-196360000D03*
X23600000Y-194460000D03*
%TD*%
D27*
%TO.C,L1*%
X114830000Y-65280000D03*
X114830000Y-55380000D03*
%TD*%
D37*
%TO.C,U2*%
X46081000Y-174776767D03*
X46081000Y-173009000D03*
X47848767Y-173009000D03*
X46081000Y-171241233D03*
X44313233Y-173009000D03*
X46964883Y-172125117D03*
X45197117Y-172125117D03*
X45197117Y-173892883D03*
X46964883Y-173892883D03*
D38*
X48882911Y-172328410D03*
X48529357Y-171974856D03*
X48175804Y-171621303D03*
X47822250Y-171267750D03*
X47468697Y-170914196D03*
X47115144Y-170560643D03*
X46761590Y-170207089D03*
D39*
X45400410Y-170207089D03*
X45046856Y-170560643D03*
X44693303Y-170914196D03*
X44339750Y-171267750D03*
X43986196Y-171621303D03*
X43632643Y-171974856D03*
X43279089Y-172328410D03*
D38*
X43279089Y-173689590D03*
X43632643Y-174043144D03*
X43986196Y-174396697D03*
X44339750Y-174750250D03*
X44693303Y-175103804D03*
X45046856Y-175457357D03*
X45400410Y-175810911D03*
D39*
X46761590Y-175810911D03*
X47115144Y-175457357D03*
X47468697Y-175103804D03*
X47822250Y-174750250D03*
X48175804Y-174396697D03*
X48529357Y-174043144D03*
X48882911Y-173689590D03*
%TD*%
D32*
%TO.C,D1*%
X84022000Y-48530500D03*
X84022000Y-46955500D03*
%TD*%
D36*
%TO.C,R14*%
X160743776Y-47773424D03*
X161465024Y-47052176D03*
%TD*%
D54*
%TO.C,C21*%
X54507500Y-25505700D03*
X54507500Y-26465700D03*
%TD*%
D46*
%TO.C,R15*%
X173111344Y-107157456D03*
X171043056Y-109225744D03*
%TD*%
D28*
%TO.C,C20*%
X50820000Y-86331700D03*
X51780000Y-86331700D03*
%TD*%
D42*
%TO.C,C19*%
X99027500Y-192955000D03*
X105527500Y-192955000D03*
%TD*%
D28*
%TO.C,C16*%
X79655800Y-20234800D03*
X80615800Y-20234800D03*
%TD*%
D14*
%TO.C,C15*%
X137218700Y-15579600D03*
X137218700Y-14619600D03*
%TD*%
D15*
%TO.C,R8*%
X148863600Y-110553800D03*
X147843600Y-110553800D03*
%TD*%
D42*
%TO.C,C19*%
X39877500Y-62355000D03*
X46377500Y-62355000D03*
%TD*%
D23*
%TO.C,U1*%
X145248000Y-80316000D03*
X145248000Y-81586000D03*
X145248000Y-82856000D03*
X145248000Y-84126000D03*
X145248000Y-85396000D03*
X145248000Y-86666000D03*
X145248000Y-87936000D03*
X145248000Y-89206000D03*
X145248000Y-90476000D03*
X145248000Y-91746000D03*
X145248000Y-93016000D03*
X145248000Y-94286000D03*
X145248000Y-95556000D03*
X145248000Y-96826000D03*
D24*
X148033000Y-97826000D03*
X149303000Y-97826000D03*
X150573000Y-97826000D03*
X151843000Y-97826000D03*
X153113000Y-97826000D03*
X154383000Y-97826000D03*
X155653000Y-97826000D03*
X156923000Y-97826000D03*
X158193000Y-97826000D03*
X159463000Y-97826000D03*
D23*
X162248000Y-96826000D03*
X162248000Y-95556000D03*
X162248000Y-94286000D03*
X162248000Y-93016000D03*
X162248000Y-91746000D03*
X162248000Y-90476000D03*
X162248000Y-89206000D03*
X162248000Y-87936000D03*
X162248000Y-86666000D03*
X162248000Y-85396000D03*
X162248000Y-84126000D03*
X162248000Y-82856000D03*
X162248000Y-81586000D03*
X162248000Y-80316000D03*
D25*
X152748000Y-87816000D03*
%TD*%
D30*
%TO.C,R13*%
X137711000Y-116220000D03*
X137711000Y-115200000D03*
%TD*%
D26*
%TO.C,SW1*%
X167410000Y-18880000D03*
X167410000Y-14680000D03*
%TD*%
D30*
%TO.C,R19*%
X28725000Y-195988700D03*
X28725000Y-194968700D03*
%TD*%
D33*
%TO.C,C22*%
X168061000Y-86395700D03*
X167101000Y-86395700D03*
%TD*%
D20*
%TO.C,D3*%
X78561000Y-47107900D03*
X78561000Y-48682900D03*
%TD*%
D41*
%TO.C,S1*%
X57260000Y-142560000D03*
X54760000Y-142560000D03*
X52260000Y-142560000D03*
%TD*%
D21*
%TO.C,C11*%
X142092800Y-89751200D03*
X140542800Y-89751200D03*
%TD*%
D14*
%TO.C,C29*%
X28670000Y-63210000D03*
X28670000Y-62250000D03*
%TD*%
D29*
%TO.C,Q2*%
X28086700Y-110234200D03*
X28086700Y-108334200D03*
X26211700Y-109284200D03*
%TD*%
D11*
%TO.C,R4*%
X45830000Y-149430000D03*
X46850000Y-149430000D03*
%TD*%
D46*
%TO.C,R15*%
X54811344Y-107157456D03*
X52743056Y-109225744D03*
%TD*%
D20*
%TO.C,D2*%
X140505000Y-47082500D03*
X140505000Y-48657500D03*
%TD*%
D49*
%TO.C,U4*%
X33767000Y-61678100D03*
X32507000Y-61678100D03*
X33767000Y-63278100D03*
X32507000Y-63278100D03*
D50*
X30499500Y-60573100D03*
X30499500Y-61843100D03*
X30499500Y-63113100D03*
X30499500Y-64383100D03*
X35774500Y-64383100D03*
X35774500Y-63113100D03*
X35774500Y-61843100D03*
X35774500Y-60573100D03*
%TD*%
D11*
%TO.C,R1*%
X20500000Y-87894000D03*
X21520000Y-87894000D03*
%TD*%
D10*
%TO.C,D7*%
X71296600Y-176075800D03*
X71296600Y-172075800D03*
%TD*%
D21*
%TO.C,C11*%
X82942800Y-155051200D03*
X81392800Y-155051200D03*
%TD*%
D19*
%TO.C,C26*%
X82750000Y-131060000D03*
X82750000Y-129160000D03*
%TD*%
D53*
%TO.C,C9*%
X84751200Y-122869000D03*
X84751200Y-121319000D03*
%TD*%
D42*
%TO.C,C7*%
X95992500Y-118760000D03*
X102492500Y-118760000D03*
%TD*%
D49*
%TO.C,U4*%
X152067000Y-193878100D03*
X150807000Y-192278100D03*
X150807000Y-193878100D03*
X152067000Y-192278100D03*
D50*
X148799500Y-191173100D03*
X148799500Y-192443100D03*
X148799500Y-193713100D03*
X148799500Y-194983100D03*
X154074500Y-194983100D03*
X154074500Y-193713100D03*
X154074500Y-192443100D03*
X154074500Y-191173100D03*
%TD*%
D34*
%TO.C,R16*%
X51179144Y-49970944D03*
X49110856Y-47902656D03*
%TD*%
D54*
%TO.C,C21*%
X172807500Y-156105700D03*
X172807500Y-157065700D03*
%TD*%
D56*
%TO.C,U6*%
X133430000Y-48540000D03*
X131130000Y-48540000D03*
D57*
X131130000Y-54840000D03*
D56*
X128830000Y-48540000D03*
%TD*%
D13*
%TO.C,U3*%
X53172499Y-88636300D03*
X52522501Y-88636300D03*
X51872499Y-88636300D03*
X51222501Y-88636300D03*
X50572502Y-88636300D03*
X49922501Y-88636300D03*
X49272502Y-88636300D03*
X48622501Y-88636300D03*
X48622501Y-94275100D03*
X49272499Y-94275100D03*
X49922501Y-94275100D03*
X50572499Y-94275100D03*
X51222498Y-94275100D03*
X51872499Y-94275100D03*
X52522498Y-94275100D03*
X53172499Y-94275100D03*
%TD*%
D19*
%TO.C,C14*%
X34549400Y-179826400D03*
X34549400Y-177926400D03*
%TD*%
D32*
%TO.C,D1*%
X24872000Y-48530500D03*
X24872000Y-46955500D03*
%TD*%
D16*
%TO.C,U7*%
X14540000Y-80502500D03*
X13590000Y-80502500D03*
X12640000Y-80502500D03*
X12640000Y-82777500D03*
X13590000Y-82777500D03*
X14540000Y-82777500D03*
%TD*%
D30*
%TO.C,R9*%
X143172000Y-116093000D03*
X143172000Y-115073000D03*
%TD*%
D11*
%TO.C,R5*%
X45830000Y-150630000D03*
X46850000Y-150630000D03*
%TD*%
D46*
%TO.C,R15*%
X173111344Y-172457456D03*
X171043056Y-174525744D03*
%TD*%
D11*
%TO.C,R3*%
X17890000Y-82180000D03*
X18910000Y-82180000D03*
%TD*%
D49*
%TO.C,U4*%
X91657000Y-126978100D03*
X92917000Y-126978100D03*
X91657000Y-128578100D03*
X92917000Y-128578100D03*
D50*
X89649500Y-125873100D03*
X89649500Y-127143100D03*
X89649500Y-128413100D03*
X89649500Y-129683100D03*
X94924500Y-129683100D03*
X94924500Y-128413100D03*
X94924500Y-127143100D03*
X94924500Y-125873100D03*
%TD*%
D19*
%TO.C,C12*%
X165803400Y-119123800D03*
X165803400Y-117223800D03*
%TD*%
D18*
%TO.C,Q1*%
X91161700Y-173659200D03*
X91161700Y-175559200D03*
X93036700Y-174609200D03*
%TD*%
D52*
%TO.C,R20*%
X21710000Y-196115000D03*
X21710000Y-194465000D03*
%TD*%
D33*
%TO.C,C13*%
X171680000Y-149270000D03*
X170720000Y-149270000D03*
%TD*%
D15*
%TO.C,R21*%
X131030000Y-28240000D03*
X130010000Y-28240000D03*
%TD*%
%TO.C,R11*%
X143428000Y-93383400D03*
X142408000Y-93383400D03*
%TD*%
D17*
%TO.C,C25*%
X130850000Y-22590000D03*
X128950000Y-22590000D03*
%TD*%
D10*
%TO.C,D7*%
X130446600Y-110775800D03*
X130446600Y-106775800D03*
%TD*%
D20*
%TO.C,D3*%
X78561000Y-112407900D03*
X78561000Y-113982900D03*
%TD*%
D14*
%TO.C,C15*%
X137218700Y-80879600D03*
X137218700Y-79919600D03*
%TD*%
D41*
%TO.C,S1*%
X116410000Y-77260000D03*
X113910000Y-77260000D03*
X111410000Y-77260000D03*
%TD*%
D15*
%TO.C,R11*%
X25128000Y-93383400D03*
X24108000Y-93383400D03*
%TD*%
D43*
%TO.C,U5*%
X136621200Y-103822800D03*
X135501200Y-104942800D03*
X135501200Y-103822800D03*
X135501200Y-102702800D03*
X134381200Y-103822800D03*
X134381200Y-104942800D03*
X136621200Y-104942800D03*
X134381200Y-102702800D03*
X136621200Y-102702800D03*
D44*
X137001200Y-101372800D03*
X136501200Y-101372800D03*
X136001200Y-101372800D03*
X135501200Y-101372800D03*
X135001200Y-101372800D03*
X134501200Y-101372800D03*
X134001200Y-101372800D03*
D45*
X133051200Y-102322800D03*
X133051200Y-102822800D03*
X133051200Y-103322800D03*
X133051200Y-103822800D03*
X133051200Y-104322800D03*
X133051200Y-104822800D03*
X133051200Y-105322800D03*
D44*
X134001200Y-106272800D03*
X134501200Y-106272800D03*
X135001200Y-106272800D03*
X135501200Y-106272800D03*
X136001200Y-106272800D03*
X136501200Y-106272800D03*
X137001200Y-106272800D03*
D45*
X137951200Y-105322800D03*
X137951200Y-104822800D03*
X137951200Y-104322800D03*
X137951200Y-103822800D03*
X137951200Y-103322800D03*
X137951200Y-102822800D03*
X137951200Y-102322800D03*
%TD*%
D14*
%TO.C,C29*%
X87820000Y-128510000D03*
X87820000Y-127550000D03*
%TD*%
D49*
%TO.C,U4*%
X91657000Y-61678100D03*
X91657000Y-63278100D03*
X92917000Y-63278100D03*
X92917000Y-61678100D03*
D50*
X89649500Y-60573100D03*
X89649500Y-61843100D03*
X89649500Y-63113100D03*
X89649500Y-64383100D03*
X94924500Y-64383100D03*
X94924500Y-63113100D03*
X94924500Y-61843100D03*
X94924500Y-60573100D03*
%TD*%
D47*
%TO.C,C24*%
X10650000Y-26590000D03*
X12550000Y-26590000D03*
%TD*%
D28*
%TO.C,C17*%
X52840000Y-151631700D03*
X53800000Y-151631700D03*
%TD*%
D33*
%TO.C,C27*%
X12080000Y-155190000D03*
X11120000Y-155190000D03*
%TD*%
D19*
%TO.C,C4*%
X139913400Y-188318600D03*
X139913400Y-186418600D03*
%TD*%
D17*
%TO.C,C8*%
X163400600Y-165643000D03*
X161500600Y-165643000D03*
%TD*%
D42*
%TO.C,C19*%
X99027500Y-127655000D03*
X105527500Y-127655000D03*
%TD*%
D15*
%TO.C,R2*%
X139809600Y-86752800D03*
X138789600Y-86752800D03*
%TD*%
D34*
%TO.C,R16*%
X169479144Y-115270944D03*
X167410856Y-113202656D03*
%TD*%
D19*
%TO.C,C4*%
X21613400Y-188318600D03*
X21613400Y-186418600D03*
%TD*%
D33*
%TO.C,C13*%
X171680000Y-18670000D03*
X170720000Y-18670000D03*
%TD*%
D27*
%TO.C,L1*%
X114830000Y-130580000D03*
X114830000Y-120680000D03*
%TD*%
D19*
%TO.C,C14*%
X93699400Y-49226400D03*
X93699400Y-47326400D03*
%TD*%
D47*
%TO.C,C28*%
X30350000Y-58590000D03*
X32250000Y-58590000D03*
%TD*%
D13*
%TO.C,U3*%
X112322499Y-153936300D03*
X111672501Y-153936300D03*
X111022499Y-153936300D03*
X110372501Y-153936300D03*
X109722502Y-153936300D03*
X109072501Y-153936300D03*
X108422502Y-153936300D03*
X107772501Y-153936300D03*
X107772501Y-159575100D03*
X108422499Y-159575100D03*
X109072501Y-159575100D03*
X109722499Y-159575100D03*
X110372498Y-159575100D03*
X111022499Y-159575100D03*
X111672498Y-159575100D03*
X112322499Y-159575100D03*
%TD*%
D15*
%TO.C,R2*%
X21509600Y-86752800D03*
X20489600Y-86752800D03*
%TD*%
D17*
%TO.C,C25*%
X130850000Y-153190000D03*
X128950000Y-153190000D03*
%TD*%
D15*
%TO.C,R21*%
X12730000Y-28240000D03*
X11710000Y-28240000D03*
%TD*%
D31*
%TO.C,R24*%
X146093000Y-180483000D03*
X146093000Y-181503000D03*
%TD*%
D32*
%TO.C,D1*%
X84022000Y-113830500D03*
X84022000Y-112255500D03*
%TD*%
D21*
%TO.C,C11*%
X82942800Y-24451200D03*
X81392800Y-24451200D03*
%TD*%
D27*
%TO.C,L1*%
X173980000Y-130580000D03*
X173980000Y-120680000D03*
%TD*%
D30*
%TO.C,R19*%
X87875000Y-195988700D03*
X87875000Y-194968700D03*
%TD*%
D49*
%TO.C,U4*%
X91657000Y-193878100D03*
X92917000Y-192278100D03*
X91657000Y-192278100D03*
X92917000Y-193878100D03*
D50*
X89649500Y-191173100D03*
X89649500Y-192443100D03*
X89649500Y-193713100D03*
X89649500Y-194983100D03*
X94924500Y-194983100D03*
X94924500Y-193713100D03*
X94924500Y-192443100D03*
X94924500Y-191173100D03*
%TD*%
D31*
%TO.C,R24*%
X27793000Y-180483000D03*
X27793000Y-181503000D03*
%TD*%
D12*
%TO.C,C10*%
X142791000Y-94742000D03*
X142791000Y-96292000D03*
%TD*%
D41*
%TO.C,S1*%
X175560000Y-142560000D03*
X173060000Y-142560000D03*
X170560000Y-142560000D03*
%TD*%
D37*
%TO.C,U2*%
X165264883Y-106825117D03*
X164381000Y-109476767D03*
X164381000Y-107709000D03*
X165264883Y-108592883D03*
X163497117Y-106825117D03*
X166148767Y-107709000D03*
X164381000Y-105941233D03*
X163497117Y-108592883D03*
X162613233Y-107709000D03*
D38*
X167182911Y-107028410D03*
X166829357Y-106674856D03*
X166475804Y-106321303D03*
X166122250Y-105967750D03*
X165768697Y-105614196D03*
X165415144Y-105260643D03*
X165061590Y-104907089D03*
D39*
X163700410Y-104907089D03*
X163346856Y-105260643D03*
X162993303Y-105614196D03*
X162639750Y-105967750D03*
X162286196Y-106321303D03*
X161932643Y-106674856D03*
X161579089Y-107028410D03*
D38*
X161579089Y-108389590D03*
X161932643Y-108743144D03*
X162286196Y-109096697D03*
X162639750Y-109450250D03*
X162993303Y-109803804D03*
X163346856Y-110157357D03*
X163700410Y-110510911D03*
D39*
X165061590Y-110510911D03*
X165415144Y-110157357D03*
X165768697Y-109803804D03*
X166122250Y-109450250D03*
X166475804Y-109096697D03*
X166829357Y-108743144D03*
X167182911Y-108389590D03*
%TD*%
D11*
%TO.C,R4*%
X164130000Y-149430000D03*
X165150000Y-149430000D03*
%TD*%
D28*
%TO.C,C17*%
X171140000Y-21031700D03*
X172100000Y-21031700D03*
%TD*%
D47*
%TO.C,C24*%
X128950000Y-157190000D03*
X130850000Y-157190000D03*
%TD*%
D15*
%TO.C,R11*%
X84278000Y-158683400D03*
X83258000Y-158683400D03*
%TD*%
D22*
%TO.C,C3*%
X19330000Y-188155000D03*
X19330000Y-185205000D03*
%TD*%
D17*
%TO.C,C25*%
X130850000Y-87890000D03*
X128950000Y-87890000D03*
%TD*%
D19*
%TO.C,C4*%
X21613400Y-123018600D03*
X21613400Y-121118600D03*
%TD*%
D37*
%TO.C,U2*%
X106114883Y-108592883D03*
X105231000Y-105941233D03*
X106998767Y-107709000D03*
X104347117Y-108592883D03*
X105231000Y-109476767D03*
X103463233Y-107709000D03*
X104347117Y-106825117D03*
X106114883Y-106825117D03*
X105231000Y-107709000D03*
D38*
X108032911Y-107028410D03*
X107679357Y-106674856D03*
X107325804Y-106321303D03*
X106972250Y-105967750D03*
X106618697Y-105614196D03*
X106265144Y-105260643D03*
X105911590Y-104907089D03*
D39*
X104550410Y-104907089D03*
X104196856Y-105260643D03*
X103843303Y-105614196D03*
X103489750Y-105967750D03*
X103136196Y-106321303D03*
X102782643Y-106674856D03*
X102429089Y-107028410D03*
D38*
X102429089Y-108389590D03*
X102782643Y-108743144D03*
X103136196Y-109096697D03*
X103489750Y-109450250D03*
X103843303Y-109803804D03*
X104196856Y-110157357D03*
X104550410Y-110510911D03*
D39*
X105911590Y-110510911D03*
X106265144Y-110157357D03*
X106618697Y-109803804D03*
X106972250Y-109450250D03*
X107325804Y-109096697D03*
X107679357Y-108743144D03*
X108032911Y-108389590D03*
%TD*%
D12*
%TO.C,C10*%
X142791000Y-160042000D03*
X142791000Y-161592000D03*
%TD*%
D19*
%TO.C,C31*%
X84910000Y-196380000D03*
X84910000Y-194480000D03*
%TD*%
D51*
%TO.C,C30*%
X85085000Y-192290000D03*
X82135000Y-192290000D03*
%TD*%
D22*
%TO.C,C3*%
X137630000Y-188155000D03*
X137630000Y-185205000D03*
%TD*%
D13*
%TO.C,U3*%
X53172499Y-153936300D03*
X52522501Y-153936300D03*
X51872499Y-153936300D03*
X51222501Y-153936300D03*
X50572502Y-153936300D03*
X49922501Y-153936300D03*
X49272502Y-153936300D03*
X48622501Y-153936300D03*
X48622501Y-159575100D03*
X49272499Y-159575100D03*
X49922501Y-159575100D03*
X50572499Y-159575100D03*
X51222498Y-159575100D03*
X51872499Y-159575100D03*
X52522498Y-159575100D03*
X53172499Y-159575100D03*
%TD*%
D37*
%TO.C,U2*%
X164381000Y-40641233D03*
X165264883Y-43292883D03*
X162613233Y-42409000D03*
X166148767Y-42409000D03*
X163497117Y-43292883D03*
X163497117Y-41525117D03*
X164381000Y-42409000D03*
X164381000Y-44176767D03*
X165264883Y-41525117D03*
D38*
X167182911Y-41728410D03*
X166829357Y-41374856D03*
X166475804Y-41021303D03*
X166122250Y-40667750D03*
X165768697Y-40314196D03*
X165415144Y-39960643D03*
X165061590Y-39607089D03*
D39*
X163700410Y-39607089D03*
X163346856Y-39960643D03*
X162993303Y-40314196D03*
X162639750Y-40667750D03*
X162286196Y-41021303D03*
X161932643Y-41374856D03*
X161579089Y-41728410D03*
D38*
X161579089Y-43089590D03*
X161932643Y-43443144D03*
X162286196Y-43796697D03*
X162639750Y-44150250D03*
X162993303Y-44503804D03*
X163346856Y-44857357D03*
X163700410Y-45210911D03*
D39*
X165061590Y-45210911D03*
X165415144Y-44857357D03*
X165768697Y-44503804D03*
X166122250Y-44150250D03*
X166475804Y-43796697D03*
X166829357Y-43443144D03*
X167182911Y-43089590D03*
%TD*%
D16*
%TO.C,U7*%
X132840000Y-145802500D03*
X131890000Y-145802500D03*
X130940000Y-145802500D03*
X130940000Y-148077500D03*
X131890000Y-148077500D03*
X132840000Y-148077500D03*
%TD*%
D30*
%TO.C,R19*%
X28725000Y-65388700D03*
X28725000Y-64368700D03*
%TD*%
D10*
%TO.C,D8*%
X151130000Y-55760000D03*
X151130000Y-51760000D03*
%TD*%
D19*
%TO.C,C1*%
X86580000Y-188090000D03*
X86580000Y-186190000D03*
%TD*%
D15*
%TO.C,R2*%
X21509600Y-21452800D03*
X20489600Y-21452800D03*
%TD*%
D28*
%TO.C,C23*%
X11150000Y-37270000D03*
X12110000Y-37270000D03*
%TD*%
D19*
%TO.C,C26*%
X23600000Y-65760000D03*
X23600000Y-63860000D03*
%TD*%
%TO.C,C4*%
X21613400Y-57718600D03*
X21613400Y-55818600D03*
%TD*%
D22*
%TO.C,C18*%
X148050000Y-187015000D03*
X148050000Y-184065000D03*
%TD*%
D40*
%TO.C,SW2*%
X139566000Y-14632200D03*
X139566000Y-18832200D03*
%TD*%
D28*
%TO.C,C17*%
X111990000Y-86331700D03*
X112950000Y-86331700D03*
%TD*%
D18*
%TO.C,Q1*%
X91161700Y-43059200D03*
X91161700Y-44959200D03*
X93036700Y-44009200D03*
%TD*%
D32*
%TO.C,D1*%
X143172000Y-48530500D03*
X143172000Y-46955500D03*
%TD*%
D42*
%TO.C,C19*%
X99027500Y-62355000D03*
X105527500Y-62355000D03*
%TD*%
D11*
%TO.C,R4*%
X104980000Y-84130000D03*
X106000000Y-84130000D03*
%TD*%
D18*
%TO.C,Q1*%
X32011700Y-173659200D03*
X32011700Y-175559200D03*
X33886700Y-174609200D03*
%TD*%
D46*
%TO.C,R15*%
X113961344Y-41857456D03*
X111893056Y-43925744D03*
%TD*%
D12*
%TO.C,C10*%
X83641000Y-94742000D03*
X83641000Y-96292000D03*
%TD*%
D19*
%TO.C,C14*%
X152849400Y-179826400D03*
X152849400Y-177926400D03*
%TD*%
D32*
%TO.C,D1*%
X84022000Y-179130500D03*
X84022000Y-177555500D03*
%TD*%
D47*
%TO.C,C28*%
X148650000Y-189190000D03*
X150550000Y-189190000D03*
%TD*%
D42*
%TO.C,C7*%
X36842500Y-184060000D03*
X43342500Y-184060000D03*
%TD*%
D15*
%TO.C,R18*%
X163360400Y-36700000D03*
X162340400Y-36700000D03*
%TD*%
D51*
%TO.C,C30*%
X25935000Y-126990000D03*
X22985000Y-126990000D03*
%TD*%
D19*
%TO.C,C5*%
X82846200Y-57566200D03*
X82846200Y-55666200D03*
%TD*%
D17*
%TO.C,C8*%
X104250600Y-100343000D03*
X102350600Y-100343000D03*
%TD*%
D30*
%TO.C,R22*%
X145740000Y-65430000D03*
X145740000Y-64410000D03*
%TD*%
D33*
%TO.C,C27*%
X130380000Y-24590000D03*
X129420000Y-24590000D03*
%TD*%
D51*
%TO.C,C30*%
X144235000Y-126990000D03*
X141285000Y-126990000D03*
%TD*%
D33*
%TO.C,C13*%
X112530000Y-149270000D03*
X111570000Y-149270000D03*
%TD*%
D19*
%TO.C,C5*%
X141996200Y-122866200D03*
X141996200Y-120966200D03*
%TD*%
D11*
%TO.C,R1*%
X20500000Y-22594000D03*
X21520000Y-22594000D03*
%TD*%
D21*
%TO.C,C32*%
X134625000Y-46280000D03*
X133075000Y-46280000D03*
%TD*%
D53*
%TO.C,C9*%
X25601200Y-122869000D03*
X25601200Y-121319000D03*
%TD*%
D55*
%TO.C,C6*%
X168078049Y-35920649D03*
X169421551Y-37264151D03*
%TD*%
D11*
%TO.C,R4*%
X45830000Y-84130000D03*
X46850000Y-84130000D03*
%TD*%
D47*
%TO.C,C24*%
X10650000Y-157190000D03*
X12550000Y-157190000D03*
%TD*%
D28*
%TO.C,C20*%
X169120000Y-21031700D03*
X170080000Y-21031700D03*
%TD*%
%TO.C,C17*%
X111990000Y-21031700D03*
X112950000Y-21031700D03*
%TD*%
D19*
%TO.C,C31*%
X144060000Y-65780000D03*
X144060000Y-63880000D03*
%TD*%
D48*
%TO.C,R17*%
X160606635Y-44837165D03*
X159316165Y-46127635D03*
%TD*%
D51*
%TO.C,C30*%
X25935000Y-61690000D03*
X22985000Y-61690000D03*
%TD*%
D30*
%TO.C,R6*%
X45820000Y-24990000D03*
X45820000Y-23970000D03*
%TD*%
D16*
%TO.C,U7*%
X73690000Y-15202500D03*
X72740000Y-15202500D03*
X71790000Y-15202500D03*
X71790000Y-17477500D03*
X72740000Y-17477500D03*
X73690000Y-17477500D03*
%TD*%
D28*
%TO.C,C16*%
X20505800Y-85534800D03*
X21465800Y-85534800D03*
%TD*%
D17*
%TO.C,C25*%
X71700000Y-87890000D03*
X69800000Y-87890000D03*
%TD*%
D15*
%TO.C,R21*%
X71880000Y-158840000D03*
X70860000Y-158840000D03*
%TD*%
D21*
%TO.C,C11*%
X23792800Y-89751200D03*
X22242800Y-89751200D03*
%TD*%
D30*
%TO.C,R13*%
X137711000Y-181520000D03*
X137711000Y-180500000D03*
%TD*%
D56*
%TO.C,U6*%
X15130000Y-48540000D03*
D57*
X12830000Y-54840000D03*
D56*
X12830000Y-48540000D03*
X10530000Y-48540000D03*
%TD*%
D42*
%TO.C,C7*%
X36842500Y-53460000D03*
X43342500Y-53460000D03*
%TD*%
D15*
%TO.C,R8*%
X89713600Y-110553800D03*
X88693600Y-110553800D03*
%TD*%
D28*
%TO.C,C16*%
X138805800Y-150834800D03*
X139765800Y-150834800D03*
%TD*%
D51*
%TO.C,C30*%
X144235000Y-192290000D03*
X141285000Y-192290000D03*
%TD*%
D27*
%TO.C,L1*%
X55680000Y-130580000D03*
X55680000Y-120680000D03*
%TD*%
D20*
%TO.C,D2*%
X81355000Y-112382500D03*
X81355000Y-113957500D03*
%TD*%
D15*
%TO.C,R2*%
X21509600Y-152052800D03*
X20489600Y-152052800D03*
%TD*%
D33*
%TO.C,C22*%
X49761000Y-151695700D03*
X48801000Y-151695700D03*
%TD*%
D10*
%TO.C,D7*%
X71296600Y-45475800D03*
X71296600Y-41475800D03*
%TD*%
D18*
%TO.C,Q1*%
X91161700Y-108359200D03*
X91161700Y-110259200D03*
X93036700Y-109309200D03*
%TD*%
D56*
%TO.C,U6*%
X133430000Y-179140000D03*
D57*
X131130000Y-185440000D03*
D56*
X131130000Y-179140000D03*
X128830000Y-179140000D03*
%TD*%
D23*
%TO.C,U1*%
X86098000Y-15016000D03*
X86098000Y-16286000D03*
X86098000Y-17556000D03*
X86098000Y-18826000D03*
X86098000Y-20096000D03*
X86098000Y-21366000D03*
X86098000Y-22636000D03*
X86098000Y-23906000D03*
X86098000Y-25176000D03*
X86098000Y-26446000D03*
X86098000Y-27716000D03*
X86098000Y-28986000D03*
X86098000Y-30256000D03*
X86098000Y-31526000D03*
D24*
X88883000Y-32526000D03*
X90153000Y-32526000D03*
X91423000Y-32526000D03*
X92693000Y-32526000D03*
X93963000Y-32526000D03*
X95233000Y-32526000D03*
X96503000Y-32526000D03*
X97773000Y-32526000D03*
X99043000Y-32526000D03*
X100313000Y-32526000D03*
D23*
X103098000Y-31526000D03*
X103098000Y-30256000D03*
X103098000Y-28986000D03*
X103098000Y-27716000D03*
X103098000Y-26446000D03*
X103098000Y-25176000D03*
X103098000Y-23906000D03*
X103098000Y-22636000D03*
X103098000Y-21366000D03*
X103098000Y-20096000D03*
X103098000Y-18826000D03*
X103098000Y-17556000D03*
X103098000Y-16286000D03*
X103098000Y-15016000D03*
D25*
X93598000Y-22516000D03*
%TD*%
D46*
%TO.C,R15*%
X113961344Y-172457456D03*
X111893056Y-174525744D03*
%TD*%
D19*
%TO.C,C26*%
X82750000Y-196360000D03*
X82750000Y-194460000D03*
%TD*%
D15*
%TO.C,R21*%
X12730000Y-158840000D03*
X11710000Y-158840000D03*
%TD*%
%TO.C,R2*%
X80659600Y-152052800D03*
X79639600Y-152052800D03*
%TD*%
D28*
%TO.C,C16*%
X79655800Y-150834800D03*
X80615800Y-150834800D03*
%TD*%
D21*
%TO.C,C11*%
X142092800Y-24451200D03*
X140542800Y-24451200D03*
%TD*%
D22*
%TO.C,C18*%
X29750000Y-187015000D03*
X29750000Y-184065000D03*
%TD*%
D23*
%TO.C,U1*%
X26948000Y-145616000D03*
X26948000Y-146886000D03*
X26948000Y-148156000D03*
X26948000Y-149426000D03*
X26948000Y-150696000D03*
X26948000Y-151966000D03*
X26948000Y-153236000D03*
X26948000Y-154506000D03*
X26948000Y-155776000D03*
X26948000Y-157046000D03*
X26948000Y-158316000D03*
X26948000Y-159586000D03*
X26948000Y-160856000D03*
X26948000Y-162126000D03*
D24*
X29733000Y-163126000D03*
X31003000Y-163126000D03*
X32273000Y-163126000D03*
X33543000Y-163126000D03*
X34813000Y-163126000D03*
X36083000Y-163126000D03*
X37353000Y-163126000D03*
X38623000Y-163126000D03*
X39893000Y-163126000D03*
X41163000Y-163126000D03*
D23*
X43948000Y-162126000D03*
X43948000Y-160856000D03*
X43948000Y-159586000D03*
X43948000Y-158316000D03*
X43948000Y-157046000D03*
X43948000Y-155776000D03*
X43948000Y-154506000D03*
X43948000Y-153236000D03*
X43948000Y-151966000D03*
X43948000Y-150696000D03*
X43948000Y-149426000D03*
X43948000Y-148156000D03*
X43948000Y-146886000D03*
X43948000Y-145616000D03*
D25*
X34448000Y-153116000D03*
%TD*%
D31*
%TO.C,R10*%
X25100600Y-89292000D03*
X25100600Y-90312000D03*
%TD*%
D43*
%TO.C,U5*%
X77471200Y-38522800D03*
X76351200Y-39642800D03*
X76351200Y-37402800D03*
X75231200Y-39642800D03*
X77471200Y-39642800D03*
X75231200Y-37402800D03*
X76351200Y-38522800D03*
X75231200Y-38522800D03*
X77471200Y-37402800D03*
D44*
X77851200Y-36072800D03*
X77351200Y-36072800D03*
X76851200Y-36072800D03*
X76351200Y-36072800D03*
X75851200Y-36072800D03*
X75351200Y-36072800D03*
X74851200Y-36072800D03*
D45*
X73901200Y-37022800D03*
X73901200Y-37522800D03*
X73901200Y-38022800D03*
X73901200Y-38522800D03*
X73901200Y-39022800D03*
X73901200Y-39522800D03*
X73901200Y-40022800D03*
D44*
X74851200Y-40972800D03*
X75351200Y-40972800D03*
X75851200Y-40972800D03*
X76351200Y-40972800D03*
X76851200Y-40972800D03*
X77351200Y-40972800D03*
X77851200Y-40972800D03*
D45*
X78801200Y-40022800D03*
X78801200Y-39522800D03*
X78801200Y-39022800D03*
X78801200Y-38522800D03*
X78801200Y-38022800D03*
X78801200Y-37522800D03*
X78801200Y-37022800D03*
%TD*%
D22*
%TO.C,C18*%
X88900000Y-121715000D03*
X88900000Y-118765000D03*
%TD*%
D28*
%TO.C,C17*%
X52840000Y-86331700D03*
X53800000Y-86331700D03*
%TD*%
%TO.C,C20*%
X50820000Y-151631700D03*
X51780000Y-151631700D03*
%TD*%
D15*
%TO.C,R7*%
X148863600Y-108064600D03*
X147843600Y-108064600D03*
%TD*%
D11*
%TO.C,R5*%
X45830000Y-85330000D03*
X46850000Y-85330000D03*
%TD*%
D29*
%TO.C,Q2*%
X87236700Y-44934200D03*
X87236700Y-43034200D03*
X85361700Y-43984200D03*
%TD*%
D11*
%TO.C,R1*%
X79650000Y-87894000D03*
X80670000Y-87894000D03*
%TD*%
D17*
%TO.C,C8*%
X104250600Y-165643000D03*
X102350600Y-165643000D03*
%TD*%
D31*
%TO.C,R12*%
X22205000Y-180474600D03*
X22205000Y-181494600D03*
%TD*%
D54*
%TO.C,C21*%
X113657500Y-25505700D03*
X113657500Y-26465700D03*
%TD*%
D31*
%TO.C,R12*%
X22205000Y-49874600D03*
X22205000Y-50894600D03*
%TD*%
D14*
%TO.C,C2*%
X141876600Y-149435200D03*
X141876600Y-148475200D03*
%TD*%
D19*
%TO.C,C26*%
X141900000Y-131060000D03*
X141900000Y-129160000D03*
%TD*%
D33*
%TO.C,C27*%
X12080000Y-24590000D03*
X11120000Y-24590000D03*
%TD*%
D43*
%TO.C,U5*%
X18321200Y-104942800D03*
X16081200Y-104942800D03*
X16081200Y-102702800D03*
X16081200Y-103822800D03*
X17201200Y-103822800D03*
X18321200Y-103822800D03*
X17201200Y-102702800D03*
X18321200Y-102702800D03*
X17201200Y-104942800D03*
D44*
X18701200Y-101372800D03*
X18201200Y-101372800D03*
X17701200Y-101372800D03*
X17201200Y-101372800D03*
X16701200Y-101372800D03*
X16201200Y-101372800D03*
X15701200Y-101372800D03*
D45*
X14751200Y-102322800D03*
X14751200Y-102822800D03*
X14751200Y-103322800D03*
X14751200Y-103822800D03*
X14751200Y-104322800D03*
X14751200Y-104822800D03*
X14751200Y-105322800D03*
D44*
X15701200Y-106272800D03*
X16201200Y-106272800D03*
X16701200Y-106272800D03*
X17201200Y-106272800D03*
X17701200Y-106272800D03*
X18201200Y-106272800D03*
X18701200Y-106272800D03*
D45*
X19651200Y-105322800D03*
X19651200Y-104822800D03*
X19651200Y-104322800D03*
X19651200Y-103822800D03*
X19651200Y-103322800D03*
X19651200Y-102822800D03*
X19651200Y-102322800D03*
%TD*%
D10*
%TO.C,D8*%
X32830000Y-121060000D03*
X32830000Y-117060000D03*
%TD*%
D30*
%TO.C,R6*%
X45820000Y-90290000D03*
X45820000Y-89270000D03*
%TD*%
D42*
%TO.C,C19*%
X158177500Y-127655000D03*
X164677500Y-127655000D03*
%TD*%
D15*
%TO.C,R7*%
X30563600Y-108064600D03*
X29543600Y-108064600D03*
%TD*%
D40*
%TO.C,SW2*%
X139566000Y-145232200D03*
X139566000Y-149432200D03*
%TD*%
D36*
%TO.C,R14*%
X101593776Y-113073424D03*
X102315024Y-112352176D03*
%TD*%
D19*
%TO.C,C1*%
X27430000Y-188090000D03*
X27430000Y-186190000D03*
%TD*%
D55*
%TO.C,C6*%
X168078049Y-101220649D03*
X169421551Y-102564151D03*
%TD*%
D19*
%TO.C,C12*%
X165803400Y-53823800D03*
X165803400Y-51923800D03*
%TD*%
D27*
%TO.C,L1*%
X55680000Y-65280000D03*
X55680000Y-55380000D03*
%TD*%
D30*
%TO.C,R9*%
X24872000Y-116093000D03*
X24872000Y-115073000D03*
%TD*%
D56*
%TO.C,U6*%
X74280000Y-113840000D03*
X71980000Y-113840000D03*
D57*
X71980000Y-120140000D03*
D56*
X69680000Y-113840000D03*
%TD*%
D31*
%TO.C,R12*%
X140505000Y-115174600D03*
X140505000Y-116194600D03*
%TD*%
D20*
%TO.C,D3*%
X19411000Y-47107900D03*
X19411000Y-48682900D03*
%TD*%
D19*
%TO.C,C1*%
X145730000Y-188090000D03*
X145730000Y-186190000D03*
%TD*%
D11*
%TO.C,R1*%
X138800000Y-87894000D03*
X139820000Y-87894000D03*
%TD*%
D29*
%TO.C,Q2*%
X87236700Y-110234200D03*
X87236700Y-108334200D03*
X85361700Y-109284200D03*
%TD*%
D15*
%TO.C,R2*%
X80659600Y-21452800D03*
X79639600Y-21452800D03*
%TD*%
D37*
%TO.C,U2*%
X46964883Y-41525117D03*
X45197117Y-41525117D03*
X46081000Y-40641233D03*
X46081000Y-44176767D03*
X46081000Y-42409000D03*
X47848767Y-42409000D03*
X44313233Y-42409000D03*
X45197117Y-43292883D03*
X46964883Y-43292883D03*
D38*
X48882911Y-41728410D03*
X48529357Y-41374856D03*
X48175804Y-41021303D03*
X47822250Y-40667750D03*
X47468697Y-40314196D03*
X47115144Y-39960643D03*
X46761590Y-39607089D03*
D39*
X45400410Y-39607089D03*
X45046856Y-39960643D03*
X44693303Y-40314196D03*
X44339750Y-40667750D03*
X43986196Y-41021303D03*
X43632643Y-41374856D03*
X43279089Y-41728410D03*
D38*
X43279089Y-43089590D03*
X43632643Y-43443144D03*
X43986196Y-43796697D03*
X44339750Y-44150250D03*
X44693303Y-44503804D03*
X45046856Y-44857357D03*
X45400410Y-45210911D03*
D39*
X46761590Y-45210911D03*
X47115144Y-44857357D03*
X47468697Y-44503804D03*
X47822250Y-44150250D03*
X48175804Y-43796697D03*
X48529357Y-43443144D03*
X48882911Y-43089590D03*
%TD*%
M02*
