M48
; DRILL file {KiCad (6.0.7)} date Sat Jan 21 14:40:08 2023
; FORMAT={-:-/ absolute / inch / decimal}
; #@! TF.CreationDate,2023-01-21T14:40:08-06:00
; #@! TF.GenerationSoftware,Kicad,Pcbnew,(6.0.7)
; #@! TF.FileFunction,Plated,1,2,PTH
FMAT,2
INCH
; #@! TA.AperFunction,Plated,PTH,ViaDrill
T1C0.0157
; #@! TA.AperFunction,Plated,PTH,ComponentDrill
T2C0.0197
; #@! TA.AperFunction,Plated,PTH,ComponentDrill
T3C0.0217
; #@! TA.AperFunction,Plated,PTH,ComponentDrill
T4C0.0374
%
G90
G05
T1
X0.3996Y-0.9666
X0.3996Y-3.5375
X0.3996Y-6.1083
X0.4092Y-1.3086
X0.4092Y-3.8795
X0.4092Y-6.4504
X0.4257Y-1.1198
X0.4257Y-3.6907
X0.4257Y-6.2616
X0.4392Y-1.2613
X0.4392Y-3.8322
X0.4392Y-6.4031
X0.4768Y-1.429
X0.4768Y-3.9998
X0.4768Y-6.5707
X0.4972Y-0.5402
X0.4972Y-3.111
X0.4972Y-5.6819
X0.5087Y-1.2387
X0.5087Y-3.8095
X0.5087Y-6.3804
X0.5402Y-1.3556
X0.5402Y-3.9265
X0.5402Y-6.4974
X0.5406Y-0.752
X0.5406Y-3.3228
X0.5406Y-5.8937
X0.5662Y-1.3106
X0.5662Y-3.8815
X0.5662Y-6.4524
X0.5952Y-1.9766
X0.5952Y-4.5475
X0.5952Y-7.1184
X0.599Y-1.2387
X0.599Y-3.8095
X0.599Y-6.3804
X0.6077Y-0.5212
X0.6077Y-3.092
X0.6077Y-5.6629
X0.6422Y-1.5486
X0.6422Y-4.1195
X0.6422Y-6.6904
X0.6561Y-1.2276
X0.6561Y-3.7985
X0.6561Y-6.3694
X0.6835Y-0.8265
X0.6835Y-3.3974
X0.6835Y-5.9683
X0.6967Y-0.6053
X0.6967Y-3.1762
X0.6967Y-5.747
X0.7342Y-0.483
X0.7342Y-3.0538
X0.7342Y-5.6247
X0.7612Y-2.1976
X0.7612Y-4.7685
X0.7612Y-7.3394
X0.7872Y-0.6986
X0.7872Y-3.2695
X0.7872Y-5.8404
X0.8232Y-1.6386
X0.8232Y-4.2095
X0.8232Y-6.7804
X0.8509Y-2.1516
X0.8509Y-4.7225
X0.8509Y-7.2934
X0.854Y-1.7098
X0.854Y-4.2807
X0.854Y-6.8515
X0.8542Y-1.2096
X0.8542Y-3.7805
X0.8542Y-6.3514
X0.8547Y-2.4713
X0.8547Y-5.0421
X0.8547Y-7.613
X0.8792Y-1.5596
X0.8792Y-4.1305
X0.8792Y-6.7014
X0.8822Y-0.9181
X0.8822Y-3.4889
X0.8822Y-6.0598
X0.8842Y-1.6546
X0.8842Y-4.2255
X0.8842Y-6.7964
X0.8846Y-0.8446
X0.8846Y-3.4155
X0.8846Y-5.9863
X0.8942Y-1.3732
X0.8942Y-1.7696
X0.8942Y-3.944
X0.8942Y-4.3405
X0.8942Y-6.5149
X0.8942Y-6.9114
X0.8982Y-0.5966
X0.8982Y-3.1675
X0.8982Y-5.7384
X0.9282Y-0.6666
X0.9282Y-3.2375
X0.9282Y-5.8084
X0.9292Y-1.5596
X0.9292Y-1.6796
X0.9292Y-4.1305
X0.9292Y-4.2505
X0.9292Y-6.7014
X0.9292Y-6.8214
X0.9329Y-2.1447
X0.9329Y-4.7156
X0.9329Y-7.2865
X0.9342Y-1.3746
X0.9342Y-3.9455
X0.9342Y-6.5164
X0.9343Y-2.3221
X0.9343Y-4.893
X0.9343Y-7.4639
X0.9372Y-0.8636
X0.9372Y-3.4345
X0.9372Y-6.0054
X0.9392Y-1.9996
X0.9392Y-4.5705
X0.9392Y-7.1414
X0.9542Y-1.7696
X0.9542Y-4.3405
X0.9542Y-6.9114
X0.9692Y-1.0696
X0.9692Y-3.6405
X0.9692Y-6.2114
X0.9702Y-1.0206
X0.9702Y-3.5915
X0.9702Y-6.1624
X0.9812Y-0.7386
X0.9812Y-3.3095
X0.9812Y-5.8804
X0.9832Y-0.7846
X0.9832Y-3.3555
X0.9832Y-5.9264
X0.9961Y-0.5912
X0.9961Y-3.162
X0.9961Y-5.7329
X1.0079Y-2.1609
X1.0079Y-4.7317
X1.0079Y-7.3026
X1.0799Y-2.1437
X1.0799Y-4.7145
X1.0799Y-7.2854
X1.1287Y-2.4146
X1.1287Y-4.9854
X1.1287Y-7.5563
X1.1342Y-1.0896
X1.1342Y-3.6605
X1.1342Y-6.2314
X1.1492Y-1.8446
X1.1492Y-4.4155
X1.1492Y-6.9864
X1.1508Y-2.2826
X1.1508Y-4.8535
X1.1508Y-7.4244
X1.1642Y-1.2096
X1.1642Y-3.7805
X1.1642Y-6.3514
X1.1713Y-2.0581
X1.1713Y-4.6289
X1.1713Y-7.1998
X1.1842Y-1.0178
X1.1842Y-3.5887
X1.1842Y-6.1595
X1.2362Y-2.0376
X1.2362Y-4.6085
X1.2362Y-7.1794
X1.2655Y-1.2133
X1.2655Y-3.7842
X1.2655Y-6.3551
X1.3032Y-0.8396
X1.3032Y-0.8896
X1.3032Y-0.9396
X1.3032Y-3.4105
X1.3032Y-3.4605
X1.3032Y-3.5105
X1.3032Y-5.9814
X1.3032Y-6.0314
X1.3032Y-6.0814
X1.3046Y-2.547
X1.3046Y-5.1178
X1.3046Y-7.6887
X1.3192Y-1.2146
X1.3192Y-3.7855
X1.3192Y-6.3564
X1.3532Y-0.8396
X1.3532Y-0.8896
X1.3532Y-3.4105
X1.3532Y-3.4605
X1.3532Y-5.9814
X1.3532Y-6.0314
X1.3542Y-0.9396
X1.3542Y-3.5105
X1.3542Y-6.0814
X1.3677Y-1.7981
X1.3677Y-4.369
X1.3677Y-6.9399
X1.3682Y-1.6846
X1.3682Y-4.2555
X1.3682Y-6.8264
X1.402Y-2.0066
X1.402Y-4.5775
X1.402Y-7.1484
X1.4032Y-0.8396
X1.4032Y-0.8896
X1.4032Y-0.9396
X1.4032Y-3.4105
X1.4032Y-3.4605
X1.4032Y-3.5105
X1.4032Y-5.9814
X1.4032Y-6.0314
X1.4032Y-6.0814
X1.4792Y-1.6496
X1.4792Y-4.2205
X1.4792Y-6.7914
X1.4802Y-1.4146
X1.4802Y-3.9855
X1.4802Y-6.5564
X1.5049Y-1.3664
X1.5049Y-3.9373
X1.5049Y-6.5082
X1.5672Y-1.7576
X1.5672Y-4.3285
X1.5672Y-6.8994
X1.5682Y-1.6646
X1.5682Y-4.2355
X1.5682Y-6.8064
X1.5692Y-1.4496
X1.5692Y-4.0205
X1.5692Y-6.5914
X1.5952Y-1.8966
X1.5952Y-4.4675
X1.5952Y-7.0384
X1.6242Y-1.6335
X1.6242Y-4.2044
X1.6242Y-6.7752
X1.6432Y-1.9301
X1.6432Y-4.501
X1.6432Y-7.0718
X1.6647Y-0.5887
X1.6647Y-3.1596
X1.6647Y-5.7304
X1.6811Y-1.5406
X1.6811Y-4.1115
X1.6811Y-6.6824
X1.6902Y-1.4396
X1.6902Y-4.0105
X1.6902Y-6.5814
X1.6979Y-2.4471
X1.6979Y-5.018
X1.6979Y-7.5889
X1.7025Y-1.322
X1.7025Y-3.8929
X1.7025Y-6.4637
X1.7064Y-2.028
X1.7064Y-4.5989
X1.7064Y-7.1698
X1.7182Y-1.5605
X1.7182Y-4.1314
X1.7182Y-6.7022
X1.7418Y-1.6726
X1.7418Y-4.2435
X1.7418Y-6.8144
X1.7772Y-1.6373
X1.7772Y-1.708
X1.7772Y-4.2081
X1.7772Y-4.2789
X1.7772Y-6.779
X1.7772Y-6.8497
X1.7991Y-0.891
X1.7991Y-3.4619
X1.7991Y-6.0327
X1.8125Y-1.6019
X1.8125Y-1.6726
X1.8125Y-1.7433
X1.8125Y-4.1728
X1.8125Y-4.2435
X1.8125Y-4.3142
X1.8125Y-6.7437
X1.8125Y-6.8144
X1.8125Y-6.8851
X1.8242Y-1.2432
X1.8242Y-3.814
X1.8242Y-6.3849
X1.8252Y-1.4006
X1.8252Y-3.9715
X1.8252Y-6.5424
X1.8259Y-2.5294
X1.8259Y-5.1003
X1.8259Y-7.6711
X1.8342Y-1.1196
X1.8342Y-3.6905
X1.8342Y-6.2614
X1.8352Y-1.4946
X1.8352Y-4.0655
X1.8352Y-6.6364
X1.8479Y-1.6373
X1.8479Y-1.708
X1.8479Y-4.2081
X1.8479Y-4.2789
X1.8479Y-6.779
X1.8479Y-6.8497
X1.8562Y-1.8626
X1.8562Y-4.4335
X1.8562Y-7.0044
X1.8722Y-2.0016
X1.8722Y-4.5725
X1.8722Y-7.1434
X1.8772Y-1.1224
X1.8772Y-3.6932
X1.8772Y-6.2641
X1.8779Y-1.2473
X1.8779Y-3.8182
X1.8779Y-6.389
X1.8832Y-1.6726
X1.8832Y-4.2435
X1.8832Y-6.8144
X1.8916Y-1.5241
X1.8916Y-4.0949
X1.8916Y-6.6658
X1.9058Y-1.0196
X1.9058Y-3.5905
X1.9058Y-6.1614
X1.9192Y-0.8621
X1.9192Y-3.433
X1.9192Y-6.0039
X1.9442Y-0.6196
X1.9442Y-3.1905
X1.9442Y-5.7614
X1.9942Y-1.0596
X1.9942Y-3.6305
X1.9942Y-6.2014
X2.0002Y-1.5836
X2.0002Y-4.1545
X2.0002Y-6.7254
X2.0242Y-0.7296
X2.0242Y-3.3005
X2.0242Y-5.8714
X2.0346Y-1.8634
X2.0346Y-4.4343
X2.0346Y-7.0051
X2.0408Y-2.0067
X2.0408Y-4.5776
X2.0408Y-7.1485
X2.0442Y-1.6626
X2.0442Y-4.2335
X2.0442Y-6.8044
X2.0559Y-0.9801
X2.0559Y-3.551
X2.0559Y-6.1218
X2.0678Y-1.2011
X2.0678Y-3.772
X2.0678Y-6.3429
X2.1088Y-1.033
X2.1088Y-3.6038
X2.1088Y-6.1747
X2.1852Y-0.7476
X2.1852Y-3.3185
X2.1852Y-5.8894
X2.1921Y-1.9421
X2.1921Y-4.513
X2.1921Y-7.0839
X2.1942Y-1.0136
X2.1942Y-3.5845
X2.1942Y-6.1554
X2.2092Y-1.6876
X2.2092Y-4.2585
X2.2092Y-6.8294
X2.2342Y-1.2396
X2.2342Y-3.8105
X2.2342Y-6.3814
X2.7283Y-0.9666
X2.7283Y-3.5375
X2.7283Y-6.1083
X2.738Y-1.3086
X2.738Y-3.8795
X2.738Y-6.4504
X2.7544Y-1.1198
X2.7544Y-3.6907
X2.7544Y-6.2616
X2.7679Y-1.2613
X2.7679Y-3.8322
X2.7679Y-6.4031
X2.8055Y-1.429
X2.8055Y-3.9998
X2.8055Y-6.5707
X2.826Y-0.5402
X2.826Y-3.111
X2.826Y-5.6819
X2.8375Y-1.2387
X2.8375Y-3.8095
X2.8375Y-6.3804
X2.869Y-1.3556
X2.869Y-3.9265
X2.869Y-6.4974
X2.8693Y-0.752
X2.8693Y-3.3228
X2.8693Y-5.8937
X2.895Y-1.3106
X2.895Y-3.8815
X2.895Y-6.4524
X2.924Y-1.9766
X2.924Y-4.5475
X2.924Y-7.1184
X2.9277Y-1.2387
X2.9277Y-3.8095
X2.9277Y-6.3804
X2.9364Y-0.5212
X2.9364Y-3.092
X2.9364Y-5.6629
X2.971Y-1.5486
X2.971Y-4.1195
X2.971Y-6.6904
X2.9848Y-1.2276
X2.9848Y-3.7985
X2.9848Y-6.3694
X3.0123Y-0.8265
X3.0123Y-3.3974
X3.0123Y-5.9683
X3.0255Y-0.6053
X3.0255Y-3.1762
X3.0255Y-5.747
X3.063Y-0.483
X3.063Y-3.0538
X3.063Y-5.6247
X3.09Y-2.1976
X3.09Y-4.7685
X3.09Y-7.3394
X3.116Y-0.6986
X3.116Y-3.2695
X3.116Y-5.8404
X3.152Y-1.6386
X3.152Y-4.2095
X3.152Y-6.7804
X3.1797Y-2.1516
X3.1797Y-4.7225
X3.1797Y-7.2934
X3.1828Y-1.7098
X3.1828Y-4.2807
X3.1828Y-6.8515
X3.183Y-1.2096
X3.183Y-3.7805
X3.183Y-6.3514
X3.1835Y-2.4713
X3.1835Y-5.0421
X3.1835Y-7.613
X3.208Y-1.5596
X3.208Y-4.1305
X3.208Y-6.7014
X3.211Y-0.9181
X3.211Y-3.4889
X3.211Y-6.0598
X3.213Y-1.6546
X3.213Y-4.2255
X3.213Y-6.7964
X3.2133Y-0.8446
X3.2133Y-3.4155
X3.2133Y-5.9863
X3.223Y-1.3732
X3.223Y-1.7696
X3.223Y-3.944
X3.223Y-4.3405
X3.223Y-6.5149
X3.223Y-6.9114
X3.227Y-0.5966
X3.227Y-3.1675
X3.227Y-5.7384
X3.257Y-0.6666
X3.257Y-3.2375
X3.257Y-5.8084
X3.258Y-1.5596
X3.258Y-1.6796
X3.258Y-4.1305
X3.258Y-4.2505
X3.258Y-6.7014
X3.258Y-6.8214
X3.2617Y-2.1447
X3.2617Y-4.7156
X3.2617Y-7.2865
X3.263Y-1.3746
X3.263Y-3.9455
X3.263Y-6.5164
X3.2631Y-2.3221
X3.2631Y-4.893
X3.2631Y-7.4639
X3.266Y-0.8636
X3.266Y-3.4345
X3.266Y-6.0054
X3.268Y-1.9996
X3.268Y-4.5705
X3.268Y-7.1414
X3.283Y-1.7696
X3.283Y-4.3405
X3.283Y-6.9114
X3.298Y-1.0696
X3.298Y-3.6405
X3.298Y-6.2114
X3.299Y-1.0206
X3.299Y-3.5915
X3.299Y-6.1624
X3.31Y-0.7386
X3.31Y-3.3095
X3.31Y-5.8804
X3.312Y-0.7846
X3.312Y-3.3555
X3.312Y-5.9264
X3.3249Y-0.5912
X3.3249Y-3.162
X3.3249Y-5.7329
X3.3367Y-2.1609
X3.3367Y-4.7317
X3.3367Y-7.3026
X3.4087Y-2.1437
X3.4087Y-4.7145
X3.4087Y-7.2854
X3.4575Y-2.4146
X3.4575Y-4.9854
X3.4575Y-7.5563
X3.463Y-1.0896
X3.463Y-3.6605
X3.463Y-6.2314
X3.478Y-1.8446
X3.478Y-4.4155
X3.478Y-6.9864
X3.4795Y-2.2826
X3.4795Y-4.8535
X3.4795Y-7.4244
X3.493Y-1.2096
X3.493Y-3.7805
X3.493Y-6.3514
X3.5Y-2.0581
X3.5Y-4.6289
X3.5Y-7.1998
X3.513Y-1.0178
X3.513Y-3.5887
X3.513Y-6.1595
X3.565Y-2.0376
X3.565Y-4.6085
X3.565Y-7.1794
X3.5943Y-1.2133
X3.5943Y-3.7842
X3.5943Y-6.3551
X3.632Y-0.8396
X3.632Y-0.8896
X3.632Y-0.9396
X3.632Y-3.4105
X3.632Y-3.4605
X3.632Y-3.5105
X3.632Y-5.9814
X3.632Y-6.0314
X3.632Y-6.0814
X3.6333Y-2.547
X3.6333Y-5.1178
X3.6333Y-7.6887
X3.648Y-1.2146
X3.648Y-3.7855
X3.648Y-6.3564
X3.682Y-0.8396
X3.682Y-0.8896
X3.682Y-3.4105
X3.682Y-3.4605
X3.682Y-5.9814
X3.682Y-6.0314
X3.683Y-0.9396
X3.683Y-3.5105
X3.683Y-6.0814
X3.6965Y-1.7981
X3.6965Y-4.369
X3.6965Y-6.9399
X3.697Y-1.6846
X3.697Y-4.2555
X3.697Y-6.8264
X3.7308Y-2.0066
X3.7308Y-4.5775
X3.7308Y-7.1484
X3.732Y-0.8396
X3.732Y-0.8896
X3.732Y-0.9396
X3.732Y-3.4105
X3.732Y-3.4605
X3.732Y-3.5105
X3.732Y-5.9814
X3.732Y-6.0314
X3.732Y-6.0814
X3.808Y-1.6496
X3.808Y-4.2205
X3.808Y-6.7914
X3.809Y-1.4146
X3.809Y-3.9855
X3.809Y-6.5564
X3.8336Y-1.3664
X3.8336Y-3.9373
X3.8336Y-6.5082
X3.896Y-1.7576
X3.896Y-4.3285
X3.896Y-6.8994
X3.897Y-1.6646
X3.897Y-4.2355
X3.897Y-6.8064
X3.898Y-1.4496
X3.898Y-4.0205
X3.898Y-6.5914
X3.924Y-1.8966
X3.924Y-4.4675
X3.924Y-7.0384
X3.953Y-1.6335
X3.953Y-4.2044
X3.953Y-6.7752
X3.972Y-1.9301
X3.972Y-4.501
X3.972Y-7.0718
X3.9935Y-0.5887
X3.9935Y-3.1596
X3.9935Y-5.7304
X4.0099Y-1.5406
X4.0099Y-4.1115
X4.0099Y-6.6824
X4.019Y-1.4396
X4.019Y-4.0105
X4.019Y-6.5814
X4.0267Y-2.4471
X4.0267Y-5.018
X4.0267Y-7.5889
X4.0312Y-1.322
X4.0312Y-3.8929
X4.0312Y-6.4637
X4.0351Y-2.028
X4.0351Y-4.5989
X4.0351Y-7.1698
X4.0469Y-1.5605
X4.0469Y-4.1314
X4.0469Y-6.7022
X4.0705Y-1.6726
X4.0705Y-4.2435
X4.0705Y-6.8144
X4.1059Y-1.6373
X4.1059Y-1.708
X4.1059Y-4.2081
X4.1059Y-4.2789
X4.1059Y-6.779
X4.1059Y-6.8497
X4.1278Y-0.891
X4.1278Y-3.4619
X4.1278Y-6.0327
X4.1413Y-1.6019
X4.1413Y-1.6726
X4.1413Y-1.7433
X4.1413Y-4.1728
X4.1413Y-4.2435
X4.1413Y-4.3142
X4.1413Y-6.7437
X4.1413Y-6.8144
X4.1413Y-6.8851
X4.153Y-1.2432
X4.153Y-3.814
X4.153Y-6.3849
X4.154Y-1.4006
X4.154Y-3.9715
X4.154Y-6.5424
X4.1546Y-2.5294
X4.1546Y-5.1003
X4.1546Y-7.6711
X4.163Y-1.1196
X4.163Y-3.6905
X4.163Y-6.2614
X4.164Y-1.4946
X4.164Y-4.0655
X4.164Y-6.6364
X4.1766Y-1.6373
X4.1766Y-1.708
X4.1766Y-4.2081
X4.1766Y-4.2789
X4.1766Y-6.779
X4.1766Y-6.8497
X4.185Y-1.8626
X4.185Y-4.4335
X4.185Y-7.0044
X4.201Y-2.0016
X4.201Y-4.5725
X4.201Y-7.1434
X4.206Y-1.1224
X4.206Y-3.6932
X4.206Y-6.2641
X4.2067Y-1.2473
X4.2067Y-3.8182
X4.2067Y-6.389
X4.212Y-1.6726
X4.212Y-4.2435
X4.212Y-6.8144
X4.2204Y-1.5241
X4.2204Y-4.0949
X4.2204Y-6.6658
X4.2345Y-1.0196
X4.2345Y-3.5905
X4.2345Y-6.1614
X4.248Y-0.8621
X4.248Y-3.433
X4.248Y-6.0039
X4.273Y-0.6196
X4.273Y-3.1905
X4.273Y-5.7614
X4.323Y-1.0596
X4.323Y-3.6305
X4.323Y-6.2014
X4.329Y-1.5836
X4.329Y-4.1545
X4.329Y-6.7254
X4.353Y-0.7296
X4.353Y-3.3005
X4.353Y-5.8714
X4.3634Y-1.8634
X4.3634Y-4.4343
X4.3634Y-7.0051
X4.3695Y-2.0067
X4.3695Y-4.5776
X4.3695Y-7.1485
X4.373Y-1.6626
X4.373Y-4.2335
X4.373Y-6.8044
X4.3846Y-0.9801
X4.3846Y-3.551
X4.3846Y-6.1218
X4.3966Y-1.2011
X4.3966Y-3.772
X4.3966Y-6.3429
X4.4375Y-1.033
X4.4375Y-3.6038
X4.4375Y-6.1747
X4.514Y-0.7476
X4.514Y-3.3185
X4.514Y-5.8894
X4.5209Y-1.9421
X4.5209Y-4.513
X4.5209Y-7.0839
X4.523Y-1.0136
X4.523Y-3.5845
X4.523Y-6.1554
X4.538Y-1.6876
X4.538Y-4.2585
X4.538Y-6.8294
X4.563Y-1.2396
X4.563Y-3.8105
X4.563Y-6.3814
X5.057Y-0.9666
X5.057Y-3.5375
X5.057Y-6.1083
X5.0667Y-1.3086
X5.0667Y-3.8795
X5.0667Y-6.4504
X5.0832Y-1.1198
X5.0832Y-3.6907
X5.0832Y-6.2616
X5.0966Y-1.2613
X5.0966Y-3.8322
X5.0966Y-6.4031
X5.1343Y-1.429
X5.1343Y-3.9998
X5.1343Y-6.5707
X5.1547Y-0.5402
X5.1547Y-3.111
X5.1547Y-5.6819
X5.1662Y-1.2387
X5.1662Y-3.8095
X5.1662Y-6.3804
X5.1977Y-1.3556
X5.1977Y-3.9265
X5.1977Y-6.4974
X5.198Y-0.752
X5.198Y-3.3228
X5.198Y-5.8937
X5.2237Y-1.3106
X5.2237Y-3.8815
X5.2237Y-6.4524
X5.2527Y-1.9766
X5.2527Y-4.5475
X5.2527Y-7.1184
X5.2565Y-1.2387
X5.2565Y-3.8095
X5.2565Y-6.3804
X5.2651Y-0.5212
X5.2651Y-3.092
X5.2651Y-5.6629
X5.2997Y-1.5486
X5.2997Y-4.1195
X5.2997Y-6.6904
X5.3136Y-1.2276
X5.3136Y-3.7985
X5.3136Y-6.3694
X5.341Y-0.8265
X5.341Y-3.3974
X5.341Y-5.9683
X5.3542Y-0.6053
X5.3542Y-3.1762
X5.3542Y-5.747
X5.3917Y-0.483
X5.3917Y-3.0538
X5.3917Y-5.6247
X5.4187Y-2.1976
X5.4187Y-4.7685
X5.4187Y-7.3394
X5.4447Y-0.6986
X5.4447Y-3.2695
X5.4447Y-5.8404
X5.4807Y-1.6386
X5.4807Y-4.2095
X5.4807Y-6.7804
X5.5084Y-2.1516
X5.5084Y-4.7225
X5.5084Y-7.2934
X5.5115Y-1.7098
X5.5115Y-4.2807
X5.5115Y-6.8515
X5.5117Y-1.2096
X5.5117Y-3.7805
X5.5117Y-6.3514
X5.5122Y-2.4713
X5.5122Y-5.0421
X5.5122Y-7.613
X5.5367Y-1.5596
X5.5367Y-4.1305
X5.5367Y-6.7014
X5.5397Y-0.9181
X5.5397Y-3.4889
X5.5397Y-6.0598
X5.5417Y-1.6546
X5.5417Y-4.2255
X5.5417Y-6.7964
X5.5421Y-0.8446
X5.5421Y-3.4155
X5.5421Y-5.9863
X5.5517Y-1.3732
X5.5517Y-1.7696
X5.5517Y-3.944
X5.5517Y-4.3405
X5.5517Y-6.5149
X5.5517Y-6.9114
X5.5557Y-0.5966
X5.5557Y-3.1675
X5.5557Y-5.7384
X5.5857Y-0.6666
X5.5857Y-3.2375
X5.5857Y-5.8084
X5.5867Y-1.5596
X5.5867Y-1.6796
X5.5867Y-4.1305
X5.5867Y-4.2505
X5.5867Y-6.7014
X5.5867Y-6.8214
X5.5904Y-2.1447
X5.5904Y-4.7156
X5.5904Y-7.2865
X5.5917Y-1.3746
X5.5917Y-3.9455
X5.5917Y-6.5164
X5.5918Y-2.3221
X5.5918Y-4.893
X5.5918Y-7.4639
X5.5947Y-0.8636
X5.5947Y-3.4345
X5.5947Y-6.0054
X5.5967Y-1.9996
X5.5967Y-4.5705
X5.5967Y-7.1414
X5.6117Y-1.7696
X5.6117Y-4.3405
X5.6117Y-6.9114
X5.6267Y-1.0696
X5.6267Y-3.6405
X5.6267Y-6.2114
X5.6277Y-1.0206
X5.6277Y-3.5915
X5.6277Y-6.1624
X5.6387Y-0.7386
X5.6387Y-3.3095
X5.6387Y-5.8804
X5.6407Y-0.7846
X5.6407Y-3.3555
X5.6407Y-5.9264
X5.6536Y-0.5912
X5.6536Y-3.162
X5.6536Y-5.7329
X5.6654Y-2.1609
X5.6654Y-4.7317
X5.6654Y-7.3026
X5.7374Y-2.1437
X5.7374Y-4.7145
X5.7374Y-7.2854
X5.7862Y-2.4146
X5.7862Y-4.9854
X5.7862Y-7.5563
X5.7917Y-1.0896
X5.7917Y-3.6605
X5.7917Y-6.2314
X5.8067Y-1.8446
X5.8067Y-4.4155
X5.8067Y-6.9864
X5.8082Y-2.2826
X5.8082Y-4.8535
X5.8082Y-7.4244
X5.8217Y-1.2096
X5.8217Y-3.7805
X5.8217Y-6.3514
X5.8287Y-2.0581
X5.8287Y-4.6289
X5.8287Y-7.1998
X5.8417Y-1.0178
X5.8417Y-3.5887
X5.8417Y-6.1595
X5.8937Y-2.0376
X5.8937Y-4.6085
X5.8937Y-7.1794
X5.923Y-1.2133
X5.923Y-3.7842
X5.923Y-6.3551
X5.9607Y-0.8396
X5.9607Y-0.8896
X5.9607Y-0.9396
X5.9607Y-3.4105
X5.9607Y-3.4605
X5.9607Y-3.5105
X5.9607Y-5.9814
X5.9607Y-6.0314
X5.9607Y-6.0814
X5.9621Y-2.547
X5.9621Y-5.1178
X5.9621Y-7.6887
X5.9767Y-1.2146
X5.9767Y-3.7855
X5.9767Y-6.3564
X6.0107Y-0.8396
X6.0107Y-0.8896
X6.0107Y-3.4105
X6.0107Y-3.4605
X6.0107Y-5.9814
X6.0107Y-6.0314
X6.0117Y-0.9396
X6.0117Y-3.5105
X6.0117Y-6.0814
X6.0252Y-1.7981
X6.0252Y-4.369
X6.0252Y-6.9399
X6.0257Y-1.6846
X6.0257Y-4.2555
X6.0257Y-6.8264
X6.0595Y-2.0066
X6.0595Y-4.5775
X6.0595Y-7.1484
X6.0607Y-0.8396
X6.0607Y-0.8896
X6.0607Y-0.9396
X6.0607Y-3.4105
X6.0607Y-3.4605
X6.0607Y-3.5105
X6.0607Y-5.9814
X6.0607Y-6.0314
X6.0607Y-6.0814
X6.1367Y-1.6496
X6.1367Y-4.2205
X6.1367Y-6.7914
X6.1377Y-1.4146
X6.1377Y-3.9855
X6.1377Y-6.5564
X6.1624Y-1.3664
X6.1624Y-3.9373
X6.1624Y-6.5082
X6.2247Y-1.7576
X6.2247Y-4.3285
X6.2247Y-6.8994
X6.2257Y-1.6646
X6.2257Y-4.2355
X6.2257Y-6.8064
X6.2267Y-1.4496
X6.2267Y-4.0205
X6.2267Y-6.5914
X6.2527Y-1.8966
X6.2527Y-4.4675
X6.2527Y-7.0384
X6.2817Y-1.6335
X6.2817Y-4.2044
X6.2817Y-6.7752
X6.3007Y-1.9301
X6.3007Y-4.501
X6.3007Y-7.0718
X6.3222Y-0.5887
X6.3222Y-3.1596
X6.3222Y-5.7304
X6.3386Y-1.5406
X6.3386Y-4.1115
X6.3386Y-6.6824
X6.3477Y-1.4396
X6.3477Y-4.0105
X6.3477Y-6.5814
X6.3554Y-2.4471
X6.3554Y-5.018
X6.3554Y-7.5889
X6.36Y-1.322
X6.36Y-3.8929
X6.36Y-6.4637
X6.3639Y-2.028
X6.3639Y-4.5989
X6.3639Y-7.1698
X6.3757Y-1.5605
X6.3757Y-4.1314
X6.3757Y-6.7022
X6.3993Y-1.6726
X6.3993Y-4.2435
X6.3993Y-6.8144
X6.4346Y-1.6373
X6.4346Y-1.708
X6.4346Y-4.2081
X6.4346Y-4.2789
X6.4346Y-6.779
X6.4346Y-6.8497
X6.4565Y-0.891
X6.4565Y-3.4619
X6.4565Y-6.0327
X6.47Y-1.6019
X6.47Y-1.6726
X6.47Y-1.7433
X6.47Y-4.1728
X6.47Y-4.2435
X6.47Y-4.3142
X6.47Y-6.7437
X6.47Y-6.8144
X6.47Y-6.8851
X6.4817Y-1.2432
X6.4817Y-3.814
X6.4817Y-6.3849
X6.4827Y-1.4006
X6.4827Y-3.9715
X6.4827Y-6.5424
X6.4834Y-2.5294
X6.4834Y-5.1003
X6.4834Y-7.6711
X6.4917Y-1.1196
X6.4917Y-3.6905
X6.4917Y-6.2614
X6.4927Y-1.4946
X6.4927Y-4.0655
X6.4927Y-6.6364
X6.5054Y-1.6373
X6.5054Y-1.708
X6.5054Y-4.2081
X6.5054Y-4.2789
X6.5054Y-6.779
X6.5054Y-6.8497
X6.5137Y-1.8626
X6.5137Y-4.4335
X6.5137Y-7.0044
X6.5297Y-2.0016
X6.5297Y-4.5725
X6.5297Y-7.1434
X6.5347Y-1.1224
X6.5347Y-3.6932
X6.5347Y-6.2641
X6.5354Y-1.2473
X6.5354Y-3.8182
X6.5354Y-6.389
X6.5407Y-1.6726
X6.5407Y-4.2435
X6.5407Y-6.8144
X6.5491Y-1.5241
X6.5491Y-4.0949
X6.5491Y-6.6658
X6.5632Y-1.0196
X6.5632Y-3.5905
X6.5632Y-6.1614
X6.5767Y-0.8621
X6.5767Y-3.433
X6.5767Y-6.0039
X6.6017Y-0.6196
X6.6017Y-3.1905
X6.6017Y-5.7614
X6.6517Y-1.0596
X6.6517Y-3.6305
X6.6517Y-6.2014
X6.6577Y-1.5836
X6.6577Y-4.1545
X6.6577Y-6.7254
X6.6817Y-0.7296
X6.6817Y-3.3005
X6.6817Y-5.8714
X6.6921Y-1.8634
X6.6921Y-4.4343
X6.6921Y-7.0051
X6.6983Y-2.0067
X6.6983Y-4.5776
X6.6983Y-7.1485
X6.7017Y-1.6626
X6.7017Y-4.2335
X6.7017Y-6.8044
X6.7133Y-0.9801
X6.7133Y-3.551
X6.7133Y-6.1218
X6.7253Y-1.2011
X6.7253Y-3.772
X6.7253Y-6.3429
X6.7662Y-1.033
X6.7662Y-3.6038
X6.7662Y-6.1747
X6.8427Y-0.7476
X6.8427Y-3.3185
X6.8427Y-5.8894
X6.8496Y-1.9421
X6.8496Y-4.513
X6.8496Y-7.0839
X6.8517Y-1.0136
X6.8517Y-3.5845
X6.8517Y-6.1554
X6.8667Y-1.6876
X6.8667Y-4.2585
X6.8667Y-6.8294
X6.8917Y-1.2396
X6.8917Y-3.8105
X6.8917Y-6.3814
T4
X1.1146Y-1.399
X1.1146Y-3.9699
X1.1146Y-6.5407
X1.213Y-1.399
X1.213Y-3.9699
X1.213Y-6.5407
X1.3114Y-1.399
X1.3114Y-3.9699
X1.3114Y-6.5407
X1.4098Y-1.399
X1.4098Y-3.9699
X1.4098Y-6.5407
X2.3142Y-0.7657
X2.3142Y-0.8641
X2.3142Y-0.9625
X2.3142Y-1.0609
X2.3142Y-1.1594
X2.3142Y-1.2578
X2.3142Y-1.3562
X2.3142Y-1.4546
X2.3142Y-3.3365
X2.3142Y-3.435
X2.3142Y-3.5334
X2.3142Y-3.6318
X2.3142Y-3.7302
X2.3142Y-3.8287
X2.3142Y-3.9271
X2.3142Y-4.0255
X2.3142Y-5.9074
X2.3142Y-6.0058
X2.3142Y-6.1043
X2.3142Y-6.2027
X2.3142Y-6.3011
X2.3142Y-6.3995
X2.3142Y-6.498
X2.3142Y-6.5964
X2.3149Y-1.692
X2.3149Y-1.7904
X2.3149Y-1.8889
X2.3149Y-1.9873
X2.3149Y-4.2629
X2.3149Y-4.3613
X2.3149Y-4.4597
X2.3149Y-4.5581
X2.3149Y-6.8337
X2.3149Y-6.9322
X2.3149Y-7.0306
X2.3149Y-7.129
X3.4433Y-1.399
X3.4433Y-3.9699
X3.4433Y-6.5407
X3.5417Y-1.399
X3.5417Y-3.9699
X3.5417Y-6.5407
X3.6402Y-1.399
X3.6402Y-3.9699
X3.6402Y-6.5407
X3.7386Y-1.399
X3.7386Y-3.9699
X3.7386Y-6.5407
X4.643Y-0.7657
X4.643Y-0.8641
X4.643Y-0.9625
X4.643Y-1.0609
X4.643Y-1.1594
X4.643Y-1.2578
X4.643Y-1.3562
X4.643Y-1.4546
X4.643Y-3.3365
X4.643Y-3.435
X4.643Y-3.5334
X4.643Y-3.6318
X4.643Y-3.7302
X4.643Y-3.8287
X4.643Y-3.9271
X4.643Y-4.0255
X4.643Y-5.9074
X4.643Y-6.0058
X4.643Y-6.1043
X4.643Y-6.2027
X4.643Y-6.3011
X4.643Y-6.3995
X4.643Y-6.498
X4.643Y-6.5964
X4.6436Y-1.692
X4.6436Y-1.7904
X4.6436Y-1.8889
X4.6436Y-1.9873
X4.6436Y-4.2629
X4.6436Y-4.3613
X4.6436Y-4.4597
X4.6436Y-4.5581
X4.6436Y-6.8337
X4.6436Y-6.9322
X4.6436Y-7.0306
X4.6436Y-7.129
X5.772Y-1.399
X5.772Y-3.9699
X5.772Y-6.5407
X5.8705Y-1.399
X5.8705Y-3.9699
X5.8705Y-6.5407
X5.9689Y-1.399
X5.9689Y-3.9699
X5.9689Y-6.5407
X6.0673Y-1.399
X6.0673Y-3.9699
X6.0673Y-6.5407
X6.9717Y-0.7657
X6.9717Y-0.8641
X6.9717Y-0.9625
X6.9717Y-1.0609
X6.9717Y-1.1594
X6.9717Y-1.2578
X6.9717Y-1.3562
X6.9717Y-1.4546
X6.9717Y-3.3365
X6.9717Y-3.435
X6.9717Y-3.5334
X6.9717Y-3.6318
X6.9717Y-3.7302
X6.9717Y-3.8287
X6.9717Y-3.9271
X6.9717Y-4.0255
X6.9717Y-5.9074
X6.9717Y-6.0058
X6.9717Y-6.1043
X6.9717Y-6.2027
X6.9717Y-6.3011
X6.9717Y-6.3995
X6.9717Y-6.498
X6.9717Y-6.5964
X6.9724Y-1.692
X6.9724Y-1.7904
X6.9724Y-1.8889
X6.9724Y-1.9873
X6.9724Y-4.2629
X6.9724Y-4.3613
X6.9724Y-4.4597
X6.9724Y-4.5581
X6.9724Y-6.8337
X6.9724Y-6.9322
X6.9724Y-7.0306
X6.9724Y-7.129
T2
G00X0.4404Y-0.3596
M15
G01X0.4404Y-0.3341
M16
G05
G00X0.4404Y-2.9305
M15
G01X0.4404Y-2.9049
M16
G05
G00X0.4404Y-5.5014
M15
G01X0.4404Y-5.4758
M16
G05
G00X0.716Y-0.3596
M15
G01X0.716Y-0.3341
M16
G05
G00X0.716Y-2.9305
M15
G01X0.716Y-2.9049
M16
G05
G00X0.716Y-5.5014
M15
G01X0.716Y-5.4758
M16
G05
G00X2.7692Y-0.3596
M15
G01X2.7692Y-0.3341
M16
G05
G00X2.7692Y-2.9305
M15
G01X2.7692Y-2.9049
M16
G05
G00X2.7692Y-5.5014
M15
G01X2.7692Y-5.4758
M16
G05
G00X3.0447Y-0.3596
M15
G01X3.0447Y-0.3341
M16
G05
G00X3.0447Y-2.9305
M15
G01X3.0447Y-2.9049
M16
G05
G00X3.0447Y-5.5014
M15
G01X3.0447Y-5.4758
M16
G05
G00X5.0979Y-0.3596
M15
G01X5.0979Y-0.3341
M16
G05
G00X5.0979Y-2.9305
M15
G01X5.0979Y-2.9049
M16
G05
G00X5.0979Y-5.5014
M15
G01X5.0979Y-5.4758
M16
G05
G00X5.3735Y-0.3596
M15
G01X5.3735Y-0.3341
M16
G05
G00X5.3735Y-2.9305
M15
G01X5.3735Y-2.9049
M16
G05
G00X5.3735Y-5.5014
M15
G01X5.3735Y-5.4758
M16
G05
T3
G00X0.4857Y-0.4531
M15
G01X0.4739Y-0.4531
M16
G05
G00X0.4857Y-3.024
M15
G01X0.4739Y-3.024
M16
G05
G00X0.4857Y-5.5949
M15
G01X0.4739Y-5.5949
M16
G05
G00X0.6825Y-0.4531
M15
G01X0.6707Y-0.4531
M16
G05
G00X0.6825Y-3.024
M15
G01X0.6707Y-3.024
M16
G05
G00X0.6825Y-5.5949
M15
G01X0.6707Y-5.5949
M16
G05
G00X2.8144Y-0.4531
M15
G01X2.8026Y-0.4531
M16
G05
G00X2.8144Y-3.024
M15
G01X2.8026Y-3.024
M16
G05
G00X2.8144Y-5.5949
M15
G01X2.8026Y-5.5949
M16
G05
G00X3.0113Y-0.4531
M15
G01X2.9995Y-0.4531
M16
G05
G00X3.0113Y-3.024
M15
G01X2.9995Y-3.024
M16
G05
G00X3.0113Y-5.5949
M15
G01X2.9995Y-5.5949
M16
G05
G00X5.1432Y-0.4531
M15
G01X5.1314Y-0.4531
M16
G05
G00X5.1432Y-3.024
M15
G01X5.1314Y-3.024
M16
G05
G00X5.1432Y-5.5949
M15
G01X5.1314Y-5.5949
M16
G05
G00X5.34Y-0.4531
M15
G01X5.3282Y-0.4531
M16
G05
G00X5.34Y-3.024
M15
G01X5.3282Y-3.024
M16
G05
G00X5.34Y-5.5949
M15
G01X5.3282Y-5.5949
M16
G05
T0
M30
