M48
; DRILL file {KiCad (6.0.7)} date Thu Jan 19 16:19:46 2023
; FORMAT={-:-/ absolute / inch / decimal}
; #@! TF.CreationDate,2023-01-19T16:19:46-06:00
; #@! TF.GenerationSoftware,Kicad,Pcbnew,(6.0.7)
; #@! TF.FileFunction,Plated,1,2,PTH
FMAT,2
INCH
; #@! TA.AperFunction,Plated,PTH,ViaDrill
T1C0.0157
; #@! TA.AperFunction,Plated,PTH,ComponentDrill
T2C0.0197
; #@! TA.AperFunction,Plated,PTH,ComponentDrill
T3C0.0217
; #@! TA.AperFunction,Plated,PTH,ComponentDrill
T4C0.0374
%
G90
G05
T1
X0.4783Y-1.0463
X0.4783Y-3.6182
X0.4783Y-6.19
X0.488Y-1.3884
X0.488Y-3.9602
X0.488Y-6.5321
X0.4883Y-0.5623
X0.4883Y-3.1342
X0.4883Y-5.706
X0.5044Y-1.1995
X0.5044Y-3.7714
X0.5044Y-6.3432
X0.5179Y-1.3411
X0.5179Y-3.9129
X0.5179Y-6.4848
X0.5555Y-1.5087
X0.5555Y-4.0805
X0.5555Y-6.6524
X0.5875Y-1.3184
X0.5875Y-3.8903
X0.5875Y-6.4621
X0.6119Y-0.7559
X0.6119Y-3.3277
X0.6119Y-5.8996
X0.619Y-1.4354
X0.619Y-4.0072
X0.619Y-6.5791
X0.645Y-1.3904
X0.645Y-3.9622
X0.645Y-6.5341
X0.674Y-2.0564
X0.674Y-4.6282
X0.674Y-7.2001
X0.6777Y-1.3184
X0.6777Y-3.8903
X0.6777Y-6.4621
X0.6864Y-0.6009
X0.6864Y-3.1728
X0.6864Y-5.7446
X0.721Y-1.6284
X0.721Y-4.2002
X0.721Y-6.7721
X0.7348Y-1.3074
X0.7348Y-3.8792
X0.7348Y-6.4511
X0.7623Y-0.9063
X0.7623Y-3.4781
X0.7623Y-6.05
X0.7755Y-0.685
X0.7755Y-3.2569
X0.7755Y-5.8287
X0.813Y-0.5627
X0.813Y-3.1345
X0.813Y-5.7064
X0.84Y-2.2774
X0.84Y-4.8492
X0.84Y-7.4211
X0.866Y-0.7784
X0.866Y-3.3502
X0.866Y-5.9221
X0.902Y-1.7184
X0.902Y-4.2902
X0.902Y-6.8621
X0.9297Y-2.2314
X0.9297Y-4.8032
X0.9297Y-7.3751
X0.9328Y-1.7895
X0.9328Y-4.3614
X0.9328Y-6.9332
X0.933Y-1.2894
X0.933Y-3.8612
X0.933Y-6.4331
X0.9335Y-2.551
X0.9335Y-5.1228
X0.9335Y-7.6947
X0.958Y-1.6394
X0.958Y-4.2112
X0.958Y-6.7831
X0.961Y-0.9978
X0.961Y-3.5696
X0.961Y-6.1415
X0.963Y-1.7344
X0.963Y-4.3062
X0.963Y-6.8781
X0.9633Y-0.9243
X0.9633Y-3.4962
X0.9633Y-6.068
X0.973Y-1.4529
X0.973Y-1.8494
X0.973Y-4.0247
X0.973Y-4.4212
X0.973Y-6.5966
X0.973Y-6.9931
X0.977Y-0.6764
X0.977Y-3.2482
X0.977Y-5.8201
X1.007Y-0.7464
X1.007Y-3.3182
X1.007Y-5.8901
X1.008Y-1.6394
X1.008Y-1.7594
X1.008Y-4.2112
X1.008Y-4.3312
X1.008Y-6.7831
X1.008Y-6.9031
X1.0117Y-2.2245
X1.0117Y-4.7963
X1.0117Y-7.3682
X1.013Y-1.4544
X1.013Y-4.0262
X1.013Y-6.5981
X1.0131Y-2.4019
X1.0131Y-4.9737
X1.0131Y-7.5456
X1.016Y-0.9434
X1.016Y-3.5152
X1.016Y-6.0871
X1.018Y-2.0794
X1.018Y-4.6512
X1.018Y-7.2231
X1.033Y-1.8494
X1.033Y-4.4212
X1.033Y-6.9931
X1.048Y-1.1494
X1.048Y-3.7212
X1.048Y-6.2931
X1.049Y-1.1004
X1.049Y-3.6722
X1.049Y-6.2441
X1.06Y-0.8184
X1.06Y-3.3902
X1.06Y-5.9621
X1.062Y-0.8644
X1.062Y-3.4362
X1.062Y-6.0081
X1.0749Y-0.6709
X1.0749Y-3.2428
X1.0749Y-5.8146
X1.0867Y-2.2406
X1.0867Y-4.8125
X1.0867Y-7.3843
X1.1587Y-2.2234
X1.1587Y-4.7952
X1.1587Y-7.3671
X1.2075Y-2.4943
X1.2075Y-5.0662
X1.2075Y-7.638
X1.213Y-1.1694
X1.213Y-3.7412
X1.213Y-6.3131
X1.228Y-1.9244
X1.228Y-4.4962
X1.228Y-7.0681
X1.2295Y-2.3624
X1.2295Y-4.9342
X1.2295Y-7.5061
X1.243Y-1.2894
X1.243Y-3.8612
X1.243Y-6.4331
X1.25Y-2.1378
X1.25Y-4.7096
X1.25Y-7.2815
X1.263Y-1.0975
X1.263Y-3.6694
X1.263Y-6.2412
X1.315Y-2.1174
X1.315Y-4.6892
X1.315Y-7.2611
X1.3443Y-1.293
X1.3443Y-3.8649
X1.3443Y-6.4367
X1.382Y-0.9194
X1.382Y-0.9694
X1.382Y-1.0194
X1.382Y-3.4912
X1.382Y-3.5412
X1.382Y-3.5912
X1.382Y-6.0631
X1.382Y-6.1131
X1.382Y-6.1631
X1.3833Y-2.6267
X1.3833Y-5.1986
X1.3833Y-7.7704
X1.398Y-1.2944
X1.398Y-3.8662
X1.398Y-6.4381
X1.432Y-0.9194
X1.432Y-0.9694
X1.432Y-3.4912
X1.432Y-3.5412
X1.432Y-6.0631
X1.432Y-6.1131
X1.433Y-1.0194
X1.433Y-3.5912
X1.433Y-6.1631
X1.4465Y-1.8779
X1.4465Y-4.4497
X1.4465Y-7.0216
X1.447Y-1.7644
X1.447Y-4.3362
X1.447Y-6.9081
X1.4808Y-2.0863
X1.4808Y-4.6582
X1.4808Y-7.23
X1.482Y-0.9194
X1.482Y-0.9694
X1.482Y-1.0194
X1.482Y-3.4912
X1.482Y-3.5412
X1.482Y-3.5912
X1.482Y-6.0631
X1.482Y-6.1131
X1.482Y-6.1631
X1.558Y-1.7294
X1.558Y-4.3012
X1.558Y-6.8731
X1.559Y-1.4944
X1.559Y-4.0662
X1.559Y-6.6381
X1.5836Y-1.4461
X1.5836Y-4.018
X1.5836Y-6.5899
X1.646Y-1.8374
X1.646Y-4.4092
X1.646Y-6.9811
X1.647Y-1.7444
X1.647Y-4.3162
X1.647Y-6.8881
X1.648Y-1.5294
X1.648Y-4.1012
X1.648Y-6.6731
X1.674Y-1.9764
X1.674Y-4.5482
X1.674Y-7.1201
X1.703Y-1.7132
X1.703Y-4.2851
X1.703Y-6.8569
X1.722Y-2.0098
X1.722Y-4.5817
X1.722Y-7.1535
X1.7435Y-0.6684
X1.7435Y-3.2403
X1.7435Y-5.8121
X1.7599Y-1.6204
X1.7599Y-4.1922
X1.7599Y-6.7641
X1.769Y-1.5194
X1.769Y-4.0912
X1.769Y-6.6631
X1.7767Y-2.5269
X1.7767Y-5.0987
X1.7767Y-7.6706
X1.7812Y-1.4017
X1.7812Y-3.9736
X1.7812Y-6.5454
X1.7851Y-2.1078
X1.7851Y-4.6796
X1.7851Y-7.2515
X1.7969Y-1.6402
X1.7969Y-4.2121
X1.7969Y-6.7839
X1.8205Y-1.7524
X1.8205Y-4.3242
X1.8205Y-6.8961
X1.8559Y-1.717
X1.8559Y-1.7877
X1.8559Y-4.2889
X1.8559Y-4.3596
X1.8559Y-6.8607
X1.8559Y-6.9314
X1.8778Y-0.9707
X1.8778Y-3.5426
X1.8778Y-6.1144
X1.8913Y-1.6817
X1.8913Y-1.7524
X1.8913Y-1.8231
X1.8913Y-4.2535
X1.8913Y-4.3242
X1.8913Y-4.3949
X1.8913Y-6.8254
X1.8913Y-6.8961
X1.8913Y-6.9668
X1.903Y-1.3229
X1.903Y-3.8948
X1.903Y-6.4666
X1.904Y-1.4804
X1.904Y-4.0522
X1.904Y-6.6241
X1.9046Y-2.6091
X1.9046Y-5.181
X1.9046Y-7.7528
X1.913Y-1.1994
X1.913Y-3.7712
X1.913Y-6.3431
X1.914Y-1.5744
X1.914Y-4.1462
X1.914Y-6.7181
X1.9266Y-1.717
X1.9266Y-1.7877
X1.9266Y-4.2889
X1.9266Y-4.3596
X1.9266Y-6.8607
X1.9266Y-6.9314
X1.935Y-1.9424
X1.935Y-4.5142
X1.935Y-7.0861
X1.951Y-2.0814
X1.951Y-4.6532
X1.951Y-7.2251
X1.956Y-1.2021
X1.956Y-3.7739
X1.956Y-6.3458
X1.9567Y-1.327
X1.9567Y-3.8989
X1.9567Y-6.4707
X1.962Y-1.7524
X1.962Y-4.3242
X1.962Y-6.8961
X1.9704Y-1.6038
X1.9704Y-4.1756
X1.9704Y-6.7475
X1.9845Y-1.0994
X1.9845Y-3.6712
X1.9845Y-6.2431
X1.998Y-0.9419
X1.998Y-3.5137
X1.998Y-6.0856
X2.023Y-0.6994
X2.023Y-3.2712
X2.023Y-5.8431
X2.073Y-1.1394
X2.073Y-3.7112
X2.073Y-6.2831
X2.079Y-1.6634
X2.079Y-4.2352
X2.079Y-6.8071
X2.103Y-0.8094
X2.103Y-3.3812
X2.103Y-5.9531
X2.1134Y-1.9431
X2.1134Y-4.515
X2.1134Y-7.0868
X2.1195Y-2.0865
X2.1195Y-4.6583
X2.1195Y-7.2302
X2.123Y-1.7424
X2.123Y-4.3142
X2.123Y-6.8861
X2.1346Y-1.0598
X2.1346Y-3.6317
X2.1346Y-6.2035
X2.1466Y-1.2808
X2.1466Y-3.8527
X2.1466Y-6.4245
X2.1875Y-1.1127
X2.1875Y-3.6845
X2.1875Y-6.2564
X2.264Y-0.8274
X2.264Y-3.3992
X2.264Y-5.9711
X2.2709Y-2.0219
X2.2709Y-4.5937
X2.2709Y-7.1656
X2.273Y-1.0934
X2.273Y-3.6652
X2.273Y-6.2371
X2.288Y-1.7674
X2.288Y-4.3392
X2.288Y-6.9111
X2.313Y-1.3194
X2.313Y-3.8912
X2.313Y-6.4631
X2.7288Y-1.0463
X2.7288Y-3.6182
X2.7288Y-6.19
X2.7384Y-1.3884
X2.7384Y-3.9602
X2.7384Y-6.5321
X2.7388Y-0.5623
X2.7388Y-3.1342
X2.7388Y-5.706
X2.7549Y-1.1995
X2.7549Y-3.7714
X2.7549Y-6.3432
X2.7684Y-1.3411
X2.7684Y-3.9129
X2.7684Y-6.4848
X2.806Y-1.5087
X2.806Y-4.0805
X2.806Y-6.6524
X2.838Y-1.3184
X2.838Y-3.8903
X2.838Y-6.4621
X2.8624Y-0.7559
X2.8624Y-3.3277
X2.8624Y-5.8996
X2.8694Y-1.4354
X2.8694Y-4.0072
X2.8694Y-6.5791
X2.8954Y-1.3904
X2.8954Y-3.9622
X2.8954Y-6.5341
X2.9244Y-2.0564
X2.9244Y-4.6282
X2.9244Y-7.2001
X2.9282Y-1.3184
X2.9282Y-3.8903
X2.9282Y-6.4621
X2.9369Y-0.6009
X2.9369Y-3.1728
X2.9369Y-5.7446
X2.9714Y-1.6284
X2.9714Y-4.2002
X2.9714Y-6.7721
X2.9853Y-1.3074
X2.9853Y-3.8792
X2.9853Y-6.4511
X3.0128Y-0.9063
X3.0128Y-3.4781
X3.0128Y-6.05
X3.026Y-0.685
X3.026Y-3.2569
X3.026Y-5.8287
X3.0635Y-0.5627
X3.0635Y-3.1345
X3.0635Y-5.7064
X3.0904Y-2.2774
X3.0904Y-4.8492
X3.0904Y-7.4211
X3.1164Y-0.7784
X3.1164Y-3.3502
X3.1164Y-5.9221
X3.1524Y-1.7184
X3.1524Y-4.2902
X3.1524Y-6.8621
X3.1802Y-2.2314
X3.1802Y-4.8032
X3.1802Y-7.3751
X3.1833Y-1.7895
X3.1833Y-4.3614
X3.1833Y-6.9332
X3.1834Y-1.2894
X3.1834Y-3.8612
X3.1834Y-6.4331
X3.184Y-2.551
X3.184Y-5.1228
X3.184Y-7.6947
X3.2084Y-1.6394
X3.2084Y-4.2112
X3.2084Y-6.7831
X3.2114Y-0.9978
X3.2114Y-3.5696
X3.2114Y-6.1415
X3.2134Y-1.7344
X3.2134Y-4.3062
X3.2134Y-6.8781
X3.2138Y-0.9243
X3.2138Y-3.4962
X3.2138Y-6.068
X3.2234Y-1.4529
X3.2234Y-1.8494
X3.2234Y-4.0247
X3.2234Y-4.4212
X3.2234Y-6.5966
X3.2234Y-6.9931
X3.2274Y-0.6764
X3.2274Y-3.2482
X3.2274Y-5.8201
X3.2574Y-0.7464
X3.2574Y-3.3182
X3.2574Y-5.8901
X3.2584Y-1.6394
X3.2584Y-1.7594
X3.2584Y-4.2112
X3.2584Y-4.3312
X3.2584Y-6.7831
X3.2584Y-6.9031
X3.2622Y-2.2245
X3.2622Y-4.7963
X3.2622Y-7.3682
X3.2634Y-1.4544
X3.2634Y-4.0262
X3.2634Y-6.5981
X3.2636Y-2.4019
X3.2636Y-4.9737
X3.2636Y-7.5456
X3.2664Y-0.9434
X3.2664Y-3.5152
X3.2664Y-6.0871
X3.2684Y-2.0794
X3.2684Y-4.6512
X3.2684Y-7.2231
X3.2834Y-1.8494
X3.2834Y-4.4212
X3.2834Y-6.9931
X3.2984Y-1.1494
X3.2984Y-3.7212
X3.2984Y-6.2931
X3.2994Y-1.1004
X3.2994Y-3.6722
X3.2994Y-6.2441
X3.3104Y-0.8184
X3.3104Y-3.3902
X3.3104Y-5.9621
X3.3124Y-0.8644
X3.3124Y-3.4362
X3.3124Y-6.0081
X3.3254Y-0.6709
X3.3254Y-3.2428
X3.3254Y-5.8146
X3.3372Y-2.2406
X3.3372Y-4.8125
X3.3372Y-7.3843
X3.4092Y-2.2234
X3.4092Y-4.7952
X3.4092Y-7.3671
X3.458Y-2.4943
X3.458Y-5.0662
X3.458Y-7.638
X3.4634Y-1.1694
X3.4634Y-3.7412
X3.4634Y-6.3131
X3.4784Y-1.9244
X3.4784Y-4.4962
X3.4784Y-7.0681
X3.48Y-2.3624
X3.48Y-4.9342
X3.48Y-7.5061
X3.4934Y-1.2894
X3.4934Y-3.8612
X3.4934Y-6.4331
X3.5005Y-2.1378
X3.5005Y-4.7096
X3.5005Y-7.2815
X3.5134Y-1.0975
X3.5134Y-3.6694
X3.5134Y-6.2412
X3.5654Y-2.1174
X3.5654Y-4.6892
X3.5654Y-7.2611
X3.5948Y-1.293
X3.5948Y-3.8649
X3.5948Y-6.4367
X3.6325Y-0.9194
X3.6325Y-0.9694
X3.6325Y-1.0194
X3.6325Y-3.4912
X3.6325Y-3.5412
X3.6325Y-3.5912
X3.6325Y-6.0631
X3.6325Y-6.1131
X3.6325Y-6.1631
X3.6338Y-2.6267
X3.6338Y-5.1986
X3.6338Y-7.7704
X3.6484Y-1.2944
X3.6484Y-3.8662
X3.6484Y-6.4381
X3.6825Y-0.9194
X3.6825Y-0.9694
X3.6825Y-3.4912
X3.6825Y-3.5412
X3.6825Y-6.0631
X3.6825Y-6.1131
X3.6834Y-1.0194
X3.6834Y-3.5912
X3.6834Y-6.1631
X3.6969Y-1.8779
X3.6969Y-4.4497
X3.6969Y-7.0216
X3.6974Y-1.7644
X3.6974Y-4.3362
X3.6974Y-6.9081
X3.7313Y-2.0863
X3.7313Y-4.6582
X3.7313Y-7.23
X3.7325Y-0.9194
X3.7325Y-0.9694
X3.7325Y-1.0194
X3.7325Y-3.4912
X3.7325Y-3.5412
X3.7325Y-3.5912
X3.7325Y-6.0631
X3.7325Y-6.1131
X3.7325Y-6.1631
X3.8084Y-1.7294
X3.8084Y-4.3012
X3.8084Y-6.8731
X3.8094Y-1.4944
X3.8094Y-4.0662
X3.8094Y-6.6381
X3.8341Y-1.4461
X3.8341Y-4.018
X3.8341Y-6.5899
X3.8964Y-1.8374
X3.8964Y-4.4092
X3.8964Y-6.9811
X3.8974Y-1.7444
X3.8974Y-4.3162
X3.8974Y-6.8881
X3.8984Y-1.5294
X3.8984Y-4.1012
X3.8984Y-6.6731
X3.9244Y-1.9764
X3.9244Y-4.5482
X3.9244Y-7.1201
X3.9534Y-1.7132
X3.9534Y-4.2851
X3.9534Y-6.8569
X3.9724Y-2.0098
X3.9724Y-4.5817
X3.9724Y-7.1535
X3.994Y-0.6684
X3.994Y-3.2403
X3.994Y-5.8121
X4.0104Y-1.6204
X4.0104Y-4.1922
X4.0104Y-6.7641
X4.0194Y-1.5194
X4.0194Y-4.0912
X4.0194Y-6.6631
X4.0272Y-2.5269
X4.0272Y-5.0987
X4.0272Y-7.6706
X4.0317Y-1.4017
X4.0317Y-3.9736
X4.0317Y-6.5454
X4.0356Y-2.1078
X4.0356Y-4.6796
X4.0356Y-7.2515
X4.0474Y-1.6402
X4.0474Y-4.2121
X4.0474Y-6.7839
X4.071Y-1.7524
X4.071Y-4.3242
X4.071Y-6.8961
X4.1064Y-1.717
X4.1064Y-1.7877
X4.1064Y-4.2889
X4.1064Y-4.3596
X4.1064Y-6.8607
X4.1064Y-6.9314
X4.1283Y-0.9707
X4.1283Y-3.5426
X4.1283Y-6.1144
X4.1418Y-1.6817
X4.1418Y-1.7524
X4.1418Y-1.8231
X4.1418Y-4.2535
X4.1418Y-4.3242
X4.1418Y-4.3949
X4.1418Y-6.8254
X4.1418Y-6.8961
X4.1418Y-6.9668
X4.1534Y-1.3229
X4.1534Y-3.8948
X4.1534Y-6.4666
X4.1544Y-1.4804
X4.1544Y-4.0522
X4.1544Y-6.6241
X4.1551Y-2.6091
X4.1551Y-5.181
X4.1551Y-7.7528
X4.1634Y-1.1994
X4.1634Y-3.7712
X4.1634Y-6.3431
X4.1644Y-1.5744
X4.1644Y-4.1462
X4.1644Y-6.7181
X4.1771Y-1.717
X4.1771Y-1.7877
X4.1771Y-4.2889
X4.1771Y-4.3596
X4.1771Y-6.8607
X4.1771Y-6.9314
X4.1854Y-1.9424
X4.1854Y-4.5142
X4.1854Y-7.0861
X4.2014Y-2.0814
X4.2014Y-4.6532
X4.2014Y-7.2251
X4.2065Y-1.2021
X4.2065Y-3.7739
X4.2065Y-6.3458
X4.2072Y-1.327
X4.2072Y-3.8989
X4.2072Y-6.4707
X4.2125Y-1.7524
X4.2125Y-4.3242
X4.2125Y-6.8961
X4.2209Y-1.6038
X4.2209Y-4.1756
X4.2209Y-6.7475
X4.235Y-1.0994
X4.235Y-3.6712
X4.235Y-6.2431
X4.2484Y-0.9419
X4.2484Y-3.5137
X4.2484Y-6.0856
X4.2734Y-0.6994
X4.2734Y-3.2712
X4.2734Y-5.8431
X4.3234Y-1.1394
X4.3234Y-3.7112
X4.3234Y-6.2831
X4.3294Y-1.6634
X4.3294Y-4.2352
X4.3294Y-6.8071
X4.3534Y-0.8094
X4.3534Y-3.3812
X4.3534Y-5.9531
X4.3639Y-1.9431
X4.3639Y-4.515
X4.3639Y-7.0868
X4.37Y-2.0865
X4.37Y-4.6583
X4.37Y-7.2302
X4.3734Y-1.7424
X4.3734Y-4.3142
X4.3734Y-6.8861
X4.3851Y-1.0598
X4.3851Y-3.6317
X4.3851Y-6.2035
X4.3971Y-1.2808
X4.3971Y-3.8527
X4.3971Y-6.4245
X4.438Y-1.1127
X4.438Y-3.6845
X4.438Y-6.2564
X4.5144Y-0.8274
X4.5144Y-3.3992
X4.5144Y-5.9711
X4.5214Y-2.0219
X4.5214Y-4.5937
X4.5214Y-7.1656
X4.5234Y-1.0934
X4.5234Y-3.6652
X4.5234Y-6.2371
X4.5384Y-1.7674
X4.5384Y-4.3392
X4.5384Y-6.9111
X4.5634Y-1.3194
X4.5634Y-3.8912
X4.5634Y-6.4631
X4.9793Y-1.0463
X4.9793Y-3.6182
X4.9793Y-6.19
X4.9889Y-1.3884
X4.9889Y-3.9602
X4.9889Y-6.5321
X4.9893Y-0.5623
X4.9893Y-3.1342
X4.9893Y-5.706
X5.0054Y-1.1995
X5.0054Y-3.7714
X5.0054Y-6.3432
X5.0189Y-1.3411
X5.0189Y-3.9129
X5.0189Y-6.4848
X5.0565Y-1.5087
X5.0565Y-4.0805
X5.0565Y-6.6524
X5.0885Y-1.3184
X5.0885Y-3.8903
X5.0885Y-6.4621
X5.1129Y-0.7559
X5.1129Y-3.3277
X5.1129Y-5.8996
X5.1199Y-1.4354
X5.1199Y-4.0072
X5.1199Y-6.5791
X5.1459Y-1.3904
X5.1459Y-3.9622
X5.1459Y-6.5341
X5.1749Y-2.0564
X5.1749Y-4.6282
X5.1749Y-7.2001
X5.1787Y-1.3184
X5.1787Y-3.8903
X5.1787Y-6.4621
X5.1874Y-0.6009
X5.1874Y-3.1728
X5.1874Y-5.7446
X5.2219Y-1.6284
X5.2219Y-4.2002
X5.2219Y-6.7721
X5.2358Y-1.3074
X5.2358Y-3.8792
X5.2358Y-6.4511
X5.2633Y-0.9063
X5.2633Y-3.4781
X5.2633Y-6.05
X5.2765Y-0.685
X5.2765Y-3.2569
X5.2765Y-5.8287
X5.3139Y-0.5627
X5.3139Y-3.1345
X5.3139Y-5.7064
X5.3409Y-2.2774
X5.3409Y-4.8492
X5.3409Y-7.4211
X5.3669Y-0.7784
X5.3669Y-3.3502
X5.3669Y-5.9221
X5.4029Y-1.7184
X5.4029Y-4.2902
X5.4029Y-6.8621
X5.4307Y-2.2314
X5.4307Y-4.8032
X5.4307Y-7.3751
X5.4338Y-1.7895
X5.4338Y-4.3614
X5.4338Y-6.9332
X5.4339Y-1.2894
X5.4339Y-3.8612
X5.4339Y-6.4331
X5.4345Y-2.551
X5.4345Y-5.1228
X5.4345Y-7.6947
X5.4589Y-1.6394
X5.4589Y-4.2112
X5.4589Y-6.7831
X5.4619Y-0.9978
X5.4619Y-3.5696
X5.4619Y-6.1415
X5.4639Y-1.7344
X5.4639Y-4.3062
X5.4639Y-6.8781
X5.4643Y-0.9243
X5.4643Y-3.4962
X5.4643Y-6.068
X5.4739Y-1.4529
X5.4739Y-1.8494
X5.4739Y-4.0247
X5.4739Y-4.4212
X5.4739Y-6.5966
X5.4739Y-6.9931
X5.4779Y-0.6764
X5.4779Y-3.2482
X5.4779Y-5.8201
X5.5079Y-0.7464
X5.5079Y-3.3182
X5.5079Y-5.8901
X5.5089Y-1.6394
X5.5089Y-1.7594
X5.5089Y-4.2112
X5.5089Y-4.3312
X5.5089Y-6.7831
X5.5089Y-6.9031
X5.5127Y-2.2245
X5.5127Y-4.7963
X5.5127Y-7.3682
X5.5139Y-1.4544
X5.5139Y-4.0262
X5.5139Y-6.5981
X5.5141Y-2.4019
X5.5141Y-4.9737
X5.5141Y-7.5456
X5.5169Y-0.9434
X5.5169Y-3.5152
X5.5169Y-6.0871
X5.5189Y-2.0794
X5.5189Y-4.6512
X5.5189Y-7.2231
X5.5339Y-1.8494
X5.5339Y-4.4212
X5.5339Y-6.9931
X5.5489Y-1.1494
X5.5489Y-3.7212
X5.5489Y-6.2931
X5.5499Y-1.1004
X5.5499Y-3.6722
X5.5499Y-6.2441
X5.5609Y-0.8184
X5.5609Y-3.3902
X5.5609Y-5.9621
X5.5629Y-0.8644
X5.5629Y-3.4362
X5.5629Y-6.0081
X5.5758Y-0.6709
X5.5758Y-3.2428
X5.5758Y-5.8146
X5.5877Y-2.2406
X5.5877Y-4.8125
X5.5877Y-7.3843
X5.6597Y-2.2234
X5.6597Y-4.7952
X5.6597Y-7.3671
X5.7085Y-2.4943
X5.7085Y-5.0662
X5.7085Y-7.638
X5.7139Y-1.1694
X5.7139Y-3.7412
X5.7139Y-6.3131
X5.7289Y-1.9244
X5.7289Y-4.4962
X5.7289Y-7.0681
X5.7305Y-2.3624
X5.7305Y-4.9342
X5.7305Y-7.5061
X5.7439Y-1.2894
X5.7439Y-3.8612
X5.7439Y-6.4331
X5.751Y-2.1378
X5.751Y-4.7096
X5.751Y-7.2815
X5.7639Y-1.0975
X5.7639Y-3.6694
X5.7639Y-6.2412
X5.8159Y-2.1174
X5.8159Y-4.6892
X5.8159Y-7.2611
X5.8453Y-1.293
X5.8453Y-3.8649
X5.8453Y-6.4367
X5.883Y-0.9194
X5.883Y-0.9694
X5.883Y-1.0194
X5.883Y-3.4912
X5.883Y-3.5412
X5.883Y-3.5912
X5.883Y-6.0631
X5.883Y-6.1131
X5.883Y-6.1631
X5.8843Y-2.6267
X5.8843Y-5.1986
X5.8843Y-7.7704
X5.8989Y-1.2944
X5.8989Y-3.8662
X5.8989Y-6.4381
X5.933Y-0.9194
X5.933Y-0.9694
X5.933Y-3.4912
X5.933Y-3.5412
X5.933Y-6.0631
X5.933Y-6.1131
X5.9339Y-1.0194
X5.9339Y-3.5912
X5.9339Y-6.1631
X5.9474Y-1.8779
X5.9474Y-4.4497
X5.9474Y-7.0216
X5.9479Y-1.7644
X5.9479Y-4.3362
X5.9479Y-6.9081
X5.9818Y-2.0863
X5.9818Y-4.6582
X5.9818Y-7.23
X5.983Y-0.9194
X5.983Y-0.9694
X5.983Y-1.0194
X5.983Y-3.4912
X5.983Y-3.5412
X5.983Y-3.5912
X5.983Y-6.0631
X5.983Y-6.1131
X5.983Y-6.1631
X6.0589Y-1.7294
X6.0589Y-4.3012
X6.0589Y-6.8731
X6.0599Y-1.4944
X6.0599Y-4.0662
X6.0599Y-6.6381
X6.0846Y-1.4461
X6.0846Y-4.018
X6.0846Y-6.5899
X6.1469Y-1.8374
X6.1469Y-4.4092
X6.1469Y-6.9811
X6.1479Y-1.7444
X6.1479Y-4.3162
X6.1479Y-6.8881
X6.1489Y-1.5294
X6.1489Y-4.1012
X6.1489Y-6.6731
X6.1749Y-1.9764
X6.1749Y-4.5482
X6.1749Y-7.1201
X6.2039Y-1.7132
X6.2039Y-4.2851
X6.2039Y-6.8569
X6.2229Y-2.0098
X6.2229Y-4.5817
X6.2229Y-7.1535
X6.2444Y-0.6684
X6.2444Y-3.2403
X6.2444Y-5.8121
X6.2608Y-1.6204
X6.2608Y-4.1922
X6.2608Y-6.7641
X6.2699Y-1.5194
X6.2699Y-4.0912
X6.2699Y-6.6631
X6.2777Y-2.5269
X6.2777Y-5.0987
X6.2777Y-7.6706
X6.2822Y-1.4017
X6.2822Y-3.9736
X6.2822Y-6.5454
X6.2861Y-2.1078
X6.2861Y-4.6796
X6.2861Y-7.2515
X6.2979Y-1.6402
X6.2979Y-4.2121
X6.2979Y-6.7839
X6.3215Y-1.7524
X6.3215Y-4.3242
X6.3215Y-6.8961
X6.3569Y-1.717
X6.3569Y-1.7877
X6.3569Y-4.2889
X6.3569Y-4.3596
X6.3569Y-6.8607
X6.3569Y-6.9314
X6.3788Y-0.9707
X6.3788Y-3.5426
X6.3788Y-6.1144
X6.3923Y-1.6817
X6.3923Y-1.7524
X6.3923Y-1.8231
X6.3923Y-4.2535
X6.3923Y-4.3242
X6.3923Y-4.3949
X6.3923Y-6.8254
X6.3923Y-6.8961
X6.3923Y-6.9668
X6.4039Y-1.3229
X6.4039Y-3.8948
X6.4039Y-6.4666
X6.4049Y-1.4804
X6.4049Y-4.0522
X6.4049Y-6.6241
X6.4056Y-2.6091
X6.4056Y-5.181
X6.4056Y-7.7528
X6.4139Y-1.1994
X6.4139Y-3.7712
X6.4139Y-6.3431
X6.4149Y-1.5744
X6.4149Y-4.1462
X6.4149Y-6.7181
X6.4276Y-1.717
X6.4276Y-1.7877
X6.4276Y-4.2889
X6.4276Y-4.3596
X6.4276Y-6.8607
X6.4276Y-6.9314
X6.4359Y-1.9424
X6.4359Y-4.5142
X6.4359Y-7.0861
X6.4519Y-2.0814
X6.4519Y-4.6532
X6.4519Y-7.2251
X6.457Y-1.2021
X6.457Y-3.7739
X6.457Y-6.3458
X6.4576Y-1.327
X6.4576Y-3.8989
X6.4576Y-6.4707
X6.463Y-1.7524
X6.463Y-4.3242
X6.463Y-6.8961
X6.4714Y-1.6038
X6.4714Y-4.1756
X6.4714Y-6.7475
X6.4855Y-1.0994
X6.4855Y-3.6712
X6.4855Y-6.2431
X6.4989Y-0.9419
X6.4989Y-3.5137
X6.4989Y-6.0856
X6.5239Y-0.6994
X6.5239Y-3.2712
X6.5239Y-5.8431
X6.5739Y-1.1394
X6.5739Y-3.7112
X6.5739Y-6.2831
X6.5799Y-1.6634
X6.5799Y-4.2352
X6.5799Y-6.8071
X6.6039Y-0.8094
X6.6039Y-3.3812
X6.6039Y-5.9531
X6.6144Y-1.9431
X6.6144Y-4.515
X6.6144Y-7.0868
X6.6205Y-2.0865
X6.6205Y-4.6583
X6.6205Y-7.2302
X6.6239Y-1.7424
X6.6239Y-4.3142
X6.6239Y-6.8861
X6.6356Y-1.0598
X6.6356Y-3.6317
X6.6356Y-6.2035
X6.6475Y-1.2808
X6.6475Y-3.8527
X6.6475Y-6.4245
X6.6885Y-1.1127
X6.6885Y-3.6845
X6.6885Y-6.2564
X6.7649Y-0.8274
X6.7649Y-3.3992
X6.7649Y-5.9711
X6.7719Y-2.0219
X6.7719Y-4.5937
X6.7719Y-7.1656
X6.7739Y-1.0934
X6.7739Y-3.6652
X6.7739Y-6.2371
X6.7889Y-1.7674
X6.7889Y-4.3392
X6.7889Y-6.9111
X6.8139Y-1.3194
X6.8139Y-3.8912
X6.8139Y-6.4631
T4
X1.1933Y-1.4787
X1.1933Y-4.0506
X1.1933Y-6.6224
X1.2917Y-1.4787
X1.2917Y-4.0506
X1.2917Y-6.6224
X1.3902Y-1.4787
X1.3902Y-4.0506
X1.3902Y-6.6224
X1.4886Y-1.4787
X1.4886Y-4.0506
X1.4886Y-6.6224
X2.393Y-0.8454
X2.393Y-0.9438
X2.393Y-1.0422
X2.393Y-1.1407
X2.393Y-1.2391
X2.393Y-1.3375
X2.393Y-1.4359
X2.393Y-1.5344
X2.393Y-3.4172
X2.393Y-3.5157
X2.393Y-3.6141
X2.393Y-3.7125
X2.393Y-3.8109
X2.393Y-3.9094
X2.393Y-4.0078
X2.393Y-4.1062
X2.393Y-5.9891
X2.393Y-6.0875
X2.393Y-6.1859
X2.393Y-6.2844
X2.393Y-6.3828
X2.393Y-6.4812
X2.393Y-6.5796
X2.393Y-6.6781
X2.3936Y-1.7717
X2.3936Y-1.8702
X2.3936Y-1.9686
X2.3936Y-2.067
X2.3936Y-4.3436
X2.3936Y-4.442
X2.3936Y-4.5404
X2.3936Y-4.6389
X2.3936Y-6.9154
X2.3936Y-7.0139
X2.3936Y-7.1123
X2.3936Y-7.2107
X3.4438Y-1.4787
X3.4438Y-4.0506
X3.4438Y-6.6224
X3.5422Y-1.4787
X3.5422Y-4.0506
X3.5422Y-6.6224
X3.6407Y-1.4787
X3.6407Y-4.0506
X3.6407Y-6.6224
X3.7391Y-1.4787
X3.7391Y-4.0506
X3.7391Y-6.6224
X4.6434Y-0.8454
X4.6434Y-0.9438
X4.6434Y-1.0422
X4.6434Y-1.1407
X4.6434Y-1.2391
X4.6434Y-1.3375
X4.6434Y-1.4359
X4.6434Y-1.5344
X4.6434Y-3.4172
X4.6434Y-3.5157
X4.6434Y-3.6141
X4.6434Y-3.7125
X4.6434Y-3.8109
X4.6434Y-3.9094
X4.6434Y-4.0078
X4.6434Y-4.1062
X4.6434Y-5.9891
X4.6434Y-6.0875
X4.6434Y-6.1859
X4.6434Y-6.2844
X4.6434Y-6.3828
X4.6434Y-6.4812
X4.6434Y-6.5796
X4.6434Y-6.6781
X4.6441Y-1.7717
X4.6441Y-1.8702
X4.6441Y-1.9686
X4.6441Y-2.067
X4.6441Y-4.3436
X4.6441Y-4.442
X4.6441Y-4.5404
X4.6441Y-4.6389
X4.6441Y-6.9154
X4.6441Y-7.0139
X4.6441Y-7.1123
X4.6441Y-7.2107
X5.6943Y-1.4787
X5.6943Y-4.0506
X5.6943Y-6.6224
X5.7927Y-1.4787
X5.7927Y-4.0506
X5.7927Y-6.6224
X5.8911Y-1.4787
X5.8911Y-4.0506
X5.8911Y-6.6224
X5.9896Y-1.4787
X5.9896Y-4.0506
X5.9896Y-6.6224
X6.8939Y-0.8454
X6.8939Y-0.9438
X6.8939Y-1.0422
X6.8939Y-1.1407
X6.8939Y-1.2391
X6.8939Y-1.3375
X6.8939Y-1.4359
X6.8939Y-1.5344
X6.8939Y-3.4172
X6.8939Y-3.5157
X6.8939Y-3.6141
X6.8939Y-3.7125
X6.8939Y-3.8109
X6.8939Y-3.9094
X6.8939Y-4.0078
X6.8939Y-4.1062
X6.8939Y-5.9891
X6.8939Y-6.0875
X6.8939Y-6.1859
X6.8939Y-6.2844
X6.8939Y-6.3828
X6.8939Y-6.4812
X6.8939Y-6.5796
X6.8939Y-6.6781
X6.8946Y-1.7717
X6.8946Y-1.8702
X6.8946Y-1.9686
X6.8946Y-2.067
X6.8946Y-4.3436
X6.8946Y-4.442
X6.8946Y-4.5404
X6.8946Y-4.6389
X6.8946Y-6.9154
X6.8946Y-7.0139
X6.8946Y-7.1123
X6.8946Y-7.2107
T2
G00X0.5192Y-0.4394
M15
G01X0.5192Y-0.4138
M16
G05
G00X0.5192Y-3.0112
M15
G01X0.5192Y-2.9856
M16
G05
G00X0.5192Y-5.5831
M15
G01X0.5192Y-5.5575
M16
G05
G00X0.7947Y-0.4394
M15
G01X0.7947Y-0.4138
M16
G05
G00X0.7947Y-3.0112
M15
G01X0.7947Y-2.9856
M16
G05
G00X0.7947Y-5.5831
M15
G01X0.7947Y-5.5575
M16
G05
G00X2.7697Y-0.4394
M15
G01X2.7697Y-0.4138
M16
G05
G00X2.7697Y-3.0112
M15
G01X2.7697Y-2.9856
M16
G05
G00X2.7697Y-5.5831
M15
G01X2.7697Y-5.5575
M16
G05
G00X3.0452Y-0.4394
M15
G01X3.0452Y-0.4138
M16
G05
G00X3.0452Y-3.0112
M15
G01X3.0452Y-2.9856
M16
G05
G00X3.0452Y-5.5831
M15
G01X3.0452Y-5.5575
M16
G05
G00X5.0201Y-0.4394
M15
G01X5.0201Y-0.4138
M16
G05
G00X5.0201Y-3.0112
M15
G01X5.0201Y-2.9856
M16
G05
G00X5.0201Y-5.5831
M15
G01X5.0201Y-5.5575
M16
G05
G00X5.2957Y-0.4394
M15
G01X5.2957Y-0.4138
M16
G05
G00X5.2957Y-3.0112
M15
G01X5.2957Y-2.9856
M16
G05
G00X5.2957Y-5.5831
M15
G01X5.2957Y-5.5575
M16
G05
T3
G00X0.5644Y-0.5329
M15
G01X0.5526Y-0.5329
M16
G05
G00X0.5644Y-3.1047
M15
G01X0.5526Y-3.1047
M16
G05
G00X0.5644Y-5.6766
M15
G01X0.5526Y-5.6766
M16
G05
G00X0.7613Y-0.5329
M15
G01X0.7495Y-0.5329
M16
G05
G00X0.7613Y-3.1047
M15
G01X0.7495Y-3.1047
M16
G05
G00X0.7613Y-5.6766
M15
G01X0.7495Y-5.6766
M16
G05
G00X2.8149Y-0.5329
M15
G01X2.8031Y-0.5329
M16
G05
G00X2.8149Y-3.1047
M15
G01X2.8031Y-3.1047
M16
G05
G00X2.8149Y-5.6766
M15
G01X2.8031Y-5.6766
M16
G05
G00X3.0118Y-0.5329
M15
G01X3.0Y-0.5329
M16
G05
G00X3.0118Y-3.1047
M15
G01X3.0Y-3.1047
M16
G05
G00X3.0118Y-5.6766
M15
G01X3.0Y-5.6766
M16
G05
G00X5.0654Y-0.5329
M15
G01X5.0536Y-0.5329
M16
G05
G00X5.0654Y-3.1047
M15
G01X5.0536Y-3.1047
M16
G05
G00X5.0654Y-5.6766
M15
G01X5.0536Y-5.6766
M16
G05
G00X5.2623Y-0.5329
M15
G01X5.2505Y-0.5329
M16
G05
G00X5.2623Y-3.1047
M15
G01X5.2505Y-3.1047
M16
G05
G00X5.2623Y-5.6766
M15
G01X5.2505Y-5.6766
M16
G05
T0
M30
