solid OpenSCAD_Model
  facet normal -1 0 0
    outer loop
      vertex -9 23 -4.5
      vertex -9 35 4.5
      vertex -9 35 -4.5
    endloop
  endfacet
  facet normal -1 -0 0
    outer loop
      vertex -9 35 4.5
      vertex -9 23 -4.5
      vertex -9 23 4.5
    endloop
  endfacet
  facet normal 0 0 1
    outer loop
      vertex -0.599999 26.583 4.5
      vertex -0.848515 26.4395 4.5
      vertex -0.599999 26.4 4.5
    endloop
  endfacet
  facet normal 0 0 1
    outer loop
      vertex 6 -35 4.5
      vertex 1.76777 -33.2322 4.5
      vertex 2.5 -35 4.5
    endloop
  endfacet
  facet normal 0 0 1
    outer loop
      vertex -3.46368 -12.9371 4.5
      vertex 2.51056 -11.1755 4.5
      vertex 1.63229 -10.9571 4.5
    endloop
  endfacet
  facet normal 0 0 1
    outer loop
      vertex -3.46368 -12.9371 4.5
      vertex 1.63229 -10.9571 4.5
      vertex 0.732285 -10.6514 4.5
    endloop
  endfacet
  facet normal 0 0 1
    outer loop
      vertex 3.3671 -11.3065 4.5
      vertex 0 -32.5 4.5
      vertex 1.76777 -33.2322 4.5
    endloop
  endfacet
  facet normal 0 0 1
    outer loop
      vertex -3.46368 -12.9371 4.5
      vertex 0.732285 -10.6514 4.5
      vertex -0.21312 -10.2435 4.5
    endloop
  endfacet
  facet normal 0 0 1
    outer loop
      vertex -3.46368 -12.9371 4.5
      vertex -0.21312 -10.2435 4.5
      vertex -1.22758 -9.7184 4.5
    endloop
  endfacet
  facet normal 0 0 1
    outer loop
      vertex 3.3671 -11.3065 4.5
      vertex -3.46368 -12.9371 4.5
      vertex 0 -32.5 4.5
    endloop
  endfacet
  facet normal 0 0 1
    outer loop
      vertex -3.46368 -12.9371 4.5
      vertex -1.22758 -9.7184 4.5
      vertex -2.31111 -9.07625 4.5
    endloop
  endfacet
  facet normal -0 0 1
    outer loop
      vertex -4.39743 -12.9371 4.5
      vertex 0 -32.5 4.5
      vertex -3.46368 -12.9371 4.5
    endloop
  endfacet
  facet normal 0 0 1
    outer loop
      vertex -3.46368 -12.9371 4.5
      vertex -2.31111 -9.07625 4.5
      vertex -3.46368 -8.317 4.5
    endloop
  endfacet
  facet normal -0 0 1
    outer loop
      vertex 4.04164 -4.62691 4.5
      vertex 4.20187 -10.2029 4.5
      vertex 4.25334 -4.02382 4.5
    endloop
  endfacet
  facet normal -0 0 1
    outer loop
      vertex 3.68881 -5.13766 4.5
      vertex 4.20187 -10.2029 4.5
      vertex 4.04164 -4.62691 4.5
    endloop
  endfacet
  facet normal -0 0 1
    outer loop
      vertex 3.19485 -5.55611 4.5
      vertex 4.20187 -10.2029 4.5
      vertex 3.68881 -5.13766 4.5
    endloop
  endfacet
  facet normal 0 0 1
    outer loop
      vertex 4.20187 -10.2029 4.5
      vertex 3.19485 -5.55611 4.5
      vertex 3.61179 -10.1859 4.5
    endloop
  endfacet
  facet normal -0 0 1
    outer loop
      vertex 2.56548 -5.88185 4.5
      vertex 3.61179 -10.1859 4.5
      vertex 3.19485 -5.55611 4.5
    endloop
  endfacet
  facet normal 0 0 1
    outer loop
      vertex 3.61179 -10.1859 4.5
      vertex 2.56548 -5.88185 4.5
      vertex 3.03162 -10.135 4.5
    endloop
  endfacet
  facet normal 0 0 1
    outer loop
      vertex 2.56548 -5.88185 4.5
      vertex 2.46136 -10.0501 4.5
      vertex 3.03162 -10.135 4.5
    endloop
  endfacet
  facet normal -0 0 1
    outer loop
      vertex 1.80641 -6.11453 4.5
      vertex 2.46136 -10.0501 4.5
      vertex 2.56548 -5.88185 4.5
    endloop
  endfacet
  facet normal 0 0 1
    outer loop
      vertex 2.46136 -10.0501 4.5
      vertex 1.80641 -6.11453 4.5
      vertex 1.90102 -9.93124 4.5
    endloop
  endfacet
  facet normal 0 0 1
    outer loop
      vertex 1.80641 -6.11453 4.5
      vertex 1.34372 -9.77846 4.5
      vertex 1.90102 -9.93124 4.5
    endloop
  endfacet
  facet normal -0 0 1
    outer loop
      vertex 0.917633 -6.25414 4.5
      vertex 1.34372 -9.77846 4.5
      vertex 1.80641 -6.11453 4.5
    endloop
  endfacet
  facet normal 0 0 1
    outer loop
      vertex 0.917633 -6.25414 4.5
      vertex 0.782608 -9.59174 4.5
      vertex 1.34372 -9.77846 4.5
    endloop
  endfacet
  facet normal 0 0 1
    outer loop
      vertex 0.917633 -6.25414 4.5
      vertex 0.217682 -9.37108 4.5
      vertex 0.782608 -9.59174 4.5
    endloop
  endfacet
  facet normal 0 0 1
    outer loop
      vertex -0.351044 -9.11647 4.5
      vertex 0.917633 -6.25414 4.5
      vertex -0.10083 -6.30067 4.5
    endloop
  endfacet
  facet normal 0 0 1
    outer loop
      vertex 0.917633 -6.25414 4.5
      vertex -0.351044 -9.11647 4.5
      vertex 0.217682 -9.37108 4.5
    endloop
  endfacet
  facet normal 0 0 1
    outer loop
      vertex -0.10083 -6.30067 4.5
      vertex -0.976227 -8.79645 4.5
      vertex -0.351044 -9.11647 4.5
    endloop
  endfacet
  facet normal 0 0 1
    outer loop
      vertex -1.13913 -6.25548 4.5
      vertex -0.976227 -8.79645 4.5
      vertex -0.10083 -6.30067 4.5
    endloop
  endfacet
  facet normal 0 0 1
    outer loop
      vertex -1.13913 -6.25548 4.5
      vertex -1.71051 -8.37953 4.5
      vertex -0.976227 -8.79645 4.5
    endloop
  endfacet
  facet normal 0 0 1
    outer loop
      vertex -2.55388 -7.86572 4.5
      vertex -1.13913 -6.25548 4.5
      vertex -2.03859 -6.11987 4.5
    endloop
  endfacet
  facet normal 0 0 1
    outer loop
      vertex -1.13913 -6.25548 4.5
      vertex -2.55388 -7.86572 4.5
      vertex -1.71051 -8.37953 4.5
    endloop
  endfacet
  facet normal 0 0 1
    outer loop
      vertex -3.50635 -7.255 4.5
      vertex -2.03859 -6.11987 4.5
      vertex -2.79918 -5.89386 4.5
    endloop
  endfacet
  facet normal 0 0 1
    outer loop
      vertex -3.50635 -7.255 4.5
      vertex -2.79918 -5.89386 4.5
      vertex -3.42094 -5.57744 4.5
    endloop
  endfacet
  facet normal 0 0 1
    outer loop
      vertex -2.03859 -6.11987 4.5
      vertex -3.50635 -7.255 4.5
      vertex -2.55388 -7.86572 4.5
    endloop
  endfacet
  facet normal 0 0 1
    outer loop
      vertex -4.39743 -7.255 4.5
      vertex -3.42094 -5.57744 4.5
      vertex -3.90422 -5.16338 4.5
    endloop
  endfacet
  facet normal 0 0 1
    outer loop
      vertex -4.39743 -7.255 4.5
      vertex -3.90422 -5.16338 4.5
      vertex -4.24944 -4.64441 4.5
    endloop
  endfacet
  facet normal 0 0 1
    outer loop
      vertex -3.42094 -5.57744 4.5
      vertex -4.39743 -7.255 4.5
      vertex -3.50635 -7.255 4.5
    endloop
  endfacet
  facet normal 0 0 1
    outer loop
      vertex -4.5256 -3.29179 4.5
      vertex -4.39743 -7.255 4.5
      vertex -4.45656 -4.02055 4.5
    endloop
  endfacet
  facet normal 0 0 1
    outer loop
      vertex -4.45656 -4.02055 4.5
      vertex -4.39743 -7.255 4.5
      vertex -4.24944 -4.64441 4.5
    endloop
  endfacet
  facet normal 0 0 1
    outer loop
      vertex 6 20.1468 4.5
      vertex 9 23 4.5
      vertex 9 26.4 4.5
    endloop
  endfacet
  facet normal 0 0 1
    outer loop
      vertex 9 23 4.5
      vertex 6 20.1468 4.5
      vertex 8.42705 21.2366 4.5
    endloop
  endfacet
  facet normal 0 0 1
    outer loop
      vertex 8.42705 21.2366 4.5
      vertex 6 20.1468 4.5
      vertex 6.92705 20.1468 4.5
    endloop
  endfacet
  facet normal -0 0 1
    outer loop
      vertex 4.32391 -3.32843 4.5
      vertex 6 -35 4.5
      vertex 6 20.1468 4.5
    endloop
  endfacet
  facet normal -0 0 1
    outer loop
      vertex 1.76777 -33.2322 4.5
      vertex 6 -35 4.5
      vertex 4.20187 -11.3502 4.5
    endloop
  endfacet
  facet normal 0 0 1
    outer loop
      vertex 6 -35 4.5
      vertex 4.32391 -3.32843 4.5
      vertex 4.20187 -10.2029 4.5
    endloop
  endfacet
  facet normal 0 0 1
    outer loop
      vertex 6 20.1468 4.5
      vertex 4.25296 -2.63213 4.5
      vertex 4.32391 -3.32843 4.5
    endloop
  endfacet
  facet normal 0 0 1
    outer loop
      vertex 6 20.1468 4.5
      vertex 4.04012 -2.02621 4.5
      vertex 4.25296 -2.63213 4.5
    endloop
  endfacet
  facet normal 0 0 1
    outer loop
      vertex 6 20.1468 4.5
      vertex 3.68538 -1.51073 4.5
      vertex 4.04012 -2.02621 4.5
    endloop
  endfacet
  facet normal 0 0 1
    outer loop
      vertex 6 20.1468 4.5
      vertex 3.18874 -1.08563 4.5
      vertex 3.68538 -1.51073 4.5
    endloop
  endfacet
  facet normal 0 0 1
    outer loop
      vertex 6 20.1468 4.5
      vertex 2.55745 -0.753189 4.5
      vertex 3.18874 -1.08563 4.5
    endloop
  endfacet
  facet normal 0 0 1
    outer loop
      vertex 6 20.1468 4.5
      vertex 1.79875 -0.515732 4.5
      vertex 2.55745 -0.753189 4.5
    endloop
  endfacet
  facet normal 0 0 1
    outer loop
      vertex 6 20.1468 4.5
      vertex 0.912659 -0.373245 4.5
      vertex 1.79875 -0.515732 4.5
    endloop
  endfacet
  facet normal 0 0 1
    outer loop
      vertex 6 20.1468 4.5
      vertex -0.10083 -0.32576 4.5
      vertex 0.912659 -0.373245 4.5
    endloop
  endfacet
  facet normal -0 0 1
    outer loop
      vertex -0.599999 26.4 4.5
      vertex 6 20.1468 4.5
      vertex 9 26.4 4.5
    endloop
  endfacet
  facet normal 0 0 1
    outer loop
      vertex -6 20.1468 4.5
      vertex 6 20.1468 4.5
      vertex -0.599999 26.4 4.5
    endloop
  endfacet
  facet normal 0 0 1
    outer loop
      vertex -6 20.1468 4.5
      vertex -0.599999 26.4 4.5
      vertex -0.848515 26.4395 4.5
    endloop
  endfacet
  facet normal 0 0 1
    outer loop
      vertex 6 20.1468 4.5
      vertex -6 20.1468 4.5
      vertex -0.10083 -0.32576 4.5
    endloop
  endfacet
  facet normal 0 0 1
    outer loop
      vertex -0.10083 -0.32576 4.5
      vertex -6 20.1468 4.5
      vertex -1.12923 -0.370956 4.5
    endloop
  endfacet
  facet normal 0 0 1
    outer loop
      vertex -6 20.1468 4.5
      vertex -0.848515 26.4395 4.5
      vertex -2.6 26.7483 4.5
    endloop
  endfacet
  facet normal 0 0 1
    outer loop
      vertex -1.12923 -0.370956 4.5
      vertex -6 20.1468 4.5
      vertex -2.02333 -0.506561 4.5
    endloop
  endfacet
  facet normal 0 0 1
    outer loop
      vertex -2.02333 -0.506561 4.5
      vertex -6 20.1468 4.5
      vertex -2.78316 -0.732574 4.5
    endloop
  endfacet
  facet normal 0 0 1
    outer loop
      vertex -9 23 4.5
      vertex -2.6 26.7483 4.5
      vertex -3.7432 28.1107 4.5
    endloop
  endfacet
  facet normal 0 0 1
    outer loop
      vertex -2.78316 -0.732574 4.5
      vertex -6 20.1468 4.5
      vertex -3.40869 -1.049 4.5
    endloop
  endfacet
  facet normal 0 0 1
    outer loop
      vertex 4.20187 -10.2029 4.5
      vertex 4.32391 -3.32843 4.5
      vertex 4.25334 -4.02382 4.5
    endloop
  endfacet
  facet normal 0 0 1
    outer loop
      vertex 6 -35 4.5
      vertex 4.20187 -10.2029 4.5
      vertex 4.20187 -11.3502 4.5
    endloop
  endfacet
  facet normal 0 0 1
    outer loop
      vertex 6 -35 4.5
      vertex 2.5 -35 4.5
      vertex 5.6749 -36.9482 4.5
    endloop
  endfacet
  facet normal 0 0 1
    outer loop
      vertex 1.76777 -33.2322 4.5
      vertex 4.20187 -11.3502 4.5
      vertex 3.3671 -11.3065 4.5
    endloop
  endfacet
  facet normal -0 0 1
    outer loop
      vertex 1.76777 -36.7678 4.5
      vertex 5.6749 -36.9482 4.5
      vertex 2.5 -35 4.5
    endloop
  endfacet
  facet normal 0 0 1
    outer loop
      vertex -3.46368 -12.9371 4.5
      vertex 3.3671 -11.3065 4.5
      vertex 2.51056 -11.1755 4.5
    endloop
  endfacet
  facet normal 0 0 1
    outer loop
      vertex 5.6749 -36.9482 4.5
      vertex 1.76777 -36.7678 4.5
      vertex 4.73484 -38.6853 4.5
    endloop
  endfacet
  facet normal 0 0 1
    outer loop
      vertex 4.73484 -38.6853 4.5
      vertex 1.76777 -36.7678 4.5
      vertex 3.28169 -40.023 4.5
    endloop
  endfacet
  facet normal 0 0 1
    outer loop
      vertex 1.76777 -36.7678 4.5
      vertex 1.47291 -40.8164 4.5
      vertex 3.28169 -40.023 4.5
    endloop
  endfacet
  facet normal -0 0 1
    outer loop
      vertex 0 -37.5 4.5
      vertex 1.47291 -40.8164 4.5
      vertex 1.76777 -36.7678 4.5
    endloop
  endfacet
  facet normal 0 0 1
    outer loop
      vertex 0 -37.5 4.5
      vertex -0.495476 -40.9795 4.5
      vertex 1.47291 -40.8164 4.5
    endloop
  endfacet
  facet normal 0 0 1
    outer loop
      vertex -2.41017 -40.4946 4.5
      vertex 0 -37.5 4.5
      vertex -1.76777 -36.7678 4.5
    endloop
  endfacet
  facet normal 0 0 1
    outer loop
      vertex 0 -37.5 4.5
      vertex -2.41017 -40.4946 4.5
      vertex -0.495476 -40.9795 4.5
    endloop
  endfacet
  facet normal 0 0 1
    outer loop
      vertex -5.27684 -37.8557 4.5
      vertex -1.76777 -36.7678 4.5
      vertex -2.5 -35 4.5
    endloop
  endfacet
  facet normal 0 0 1
    outer loop
      vertex 0 -32.5 4.5
      vertex -4.39743 -12.9371 4.5
      vertex -1.76777 -33.2322 4.5
    endloop
  endfacet
  facet normal 0 0 1
    outer loop
      vertex -6 -35 4.5
      vertex -1.76777 -33.2322 4.5
      vertex -4.39743 -12.9371 4.5
    endloop
  endfacet
  facet normal 0 0 1
    outer loop
      vertex -5.91817 -35.9876 4.5
      vertex -2.5 -35 4.5
      vertex -5.91817 -35 4.5
    endloop
  endfacet
  facet normal 0 0 1
    outer loop
      vertex -1.76777 -33.2322 4.5
      vertex -5.91817 -35 4.5
      vertex -2.5 -35 4.5
    endloop
  endfacet
  facet normal 0 0 1
    outer loop
      vertex -4.39743 -7.255 4.5
      vertex -4.5256 -3.29179 4.5
      vertex -4.39743 -12.9371 4.5
    endloop
  endfacet
  facet normal 0 0 1
    outer loop
      vertex -6 -35 4.5
      vertex -4.39743 -12.9371 4.5
      vertex -4.5256 -3.29179 4.5
    endloop
  endfacet
  facet normal 0 0 1
    outer loop
      vertex -1.76777 -36.7678 4.5
      vertex -4.06369 -39.4143 4.5
      vertex -2.41017 -40.4946 4.5
    endloop
  endfacet
  facet normal 0 0 1
    outer loop
      vertex -2.5 -35 4.5
      vertex -5.91817 -35.9876 4.5
      vertex -5.27684 -37.8557 4.5
    endloop
  endfacet
  facet normal 0 0 1
    outer loop
      vertex -1.76777 -33.2322 4.5
      vertex -6 -35 4.5
      vertex -5.91817 -35 4.5
    endloop
  endfacet
  facet normal 0 0 1
    outer loop
      vertex 9 35 4.5
      vertex -0.599999 31.6 4.5
      vertex 9 31.6 4.5
    endloop
  endfacet
  facet normal 0 0 1
    outer loop
      vertex -0.599999 31.6 4.5
      vertex -0.848515 31.5605 4.5
      vertex -0.599999 31.417 4.5
    endloop
  endfacet
  facet normal -0 0 1
    outer loop
      vertex -9 35 4.5
      vertex -0.599999 31.6 4.5
      vertex 9 35 4.5
    endloop
  endfacet
  facet normal 0 0 1
    outer loop
      vertex -0.599999 31.6 4.5
      vertex -9 35 4.5
      vertex -0.848515 31.5605 4.5
    endloop
  endfacet
  facet normal 0 0 1
    outer loop
      vertex -9 23 4.5
      vertex -3.7432 28.1107 4.5
      vertex -3.7432 29.8893 4.5
    endloop
  endfacet
  facet normal 0 0 1
    outer loop
      vertex -3.40869 -1.049 4.5
      vertex -6 20.1468 4.5
      vertex -3.89734 -1.46036 4.5
    endloop
  endfacet
  facet normal 0 0 1
    outer loop
      vertex -3.89734 -1.46036 4.5
      vertex -6 20.1468 4.5
      vertex -4.24637 -1.97127 4.5
    endloop
  endfacet
  facet normal 0 0 1
    outer loop
      vertex -4.24637 -1.97127 4.5
      vertex -6 20.1468 4.5
      vertex -4.4558 -2.58176 4.5
    endloop
  endfacet
  facet normal 0 0 1
    outer loop
      vertex -1.76777 -36.7678 4.5
      vertex -5.27684 -37.8557 4.5
      vertex -4.06369 -39.4143 4.5
    endloop
  endfacet
  facet normal 0 0 1
    outer loop
      vertex -4.4558 -2.58176 4.5
      vertex -6 20.1468 4.5
      vertex -4.5256 -3.29179 4.5
    endloop
  endfacet
  facet normal 0 0 1
    outer loop
      vertex -6 -35 4.5
      vertex -4.5256 -3.29179 4.5
      vertex -6 20.1468 4.5
    endloop
  endfacet
  facet normal 0 0 1
    outer loop
      vertex -2.6 26.7483 4.5
      vertex -9 23 4.5
      vertex -6 20.1468 4.5
    endloop
  endfacet
  facet normal -0 -0 1
    outer loop
      vertex -8.42705 21.2366 4.5
      vertex -6 20.1468 4.5
      vertex -9 23 4.5
    endloop
  endfacet
  facet normal 0 0 1
    outer loop
      vertex -0.848515 31.5605 4.5
      vertex -9 35 4.5
      vertex -2.6 31.2517 4.5
    endloop
  endfacet
  facet normal 0 0 1
    outer loop
      vertex -9 35 4.5
      vertex -3.7432 29.8893 4.5
      vertex -2.6 31.2517 4.5
    endloop
  endfacet
  facet normal 0 0 1
    outer loop
      vertex -9 23 4.5
      vertex -3.7432 29.8893 4.5
      vertex -9 35 4.5
    endloop
  endfacet
  facet normal 0 0 1
    outer loop
      vertex -6 20.1468 4.5
      vertex -8.42705 21.2366 4.5
      vertex -6.92705 20.1468 4.5
    endloop
  endfacet
  facet normal 0 0 1
    outer loop
      vertex 2.56018 -1.89418 4.5
      vertex 3.42679 -3.31628 4.5
      vertex 3.37262 -2.86346 4.5
    endloop
  endfacet
  facet normal 0 0 1
    outer loop
      vertex 3.42679 -3.31628 4.5
      vertex 2.57845 -4.74133 4.5
      vertex 3.37376 -3.77153 4.5
    endloop
  endfacet
  facet normal 0 0 1
    outer loop
      vertex 2.93932 -2.15242 4.5
      vertex 3.37262 -2.86346 4.5
      vertex 3.21013 -2.47552 4.5
    endloop
  endfacet
  facet normal 0 0 1
    outer loop
      vertex 3.37376 -3.77153 4.5
      vertex 2.9496 -4.48405 4.5
      vertex 3.21471 -4.1608 4.5
    endloop
  endfacet
  facet normal 0 0 1
    outer loop
      vertex 2.56018 -1.89418 4.5
      vertex 3.37262 -2.86346 4.5
      vertex 2.93932 -2.15242 4.5
    endloop
  endfacet
  facet normal 0 0 1
    outer loop
      vertex 3.37376 -3.77153 4.5
      vertex 2.57845 -4.74133 4.5
      vertex 2.9496 -4.48405 4.5
    endloop
  endfacet
  facet normal 0 0 1
    outer loop
      vertex 3.42679 -3.31628 4.5
      vertex 2.56018 -1.89418 4.5
      vertex 2.57845 -4.74133 4.5
    endloop
  endfacet
  facet normal 0 0 1
    outer loop
      vertex 2.56018 -1.89418 4.5
      vertex 2.09286 -4.93758 4.5
      vertex 2.57845 -4.74133 4.5
    endloop
  endfacet
  facet normal 0 0 1
    outer loop
      vertex 2.06885 -1.69661 4.5
      vertex 2.09286 -4.93758 4.5
      vertex 2.56018 -1.89418 4.5
    endloop
  endfacet
  facet normal 0 0 1
    outer loop
      vertex 2.06885 -1.69661 4.5
      vertex 1.48445 -5.07776 4.5
      vertex 2.09286 -4.93758 4.5
    endloop
  endfacet
  facet normal 0 0 1
    outer loop
      vertex 1.46156 -1.55547 4.5
      vertex 1.48445 -5.07776 4.5
      vertex 2.06885 -1.69661 4.5
    endloop
  endfacet
  facet normal 0 0 1
    outer loop
      vertex 1.46156 -1.55547 4.5
      vertex 0.75322 -5.16187 4.5
      vertex 1.48445 -5.07776 4.5
    endloop
  endfacet
  facet normal 0 0 1
    outer loop
      vertex 0.738342 -1.47079 4.5
      vertex 0.75322 -5.16187 4.5
      vertex 1.46156 -1.55547 4.5
    endloop
  endfacet
  facet normal 0 0 1
    outer loop
      vertex -0.10083 -1.44257 4.5
      vertex 0.75322 -5.16187 4.5
      vertex 0.738342 -1.47079 4.5
    endloop
  endfacet
  facet normal 0 0 1
    outer loop
      vertex -0.10083 -1.44257 4.5
      vertex -0.10083 -5.1899 4.5
      vertex 0.75322 -5.16187 4.5
    endloop
  endfacet
  facet normal -0 0 1
    outer loop
      vertex -0.967484 -1.46947 4.5
      vertex -0.10083 -5.1899 4.5
      vertex -0.10083 -1.44257 4.5
    endloop
  endfacet
  facet normal 0 0 1
    outer loop
      vertex -0.967484 -1.46947 4.5
      vertex -0.977386 -5.16225 4.5
      vertex -0.10083 -5.1899 4.5
    endloop
  endfacet
  facet normal -0 0 1
    outer loop
      vertex -1.70596 -1.55014 4.5
      vertex -0.977386 -5.16225 4.5
      vertex -0.967484 -1.46947 4.5
    endloop
  endfacet
  facet normal 0 0 1
    outer loop
      vertex -1.70596 -1.55014 4.5
      vertex -1.72119 -5.07928 4.5
      vertex -0.977386 -5.16225 4.5
    endloop
  endfacet
  facet normal -0 0 1
    outer loop
      vertex -2.31627 -1.6846 4.5
      vertex -1.72119 -5.07928 4.5
      vertex -1.70596 -1.55014 4.5
    endloop
  endfacet
  facet normal 0 0 1
    outer loop
      vertex -2.31627 -1.6846 4.5
      vertex -2.33224 -4.94102 4.5
      vertex -1.72119 -5.07928 4.5
    endloop
  endfacet
  facet normal -0 0 1
    outer loop
      vertex -2.7984 -1.87286 4.5
      vertex -2.33224 -4.94102 4.5
      vertex -2.31627 -1.6846 4.5
    endloop
  endfacet
  facet normal 0 0 1
    outer loop
      vertex -2.7984 -1.87286 4.5
      vertex -2.81056 -4.74745 4.5
      vertex -2.33224 -4.94102 4.5
    endloop
  endfacet
  facet normal 0 0 1
    outer loop
      vertex -3.58224 -2.83237 4.5
      vertex -2.7984 -1.87286 4.5
      vertex -3.1642 -2.12289 4.5
    endloop
  endfacet
  facet normal 0 0 1
    outer loop
      vertex -2.7984 -1.87286 4.5
      vertex -3.63451 -3.29179 4.5
      vertex -2.81056 -4.74745 4.5
    endloop
  endfacet
  facet normal 0 0 1
    outer loop
      vertex -3.58224 -2.83237 4.5
      vertex -3.1642 -2.12289 4.5
      vertex -3.42548 -2.44273 4.5
    endloop
  endfacet
  facet normal -0 -0 1
    outer loop
      vertex -3.58301 -3.7627 4.5
      vertex -2.81056 -4.74745 4.5
      vertex -3.63451 -3.29179 4.5
    endloop
  endfacet
  facet normal 0 0 1
    outer loop
      vertex -2.7984 -1.87286 4.5
      vertex -3.58224 -2.83237 4.5
      vertex -3.63451 -3.29179 4.5
    endloop
  endfacet
  facet normal 0 0 1
    outer loop
      vertex -2.81056 -4.74745 4.5
      vertex -3.58301 -3.7627 4.5
      vertex -3.17104 -4.49052 4.5
    endloop
  endfacet
  facet normal 0 0 1
    outer loop
      vertex -3.17104 -4.49052 4.5
      vertex -3.58301 -3.7627 4.5
      vertex -3.42851 -4.16228 4.5
    endloop
  endfacet
  facet normal 1 -0 0
    outer loop
      vertex 9 23 4.5
      vertex 9 26.4 -4.5
      vertex 9 26.4 4.5
    endloop
  endfacet
  facet normal 1 0 0
    outer loop
      vertex 9 26.4 -4.5
      vertex 9 23 4.5
      vertex 9 23 -4.5
    endloop
  endfacet
  facet normal 1 -0 0
    outer loop
      vertex 9 31.6 4.5
      vertex 9 35 -4.5
      vertex 9 35 4.5
    endloop
  endfacet
  facet normal 1 0 0
    outer loop
      vertex 9 35 -4.5
      vertex 9 31.6 4.5
      vertex 9 31.6 -4.5
    endloop
  endfacet
  facet normal 0 0 -1
    outer loop
      vertex 5.6749 -36.9482 -4.5
      vertex 1.76777 -36.7678 -4.5
      vertex 2.5 -35 -4.5
    endloop
  endfacet
  facet normal 0 0 -1
    outer loop
      vertex 1.47291 -40.8164 -4.5
      vertex 1.76777 -36.7678 -4.5
      vertex 3.28169 -40.023 -4.5
    endloop
  endfacet
  facet normal 0 0 -1
    outer loop
      vertex 1.47291 -40.8164 -4.5
      vertex 0 -37.5 -4.5
      vertex 1.76777 -36.7678 -4.5
    endloop
  endfacet
  facet normal 0 0 -1
    outer loop
      vertex -0.495476 -40.9795 -4.5
      vertex 0 -37.5 -4.5
      vertex 1.47291 -40.8164 -4.5
    endloop
  endfacet
  facet normal 0 0 -1
    outer loop
      vertex -2.41017 -40.4946 -4.5
      vertex 0 -37.5 -4.5
      vertex -0.495476 -40.9795 -4.5
    endloop
  endfacet
  facet normal -0 0 -1
    outer loop
      vertex 0 -37.5 -4.5
      vertex -2.41017 -40.4946 -4.5
      vertex -1.76777 -36.7678 -4.5
    endloop
  endfacet
  facet normal 0 0 -1
    outer loop
      vertex -4.06369 -39.4143 -4.5
      vertex -1.76777 -36.7678 -4.5
      vertex -2.41017 -40.4946 -4.5
    endloop
  endfacet
  facet normal 0 0 -1
    outer loop
      vertex -1.76777 -33.2322 -4.5
      vertex -3.7432 28.1107 -4.5
      vertex -2.6 26.7483 -4.5
    endloop
  endfacet
  facet normal 0 0 -1
    outer loop
      vertex -5.27684 -37.8557 -4.5
      vertex -1.76777 -36.7678 -4.5
      vertex -4.06369 -39.4143 -4.5
    endloop
  endfacet
  facet normal 0 0 -1
    outer loop
      vertex -1.76777 -33.2322 -4.5
      vertex -6 20.1468 -4.5
      vertex -3.7432 28.1107 -4.5
    endloop
  endfacet
  facet normal -0 0 -1
    outer loop
      vertex -1.76777 -36.7678 -4.5
      vertex -5.27684 -37.8557 -4.5
      vertex -2.5 -35 -4.5
    endloop
  endfacet
  facet normal 0 0 -1
    outer loop
      vertex -0.599999 31.417 -4.5
      vertex -0.848515 31.5605 -4.5
      vertex -0.599999 31.6 -4.5
    endloop
  endfacet
  facet normal 0 0 -1
    outer loop
      vertex 2.5 -35 -4.5
      vertex 6 -35 -4.5
      vertex 5.6749 -36.9482 -4.5
    endloop
  endfacet
  facet normal 0 0 -1
    outer loop
      vertex 6 20.1468 -4.5
      vertex 9 23 -4.5
      vertex 8.42705 21.2366 -4.5
    endloop
  endfacet
  facet normal 0 0 -1
    outer loop
      vertex 6 20.1468 -4.5
      vertex 8.42705 21.2366 -4.5
      vertex 6.92705 20.1468 -4.5
    endloop
  endfacet
  facet normal -0 0 -1
    outer loop
      vertex 9 23 -4.5
      vertex 6 20.1468 -4.5
      vertex 9 26.4 -4.5
    endloop
  endfacet
  facet normal 0 0 -1
    outer loop
      vertex 1.76777 -36.7678 -4.5
      vertex 5.6749 -36.9482 -4.5
      vertex 4.73484 -38.6853 -4.5
    endloop
  endfacet
  facet normal 0 0 -1
    outer loop
      vertex 1.76777 -36.7678 -4.5
      vertex 4.73484 -38.6853 -4.5
      vertex 3.28169 -40.023 -4.5
    endloop
  endfacet
  facet normal 0 0 -1
    outer loop
      vertex 6 -35 -4.5
      vertex 2.5 -35 -4.5
      vertex 1.76777 -33.2322 -4.5
    endloop
  endfacet
  facet normal 0 0 -1
    outer loop
      vertex 6 -35 -4.5
      vertex 1.76777 -33.2322 -4.5
      vertex 6 20.1468 -4.5
    endloop
  endfacet
  facet normal 0 0 -1
    outer loop
      vertex 0 -32.5 -4.5
      vertex 6 20.1468 -4.5
      vertex 1.76777 -33.2322 -4.5
    endloop
  endfacet
  facet normal 0 0 -1
    outer loop
      vertex 6 20.1468 -4.5
      vertex -0.599999 26.4 -4.5
      vertex 9 26.4 -4.5
    endloop
  endfacet
  facet normal 0 0 -1
    outer loop
      vertex -1.76777 -33.2322 -4.5
      vertex 6 20.1468 -4.5
      vertex 0 -32.5 -4.5
    endloop
  endfacet
  facet normal 0 0 -1
    outer loop
      vertex -0.599999 26.4 -4.5
      vertex -0.848515 26.4395 -4.5
      vertex -0.599999 26.583 -4.5
    endloop
  endfacet
  facet normal 0 0 -1
    outer loop
      vertex 6 20.1468 -4.5
      vertex -0.848515 26.4395 -4.5
      vertex -0.599999 26.4 -4.5
    endloop
  endfacet
  facet normal -0 0 -1
    outer loop
      vertex 6 20.1468 -4.5
      vertex -1.76777 -33.2322 -4.5
      vertex -2.6 26.7483 -4.5
    endloop
  endfacet
  facet normal 0 0 -1
    outer loop
      vertex -5.91817 -35 -4.5
      vertex -1.76777 -33.2322 -4.5
      vertex -2.5 -35 -4.5
    endloop
  endfacet
  facet normal 0 0 -1
    outer loop
      vertex 6 20.1468 -4.5
      vertex -2.6 26.7483 -4.5
      vertex -0.848515 26.4395 -4.5
    endloop
  endfacet
  facet normal 0 0 -1
    outer loop
      vertex -0.599999 31.6 -4.5
      vertex 9 35 -4.5
      vertex 9 31.6 -4.5
    endloop
  endfacet
  facet normal 0 0 -1
    outer loop
      vertex -9 35 -4.5
      vertex -0.599999 31.6 -4.5
      vertex -0.848515 31.5605 -4.5
    endloop
  endfacet
  facet normal 0 0 -1
    outer loop
      vertex -9 35 -4.5
      vertex -0.848515 31.5605 -4.5
      vertex -2.6 31.2517 -4.5
    endloop
  endfacet
  facet normal 0 0 -1
    outer loop
      vertex -5.91817 -35.9876 -4.5
      vertex -2.5 -35 -4.5
      vertex -5.27684 -37.8557 -4.5
    endloop
  endfacet
  facet normal -0 0 -1
    outer loop
      vertex -2.5 -35 -4.5
      vertex -5.91817 -35.9876 -4.5
      vertex -5.91817 -35 -4.5
    endloop
  endfacet
  facet normal 0 0 -1
    outer loop
      vertex -6 -35 -4.5
      vertex -1.76777 -33.2322 -4.5
      vertex -5.91817 -35 -4.5
    endloop
  endfacet
  facet normal -0 0 -1
    outer loop
      vertex -1.76777 -33.2322 -4.5
      vertex -6 -35 -4.5
      vertex -6 20.1468 -4.5
    endloop
  endfacet
  facet normal 0 0 -1
    outer loop
      vertex -9 23 -4.5
      vertex -3.7432 28.1107 -4.5
      vertex -6 20.1468 -4.5
    endloop
  endfacet
  facet normal 0 0 -1
    outer loop
      vertex -8.42705 21.2366 -4.5
      vertex -6 20.1468 -4.5
      vertex -6.92705 20.1468 -4.5
    endloop
  endfacet
  facet normal 0 0 -1
    outer loop
      vertex -6 20.1468 -4.5
      vertex -8.42705 21.2366 -4.5
      vertex -9 23 -4.5
    endloop
  endfacet
  facet normal -0 0 -1
    outer loop
      vertex -3.7432 28.1107 -4.5
      vertex -9 23 -4.5
      vertex -3.7432 29.8893 -4.5
    endloop
  endfacet
  facet normal 0 0 -1
    outer loop
      vertex -0.599999 31.6 -4.5
      vertex -9 35 -4.5
      vertex 9 35 -4.5
    endloop
  endfacet
  facet normal 0 0 -1
    outer loop
      vertex -3.7432 29.8893 -4.5
      vertex -9 35 -4.5
      vertex -2.6 31.2517 -4.5
    endloop
  endfacet
  facet normal 0 0 -1
    outer loop
      vertex -9 35 -4.5
      vertex -3.7432 29.8893 -4.5
      vertex -9 23 -4.5
    endloop
  endfacet
  facet normal 0 1 -0
    outer loop
      vertex 9 35 -4.5
      vertex -9 35 4.5
      vertex 9 35 4.5
    endloop
  endfacet
  facet normal 0 1 0
    outer loop
      vertex -9 35 4.5
      vertex 9 35 -4.5
      vertex -9 35 -4.5
    endloop
  endfacet
  facet normal 0 -1 0
    outer loop
      vertex -6.92705 20.1468 -4.5
      vertex -6 20.1468 4.5
      vertex -6.92705 20.1468 4.5
    endloop
  endfacet
  facet normal 0 -1 -0
    outer loop
      vertex -6 20.1468 4.5
      vertex -6.92705 20.1468 -4.5
      vertex -6 20.1468 -4.5
    endloop
  endfacet
  facet normal -0.58778 -0.809021 0
    outer loop
      vertex -8.42705 21.2366 -4.5
      vertex -6.92705 20.1468 4.5
      vertex -8.42705 21.2366 4.5
    endloop
  endfacet
  facet normal -0.58778 -0.809021 -0
    outer loop
      vertex -6.92705 20.1468 4.5
      vertex -8.42705 21.2366 -4.5
      vertex -6.92705 20.1468 -4.5
    endloop
  endfacet
  facet normal -0.951059 -0.30901 0
    outer loop
      vertex -8.42705 21.2366 -4.5
      vertex -9 23 4.5
      vertex -9 23 -4.5
    endloop
  endfacet
  facet normal -0.951059 -0.30901 0
    outer loop
      vertex -9 23 4.5
      vertex -8.42705 21.2366 -4.5
      vertex -8.42705 21.2366 4.5
    endloop
  endfacet
  facet normal 0.951059 -0.30901 0
    outer loop
      vertex 8.42705 21.2366 4.5
      vertex 9 23 -4.5
      vertex 9 23 4.5
    endloop
  endfacet
  facet normal 0.951059 -0.30901 0
    outer loop
      vertex 9 23 -4.5
      vertex 8.42705 21.2366 4.5
      vertex 8.42705 21.2366 -4.5
    endloop
  endfacet
  facet normal 0.58778 -0.809021 0
    outer loop
      vertex 6.92705 20.1468 -4.5
      vertex 8.42705 21.2366 4.5
      vertex 6.92705 20.1468 4.5
    endloop
  endfacet
  facet normal 0.58778 -0.809021 0
    outer loop
      vertex 8.42705 21.2366 4.5
      vertex 6.92705 20.1468 -4.5
      vertex 8.42705 21.2366 -4.5
    endloop
  endfacet
  facet normal 0 -1 0
    outer loop
      vertex 6 20.1468 -4.5
      vertex 6.92705 20.1468 4.5
      vertex 6 20.1468 4.5
    endloop
  endfacet
  facet normal 0 -1 -0
    outer loop
      vertex 6.92705 20.1468 4.5
      vertex 6 20.1468 -4.5
      vertex 6.92705 20.1468 -4.5
    endloop
  endfacet
  facet normal -1 0 0
    outer loop
      vertex -5.91817 -35.9876 -4.5
      vertex -5.91817 -35 4.5
      vertex -5.91817 -35 -4.5
    endloop
  endfacet
  facet normal -1 -0 0
    outer loop
      vertex -5.91817 -35 4.5
      vertex -5.91817 -35.9876 -4.5
      vertex -5.91817 -35.9876 4.5
    endloop
  endfacet
  facet normal 0.401694 -0.915774 0
    outer loop
      vertex 1.47291 -40.8164 -4.5
      vertex 3.28169 -40.023 4.5
      vertex 1.47291 -40.8164 4.5
    endloop
  endfacet
  facet normal 0.401694 -0.915774 0
    outer loop
      vertex 3.28169 -40.023 4.5
      vertex 1.47291 -40.8164 -4.5
      vertex 3.28169 -40.023 -4.5
    endloop
  endfacet
  facet normal -0.245501 -0.969396 0
    outer loop
      vertex -2.41017 -40.4946 -4.5
      vertex -0.495476 -40.9795 4.5
      vertex -2.41017 -40.4946 4.5
    endloop
  endfacet
  facet normal -0.245501 -0.969396 -0
    outer loop
      vertex -0.495476 -40.9795 4.5
      vertex -2.41017 -40.4946 -4.5
      vertex -0.495476 -40.9795 -4.5
    endloop
  endfacet
  facet normal -0.945816 -0.324704 0
    outer loop
      vertex -5.27684 -37.8557 -4.5
      vertex -5.91817 -35.9876 4.5
      vertex -5.91817 -35.9876 -4.5
    endloop
  endfacet
  facet normal -0.945816 -0.324704 0
    outer loop
      vertex -5.91817 -35.9876 4.5
      vertex -5.27684 -37.8557 -4.5
      vertex -5.27684 -37.8557 4.5
    endloop
  endfacet
  facet normal -0.546949 -0.837166 0
    outer loop
      vertex -4.06369 -39.4143 -4.5
      vertex -2.41017 -40.4946 4.5
      vertex -4.06369 -39.4143 4.5
    endloop
  endfacet
  facet normal -0.546949 -0.837166 -0
    outer loop
      vertex -2.41017 -40.4946 4.5
      vertex -4.06369 -39.4143 -4.5
      vertex -2.41017 -40.4946 -4.5
    endloop
  endfacet
  facet normal -0.78913 -0.614226 0
    outer loop
      vertex -4.06369 -39.4143 -4.5
      vertex -5.27684 -37.8557 4.5
      vertex -5.27684 -37.8557 -4.5
    endloop
  endfacet
  facet normal -0.78913 -0.614226 0
    outer loop
      vertex -5.27684 -37.8557 4.5
      vertex -4.06369 -39.4143 -4.5
      vertex -4.06369 -39.4143 4.5
    endloop
  endfacet
  facet normal 0.677276 -0.735729 0
    outer loop
      vertex 3.28169 -40.023 -4.5
      vertex 4.73484 -38.6853 4.5
      vertex 3.28169 -40.023 4.5
    endloop
  endfacet
  facet normal 0.677276 -0.735729 0
    outer loop
      vertex 4.73484 -38.6853 4.5
      vertex 3.28169 -40.023 -4.5
      vertex 4.73484 -38.6853 -4.5
    endloop
  endfacet
  facet normal 0.986361 -0.164596 0
    outer loop
      vertex 5.6749 -36.9482 4.5
      vertex 6 -35 -4.5
      vertex 6 -35 4.5
    endloop
  endfacet
  facet normal 0.986361 -0.164596 0
    outer loop
      vertex 6 -35 -4.5
      vertex 5.6749 -36.9482 4.5
      vertex 5.6749 -36.9482 -4.5
    endloop
  endfacet
  facet normal 0.0825768 -0.996585 0
    outer loop
      vertex -0.495476 -40.9795 -4.5
      vertex 1.47291 -40.8164 4.5
      vertex -0.495476 -40.9795 4.5
    endloop
  endfacet
  facet normal 0.0825768 -0.996585 0
    outer loop
      vertex 1.47291 -40.8164 4.5
      vertex -0.495476 -40.9795 -4.5
      vertex 1.47291 -40.8164 -4.5
    endloop
  endfacet
  facet normal 0.879476 -0.475943 0
    outer loop
      vertex 4.73484 -38.6853 4.5
      vertex 5.6749 -36.9482 -4.5
      vertex 5.6749 -36.9482 4.5
    endloop
  endfacet
  facet normal 0.879476 -0.475943 0
    outer loop
      vertex 5.6749 -36.9482 -4.5
      vertex 4.73484 -38.6853 4.5
      vertex 4.73484 -38.6853 -4.5
    endloop
  endfacet
  facet normal -1 0 0
    outer loop
      vertex -6 -35 -4.5
      vertex -6 20.1468 4.5
      vertex -6 20.1468 -4.5
    endloop
  endfacet
  facet normal -1 -0 0
    outer loop
      vertex -6 20.1468 4.5
      vertex -6 -35 -4.5
      vertex -6 -35 4.5
    endloop
  endfacet
  facet normal 1 -0 0
    outer loop
      vertex 6 -35 4.5
      vertex 6 20.1468 -4.5
      vertex 6 20.1468 4.5
    endloop
  endfacet
  facet normal 1 0 0
    outer loop
      vertex 6 20.1468 -4.5
      vertex 6 -35 4.5
      vertex 6 -35 -4.5
    endloop
  endfacet
  facet normal 0 -1 0
    outer loop
      vertex -6 -35 -4.5
      vertex -5.91817 -35 4.5
      vertex -6 -35 4.5
    endloop
  endfacet
  facet normal 0 -1 -0
    outer loop
      vertex -5.91817 -35 4.5
      vertex -6 -35 -4.5
      vertex -5.91817 -35 -4.5
    endloop
  endfacet
  facet normal -0.923883 -0.382676 0
    outer loop
      vertex 2.5 -35 -4.5
      vertex 1.76777 -33.2322 4.5
      vertex 1.76777 -33.2322 -4.5
    endloop
  endfacet
  facet normal -0.923883 -0.382676 0
    outer loop
      vertex 1.76777 -33.2322 4.5
      vertex 2.5 -35 -4.5
      vertex 2.5 -35 4.5
    endloop
  endfacet
  facet normal 0.923883 -0.382676 0
    outer loop
      vertex -2.5 -35 4.5
      vertex -1.76777 -33.2322 -4.5
      vertex -1.76777 -33.2322 4.5
    endloop
  endfacet
  facet normal 0.923883 -0.382676 0
    outer loop
      vertex -1.76777 -33.2322 -4.5
      vertex -2.5 -35 4.5
      vertex -2.5 -35 -4.5
    endloop
  endfacet
  facet normal -0.382668 0.923886 0
    outer loop
      vertex 1.76777 -36.7678 -4.5
      vertex 0 -37.5 4.5
      vertex 1.76777 -36.7678 4.5
    endloop
  endfacet
  facet normal -0.382668 0.923886 0
    outer loop
      vertex 0 -37.5 4.5
      vertex 1.76777 -36.7678 -4.5
      vertex 0 -37.5 -4.5
    endloop
  endfacet
  facet normal 0.382668 -0.923886 0
    outer loop
      vertex -1.76777 -33.2322 -4.5
      vertex 0 -32.5 4.5
      vertex -1.76777 -33.2322 4.5
    endloop
  endfacet
  facet normal 0.382668 -0.923886 0
    outer loop
      vertex 0 -32.5 4.5
      vertex -1.76777 -33.2322 -4.5
      vertex 0 -32.5 -4.5
    endloop
  endfacet
  facet normal -0.382668 -0.923886 0
    outer loop
      vertex 0 -32.5 -4.5
      vertex 1.76777 -33.2322 4.5
      vertex 0 -32.5 4.5
    endloop
  endfacet
  facet normal -0.382668 -0.923886 -0
    outer loop
      vertex 1.76777 -33.2322 4.5
      vertex 0 -32.5 -4.5
      vertex 1.76777 -33.2322 -4.5
    endloop
  endfacet
  facet normal -0.923883 0.382676 0
    outer loop
      vertex 1.76777 -36.7678 -4.5
      vertex 2.5 -35 4.5
      vertex 2.5 -35 -4.5
    endloop
  endfacet
  facet normal -0.923883 0.382676 0
    outer loop
      vertex 2.5 -35 4.5
      vertex 1.76777 -36.7678 -4.5
      vertex 1.76777 -36.7678 4.5
    endloop
  endfacet
  facet normal 0.382668 0.923886 -0
    outer loop
      vertex 0 -37.5 -4.5
      vertex -1.76777 -36.7678 4.5
      vertex 0 -37.5 4.5
    endloop
  endfacet
  facet normal 0.382668 0.923886 0
    outer loop
      vertex -1.76777 -36.7678 4.5
      vertex 0 -37.5 -4.5
      vertex -1.76777 -36.7678 -4.5
    endloop
  endfacet
  facet normal 0.923883 0.382676 0
    outer loop
      vertex -1.76777 -36.7678 4.5
      vertex -2.5 -35 -4.5
      vertex -2.5 -35 4.5
    endloop
  endfacet
  facet normal 0.923883 0.382676 0
    outer loop
      vertex -2.5 -35 -4.5
      vertex -1.76777 -36.7678 4.5
      vertex -1.76777 -36.7678 -4.5
    endloop
  endfacet
  facet normal 1 -0 0
    outer loop
      vertex -3.7432 28.1107 4.5
      vertex -3.7432 29.8893 -4.5
      vertex -3.7432 29.8893 4.5
    endloop
  endfacet
  facet normal 1 0 0
    outer loop
      vertex -3.7432 29.8893 -4.5
      vertex -3.7432 28.1107 4.5
      vertex -3.7432 28.1107 -4.5
    endloop
  endfacet
  facet normal 0.17363 -0.984811 0
    outer loop
      vertex -2.6 31.2517 -4.5
      vertex -0.848515 31.5605 4.5
      vertex -2.6 31.2517 4.5
    endloop
  endfacet
  facet normal 0.17363 -0.984811 0
    outer loop
      vertex -0.848515 31.5605 4.5
      vertex -2.6 31.2517 -4.5
      vertex -0.848515 31.5605 -4.5
    endloop
  endfacet
  facet normal -0.50005 -0.865996 0
    outer loop
      vertex -0.848515 31.5605 -4.5
      vertex -0.599999 31.417 4.5
      vertex -0.848515 31.5605 4.5
    endloop
  endfacet
  facet normal -0.50005 -0.865996 -0
    outer loop
      vertex -0.599999 31.417 4.5
      vertex -0.848515 31.5605 -4.5
      vertex -0.599999 31.417 -4.5
    endloop
  endfacet
  facet normal 0.766041 -0.642791 0
    outer loop
      vertex -3.7432 29.8893 4.5
      vertex -2.6 31.2517 -4.5
      vertex -2.6 31.2517 4.5
    endloop
  endfacet
  facet normal 0.766041 -0.642791 0
    outer loop
      vertex -2.6 31.2517 -4.5
      vertex -3.7432 29.8893 4.5
      vertex -3.7432 29.8893 -4.5
    endloop
  endfacet
  facet normal -0.50005 0.865996 0
    outer loop
      vertex -0.599999 26.583 -4.5
      vertex -0.848515 26.4395 4.5
      vertex -0.599999 26.583 4.5
    endloop
  endfacet
  facet normal -0.50005 0.865996 0
    outer loop
      vertex -0.848515 26.4395 4.5
      vertex -0.599999 26.583 -4.5
      vertex -0.848515 26.4395 -4.5
    endloop
  endfacet
  facet normal 0.766041 0.642791 0
    outer loop
      vertex -2.6 26.7483 4.5
      vertex -3.7432 28.1107 -4.5
      vertex -3.7432 28.1107 4.5
    endloop
  endfacet
  facet normal 0.766041 0.642791 0
    outer loop
      vertex -3.7432 28.1107 -4.5
      vertex -2.6 26.7483 4.5
      vertex -2.6 26.7483 -4.5
    endloop
  endfacet
  facet normal 0.17363 0.984811 -0
    outer loop
      vertex -0.848515 26.4395 -4.5
      vertex -2.6 26.7483 4.5
      vertex -0.848515 26.4395 4.5
    endloop
  endfacet
  facet normal 0.17363 0.984811 0
    outer loop
      vertex -2.6 26.7483 4.5
      vertex -0.848515 26.4395 -4.5
      vertex -2.6 26.7483 -4.5
    endloop
  endfacet
  facet normal 1 -0 0
    outer loop
      vertex -0.599999 31.417 4.5
      vertex -0.599999 31.6 -4.5
      vertex -0.599999 31.6 4.5
    endloop
  endfacet
  facet normal 1 0 0
    outer loop
      vertex -0.599999 31.6 -4.5
      vertex -0.599999 31.417 4.5
      vertex -0.599999 31.417 -4.5
    endloop
  endfacet
  facet normal 1 -0 0
    outer loop
      vertex -0.599999 26.4 4.5
      vertex -0.599999 26.583 -4.5
      vertex -0.599999 26.583 4.5
    endloop
  endfacet
  facet normal 1 0 0
    outer loop
      vertex -0.599999 26.583 -4.5
      vertex -0.599999 26.4 4.5
      vertex -0.599999 26.4 -4.5
    endloop
  endfacet
  facet normal 0 -1 0
    outer loop
      vertex -0.599999 31.6 -4.5
      vertex 9 31.6 4.5
      vertex -0.599999 31.6 4.5
    endloop
  endfacet
  facet normal 0 -1 -0
    outer loop
      vertex 9 31.6 4.5
      vertex -0.599999 31.6 -4.5
      vertex 9 31.6 -4.5
    endloop
  endfacet
  facet normal 0 1 -0
    outer loop
      vertex 9 26.4 -4.5
      vertex -0.599999 26.4 4.5
      vertex 9 26.4 4.5
    endloop
  endfacet
  facet normal 0 1 0
    outer loop
      vertex -0.599999 26.4 4.5
      vertex 9 26.4 -4.5
      vertex -0.599999 26.4 -4.5
    endloop
  endfacet
  facet normal 0 0 1
    outer loop
      vertex 4.32391 -3.32843 4
      vertex 3.37262 -2.86346 4
      vertex 3.42679 -3.31628 4
    endloop
  endfacet
  facet normal 0 0 1
    outer loop
      vertex 4.04012 -2.02621 4
      vertex 3.21013 -2.47552 4
      vertex 3.37262 -2.86346 4
    endloop
  endfacet
  facet normal 0 0 1
    outer loop
      vertex 2.93932 -2.15242 4
      vertex 3.68538 -1.51073 4
      vertex 3.18874 -1.08563 4
    endloop
  endfacet
  facet normal 0 0 1
    outer loop
      vertex 3.68538 -1.51073 4
      vertex 2.93932 -2.15242 4
      vertex 3.21013 -2.47552 4
    endloop
  endfacet
  facet normal 0 0 1
    outer loop
      vertex 3.18874 -1.08563 4
      vertex 2.56018 -1.89418 4
      vertex 2.93932 -2.15242 4
    endloop
  endfacet
  facet normal 0 0 1
    outer loop
      vertex 2.55745 -0.753189 4
      vertex 2.56018 -1.89418 4
      vertex 3.18874 -1.08563 4
    endloop
  endfacet
  facet normal 0 0 1
    outer loop
      vertex 2.55745 -0.753189 4
      vertex 2.06885 -1.69661 4
      vertex 2.56018 -1.89418 4
    endloop
  endfacet
  facet normal 0 0 1
    outer loop
      vertex 1.79875 -0.515732 4
      vertex 2.06885 -1.69661 4
      vertex 2.55745 -0.753189 4
    endloop
  endfacet
  facet normal 0 0 1
    outer loop
      vertex 1.79875 -0.515732 4
      vertex 1.46156 -1.55547 4
      vertex 2.06885 -1.69661 4
    endloop
  endfacet
  facet normal 0 0 1
    outer loop
      vertex 0.912659 -0.373245 4
      vertex 1.46156 -1.55547 4
      vertex 1.79875 -0.515732 4
    endloop
  endfacet
  facet normal 0 0 1
    outer loop
      vertex 0.912659 -0.373245 4
      vertex 0.738342 -1.47079 4
      vertex 1.46156 -1.55547 4
    endloop
  endfacet
  facet normal 0 0 1
    outer loop
      vertex -0.10083 -0.32576 4
      vertex 0.738342 -1.47079 4
      vertex 0.912659 -0.373245 4
    endloop
  endfacet
  facet normal 0 0 1
    outer loop
      vertex -0.10083 -0.32576 4
      vertex -0.10083 -1.44257 4
      vertex 0.738342 -1.47079 4
    endloop
  endfacet
  facet normal 0 0 1
    outer loop
      vertex -0.10083 -0.32576 4
      vertex -0.967484 -1.46947 4
      vertex -0.10083 -1.44257 4
    endloop
  endfacet
  facet normal -0 0 1
    outer loop
      vertex -1.12923 -0.370956 4
      vertex -0.967484 -1.46947 4
      vertex -0.10083 -0.32576 4
    endloop
  endfacet
  facet normal 0 0 1
    outer loop
      vertex -1.12923 -0.370956 4
      vertex -1.70596 -1.55014 4
      vertex -0.967484 -1.46947 4
    endloop
  endfacet
  facet normal -0 0 1
    outer loop
      vertex -2.02333 -0.506561 4
      vertex -1.70596 -1.55014 4
      vertex -1.12923 -0.370956 4
    endloop
  endfacet
  facet normal 0 0 1
    outer loop
      vertex -2.02333 -0.506561 4
      vertex -2.31627 -1.6846 4
      vertex -1.70596 -1.55014 4
    endloop
  endfacet
  facet normal -0 0 1
    outer loop
      vertex -2.78316 -0.732574 4
      vertex -2.31627 -1.6846 4
      vertex -2.02333 -0.506561 4
    endloop
  endfacet
  facet normal 0 0 1
    outer loop
      vertex -2.78316 -0.732574 4
      vertex -2.7984 -1.87286 4
      vertex -2.31627 -1.6846 4
    endloop
  endfacet
  facet normal -0 0 1
    outer loop
      vertex -3.40869 -1.049 4
      vertex -2.7984 -1.87286 4
      vertex -2.78316 -0.732574 4
    endloop
  endfacet
  facet normal 0 0 1
    outer loop
      vertex -2.7984 -1.87286 4
      vertex -3.40869 -1.049 4
      vertex -3.1642 -2.12289 4
    endloop
  endfacet
  facet normal -0 0 1
    outer loop
      vertex -3.89734 -1.46036 4
      vertex -3.1642 -2.12289 4
      vertex -3.40869 -1.049 4
    endloop
  endfacet
  facet normal 0 0 1
    outer loop
      vertex -3.1642 -2.12289 4
      vertex -3.89734 -1.46036 4
      vertex -3.42548 -2.44273 4
    endloop
  endfacet
  facet normal -0 0 1
    outer loop
      vertex -4.24637 -1.97127 4
      vertex -3.42548 -2.44273 4
      vertex -3.89734 -1.46036 4
    endloop
  endfacet
  facet normal 0 0 1
    outer loop
      vertex -4.4558 -2.58176 4
      vertex -3.42548 -2.44273 4
      vertex -4.24637 -1.97127 4
    endloop
  endfacet
  facet normal -0 0 1
    outer loop
      vertex 3.37262 -2.86346 4
      vertex 4.32391 -3.32843 4
      vertex 4.25296 -2.63213 4
    endloop
  endfacet
  facet normal 0 0 1
    outer loop
      vertex 3.37376 -3.77153 4
      vertex 4.32391 -3.32843 4
      vertex 3.42679 -3.31628 4
    endloop
  endfacet
  facet normal 0 0 1
    outer loop
      vertex 3.37262 -2.86346 4
      vertex 4.25296 -2.63213 4
      vertex 4.04012 -2.02621 4
    endloop
  endfacet
  facet normal 0 0 1
    outer loop
      vertex 4.32391 -3.32843 4
      vertex 3.37376 -3.77153 4
      vertex 4.25334 -4.02382 4
    endloop
  endfacet
  facet normal 0 0 1
    outer loop
      vertex 3.21013 -2.47552 4
      vertex 4.04012 -2.02621 4
      vertex 3.68538 -1.51073 4
    endloop
  endfacet
  facet normal 0 0 1
    outer loop
      vertex 3.21471 -4.1608 4
      vertex 4.25334 -4.02382 4
      vertex 3.37376 -3.77153 4
    endloop
  endfacet
  facet normal 0 0 1
    outer loop
      vertex 4.25334 -4.02382 4
      vertex 3.21471 -4.1608 4
      vertex 4.04164 -4.62691 4
    endloop
  endfacet
  facet normal 0 0 1
    outer loop
      vertex 4.04164 -4.62691 4
      vertex 3.21471 -4.1608 4
      vertex 3.68881 -5.13766 4
    endloop
  endfacet
  facet normal -0 0 1
    outer loop
      vertex 2.9496 -4.48405 4
      vertex 3.68881 -5.13766 4
      vertex 3.21471 -4.1608 4
    endloop
  endfacet
  facet normal 0 0 1
    outer loop
      vertex 3.68881 -5.13766 4
      vertex 2.9496 -4.48405 4
      vertex 3.19485 -5.55611 4
    endloop
  endfacet
  facet normal -0 0 1
    outer loop
      vertex 2.57845 -4.74133 4
      vertex 3.19485 -5.55611 4
      vertex 2.9496 -4.48405 4
    endloop
  endfacet
  facet normal 0 0 1
    outer loop
      vertex 2.57845 -4.74133 4
      vertex 2.56548 -5.88185 4
      vertex 3.19485 -5.55611 4
    endloop
  endfacet
  facet normal -0 0 1
    outer loop
      vertex 2.09286 -4.93758 4
      vertex 2.56548 -5.88185 4
      vertex 2.57845 -4.74133 4
    endloop
  endfacet
  facet normal 0 0 1
    outer loop
      vertex 2.09286 -4.93758 4
      vertex 1.80641 -6.11453 4
      vertex 2.56548 -5.88185 4
    endloop
  endfacet
  facet normal -0 0 1
    outer loop
      vertex 1.48445 -5.07776 4
      vertex 1.80641 -6.11453 4
      vertex 2.09286 -4.93758 4
    endloop
  endfacet
  facet normal 0 0 1
    outer loop
      vertex 1.48445 -5.07776 4
      vertex 0.917633 -6.25414 4
      vertex 1.80641 -6.11453 4
    endloop
  endfacet
  facet normal -0 0 1
    outer loop
      vertex 0.75322 -5.16187 4
      vertex 0.917633 -6.25414 4
      vertex 1.48445 -5.07776 4
    endloop
  endfacet
  facet normal 0 0 1
    outer loop
      vertex -0.10083 -6.30067 4
      vertex 0.75322 -5.16187 4
      vertex -0.10083 -5.1899 4
    endloop
  endfacet
  facet normal 0 0 1
    outer loop
      vertex 0.75322 -5.16187 4
      vertex -0.10083 -6.30067 4
      vertex 0.917633 -6.25414 4
    endloop
  endfacet
  facet normal 0 0 1
    outer loop
      vertex -0.977386 -5.16225 4
      vertex -0.10083 -6.30067 4
      vertex -0.10083 -5.1899 4
    endloop
  endfacet
  facet normal 0 0 1
    outer loop
      vertex -0.977386 -5.16225 4
      vertex -1.13913 -6.25548 4
      vertex -0.10083 -6.30067 4
    endloop
  endfacet
  facet normal 0 0 1
    outer loop
      vertex -1.72119 -5.07928 4
      vertex -1.13913 -6.25548 4
      vertex -0.977386 -5.16225 4
    endloop
  endfacet
  facet normal 0 0 1
    outer loop
      vertex -1.72119 -5.07928 4
      vertex -2.03859 -6.11987 4
      vertex -1.13913 -6.25548 4
    endloop
  endfacet
  facet normal 0 0 1
    outer loop
      vertex -2.33224 -4.94102 4
      vertex -2.03859 -6.11987 4
      vertex -1.72119 -5.07928 4
    endloop
  endfacet
  facet normal 0 0 1
    outer loop
      vertex -2.33224 -4.94102 4
      vertex -2.79918 -5.89386 4
      vertex -2.03859 -6.11987 4
    endloop
  endfacet
  facet normal 0 0 1
    outer loop
      vertex -2.81056 -4.74745 4
      vertex -2.79918 -5.89386 4
      vertex -2.33224 -4.94102 4
    endloop
  endfacet
  facet normal 0 0 1
    outer loop
      vertex -3.42094 -5.57744 4
      vertex -2.81056 -4.74745 4
      vertex -3.17104 -4.49052 4
    endloop
  endfacet
  facet normal 0 0 1
    outer loop
      vertex -2.81056 -4.74745 4
      vertex -3.42094 -5.57744 4
      vertex -2.79918 -5.89386 4
    endloop
  endfacet
  facet normal 0 0 1
    outer loop
      vertex -4.24944 -4.64441 4
      vertex -3.17104 -4.49052 4
      vertex -3.42851 -4.16228 4
    endloop
  endfacet
  facet normal -0 0 1
    outer loop
      vertex -4.45656 -4.02055 4
      vertex -3.42851 -4.16228 4
      vertex -3.58301 -3.7627 4
    endloop
  endfacet
  facet normal -0 0 1
    outer loop
      vertex -4.5256 -3.29179 4
      vertex -3.58301 -3.7627 4
      vertex -3.63451 -3.29179 4
    endloop
  endfacet
  facet normal 0 0 1
    outer loop
      vertex -3.42548 -2.44273 4
      vertex -4.4558 -2.58176 4
      vertex -3.58224 -2.83237 4
    endloop
  endfacet
  facet normal 0 0 1
    outer loop
      vertex -3.58301 -3.7627 4
      vertex -4.5256 -3.29179 4
      vertex -4.45656 -4.02055 4
    endloop
  endfacet
  facet normal 0 0 1
    outer loop
      vertex -4.5256 -3.29179 4
      vertex -3.58224 -2.83237 4
      vertex -4.4558 -2.58176 4
    endloop
  endfacet
  facet normal 0 0 1
    outer loop
      vertex -3.42851 -4.16228 4
      vertex -4.45656 -4.02055 4
      vertex -4.24944 -4.64441 4
    endloop
  endfacet
  facet normal 0 0 1
    outer loop
      vertex -3.58224 -2.83237 4
      vertex -4.5256 -3.29179 4
      vertex -3.63451 -3.29179 4
    endloop
  endfacet
  facet normal 0 0 1
    outer loop
      vertex -3.17104 -4.49052 4
      vertex -3.90422 -5.16338 4
      vertex -3.42094 -5.57744 4
    endloop
  endfacet
  facet normal 0 0 1
    outer loop
      vertex -3.17104 -4.49052 4
      vertex -4.24944 -4.64441 4
      vertex -3.90422 -5.16338 4
    endloop
  endfacet
  facet normal 0 0 1
    outer loop
      vertex 3.61179 -10.1859 4
      vertex 4.20187 -11.3502 4
      vertex 4.20187 -10.2029 4
    endloop
  endfacet
  facet normal 0 0 1
    outer loop
      vertex 3.61179 -10.1859 4
      vertex 3.3671 -11.3065 4
      vertex 4.20187 -11.3502 4
    endloop
  endfacet
  facet normal 0 0 1
    outer loop
      vertex 3.03162 -10.135 4
      vertex 3.3671 -11.3065 4
      vertex 3.61179 -10.1859 4
    endloop
  endfacet
  facet normal 0 0 1
    outer loop
      vertex 3.03162 -10.135 4
      vertex 2.51056 -11.1755 4
      vertex 3.3671 -11.3065 4
    endloop
  endfacet
  facet normal 0 0 1
    outer loop
      vertex 2.46136 -10.0501 4
      vertex 2.51056 -11.1755 4
      vertex 3.03162 -10.135 4
    endloop
  endfacet
  facet normal 0 0 1
    outer loop
      vertex 1.63229 -10.9571 4
      vertex 2.46136 -10.0501 4
      vertex 1.90102 -9.93124 4
    endloop
  endfacet
  facet normal 0 0 1
    outer loop
      vertex 2.46136 -10.0501 4
      vertex 1.63229 -10.9571 4
      vertex 2.51056 -11.1755 4
    endloop
  endfacet
  facet normal 0 0 1
    outer loop
      vertex 1.34372 -9.77846 4
      vertex 1.63229 -10.9571 4
      vertex 1.90102 -9.93124 4
    endloop
  endfacet
  facet normal 0 0 1
    outer loop
      vertex 0.732285 -10.6514 4
      vertex 1.34372 -9.77846 4
      vertex 0.782608 -9.59174 4
    endloop
  endfacet
  facet normal 0 0 1
    outer loop
      vertex 1.34372 -9.77846 4
      vertex 0.732285 -10.6514 4
      vertex 1.63229 -10.9571 4
    endloop
  endfacet
  facet normal 0 0 1
    outer loop
      vertex -0.21312 -10.2435 4
      vertex 0.782608 -9.59174 4
      vertex 0.217682 -9.37108 4
    endloop
  endfacet
  facet normal 0 0 1
    outer loop
      vertex 0.782608 -9.59174 4
      vertex -0.21312 -10.2435 4
      vertex 0.732285 -10.6514 4
    endloop
  endfacet
  facet normal 0 0 1
    outer loop
      vertex -0.351044 -9.11647 4
      vertex -0.21312 -10.2435 4
      vertex 0.217682 -9.37108 4
    endloop
  endfacet
  facet normal 0 0 1
    outer loop
      vertex -1.22758 -9.7184 4
      vertex -0.351044 -9.11647 4
      vertex -0.976227 -8.79645 4
    endloop
  endfacet
  facet normal 0 0 1
    outer loop
      vertex -0.351044 -9.11647 4
      vertex -1.22758 -9.7184 4
      vertex -0.21312 -10.2435 4
    endloop
  endfacet
  facet normal 0 0 1
    outer loop
      vertex -2.31111 -9.07625 4
      vertex -0.976227 -8.79645 4
      vertex -1.71051 -8.37953 4
    endloop
  endfacet
  facet normal 0 0 1
    outer loop
      vertex -0.976227 -8.79645 4
      vertex -2.31111 -9.07625 4
      vertex -1.22758 -9.7184 4
    endloop
  endfacet
  facet normal 0 0 1
    outer loop
      vertex -2.55388 -7.86572 4
      vertex -2.31111 -9.07625 4
      vertex -1.71051 -8.37953 4
    endloop
  endfacet
  facet normal 0 0 1
    outer loop
      vertex -2.55388 -7.86572 4
      vertex -3.46368 -8.317 4
      vertex -2.31111 -9.07625 4
    endloop
  endfacet
  facet normal 0 0 1
    outer loop
      vertex -3.50635 -7.255 4
      vertex -3.46368 -8.317 4
      vertex -2.55388 -7.86572 4
    endloop
  endfacet
  facet normal -0 0 1
    outer loop
      vertex -4.39743 -7.255 4
      vertex -3.46368 -8.317 4
      vertex -3.50635 -7.255 4
    endloop
  endfacet
  facet normal 0 0 1
    outer loop
      vertex -4.39743 -12.9371 4
      vertex -3.46368 -8.317 4
      vertex -4.39743 -7.255 4
    endloop
  endfacet
  facet normal 0 0 1
    outer loop
      vertex -3.46368 -8.317 4
      vertex -4.39743 -12.9371 4
      vertex -3.46368 -12.9371 4
    endloop
  endfacet
  facet normal -0.943485 -0.331416 0
    outer loop
      vertex 4.25296 -2.63213 4
      vertex 4.04012 -2.02621 4.5
      vertex 4.04012 -2.02621 4
    endloop
  endfacet
  facet normal -0.943485 -0.331416 0
    outer loop
      vertex 4.04012 -2.02621 4.5
      vertex 4.25296 -2.63213 4
      vertex 4.25296 -2.63213 4.5
    endloop
  endfacet
  facet normal -0.823783 -0.566906 0
    outer loop
      vertex 4.04012 -2.02621 4
      vertex 3.68538 -1.51073 4.5
      vertex 3.68538 -1.51073 4
    endloop
  endfacet
  facet normal -0.823783 -0.566906 0
    outer loop
      vertex 3.68538 -1.51073 4.5
      vertex 4.04012 -2.02621 4
      vertex 4.04012 -2.02621 4.5
    endloop
  endfacet
  facet normal -0.65027 -0.759703 0
    outer loop
      vertex 3.18874 -1.08563 4
      vertex 3.68538 -1.51073 4.5
      vertex 3.18874 -1.08563 4.5
    endloop
  endfacet
  facet normal -0.65027 -0.759703 -0
    outer loop
      vertex 3.68538 -1.51073 4.5
      vertex 3.18874 -1.08563 4
      vertex 3.68538 -1.51073 4
    endloop
  endfacet
  facet normal -0.465947 -0.884812 0
    outer loop
      vertex 2.55745 -0.753189 4
      vertex 3.18874 -1.08563 4.5
      vertex 2.55745 -0.753189 4.5
    endloop
  endfacet
  facet normal -0.465947 -0.884812 -0
    outer loop
      vertex 3.18874 -1.08563 4.5
      vertex 2.55745 -0.753189 4
      vertex 3.18874 -1.08563 4
    endloop
  endfacet
  facet normal -0.298691 -0.95435 0
    outer loop
      vertex 1.79875 -0.515732 4
      vertex 2.55745 -0.753189 4.5
      vertex 1.79875 -0.515732 4.5
    endloop
  endfacet
  facet normal -0.298691 -0.95435 -0
    outer loop
      vertex 2.55745 -0.753189 4.5
      vertex 1.79875 -0.515732 4
      vertex 2.55745 -0.753189 4
    endloop
  endfacet
  facet normal -0.158764 -0.987316 0
    outer loop
      vertex 0.912659 -0.373245 4
      vertex 1.79875 -0.515732 4.5
      vertex 0.912659 -0.373245 4.5
    endloop
  endfacet
  facet normal -0.158764 -0.987316 -0
    outer loop
      vertex 1.79875 -0.515732 4.5
      vertex 0.912659 -0.373245 4
      vertex 1.79875 -0.515732 4
    endloop
  endfacet
  facet normal -0.0468017 -0.998904 0
    outer loop
      vertex -0.10083 -0.32576 4
      vertex 0.912659 -0.373245 4.5
      vertex -0.10083 -0.32576 4.5
    endloop
  endfacet
  facet normal -0.0468017 -0.998904 -0
    outer loop
      vertex 0.912659 -0.373245 4.5
      vertex -0.10083 -0.32576 4
      vertex 0.912659 -0.373245 4
    endloop
  endfacet
  facet normal 0.0439055 -0.999036 0
    outer loop
      vertex -1.12923 -0.370956 4
      vertex -0.10083 -0.32576 4.5
      vertex -1.12923 -0.370956 4.5
    endloop
  endfacet
  facet normal 0.0439055 -0.999036 0
    outer loop
      vertex -0.10083 -0.32576 4.5
      vertex -1.12923 -0.370956 4
      vertex -0.10083 -0.32576 4
    endloop
  endfacet
  facet normal 0.149952 -0.988693 0
    outer loop
      vertex -2.02333 -0.506561 4
      vertex -1.12923 -0.370956 4.5
      vertex -2.02333 -0.506561 4.5
    endloop
  endfacet
  facet normal 0.149952 -0.988693 0
    outer loop
      vertex -1.12923 -0.370956 4.5
      vertex -2.02333 -0.506561 4
      vertex -1.12923 -0.370956 4
    endloop
  endfacet
  facet normal 0.285107 -0.958496 0
    outer loop
      vertex -2.78316 -0.732574 4
      vertex -2.02333 -0.506561 4.5
      vertex -2.78316 -0.732574 4.5
    endloop
  endfacet
  facet normal 0.285107 -0.958496 0
    outer loop
      vertex -2.02333 -0.506561 4.5
      vertex -2.78316 -0.732574 4
      vertex -2.02333 -0.506561 4
    endloop
  endfacet
  facet normal 0.451387 -0.892328 0
    outer loop
      vertex -3.40869 -1.049 4
      vertex -2.78316 -0.732574 4.5
      vertex -3.40869 -1.049 4.5
    endloop
  endfacet
  facet normal 0.451387 -0.892328 0
    outer loop
      vertex -2.78316 -0.732574 4.5
      vertex -3.40869 -1.049 4
      vertex -2.78316 -0.732574 4
    endloop
  endfacet
  facet normal 0.644012 -0.765015 0
    outer loop
      vertex -3.89734 -1.46036 4
      vertex -3.40869 -1.049 4.5
      vertex -3.89734 -1.46036 4.5
    endloop
  endfacet
  facet normal 0.644012 -0.765015 0
    outer loop
      vertex -3.40869 -1.049 4.5
      vertex -3.89734 -1.46036 4
      vertex -3.40869 -1.049 4
    endloop
  endfacet
  facet normal 0.825714 -0.564089 0
    outer loop
      vertex -4.24637 -1.97127 4.5
      vertex -3.89734 -1.46036 4
      vertex -3.89734 -1.46036 4.5
    endloop
  endfacet
  facet normal 0.825714 -0.564089 0
    outer loop
      vertex -3.89734 -1.46036 4
      vertex -4.24637 -1.97127 4.5
      vertex -4.24637 -1.97127 4
    endloop
  endfacet
  facet normal 0.945889 -0.32449 0
    outer loop
      vertex -4.4558 -2.58176 4.5
      vertex -4.24637 -1.97127 4
      vertex -4.24637 -1.97127 4.5
    endloop
  endfacet
  facet normal 0.945889 -0.32449 0
    outer loop
      vertex -4.24637 -1.97127 4
      vertex -4.4558 -2.58176 4.5
      vertex -4.4558 -2.58176 4
    endloop
  endfacet
  facet normal 0.995203 -0.0978341 0
    outer loop
      vertex -4.5256 -3.29179 4.5
      vertex -4.4558 -2.58176 4
      vertex -4.4558 -2.58176 4.5
    endloop
  endfacet
  facet normal 0.995203 -0.0978341 0
    outer loop
      vertex -4.4558 -2.58176 4
      vertex -4.5256 -3.29179 4.5
      vertex -4.5256 -3.29179 4
    endloop
  endfacet
  facet normal 0.995543 0.094314 0
    outer loop
      vertex -4.45656 -4.02055 4.5
      vertex -4.5256 -3.29179 4
      vertex -4.5256 -3.29179 4.5
    endloop
  endfacet
  facet normal 0.995543 0.094314 0
    outer loop
      vertex -4.5256 -3.29179 4
      vertex -4.45656 -4.02055 4.5
      vertex -4.45656 -4.02055 4
    endloop
  endfacet
  facet normal 0.949063 0.315087 0
    outer loop
      vertex -4.24944 -4.64441 4.5
      vertex -4.45656 -4.02055 4
      vertex -4.45656 -4.02055 4.5
    endloop
  endfacet
  facet normal 0.949063 0.315087 0
    outer loop
      vertex -4.45656 -4.02055 4
      vertex -4.24944 -4.64441 4.5
      vertex -4.24944 -4.64441 4
    endloop
  endfacet
  facet normal 0.832613 0.553856 0
    outer loop
      vertex -3.90422 -5.16338 4.5
      vertex -4.24944 -4.64441 4
      vertex -4.24944 -4.64441 4.5
    endloop
  endfacet
  facet normal 0.832613 0.553856 0
    outer loop
      vertex -4.24944 -4.64441 4
      vertex -3.90422 -5.16338 4.5
      vertex -3.90422 -5.16338 4
    endloop
  endfacet
  facet normal 0.650628 0.759396 -0
    outer loop
      vertex -3.42094 -5.57744 4
      vertex -3.90422 -5.16338 4.5
      vertex -3.42094 -5.57744 4.5
    endloop
  endfacet
  facet normal 0.650628 0.759396 0
    outer loop
      vertex -3.90422 -5.16338 4.5
      vertex -3.42094 -5.57744 4
      vertex -3.90422 -5.16338 4
    endloop
  endfacet
  facet normal 0.453555 0.891228 -0
    outer loop
      vertex -2.79918 -5.89386 4
      vertex -3.42094 -5.57744 4.5
      vertex -2.79918 -5.89386 4.5
    endloop
  endfacet
  facet normal 0.453555 0.891228 0
    outer loop
      vertex -3.42094 -5.57744 4.5
      vertex -2.79918 -5.89386 4
      vertex -3.42094 -5.57744 4
    endloop
  endfacet
  facet normal 0.284841 0.958575 -0
    outer loop
      vertex -2.03859 -6.11987 4
      vertex -2.79918 -5.89386 4.5
      vertex -2.03859 -6.11987 4.5
    endloop
  endfacet
  facet normal 0.284841 0.958575 0
    outer loop
      vertex -2.79918 -5.89386 4.5
      vertex -2.03859 -6.11987 4
      vertex -2.79918 -5.89386 4
    endloop
  endfacet
  facet normal 0.149083 0.988825 -0
    outer loop
      vertex -1.13913 -6.25548 4
      vertex -2.03859 -6.11987 4.5
      vertex -1.13913 -6.25548 4.5
    endloop
  endfacet
  facet normal 0.149083 0.988825 0
    outer loop
      vertex -2.03859 -6.11987 4.5
      vertex -1.13913 -6.25548 4
      vertex -2.03859 -6.11987 4
    endloop
  endfacet
  facet normal 0.0434819 0.999054 -0
    outer loop
      vertex -0.10083 -6.30067 4
      vertex -1.13913 -6.25548 4.5
      vertex -0.10083 -6.30067 4.5
    endloop
  endfacet
  facet normal 0.0434819 0.999054 0
    outer loop
      vertex -1.13913 -6.25548 4.5
      vertex -0.10083 -6.30067 4
      vertex -1.13913 -6.25548 4
    endloop
  endfacet
  facet normal -0.0456389 0.998958 0
    outer loop
      vertex 0.917633 -6.25414 4
      vertex -0.10083 -6.30067 4.5
      vertex 0.917633 -6.25414 4.5
    endloop
  endfacet
  facet normal -0.0456389 0.998958 0
    outer loop
      vertex -0.10083 -6.30067 4.5
      vertex 0.917633 -6.25414 4
      vertex -0.10083 -6.30067 4
    endloop
  endfacet
  facet normal -0.155178 0.987886 0
    outer loop
      vertex 1.80641 -6.11453 4
      vertex 0.917633 -6.25414 4.5
      vertex 1.80641 -6.11453 4.5
    endloop
  endfacet
  facet normal -0.155178 0.987886 0
    outer loop
      vertex 0.917633 -6.25414 4.5
      vertex 1.80641 -6.11453 4
      vertex 0.917633 -6.25414 4
    endloop
  endfacet
  facet normal -0.293073 0.95609 0
    outer loop
      vertex 2.56548 -5.88185 4
      vertex 1.80641 -6.11453 4.5
      vertex 2.56548 -5.88185 4.5
    endloop
  endfacet
  facet normal -0.293073 0.95609 0
    outer loop
      vertex 1.80641 -6.11453 4.5
      vertex 2.56548 -5.88185 4
      vertex 1.80641 -6.11453 4
    endloop
  endfacet
  facet normal -0.45965 0.8881 0
    outer loop
      vertex 3.19485 -5.55611 4
      vertex 2.56548 -5.88185 4.5
      vertex 3.19485 -5.55611 4.5
    endloop
  endfacet
  facet normal -0.45965 0.8881 0
    outer loop
      vertex 2.56548 -5.88185 4.5
      vertex 3.19485 -5.55611 4
      vertex 2.56548 -5.88185 4
    endloop
  endfacet
  facet normal -0.646378 0.763018 0
    outer loop
      vertex 3.68881 -5.13766 4
      vertex 3.19485 -5.55611 4.5
      vertex 3.68881 -5.13766 4.5
    endloop
  endfacet
  facet normal -0.646378 0.763018 0
    outer loop
      vertex 3.19485 -5.55611 4.5
      vertex 3.68881 -5.13766 4
      vertex 3.19485 -5.55611 4
    endloop
  endfacet
  facet normal -0.822769 0.568375 0
    outer loop
      vertex 3.68881 -5.13766 4
      vertex 4.04164 -4.62691 4.5
      vertex 4.04164 -4.62691 4
    endloop
  endfacet
  facet normal -0.822769 0.568375 0
    outer loop
      vertex 4.04164 -4.62691 4.5
      vertex 3.68881 -5.13766 4
      vertex 3.68881 -5.13766 4.5
    endloop
  endfacet
  facet normal -0.943556 0.331212 0
    outer loop
      vertex 4.04164 -4.62691 4
      vertex 4.25334 -4.02382 4.5
      vertex 4.25334 -4.02382 4
    endloop
  endfacet
  facet normal -0.943556 0.331212 0
    outer loop
      vertex 4.25334 -4.02382 4.5
      vertex 4.04164 -4.62691 4
      vertex 4.04164 -4.62691 4.5
    endloop
  endfacet
  facet normal -0.99489 0.100964 0
    outer loop
      vertex 4.25334 -4.02382 4
      vertex 4.32391 -3.32843 4.5
      vertex 4.32391 -3.32843 4
    endloop
  endfacet
  facet normal -0.99489 0.100964 0
    outer loop
      vertex 4.32391 -3.32843 4.5
      vertex 4.25334 -4.02382 4
      vertex 4.25334 -4.02382 4.5
    endloop
  endfacet
  facet normal -0.994849 -0.101371 0
    outer loop
      vertex 4.32391 -3.32843 4
      vertex 4.25296 -2.63213 4.5
      vertex 4.25296 -2.63213 4
    endloop
  endfacet
  facet normal -0.994849 -0.101371 0
    outer loop
      vertex 4.25296 -2.63213 4.5
      vertex 4.32391 -3.32843 4
      vertex 4.32391 -3.32843 4.5
    endloop
  endfacet
  facet normal 0.925711 -0.378232 0
    outer loop
      vertex 3.21471 -4.1608 4.5
      vertex 3.37376 -3.77153 4
      vertex 3.37376 -3.77153 4.5
    endloop
  endfacet
  facet normal 0.925711 -0.378232 0
    outer loop
      vertex 3.37376 -3.77153 4
      vertex 3.21471 -4.1608 4.5
      vertex 3.21471 -4.1608 4
    endloop
  endfacet
  facet normal 0.773215 -0.634144 0
    outer loop
      vertex 2.9496 -4.48405 4.5
      vertex 3.21471 -4.1608 4
      vertex 3.21471 -4.1608 4.5
    endloop
  endfacet
  facet normal 0.773215 -0.634144 0
    outer loop
      vertex 3.21471 -4.1608 4
      vertex 2.9496 -4.48405 4.5
      vertex 2.9496 -4.48405 4
    endloop
  endfacet
  facet normal 0.569704 -0.82185 0
    outer loop
      vertex 2.57845 -4.74133 4
      vertex 2.9496 -4.48405 4.5
      vertex 2.57845 -4.74133 4.5
    endloop
  endfacet
  facet normal 0.569704 -0.82185 0
    outer loop
      vertex 2.9496 -4.48405 4.5
      vertex 2.57845 -4.74133 4
      vertex 2.9496 -4.48405 4
    endloop
  endfacet
  facet normal 0.374703 -0.927145 0
    outer loop
      vertex 2.09286 -4.93758 4
      vertex 2.57845 -4.74133 4.5
      vertex 2.09286 -4.93758 4.5
    endloop
  endfacet
  facet normal 0.374703 -0.927145 0
    outer loop
      vertex 2.57845 -4.74133 4.5
      vertex 2.09286 -4.93758 4
      vertex 2.57845 -4.74133 4
    endloop
  endfacet
  facet normal 0.224521 -0.974469 0
    outer loop
      vertex 1.48445 -5.07776 4
      vertex 2.09286 -4.93758 4.5
      vertex 1.48445 -5.07776 4.5
    endloop
  endfacet
  facet normal 0.224521 -0.974469 0
    outer loop
      vertex 2.09286 -4.93758 4.5
      vertex 1.48445 -5.07776 4
      vertex 2.09286 -4.93758 4
    endloop
  endfacet
  facet normal 0.114272 -0.99345 0
    outer loop
      vertex 0.75322 -5.16187 4
      vertex 1.48445 -5.07776 4.5
      vertex 0.75322 -5.16187 4.5
    endloop
  endfacet
  facet normal 0.114272 -0.99345 0
    outer loop
      vertex 1.48445 -5.07776 4.5
      vertex 0.75322 -5.16187 4
      vertex 1.48445 -5.07776 4
    endloop
  endfacet
  facet normal 0.0328024 -0.999462 0
    outer loop
      vertex -0.10083 -5.1899 4
      vertex 0.75322 -5.16187 4.5
      vertex -0.10083 -5.1899 4.5
    endloop
  endfacet
  facet normal 0.0328024 -0.999462 0
    outer loop
      vertex 0.75322 -5.16187 4.5
      vertex -0.10083 -5.1899 4
      vertex 0.75322 -5.16187 4
    endloop
  endfacet
  facet normal -0.0315282 -0.999503 0
    outer loop
      vertex -0.977386 -5.16225 4
      vertex -0.10083 -5.1899 4.5
      vertex -0.977386 -5.16225 4.5
    endloop
  endfacet
  facet normal -0.0315282 -0.999503 -0
    outer loop
      vertex -0.10083 -5.1899 4.5
      vertex -0.977386 -5.16225 4
      vertex -0.10083 -5.1899 4
    endloop
  endfacet
  facet normal -0.110861 -0.993836 0
    outer loop
      vertex -1.72119 -5.07928 4
      vertex -0.977386 -5.16225 4.5
      vertex -1.72119 -5.07928 4.5
    endloop
  endfacet
  facet normal -0.110861 -0.993836 -0
    outer loop
      vertex -0.977386 -5.16225 4.5
      vertex -1.72119 -5.07928 4
      vertex -0.977386 -5.16225 4
    endloop
  endfacet
  facet normal -0.220688 -0.975345 0
    outer loop
      vertex -2.33224 -4.94102 4
      vertex -1.72119 -5.07928 4.5
      vertex -2.33224 -4.94102 4.5
    endloop
  endfacet
  facet normal -0.220688 -0.975345 -0
    outer loop
      vertex -1.72119 -5.07928 4.5
      vertex -2.33224 -4.94102 4
      vertex -1.72119 -5.07928 4
    endloop
  endfacet
  facet normal -0.375133 -0.926971 0
    outer loop
      vertex -2.81056 -4.74745 4
      vertex -2.33224 -4.94102 4.5
      vertex -2.81056 -4.74745 4.5
    endloop
  endfacet
  facet normal -0.375133 -0.926971 -0
    outer loop
      vertex -2.33224 -4.94102 4.5
      vertex -2.81056 -4.74745 4
      vertex -2.33224 -4.94102 4
    endloop
  endfacet
  facet normal -0.580407 -0.814327 0
    outer loop
      vertex -3.17104 -4.49052 4
      vertex -2.81056 -4.74745 4.5
      vertex -3.17104 -4.49052 4.5
    endloop
  endfacet
  facet normal -0.580407 -0.814327 -0
    outer loop
      vertex -2.81056 -4.74745 4.5
      vertex -3.17104 -4.49052 4
      vertex -2.81056 -4.74745 4
    endloop
  endfacet
  facet normal -0.786822 -0.61718 0
    outer loop
      vertex -3.17104 -4.49052 4
      vertex -3.42851 -4.16228 4.5
      vertex -3.42851 -4.16228 4
    endloop
  endfacet
  facet normal -0.786822 -0.61718 0
    outer loop
      vertex -3.42851 -4.16228 4.5
      vertex -3.17104 -4.49052 4
      vertex -3.17104 -4.49052 4.5
    endloop
  endfacet
  facet normal -0.932706 -0.360637 0
    outer loop
      vertex -3.42851 -4.16228 4
      vertex -3.58301 -3.7627 4.5
      vertex -3.58301 -3.7627 4
    endloop
  endfacet
  facet normal -0.932706 -0.360637 0
    outer loop
      vertex -3.58301 -3.7627 4.5
      vertex -3.42851 -4.16228 4
      vertex -3.42851 -4.16228 4.5
    endloop
  endfacet
  facet normal -0.994073 -0.108715 0
    outer loop
      vertex -3.58301 -3.7627 4
      vertex -3.63451 -3.29179 4.5
      vertex -3.63451 -3.29179 4
    endloop
  endfacet
  facet normal -0.994073 -0.108715 0
    outer loop
      vertex -3.63451 -3.29179 4.5
      vertex -3.58301 -3.7627 4
      vertex -3.58301 -3.7627 4.5
    endloop
  endfacet
  facet normal -0.99359 0.113045 0
    outer loop
      vertex -3.63451 -3.29179 4
      vertex -3.58224 -2.83237 4.5
      vertex -3.58224 -2.83237 4
    endloop
  endfacet
  facet normal -0.99359 0.113045 0
    outer loop
      vertex -3.58224 -2.83237 4.5
      vertex -3.63451 -3.29179 4
      vertex -3.63451 -3.29179 4.5
    endloop
  endfacet
  facet normal -0.927733 0.373245 0
    outer loop
      vertex -3.58224 -2.83237 4
      vertex -3.42548 -2.44273 4.5
      vertex -3.42548 -2.44273 4
    endloop
  endfacet
  facet normal -0.927733 0.373245 0
    outer loop
      vertex -3.42548 -2.44273 4.5
      vertex -3.58224 -2.83237 4
      vertex -3.58224 -2.83237 4.5
    endloop
  endfacet
  facet normal -0.77444 0.632647 0
    outer loop
      vertex -3.42548 -2.44273 4
      vertex -3.1642 -2.12289 4.5
      vertex -3.1642 -2.12289 4
    endloop
  endfacet
  facet normal -0.77444 0.632647 0
    outer loop
      vertex -3.1642 -2.12289 4.5
      vertex -3.42548 -2.44273 4
      vertex -3.42548 -2.44273 4.5
    endloop
  endfacet
  facet normal -0.564293 0.825575 0
    outer loop
      vertex -2.7984 -1.87286 4
      vertex -3.1642 -2.12289 4.5
      vertex -2.7984 -1.87286 4.5
    endloop
  endfacet
  facet normal -0.564293 0.825575 0
    outer loop
      vertex -3.1642 -2.12289 4.5
      vertex -2.7984 -1.87286 4
      vertex -3.1642 -2.12289 4
    endloop
  endfacet
  facet normal -0.36373 0.931505 0
    outer loop
      vertex -2.31627 -1.6846 4
      vertex -2.7984 -1.87286 4.5
      vertex -2.31627 -1.6846 4.5
    endloop
  endfacet
  facet normal -0.36373 0.931505 0
    outer loop
      vertex -2.7984 -1.87286 4.5
      vertex -2.31627 -1.6846 4
      vertex -2.7984 -1.87286 4
    endloop
  endfacet
  facet normal -0.215155 0.97658 0
    outer loop
      vertex -1.70596 -1.55014 4
      vertex -2.31627 -1.6846 4.5
      vertex -1.70596 -1.55014 4.5
    endloop
  endfacet
  facet normal -0.215155 0.97658 0
    outer loop
      vertex -2.31627 -1.6846 4.5
      vertex -1.70596 -1.55014 4
      vertex -2.31627 -1.6846 4
    endloop
  endfacet
  facet normal -0.108592 0.994086 0
    outer loop
      vertex -0.967484 -1.46947 4
      vertex -1.70596 -1.55014 4.5
      vertex -0.967484 -1.46947 4.5
    endloop
  endfacet
  facet normal -0.108592 0.994086 0
    outer loop
      vertex -1.70596 -1.55014 4.5
      vertex -0.967484 -1.46947 4
      vertex -1.70596 -1.55014 4
    endloop
  endfacet
  facet normal -0.031024 0.999519 0
    outer loop
      vertex -0.10083 -1.44257 4
      vertex -0.967484 -1.46947 4.5
      vertex -0.10083 -1.44257 4.5
    endloop
  endfacet
  facet normal -0.031024 0.999519 0
    outer loop
      vertex -0.967484 -1.46947 4.5
      vertex -0.10083 -1.44257 4
      vertex -0.967484 -1.46947 4
    endloop
  endfacet
  facet normal 0.0336094 0.999435 -0
    outer loop
      vertex 0.738342 -1.47079 4
      vertex -0.10083 -1.44257 4.5
      vertex 0.738342 -1.47079 4.5
    endloop
  endfacet
  facet normal 0.0336094 0.999435 0
    outer loop
      vertex -0.10083 -1.44257 4.5
      vertex 0.738342 -1.47079 4
      vertex -0.10083 -1.44257 4
    endloop
  endfacet
  facet normal 0.116293 0.993215 -0
    outer loop
      vertex 1.46156 -1.55547 4
      vertex 0.738342 -1.47079 4.5
      vertex 1.46156 -1.55547 4.5
    endloop
  endfacet
  facet normal 0.116293 0.993215 0
    outer loop
      vertex 0.738342 -1.47079 4.5
      vertex 1.46156 -1.55547 4
      vertex 0.738342 -1.47079 4
    endloop
  endfacet
  facet normal 0.226376 0.97404 -0
    outer loop
      vertex 2.06885 -1.69661 4
      vertex 1.46156 -1.55547 4.5
      vertex 2.06885 -1.69661 4.5
    endloop
  endfacet
  facet normal 0.226376 0.97404 0
    outer loop
      vertex 1.46156 -1.55547 4.5
      vertex 2.06885 -1.69661 4
      vertex 1.46156 -1.55547 4
    endloop
  endfacet
  facet normal 0.37308 0.927799 -0
    outer loop
      vertex 2.56018 -1.89418 4
      vertex 2.06885 -1.69661 4.5
      vertex 2.56018 -1.89418 4.5
    endloop
  endfacet
  facet normal 0.37308 0.927799 0
    outer loop
      vertex 2.06885 -1.69661 4.5
      vertex 2.56018 -1.89418 4
      vertex 2.06885 -1.69661 4
    endloop
  endfacet
  facet normal 0.562943 0.826496 -0
    outer loop
      vertex 2.93932 -2.15242 4
      vertex 2.56018 -1.89418 4.5
      vertex 2.93932 -2.15242 4.5
    endloop
  endfacet
  facet normal 0.562943 0.826496 0
    outer loop
      vertex 2.56018 -1.89418 4.5
      vertex 2.93932 -2.15242 4
      vertex 2.56018 -1.89418 4
    endloop
  endfacet
  facet normal 0.766398 0.642366 0
    outer loop
      vertex 3.21013 -2.47552 4.5
      vertex 2.93932 -2.15242 4
      vertex 2.93932 -2.15242 4.5
    endloop
  endfacet
  facet normal 0.766398 0.642366 0
    outer loop
      vertex 2.93932 -2.15242 4
      vertex 3.21013 -2.47552 4.5
      vertex 3.21013 -2.47552 4
    endloop
  endfacet
  facet normal 0.922359 0.386333 0
    outer loop
      vertex 3.37262 -2.86346 4.5
      vertex 3.21013 -2.47552 4
      vertex 3.21013 -2.47552 4.5
    endloop
  endfacet
  facet normal 0.922359 0.386333 0
    outer loop
      vertex 3.21013 -2.47552 4
      vertex 3.37262 -2.86346 4.5
      vertex 3.37262 -2.86346 4
    endloop
  endfacet
  facet normal 0.99292 0.118781 0
    outer loop
      vertex 3.42679 -3.31628 4.5
      vertex 3.37262 -2.86346 4
      vertex 3.37262 -2.86346 4.5
    endloop
  endfacet
  facet normal 0.99292 0.118781 0
    outer loop
      vertex 3.37262 -2.86346 4
      vertex 3.42679 -3.31628 4.5
      vertex 3.42679 -3.31628 4
    endloop
  endfacet
  facet normal 0.993284 -0.115703 0
    outer loop
      vertex 3.37376 -3.77153 4.5
      vertex 3.42679 -3.31628 4
      vertex 3.42679 -3.31628 4.5
    endloop
  endfacet
  facet normal 0.993284 -0.115703 0
    outer loop
      vertex 3.42679 -3.31628 4
      vertex 3.37376 -3.77153 4.5
      vertex 3.37376 -3.77153 4
    endloop
  endfacet
  facet normal -0.0873972 -0.996174 0
    outer loop
      vertex 3.03162 -10.135 4
      vertex 3.61179 -10.1859 4.5
      vertex 3.03162 -10.135 4.5
    endloop
  endfacet
  facet normal -0.0873972 -0.996174 -0
    outer loop
      vertex 3.61179 -10.1859 4.5
      vertex 3.03162 -10.135 4
      vertex 3.61179 -10.1859 4
    endloop
  endfacet
  facet normal -0.147256 -0.989098 0
    outer loop
      vertex 2.46136 -10.0501 4
      vertex 3.03162 -10.135 4.5
      vertex 2.46136 -10.0501 4.5
    endloop
  endfacet
  facet normal -0.147256 -0.989098 -0
    outer loop
      vertex 3.03162 -10.135 4.5
      vertex 2.46136 -10.0501 4
      vertex 3.03162 -10.135 4
    endloop
  endfacet
  facet normal -0.207504 -0.978234 0
    outer loop
      vertex 1.90102 -9.93124 4
      vertex 2.46136 -10.0501 4.5
      vertex 1.90102 -9.93124 4.5
    endloop
  endfacet
  facet normal -0.207504 -0.978234 -0
    outer loop
      vertex 2.46136 -10.0501 4.5
      vertex 1.90102 -9.93124 4
      vertex 2.46136 -10.0501 4
    endloop
  endfacet
  facet normal -0.264388 -0.964416 0
    outer loop
      vertex 1.34372 -9.77846 4
      vertex 1.90102 -9.93124 4.5
      vertex 1.34372 -9.77846 4.5
    endloop
  endfacet
  facet normal -0.264388 -0.964416 -0
    outer loop
      vertex 1.90102 -9.93124 4.5
      vertex 1.34372 -9.77846 4
      vertex 1.90102 -9.93124 4
    endloop
  endfacet
  facet normal -0.315745 -0.948844 0
    outer loop
      vertex 0.782608 -9.59174 4
      vertex 1.34372 -9.77846 4.5
      vertex 0.782608 -9.59174 4.5
    endloop
  endfacet
  facet normal -0.315745 -0.948844 -0
    outer loop
      vertex 1.34372 -9.77846 4.5
      vertex 0.782608 -9.59174 4
      vertex 1.34372 -9.77846 4
    endloop
  endfacet
  facet normal -0.36383 -0.931465 0
    outer loop
      vertex 0.217682 -9.37108 4
      vertex 0.782608 -9.59174 4.5
      vertex 0.217682 -9.37108 4.5
    endloop
  endfacet
  facet normal -0.36383 -0.931465 -0
    outer loop
      vertex 0.782608 -9.59174 4.5
      vertex 0.217682 -9.37108 4
      vertex 0.782608 -9.59174 4
    endloop
  endfacet
  facet normal -0.408607 -0.912711 0
    outer loop
      vertex -0.351044 -9.11647 4
      vertex 0.217682 -9.37108 4.5
      vertex -0.351044 -9.11647 4.5
    endloop
  endfacet
  facet normal -0.408607 -0.912711 -0
    outer loop
      vertex 0.217682 -9.37108 4.5
      vertex -0.351044 -9.11647 4
      vertex 0.217682 -9.37108 4
    endloop
  endfacet
  facet normal -0.455655 -0.890156 0
    outer loop
      vertex -0.976227 -8.79645 4
      vertex -0.351044 -9.11647 4.5
      vertex -0.976227 -8.79645 4.5
    endloop
  endfacet
  facet normal -0.455655 -0.890156 -0
    outer loop
      vertex -0.351044 -9.11647 4.5
      vertex -0.976227 -8.79645 4
      vertex -0.351044 -9.11647 4
    endloop
  endfacet
  facet normal -0.493753 -0.869602 0
    outer loop
      vertex -1.71051 -8.37953 4
      vertex -0.976227 -8.79645 4.5
      vertex -1.71051 -8.37953 4.5
    endloop
  endfacet
  facet normal -0.493753 -0.869602 -0
    outer loop
      vertex -0.976227 -8.79645 4.5
      vertex -1.71051 -8.37953 4
      vertex -0.976227 -8.79645 4
    endloop
  endfacet
  facet normal -0.520283 -0.853994 0
    outer loop
      vertex -2.55388 -7.86572 4
      vertex -1.71051 -8.37953 4.5
      vertex -2.55388 -7.86572 4.5
    endloop
  endfacet
  facet normal -0.520283 -0.853994 -0
    outer loop
      vertex -1.71051 -8.37953 4.5
      vertex -2.55388 -7.86572 4
      vertex -1.71051 -8.37953 4
    endloop
  endfacet
  facet normal -0.539768 -0.841814 0
    outer loop
      vertex -3.50635 -7.255 4
      vertex -2.55388 -7.86572 4.5
      vertex -3.50635 -7.255 4.5
    endloop
  endfacet
  facet normal -0.539768 -0.841814 -0
    outer loop
      vertex -2.55388 -7.86572 4.5
      vertex -3.50635 -7.255 4
      vertex -2.55388 -7.86572 4
    endloop
  endfacet
  facet normal 0 -1 0
    outer loop
      vertex -4.39743 -7.255 4
      vertex -3.50635 -7.255 4.5
      vertex -4.39743 -7.255 4.5
    endloop
  endfacet
  facet normal 0 -1 -0
    outer loop
      vertex -3.50635 -7.255 4.5
      vertex -4.39743 -7.255 4
      vertex -3.50635 -7.255 4
    endloop
  endfacet
  facet normal 1 -0 0
    outer loop
      vertex -4.39743 -12.9371 4.5
      vertex -4.39743 -7.255 4
      vertex -4.39743 -7.255 4.5
    endloop
  endfacet
  facet normal 1 0 0
    outer loop
      vertex -4.39743 -7.255 4
      vertex -4.39743 -12.9371 4.5
      vertex -4.39743 -12.9371 4
    endloop
  endfacet
  facet normal 0 1 -0
    outer loop
      vertex -3.46368 -12.9371 4
      vertex -4.39743 -12.9371 4.5
      vertex -3.46368 -12.9371 4.5
    endloop
  endfacet
  facet normal 0 1 0
    outer loop
      vertex -4.39743 -12.9371 4.5
      vertex -3.46368 -12.9371 4
      vertex -4.39743 -12.9371 4
    endloop
  endfacet
  facet normal -1 0 0
    outer loop
      vertex -3.46368 -12.9371 4
      vertex -3.46368 -8.317 4.5
      vertex -3.46368 -8.317 4
    endloop
  endfacet
  facet normal -1 -0 0
    outer loop
      vertex -3.46368 -8.317 4.5
      vertex -3.46368 -12.9371 4
      vertex -3.46368 -12.9371 4.5
    endloop
  endfacet
  facet normal 0.550112 0.835091 -0
    outer loop
      vertex -2.31111 -9.07625 4
      vertex -3.46368 -8.317 4.5
      vertex -2.31111 -9.07625 4.5
    endloop
  endfacet
  facet normal 0.550112 0.835091 0
    outer loop
      vertex -3.46368 -8.317 4.5
      vertex -2.31111 -9.07625 4
      vertex -3.46368 -8.317 4
    endloop
  endfacet
  facet normal 0.509837 0.860271 -0
    outer loop
      vertex -1.22758 -9.7184 4
      vertex -2.31111 -9.07625 4.5
      vertex -1.22758 -9.7184 4.5
    endloop
  endfacet
  facet normal 0.509837 0.860271 0
    outer loop
      vertex -2.31111 -9.07625 4.5
      vertex -1.22758 -9.7184 4
      vertex -2.31111 -9.07625 4
    endloop
  endfacet
  facet normal 0.459685 0.888082 -0
    outer loop
      vertex -0.21312 -10.2435 4
      vertex -1.22758 -9.7184 4.5
      vertex -0.21312 -10.2435 4.5
    endloop
  endfacet
  facet normal 0.459685 0.888082 0
    outer loop
      vertex -1.22758 -9.7184 4.5
      vertex -0.21312 -10.2435 4
      vertex -1.22758 -9.7184 4
    endloop
  endfacet
  facet normal 0.396155 0.918184 -0
    outer loop
      vertex 0.732285 -10.6514 4
      vertex -0.21312 -10.2435 4.5
      vertex 0.732285 -10.6514 4.5
    endloop
  endfacet
  facet normal 0.396155 0.918184 0
    outer loop
      vertex -0.21312 -10.2435 4.5
      vertex 0.732285 -10.6514 4
      vertex -0.21312 -10.2435 4
    endloop
  endfacet
  facet normal 0.321618 0.946869 -0
    outer loop
      vertex 1.63229 -10.9571 4
      vertex 0.732285 -10.6514 4.5
      vertex 1.63229 -10.9571 4.5
    endloop
  endfacet
  facet normal 0.321618 0.946869 0
    outer loop
      vertex 0.732285 -10.6514 4.5
      vertex 1.63229 -10.9571 4
      vertex 0.732285 -10.6514 4
    endloop
  endfacet
  facet normal 0.241321 0.970445 -0
    outer loop
      vertex 2.51056 -11.1755 4
      vertex 1.63229 -10.9571 4.5
      vertex 2.51056 -11.1755 4.5
    endloop
  endfacet
  facet normal 0.241321 0.970445 0
    outer loop
      vertex 1.63229 -10.9571 4.5
      vertex 2.51056 -11.1755 4
      vertex 1.63229 -10.9571 4
    endloop
  endfacet
  facet normal 0.151183 0.988506 -0
    outer loop
      vertex 3.3671 -11.3065 4
      vertex 2.51056 -11.1755 4.5
      vertex 3.3671 -11.3065 4.5
    endloop
  endfacet
  facet normal 0.151183 0.988506 0
    outer loop
      vertex 2.51056 -11.1755 4.5
      vertex 3.3671 -11.3065 4
      vertex 2.51056 -11.1755 4
    endloop
  endfacet
  facet normal 0.0522782 0.998633 -0
    outer loop
      vertex 4.20187 -11.3502 4
      vertex 3.3671 -11.3065 4.5
      vertex 4.20187 -11.3502 4.5
    endloop
  endfacet
  facet normal 0.0522782 0.998633 0
    outer loop
      vertex 3.3671 -11.3065 4.5
      vertex 4.20187 -11.3502 4
      vertex 3.3671 -11.3065 4
    endloop
  endfacet
  facet normal -1 0 0
    outer loop
      vertex 4.20187 -11.3502 4
      vertex 4.20187 -10.2029 4.5
      vertex 4.20187 -10.2029 4
    endloop
  endfacet
  facet normal -1 -0 0
    outer loop
      vertex 4.20187 -10.2029 4.5
      vertex 4.20187 -11.3502 4
      vertex 4.20187 -11.3502 4.5
    endloop
  endfacet
  facet normal -0.0287977 -0.999585 0
    outer loop
      vertex 3.61179 -10.1859 4
      vertex 4.20187 -10.2029 4.5
      vertex 3.61179 -10.1859 4.5
    endloop
  endfacet
  facet normal -0.0287977 -0.999585 -0
    outer loop
      vertex 4.20187 -10.2029 4.5
      vertex 3.61179 -10.1859 4
      vertex 4.20187 -10.2029 4
    endloop
  endfacet
endsolid OpenSCAD_Model
