solid OpenSCAD_Model
  facet normal -1 0 0
    outer loop
      vertex -9 8 -4.5
      vertex -9 20 4.5
      vertex -9 20 -4.5
    endloop
  endfacet
  facet normal -1 -0 0
    outer loop
      vertex -9 20 4.5
      vertex -9 8 -4.5
      vertex -9 8 4.5
    endloop
  endfacet
  facet normal 0 0 1
    outer loop
      vertex -0.599999 11.583 4.5
      vertex -0.848515 11.4395 4.5
      vertex -0.599999 11.4 4.5
    endloop
  endfacet
  facet normal -0 0 1
    outer loop
      vertex 1.80641 -6.11453 4.5
      vertex 2.25499 -6.99257 4.5
      vertex 2.56548 -5.88185 4.5
    endloop
  endfacet
  facet normal 0 0 1
    outer loop
      vertex 1.80641 -6.11453 4.5
      vertex 1.38829 -6.99257 4.5
      vertex 2.25499 -6.99257 4.5
    endloop
  endfacet
  facet normal -0 0 1
    outer loop
      vertex 0.917633 -6.25414 4.5
      vertex 1.38829 -6.99257 4.5
      vertex 1.80641 -6.11453 4.5
    endloop
  endfacet
  facet normal -0 0 1
    outer loop
      vertex -0.10083 -6.30067 4.5
      vertex 1.38829 -6.99257 4.5
      vertex 0.917633 -6.25414 4.5
    endloop
  endfacet
  facet normal 0 0 1
    outer loop
      vertex 1.38829 -6.99257 4.5
      vertex -0.10083 -6.30067 4.5
      vertex 1.38829 -8.20099 4.5
    endloop
  endfacet
  facet normal 0 0 1
    outer loop
      vertex -1.13913 -6.25548 4.5
      vertex 1.38829 -8.20099 4.5
      vertex -0.10083 -6.30067 4.5
    endloop
  endfacet
  facet normal 0 0 1
    outer loop
      vertex -4.39743 -8.20099 4.5
      vertex -1.13913 -6.25548 4.5
      vertex -2.03859 -6.11987 4.5
    endloop
  endfacet
  facet normal 0 0 1
    outer loop
      vertex -4.39743 -8.20099 4.5
      vertex -2.03859 -6.11987 4.5
      vertex -2.79918 -5.89386 4.5
    endloop
  endfacet
  facet normal 0 0 1
    outer loop
      vertex -4.39743 -8.20099 4.5
      vertex -2.79918 -5.89386 4.5
      vertex -3.42094 -5.57744 4.5
    endloop
  endfacet
  facet normal 0 0 1
    outer loop
      vertex -1.13913 -6.25548 4.5
      vertex -4.39743 -8.20099 4.5
      vertex 1.38829 -8.20099 4.5
    endloop
  endfacet
  facet normal 0 0 1
    outer loop
      vertex -3.90422 -5.16338 4.5
      vertex -4.39743 -8.20099 4.5
      vertex -3.42094 -5.57744 4.5
    endloop
  endfacet
  facet normal 0 0 1
    outer loop
      vertex -4.24944 -4.64441 4.5
      vertex -4.39743 -8.20099 4.5
      vertex -3.90422 -5.16338 4.5
    endloop
  endfacet
  facet normal 0 0 1
    outer loop
      vertex -4.5256 -3.29179 4.5
      vertex -4.39743 -8.20099 4.5
      vertex -4.45656 -4.02055 4.5
    endloop
  endfacet
  facet normal 0 0 1
    outer loop
      vertex -4.45656 -4.02055 4.5
      vertex -4.39743 -8.20099 4.5
      vertex -4.24944 -4.64441 4.5
    endloop
  endfacet
  facet normal -0 0 1
    outer loop
      vertex 4.04164 -4.62691 4.5
      vertex 4.20187 -8.20099 4.5
      vertex 4.25334 -4.02382 4.5
    endloop
  endfacet
  facet normal -0 0 1
    outer loop
      vertex 3.68881 -5.13766 4.5
      vertex 4.20187 -8.20099 4.5
      vertex 4.04164 -4.62691 4.5
    endloop
  endfacet
  facet normal -0 0 1
    outer loop
      vertex 3.19485 -5.55611 4.5
      vertex 4.20187 -8.20099 4.5
      vertex 3.68881 -5.13766 4.5
    endloop
  endfacet
  facet normal 0 0 1
    outer loop
      vertex 2.25499 -6.99257 4.5
      vertex 3.19485 -5.55611 4.5
      vertex 2.56548 -5.88185 4.5
    endloop
  endfacet
  facet normal 0 0 1
    outer loop
      vertex 3.19485 -5.55611 4.5
      vertex 2.25499 -6.99257 4.5
      vertex 4.20187 -8.20099 4.5
    endloop
  endfacet
  facet normal 0 0 1
    outer loop
      vertex 4.20187 -8.20099 4.5
      vertex 2.25499 -6.99257 4.5
      vertex 2.25499 -8.20099 4.5
    endloop
  endfacet
  facet normal 0 0 1
    outer loop
      vertex 6 5.14683 4.5
      vertex 9 8 4.5
      vertex 9 11.4 4.5
    endloop
  endfacet
  facet normal 0 0 1
    outer loop
      vertex 9 8 4.5
      vertex 6 5.14683 4.5
      vertex 8.42705 6.23664 4.5
    endloop
  endfacet
  facet normal 0 0 1
    outer loop
      vertex 8.42705 6.23664 4.5
      vertex 6 5.14683 4.5
      vertex 6.92705 5.14683 4.5
    endloop
  endfacet
  facet normal -0 0 1
    outer loop
      vertex 4.20187 -8.20099 4.5
      vertex 6 -20 4.5
      vertex 6 5.14683 4.5
    endloop
  endfacet
  facet normal -0 0 1
    outer loop
      vertex 2.25499 -13.291 4.5
      vertex 6 -20 4.5
      vertex 4.20187 -9.23851 4.5
    endloop
  endfacet
  facet normal 0 0 1
    outer loop
      vertex 4.20187 -8.20099 4.5
      vertex 6 5.14683 4.5
      vertex 4.32391 -3.32843 4.5
    endloop
  endfacet
  facet normal 0 0 1
    outer loop
      vertex 6 5.14683 4.5
      vertex 4.25296 -2.63213 4.5
      vertex 4.32391 -3.32843 4.5
    endloop
  endfacet
  facet normal 0 0 1
    outer loop
      vertex 6 5.14683 4.5
      vertex 4.04012 -2.02621 4.5
      vertex 4.25296 -2.63213 4.5
    endloop
  endfacet
  facet normal 0 0 1
    outer loop
      vertex 6 5.14683 4.5
      vertex 3.68538 -1.51073 4.5
      vertex 4.04012 -2.02621 4.5
    endloop
  endfacet
  facet normal 0 0 1
    outer loop
      vertex 6 5.14683 4.5
      vertex 3.18874 -1.08563 4.5
      vertex 3.68538 -1.51073 4.5
    endloop
  endfacet
  facet normal 0 0 1
    outer loop
      vertex 6 5.14683 4.5
      vertex 2.55745 -0.753189 4.5
      vertex 3.18874 -1.08563 4.5
    endloop
  endfacet
  facet normal -0 0 1
    outer loop
      vertex -0.599999 11.4 4.5
      vertex 6 5.14683 4.5
      vertex 9 11.4 4.5
    endloop
  endfacet
  facet normal 0 0 1
    outer loop
      vertex 6 5.14683 4.5
      vertex 1.79875 -0.515732 4.5
      vertex 2.55745 -0.753189 4.5
    endloop
  endfacet
  facet normal 0 -0 1
    outer loop
      vertex -0.10083 -0.32576 4.5
      vertex 6 5.14683 4.5
      vertex -0.599999 11.4 4.5
    endloop
  endfacet
  facet normal 0 0 1
    outer loop
      vertex 6 5.14683 4.5
      vertex 0.912659 -0.373245 4.5
      vertex 1.79875 -0.515732 4.5
    endloop
  endfacet
  facet normal 0 0 1
    outer loop
      vertex 6 5.14683 4.5
      vertex -0.10083 -0.32576 4.5
      vertex 0.912659 -0.373245 4.5
    endloop
  endfacet
  facet normal 0 0 1
    outer loop
      vertex -6 5.14683 4.5
      vertex -0.599999 11.4 4.5
      vertex -0.848515 11.4395 4.5
    endloop
  endfacet
  facet normal 0 0 1
    outer loop
      vertex -0.599999 11.4 4.5
      vertex -6 5.14683 4.5
      vertex -0.10083 -0.32576 4.5
    endloop
  endfacet
  facet normal 0 0 1
    outer loop
      vertex -0.10083 -0.32576 4.5
      vertex -6 5.14683 4.5
      vertex -1.12923 -0.370956 4.5
    endloop
  endfacet
  facet normal 0 0 1
    outer loop
      vertex -6 5.14683 4.5
      vertex -0.848515 11.4395 4.5
      vertex -2.6 11.7483 4.5
    endloop
  endfacet
  facet normal 0 0 1
    outer loop
      vertex -1.12923 -0.370956 4.5
      vertex -6 5.14683 4.5
      vertex -2.02333 -0.506561 4.5
    endloop
  endfacet
  facet normal 0 0 1
    outer loop
      vertex -2.02333 -0.506561 4.5
      vertex -6 5.14683 4.5
      vertex -2.78316 -0.732574 4.5
    endloop
  endfacet
  facet normal 0 0 1
    outer loop
      vertex -9 8 4.5
      vertex -2.6 11.7483 4.5
      vertex -3.7432 13.1107 4.5
    endloop
  endfacet
  facet normal 0 0 1
    outer loop
      vertex -2.78316 -0.732574 4.5
      vertex -6 5.14683 4.5
      vertex -3.40869 -1.049 4.5
    endloop
  endfacet
  facet normal 0 0 1
    outer loop
      vertex 4.20187 -8.20099 4.5
      vertex 4.32391 -3.32843 4.5
      vertex 4.25334 -4.02382 4.5
    endloop
  endfacet
  facet normal 0 0 1
    outer loop
      vertex 6 -20 4.5
      vertex 4.20187 -8.20099 4.5
      vertex 4.20187 -9.23851 4.5
    endloop
  endfacet
  facet normal -0 0 1
    outer loop
      vertex 1.76777 -18.2322 4.5
      vertex 6 -20 4.5
      vertex 2.25499 -13.291 4.5
    endloop
  endfacet
  facet normal 0 -0 1
    outer loop
      vertex 2.5 -20 4.5
      vertex 6 -20 4.5
      vertex 1.76777 -18.2322 4.5
    endloop
  endfacet
  facet normal 0 0 1
    outer loop
      vertex 5.6749 -21.9482 4.5
      vertex 1.76777 -21.7678 4.5
      vertex 4.73484 -23.6853 4.5
    endloop
  endfacet
  facet normal 0 0 1
    outer loop
      vertex 2.25499 -13.291 4.5
      vertex 4.20187 -9.23851 4.5
      vertex 2.25499 -9.23851 4.5
    endloop
  endfacet
  facet normal -0 0 1
    outer loop
      vertex 1.76777 -21.7678 4.5
      vertex 5.6749 -21.9482 4.5
      vertex 2.5 -20 4.5
    endloop
  endfacet
  facet normal 0 0 1
    outer loop
      vertex 6 -20 4.5
      vertex 2.5 -20 4.5
      vertex 5.6749 -21.9482 4.5
    endloop
  endfacet
  facet normal -0 0 1
    outer loop
      vertex 1.40053 -13.291 4.5
      vertex 1.76777 -18.2322 4.5
      vertex 2.25499 -13.291 4.5
    endloop
  endfacet
  facet normal 0 0 1
    outer loop
      vertex 1.40053 -13.291 4.5
      vertex 0 -17.5 4.5
      vertex 1.76777 -18.2322 4.5
    endloop
  endfacet
  facet normal 0 0 1
    outer loop
      vertex 1.40053 -13.291 4.5
      vertex -1.76777 -18.2322 4.5
      vertex 0 -17.5 4.5
    endloop
  endfacet
  facet normal 0 0 1
    outer loop
      vertex -4.39743 -9.35452 4.5
      vertex -1.76777 -18.2322 4.5
      vertex 1.40053 -13.291 4.5
    endloop
  endfacet
  facet normal 0 0 1
    outer loop
      vertex -5.91817 -20 4.5
      vertex -1.76777 -18.2322 4.5
      vertex -4.39743 -9.35452 4.5
    endloop
  endfacet
  facet normal 0 0 1
    outer loop
      vertex -1.76777 -18.2322 4.5
      vertex -5.91817 -20 4.5
      vertex -2.5 -20 4.5
    endloop
  endfacet
  facet normal 0 0 1
    outer loop
      vertex -6 5.14683 4.5
      vertex -4.39743 -8.20099 4.5
      vertex -4.5256 -3.29179 4.5
    endloop
  endfacet
  facet normal 0 0 1
    outer loop
      vertex -5.91817 -20.9876 4.5
      vertex -2.5 -20 4.5
      vertex -5.91817 -20 4.5
    endloop
  endfacet
  facet normal 0 0 1
    outer loop
      vertex -4.39743 -8.20099 4.5
      vertex -6 -20 4.5
      vertex -4.39743 -9.35452 4.5
    endloop
  endfacet
  facet normal 0 0 1
    outer loop
      vertex 4.73484 -23.6853 4.5
      vertex 1.76777 -21.7678 4.5
      vertex 3.28169 -25.023 4.5
    endloop
  endfacet
  facet normal 0 0 1
    outer loop
      vertex 1.76777 -21.7678 4.5
      vertex 1.47291 -25.8164 4.5
      vertex 3.28169 -25.023 4.5
    endloop
  endfacet
  facet normal -0 0 1
    outer loop
      vertex 0 -22.5 4.5
      vertex 1.47291 -25.8164 4.5
      vertex 1.76777 -21.7678 4.5
    endloop
  endfacet
  facet normal 0 0 1
    outer loop
      vertex 0 -22.5 4.5
      vertex -0.495476 -25.9795 4.5
      vertex 1.47291 -25.8164 4.5
    endloop
  endfacet
  facet normal 0 0 1
    outer loop
      vertex -2.41017 -25.4946 4.5
      vertex 0 -22.5 4.5
      vertex -1.76777 -21.7678 4.5
    endloop
  endfacet
  facet normal 0 0 1
    outer loop
      vertex 0 -22.5 4.5
      vertex -2.41017 -25.4946 4.5
      vertex -0.495476 -25.9795 4.5
    endloop
  endfacet
  facet normal 0 0 1
    outer loop
      vertex -4.06369 -24.4143 4.5
      vertex -1.76777 -21.7678 4.5
      vertex -2.5 -20 4.5
    endloop
  endfacet
  facet normal 0 0 1
    outer loop
      vertex -1.76777 -21.7678 4.5
      vertex -4.06369 -24.4143 4.5
      vertex -2.41017 -25.4946 4.5
    endloop
  endfacet
  facet normal 0 0 1
    outer loop
      vertex -2.5 -20 4.5
      vertex -5.91817 -20.9876 4.5
      vertex -5.27684 -22.8557 4.5
    endloop
  endfacet
  facet normal 0 0 1
    outer loop
      vertex -4.39743 -9.35452 4.5
      vertex -6 -20 4.5
      vertex -5.91817 -20 4.5
    endloop
  endfacet
  facet normal 0 0 1
    outer loop
      vertex 9 20 4.5
      vertex -0.599999 16.6 4.5
      vertex 9 16.6 4.5
    endloop
  endfacet
  facet normal 0 0 1
    outer loop
      vertex -0.599999 16.6 4.5
      vertex -0.848515 16.5605 4.5
      vertex -0.599999 16.417 4.5
    endloop
  endfacet
  facet normal -0 0 1
    outer loop
      vertex -9 20 4.5
      vertex -0.599999 16.6 4.5
      vertex 9 20 4.5
    endloop
  endfacet
  facet normal 0 0 1
    outer loop
      vertex -0.599999 16.6 4.5
      vertex -9 20 4.5
      vertex -0.848515 16.5605 4.5
    endloop
  endfacet
  facet normal 0 0 1
    outer loop
      vertex -9 8 4.5
      vertex -3.7432 13.1107 4.5
      vertex -3.7432 14.8893 4.5
    endloop
  endfacet
  facet normal 0 0 1
    outer loop
      vertex -3.40869 -1.049 4.5
      vertex -6 5.14683 4.5
      vertex -3.89734 -1.46036 4.5
    endloop
  endfacet
  facet normal 0 0 1
    outer loop
      vertex -3.89734 -1.46036 4.5
      vertex -6 5.14683 4.5
      vertex -4.24637 -1.97127 4.5
    endloop
  endfacet
  facet normal 0 0 1
    outer loop
      vertex -4.24637 -1.97127 4.5
      vertex -6 5.14683 4.5
      vertex -4.4558 -2.58176 4.5
    endloop
  endfacet
  facet normal 0 0 1
    outer loop
      vertex -2.5 -20 4.5
      vertex -5.27684 -22.8557 4.5
      vertex -4.06369 -24.4143 4.5
    endloop
  endfacet
  facet normal 0 0 1
    outer loop
      vertex -4.4558 -2.58176 4.5
      vertex -6 5.14683 4.5
      vertex -4.5256 -3.29179 4.5
    endloop
  endfacet
  facet normal 0 0 1
    outer loop
      vertex -4.39743 -8.20099 4.5
      vertex -6 5.14683 4.5
      vertex -6 -20 4.5
    endloop
  endfacet
  facet normal 0 0 1
    outer loop
      vertex -2.6 11.7483 4.5
      vertex -9 8 4.5
      vertex -6 5.14683 4.5
    endloop
  endfacet
  facet normal -0 -0 1
    outer loop
      vertex -8.42705 6.23664 4.5
      vertex -6 5.14683 4.5
      vertex -9 8 4.5
    endloop
  endfacet
  facet normal 0 0 1
    outer loop
      vertex -0.848515 16.5605 4.5
      vertex -9 20 4.5
      vertex -2.6 16.2517 4.5
    endloop
  endfacet
  facet normal 0 0 1
    outer loop
      vertex -9 20 4.5
      vertex -3.7432 14.8893 4.5
      vertex -2.6 16.2517 4.5
    endloop
  endfacet
  facet normal 0 0 1
    outer loop
      vertex -9 8 4.5
      vertex -3.7432 14.8893 4.5
      vertex -9 20 4.5
    endloop
  endfacet
  facet normal 0 0 1
    outer loop
      vertex -6 5.14683 4.5
      vertex -8.42705 6.23664 4.5
      vertex -6.92705 5.14683 4.5
    endloop
  endfacet
  facet normal 0 0 1
    outer loop
      vertex 2.56018 -1.89418 4.5
      vertex 3.42679 -3.31628 4.5
      vertex 3.37262 -2.86346 4.5
    endloop
  endfacet
  facet normal 0 0 1
    outer loop
      vertex 3.42679 -3.31628 4.5
      vertex 2.57845 -4.74133 4.5
      vertex 3.37376 -3.77153 4.5
    endloop
  endfacet
  facet normal 0 0 1
    outer loop
      vertex 2.93932 -2.15242 4.5
      vertex 3.37262 -2.86346 4.5
      vertex 3.21013 -2.47552 4.5
    endloop
  endfacet
  facet normal 0 0 1
    outer loop
      vertex 3.37376 -3.77153 4.5
      vertex 2.9496 -4.48405 4.5
      vertex 3.21471 -4.1608 4.5
    endloop
  endfacet
  facet normal 0 0 1
    outer loop
      vertex 2.56018 -1.89418 4.5
      vertex 3.37262 -2.86346 4.5
      vertex 2.93932 -2.15242 4.5
    endloop
  endfacet
  facet normal 0 0 1
    outer loop
      vertex 3.37376 -3.77153 4.5
      vertex 2.57845 -4.74133 4.5
      vertex 2.9496 -4.48405 4.5
    endloop
  endfacet
  facet normal 0 0 1
    outer loop
      vertex 3.42679 -3.31628 4.5
      vertex 2.56018 -1.89418 4.5
      vertex 2.57845 -4.74133 4.5
    endloop
  endfacet
  facet normal 0 0 1
    outer loop
      vertex 2.56018 -1.89418 4.5
      vertex 2.09286 -4.93758 4.5
      vertex 2.57845 -4.74133 4.5
    endloop
  endfacet
  facet normal 0 0 1
    outer loop
      vertex 2.06885 -1.69661 4.5
      vertex 2.09286 -4.93758 4.5
      vertex 2.56018 -1.89418 4.5
    endloop
  endfacet
  facet normal 0 0 1
    outer loop
      vertex 2.06885 -1.69661 4.5
      vertex 1.48445 -5.07776 4.5
      vertex 2.09286 -4.93758 4.5
    endloop
  endfacet
  facet normal 0 0 1
    outer loop
      vertex 1.46156 -1.55547 4.5
      vertex 1.48445 -5.07776 4.5
      vertex 2.06885 -1.69661 4.5
    endloop
  endfacet
  facet normal 0 0 1
    outer loop
      vertex 1.46156 -1.55547 4.5
      vertex 0.75322 -5.16187 4.5
      vertex 1.48445 -5.07776 4.5
    endloop
  endfacet
  facet normal 0 0 1
    outer loop
      vertex 0.738342 -1.47079 4.5
      vertex 0.75322 -5.16187 4.5
      vertex 1.46156 -1.55547 4.5
    endloop
  endfacet
  facet normal 0 0 1
    outer loop
      vertex -0.10083 -1.44257 4.5
      vertex 0.75322 -5.16187 4.5
      vertex 0.738342 -1.47079 4.5
    endloop
  endfacet
  facet normal 0 0 1
    outer loop
      vertex -0.10083 -1.44257 4.5
      vertex -0.10083 -5.1899 4.5
      vertex 0.75322 -5.16187 4.5
    endloop
  endfacet
  facet normal -0 0 1
    outer loop
      vertex -0.967484 -1.46947 4.5
      vertex -0.10083 -5.1899 4.5
      vertex -0.10083 -1.44257 4.5
    endloop
  endfacet
  facet normal 0 0 1
    outer loop
      vertex -0.967484 -1.46947 4.5
      vertex -0.977386 -5.16225 4.5
      vertex -0.10083 -5.1899 4.5
    endloop
  endfacet
  facet normal -0 0 1
    outer loop
      vertex -1.70596 -1.55014 4.5
      vertex -0.977386 -5.16225 4.5
      vertex -0.967484 -1.46947 4.5
    endloop
  endfacet
  facet normal 0 0 1
    outer loop
      vertex -1.70596 -1.55014 4.5
      vertex -1.72119 -5.07928 4.5
      vertex -0.977386 -5.16225 4.5
    endloop
  endfacet
  facet normal -0 0 1
    outer loop
      vertex -2.31627 -1.6846 4.5
      vertex -1.72119 -5.07928 4.5
      vertex -1.70596 -1.55014 4.5
    endloop
  endfacet
  facet normal 0 0 1
    outer loop
      vertex -2.31627 -1.6846 4.5
      vertex -2.33224 -4.94102 4.5
      vertex -1.72119 -5.07928 4.5
    endloop
  endfacet
  facet normal -0 0 1
    outer loop
      vertex -2.7984 -1.87286 4.5
      vertex -2.33224 -4.94102 4.5
      vertex -2.31627 -1.6846 4.5
    endloop
  endfacet
  facet normal 0 0 1
    outer loop
      vertex -2.7984 -1.87286 4.5
      vertex -2.81056 -4.74745 4.5
      vertex -2.33224 -4.94102 4.5
    endloop
  endfacet
  facet normal 0 0 1
    outer loop
      vertex -3.58224 -2.83237 4.5
      vertex -2.7984 -1.87286 4.5
      vertex -3.1642 -2.12289 4.5
    endloop
  endfacet
  facet normal 0 0 1
    outer loop
      vertex -2.7984 -1.87286 4.5
      vertex -3.63451 -3.29179 4.5
      vertex -2.81056 -4.74745 4.5
    endloop
  endfacet
  facet normal 0 0 1
    outer loop
      vertex -3.58224 -2.83237 4.5
      vertex -3.1642 -2.12289 4.5
      vertex -3.42548 -2.44273 4.5
    endloop
  endfacet
  facet normal -0 -0 1
    outer loop
      vertex -3.58301 -3.7627 4.5
      vertex -2.81056 -4.74745 4.5
      vertex -3.63451 -3.29179 4.5
    endloop
  endfacet
  facet normal 0 0 1
    outer loop
      vertex -2.7984 -1.87286 4.5
      vertex -3.58224 -2.83237 4.5
      vertex -3.63451 -3.29179 4.5
    endloop
  endfacet
  facet normal 0 0 1
    outer loop
      vertex -2.81056 -4.74745 4.5
      vertex -3.58301 -3.7627 4.5
      vertex -3.17104 -4.49052 4.5
    endloop
  endfacet
  facet normal 0 0 1
    outer loop
      vertex -3.17104 -4.49052 4.5
      vertex -3.58301 -3.7627 4.5
      vertex -3.42851 -4.16228 4.5
    endloop
  endfacet
  facet normal 0 0 1
    outer loop
      vertex 1.38829 -9.23851 4.5
      vertex 1.26625 -12.1803 4.5
      vertex 1.38829 -12.2779 4.5
    endloop
  endfacet
  facet normal 0 0 1
    outer loop
      vertex 1.38829 -9.23851 4.5
      vertex 0.814621 -11.8507 4.5
      vertex 1.26625 -12.1803 4.5
    endloop
  endfacet
  facet normal 0 0 1
    outer loop
      vertex 1.38829 -9.23851 4.5
      vertex -2.43219 -9.64748 4.5
      vertex 0.814621 -11.8507 4.5
    endloop
  endfacet
  facet normal 0 0 1
    outer loop
      vertex 1.38829 -9.23851 4.5
      vertex -2.50089 -9.60283 4.5
      vertex -2.43219 -9.64748 4.5
    endloop
  endfacet
  facet normal 0 0 1
    outer loop
      vertex 1.38829 -9.23851 4.5
      vertex -2.59091 -9.54826 4.5
      vertex -2.50089 -9.60283 4.5
    endloop
  endfacet
  facet normal 0 0 1
    outer loop
      vertex 1.38829 -9.23851 4.5
      vertex -2.7023 -9.48381 4.5
      vertex -2.59091 -9.54826 4.5
    endloop
  endfacet
  facet normal 0 0 1
    outer loop
      vertex 1.38829 -9.23851 4.5
      vertex -2.83504 -9.40942 4.5
      vertex -2.7023 -9.48381 4.5
    endloop
  endfacet
  facet normal 0 0 1
    outer loop
      vertex 1.38829 -9.23851 4.5
      vertex -2.96281 -9.33923 4.5
      vertex -2.83504 -9.40942 4.5
    endloop
  endfacet
  facet normal 0 0 1
    outer loop
      vertex 1.38829 -9.23851 4.5
      vertex -3.05931 -9.28735 4.5
      vertex -2.96281 -9.33923 4.5
    endloop
  endfacet
  facet normal 0 0 1
    outer loop
      vertex 1.38829 -9.23851 4.5
      vertex -3.12454 -9.25378 4.5
      vertex -3.05931 -9.28735 4.5
    endloop
  endfacet
  facet normal 0 -0 1
    outer loop
      vertex -3.12454 -9.25378 4.5
      vertex 1.38829 -9.23851 4.5
      vertex -3.15849 -9.23851 4.5
    endloop
  endfacet
  facet normal 1 -0 0
    outer loop
      vertex 9 8 4.5
      vertex 9 11.4 -4.5
      vertex 9 11.4 4.5
    endloop
  endfacet
  facet normal 1 0 0
    outer loop
      vertex 9 11.4 -4.5
      vertex 9 8 4.5
      vertex 9 8 -4.5
    endloop
  endfacet
  facet normal 1 -0 0
    outer loop
      vertex 9 16.6 4.5
      vertex 9 20 -4.5
      vertex 9 20 4.5
    endloop
  endfacet
  facet normal 1 0 0
    outer loop
      vertex 9 20 -4.5
      vertex 9 16.6 4.5
      vertex 9 16.6 -4.5
    endloop
  endfacet
  facet normal 0 1 -0
    outer loop
      vertex 9 20 -4.5
      vertex -9 20 4.5
      vertex 9 20 4.5
    endloop
  endfacet
  facet normal 0 1 0
    outer loop
      vertex -9 20 4.5
      vertex 9 20 -4.5
      vertex -9 20 -4.5
    endloop
  endfacet
  facet normal 0 0 -1
    outer loop
      vertex 5.6749 -21.9482 -4.5
      vertex 1.76777 -21.7678 -4.5
      vertex 2.5 -20 -4.5
    endloop
  endfacet
  facet normal 0 0 -1
    outer loop
      vertex 1.47291 -25.8164 -4.5
      vertex 1.76777 -21.7678 -4.5
      vertex 3.28169 -25.023 -4.5
    endloop
  endfacet
  facet normal 0 0 -1
    outer loop
      vertex 1.47291 -25.8164 -4.5
      vertex 0 -22.5 -4.5
      vertex 1.76777 -21.7678 -4.5
    endloop
  endfacet
  facet normal 0 0 -1
    outer loop
      vertex -0.495476 -25.9795 -4.5
      vertex 0 -22.5 -4.5
      vertex 1.47291 -25.8164 -4.5
    endloop
  endfacet
  facet normal 0 0 -1
    outer loop
      vertex -2.41017 -25.4946 -4.5
      vertex 0 -22.5 -4.5
      vertex -0.495476 -25.9795 -4.5
    endloop
  endfacet
  facet normal -0 0 -1
    outer loop
      vertex 0 -22.5 -4.5
      vertex -2.41017 -25.4946 -4.5
      vertex -1.76777 -21.7678 -4.5
    endloop
  endfacet
  facet normal 0 0 -1
    outer loop
      vertex -4.06369 -24.4143 -4.5
      vertex -1.76777 -21.7678 -4.5
      vertex -2.41017 -25.4946 -4.5
    endloop
  endfacet
  facet normal 0 0 -1
    outer loop
      vertex -1.76777 -18.2322 -4.5
      vertex -3.7432 13.1107 -4.5
      vertex -2.6 11.7483 -4.5
    endloop
  endfacet
  facet normal 0 0 -1
    outer loop
      vertex -5.27684 -22.8557 -4.5
      vertex -1.76777 -21.7678 -4.5
      vertex -4.06369 -24.4143 -4.5
    endloop
  endfacet
  facet normal 0 0 -1
    outer loop
      vertex -1.76777 -18.2322 -4.5
      vertex -6 5.14683 -4.5
      vertex -3.7432 13.1107 -4.5
    endloop
  endfacet
  facet normal -0 0 -1
    outer loop
      vertex -1.76777 -21.7678 -4.5
      vertex -5.27684 -22.8557 -4.5
      vertex -2.5 -20 -4.5
    endloop
  endfacet
  facet normal 0 0 -1
    outer loop
      vertex -0.599999 16.417 -4.5
      vertex -0.848515 16.5605 -4.5
      vertex -0.599999 16.6 -4.5
    endloop
  endfacet
  facet normal 0 0 -1
    outer loop
      vertex 2.5 -20 -4.5
      vertex 6 -20 -4.5
      vertex 5.6749 -21.9482 -4.5
    endloop
  endfacet
  facet normal 0 0 -1
    outer loop
      vertex 6 5.14683 -4.5
      vertex 9 8 -4.5
      vertex 8.42705 6.23664 -4.5
    endloop
  endfacet
  facet normal 0 0 -1
    outer loop
      vertex 6 5.14683 -4.5
      vertex 8.42705 6.23664 -4.5
      vertex 6.92705 5.14683 -4.5
    endloop
  endfacet
  facet normal -0 0 -1
    outer loop
      vertex 9 8 -4.5
      vertex 6 5.14683 -4.5
      vertex 9 11.4 -4.5
    endloop
  endfacet
  facet normal 0 0 -1
    outer loop
      vertex 1.76777 -21.7678 -4.5
      vertex 5.6749 -21.9482 -4.5
      vertex 4.73484 -23.6853 -4.5
    endloop
  endfacet
  facet normal 0 0 -1
    outer loop
      vertex 1.76777 -21.7678 -4.5
      vertex 4.73484 -23.6853 -4.5
      vertex 3.28169 -25.023 -4.5
    endloop
  endfacet
  facet normal 0 0 -1
    outer loop
      vertex 6 -20 -4.5
      vertex 2.5 -20 -4.5
      vertex 1.76777 -18.2322 -4.5
    endloop
  endfacet
  facet normal 0 0 -1
    outer loop
      vertex 6 -20 -4.5
      vertex 1.76777 -18.2322 -4.5
      vertex 6 5.14683 -4.5
    endloop
  endfacet
  facet normal 0 0 -1
    outer loop
      vertex 0 -17.5 -4.5
      vertex 6 5.14683 -4.5
      vertex 1.76777 -18.2322 -4.5
    endloop
  endfacet
  facet normal 0 0 -1
    outer loop
      vertex 6 5.14683 -4.5
      vertex -0.599999 11.4 -4.5
      vertex 9 11.4 -4.5
    endloop
  endfacet
  facet normal 0 0 -1
    outer loop
      vertex -1.76777 -18.2322 -4.5
      vertex 6 5.14683 -4.5
      vertex 0 -17.5 -4.5
    endloop
  endfacet
  facet normal 0 0 -1
    outer loop
      vertex -0.599999 11.4 -4.5
      vertex -0.848515 11.4395 -4.5
      vertex -0.599999 11.583 -4.5
    endloop
  endfacet
  facet normal 0 0 -1
    outer loop
      vertex 6 5.14683 -4.5
      vertex -0.848515 11.4395 -4.5
      vertex -0.599999 11.4 -4.5
    endloop
  endfacet
  facet normal -0 0 -1
    outer loop
      vertex 6 5.14683 -4.5
      vertex -1.76777 -18.2322 -4.5
      vertex -2.6 11.7483 -4.5
    endloop
  endfacet
  facet normal 0 0 -1
    outer loop
      vertex -5.91817 -20 -4.5
      vertex -1.76777 -18.2322 -4.5
      vertex -2.5 -20 -4.5
    endloop
  endfacet
  facet normal 0 0 -1
    outer loop
      vertex 6 5.14683 -4.5
      vertex -2.6 11.7483 -4.5
      vertex -0.848515 11.4395 -4.5
    endloop
  endfacet
  facet normal 0 0 -1
    outer loop
      vertex -0.599999 16.6 -4.5
      vertex 9 20 -4.5
      vertex 9 16.6 -4.5
    endloop
  endfacet
  facet normal 0 0 -1
    outer loop
      vertex -9 20 -4.5
      vertex -0.599999 16.6 -4.5
      vertex -0.848515 16.5605 -4.5
    endloop
  endfacet
  facet normal 0 0 -1
    outer loop
      vertex -9 20 -4.5
      vertex -0.848515 16.5605 -4.5
      vertex -2.6 16.2517 -4.5
    endloop
  endfacet
  facet normal 0 0 -1
    outer loop
      vertex -5.91817 -20.9876 -4.5
      vertex -2.5 -20 -4.5
      vertex -5.27684 -22.8557 -4.5
    endloop
  endfacet
  facet normal -0 0 -1
    outer loop
      vertex -2.5 -20 -4.5
      vertex -5.91817 -20.9876 -4.5
      vertex -5.91817 -20 -4.5
    endloop
  endfacet
  facet normal 0 0 -1
    outer loop
      vertex -6 -20 -4.5
      vertex -1.76777 -18.2322 -4.5
      vertex -5.91817 -20 -4.5
    endloop
  endfacet
  facet normal -0 0 -1
    outer loop
      vertex -1.76777 -18.2322 -4.5
      vertex -6 -20 -4.5
      vertex -6 5.14683 -4.5
    endloop
  endfacet
  facet normal 0 0 -1
    outer loop
      vertex -9 8 -4.5
      vertex -3.7432 13.1107 -4.5
      vertex -6 5.14683 -4.5
    endloop
  endfacet
  facet normal 0 0 -1
    outer loop
      vertex -8.42705 6.23664 -4.5
      vertex -6 5.14683 -4.5
      vertex -6.92705 5.14683 -4.5
    endloop
  endfacet
  facet normal 0 0 -1
    outer loop
      vertex -6 5.14683 -4.5
      vertex -8.42705 6.23664 -4.5
      vertex -9 8 -4.5
    endloop
  endfacet
  facet normal -0 0 -1
    outer loop
      vertex -3.7432 13.1107 -4.5
      vertex -9 8 -4.5
      vertex -3.7432 14.8893 -4.5
    endloop
  endfacet
  facet normal 0 0 -1
    outer loop
      vertex -0.599999 16.6 -4.5
      vertex -9 20 -4.5
      vertex 9 20 -4.5
    endloop
  endfacet
  facet normal 0 0 -1
    outer loop
      vertex -3.7432 14.8893 -4.5
      vertex -9 20 -4.5
      vertex -2.6 16.2517 -4.5
    endloop
  endfacet
  facet normal 0 0 -1
    outer loop
      vertex -9 20 -4.5
      vertex -3.7432 14.8893 -4.5
      vertex -9 8 -4.5
    endloop
  endfacet
  facet normal 0 -1 0
    outer loop
      vertex -6.92705 5.14683 -4.5
      vertex -6 5.14683 4.5
      vertex -6.92705 5.14683 4.5
    endloop
  endfacet
  facet normal 0 -1 -0
    outer loop
      vertex -6 5.14683 4.5
      vertex -6.92705 5.14683 -4.5
      vertex -6 5.14683 -4.5
    endloop
  endfacet
  facet normal -0.587784 -0.809018 0
    outer loop
      vertex -8.42705 6.23664 -4.5
      vertex -6.92705 5.14683 4.5
      vertex -8.42705 6.23664 4.5
    endloop
  endfacet
  facet normal -0.587784 -0.809018 -0
    outer loop
      vertex -6.92705 5.14683 4.5
      vertex -8.42705 6.23664 -4.5
      vertex -6.92705 5.14683 -4.5
    endloop
  endfacet
  facet normal -0.951057 -0.309017 0
    outer loop
      vertex -8.42705 6.23664 -4.5
      vertex -9 8 4.5
      vertex -9 8 -4.5
    endloop
  endfacet
  facet normal -0.951057 -0.309017 0
    outer loop
      vertex -9 8 4.5
      vertex -8.42705 6.23664 -4.5
      vertex -8.42705 6.23664 4.5
    endloop
  endfacet
  facet normal 0.951057 -0.309017 0
    outer loop
      vertex 8.42705 6.23664 4.5
      vertex 9 8 -4.5
      vertex 9 8 4.5
    endloop
  endfacet
  facet normal 0.951057 -0.309017 0
    outer loop
      vertex 9 8 -4.5
      vertex 8.42705 6.23664 4.5
      vertex 8.42705 6.23664 -4.5
    endloop
  endfacet
  facet normal 0.587784 -0.809018 0
    outer loop
      vertex 6.92705 5.14683 -4.5
      vertex 8.42705 6.23664 4.5
      vertex 6.92705 5.14683 4.5
    endloop
  endfacet
  facet normal 0.587784 -0.809018 0
    outer loop
      vertex 8.42705 6.23664 4.5
      vertex 6.92705 5.14683 -4.5
      vertex 8.42705 6.23664 -4.5
    endloop
  endfacet
  facet normal 0 -1 0
    outer loop
      vertex 6 5.14683 -4.5
      vertex 6.92705 5.14683 4.5
      vertex 6 5.14683 4.5
    endloop
  endfacet
  facet normal 0 -1 -0
    outer loop
      vertex 6.92705 5.14683 4.5
      vertex 6 5.14683 -4.5
      vertex 6.92705 5.14683 -4.5
    endloop
  endfacet
  facet normal -1 0 0
    outer loop
      vertex -5.91817 -20.9876 -4.5
      vertex -5.91817 -20 4.5
      vertex -5.91817 -20 -4.5
    endloop
  endfacet
  facet normal -1 -0 0
    outer loop
      vertex -5.91817 -20 4.5
      vertex -5.91817 -20.9876 -4.5
      vertex -5.91817 -20.9876 4.5
    endloop
  endfacet
  facet normal 0.401694 -0.915774 0
    outer loop
      vertex 1.47291 -25.8164 -4.5
      vertex 3.28169 -25.023 4.5
      vertex 1.47291 -25.8164 4.5
    endloop
  endfacet
  facet normal 0.401694 -0.915774 0
    outer loop
      vertex 3.28169 -25.023 4.5
      vertex 1.47291 -25.8164 -4.5
      vertex 3.28169 -25.023 -4.5
    endloop
  endfacet
  facet normal -0.245501 -0.969396 0
    outer loop
      vertex -2.41017 -25.4946 -4.5
      vertex -0.495476 -25.9795 4.5
      vertex -2.41017 -25.4946 4.5
    endloop
  endfacet
  facet normal -0.245501 -0.969396 -0
    outer loop
      vertex -0.495476 -25.9795 4.5
      vertex -2.41017 -25.4946 -4.5
      vertex -0.495476 -25.9795 -4.5
    endloop
  endfacet
  facet normal -0.945816 -0.324704 0
    outer loop
      vertex -5.27684 -22.8557 -4.5
      vertex -5.91817 -20.9876 4.5
      vertex -5.91817 -20.9876 -4.5
    endloop
  endfacet
  facet normal -0.945816 -0.324704 0
    outer loop
      vertex -5.91817 -20.9876 4.5
      vertex -5.27684 -22.8557 -4.5
      vertex -5.27684 -22.8557 4.5
    endloop
  endfacet
  facet normal -0.546949 -0.837166 0
    outer loop
      vertex -4.06369 -24.4143 -4.5
      vertex -2.41017 -25.4946 4.5
      vertex -4.06369 -24.4143 4.5
    endloop
  endfacet
  facet normal -0.546949 -0.837166 -0
    outer loop
      vertex -2.41017 -25.4946 4.5
      vertex -4.06369 -24.4143 -4.5
      vertex -2.41017 -25.4946 -4.5
    endloop
  endfacet
  facet normal -0.78913 -0.614226 0
    outer loop
      vertex -4.06369 -24.4143 -4.5
      vertex -5.27684 -22.8557 4.5
      vertex -5.27684 -22.8557 -4.5
    endloop
  endfacet
  facet normal -0.78913 -0.614226 0
    outer loop
      vertex -5.27684 -22.8557 4.5
      vertex -4.06369 -24.4143 -4.5
      vertex -4.06369 -24.4143 4.5
    endloop
  endfacet
  facet normal 0.677276 -0.735729 0
    outer loop
      vertex 3.28169 -25.023 -4.5
      vertex 4.73484 -23.6853 4.5
      vertex 3.28169 -25.023 4.5
    endloop
  endfacet
  facet normal 0.677276 -0.735729 0
    outer loop
      vertex 4.73484 -23.6853 4.5
      vertex 3.28169 -25.023 -4.5
      vertex 4.73484 -23.6853 -4.5
    endloop
  endfacet
  facet normal 0.986361 -0.164596 0
    outer loop
      vertex 5.6749 -21.9482 4.5
      vertex 6 -20 -4.5
      vertex 6 -20 4.5
    endloop
  endfacet
  facet normal 0.986361 -0.164596 0
    outer loop
      vertex 6 -20 -4.5
      vertex 5.6749 -21.9482 4.5
      vertex 5.6749 -21.9482 -4.5
    endloop
  endfacet
  facet normal 0.0825768 -0.996585 0
    outer loop
      vertex -0.495476 -25.9795 -4.5
      vertex 1.47291 -25.8164 4.5
      vertex -0.495476 -25.9795 4.5
    endloop
  endfacet
  facet normal 0.0825768 -0.996585 0
    outer loop
      vertex 1.47291 -25.8164 4.5
      vertex -0.495476 -25.9795 -4.5
      vertex 1.47291 -25.8164 -4.5
    endloop
  endfacet
  facet normal 0.879476 -0.475943 0
    outer loop
      vertex 4.73484 -23.6853 4.5
      vertex 5.6749 -21.9482 -4.5
      vertex 5.6749 -21.9482 4.5
    endloop
  endfacet
  facet normal 0.879476 -0.475943 0
    outer loop
      vertex 5.6749 -21.9482 -4.5
      vertex 4.73484 -23.6853 4.5
      vertex 4.73484 -23.6853 -4.5
    endloop
  endfacet
  facet normal -1 0 0
    outer loop
      vertex -6 -20 -4.5
      vertex -6 5.14683 4.5
      vertex -6 5.14683 -4.5
    endloop
  endfacet
  facet normal -1 -0 0
    outer loop
      vertex -6 5.14683 4.5
      vertex -6 -20 -4.5
      vertex -6 -20 4.5
    endloop
  endfacet
  facet normal 1 -0 0
    outer loop
      vertex 6 -20 4.5
      vertex 6 5.14683 -4.5
      vertex 6 5.14683 4.5
    endloop
  endfacet
  facet normal 1 0 0
    outer loop
      vertex 6 5.14683 -4.5
      vertex 6 -20 4.5
      vertex 6 -20 -4.5
    endloop
  endfacet
  facet normal 0 -1 0
    outer loop
      vertex -6 -20 -4.5
      vertex -5.91817 -20 4.5
      vertex -6 -20 4.5
    endloop
  endfacet
  facet normal 0 -1 -0
    outer loop
      vertex -5.91817 -20 4.5
      vertex -6 -20 -4.5
      vertex -5.91817 -20 -4.5
    endloop
  endfacet
  facet normal -0.923883 -0.382676 0
    outer loop
      vertex 2.5 -20 -4.5
      vertex 1.76777 -18.2322 4.5
      vertex 1.76777 -18.2322 -4.5
    endloop
  endfacet
  facet normal -0.923883 -0.382676 0
    outer loop
      vertex 1.76777 -18.2322 4.5
      vertex 2.5 -20 -4.5
      vertex 2.5 -20 4.5
    endloop
  endfacet
  facet normal 0.923883 -0.382676 0
    outer loop
      vertex -2.5 -20 4.5
      vertex -1.76777 -18.2322 -4.5
      vertex -1.76777 -18.2322 4.5
    endloop
  endfacet
  facet normal 0.923883 -0.382676 0
    outer loop
      vertex -1.76777 -18.2322 -4.5
      vertex -2.5 -20 4.5
      vertex -2.5 -20 -4.5
    endloop
  endfacet
  facet normal -0.382668 0.923886 0
    outer loop
      vertex 1.76777 -21.7678 -4.5
      vertex 0 -22.5 4.5
      vertex 1.76777 -21.7678 4.5
    endloop
  endfacet
  facet normal -0.382668 0.923886 0
    outer loop
      vertex 0 -22.5 4.5
      vertex 1.76777 -21.7678 -4.5
      vertex 0 -22.5 -4.5
    endloop
  endfacet
  facet normal 0.382668 -0.923886 0
    outer loop
      vertex -1.76777 -18.2322 -4.5
      vertex 0 -17.5 4.5
      vertex -1.76777 -18.2322 4.5
    endloop
  endfacet
  facet normal 0.382668 -0.923886 0
    outer loop
      vertex 0 -17.5 4.5
      vertex -1.76777 -18.2322 -4.5
      vertex 0 -17.5 -4.5
    endloop
  endfacet
  facet normal -0.382668 -0.923886 0
    outer loop
      vertex 0 -17.5 -4.5
      vertex 1.76777 -18.2322 4.5
      vertex 0 -17.5 4.5
    endloop
  endfacet
  facet normal -0.382668 -0.923886 -0
    outer loop
      vertex 1.76777 -18.2322 4.5
      vertex 0 -17.5 -4.5
      vertex 1.76777 -18.2322 -4.5
    endloop
  endfacet
  facet normal -0.923883 0.382676 0
    outer loop
      vertex 1.76777 -21.7678 -4.5
      vertex 2.5 -20 4.5
      vertex 2.5 -20 -4.5
    endloop
  endfacet
  facet normal -0.923883 0.382676 0
    outer loop
      vertex 2.5 -20 4.5
      vertex 1.76777 -21.7678 -4.5
      vertex 1.76777 -21.7678 4.5
    endloop
  endfacet
  facet normal 0.382668 0.923886 -0
    outer loop
      vertex 0 -22.5 -4.5
      vertex -1.76777 -21.7678 4.5
      vertex 0 -22.5 4.5
    endloop
  endfacet
  facet normal 0.382668 0.923886 0
    outer loop
      vertex -1.76777 -21.7678 4.5
      vertex 0 -22.5 -4.5
      vertex -1.76777 -21.7678 -4.5
    endloop
  endfacet
  facet normal 0.923883 0.382676 0
    outer loop
      vertex -1.76777 -21.7678 4.5
      vertex -2.5 -20 -4.5
      vertex -2.5 -20 4.5
    endloop
  endfacet
  facet normal 0.923883 0.382676 0
    outer loop
      vertex -2.5 -20 -4.5
      vertex -1.76777 -21.7678 4.5
      vertex -1.76777 -21.7678 -4.5
    endloop
  endfacet
  facet normal 1 -0 0
    outer loop
      vertex -3.7432 13.1107 4.5
      vertex -3.7432 14.8893 -4.5
      vertex -3.7432 14.8893 4.5
    endloop
  endfacet
  facet normal 1 0 0
    outer loop
      vertex -3.7432 14.8893 -4.5
      vertex -3.7432 13.1107 4.5
      vertex -3.7432 13.1107 -4.5
    endloop
  endfacet
  facet normal 0.17363 -0.984811 0
    outer loop
      vertex -2.6 16.2517 -4.5
      vertex -0.848515 16.5605 4.5
      vertex -2.6 16.2517 4.5
    endloop
  endfacet
  facet normal 0.17363 -0.984811 0
    outer loop
      vertex -0.848515 16.5605 4.5
      vertex -2.6 16.2517 -4.5
      vertex -0.848515 16.5605 -4.5
    endloop
  endfacet
  facet normal -0.50005 -0.865996 0
    outer loop
      vertex -0.848515 16.5605 -4.5
      vertex -0.599999 16.417 4.5
      vertex -0.848515 16.5605 4.5
    endloop
  endfacet
  facet normal -0.50005 -0.865996 -0
    outer loop
      vertex -0.599999 16.417 4.5
      vertex -0.848515 16.5605 -4.5
      vertex -0.599999 16.417 -4.5
    endloop
  endfacet
  facet normal 0.766041 -0.642791 0
    outer loop
      vertex -3.7432 14.8893 4.5
      vertex -2.6 16.2517 -4.5
      vertex -2.6 16.2517 4.5
    endloop
  endfacet
  facet normal 0.766041 -0.642791 0
    outer loop
      vertex -2.6 16.2517 -4.5
      vertex -3.7432 14.8893 4.5
      vertex -3.7432 14.8893 -4.5
    endloop
  endfacet
  facet normal -0.50005 0.865996 0
    outer loop
      vertex -0.599999 11.583 -4.5
      vertex -0.848515 11.4395 4.5
      vertex -0.599999 11.583 4.5
    endloop
  endfacet
  facet normal -0.50005 0.865996 0
    outer loop
      vertex -0.848515 11.4395 4.5
      vertex -0.599999 11.583 -4.5
      vertex -0.848515 11.4395 -4.5
    endloop
  endfacet
  facet normal 0.766041 0.642791 0
    outer loop
      vertex -2.6 11.7483 4.5
      vertex -3.7432 13.1107 -4.5
      vertex -3.7432 13.1107 4.5
    endloop
  endfacet
  facet normal 0.766041 0.642791 0
    outer loop
      vertex -3.7432 13.1107 -4.5
      vertex -2.6 11.7483 4.5
      vertex -2.6 11.7483 -4.5
    endloop
  endfacet
  facet normal 0.17363 0.984811 -0
    outer loop
      vertex -0.848515 11.4395 -4.5
      vertex -2.6 11.7483 4.5
      vertex -0.848515 11.4395 4.5
    endloop
  endfacet
  facet normal 0.17363 0.984811 0
    outer loop
      vertex -2.6 11.7483 4.5
      vertex -0.848515 11.4395 -4.5
      vertex -2.6 11.7483 -4.5
    endloop
  endfacet
  facet normal 1 -0 0
    outer loop
      vertex -0.599999 16.417 4.5
      vertex -0.599999 16.6 -4.5
      vertex -0.599999 16.6 4.5
    endloop
  endfacet
  facet normal 1 0 0
    outer loop
      vertex -0.599999 16.6 -4.5
      vertex -0.599999 16.417 4.5
      vertex -0.599999 16.417 -4.5
    endloop
  endfacet
  facet normal 1 -0 0
    outer loop
      vertex -0.599999 11.4 4.5
      vertex -0.599999 11.583 -4.5
      vertex -0.599999 11.583 4.5
    endloop
  endfacet
  facet normal 1 0 0
    outer loop
      vertex -0.599999 11.583 -4.5
      vertex -0.599999 11.4 4.5
      vertex -0.599999 11.4 -4.5
    endloop
  endfacet
  facet normal 0 1 -0
    outer loop
      vertex 9 11.4 -4.5
      vertex -0.599999 11.4 4.5
      vertex 9 11.4 4.5
    endloop
  endfacet
  facet normal 0 1 0
    outer loop
      vertex -0.599999 11.4 4.5
      vertex 9 11.4 -4.5
      vertex -0.599999 11.4 -4.5
    endloop
  endfacet
  facet normal 0 -1 0
    outer loop
      vertex -0.599999 16.6 -4.5
      vertex 9 16.6 4.5
      vertex -0.599999 16.6 4.5
    endloop
  endfacet
  facet normal 0 -1 -0
    outer loop
      vertex 9 16.6 4.5
      vertex -0.599999 16.6 -4.5
      vertex 9 16.6 -4.5
    endloop
  endfacet
  facet normal 0 0 1
    outer loop
      vertex 4.32391 -3.32843 4
      vertex 3.37262 -2.86346 4
      vertex 3.42679 -3.31628 4
    endloop
  endfacet
  facet normal 0 0 1
    outer loop
      vertex 4.04012 -2.02621 4
      vertex 3.21013 -2.47552 4
      vertex 3.37262 -2.86346 4
    endloop
  endfacet
  facet normal 0 0 1
    outer loop
      vertex 2.93932 -2.15242 4
      vertex 3.68538 -1.51073 4
      vertex 3.18874 -1.08563 4
    endloop
  endfacet
  facet normal 0 0 1
    outer loop
      vertex 3.68538 -1.51073 4
      vertex 2.93932 -2.15242 4
      vertex 3.21013 -2.47552 4
    endloop
  endfacet
  facet normal 0 0 1
    outer loop
      vertex 3.18874 -1.08563 4
      vertex 2.56018 -1.89418 4
      vertex 2.93932 -2.15242 4
    endloop
  endfacet
  facet normal 0 0 1
    outer loop
      vertex 2.55745 -0.753189 4
      vertex 2.56018 -1.89418 4
      vertex 3.18874 -1.08563 4
    endloop
  endfacet
  facet normal 0 0 1
    outer loop
      vertex 2.55745 -0.753189 4
      vertex 2.06885 -1.69661 4
      vertex 2.56018 -1.89418 4
    endloop
  endfacet
  facet normal 0 0 1
    outer loop
      vertex 1.79875 -0.515732 4
      vertex 2.06885 -1.69661 4
      vertex 2.55745 -0.753189 4
    endloop
  endfacet
  facet normal 0 0 1
    outer loop
      vertex 1.79875 -0.515732 4
      vertex 1.46156 -1.55547 4
      vertex 2.06885 -1.69661 4
    endloop
  endfacet
  facet normal 0 0 1
    outer loop
      vertex 0.912659 -0.373245 4
      vertex 1.46156 -1.55547 4
      vertex 1.79875 -0.515732 4
    endloop
  endfacet
  facet normal 0 0 1
    outer loop
      vertex 0.912659 -0.373245 4
      vertex 0.738342 -1.47079 4
      vertex 1.46156 -1.55547 4
    endloop
  endfacet
  facet normal 0 0 1
    outer loop
      vertex -0.10083 -0.32576 4
      vertex 0.738342 -1.47079 4
      vertex 0.912659 -0.373245 4
    endloop
  endfacet
  facet normal 0 0 1
    outer loop
      vertex -0.10083 -0.32576 4
      vertex -0.10083 -1.44257 4
      vertex 0.738342 -1.47079 4
    endloop
  endfacet
  facet normal 0 0 1
    outer loop
      vertex -0.10083 -0.32576 4
      vertex -0.967484 -1.46947 4
      vertex -0.10083 -1.44257 4
    endloop
  endfacet
  facet normal -0 0 1
    outer loop
      vertex -1.12923 -0.370956 4
      vertex -0.967484 -1.46947 4
      vertex -0.10083 -0.32576 4
    endloop
  endfacet
  facet normal 0 0 1
    outer loop
      vertex -1.12923 -0.370956 4
      vertex -1.70596 -1.55014 4
      vertex -0.967484 -1.46947 4
    endloop
  endfacet
  facet normal -0 0 1
    outer loop
      vertex -2.02333 -0.506561 4
      vertex -1.70596 -1.55014 4
      vertex -1.12923 -0.370956 4
    endloop
  endfacet
  facet normal 0 0 1
    outer loop
      vertex -2.02333 -0.506561 4
      vertex -2.31627 -1.6846 4
      vertex -1.70596 -1.55014 4
    endloop
  endfacet
  facet normal -0 0 1
    outer loop
      vertex -2.78316 -0.732574 4
      vertex -2.31627 -1.6846 4
      vertex -2.02333 -0.506561 4
    endloop
  endfacet
  facet normal 0 0 1
    outer loop
      vertex -2.78316 -0.732574 4
      vertex -2.7984 -1.87286 4
      vertex -2.31627 -1.6846 4
    endloop
  endfacet
  facet normal -0 0 1
    outer loop
      vertex -3.40869 -1.049 4
      vertex -2.7984 -1.87286 4
      vertex -2.78316 -0.732574 4
    endloop
  endfacet
  facet normal 0 0 1
    outer loop
      vertex -2.7984 -1.87286 4
      vertex -3.40869 -1.049 4
      vertex -3.1642 -2.12289 4
    endloop
  endfacet
  facet normal -0 0 1
    outer loop
      vertex -3.89734 -1.46036 4
      vertex -3.1642 -2.12289 4
      vertex -3.40869 -1.049 4
    endloop
  endfacet
  facet normal 0 0 1
    outer loop
      vertex -3.1642 -2.12289 4
      vertex -3.89734 -1.46036 4
      vertex -3.42548 -2.44273 4
    endloop
  endfacet
  facet normal -0 0 1
    outer loop
      vertex -4.24637 -1.97127 4
      vertex -3.42548 -2.44273 4
      vertex -3.89734 -1.46036 4
    endloop
  endfacet
  facet normal 0 0 1
    outer loop
      vertex -4.4558 -2.58176 4
      vertex -3.42548 -2.44273 4
      vertex -4.24637 -1.97127 4
    endloop
  endfacet
  facet normal -0 0 1
    outer loop
      vertex 3.37262 -2.86346 4
      vertex 4.32391 -3.32843 4
      vertex 4.25296 -2.63213 4
    endloop
  endfacet
  facet normal 0 0 1
    outer loop
      vertex 3.37376 -3.77153 4
      vertex 4.32391 -3.32843 4
      vertex 3.42679 -3.31628 4
    endloop
  endfacet
  facet normal 0 0 1
    outer loop
      vertex 3.37262 -2.86346 4
      vertex 4.25296 -2.63213 4
      vertex 4.04012 -2.02621 4
    endloop
  endfacet
  facet normal 0 0 1
    outer loop
      vertex 4.32391 -3.32843 4
      vertex 3.37376 -3.77153 4
      vertex 4.25334 -4.02382 4
    endloop
  endfacet
  facet normal 0 0 1
    outer loop
      vertex 3.21013 -2.47552 4
      vertex 4.04012 -2.02621 4
      vertex 3.68538 -1.51073 4
    endloop
  endfacet
  facet normal 0 0 1
    outer loop
      vertex 3.21471 -4.1608 4
      vertex 4.25334 -4.02382 4
      vertex 3.37376 -3.77153 4
    endloop
  endfacet
  facet normal 0 0 1
    outer loop
      vertex 4.25334 -4.02382 4
      vertex 3.21471 -4.1608 4
      vertex 4.04164 -4.62691 4
    endloop
  endfacet
  facet normal 0 0 1
    outer loop
      vertex 4.04164 -4.62691 4
      vertex 3.21471 -4.1608 4
      vertex 3.68881 -5.13766 4
    endloop
  endfacet
  facet normal -0 0 1
    outer loop
      vertex 2.9496 -4.48405 4
      vertex 3.68881 -5.13766 4
      vertex 3.21471 -4.1608 4
    endloop
  endfacet
  facet normal 0 0 1
    outer loop
      vertex 3.68881 -5.13766 4
      vertex 2.9496 -4.48405 4
      vertex 3.19485 -5.55611 4
    endloop
  endfacet
  facet normal -0 0 1
    outer loop
      vertex 2.57845 -4.74133 4
      vertex 3.19485 -5.55611 4
      vertex 2.9496 -4.48405 4
    endloop
  endfacet
  facet normal 0 0 1
    outer loop
      vertex 2.57845 -4.74133 4
      vertex 2.56548 -5.88185 4
      vertex 3.19485 -5.55611 4
    endloop
  endfacet
  facet normal -0 0 1
    outer loop
      vertex 2.09286 -4.93758 4
      vertex 2.56548 -5.88185 4
      vertex 2.57845 -4.74133 4
    endloop
  endfacet
  facet normal 0 0 1
    outer loop
      vertex 2.09286 -4.93758 4
      vertex 1.80641 -6.11453 4
      vertex 2.56548 -5.88185 4
    endloop
  endfacet
  facet normal -0 0 1
    outer loop
      vertex 1.48445 -5.07776 4
      vertex 1.80641 -6.11453 4
      vertex 2.09286 -4.93758 4
    endloop
  endfacet
  facet normal 0 0 1
    outer loop
      vertex 1.48445 -5.07776 4
      vertex 0.917633 -6.25414 4
      vertex 1.80641 -6.11453 4
    endloop
  endfacet
  facet normal -0 0 1
    outer loop
      vertex 0.75322 -5.16187 4
      vertex 0.917633 -6.25414 4
      vertex 1.48445 -5.07776 4
    endloop
  endfacet
  facet normal 0 0 1
    outer loop
      vertex -0.10083 -6.30067 4
      vertex 0.75322 -5.16187 4
      vertex -0.10083 -5.1899 4
    endloop
  endfacet
  facet normal 0 0 1
    outer loop
      vertex 0.75322 -5.16187 4
      vertex -0.10083 -6.30067 4
      vertex 0.917633 -6.25414 4
    endloop
  endfacet
  facet normal 0 0 1
    outer loop
      vertex -0.977386 -5.16225 4
      vertex -0.10083 -6.30067 4
      vertex -0.10083 -5.1899 4
    endloop
  endfacet
  facet normal 0 0 1
    outer loop
      vertex -0.977386 -5.16225 4
      vertex -1.13913 -6.25548 4
      vertex -0.10083 -6.30067 4
    endloop
  endfacet
  facet normal 0 0 1
    outer loop
      vertex -1.72119 -5.07928 4
      vertex -1.13913 -6.25548 4
      vertex -0.977386 -5.16225 4
    endloop
  endfacet
  facet normal 0 0 1
    outer loop
      vertex -1.72119 -5.07928 4
      vertex -2.03859 -6.11987 4
      vertex -1.13913 -6.25548 4
    endloop
  endfacet
  facet normal 0 0 1
    outer loop
      vertex -2.33224 -4.94102 4
      vertex -2.03859 -6.11987 4
      vertex -1.72119 -5.07928 4
    endloop
  endfacet
  facet normal 0 0 1
    outer loop
      vertex -2.33224 -4.94102 4
      vertex -2.79918 -5.89386 4
      vertex -2.03859 -6.11987 4
    endloop
  endfacet
  facet normal 0 0 1
    outer loop
      vertex -2.81056 -4.74745 4
      vertex -2.79918 -5.89386 4
      vertex -2.33224 -4.94102 4
    endloop
  endfacet
  facet normal 0 0 1
    outer loop
      vertex -3.42094 -5.57744 4
      vertex -2.81056 -4.74745 4
      vertex -3.17104 -4.49052 4
    endloop
  endfacet
  facet normal 0 0 1
    outer loop
      vertex -2.81056 -4.74745 4
      vertex -3.42094 -5.57744 4
      vertex -2.79918 -5.89386 4
    endloop
  endfacet
  facet normal 0 0 1
    outer loop
      vertex -4.24944 -4.64441 4
      vertex -3.17104 -4.49052 4
      vertex -3.42851 -4.16228 4
    endloop
  endfacet
  facet normal -0 0 1
    outer loop
      vertex -4.45656 -4.02055 4
      vertex -3.42851 -4.16228 4
      vertex -3.58301 -3.7627 4
    endloop
  endfacet
  facet normal -0 0 1
    outer loop
      vertex -4.5256 -3.29179 4
      vertex -3.58301 -3.7627 4
      vertex -3.63451 -3.29179 4
    endloop
  endfacet
  facet normal 0 0 1
    outer loop
      vertex -3.42548 -2.44273 4
      vertex -4.4558 -2.58176 4
      vertex -3.58224 -2.83237 4
    endloop
  endfacet
  facet normal 0 0 1
    outer loop
      vertex -3.58301 -3.7627 4
      vertex -4.5256 -3.29179 4
      vertex -4.45656 -4.02055 4
    endloop
  endfacet
  facet normal 0 0 1
    outer loop
      vertex -4.5256 -3.29179 4
      vertex -3.58224 -2.83237 4
      vertex -4.4558 -2.58176 4
    endloop
  endfacet
  facet normal 0 0 1
    outer loop
      vertex -3.42851 -4.16228 4
      vertex -4.45656 -4.02055 4
      vertex -4.24944 -4.64441 4
    endloop
  endfacet
  facet normal 0 0 1
    outer loop
      vertex -3.58224 -2.83237 4
      vertex -4.5256 -3.29179 4
      vertex -3.63451 -3.29179 4
    endloop
  endfacet
  facet normal 0 0 1
    outer loop
      vertex -3.17104 -4.49052 4
      vertex -3.90422 -5.16338 4
      vertex -3.42094 -5.57744 4
    endloop
  endfacet
  facet normal 0 0 1
    outer loop
      vertex -3.17104 -4.49052 4
      vertex -4.24944 -4.64441 4
      vertex -3.90422 -5.16338 4
    endloop
  endfacet
  facet normal 0 0 1
    outer loop
      vertex 1.38829 -8.20099 4
      vertex -3.15849 -9.23851 4
      vertex 1.38829 -9.23851 4
    endloop
  endfacet
  facet normal 0 -0 1
    outer loop
      vertex -3.15849 -9.23851 4
      vertex 1.38829 -8.20099 4
      vertex -4.39743 -8.20099 4
    endloop
  endfacet
  facet normal 0 0 1
    outer loop
      vertex 1.38829 -8.20099 4
      vertex 2.25499 -8.20099 4
      vertex 2.25499 -6.99257 4
    endloop
  endfacet
  facet normal 0 0 1
    outer loop
      vertex 2.25499 -8.20099 4
      vertex 1.38829 -8.20099 4
      vertex 2.25499 -9.23851 4
    endloop
  endfacet
  facet normal 0 0 1
    outer loop
      vertex 1.38829 -12.2779 4
      vertex 2.25499 -9.23851 4
      vertex 1.38829 -9.23851 4
    endloop
  endfacet
  facet normal 0 0 1
    outer loop
      vertex 1.38829 -8.20099 4
      vertex 2.25499 -6.99257 4
      vertex 1.38829 -6.99257 4
    endloop
  endfacet
  facet normal 0 0 1
    outer loop
      vertex 2.25499 -9.23851 4
      vertex 1.38829 -8.20099 4
      vertex 1.38829 -9.23851 4
    endloop
  endfacet
  facet normal 0 0 1
    outer loop
      vertex 2.25499 -9.23851 4
      vertex 1.38829 -12.2779 4
      vertex 2.25499 -13.291 4
    endloop
  endfacet
  facet normal 0 0 1
    outer loop
      vertex 2.25499 -13.291 4
      vertex 1.38829 -12.2779 4
      vertex 1.40053 -13.291 4
    endloop
  endfacet
  facet normal 0 0 1
    outer loop
      vertex 1.26625 -12.1803 4
      vertex 1.40053 -13.291 4
      vertex 1.38829 -12.2779 4
    endloop
  endfacet
  facet normal 0 0 1
    outer loop
      vertex 0.814621 -11.8507 4
      vertex 1.40053 -13.291 4
      vertex 1.26625 -12.1803 4
    endloop
  endfacet
  facet normal 0 0 1
    outer loop
      vertex -2.43219 -9.64748 4
      vertex 1.40053 -13.291 4
      vertex 0.814621 -11.8507 4
    endloop
  endfacet
  facet normal 0 0 1
    outer loop
      vertex -4.39743 -9.35452 4
      vertex -2.43219 -9.64748 4
      vertex -2.50089 -9.60283 4
    endloop
  endfacet
  facet normal 0 0 1
    outer loop
      vertex -4.39743 -9.35452 4
      vertex -2.50089 -9.60283 4
      vertex -2.59091 -9.54826 4
    endloop
  endfacet
  facet normal 0 0 1
    outer loop
      vertex -4.39743 -9.35452 4
      vertex -2.59091 -9.54826 4
      vertex -2.7023 -9.48381 4
    endloop
  endfacet
  facet normal 0 0 1
    outer loop
      vertex -4.39743 -9.35452 4
      vertex -2.7023 -9.48381 4
      vertex -2.83504 -9.40942 4
    endloop
  endfacet
  facet normal -0 0 1
    outer loop
      vertex -4.39743 -9.35452 4
      vertex -2.83504 -9.40942 4
      vertex -2.96281 -9.33923 4
    endloop
  endfacet
  facet normal 0 0 1
    outer loop
      vertex -4.39743 -9.35452 4
      vertex -2.96281 -9.33923 4
      vertex -3.05931 -9.28735 4
    endloop
  endfacet
  facet normal 0 0 1
    outer loop
      vertex -4.39743 -9.35452 4
      vertex -3.05931 -9.28735 4
      vertex -3.12454 -9.25378 4
    endloop
  endfacet
  facet normal 0 0 1
    outer loop
      vertex -4.39743 -9.35452 4
      vertex -3.12454 -9.25378 4
      vertex -3.15849 -9.23851 4
    endloop
  endfacet
  facet normal 0 0 1
    outer loop
      vertex -4.39743 -9.35452 4
      vertex -3.15849 -9.23851 4
      vertex -4.39743 -8.20099 4
    endloop
  endfacet
  facet normal 0 0 1
    outer loop
      vertex -2.43219 -9.64748 4
      vertex -4.39743 -9.35452 4
      vertex 1.40053 -13.291 4
    endloop
  endfacet
  facet normal -0 0 1
    outer loop
      vertex 2.25499 -8.20099 4
      vertex 4.20187 -9.23851 4
      vertex 4.20187 -8.20099 4
    endloop
  endfacet
  facet normal 0 0 1
    outer loop
      vertex 4.20187 -9.23851 4
      vertex 2.25499 -8.20099 4
      vertex 2.25499 -9.23851 4
    endloop
  endfacet
  facet normal -0.943485 -0.331416 0
    outer loop
      vertex 4.25296 -2.63213 4
      vertex 4.04012 -2.02621 4.5
      vertex 4.04012 -2.02621 4
    endloop
  endfacet
  facet normal -0.943485 -0.331416 0
    outer loop
      vertex 4.04012 -2.02621 4.5
      vertex 4.25296 -2.63213 4
      vertex 4.25296 -2.63213 4.5
    endloop
  endfacet
  facet normal -0.823783 -0.566906 0
    outer loop
      vertex 4.04012 -2.02621 4
      vertex 3.68538 -1.51073 4.5
      vertex 3.68538 -1.51073 4
    endloop
  endfacet
  facet normal -0.823783 -0.566906 0
    outer loop
      vertex 3.68538 -1.51073 4.5
      vertex 4.04012 -2.02621 4
      vertex 4.04012 -2.02621 4.5
    endloop
  endfacet
  facet normal -0.65027 -0.759703 0
    outer loop
      vertex 3.18874 -1.08563 4
      vertex 3.68538 -1.51073 4.5
      vertex 3.18874 -1.08563 4.5
    endloop
  endfacet
  facet normal -0.65027 -0.759703 -0
    outer loop
      vertex 3.68538 -1.51073 4.5
      vertex 3.18874 -1.08563 4
      vertex 3.68538 -1.51073 4
    endloop
  endfacet
  facet normal -0.465947 -0.884812 0
    outer loop
      vertex 2.55745 -0.753189 4
      vertex 3.18874 -1.08563 4.5
      vertex 2.55745 -0.753189 4.5
    endloop
  endfacet
  facet normal -0.465947 -0.884812 -0
    outer loop
      vertex 3.18874 -1.08563 4.5
      vertex 2.55745 -0.753189 4
      vertex 3.18874 -1.08563 4
    endloop
  endfacet
  facet normal -0.298691 -0.95435 0
    outer loop
      vertex 1.79875 -0.515732 4
      vertex 2.55745 -0.753189 4.5
      vertex 1.79875 -0.515732 4.5
    endloop
  endfacet
  facet normal -0.298691 -0.95435 -0
    outer loop
      vertex 2.55745 -0.753189 4.5
      vertex 1.79875 -0.515732 4
      vertex 2.55745 -0.753189 4
    endloop
  endfacet
  facet normal -0.158764 -0.987316 0
    outer loop
      vertex 0.912659 -0.373245 4
      vertex 1.79875 -0.515732 4.5
      vertex 0.912659 -0.373245 4.5
    endloop
  endfacet
  facet normal -0.158764 -0.987316 -0
    outer loop
      vertex 1.79875 -0.515732 4.5
      vertex 0.912659 -0.373245 4
      vertex 1.79875 -0.515732 4
    endloop
  endfacet
  facet normal -0.0468017 -0.998904 0
    outer loop
      vertex -0.10083 -0.32576 4
      vertex 0.912659 -0.373245 4.5
      vertex -0.10083 -0.32576 4.5
    endloop
  endfacet
  facet normal -0.0468017 -0.998904 -0
    outer loop
      vertex 0.912659 -0.373245 4.5
      vertex -0.10083 -0.32576 4
      vertex 0.912659 -0.373245 4
    endloop
  endfacet
  facet normal 0.0439055 -0.999036 0
    outer loop
      vertex -1.12923 -0.370956 4
      vertex -0.10083 -0.32576 4.5
      vertex -1.12923 -0.370956 4.5
    endloop
  endfacet
  facet normal 0.0439055 -0.999036 0
    outer loop
      vertex -0.10083 -0.32576 4.5
      vertex -1.12923 -0.370956 4
      vertex -0.10083 -0.32576 4
    endloop
  endfacet
  facet normal 0.149952 -0.988693 0
    outer loop
      vertex -2.02333 -0.506561 4
      vertex -1.12923 -0.370956 4.5
      vertex -2.02333 -0.506561 4.5
    endloop
  endfacet
  facet normal 0.149952 -0.988693 0
    outer loop
      vertex -1.12923 -0.370956 4.5
      vertex -2.02333 -0.506561 4
      vertex -1.12923 -0.370956 4
    endloop
  endfacet
  facet normal 0.285107 -0.958496 0
    outer loop
      vertex -2.78316 -0.732574 4
      vertex -2.02333 -0.506561 4.5
      vertex -2.78316 -0.732574 4.5
    endloop
  endfacet
  facet normal 0.285107 -0.958496 0
    outer loop
      vertex -2.02333 -0.506561 4.5
      vertex -2.78316 -0.732574 4
      vertex -2.02333 -0.506561 4
    endloop
  endfacet
  facet normal 0.451387 -0.892328 0
    outer loop
      vertex -3.40869 -1.049 4
      vertex -2.78316 -0.732574 4.5
      vertex -3.40869 -1.049 4.5
    endloop
  endfacet
  facet normal 0.451387 -0.892328 0
    outer loop
      vertex -2.78316 -0.732574 4.5
      vertex -3.40869 -1.049 4
      vertex -2.78316 -0.732574 4
    endloop
  endfacet
  facet normal 0.644012 -0.765015 0
    outer loop
      vertex -3.89734 -1.46036 4
      vertex -3.40869 -1.049 4.5
      vertex -3.89734 -1.46036 4.5
    endloop
  endfacet
  facet normal 0.644012 -0.765015 0
    outer loop
      vertex -3.40869 -1.049 4.5
      vertex -3.89734 -1.46036 4
      vertex -3.40869 -1.049 4
    endloop
  endfacet
  facet normal 0.825714 -0.564089 0
    outer loop
      vertex -4.24637 -1.97127 4.5
      vertex -3.89734 -1.46036 4
      vertex -3.89734 -1.46036 4.5
    endloop
  endfacet
  facet normal 0.825714 -0.564089 0
    outer loop
      vertex -3.89734 -1.46036 4
      vertex -4.24637 -1.97127 4.5
      vertex -4.24637 -1.97127 4
    endloop
  endfacet
  facet normal 0.945889 -0.32449 0
    outer loop
      vertex -4.4558 -2.58176 4.5
      vertex -4.24637 -1.97127 4
      vertex -4.24637 -1.97127 4.5
    endloop
  endfacet
  facet normal 0.945889 -0.32449 0
    outer loop
      vertex -4.24637 -1.97127 4
      vertex -4.4558 -2.58176 4.5
      vertex -4.4558 -2.58176 4
    endloop
  endfacet
  facet normal 0.995203 -0.0978341 0
    outer loop
      vertex -4.5256 -3.29179 4.5
      vertex -4.4558 -2.58176 4
      vertex -4.4558 -2.58176 4.5
    endloop
  endfacet
  facet normal 0.995203 -0.0978341 0
    outer loop
      vertex -4.4558 -2.58176 4
      vertex -4.5256 -3.29179 4.5
      vertex -4.5256 -3.29179 4
    endloop
  endfacet
  facet normal 0.995543 0.094314 0
    outer loop
      vertex -4.45656 -4.02055 4.5
      vertex -4.5256 -3.29179 4
      vertex -4.5256 -3.29179 4.5
    endloop
  endfacet
  facet normal 0.995543 0.094314 0
    outer loop
      vertex -4.5256 -3.29179 4
      vertex -4.45656 -4.02055 4.5
      vertex -4.45656 -4.02055 4
    endloop
  endfacet
  facet normal 0.949063 0.315087 0
    outer loop
      vertex -4.24944 -4.64441 4.5
      vertex -4.45656 -4.02055 4
      vertex -4.45656 -4.02055 4.5
    endloop
  endfacet
  facet normal 0.949063 0.315087 0
    outer loop
      vertex -4.45656 -4.02055 4
      vertex -4.24944 -4.64441 4.5
      vertex -4.24944 -4.64441 4
    endloop
  endfacet
  facet normal 0.832613 0.553856 0
    outer loop
      vertex -3.90422 -5.16338 4.5
      vertex -4.24944 -4.64441 4
      vertex -4.24944 -4.64441 4.5
    endloop
  endfacet
  facet normal 0.832613 0.553856 0
    outer loop
      vertex -4.24944 -4.64441 4
      vertex -3.90422 -5.16338 4.5
      vertex -3.90422 -5.16338 4
    endloop
  endfacet
  facet normal 0.650628 0.759396 -0
    outer loop
      vertex -3.42094 -5.57744 4
      vertex -3.90422 -5.16338 4.5
      vertex -3.42094 -5.57744 4.5
    endloop
  endfacet
  facet normal 0.650628 0.759396 0
    outer loop
      vertex -3.90422 -5.16338 4.5
      vertex -3.42094 -5.57744 4
      vertex -3.90422 -5.16338 4
    endloop
  endfacet
  facet normal 0.453555 0.891228 -0
    outer loop
      vertex -2.79918 -5.89386 4
      vertex -3.42094 -5.57744 4.5
      vertex -2.79918 -5.89386 4.5
    endloop
  endfacet
  facet normal 0.453555 0.891228 0
    outer loop
      vertex -3.42094 -5.57744 4.5
      vertex -2.79918 -5.89386 4
      vertex -3.42094 -5.57744 4
    endloop
  endfacet
  facet normal 0.284841 0.958575 -0
    outer loop
      vertex -2.03859 -6.11987 4
      vertex -2.79918 -5.89386 4.5
      vertex -2.03859 -6.11987 4.5
    endloop
  endfacet
  facet normal 0.284841 0.958575 0
    outer loop
      vertex -2.79918 -5.89386 4.5
      vertex -2.03859 -6.11987 4
      vertex -2.79918 -5.89386 4
    endloop
  endfacet
  facet normal 0.149083 0.988825 -0
    outer loop
      vertex -1.13913 -6.25548 4
      vertex -2.03859 -6.11987 4.5
      vertex -1.13913 -6.25548 4.5
    endloop
  endfacet
  facet normal 0.149083 0.988825 0
    outer loop
      vertex -2.03859 -6.11987 4.5
      vertex -1.13913 -6.25548 4
      vertex -2.03859 -6.11987 4
    endloop
  endfacet
  facet normal 0.0434819 0.999054 -0
    outer loop
      vertex -0.10083 -6.30067 4
      vertex -1.13913 -6.25548 4.5
      vertex -0.10083 -6.30067 4.5
    endloop
  endfacet
  facet normal 0.0434819 0.999054 0
    outer loop
      vertex -1.13913 -6.25548 4.5
      vertex -0.10083 -6.30067 4
      vertex -1.13913 -6.25548 4
    endloop
  endfacet
  facet normal -0.0456389 0.998958 0
    outer loop
      vertex 0.917633 -6.25414 4
      vertex -0.10083 -6.30067 4.5
      vertex 0.917633 -6.25414 4.5
    endloop
  endfacet
  facet normal -0.0456389 0.998958 0
    outer loop
      vertex -0.10083 -6.30067 4.5
      vertex 0.917633 -6.25414 4
      vertex -0.10083 -6.30067 4
    endloop
  endfacet
  facet normal -0.155178 0.987886 0
    outer loop
      vertex 1.80641 -6.11453 4
      vertex 0.917633 -6.25414 4.5
      vertex 1.80641 -6.11453 4.5
    endloop
  endfacet
  facet normal -0.155178 0.987886 0
    outer loop
      vertex 0.917633 -6.25414 4.5
      vertex 1.80641 -6.11453 4
      vertex 0.917633 -6.25414 4
    endloop
  endfacet
  facet normal -0.293073 0.95609 0
    outer loop
      vertex 2.56548 -5.88185 4
      vertex 1.80641 -6.11453 4.5
      vertex 2.56548 -5.88185 4.5
    endloop
  endfacet
  facet normal -0.293073 0.95609 0
    outer loop
      vertex 1.80641 -6.11453 4.5
      vertex 2.56548 -5.88185 4
      vertex 1.80641 -6.11453 4
    endloop
  endfacet
  facet normal -0.45965 0.8881 0
    outer loop
      vertex 3.19485 -5.55611 4
      vertex 2.56548 -5.88185 4.5
      vertex 3.19485 -5.55611 4.5
    endloop
  endfacet
  facet normal -0.45965 0.8881 0
    outer loop
      vertex 2.56548 -5.88185 4.5
      vertex 3.19485 -5.55611 4
      vertex 2.56548 -5.88185 4
    endloop
  endfacet
  facet normal -0.646378 0.763018 0
    outer loop
      vertex 3.68881 -5.13766 4
      vertex 3.19485 -5.55611 4.5
      vertex 3.68881 -5.13766 4.5
    endloop
  endfacet
  facet normal -0.646378 0.763018 0
    outer loop
      vertex 3.19485 -5.55611 4.5
      vertex 3.68881 -5.13766 4
      vertex 3.19485 -5.55611 4
    endloop
  endfacet
  facet normal -0.822769 0.568375 0
    outer loop
      vertex 3.68881 -5.13766 4
      vertex 4.04164 -4.62691 4.5
      vertex 4.04164 -4.62691 4
    endloop
  endfacet
  facet normal -0.822769 0.568375 0
    outer loop
      vertex 4.04164 -4.62691 4.5
      vertex 3.68881 -5.13766 4
      vertex 3.68881 -5.13766 4.5
    endloop
  endfacet
  facet normal -0.943556 0.331212 0
    outer loop
      vertex 4.04164 -4.62691 4
      vertex 4.25334 -4.02382 4.5
      vertex 4.25334 -4.02382 4
    endloop
  endfacet
  facet normal -0.943556 0.331212 0
    outer loop
      vertex 4.25334 -4.02382 4.5
      vertex 4.04164 -4.62691 4
      vertex 4.04164 -4.62691 4.5
    endloop
  endfacet
  facet normal -0.99489 0.100964 0
    outer loop
      vertex 4.25334 -4.02382 4
      vertex 4.32391 -3.32843 4.5
      vertex 4.32391 -3.32843 4
    endloop
  endfacet
  facet normal -0.99489 0.100964 0
    outer loop
      vertex 4.32391 -3.32843 4.5
      vertex 4.25334 -4.02382 4
      vertex 4.25334 -4.02382 4.5
    endloop
  endfacet
  facet normal -0.994849 -0.101371 0
    outer loop
      vertex 4.32391 -3.32843 4
      vertex 4.25296 -2.63213 4.5
      vertex 4.25296 -2.63213 4
    endloop
  endfacet
  facet normal -0.994849 -0.101371 0
    outer loop
      vertex 4.25296 -2.63213 4.5
      vertex 4.32391 -3.32843 4
      vertex 4.32391 -3.32843 4.5
    endloop
  endfacet
  facet normal 0.925711 -0.378232 0
    outer loop
      vertex 3.21471 -4.1608 4.5
      vertex 3.37376 -3.77153 4
      vertex 3.37376 -3.77153 4.5
    endloop
  endfacet
  facet normal 0.925711 -0.378232 0
    outer loop
      vertex 3.37376 -3.77153 4
      vertex 3.21471 -4.1608 4.5
      vertex 3.21471 -4.1608 4
    endloop
  endfacet
  facet normal 0.773215 -0.634144 0
    outer loop
      vertex 2.9496 -4.48405 4.5
      vertex 3.21471 -4.1608 4
      vertex 3.21471 -4.1608 4.5
    endloop
  endfacet
  facet normal 0.773215 -0.634144 0
    outer loop
      vertex 3.21471 -4.1608 4
      vertex 2.9496 -4.48405 4.5
      vertex 2.9496 -4.48405 4
    endloop
  endfacet
  facet normal 0.569704 -0.82185 0
    outer loop
      vertex 2.57845 -4.74133 4
      vertex 2.9496 -4.48405 4.5
      vertex 2.57845 -4.74133 4.5
    endloop
  endfacet
  facet normal 0.569704 -0.82185 0
    outer loop
      vertex 2.9496 -4.48405 4.5
      vertex 2.57845 -4.74133 4
      vertex 2.9496 -4.48405 4
    endloop
  endfacet
  facet normal 0.374703 -0.927145 0
    outer loop
      vertex 2.09286 -4.93758 4
      vertex 2.57845 -4.74133 4.5
      vertex 2.09286 -4.93758 4.5
    endloop
  endfacet
  facet normal 0.374703 -0.927145 0
    outer loop
      vertex 2.57845 -4.74133 4.5
      vertex 2.09286 -4.93758 4
      vertex 2.57845 -4.74133 4
    endloop
  endfacet
  facet normal 0.224521 -0.974469 0
    outer loop
      vertex 1.48445 -5.07776 4
      vertex 2.09286 -4.93758 4.5
      vertex 1.48445 -5.07776 4.5
    endloop
  endfacet
  facet normal 0.224521 -0.974469 0
    outer loop
      vertex 2.09286 -4.93758 4.5
      vertex 1.48445 -5.07776 4
      vertex 2.09286 -4.93758 4
    endloop
  endfacet
  facet normal 0.114272 -0.99345 0
    outer loop
      vertex 0.75322 -5.16187 4
      vertex 1.48445 -5.07776 4.5
      vertex 0.75322 -5.16187 4.5
    endloop
  endfacet
  facet normal 0.114272 -0.99345 0
    outer loop
      vertex 1.48445 -5.07776 4.5
      vertex 0.75322 -5.16187 4
      vertex 1.48445 -5.07776 4
    endloop
  endfacet
  facet normal 0.0328024 -0.999462 0
    outer loop
      vertex -0.10083 -5.1899 4
      vertex 0.75322 -5.16187 4.5
      vertex -0.10083 -5.1899 4.5
    endloop
  endfacet
  facet normal 0.0328024 -0.999462 0
    outer loop
      vertex 0.75322 -5.16187 4.5
      vertex -0.10083 -5.1899 4
      vertex 0.75322 -5.16187 4
    endloop
  endfacet
  facet normal -0.0315282 -0.999503 0
    outer loop
      vertex -0.977386 -5.16225 4
      vertex -0.10083 -5.1899 4.5
      vertex -0.977386 -5.16225 4.5
    endloop
  endfacet
  facet normal -0.0315282 -0.999503 -0
    outer loop
      vertex -0.10083 -5.1899 4.5
      vertex -0.977386 -5.16225 4
      vertex -0.10083 -5.1899 4
    endloop
  endfacet
  facet normal -0.110861 -0.993836 0
    outer loop
      vertex -1.72119 -5.07928 4
      vertex -0.977386 -5.16225 4.5
      vertex -1.72119 -5.07928 4.5
    endloop
  endfacet
  facet normal -0.110861 -0.993836 -0
    outer loop
      vertex -0.977386 -5.16225 4.5
      vertex -1.72119 -5.07928 4
      vertex -0.977386 -5.16225 4
    endloop
  endfacet
  facet normal -0.220688 -0.975345 0
    outer loop
      vertex -2.33224 -4.94102 4
      vertex -1.72119 -5.07928 4.5
      vertex -2.33224 -4.94102 4.5
    endloop
  endfacet
  facet normal -0.220688 -0.975345 -0
    outer loop
      vertex -1.72119 -5.07928 4.5
      vertex -2.33224 -4.94102 4
      vertex -1.72119 -5.07928 4
    endloop
  endfacet
  facet normal -0.375133 -0.926971 0
    outer loop
      vertex -2.81056 -4.74745 4
      vertex -2.33224 -4.94102 4.5
      vertex -2.81056 -4.74745 4.5
    endloop
  endfacet
  facet normal -0.375133 -0.926971 -0
    outer loop
      vertex -2.33224 -4.94102 4.5
      vertex -2.81056 -4.74745 4
      vertex -2.33224 -4.94102 4
    endloop
  endfacet
  facet normal -0.580407 -0.814327 0
    outer loop
      vertex -3.17104 -4.49052 4
      vertex -2.81056 -4.74745 4.5
      vertex -3.17104 -4.49052 4.5
    endloop
  endfacet
  facet normal -0.580407 -0.814327 -0
    outer loop
      vertex -2.81056 -4.74745 4.5
      vertex -3.17104 -4.49052 4
      vertex -2.81056 -4.74745 4
    endloop
  endfacet
  facet normal -0.786822 -0.61718 0
    outer loop
      vertex -3.17104 -4.49052 4
      vertex -3.42851 -4.16228 4.5
      vertex -3.42851 -4.16228 4
    endloop
  endfacet
  facet normal -0.786822 -0.61718 0
    outer loop
      vertex -3.42851 -4.16228 4.5
      vertex -3.17104 -4.49052 4
      vertex -3.17104 -4.49052 4.5
    endloop
  endfacet
  facet normal -0.932706 -0.360637 0
    outer loop
      vertex -3.42851 -4.16228 4
      vertex -3.58301 -3.7627 4.5
      vertex -3.58301 -3.7627 4
    endloop
  endfacet
  facet normal -0.932706 -0.360637 0
    outer loop
      vertex -3.58301 -3.7627 4.5
      vertex -3.42851 -4.16228 4
      vertex -3.42851 -4.16228 4.5
    endloop
  endfacet
  facet normal -0.994073 -0.108715 0
    outer loop
      vertex -3.58301 -3.7627 4
      vertex -3.63451 -3.29179 4.5
      vertex -3.63451 -3.29179 4
    endloop
  endfacet
  facet normal -0.994073 -0.108715 0
    outer loop
      vertex -3.63451 -3.29179 4.5
      vertex -3.58301 -3.7627 4
      vertex -3.58301 -3.7627 4.5
    endloop
  endfacet
  facet normal -0.99359 0.113045 0
    outer loop
      vertex -3.63451 -3.29179 4
      vertex -3.58224 -2.83237 4.5
      vertex -3.58224 -2.83237 4
    endloop
  endfacet
  facet normal -0.99359 0.113045 0
    outer loop
      vertex -3.58224 -2.83237 4.5
      vertex -3.63451 -3.29179 4
      vertex -3.63451 -3.29179 4.5
    endloop
  endfacet
  facet normal -0.927733 0.373245 0
    outer loop
      vertex -3.58224 -2.83237 4
      vertex -3.42548 -2.44273 4.5
      vertex -3.42548 -2.44273 4
    endloop
  endfacet
  facet normal -0.927733 0.373245 0
    outer loop
      vertex -3.42548 -2.44273 4.5
      vertex -3.58224 -2.83237 4
      vertex -3.58224 -2.83237 4.5
    endloop
  endfacet
  facet normal -0.77444 0.632647 0
    outer loop
      vertex -3.42548 -2.44273 4
      vertex -3.1642 -2.12289 4.5
      vertex -3.1642 -2.12289 4
    endloop
  endfacet
  facet normal -0.77444 0.632647 0
    outer loop
      vertex -3.1642 -2.12289 4.5
      vertex -3.42548 -2.44273 4
      vertex -3.42548 -2.44273 4.5
    endloop
  endfacet
  facet normal -0.564293 0.825575 0
    outer loop
      vertex -2.7984 -1.87286 4
      vertex -3.1642 -2.12289 4.5
      vertex -2.7984 -1.87286 4.5
    endloop
  endfacet
  facet normal -0.564293 0.825575 0
    outer loop
      vertex -3.1642 -2.12289 4.5
      vertex -2.7984 -1.87286 4
      vertex -3.1642 -2.12289 4
    endloop
  endfacet
  facet normal -0.36373 0.931505 0
    outer loop
      vertex -2.31627 -1.6846 4
      vertex -2.7984 -1.87286 4.5
      vertex -2.31627 -1.6846 4.5
    endloop
  endfacet
  facet normal -0.36373 0.931505 0
    outer loop
      vertex -2.7984 -1.87286 4.5
      vertex -2.31627 -1.6846 4
      vertex -2.7984 -1.87286 4
    endloop
  endfacet
  facet normal -0.215155 0.97658 0
    outer loop
      vertex -1.70596 -1.55014 4
      vertex -2.31627 -1.6846 4.5
      vertex -1.70596 -1.55014 4.5
    endloop
  endfacet
  facet normal -0.215155 0.97658 0
    outer loop
      vertex -2.31627 -1.6846 4.5
      vertex -1.70596 -1.55014 4
      vertex -2.31627 -1.6846 4
    endloop
  endfacet
  facet normal -0.108592 0.994086 0
    outer loop
      vertex -0.967484 -1.46947 4
      vertex -1.70596 -1.55014 4.5
      vertex -0.967484 -1.46947 4.5
    endloop
  endfacet
  facet normal -0.108592 0.994086 0
    outer loop
      vertex -1.70596 -1.55014 4.5
      vertex -0.967484 -1.46947 4
      vertex -1.70596 -1.55014 4
    endloop
  endfacet
  facet normal -0.031024 0.999519 0
    outer loop
      vertex -0.10083 -1.44257 4
      vertex -0.967484 -1.46947 4.5
      vertex -0.10083 -1.44257 4.5
    endloop
  endfacet
  facet normal -0.031024 0.999519 0
    outer loop
      vertex -0.967484 -1.46947 4.5
      vertex -0.10083 -1.44257 4
      vertex -0.967484 -1.46947 4
    endloop
  endfacet
  facet normal 0.0336094 0.999435 -0
    outer loop
      vertex 0.738342 -1.47079 4
      vertex -0.10083 -1.44257 4.5
      vertex 0.738342 -1.47079 4.5
    endloop
  endfacet
  facet normal 0.0336094 0.999435 0
    outer loop
      vertex -0.10083 -1.44257 4.5
      vertex 0.738342 -1.47079 4
      vertex -0.10083 -1.44257 4
    endloop
  endfacet
  facet normal 0.116293 0.993215 -0
    outer loop
      vertex 1.46156 -1.55547 4
      vertex 0.738342 -1.47079 4.5
      vertex 1.46156 -1.55547 4.5
    endloop
  endfacet
  facet normal 0.116293 0.993215 0
    outer loop
      vertex 0.738342 -1.47079 4.5
      vertex 1.46156 -1.55547 4
      vertex 0.738342 -1.47079 4
    endloop
  endfacet
  facet normal 0.226376 0.97404 -0
    outer loop
      vertex 2.06885 -1.69661 4
      vertex 1.46156 -1.55547 4.5
      vertex 2.06885 -1.69661 4.5
    endloop
  endfacet
  facet normal 0.226376 0.97404 0
    outer loop
      vertex 1.46156 -1.55547 4.5
      vertex 2.06885 -1.69661 4
      vertex 1.46156 -1.55547 4
    endloop
  endfacet
  facet normal 0.37308 0.927799 -0
    outer loop
      vertex 2.56018 -1.89418 4
      vertex 2.06885 -1.69661 4.5
      vertex 2.56018 -1.89418 4.5
    endloop
  endfacet
  facet normal 0.37308 0.927799 0
    outer loop
      vertex 2.06885 -1.69661 4.5
      vertex 2.56018 -1.89418 4
      vertex 2.06885 -1.69661 4
    endloop
  endfacet
  facet normal 0.562943 0.826496 -0
    outer loop
      vertex 2.93932 -2.15242 4
      vertex 2.56018 -1.89418 4.5
      vertex 2.93932 -2.15242 4.5
    endloop
  endfacet
  facet normal 0.562943 0.826496 0
    outer loop
      vertex 2.56018 -1.89418 4.5
      vertex 2.93932 -2.15242 4
      vertex 2.56018 -1.89418 4
    endloop
  endfacet
  facet normal 0.766398 0.642366 0
    outer loop
      vertex 3.21013 -2.47552 4.5
      vertex 2.93932 -2.15242 4
      vertex 2.93932 -2.15242 4.5
    endloop
  endfacet
  facet normal 0.766398 0.642366 0
    outer loop
      vertex 2.93932 -2.15242 4
      vertex 3.21013 -2.47552 4.5
      vertex 3.21013 -2.47552 4
    endloop
  endfacet
  facet normal 0.922359 0.386333 0
    outer loop
      vertex 3.37262 -2.86346 4.5
      vertex 3.21013 -2.47552 4
      vertex 3.21013 -2.47552 4.5
    endloop
  endfacet
  facet normal 0.922359 0.386333 0
    outer loop
      vertex 3.21013 -2.47552 4
      vertex 3.37262 -2.86346 4.5
      vertex 3.37262 -2.86346 4
    endloop
  endfacet
  facet normal 0.99292 0.118781 0
    outer loop
      vertex 3.42679 -3.31628 4.5
      vertex 3.37262 -2.86346 4
      vertex 3.37262 -2.86346 4.5
    endloop
  endfacet
  facet normal 0.99292 0.118781 0
    outer loop
      vertex 3.37262 -2.86346 4
      vertex 3.42679 -3.31628 4.5
      vertex 3.42679 -3.31628 4
    endloop
  endfacet
  facet normal 0.993284 -0.115703 0
    outer loop
      vertex 3.37376 -3.77153 4.5
      vertex 3.42679 -3.31628 4
      vertex 3.42679 -3.31628 4.5
    endloop
  endfacet
  facet normal 0.993284 -0.115703 0
    outer loop
      vertex 3.42679 -3.31628 4
      vertex 3.37376 -3.77153 4.5
      vertex 3.37376 -3.77153 4
    endloop
  endfacet
  facet normal -1 0 0
    outer loop
      vertex 2.25499 -8.20099 4
      vertex 2.25499 -6.99257 4.5
      vertex 2.25499 -6.99257 4
    endloop
  endfacet
  facet normal -1 -0 0
    outer loop
      vertex 2.25499 -6.99257 4.5
      vertex 2.25499 -8.20099 4
      vertex 2.25499 -8.20099 4.5
    endloop
  endfacet
  facet normal 0 -1 0
    outer loop
      vertex 1.38829 -6.99257 4
      vertex 2.25499 -6.99257 4.5
      vertex 1.38829 -6.99257 4.5
    endloop
  endfacet
  facet normal 0 -1 -0
    outer loop
      vertex 2.25499 -6.99257 4.5
      vertex 1.38829 -6.99257 4
      vertex 2.25499 -6.99257 4
    endloop
  endfacet
  facet normal 1 -0 0
    outer loop
      vertex 1.38829 -8.20099 4.5
      vertex 1.38829 -6.99257 4
      vertex 1.38829 -6.99257 4.5
    endloop
  endfacet
  facet normal 1 0 0
    outer loop
      vertex 1.38829 -6.99257 4
      vertex 1.38829 -8.20099 4.5
      vertex 1.38829 -8.20099 4
    endloop
  endfacet
  facet normal 0 -1 0
    outer loop
      vertex -4.39743 -8.20099 4
      vertex 1.38829 -8.20099 4.5
      vertex -4.39743 -8.20099 4.5
    endloop
  endfacet
  facet normal 0 -1 -0
    outer loop
      vertex 1.38829 -8.20099 4.5
      vertex -4.39743 -8.20099 4
      vertex 1.38829 -8.20099 4
    endloop
  endfacet
  facet normal 1 -0 0
    outer loop
      vertex -4.39743 -9.35452 4.5
      vertex -4.39743 -8.20099 4
      vertex -4.39743 -8.20099 4.5
    endloop
  endfacet
  facet normal 1 0 0
    outer loop
      vertex -4.39743 -8.20099 4
      vertex -4.39743 -9.35452 4.5
      vertex -4.39743 -9.35452 4
    endloop
  endfacet
  facet normal 0.561711 0.827333 -0
    outer loop
      vertex 1.40053 -13.291 4
      vertex -4.39743 -9.35452 4.5
      vertex 1.40053 -13.291 4.5
    endloop
  endfacet
  facet normal 0.561711 0.827333 0
    outer loop
      vertex -4.39743 -9.35452 4.5
      vertex 1.40053 -13.291 4
      vertex -4.39743 -9.35452 4
    endloop
  endfacet
  facet normal 0 1 -0
    outer loop
      vertex 2.25499 -13.291 4
      vertex 1.40053 -13.291 4.5
      vertex 2.25499 -13.291 4.5
    endloop
  endfacet
  facet normal 0 1 0
    outer loop
      vertex 1.40053 -13.291 4.5
      vertex 2.25499 -13.291 4
      vertex 1.40053 -13.291 4
    endloop
  endfacet
  facet normal -1 0 0
    outer loop
      vertex 2.25499 -13.291 4
      vertex 2.25499 -9.23851 4.5
      vertex 2.25499 -9.23851 4
    endloop
  endfacet
  facet normal -1 -0 0
    outer loop
      vertex 2.25499 -9.23851 4.5
      vertex 2.25499 -13.291 4
      vertex 2.25499 -13.291 4.5
    endloop
  endfacet
  facet normal 0 1 -0
    outer loop
      vertex 4.20187 -9.23851 4
      vertex 2.25499 -9.23851 4.5
      vertex 4.20187 -9.23851 4.5
    endloop
  endfacet
  facet normal 0 1 0
    outer loop
      vertex 2.25499 -9.23851 4.5
      vertex 4.20187 -9.23851 4
      vertex 2.25499 -9.23851 4
    endloop
  endfacet
  facet normal -1 0 0
    outer loop
      vertex 4.20187 -9.23851 4
      vertex 4.20187 -8.20099 4.5
      vertex 4.20187 -8.20099 4
    endloop
  endfacet
  facet normal -1 -0 0
    outer loop
      vertex 4.20187 -8.20099 4.5
      vertex 4.20187 -9.23851 4
      vertex 4.20187 -9.23851 4.5
    endloop
  endfacet
  facet normal 0 -1 0
    outer loop
      vertex 2.25499 -8.20099 4
      vertex 4.20187 -8.20099 4.5
      vertex 2.25499 -8.20099 4.5
    endloop
  endfacet
  facet normal 0 -1 -0
    outer loop
      vertex 4.20187 -8.20099 4.5
      vertex 2.25499 -8.20099 4
      vertex 4.20187 -8.20099 4
    endloop
  endfacet
  facet normal -0.62457 -0.780969 0
    outer loop
      vertex 1.26625 -12.1803 4
      vertex 1.38829 -12.2779 4.5
      vertex 1.26625 -12.1803 4.5
    endloop
  endfacet
  facet normal -0.62457 -0.780969 -0
    outer loop
      vertex 1.38829 -12.2779 4.5
      vertex 1.26625 -12.1803 4
      vertex 1.38829 -12.2779 4
    endloop
  endfacet
  facet normal -0.589507 -0.807763 0
    outer loop
      vertex 0.814621 -11.8507 4
      vertex 1.26625 -12.1803 4.5
      vertex 0.814621 -11.8507 4.5
    endloop
  endfacet
  facet normal -0.589507 -0.807763 -0
    outer loop
      vertex 1.26625 -12.1803 4.5
      vertex 0.814621 -11.8507 4
      vertex 1.26625 -12.1803 4
    endloop
  endfacet
  facet normal -0.561506 -0.827473 0
    outer loop
      vertex -2.43219 -9.64748 4
      vertex 0.814621 -11.8507 4.5
      vertex -2.43219 -9.64748 4.5
    endloop
  endfacet
  facet normal -0.561506 -0.827473 -0
    outer loop
      vertex 0.814621 -11.8507 4.5
      vertex -2.43219 -9.64748 4
      vertex 0.814621 -11.8507 4
    endloop
  endfacet
  facet normal -0.544945 -0.838471 0
    outer loop
      vertex -2.50089 -9.60283 4
      vertex -2.43219 -9.64748 4.5
      vertex -2.50089 -9.60283 4.5
    endloop
  endfacet
  facet normal -0.544945 -0.838471 -0
    outer loop
      vertex -2.43219 -9.64748 4.5
      vertex -2.50089 -9.60283 4
      vertex -2.43219 -9.64748 4
    endloop
  endfacet
  facet normal -0.518388 -0.855146 0
    outer loop
      vertex -2.59091 -9.54826 4
      vertex -2.50089 -9.60283 4.5
      vertex -2.59091 -9.54826 4.5
    endloop
  endfacet
  facet normal -0.518388 -0.855146 -0
    outer loop
      vertex -2.50089 -9.60283 4.5
      vertex -2.59091 -9.54826 4
      vertex -2.50089 -9.60283 4
    endloop
  endfacet
  facet normal -0.50081 -0.865557 0
    outer loop
      vertex -2.7023 -9.48381 4
      vertex -2.59091 -9.54826 4.5
      vertex -2.7023 -9.48381 4.5
    endloop
  endfacet
  facet normal -0.50081 -0.865557 -0
    outer loop
      vertex -2.59091 -9.54826 4.5
      vertex -2.7023 -9.48381 4
      vertex -2.59091 -9.54826 4
    endloop
  endfacet
  facet normal -0.488882 -0.87235 0
    outer loop
      vertex -2.83504 -9.40942 4
      vertex -2.7023 -9.48381 4.5
      vertex -2.83504 -9.40942 4.5
    endloop
  endfacet
  facet normal -0.488882 -0.87235 -0
    outer loop
      vertex -2.7023 -9.48381 4.5
      vertex -2.83504 -9.40942 4
      vertex -2.7023 -9.48381 4
    endloop
  endfacet
  facet normal -0.481479 -0.876458 0
    outer loop
      vertex -2.96281 -9.33923 4
      vertex -2.83504 -9.40942 4.5
      vertex -2.96281 -9.33923 4.5
    endloop
  endfacet
  facet normal -0.481479 -0.876458 -0
    outer loop
      vertex -2.83504 -9.40942 4.5
      vertex -2.96281 -9.33923 4
      vertex -2.83504 -9.40942 4
    endloop
  endfacet
  facet normal -0.473523 -0.880782 0
    outer loop
      vertex -3.05931 -9.28735 4
      vertex -2.96281 -9.33923 4.5
      vertex -3.05931 -9.28735 4.5
    endloop
  endfacet
  facet normal -0.473523 -0.880782 -0
    outer loop
      vertex -2.96281 -9.33923 4.5
      vertex -3.05931 -9.28735 4
      vertex -2.96281 -9.33923 4
    endloop
  endfacet
  facet normal -0.457597 -0.889159 0
    outer loop
      vertex -3.12454 -9.25378 4
      vertex -3.05931 -9.28735 4.5
      vertex -3.12454 -9.25378 4.5
    endloop
  endfacet
  facet normal -0.457597 -0.889159 -0
    outer loop
      vertex -3.05931 -9.28735 4.5
      vertex -3.12454 -9.25378 4
      vertex -3.05931 -9.28735 4
    endloop
  endfacet
  facet normal -0.410197 -0.911997 0
    outer loop
      vertex -3.15849 -9.23851 4
      vertex -3.12454 -9.25378 4.5
      vertex -3.15849 -9.23851 4.5
    endloop
  endfacet
  facet normal -0.410197 -0.911997 -0
    outer loop
      vertex -3.12454 -9.25378 4.5
      vertex -3.15849 -9.23851 4
      vertex -3.12454 -9.25378 4
    endloop
  endfacet
  facet normal 0 1 -0
    outer loop
      vertex 1.38829 -9.23851 4
      vertex -3.15849 -9.23851 4.5
      vertex 1.38829 -9.23851 4.5
    endloop
  endfacet
  facet normal 0 1 0
    outer loop
      vertex -3.15849 -9.23851 4.5
      vertex 1.38829 -9.23851 4
      vertex -3.15849 -9.23851 4
    endloop
  endfacet
  facet normal 1 -0 0
    outer loop
      vertex 1.38829 -12.2779 4.5
      vertex 1.38829 -9.23851 4
      vertex 1.38829 -9.23851 4.5
    endloop
  endfacet
  facet normal 1 0 0
    outer loop
      vertex 1.38829 -9.23851 4
      vertex 1.38829 -12.2779 4.5
      vertex 1.38829 -12.2779 4
    endloop
  endfacet
endsolid OpenSCAD_Model
