M48
; DRILL file {KiCad (6.0.7)} date Fri Oct 14 07:02:42 2022
; FORMAT={-:-/ absolute / inch / decimal}
; #@! TF.CreationDate,2022-10-14T07:02:42-05:00
; #@! TF.GenerationSoftware,Kicad,Pcbnew,(6.0.7)
; #@! TF.FileFunction,Plated,1,2,PTH
FMAT,2
INCH
; #@! TA.AperFunction,Plated,PTH,ViaDrill
T1C0.0157
; #@! TA.AperFunction,Plated,PTH,ComponentDrill
T2C0.0197
; #@! TA.AperFunction,Plated,PTH,ComponentDrill
T3C0.0217
; #@! TA.AperFunction,Plated,PTH,ComponentDrill
T4C0.0374
%
G90
G05
T1
X4.9003Y-4.182
X4.91Y-4.524
X4.9104Y-3.698
X4.9265Y-4.3352
X4.9399Y-4.4767
X4.9776Y-4.6443
X5.0095Y-4.454
X5.029Y-5.7997
X5.0339Y-3.8915
X5.0493Y-4.6506
X5.067Y-4.508
X5.0998Y-4.454
X5.1084Y-3.7365
X5.1107Y-5.1908
X5.1478Y-4.5741
X5.179Y-4.731
X5.1843Y-4.0419
X5.187Y-5.0374
X5.192Y-4.49
X5.1945Y-4.5446
X5.1975Y-3.8207
X5.235Y-3.6983
X5.262Y-5.413
X5.2726Y-4.056
X5.284Y-3.8241
X5.2969Y-5.0562
X5.298Y-4.901
X5.3078Y-3.9043
X5.317Y-4.496
X5.3324Y-4.7915
X5.3454Y-3.8318
X5.3517Y-5.367
X5.3555Y-5.6866
X5.3599Y-5.294
X5.361Y-4.673
X5.3854Y-4.06
X5.4078Y-4.4948
X5.4163Y-4.6704
X5.4217Y-5.0572
X5.429Y-3.8669
X5.4337Y-5.3601
X5.4351Y-5.5375
X5.4538Y-4.062
X5.4619Y-4.2701
X5.4778Y-4.0052
X5.4875Y-3.896
X5.4969Y-3.8065
X5.5087Y-5.3762
X5.5807Y-5.359
X5.6295Y-5.6299
X5.6296Y-4.288
X5.6401Y-4.3344
X5.6515Y-5.489
X5.672Y-5.2734
X5.674Y-4.418
X5.7174Y-4.4234
X5.737Y-5.253
X5.786Y-4.3308
X5.8028Y-4.414
X5.804Y-4.055
X5.804Y-4.105
X5.804Y-4.155
X5.8054Y-5.7623
X5.854Y-4.42
X5.854Y-4.055
X5.854Y-4.105
X5.854Y-4.155
X5.9028Y-5.222
X5.904Y-4.055
X5.904Y-4.105
X5.904Y-4.155
X5.981Y-4.63
X6.0057Y-4.5818
X6.032Y-4.8489
X6.068Y-4.973
X6.069Y-4.88
X6.0932Y-4.694
X6.096Y-5.112
X6.125Y-4.8489
X6.144Y-5.1454
X6.1503Y-4.3308
X6.1655Y-3.804
X6.191Y-4.655
X6.1987Y-5.6625
X6.2033Y-4.5374
X6.2072Y-5.2434
X6.219Y-4.7758
X6.2278Y-4.7182
X6.2426Y-4.888
X6.278Y-4.8526
X6.278Y-4.9233
X6.3081Y-4.0491
X6.3133Y-4.8173
X6.3133Y-4.888
X6.3133Y-4.9587
X6.326Y-4.616
X6.3267Y-5.7448
X6.336Y-4.71
X6.3399Y-4.4391
X6.343Y-4.3594
X6.3487Y-4.8526
X6.3487Y-4.9233
X6.357Y-5.078
X6.373Y-5.217
X6.378Y-4.3377
X6.3787Y-4.4626
X6.384Y-4.888
X6.3924Y-4.7394
X6.4109Y-4.0081
X6.4343Y-3.8339
X6.4604Y-4.1989
X6.501Y-4.799
X6.529Y-3.952
X6.5416Y-5.2221
X6.545Y-4.878
X6.5566Y-4.1955
X6.5686Y-4.4165
X6.595Y-4.2629
X6.643Y-4.005
X6.695Y-4.229
X6.71Y-4.3588
X6.71Y-4.903
T4
X5.6154Y-4.6144
X5.7138Y-4.6144
X5.8122Y-4.6144
X5.9106Y-4.6144
X6.8127Y-4.8406
X6.8127Y-4.939
X6.8127Y-5.0374
X6.8127Y-5.1358
X6.8128Y-3.8421
X6.8128Y-3.9406
X6.8128Y-4.039
X6.8128Y-4.1374
X6.8128Y-4.2358
X6.8128Y-4.3343
X6.8128Y-4.4327
X6.8128Y-4.5311
T2
G00X4.9412Y-3.575
M15
G01X4.9412Y-3.5494
M16
G05
G00X5.2168Y-3.575
M15
G01X5.2168Y-3.5494
M16
G05
T3
G00X4.9865Y-3.6685
M15
G01X4.9747Y-3.6685
M16
G05
G00X5.1833Y-3.6685
M15
G01X5.1715Y-3.6685
M16
G05
T0
M30
