%TF.GenerationSoftware,KiCad,Pcbnew,(6.0.7)*%
%TF.CreationDate,2022-10-14T07:02:42-05:00*%
%TF.ProjectId,SmartSpin2k,536d6172-7453-4706-996e-326b2e6b6963,prototype*%
%TF.SameCoordinates,Original*%
%TF.FileFunction,Copper,L2,Bot*%
%TF.FilePolarity,Positive*%
%FSLAX46Y46*%
G04 Gerber Fmt 4.6, Leading zero omitted, Abs format (unit mm)*
G04 Created by KiCad (PCBNEW (6.0.7)) date 2022-10-14 07:02:42*
%MOMM*%
%LPD*%
G01*
G04 APERTURE LIST*
G04 Aperture macros list*
%AMRoundRect*
0 Rectangle with rounded corners*
0 $1 Rounding radius*
0 $2 $3 $4 $5 $6 $7 $8 $9 X,Y pos of 4 corners*
0 Add a 4 corners polygon primitive as box body*
4,1,4,$2,$3,$4,$5,$6,$7,$8,$9,$2,$3,0*
0 Add four circle primitives for the rounded corners*
1,1,$1+$1,$2,$3*
1,1,$1+$1,$4,$5*
1,1,$1+$1,$6,$7*
1,1,$1+$1,$8,$9*
0 Add four rect primitives between the rounded corners*
20,1,$1+$1,$2,$3,$4,$5,0*
20,1,$1+$1,$4,$5,$6,$7,0*
20,1,$1+$1,$6,$7,$8,$9,0*
20,1,$1+$1,$8,$9,$2,$3,0*%
G04 Aperture macros list end*
%TA.AperFunction,ComponentPad*%
%ADD10O,1.250000X0.950000*%
%TD*%
%TA.AperFunction,ComponentPad*%
%ADD11O,1.000000X1.550000*%
%TD*%
%TA.AperFunction,ComponentPad*%
%ADD12RoundRect,0.250000X0.725000X-0.600000X0.725000X0.600000X-0.725000X0.600000X-0.725000X-0.600000X0*%
%TD*%
%TA.AperFunction,ComponentPad*%
%ADD13O,1.950000X1.700000*%
%TD*%
%TA.AperFunction,ComponentPad*%
%ADD14RoundRect,0.250000X0.600000X0.725000X-0.600000X0.725000X-0.600000X-0.725000X0.600000X-0.725000X0*%
%TD*%
%TA.AperFunction,ComponentPad*%
%ADD15O,1.700000X1.950000*%
%TD*%
%TA.AperFunction,ViaPad*%
%ADD16C,0.800000*%
%TD*%
%TA.AperFunction,Conductor*%
%ADD17C,0.500000*%
%TD*%
%TA.AperFunction,Conductor*%
%ADD18C,0.250000*%
%TD*%
G04 APERTURE END LIST*
D10*
%TO.P,J3,SH*%
%TO.N,GND*%
X10186600Y55790000D03*
X5186600Y55790000D03*
D11*
X11186600Y58490000D03*
X4186600Y58490000D03*
%TD*%
D12*
%TO.P,J1,1,1*%
%TO.N,/A2*%
X51721800Y18520000D03*
D13*
%TO.P,J1,2,2*%
%TO.N,/A1*%
X51721800Y21020000D03*
%TO.P,J1,3,3*%
%TO.N,/B1*%
X51721800Y23520000D03*
%TO.P,J1,4,4*%
%TO.N,/B2*%
X51721800Y26020000D03*
%TD*%
D12*
%TO.P,J2,1,1*%
%TO.N,/VDC*%
X51725000Y33880000D03*
D13*
%TO.P,J2,2,2*%
%TO.N,GND*%
X51725000Y36380000D03*
%TO.P,J2,3,3*%
%TO.N,/ShiftDown*%
X51725000Y38880000D03*
%TO.P,J2,4,4*%
%TO.N,/ShiftUp*%
X51725000Y41380000D03*
%TO.P,J2,5,5*%
%TO.N,GND*%
X51725000Y43880000D03*
%TO.P,J2,6,6*%
X51725000Y46380000D03*
%TO.P,J2,7,7*%
%TO.N,/RS232OUT1*%
X51725000Y48880000D03*
%TO.P,J2,8,8*%
%TO.N,/RS232IN1*%
X51725000Y51380000D03*
%TD*%
D14*
%TO.P,J4,1,1*%
%TO.N,Net-(J4-Pad1)*%
X28810000Y31765000D03*
D15*
%TO.P,J4,2,2*%
%TO.N,Net-(J4-Pad2)*%
X26310000Y31765000D03*
%TO.P,J4,3,3*%
%TO.N,Net-(J4-Pad3)*%
X23810000Y31765000D03*
%TO.P,J4,4,4*%
%TO.N,Net-(J4-Pad4)*%
X21310000Y31765000D03*
%TD*%
D16*
%TO.N,GND*%
X28642000Y44703000D03*
X16390000Y20517700D03*
X41517500Y47165000D03*
X6417500Y1658000D03*
X5110000Y31004500D03*
X25644400Y38966500D03*
X26102000Y43433000D03*
X39038000Y26611000D03*
X36243200Y33721000D03*
X44517400Y48590100D03*
X16576600Y50750600D03*
X36342500Y15788100D03*
X40554200Y16458200D03*
X10430000Y21020000D03*
X39614400Y29336000D03*
X26102000Y45973000D03*
X39038000Y24815000D03*
X49114000Y24433800D03*
X39038000Y23019000D03*
X22799600Y36752800D03*
X27372000Y45973000D03*
X18301300Y52284000D03*
X14613400Y12648100D03*
X3403400Y55041900D03*
X38140000Y25713000D03*
X11649100Y55032900D03*
X39936000Y25713000D03*
X37241000Y24815000D03*
X27371600Y36702000D03*
X40834000Y24815000D03*
X38140000Y23917000D03*
X34898400Y38966500D03*
X45522500Y36791500D03*
X22750000Y15024900D03*
X35931400Y30733000D03*
X42110000Y51587900D03*
X8491700Y17123200D03*
X3148600Y42748000D03*
X28642000Y45973000D03*
X10556800Y34924000D03*
X16696200Y12823600D03*
X35283800Y52347300D03*
X27372000Y43433000D03*
X39360400Y31723600D03*
X18601200Y12413600D03*
X44836200Y16328900D03*
X27372000Y44703000D03*
X39936000Y23917000D03*
X28642000Y43433000D03*
X26102000Y44703000D03*
X32807200Y22655800D03*
X14710000Y4529800D03*
X13220000Y20542100D03*
X10226600Y28802600D03*
X20430000Y12851200D03*
X21670000Y5969700D03*
X33518400Y19125200D03*
X39377500Y3052900D03*
X15468900Y45847200D03*
X48733000Y41553400D03*
X12334800Y11479800D03*
X14453500Y51642900D03*
X24399800Y15543800D03*
X26137000Y2606700D03*
%TO.N,/VDC*%
X40147800Y19988800D03*
X16732400Y8317400D03*
X28611800Y16331800D03*
X36127600Y5142400D03*
X44923000Y25068800D03*
X22229100Y9549400D03*
%TO.N,/3V3*%
X4154600Y35262100D03*
X8214700Y35837600D03*
X9433000Y32786800D03*
X36865500Y29127600D03*
X5922200Y35837600D03*
%TO.N,Net-(C14-Pad2)*%
X41047250Y28588950D03*
X34737600Y18275700D03*
%TO.N,Net-(D3-Pad2)*%
X10619500Y33536900D03*
X14124100Y27266300D03*
%TO.N,/VBUS*%
X3394000Y34060400D03*
X10696800Y51925000D03*
X3812100Y38856500D03*
X7381800Y34466800D03*
%TO.N,/ShiftDown*%
X17412300Y40508800D03*
X21671400Y40055100D03*
%TO.N,/ShiftUp*%
X14820500Y14503000D03*
X31892800Y25808900D03*
%TO.N,/B2*%
X43805400Y27075400D03*
%TO.N,/D-*%
X6541300Y50126100D03*
X8434500Y54062100D03*
X10361600Y46305800D03*
%TO.N,/IO0_BOOT*%
X39713400Y36216700D03*
X47412200Y47243000D03*
X30597400Y31368000D03*
%TO.N,/EN*%
X6933000Y30845500D03*
X18063000Y50010800D03*
X12893600Y51836800D03*
X13249200Y24484600D03*
X13498000Y49801400D03*
%TO.N,/TMCUART1*%
X40699100Y35618900D03*
X36642200Y27663500D03*
%TO.N,/TXD0*%
X16253200Y30341800D03*
X40681600Y38792000D03*
%TO.N,/RXD0*%
X14849400Y30275800D03*
X39793400Y38242000D03*
%TO.N,/DriverDIR*%
X31224700Y32592800D03*
X26071700Y36854700D03*
%TO.N,/DriverSTEP*%
X23903000Y36614400D03*
X33447100Y29742400D03*
%TO.N,/DriverEN*%
X21938900Y38876400D03*
X49112900Y38256700D03*
%TO.N,/T1IN*%
X38905200Y46122200D03*
X42775300Y42318700D03*
%TO.N,Net-(R11-Pad2)*%
X17817000Y47238000D03*
X12603400Y45946500D03*
X17205300Y45795300D03*
%TO.N,Net-(D12-Pad1)*%
X16038701Y34801499D03*
X13731800Y34771600D03*
%TO.N,Net-(C20-Pad1)*%
X46192100Y40691100D03*
X45218700Y42405500D03*
%TO.N,Net-(R19-Pad2)*%
X32832600Y25018000D03*
X34255000Y25808900D03*
%TD*%
D17*
%TO.N,GND*%
X39038000Y26611000D02*
X39038000Y28759600D01*
X25644400Y38966500D02*
X34898400Y38966500D01*
X39038000Y28759600D02*
X39614400Y29336000D01*
%TO.N,/VDC*%
X40147800Y19988800D02*
X38502900Y19988800D01*
X16732400Y8317400D02*
X20597400Y8317400D01*
X21912100Y9632100D02*
X28611800Y16331800D01*
X43881600Y24027400D02*
X43881600Y22960600D01*
X22471700Y9306800D02*
X31963200Y9306800D01*
X44923000Y25068800D02*
X43881600Y24027400D01*
X20597400Y8317400D02*
X21912100Y9632100D01*
X40909800Y19988800D02*
X40147800Y19988800D01*
X31963200Y9306800D02*
X36127600Y5142400D01*
X43881600Y22960600D02*
X40909800Y19988800D01*
X22229100Y9549400D02*
X21994800Y9549400D01*
X38502900Y19988800D02*
X34845900Y16331800D01*
X22229100Y9549400D02*
X22471700Y9306800D01*
X34845900Y16331800D02*
X28611800Y16331800D01*
X21994800Y9549400D02*
X21912100Y9632100D01*
D18*
%TO.N,/3V3*%
X4730100Y35837600D02*
X4154600Y35262100D01*
X9433000Y30852400D02*
X13752000Y26533400D01*
X8214700Y34005100D02*
X8214700Y35837600D01*
X13752000Y26533400D02*
X34271300Y26533400D01*
X8214700Y35837600D02*
X5922200Y35837600D01*
X34271300Y26533400D02*
X36865500Y29127600D01*
X9433000Y32786800D02*
X8214700Y34005100D01*
X9433000Y32786800D02*
X9433000Y30852400D01*
X5922200Y35837600D02*
X4730100Y35837600D01*
%TO.N,Net-(C14-Pad2)*%
X34737600Y18275700D02*
X34718800Y18294500D01*
X34718800Y18294500D02*
X34718800Y18821305D01*
X36699095Y20801600D02*
X40478000Y20801600D01*
X43230400Y23554000D02*
X43230400Y24189372D01*
X40478000Y20801600D02*
X43230400Y23554000D01*
X41123450Y28588950D02*
X41047250Y28588950D01*
X34718800Y18821305D02*
X36699095Y20801600D01*
X43230400Y24189372D02*
X44084800Y25043772D01*
X44084800Y25043772D02*
X44084800Y25627600D01*
X44084800Y25627600D02*
X41123450Y28588950D01*
%TO.N,Net-(D3-Pad2)*%
X10619500Y30770900D02*
X10619500Y33536900D01*
X14124100Y27266300D02*
X10619500Y30770900D01*
%TO.N,/VBUS*%
X3812100Y38856500D02*
X3937800Y38856500D01*
X12136500Y50485300D02*
X10696800Y51925000D01*
X12136500Y47055200D02*
X12136500Y47180900D01*
X3937800Y38856500D02*
X12136500Y47055200D01*
X12136500Y47180900D02*
X12136500Y50485300D01*
X3444800Y34009600D02*
X3394000Y34060400D01*
X7381800Y34466800D02*
X6924600Y34009600D01*
X6924600Y34009600D02*
X3444800Y34009600D01*
%TO.N,/ShiftDown*%
X44918500Y43130600D02*
X42274500Y40486600D01*
X22102900Y40486600D02*
X21671400Y40055100D01*
X17412300Y40508800D02*
X17866000Y40055100D01*
X45519100Y43130600D02*
X44918500Y43130600D01*
X42274500Y40486600D02*
X22102900Y40486600D01*
X51725000Y38880000D02*
X49769700Y38880000D01*
X17866000Y40055100D02*
X21671400Y40055100D01*
X49769700Y38880000D02*
X45519100Y43130600D01*
%TO.N,/ShiftUp*%
X31892800Y25808900D02*
X31889300Y25805400D01*
X31889300Y25805400D02*
X26122900Y25805400D01*
X26122900Y25805400D02*
X14820500Y14503000D01*
D17*
%TO.N,/B2*%
X51352200Y26389600D02*
X51721800Y26020000D01*
X44491200Y26389600D02*
X51352200Y26389600D01*
X43805400Y27075400D02*
X44491200Y26389600D01*
D18*
%TO.N,/D-*%
X6541300Y52168900D02*
X6541300Y50126100D01*
X10361600Y46305800D02*
X6541300Y50126100D01*
X8434500Y54062100D02*
X6541300Y52168900D01*
%TO.N,/IO0_BOOT*%
X51188299Y42630000D02*
X52311600Y42630000D01*
X30664000Y31368000D02*
X31163700Y31867700D01*
X31163700Y31867700D02*
X35415400Y31867700D01*
X52311600Y42630000D02*
X53064300Y41877300D01*
X39713400Y36165700D02*
X39713400Y36216700D01*
X52268500Y37630000D02*
X49511700Y37630000D01*
X49511700Y37630000D02*
X49413300Y37531600D01*
X53064300Y38425800D02*
X52268500Y37630000D01*
X49413300Y37531600D02*
X41028300Y37531600D01*
X35415400Y31867700D02*
X39713400Y36165700D01*
X47412200Y46406099D02*
X51188299Y42630000D01*
X41028300Y37531600D02*
X39713400Y36216700D01*
X47412200Y47243000D02*
X47412200Y46406099D01*
X30597400Y31368000D02*
X30664000Y31368000D01*
X53064300Y41877300D02*
X53064300Y38425800D01*
%TO.N,/EN*%
X13249200Y24529300D02*
X6933000Y30845500D01*
X13249200Y24484600D02*
X13249200Y24529300D01*
X14202200Y49097200D02*
X13498000Y49801400D01*
X12893600Y51836800D02*
X12893600Y50405800D01*
X17149400Y49097200D02*
X14202200Y49097200D01*
X18063000Y50010800D02*
X17149400Y49097200D01*
X12893600Y50405800D02*
X13498000Y49801400D01*
%TO.N,/TMCUART1*%
X40699100Y35618900D02*
X40699100Y31720400D01*
X40699100Y31720400D02*
X36642200Y27663500D01*
%TO.N,/TXD0*%
X16253200Y31362700D02*
X16253200Y30341800D01*
X40681600Y38092700D02*
X40081200Y37492300D01*
X26459600Y37492300D02*
X26372100Y37579800D01*
X40081200Y37492300D02*
X26459600Y37492300D01*
X22470300Y37579800D02*
X16253200Y31362700D01*
X26372100Y37579800D02*
X22470300Y37579800D01*
X40681600Y38792000D02*
X40681600Y38092700D01*
%TO.N,/RXD0*%
X14849400Y30275800D02*
X14849400Y30745100D01*
X14849400Y30745100D02*
X22346300Y38242000D01*
X22346300Y38242000D02*
X39793400Y38242000D01*
%TO.N,/DriverDIR*%
X30333600Y32592800D02*
X31224700Y32592800D01*
X26071700Y36854700D02*
X30333600Y32592800D01*
%TO.N,/DriverSTEP*%
X32115500Y28410800D02*
X28927700Y28410800D01*
X33447100Y29742400D02*
X32115500Y28410800D01*
X28927700Y28410800D02*
X27633800Y29704700D01*
X27633800Y29704700D02*
X27633800Y32883600D01*
X27633800Y32883600D02*
X23903000Y36614400D01*
%TO.N,/DriverEN*%
X22754000Y39691500D02*
X47678100Y39691500D01*
X47678100Y39691500D02*
X49112900Y38256700D01*
X21938900Y38876400D02*
X22754000Y39691500D01*
%TO.N,/T1IN*%
X38971800Y46122200D02*
X38905200Y46122200D01*
X42775300Y42318700D02*
X38971800Y46122200D01*
%TO.N,Net-(R11-Pad2)*%
X17817000Y47238000D02*
X17205300Y47238000D01*
X13731800Y48360600D02*
X16652800Y48360600D01*
X17205300Y47238000D02*
X17205300Y46626300D01*
X12603400Y47232200D02*
X13731800Y48360600D01*
X17205300Y47808100D02*
X17205300Y46626300D01*
X17205300Y46626300D02*
X17205300Y45795300D01*
X16652800Y48360600D02*
X17205300Y47808100D01*
X12603400Y45946500D02*
X12603400Y47232200D01*
%TO.N,Net-(D12-Pad1)*%
X16038701Y34801499D02*
X16008802Y34771600D01*
X16008802Y34771600D02*
X13731800Y34771600D01*
%TO.N,Net-(C20-Pad1)*%
X45218700Y42405500D02*
X46192100Y41432100D01*
X46192100Y41432100D02*
X46192100Y40691100D01*
%TO.N,Net-(R19-Pad2)*%
X33464100Y25018000D02*
X32832600Y25018000D01*
X34255000Y25808900D02*
X33464100Y25018000D01*
%TD*%
%TA.AperFunction,Conductor*%
%TO.N,GND*%
G36*
X1886104Y59815870D02*
G01*
X3526443Y59815322D01*
X3594557Y59795297D01*
X3641032Y59741626D01*
X3651113Y59671349D01*
X3621598Y59606778D01*
X3605353Y59591125D01*
X3482727Y59492532D01*
X3473968Y59483954D01*
X3354822Y59341961D01*
X3347892Y59331841D01*
X3258598Y59169415D01*
X3253766Y59158142D01*
X3197720Y58981462D01*
X3195170Y58969468D01*
X3178993Y58825239D01*
X3178600Y58818215D01*
X3178600Y58762115D01*
X3183075Y58746876D01*
X3184465Y58745671D01*
X3192148Y58744000D01*
X5176485Y58744000D01*
X5191724Y58748475D01*
X5192929Y58749865D01*
X5194600Y58757548D01*
X5194600Y58811657D01*
X5194299Y58817805D01*
X5180788Y58955603D01*
X5178405Y58967638D01*
X5124833Y59145076D01*
X5120159Y59156416D01*
X5033140Y59320077D01*
X5026351Y59330294D01*
X4909203Y59473933D01*
X4900559Y59482637D01*
X4768608Y59591796D01*
X4728869Y59650630D01*
X4727247Y59721608D01*
X4764257Y59782195D01*
X4828147Y59813156D01*
X4848963Y59814881D01*
X7069541Y59814139D01*
X10523537Y59812986D01*
X10591651Y59792961D01*
X10638126Y59739290D01*
X10648207Y59669013D01*
X10618692Y59604442D01*
X10602447Y59588789D01*
X10482727Y59492532D01*
X10473968Y59483954D01*
X10354822Y59341961D01*
X10347892Y59331841D01*
X10258598Y59169415D01*
X10253766Y59158142D01*
X10197720Y58981462D01*
X10195170Y58969468D01*
X10178993Y58825239D01*
X10178600Y58818215D01*
X10178600Y58762115D01*
X10183075Y58746876D01*
X10184465Y58745671D01*
X10192148Y58744000D01*
X12176485Y58744000D01*
X12191724Y58748475D01*
X12192929Y58749865D01*
X12194600Y58757548D01*
X12194600Y58811657D01*
X12194299Y58817805D01*
X12180788Y58955603D01*
X12178405Y58967638D01*
X12124833Y59145076D01*
X12120159Y59156416D01*
X12033140Y59320077D01*
X12026351Y59330294D01*
X11909203Y59473933D01*
X11900559Y59482637D01*
X11771434Y59589458D01*
X11731695Y59648292D01*
X11730073Y59719270D01*
X11767083Y59779857D01*
X11830973Y59810818D01*
X11851789Y59812543D01*
X13806078Y59811890D01*
X14322042Y59811718D01*
X14390156Y59791693D01*
X14436631Y59738022D01*
X14448000Y59685718D01*
X14448000Y53999000D01*
X42156588Y53999000D01*
X42224709Y53978998D01*
X42271202Y53925342D01*
X42282587Y53872510D01*
X42282102Y53747768D01*
X48953047Y53723938D01*
X55624450Y53700106D01*
X55692499Y53679861D01*
X55738800Y53626040D01*
X55750000Y53574107D01*
X55750000Y634500D01*
X55729998Y566379D01*
X55676342Y519886D01*
X55624000Y508500D01*
X1536000Y508500D01*
X1467879Y528502D01*
X1421386Y582158D01*
X1410000Y634500D01*
X1410000Y8317400D01*
X15818896Y8317400D01*
X15838858Y8127472D01*
X15897873Y7945844D01*
X15993360Y7780456D01*
X15997778Y7775549D01*
X15997779Y7775548D01*
X16088686Y7674586D01*
X16121147Y7638534D01*
X16173425Y7600552D01*
X16270304Y7530165D01*
X16275648Y7526282D01*
X16281676Y7523598D01*
X16281678Y7523597D01*
X16444081Y7451291D01*
X16450112Y7448606D01*
X16543513Y7428753D01*
X16630456Y7410272D01*
X16630461Y7410272D01*
X16636913Y7408900D01*
X16827887Y7408900D01*
X16834339Y7410272D01*
X16834344Y7410272D01*
X16921287Y7428753D01*
X17014688Y7448606D01*
X17020719Y7451291D01*
X17183122Y7523597D01*
X17183124Y7523598D01*
X17189152Y7526282D01*
X17194491Y7530161D01*
X17194498Y7530165D01*
X17200928Y7534837D01*
X17274987Y7558900D01*
X20530330Y7558900D01*
X20549280Y7557467D01*
X20563515Y7555301D01*
X20563519Y7555301D01*
X20570749Y7554201D01*
X20578041Y7554794D01*
X20578044Y7554794D01*
X20623418Y7558485D01*
X20633633Y7558900D01*
X20641693Y7558900D01*
X20654983Y7560449D01*
X20669907Y7562189D01*
X20674282Y7562622D01*
X20739739Y7567946D01*
X20739742Y7567947D01*
X20747037Y7568540D01*
X20754001Y7570796D01*
X20759960Y7571987D01*
X20765815Y7573371D01*
X20773081Y7574218D01*
X20841727Y7599135D01*
X20845855Y7600552D01*
X20908336Y7620793D01*
X20908338Y7620794D01*
X20915299Y7623049D01*
X20921554Y7626845D01*
X20927028Y7629351D01*
X20932458Y7632070D01*
X20939337Y7634567D01*
X21000376Y7674586D01*
X21004080Y7676923D01*
X21066507Y7714805D01*
X21074884Y7722203D01*
X21074908Y7722176D01*
X21077900Y7724829D01*
X21081133Y7727532D01*
X21087252Y7731544D01*
X21140528Y7787783D01*
X21142906Y7790225D01*
X21966627Y8613946D01*
X22028939Y8647972D01*
X22099754Y8642907D01*
X22109072Y8638999D01*
X22136547Y8626158D01*
X22140498Y8624227D01*
X22205508Y8591031D01*
X22212616Y8589292D01*
X22218259Y8587193D01*
X22224022Y8585276D01*
X22230650Y8582178D01*
X22237812Y8580688D01*
X22237813Y8580688D01*
X22302112Y8567314D01*
X22306396Y8566344D01*
X22377310Y8548992D01*
X22382912Y8548644D01*
X22382915Y8548644D01*
X22388464Y8548300D01*
X22388462Y8548264D01*
X22392455Y8548025D01*
X22396647Y8547651D01*
X22403815Y8546160D01*
X22481220Y8548254D01*
X22484628Y8548300D01*
X31596829Y8548300D01*
X31664950Y8528298D01*
X31685924Y8511395D01*
X35207475Y4989844D01*
X35238213Y4939686D01*
X35293073Y4770844D01*
X35388560Y4605456D01*
X35516347Y4463534D01*
X35670848Y4351282D01*
X35676876Y4348598D01*
X35676878Y4348597D01*
X35839281Y4276291D01*
X35845312Y4273606D01*
X35938712Y4253753D01*
X36025656Y4235272D01*
X36025661Y4235272D01*
X36032113Y4233900D01*
X36223087Y4233900D01*
X36229539Y4235272D01*
X36229544Y4235272D01*
X36316488Y4253753D01*
X36409888Y4273606D01*
X36415919Y4276291D01*
X36578322Y4348597D01*
X36578324Y4348598D01*
X36584352Y4351282D01*
X36738853Y4463534D01*
X36866640Y4605456D01*
X36962127Y4770844D01*
X37021142Y4952472D01*
X37041104Y5142400D01*
X37021142Y5332328D01*
X36962127Y5513956D01*
X36866640Y5679344D01*
X36738853Y5821266D01*
X36584352Y5933518D01*
X36578324Y5936202D01*
X36578322Y5936203D01*
X36415919Y6008509D01*
X36415918Y6008509D01*
X36409888Y6011194D01*
X36403433Y6012566D01*
X36403424Y6012569D01*
X36346828Y6024599D01*
X36283931Y6058750D01*
X32546970Y9795711D01*
X32534584Y9810123D01*
X32526051Y9821718D01*
X32526046Y9821723D01*
X32521708Y9827618D01*
X32516130Y9832357D01*
X32516127Y9832360D01*
X32481432Y9861835D01*
X32473916Y9868765D01*
X32468221Y9874460D01*
X32462080Y9879318D01*
X32445949Y9892081D01*
X32442545Y9894872D01*
X32392497Y9937391D01*
X32392495Y9937392D01*
X32386915Y9942133D01*
X32380399Y9945461D01*
X32375350Y9948828D01*
X32370221Y9951995D01*
X32364484Y9956534D01*
X32298325Y9987455D01*
X32294425Y9989361D01*
X32229392Y10022569D01*
X32222284Y10024308D01*
X32216641Y10026407D01*
X32210878Y10028324D01*
X32204250Y10031422D01*
X32132783Y10046287D01*
X32128499Y10047257D01*
X32057590Y10064608D01*
X32051988Y10064956D01*
X32051985Y10064956D01*
X32046436Y10065300D01*
X32046438Y10065336D01*
X32042445Y10065575D01*
X32038253Y10065949D01*
X32031085Y10067440D01*
X31964875Y10065649D01*
X31953679Y10065346D01*
X31950272Y10065300D01*
X23722171Y10065300D01*
X23654050Y10085302D01*
X23607557Y10138958D01*
X23597453Y10209232D01*
X23626947Y10273812D01*
X23633076Y10280395D01*
X28768131Y15415450D01*
X28831028Y15449601D01*
X28887624Y15461631D01*
X28887633Y15461634D01*
X28894088Y15463006D01*
X28900119Y15465691D01*
X29062522Y15537997D01*
X29062524Y15537998D01*
X29068552Y15540682D01*
X29073891Y15544561D01*
X29073898Y15544565D01*
X29080328Y15549237D01*
X29154387Y15573300D01*
X34778830Y15573300D01*
X34797780Y15571867D01*
X34812015Y15569701D01*
X34812019Y15569701D01*
X34819249Y15568601D01*
X34826541Y15569194D01*
X34826544Y15569194D01*
X34871918Y15572885D01*
X34882133Y15573300D01*
X34890193Y15573300D01*
X34903483Y15574849D01*
X34918407Y15576589D01*
X34922782Y15577022D01*
X34988239Y15582346D01*
X34988242Y15582347D01*
X34995537Y15582940D01*
X35002501Y15585196D01*
X35008460Y15586387D01*
X35014315Y15587771D01*
X35021581Y15588618D01*
X35090227Y15613535D01*
X35094355Y15614952D01*
X35156836Y15635193D01*
X35156838Y15635194D01*
X35163799Y15637449D01*
X35170054Y15641245D01*
X35175528Y15643751D01*
X35180958Y15646470D01*
X35187837Y15648967D01*
X35248876Y15688986D01*
X35252580Y15691323D01*
X35315007Y15729205D01*
X35323384Y15736603D01*
X35323408Y15736576D01*
X35326400Y15739229D01*
X35329633Y15741932D01*
X35335752Y15745944D01*
X35389028Y15802183D01*
X35391406Y15804625D01*
X38780176Y19193395D01*
X38842488Y19227421D01*
X38869271Y19230300D01*
X39605213Y19230300D01*
X39679272Y19206237D01*
X39685702Y19201565D01*
X39685709Y19201561D01*
X39691048Y19197682D01*
X39697076Y19194998D01*
X39697078Y19194997D01*
X39859481Y19122691D01*
X39865512Y19120006D01*
X39958146Y19100316D01*
X40045856Y19081672D01*
X40045861Y19081672D01*
X40052313Y19080300D01*
X40243287Y19080300D01*
X40249739Y19081672D01*
X40249744Y19081672D01*
X40337454Y19100316D01*
X40430088Y19120006D01*
X40436119Y19122691D01*
X40598522Y19194997D01*
X40598524Y19194998D01*
X40604552Y19197682D01*
X40609891Y19201561D01*
X40609898Y19201565D01*
X40616328Y19206237D01*
X40690387Y19230300D01*
X40842730Y19230300D01*
X40861680Y19228867D01*
X40875915Y19226701D01*
X40875919Y19226701D01*
X40883149Y19225601D01*
X40890441Y19226194D01*
X40890444Y19226194D01*
X40935818Y19229885D01*
X40946033Y19230300D01*
X40954093Y19230300D01*
X40967383Y19231849D01*
X40982307Y19233589D01*
X40986682Y19234022D01*
X41052139Y19239346D01*
X41052142Y19239347D01*
X41059437Y19239940D01*
X41066401Y19242196D01*
X41072360Y19243387D01*
X41078215Y19244771D01*
X41085481Y19245618D01*
X41154127Y19270535D01*
X41158255Y19271952D01*
X41220736Y19292193D01*
X41220738Y19292194D01*
X41227699Y19294449D01*
X41233954Y19298245D01*
X41239428Y19300751D01*
X41244858Y19303470D01*
X41251737Y19305967D01*
X41271176Y19318712D01*
X41312776Y19345986D01*
X41316480Y19348323D01*
X41378907Y19386205D01*
X41387284Y19393603D01*
X41387308Y19393576D01*
X41390300Y19396229D01*
X41393533Y19398932D01*
X41399652Y19402944D01*
X41452928Y19459183D01*
X41455306Y19461625D01*
X44370511Y22376830D01*
X44384923Y22389216D01*
X44396518Y22397749D01*
X44396523Y22397754D01*
X44402418Y22402092D01*
X44407157Y22407670D01*
X44407160Y22407673D01*
X44436635Y22442368D01*
X44443565Y22449884D01*
X44449260Y22455579D01*
X44466881Y22477851D01*
X44469672Y22481255D01*
X44512191Y22531303D01*
X44512192Y22531305D01*
X44516933Y22536885D01*
X44520261Y22543401D01*
X44523628Y22548450D01*
X44526795Y22553579D01*
X44531334Y22559316D01*
X44562255Y22625475D01*
X44564161Y22629375D01*
X44597369Y22694408D01*
X44599108Y22701517D01*
X44601204Y22707151D01*
X44603123Y22712921D01*
X44606222Y22719550D01*
X44621091Y22791035D01*
X44622061Y22795318D01*
X44639408Y22866210D01*
X44640100Y22877364D01*
X44640135Y22877362D01*
X44640375Y22881334D01*
X44640752Y22885555D01*
X44642241Y22892715D01*
X44640146Y22970142D01*
X44640100Y22973550D01*
X44640100Y23661029D01*
X44660102Y23729150D01*
X44677005Y23750124D01*
X45079331Y24152450D01*
X45142228Y24186601D01*
X45198824Y24198631D01*
X45198833Y24198634D01*
X45205288Y24200006D01*
X45244037Y24217258D01*
X45373722Y24274997D01*
X45373724Y24274998D01*
X45379752Y24277682D01*
X45534253Y24389934D01*
X45545518Y24402445D01*
X45657621Y24526948D01*
X45657622Y24526949D01*
X45662040Y24531856D01*
X45726569Y24643624D01*
X45754223Y24691521D01*
X45754224Y24691522D01*
X45757527Y24697244D01*
X45816542Y24878872D01*
X45818105Y24893738D01*
X45835814Y25062235D01*
X45836504Y25068800D01*
X45827770Y25151898D01*
X45817232Y25252165D01*
X45817232Y25252167D01*
X45816542Y25258728D01*
X45757527Y25440356D01*
X45754223Y25446079D01*
X45751539Y25452107D01*
X45753844Y25453133D01*
X45739781Y25511090D01*
X45762999Y25578183D01*
X45818804Y25622072D01*
X45865639Y25631100D01*
X50204042Y25631100D01*
X50272163Y25611098D01*
X50321234Y25551381D01*
X50373613Y25418748D01*
X50373616Y25418742D01*
X50375576Y25413779D01*
X50378343Y25409220D01*
X50378344Y25409217D01*
X50413848Y25350709D01*
X50495177Y25216683D01*
X50498674Y25212653D01*
X50629200Y25062235D01*
X50646277Y25042555D01*
X50650408Y25039168D01*
X50820427Y24899760D01*
X50820433Y24899756D01*
X50824555Y24896376D01*
X50856050Y24878448D01*
X50905355Y24827368D01*
X50919217Y24757738D01*
X50893234Y24691667D01*
X50864084Y24664427D01*
X50742481Y24582559D01*
X50738624Y24578880D01*
X50738622Y24578878D01*
X50671046Y24514413D01*
X50575665Y24423424D01*
X50572482Y24419146D01*
X50561816Y24404810D01*
X50438046Y24238458D01*
X50435630Y24233707D01*
X50435628Y24233703D01*
X50407736Y24178843D01*
X50333560Y24032949D01*
X50331978Y24027855D01*
X50331977Y24027852D01*
X50282526Y23868595D01*
X50265193Y23812773D01*
X50264492Y23807484D01*
X50238906Y23614434D01*
X50234902Y23584226D01*
X50235102Y23578897D01*
X50235102Y23578895D01*
X50235207Y23576100D01*
X50243551Y23353842D01*
X50290893Y23128209D01*
X50292851Y23123250D01*
X50292852Y23123248D01*
X50352646Y22971842D01*
X50375576Y22913779D01*
X50378343Y22909220D01*
X50378344Y22909217D01*
X50407751Y22860756D01*
X50495177Y22716683D01*
X50498674Y22712653D01*
X50641162Y22548450D01*
X50646277Y22542555D01*
X50650408Y22539168D01*
X50820427Y22399760D01*
X50820433Y22399756D01*
X50824555Y22396376D01*
X50856050Y22378448D01*
X50905355Y22327368D01*
X50919217Y22257738D01*
X50893234Y22191667D01*
X50864084Y22164427D01*
X50742481Y22082559D01*
X50575665Y21923424D01*
X50438046Y21738458D01*
X50333560Y21532949D01*
X50331978Y21527855D01*
X50331977Y21527852D01*
X50292778Y21401610D01*
X50265193Y21312773D01*
X50264492Y21307484D01*
X50249104Y21191377D01*
X50234902Y21084226D01*
X50243551Y20853842D01*
X50290893Y20628209D01*
X50375576Y20413779D01*
X50495177Y20216683D01*
X50498674Y20212653D01*
X50585238Y20112897D01*
X50646277Y20042555D01*
X50681920Y20013330D01*
X50721914Y19954671D01*
X50723846Y19883701D01*
X50687102Y19822952D01*
X50668332Y19808752D01*
X50537379Y19727715D01*
X50522452Y19718478D01*
X50397495Y19593303D01*
X50304685Y19442738D01*
X50249003Y19274861D01*
X50248303Y19268025D01*
X50248302Y19268022D01*
X50244819Y19234022D01*
X50238300Y19170400D01*
X50238300Y18093615D01*
X50218298Y18025494D01*
X50164642Y17979001D01*
X50094368Y17968897D01*
X50065205Y17976747D01*
X50038063Y17987686D01*
X49830463Y18028228D01*
X49824901Y18028500D01*
X49668954Y18028500D01*
X49511234Y18013452D01*
X49308266Y17953908D01*
X49302939Y17951164D01*
X49302938Y17951164D01*
X49125551Y17859804D01*
X49125548Y17859802D01*
X49120220Y17857058D01*
X48953880Y17726396D01*
X48949948Y17721865D01*
X48949945Y17721862D01*
X48847851Y17604209D01*
X48815248Y17566637D01*
X48812248Y17561451D01*
X48812245Y17561447D01*
X48745861Y17446697D01*
X48709327Y17383546D01*
X48639939Y17183729D01*
X48639078Y17177794D01*
X48639078Y17177792D01*
X48627603Y17098647D01*
X48609587Y16974396D01*
X48619367Y16763101D01*
X48620771Y16757276D01*
X48620771Y16757275D01*
X48633766Y16703356D01*
X48668925Y16557466D01*
X48671407Y16552008D01*
X48671408Y16552004D01*
X48714853Y16456454D01*
X48756474Y16364913D01*
X48878854Y16192389D01*
X49031650Y16046119D01*
X49209348Y15931380D01*
X49214914Y15929137D01*
X49399968Y15854558D01*
X49399971Y15854557D01*
X49405537Y15852314D01*
X49613137Y15811772D01*
X49618699Y15811500D01*
X49774646Y15811500D01*
X49932366Y15826548D01*
X50135334Y15886092D01*
X50218911Y15929137D01*
X50318049Y15980196D01*
X50318052Y15980198D01*
X50323380Y15982942D01*
X50489720Y16113604D01*
X50493652Y16118135D01*
X50493655Y16118138D01*
X50624421Y16268833D01*
X50628352Y16273363D01*
X50631352Y16278549D01*
X50631355Y16278553D01*
X50731267Y16451258D01*
X50734273Y16456454D01*
X50803661Y16656271D01*
X50834013Y16865604D01*
X50826419Y17029674D01*
X50843250Y17098647D01*
X50894698Y17147571D01*
X50952284Y17161500D01*
X52497200Y17161500D01*
X52500446Y17161837D01*
X52500450Y17161837D01*
X52596108Y17171762D01*
X52596112Y17171763D01*
X52602966Y17172474D01*
X52609502Y17174655D01*
X52609504Y17174655D01*
X52763798Y17226132D01*
X52770746Y17228450D01*
X52921148Y17321522D01*
X53046105Y17446697D01*
X53116838Y17561447D01*
X53135075Y17591032D01*
X53135076Y17591034D01*
X53138915Y17597262D01*
X53194597Y17765139D01*
X53205300Y17869600D01*
X53205300Y19170400D01*
X53202579Y19196626D01*
X53195038Y19269308D01*
X53195037Y19269312D01*
X53194326Y19276166D01*
X53188227Y19294449D01*
X53140668Y19436998D01*
X53138350Y19443946D01*
X53045278Y19594348D01*
X52920103Y19719305D01*
X52774460Y19809081D01*
X52726968Y19861852D01*
X52715544Y19931924D01*
X52743818Y19997048D01*
X52753605Y20007510D01*
X52800185Y20051946D01*
X52867935Y20116576D01*
X53005554Y20301542D01*
X53110040Y20507051D01*
X53146121Y20623248D01*
X53176824Y20722129D01*
X53178407Y20727227D01*
X53179108Y20732516D01*
X53207998Y20950489D01*
X53207998Y20950494D01*
X53208698Y20955774D01*
X53200049Y21186158D01*
X53152707Y21411791D01*
X53149436Y21420074D01*
X53069985Y21621256D01*
X53069984Y21621258D01*
X53068024Y21626221D01*
X52948423Y21823317D01*
X52861555Y21923424D01*
X52800823Y21993412D01*
X52800821Y21993414D01*
X52797323Y21997445D01*
X52755770Y22031516D01*
X52623173Y22140240D01*
X52623167Y22140244D01*
X52619045Y22143624D01*
X52587550Y22161552D01*
X52538245Y22212632D01*
X52524383Y22282262D01*
X52550366Y22348333D01*
X52579516Y22375573D01*
X52678730Y22442368D01*
X52701119Y22457441D01*
X52726083Y22481255D01*
X52778546Y22531303D01*
X52867935Y22616576D01*
X53005554Y22801542D01*
X53046676Y22882422D01*
X53065142Y22918744D01*
X53110040Y23007051D01*
X53146121Y23123248D01*
X53176824Y23222129D01*
X53178407Y23227227D01*
X53179108Y23232516D01*
X53207998Y23450489D01*
X53207998Y23450494D01*
X53208698Y23455774D01*
X53200049Y23686158D01*
X53191029Y23729150D01*
X53153802Y23906572D01*
X53152707Y23911791D01*
X53150748Y23916752D01*
X53069985Y24121256D01*
X53069984Y24121258D01*
X53068024Y24126221D01*
X53054077Y24149206D01*
X52951190Y24318757D01*
X52948423Y24323317D01*
X52926605Y24348460D01*
X52800823Y24493412D01*
X52800821Y24493414D01*
X52797323Y24497445D01*
X52735827Y24547869D01*
X52623173Y24640240D01*
X52623167Y24640244D01*
X52619045Y24643624D01*
X52587550Y24661552D01*
X52538245Y24712632D01*
X52524383Y24782262D01*
X52550366Y24848333D01*
X52579516Y24875573D01*
X52675370Y24940106D01*
X52701119Y24957441D01*
X52764373Y25017782D01*
X52864078Y25112897D01*
X52867935Y25116576D01*
X53005554Y25301542D01*
X53032615Y25354766D01*
X53062618Y25413779D01*
X53110040Y25507051D01*
X53178407Y25727227D01*
X53199556Y25886794D01*
X53207998Y25950489D01*
X53207998Y25950494D01*
X53208698Y25955774D01*
X53208306Y25966232D01*
X53201973Y26134905D01*
X53200049Y26186158D01*
X53152707Y26411791D01*
X53150748Y26416752D01*
X53069985Y26621256D01*
X53069984Y26621258D01*
X53068024Y26626221D01*
X52948423Y26823317D01*
X52902479Y26876263D01*
X52800823Y26993412D01*
X52800821Y26993414D01*
X52797323Y26997445D01*
X52668558Y27103026D01*
X52623173Y27140240D01*
X52623167Y27140244D01*
X52619045Y27143624D01*
X52614409Y27146263D01*
X52614406Y27146265D01*
X52423329Y27255032D01*
X52418686Y27257675D01*
X52201975Y27336337D01*
X52196726Y27337286D01*
X52196723Y27337287D01*
X51979192Y27376623D01*
X51979185Y27376624D01*
X51975108Y27377361D01*
X51957386Y27378197D01*
X51952444Y27378430D01*
X51952437Y27378430D01*
X51950956Y27378500D01*
X51538910Y27378500D01*
X51471991Y27372822D01*
X51372391Y27364371D01*
X51372387Y27364370D01*
X51367080Y27363920D01*
X51361925Y27362582D01*
X51361919Y27362581D01*
X51149097Y27307343D01*
X51149093Y27307342D01*
X51143928Y27306001D01*
X51139062Y27303809D01*
X51139059Y27303808D01*
X51030780Y27255032D01*
X50933725Y27211312D01*
X50929292Y27208328D01*
X50929291Y27208327D01*
X50871738Y27169580D01*
X50801371Y27148100D01*
X44857571Y27148100D01*
X44789450Y27168102D01*
X44768476Y27185005D01*
X44725525Y27227956D01*
X44694787Y27278115D01*
X44675870Y27336337D01*
X44639927Y27446956D01*
X44544440Y27612344D01*
X44521266Y27638082D01*
X44421075Y27749355D01*
X44421074Y27749356D01*
X44416653Y27754266D01*
X44305405Y27835093D01*
X44267494Y27862637D01*
X44267493Y27862638D01*
X44262152Y27866518D01*
X44256124Y27869202D01*
X44256122Y27869203D01*
X44093719Y27941509D01*
X44093718Y27941509D01*
X44087688Y27944194D01*
X43994288Y27964047D01*
X43907344Y27982528D01*
X43907339Y27982528D01*
X43900887Y27983900D01*
X43709913Y27983900D01*
X43703461Y27982528D01*
X43703456Y27982528D01*
X43616512Y27964047D01*
X43523112Y27944194D01*
X43517082Y27941509D01*
X43517081Y27941509D01*
X43354678Y27869203D01*
X43354676Y27869202D01*
X43348648Y27866518D01*
X43343307Y27862638D01*
X43343306Y27862637D01*
X43305395Y27835093D01*
X43194147Y27754266D01*
X43121847Y27673968D01*
X43061405Y27636731D01*
X42990421Y27638082D01*
X42939119Y27669186D01*
X41985422Y28622883D01*
X41951396Y28685195D01*
X41949207Y28698808D01*
X41941482Y28772315D01*
X41941482Y28772317D01*
X41940792Y28778878D01*
X41881777Y28960506D01*
X41786290Y29125894D01*
X41658503Y29267816D01*
X41543470Y29351393D01*
X41509344Y29376187D01*
X41509343Y29376188D01*
X41504002Y29380068D01*
X41497974Y29382752D01*
X41497972Y29382753D01*
X41335569Y29455059D01*
X41335568Y29455059D01*
X41329538Y29457744D01*
X41236137Y29477597D01*
X41149194Y29496078D01*
X41149189Y29496078D01*
X41142737Y29497450D01*
X40951763Y29497450D01*
X40945311Y29496078D01*
X40945306Y29496078D01*
X40858363Y29477597D01*
X40764962Y29457744D01*
X40758932Y29455059D01*
X40758931Y29455059D01*
X40596528Y29382753D01*
X40596526Y29382752D01*
X40590498Y29380068D01*
X40585157Y29376188D01*
X40585156Y29376187D01*
X40551030Y29351393D01*
X40435997Y29267816D01*
X40308210Y29125894D01*
X40212723Y28960506D01*
X40153708Y28778878D01*
X40153018Y28772317D01*
X40153018Y28772315D01*
X40137312Y28622883D01*
X40133746Y28588950D01*
X40153708Y28399022D01*
X40212723Y28217394D01*
X40216026Y28211672D01*
X40216027Y28211671D01*
X40237315Y28174800D01*
X40308210Y28052006D01*
X40435997Y27910084D01*
X40520992Y27848331D01*
X40579720Y27805663D01*
X40590498Y27797832D01*
X40596526Y27795148D01*
X40596528Y27795147D01*
X40758931Y27722841D01*
X40764962Y27720156D01*
X40838853Y27704450D01*
X40945306Y27681822D01*
X40945311Y27681822D01*
X40951763Y27680450D01*
X41083856Y27680450D01*
X41151977Y27660448D01*
X41172951Y27643545D01*
X43391714Y25424782D01*
X43425740Y25362470D01*
X43420675Y25291655D01*
X43391714Y25246592D01*
X42838142Y24693020D01*
X42829862Y24685485D01*
X42823382Y24681372D01*
X42784757Y24640240D01*
X42776757Y24631721D01*
X42774002Y24628879D01*
X42754265Y24609142D01*
X42751785Y24605945D01*
X42744082Y24596925D01*
X42713814Y24564693D01*
X42709995Y24557747D01*
X42709993Y24557744D01*
X42704052Y24546938D01*
X42693201Y24530419D01*
X42680786Y24514413D01*
X42677641Y24507144D01*
X42677638Y24507140D01*
X42663226Y24473835D01*
X42658009Y24463185D01*
X42636705Y24424432D01*
X42634734Y24416757D01*
X42634734Y24416756D01*
X42631667Y24404810D01*
X42625263Y24386106D01*
X42617219Y24367517D01*
X42615980Y24359694D01*
X42615977Y24359684D01*
X42610301Y24323848D01*
X42607895Y24312228D01*
X42596900Y24269402D01*
X42596900Y24249148D01*
X42595349Y24229438D01*
X42592180Y24209429D01*
X42592926Y24201537D01*
X42596341Y24165411D01*
X42596900Y24153553D01*
X42596900Y23868595D01*
X42576898Y23800474D01*
X42559995Y23779500D01*
X40252500Y21472005D01*
X40190188Y21437979D01*
X40163405Y21435100D01*
X36777862Y21435100D01*
X36766679Y21435627D01*
X36759186Y21437302D01*
X36751260Y21437053D01*
X36751259Y21437053D01*
X36691109Y21435162D01*
X36687150Y21435100D01*
X36659239Y21435100D01*
X36655305Y21434603D01*
X36655304Y21434603D01*
X36655239Y21434595D01*
X36643402Y21433662D01*
X36611144Y21432648D01*
X36607125Y21432522D01*
X36599206Y21432273D01*
X36579752Y21426621D01*
X36560395Y21422613D01*
X36548165Y21421068D01*
X36548164Y21421068D01*
X36540298Y21420074D01*
X36532927Y21417155D01*
X36532925Y21417155D01*
X36499183Y21403796D01*
X36487953Y21399951D01*
X36453112Y21389829D01*
X36453111Y21389829D01*
X36445502Y21387618D01*
X36438683Y21383585D01*
X36438678Y21383583D01*
X36428067Y21377307D01*
X36410319Y21368612D01*
X36391478Y21361152D01*
X36385062Y21356490D01*
X36385061Y21356490D01*
X36355708Y21335164D01*
X36345788Y21328648D01*
X36314560Y21310180D01*
X36314557Y21310178D01*
X36307733Y21306142D01*
X36293412Y21291821D01*
X36278379Y21278981D01*
X36261988Y21267072D01*
X36256937Y21260966D01*
X36233797Y21232995D01*
X36225807Y21224216D01*
X34326547Y19324957D01*
X34318261Y19317417D01*
X34311782Y19313305D01*
X34306357Y19307528D01*
X34265157Y19263654D01*
X34262402Y19260812D01*
X34242665Y19241075D01*
X34240185Y19237878D01*
X34232482Y19228858D01*
X34202214Y19196626D01*
X34198395Y19189680D01*
X34198393Y19189677D01*
X34192452Y19178871D01*
X34181601Y19162352D01*
X34169186Y19146346D01*
X34166041Y19139077D01*
X34166038Y19139073D01*
X34151626Y19105768D01*
X34146409Y19095118D01*
X34125105Y19056365D01*
X34123134Y19048690D01*
X34123134Y19048689D01*
X34120067Y19036743D01*
X34113663Y19018039D01*
X34105619Y18999450D01*
X34104379Y18991625D01*
X34104377Y18991616D01*
X34098700Y18955775D01*
X34096298Y18944173D01*
X34095745Y18942017D01*
X34067337Y18889030D01*
X34002984Y18817558D01*
X34002982Y18817555D01*
X33998560Y18812644D01*
X33995258Y18806925D01*
X33995256Y18806922D01*
X33909620Y18658596D01*
X33903073Y18647256D01*
X33844058Y18465628D01*
X33824096Y18275700D01*
X33824786Y18269135D01*
X33843234Y18093615D01*
X33844058Y18085772D01*
X33903073Y17904144D01*
X33998560Y17738756D01*
X34002978Y17733849D01*
X34002979Y17733848D01*
X34121925Y17601745D01*
X34126347Y17596834D01*
X34280848Y17484582D01*
X34286876Y17481898D01*
X34286878Y17481897D01*
X34377574Y17441517D01*
X34455312Y17406906D01*
X34552441Y17386260D01*
X34614913Y17352533D01*
X34649235Y17290383D01*
X34644507Y17219544D01*
X34615338Y17173919D01*
X34568624Y17127205D01*
X34506312Y17093179D01*
X34479529Y17090300D01*
X29154387Y17090300D01*
X29080328Y17114363D01*
X29073898Y17119035D01*
X29073891Y17119039D01*
X29068552Y17122918D01*
X29062524Y17125602D01*
X29062522Y17125603D01*
X28900119Y17197909D01*
X28900118Y17197909D01*
X28894088Y17200594D01*
X28800688Y17220447D01*
X28713744Y17238928D01*
X28713739Y17238928D01*
X28707287Y17240300D01*
X28516313Y17240300D01*
X28509861Y17238928D01*
X28509856Y17238928D01*
X28422912Y17220447D01*
X28329512Y17200594D01*
X28323482Y17197909D01*
X28323481Y17197909D01*
X28161078Y17125603D01*
X28161076Y17125602D01*
X28155048Y17122918D01*
X28149707Y17119038D01*
X28149706Y17119037D01*
X28143273Y17114363D01*
X28000547Y17010666D01*
X27872760Y16868744D01*
X27777273Y16703356D01*
X27728096Y16552004D01*
X27722413Y16534515D01*
X27691675Y16484356D01*
X21395450Y10188131D01*
X21389763Y10182785D01*
X21343696Y10142100D01*
X21339468Y10136117D01*
X21336105Y10131359D01*
X21322303Y10114984D01*
X20320124Y9112805D01*
X20257812Y9078779D01*
X20231029Y9075900D01*
X17274987Y9075900D01*
X17200928Y9099963D01*
X17194498Y9104635D01*
X17194491Y9104639D01*
X17189152Y9108518D01*
X17183124Y9111202D01*
X17183122Y9111203D01*
X17020719Y9183509D01*
X17020718Y9183509D01*
X17014688Y9186194D01*
X16921287Y9206047D01*
X16834344Y9224528D01*
X16834339Y9224528D01*
X16827887Y9225900D01*
X16636913Y9225900D01*
X16630461Y9224528D01*
X16630456Y9224528D01*
X16543513Y9206047D01*
X16450112Y9186194D01*
X16444082Y9183509D01*
X16444081Y9183509D01*
X16281678Y9111203D01*
X16281676Y9111202D01*
X16275648Y9108518D01*
X16270307Y9104638D01*
X16270306Y9104637D01*
X16263873Y9099963D01*
X16121147Y8996266D01*
X15993360Y8854344D01*
X15897873Y8688956D01*
X15838858Y8507328D01*
X15818896Y8317400D01*
X1410000Y8317400D01*
X1410000Y30845500D01*
X6019496Y30845500D01*
X6020186Y30838935D01*
X6035931Y30689134D01*
X6039458Y30655572D01*
X6098473Y30473944D01*
X6101776Y30468222D01*
X6101777Y30468221D01*
X6131722Y30416355D01*
X6193960Y30308556D01*
X6198378Y30303649D01*
X6198379Y30303648D01*
X6225411Y30273626D01*
X6321747Y30166634D01*
X6476248Y30054382D01*
X6482276Y30051698D01*
X6482278Y30051697D01*
X6644681Y29979391D01*
X6650712Y29976706D01*
X6744112Y29956853D01*
X6831056Y29938372D01*
X6831061Y29938372D01*
X6837513Y29937000D01*
X6893406Y29937000D01*
X6961527Y29916998D01*
X6982501Y29900095D01*
X12299481Y24583115D01*
X12333507Y24520803D01*
X12336386Y24494020D01*
X12336386Y24491165D01*
X12335696Y24484600D01*
X12336386Y24478035D01*
X12353127Y24318757D01*
X12355658Y24294672D01*
X12414673Y24113044D01*
X12510160Y23947656D01*
X12637947Y23805734D01*
X12792448Y23693482D01*
X12798476Y23690798D01*
X12798478Y23690797D01*
X12960881Y23618491D01*
X12966912Y23615806D01*
X13060313Y23595953D01*
X13147256Y23577472D01*
X13147261Y23577472D01*
X13153713Y23576100D01*
X13344687Y23576100D01*
X13351139Y23577472D01*
X13351144Y23577472D01*
X13438087Y23595953D01*
X13531488Y23615806D01*
X13537519Y23618491D01*
X13699922Y23690797D01*
X13699924Y23690798D01*
X13705952Y23693482D01*
X13860453Y23805734D01*
X13988240Y23947656D01*
X14083727Y24113044D01*
X14142742Y24294672D01*
X14145274Y24318757D01*
X14162014Y24478035D01*
X14162704Y24484600D01*
X14150444Y24601252D01*
X14143432Y24667965D01*
X14143432Y24667967D01*
X14142742Y24674528D01*
X14083727Y24856156D01*
X14074237Y24872594D01*
X13991541Y25015826D01*
X13988240Y25021544D01*
X13939780Y25075365D01*
X13864875Y25158555D01*
X13864874Y25158556D01*
X13860453Y25163466D01*
X13705952Y25275718D01*
X13699924Y25278402D01*
X13699922Y25278403D01*
X13537519Y25350709D01*
X13537518Y25350709D01*
X13531488Y25353394D01*
X13438088Y25373247D01*
X13351144Y25391728D01*
X13351139Y25391728D01*
X13344687Y25393100D01*
X13333494Y25393100D01*
X13265373Y25413102D01*
X13244399Y25430005D01*
X7880122Y30794283D01*
X7846096Y30856595D01*
X7843907Y30870208D01*
X7827232Y31028865D01*
X7827232Y31028867D01*
X7826542Y31035428D01*
X7767527Y31217056D01*
X7763093Y31224737D01*
X7722738Y31294633D01*
X7672040Y31382444D01*
X7664949Y31390320D01*
X7548675Y31519455D01*
X7548674Y31519456D01*
X7544253Y31524366D01*
X7389752Y31636618D01*
X7383724Y31639302D01*
X7383722Y31639303D01*
X7221319Y31711609D01*
X7221318Y31711609D01*
X7215288Y31714294D01*
X7121888Y31734147D01*
X7034944Y31752628D01*
X7034939Y31752628D01*
X7028487Y31754000D01*
X6837513Y31754000D01*
X6831061Y31752628D01*
X6831056Y31752628D01*
X6744112Y31734147D01*
X6650712Y31714294D01*
X6644682Y31711609D01*
X6644681Y31711609D01*
X6482278Y31639303D01*
X6482276Y31639302D01*
X6476248Y31636618D01*
X6321747Y31524366D01*
X6317326Y31519456D01*
X6317325Y31519455D01*
X6201052Y31390320D01*
X6193960Y31382444D01*
X6143262Y31294633D01*
X6102908Y31224737D01*
X6098473Y31217056D01*
X6039458Y31035428D01*
X6038768Y31028867D01*
X6038768Y31028865D01*
X6034759Y30990721D01*
X6019496Y30845500D01*
X1410000Y30845500D01*
X1410000Y34060400D01*
X2480496Y34060400D01*
X2481186Y34053835D01*
X2497060Y33902806D01*
X2500458Y33870472D01*
X2559473Y33688844D01*
X2654960Y33523456D01*
X2659378Y33518549D01*
X2659379Y33518548D01*
X2764965Y33401283D01*
X2782747Y33381534D01*
X2855195Y33328897D01*
X2931261Y33273632D01*
X2937248Y33269282D01*
X2943276Y33266598D01*
X2943278Y33266597D01*
X3105681Y33194291D01*
X3111712Y33191606D01*
X3205112Y33171753D01*
X3292056Y33153272D01*
X3292061Y33153272D01*
X3298513Y33151900D01*
X3489487Y33151900D01*
X3495939Y33153272D01*
X3495944Y33153272D01*
X3582888Y33171753D01*
X3676288Y33191606D01*
X3682319Y33194291D01*
X3844722Y33266597D01*
X3844724Y33266598D01*
X3850752Y33269282D01*
X3856740Y33273632D01*
X3964653Y33352036D01*
X4031521Y33375895D01*
X4038714Y33376100D01*
X6845833Y33376100D01*
X6857016Y33375573D01*
X6864509Y33373898D01*
X6872435Y33374147D01*
X6872436Y33374147D01*
X6932586Y33376038D01*
X6936545Y33376100D01*
X6964456Y33376100D01*
X6968391Y33376597D01*
X6968456Y33376605D01*
X6980293Y33377538D01*
X7012551Y33378552D01*
X7016570Y33378678D01*
X7024489Y33378927D01*
X7043943Y33384579D01*
X7063300Y33388587D01*
X7075530Y33390132D01*
X7075531Y33390132D01*
X7083397Y33391126D01*
X7090768Y33394045D01*
X7090770Y33394045D01*
X7124512Y33407404D01*
X7135742Y33411249D01*
X7170583Y33421371D01*
X7170584Y33421371D01*
X7178193Y33423582D01*
X7185012Y33427615D01*
X7185017Y33427617D01*
X7195628Y33433893D01*
X7213376Y33442588D01*
X7232217Y33450048D01*
X7249998Y33462966D01*
X7267987Y33476036D01*
X7277907Y33482552D01*
X7309135Y33501020D01*
X7309138Y33501022D01*
X7315962Y33505058D01*
X7330283Y33519379D01*
X7345321Y33532223D01*
X7348096Y33534239D01*
X7422153Y33558300D01*
X7477287Y33558300D01*
X7483739Y33559672D01*
X7483744Y33559672D01*
X7643380Y33593604D01*
X7714171Y33588202D01*
X7749891Y33567443D01*
X7783303Y33539803D01*
X7792084Y33531812D01*
X8485878Y32838018D01*
X8519904Y32775706D01*
X8522092Y32762097D01*
X8539458Y32596872D01*
X8598473Y32415244D01*
X8693960Y32249856D01*
X8767137Y32168585D01*
X8797853Y32104579D01*
X8799500Y32084276D01*
X8799500Y30931167D01*
X8798973Y30919984D01*
X8797298Y30912491D01*
X8797547Y30904565D01*
X8797547Y30904564D01*
X8799438Y30844414D01*
X8799500Y30840455D01*
X8799500Y30812544D01*
X8799997Y30808610D01*
X8799997Y30808609D01*
X8800005Y30808544D01*
X8800938Y30796707D01*
X8802327Y30752511D01*
X8807978Y30733061D01*
X8811987Y30713700D01*
X8812825Y30707071D01*
X8814526Y30693603D01*
X8817445Y30686232D01*
X8817445Y30686230D01*
X8830804Y30652488D01*
X8834649Y30641258D01*
X8846982Y30598807D01*
X8851015Y30591988D01*
X8851017Y30591983D01*
X8857293Y30581372D01*
X8865988Y30563624D01*
X8873448Y30544783D01*
X8878110Y30538367D01*
X8878110Y30538366D01*
X8899436Y30509013D01*
X8905952Y30499093D01*
X8924210Y30468221D01*
X8928458Y30461038D01*
X8942779Y30446717D01*
X8955619Y30431684D01*
X8967528Y30415293D01*
X8973634Y30410242D01*
X9001605Y30387102D01*
X9010384Y30379112D01*
X13248343Y26141153D01*
X13255887Y26132863D01*
X13260000Y26126382D01*
X13265777Y26120957D01*
X13309667Y26079742D01*
X13312509Y26076987D01*
X13332230Y26057266D01*
X13335425Y26054788D01*
X13344447Y26047082D01*
X13376679Y26016814D01*
X13383628Y26012994D01*
X13394432Y26007054D01*
X13410956Y25996201D01*
X13426959Y25983787D01*
X13467543Y25966224D01*
X13478173Y25961017D01*
X13516940Y25939705D01*
X13524617Y25937734D01*
X13524622Y25937732D01*
X13536558Y25934668D01*
X13555266Y25928263D01*
X13573855Y25920219D01*
X13581680Y25918980D01*
X13581682Y25918979D01*
X13617519Y25913303D01*
X13629140Y25910896D01*
X13664289Y25901872D01*
X13671970Y25899900D01*
X13692231Y25899900D01*
X13711940Y25898349D01*
X13731943Y25895181D01*
X13739835Y25895927D01*
X13745062Y25896421D01*
X13775954Y25899341D01*
X13787811Y25899900D01*
X25017305Y25899900D01*
X25085426Y25879898D01*
X25131919Y25826242D01*
X25142023Y25755968D01*
X25112529Y25691388D01*
X25106400Y25684805D01*
X14870000Y15448405D01*
X14807688Y15414379D01*
X14780905Y15411500D01*
X14725013Y15411500D01*
X14718561Y15410128D01*
X14718556Y15410128D01*
X14631612Y15391647D01*
X14538212Y15371794D01*
X14532182Y15369109D01*
X14532181Y15369109D01*
X14369778Y15296803D01*
X14369776Y15296802D01*
X14363748Y15294118D01*
X14209247Y15181866D01*
X14081460Y15039944D01*
X13985973Y14874556D01*
X13926958Y14692928D01*
X13906996Y14503000D01*
X13926958Y14313072D01*
X13985973Y14131444D01*
X14081460Y13966056D01*
X14209247Y13824134D01*
X14363748Y13711882D01*
X14369776Y13709198D01*
X14369778Y13709197D01*
X14532181Y13636891D01*
X14538212Y13634206D01*
X14631613Y13614353D01*
X14718556Y13595872D01*
X14718561Y13595872D01*
X14725013Y13594500D01*
X14915987Y13594500D01*
X14922439Y13595872D01*
X14922444Y13595872D01*
X15009387Y13614353D01*
X15102788Y13634206D01*
X15108819Y13636891D01*
X15271222Y13709197D01*
X15271224Y13709198D01*
X15277252Y13711882D01*
X15431753Y13824134D01*
X15559540Y13966056D01*
X15655027Y14131444D01*
X15714042Y14313072D01*
X15731407Y14478294D01*
X15758420Y14543950D01*
X15767622Y14554218D01*
X26348399Y25134995D01*
X26410711Y25169021D01*
X26437494Y25171900D01*
X31187752Y25171900D01*
X31255873Y25151898D01*
X31271517Y25138581D01*
X31272220Y25139361D01*
X31277128Y25134941D01*
X31281547Y25130034D01*
X31436048Y25017782D01*
X31442076Y25015098D01*
X31442078Y25015097D01*
X31578270Y24954461D01*
X31610512Y24940106D01*
X31703912Y24920253D01*
X31790856Y24901772D01*
X31790861Y24901772D01*
X31797313Y24900400D01*
X31824013Y24900400D01*
X31892134Y24880398D01*
X31938627Y24826742D01*
X31943846Y24813336D01*
X31998073Y24646444D01*
X32001376Y24640722D01*
X32001377Y24640721D01*
X32024165Y24601252D01*
X32093560Y24481056D01*
X32097978Y24476149D01*
X32097979Y24476148D01*
X32175963Y24389538D01*
X32221347Y24339134D01*
X32300586Y24281563D01*
X32366460Y24233703D01*
X32375848Y24226882D01*
X32381876Y24224198D01*
X32381878Y24224197D01*
X32544281Y24151891D01*
X32550312Y24149206D01*
X32636985Y24130783D01*
X32730656Y24110872D01*
X32730661Y24110872D01*
X32737113Y24109500D01*
X32928087Y24109500D01*
X32934539Y24110872D01*
X32934544Y24110872D01*
X33028215Y24130783D01*
X33114888Y24149206D01*
X33120919Y24151891D01*
X33283322Y24224197D01*
X33283324Y24224198D01*
X33289352Y24226882D01*
X33298741Y24233703D01*
X33427630Y24327347D01*
X33443853Y24339134D01*
X33448268Y24344037D01*
X33448271Y24344040D01*
X33449049Y24344904D01*
X33449624Y24345258D01*
X33453180Y24348460D01*
X33453765Y24347810D01*
X33509494Y24382145D01*
X33538727Y24386533D01*
X33553186Y24386987D01*
X33556070Y24387078D01*
X33563989Y24387327D01*
X33583443Y24392979D01*
X33602800Y24396987D01*
X33615030Y24398532D01*
X33615031Y24398532D01*
X33622897Y24399526D01*
X33630268Y24402445D01*
X33630270Y24402445D01*
X33664012Y24415804D01*
X33675242Y24419649D01*
X33710083Y24429771D01*
X33710084Y24429771D01*
X33717693Y24431982D01*
X33724512Y24436015D01*
X33724517Y24436017D01*
X33735128Y24442293D01*
X33752876Y24450988D01*
X33771717Y24458448D01*
X33807487Y24484436D01*
X33817407Y24490952D01*
X33848635Y24509420D01*
X33848638Y24509422D01*
X33855462Y24513458D01*
X33869783Y24527779D01*
X33884817Y24540620D01*
X33894794Y24547869D01*
X33901207Y24552528D01*
X33929398Y24586605D01*
X33937388Y24595384D01*
X34205499Y24863495D01*
X34267811Y24897521D01*
X34294594Y24900400D01*
X34350487Y24900400D01*
X34356939Y24901772D01*
X34356944Y24901772D01*
X34443888Y24920253D01*
X34537288Y24940106D01*
X34569530Y24954461D01*
X34705722Y25015097D01*
X34705724Y25015098D01*
X34711752Y25017782D01*
X34866253Y25130034D01*
X34874651Y25139361D01*
X34989621Y25267048D01*
X34989622Y25267049D01*
X34994040Y25271956D01*
X35089527Y25437344D01*
X35148542Y25618972D01*
X35168504Y25808900D01*
X35155545Y25932201D01*
X35149232Y25992265D01*
X35149232Y25992267D01*
X35148542Y25998828D01*
X35089527Y26180456D01*
X35037114Y26271238D01*
X35020376Y26340233D01*
X35043596Y26407325D01*
X35057138Y26423334D01*
X35741616Y27107811D01*
X35803928Y27141836D01*
X35874744Y27136771D01*
X35924346Y27103027D01*
X36030947Y26984634D01*
X36185448Y26872382D01*
X36191476Y26869698D01*
X36191478Y26869697D01*
X36295650Y26823317D01*
X36359912Y26794706D01*
X36453312Y26774853D01*
X36540256Y26756372D01*
X36540261Y26756372D01*
X36546713Y26755000D01*
X36737687Y26755000D01*
X36744139Y26756372D01*
X36744144Y26756372D01*
X36831088Y26774853D01*
X36924488Y26794706D01*
X36988750Y26823317D01*
X37092922Y26869697D01*
X37092924Y26869698D01*
X37098952Y26872382D01*
X37253453Y26984634D01*
X37381240Y27126556D01*
X37461360Y27265328D01*
X37473423Y27286221D01*
X37473424Y27286222D01*
X37476727Y27291944D01*
X37535742Y27473572D01*
X37553107Y27638794D01*
X37580120Y27704450D01*
X37589322Y27714718D01*
X39329664Y29455059D01*
X41091353Y31216748D01*
X41099639Y31224288D01*
X41106118Y31228400D01*
X41116296Y31239238D01*
X41152743Y31278051D01*
X41155498Y31280893D01*
X41175235Y31300630D01*
X41177715Y31303827D01*
X41185420Y31312849D01*
X41210259Y31339300D01*
X41215686Y31345079D01*
X41219505Y31352025D01*
X41219507Y31352028D01*
X41225448Y31362834D01*
X41236299Y31379353D01*
X41236659Y31379817D01*
X41248714Y31395359D01*
X41251859Y31402628D01*
X41251862Y31402632D01*
X41266274Y31435937D01*
X41271491Y31446587D01*
X41292795Y31485340D01*
X41297833Y31504963D01*
X41304237Y31523666D01*
X41309133Y31534980D01*
X41309133Y31534981D01*
X41312281Y31542255D01*
X41313520Y31550078D01*
X41313523Y31550088D01*
X41319199Y31585924D01*
X41321605Y31597544D01*
X41330628Y31632689D01*
X41330628Y31632690D01*
X41332600Y31640370D01*
X41332600Y31660624D01*
X41334151Y31680335D01*
X41336080Y31692514D01*
X41337320Y31700343D01*
X41333159Y31744362D01*
X41332600Y31756219D01*
X41332600Y32334396D01*
X48612787Y32334396D01*
X48622567Y32123101D01*
X48623971Y32117276D01*
X48623971Y32117275D01*
X48665273Y31945899D01*
X48672125Y31917466D01*
X48674607Y31912008D01*
X48674608Y31912004D01*
X48718053Y31816454D01*
X48759674Y31724913D01*
X48850023Y31597544D01*
X48859085Y31584770D01*
X48882054Y31552389D01*
X49034850Y31406119D01*
X49212548Y31291380D01*
X49242098Y31279471D01*
X49403168Y31214558D01*
X49403171Y31214557D01*
X49408737Y31212314D01*
X49616337Y31171772D01*
X49621899Y31171500D01*
X49777846Y31171500D01*
X49935566Y31186548D01*
X50138534Y31246092D01*
X50180469Y31267690D01*
X50321249Y31340196D01*
X50321252Y31340198D01*
X50326580Y31342942D01*
X50492920Y31473604D01*
X50496852Y31478135D01*
X50496855Y31478138D01*
X50627621Y31628833D01*
X50631552Y31633363D01*
X50634552Y31638549D01*
X50634555Y31638553D01*
X50734467Y31811258D01*
X50737473Y31816454D01*
X50806861Y32016271D01*
X50809576Y32034994D01*
X50836352Y32219664D01*
X50836352Y32219667D01*
X50837213Y32225604D01*
X50829619Y32389674D01*
X50846450Y32458647D01*
X50897898Y32507571D01*
X50955484Y32521500D01*
X52500400Y32521500D01*
X52503646Y32521837D01*
X52503650Y32521837D01*
X52599308Y32531762D01*
X52599312Y32531763D01*
X52606166Y32532474D01*
X52612702Y32534655D01*
X52612704Y32534655D01*
X52744806Y32578728D01*
X52773946Y32588450D01*
X52924348Y32681522D01*
X53049305Y32806697D01*
X53120038Y32921447D01*
X53138275Y32951032D01*
X53138276Y32951034D01*
X53142115Y32957262D01*
X53197797Y33125139D01*
X53200429Y33150822D01*
X53202909Y33175031D01*
X53208500Y33229600D01*
X53208500Y34530400D01*
X53203180Y34581672D01*
X53198238Y34629308D01*
X53198237Y34629312D01*
X53197526Y34636166D01*
X53188540Y34663102D01*
X53143868Y34796998D01*
X53141550Y34803946D01*
X53048478Y34954348D01*
X52923303Y35079305D01*
X52777220Y35169353D01*
X52729727Y35222124D01*
X52718303Y35292196D01*
X52746577Y35357320D01*
X52756364Y35367782D01*
X52866906Y35473234D01*
X52873941Y35481186D01*
X53005141Y35657525D01*
X53010745Y35666562D01*
X53110357Y35862484D01*
X53114357Y35872335D01*
X53179534Y36082240D01*
X53181817Y36092624D01*
X53183861Y36108043D01*
X53181665Y36122207D01*
X53168478Y36126000D01*
X50283808Y36126000D01*
X50270277Y36122027D01*
X50268752Y36111420D01*
X50293477Y35993579D01*
X50296537Y35983383D01*
X50377263Y35778971D01*
X50381994Y35769439D01*
X50496016Y35581538D01*
X50502280Y35572948D01*
X50646327Y35406948D01*
X50653956Y35399530D01*
X50685569Y35373609D01*
X50725564Y35314949D01*
X50727496Y35243979D01*
X50690752Y35183230D01*
X50671983Y35169031D01*
X50525652Y35078478D01*
X50400695Y34953303D01*
X50396855Y34947073D01*
X50396854Y34947072D01*
X50337954Y34851518D01*
X50307885Y34802738D01*
X50252203Y34634861D01*
X50241500Y34530400D01*
X50241500Y33453615D01*
X50221498Y33385494D01*
X50167842Y33339001D01*
X50097568Y33328897D01*
X50068405Y33336747D01*
X50041263Y33347686D01*
X49833663Y33388228D01*
X49828101Y33388500D01*
X49672154Y33388500D01*
X49514434Y33373452D01*
X49311466Y33313908D01*
X49306139Y33311164D01*
X49306138Y33311164D01*
X49128751Y33219804D01*
X49128748Y33219802D01*
X49123420Y33217058D01*
X48957080Y33086396D01*
X48953148Y33081865D01*
X48953145Y33081862D01*
X48856145Y32970079D01*
X48818448Y32926637D01*
X48815448Y32921451D01*
X48815445Y32921447D01*
X48746064Y32801517D01*
X48712527Y32743546D01*
X48643139Y32543729D01*
X48642278Y32537794D01*
X48642278Y32537792D01*
X48623680Y32409521D01*
X48612787Y32334396D01*
X41332600Y32334396D01*
X41332600Y34916376D01*
X41352602Y34984497D01*
X41364958Y35000679D01*
X41438140Y35081956D01*
X41533627Y35247344D01*
X41592642Y35428972D01*
X41594376Y35445465D01*
X41611914Y35612335D01*
X41612604Y35618900D01*
X41603316Y35707272D01*
X41593332Y35802265D01*
X41593332Y35802267D01*
X41592642Y35808828D01*
X41533627Y35990456D01*
X41512224Y36027528D01*
X41451753Y36132266D01*
X41438140Y36155844D01*
X41422262Y36173479D01*
X41314775Y36292855D01*
X41314774Y36292856D01*
X41310353Y36297766D01*
X41175504Y36395740D01*
X41161194Y36406137D01*
X41161193Y36406138D01*
X41155852Y36410018D01*
X41078921Y36444270D01*
X41024826Y36490248D01*
X41004176Y36558175D01*
X41023528Y36626484D01*
X41041075Y36648471D01*
X41253799Y36861195D01*
X41316111Y36895221D01*
X41342894Y36898100D01*
X49334533Y36898100D01*
X49345716Y36897573D01*
X49353209Y36895898D01*
X49361135Y36896147D01*
X49361136Y36896147D01*
X49421286Y36898038D01*
X49425245Y36898100D01*
X49453156Y36898100D01*
X49457091Y36898597D01*
X49457156Y36898605D01*
X49468993Y36899538D01*
X49501251Y36900552D01*
X49505270Y36900678D01*
X49513189Y36900927D01*
X49532643Y36906579D01*
X49552000Y36910587D01*
X49564230Y36912132D01*
X49564231Y36912132D01*
X49572097Y36913126D01*
X49579468Y36916045D01*
X49579470Y36916045D01*
X49613212Y36929404D01*
X49624442Y36933249D01*
X49659283Y36943371D01*
X49659284Y36943371D01*
X49666893Y36945582D01*
X49673712Y36949615D01*
X49673717Y36949617D01*
X49684328Y36955893D01*
X49702076Y36964588D01*
X49720917Y36972048D01*
X49727334Y36976710D01*
X49734279Y36980528D01*
X49735895Y36977589D01*
X49788315Y36996294D01*
X49795512Y36996500D01*
X50198378Y36996500D01*
X50266499Y36976498D01*
X50312992Y36922842D01*
X50323096Y36852568D01*
X50318711Y36833136D01*
X50270466Y36677760D01*
X50268183Y36667376D01*
X50266139Y36651957D01*
X50268335Y36637793D01*
X50281522Y36634000D01*
X53166192Y36634000D01*
X53179723Y36637973D01*
X53181248Y36648580D01*
X53156523Y36766421D01*
X53153463Y36776617D01*
X53072737Y36981029D01*
X53068006Y36990561D01*
X52953983Y37178464D01*
X52947721Y37187051D01*
X52919538Y37219528D01*
X52889999Y37284087D01*
X52900051Y37354368D01*
X52925608Y37391204D01*
X53456547Y37922143D01*
X53464837Y37929687D01*
X53471318Y37933800D01*
X53517959Y37983468D01*
X53520713Y37986309D01*
X53540434Y38006030D01*
X53542912Y38009225D01*
X53550618Y38018247D01*
X53575458Y38044699D01*
X53580886Y38050479D01*
X53590646Y38068232D01*
X53601499Y38084755D01*
X53609053Y38094494D01*
X53613913Y38100759D01*
X53631476Y38141343D01*
X53636683Y38151973D01*
X53657995Y38190740D01*
X53659966Y38198417D01*
X53659968Y38198422D01*
X53663032Y38210358D01*
X53669438Y38229070D01*
X53674333Y38240381D01*
X53677481Y38247655D01*
X53678721Y38255483D01*
X53678723Y38255490D01*
X53684399Y38291324D01*
X53686805Y38302944D01*
X53695828Y38338089D01*
X53695828Y38338090D01*
X53697800Y38345770D01*
X53697800Y38366024D01*
X53699351Y38385735D01*
X53701280Y38397914D01*
X53702520Y38405743D01*
X53698359Y38449762D01*
X53697800Y38461619D01*
X53697800Y41798532D01*
X53698327Y41809715D01*
X53700002Y41817208D01*
X53697862Y41885299D01*
X53697800Y41889256D01*
X53697800Y41917156D01*
X53697296Y41921147D01*
X53696363Y41932989D01*
X53695223Y41969264D01*
X53694974Y41977189D01*
X53689321Y41996648D01*
X53685312Y42016007D01*
X53685146Y42017317D01*
X53682774Y42036097D01*
X53679858Y42043463D01*
X53679856Y42043469D01*
X53666500Y42077202D01*
X53662655Y42088432D01*
X53652530Y42123283D01*
X53652530Y42123284D01*
X53650319Y42130893D01*
X53640005Y42148334D01*
X53631308Y42166087D01*
X53626772Y42177542D01*
X53623852Y42184917D01*
X53597863Y42220688D01*
X53591347Y42230608D01*
X53572878Y42261837D01*
X53568842Y42268662D01*
X53554521Y42282983D01*
X53541680Y42298017D01*
X53534432Y42307993D01*
X53529772Y42314407D01*
X53495707Y42342588D01*
X53486926Y42350578D01*
X52943396Y42894109D01*
X52909371Y42956421D01*
X52914436Y43027237D01*
X52931402Y43058416D01*
X53005142Y43157527D01*
X53010745Y43166562D01*
X53110357Y43362484D01*
X53114357Y43372335D01*
X53179534Y43582240D01*
X53181817Y43592624D01*
X53183861Y43608043D01*
X53181665Y43622207D01*
X53168478Y43626000D01*
X51597000Y43626000D01*
X51528879Y43646002D01*
X51482386Y43699658D01*
X51471000Y43752000D01*
X51471000Y44152115D01*
X51979000Y44152115D01*
X51983475Y44136876D01*
X51984865Y44135671D01*
X51992548Y44134000D01*
X53166192Y44134000D01*
X53179723Y44137973D01*
X53181248Y44148580D01*
X53156523Y44266421D01*
X53153463Y44276617D01*
X53072737Y44481029D01*
X53068006Y44490561D01*
X52953984Y44678462D01*
X52947720Y44687052D01*
X52803673Y44853052D01*
X52796042Y44860472D01*
X52626089Y44999826D01*
X52617323Y45005850D01*
X52589801Y45021517D01*
X52540496Y45072600D01*
X52526635Y45142230D01*
X52552619Y45208301D01*
X52581768Y45235538D01*
X52699575Y45314850D01*
X52707870Y45321519D01*
X52866900Y45473228D01*
X52873941Y45481186D01*
X53005141Y45657525D01*
X53010745Y45666562D01*
X53110357Y45862484D01*
X53114357Y45872335D01*
X53179534Y46082240D01*
X53181817Y46092624D01*
X53183861Y46108043D01*
X53181665Y46122207D01*
X53168478Y46126000D01*
X51997115Y46126000D01*
X51981876Y46121525D01*
X51980671Y46120135D01*
X51979000Y46112452D01*
X51979000Y44152115D01*
X51471000Y44152115D01*
X51471000Y46107885D01*
X51466525Y46123124D01*
X51465135Y46124329D01*
X51457452Y46126000D01*
X50283808Y46126000D01*
X50270277Y46122027D01*
X50268752Y46111420D01*
X50293477Y45993579D01*
X50296537Y45983383D01*
X50377263Y45778971D01*
X50381994Y45769439D01*
X50496016Y45581538D01*
X50502280Y45572948D01*
X50646327Y45406948D01*
X50653958Y45399528D01*
X50823911Y45260174D01*
X50832677Y45254150D01*
X50860199Y45238483D01*
X50909504Y45187400D01*
X50923365Y45117770D01*
X50897381Y45051699D01*
X50868232Y45024462D01*
X50750425Y44945150D01*
X50742130Y44938481D01*
X50583100Y44786772D01*
X50576059Y44778814D01*
X50444859Y44602475D01*
X50439255Y44593438D01*
X50410576Y44537030D01*
X50361872Y44485372D01*
X50292973Y44468246D01*
X50225751Y44491088D01*
X50209164Y44505040D01*
X48166626Y46547578D01*
X48132600Y46609890D01*
X48137665Y46680705D01*
X48151266Y46706041D01*
X48151240Y46706056D01*
X48151725Y46706896D01*
X48151725Y46706897D01*
X48186092Y46766421D01*
X48243423Y46865721D01*
X48243424Y46865722D01*
X48246727Y46871444D01*
X48305742Y47053072D01*
X48309943Y47093037D01*
X48325014Y47236435D01*
X48325704Y47243000D01*
X48312378Y47369794D01*
X48306432Y47426365D01*
X48306432Y47426367D01*
X48305742Y47432928D01*
X48246727Y47614556D01*
X48230911Y47641951D01*
X48183412Y47724221D01*
X48151240Y47779944D01*
X48023453Y47921866D01*
X47868952Y48034118D01*
X47862924Y48036802D01*
X47862922Y48036803D01*
X47700519Y48109109D01*
X47700518Y48109109D01*
X47694488Y48111794D01*
X47601088Y48131647D01*
X47514144Y48150128D01*
X47514139Y48150128D01*
X47507687Y48151500D01*
X47316713Y48151500D01*
X47310261Y48150128D01*
X47310256Y48150128D01*
X47223313Y48131647D01*
X47129912Y48111794D01*
X47123882Y48109109D01*
X47123881Y48109109D01*
X46961478Y48036803D01*
X46961476Y48036802D01*
X46955448Y48034118D01*
X46800947Y47921866D01*
X46673160Y47779944D01*
X46640988Y47724221D01*
X46593490Y47641951D01*
X46577673Y47614556D01*
X46518658Y47432928D01*
X46517968Y47426367D01*
X46517968Y47426365D01*
X46512022Y47369794D01*
X46498696Y47243000D01*
X46499386Y47236435D01*
X46514458Y47093037D01*
X46518658Y47053072D01*
X46577673Y46871444D01*
X46673160Y46706056D01*
X46746337Y46624785D01*
X46777053Y46560779D01*
X46778700Y46540476D01*
X46778700Y46484866D01*
X46778173Y46473683D01*
X46776498Y46466190D01*
X46776747Y46458264D01*
X46776747Y46458263D01*
X46778638Y46398113D01*
X46778700Y46394154D01*
X46778700Y46366243D01*
X46779197Y46362309D01*
X46779197Y46362308D01*
X46779205Y46362243D01*
X46780138Y46350406D01*
X46781527Y46306210D01*
X46787178Y46286760D01*
X46791187Y46267399D01*
X46793726Y46247302D01*
X46796645Y46239931D01*
X46796645Y46239929D01*
X46810004Y46206187D01*
X46813849Y46194957D01*
X46826182Y46152506D01*
X46830215Y46145687D01*
X46830217Y46145682D01*
X46836493Y46135071D01*
X46845188Y46117323D01*
X46852648Y46098482D01*
X46857310Y46092066D01*
X46857310Y46092065D01*
X46878636Y46062712D01*
X46885152Y46052792D01*
X46907658Y46014737D01*
X46921979Y46000416D01*
X46934819Y45985383D01*
X46946728Y45968992D01*
X46973916Y45946500D01*
X46980805Y45940801D01*
X46989584Y45932811D01*
X50527534Y42394861D01*
X50561560Y42332549D01*
X50556495Y42261734D01*
X50539529Y42230554D01*
X50441246Y42098458D01*
X50438830Y42093707D01*
X50438828Y42093703D01*
X50433245Y42082721D01*
X50336760Y41892949D01*
X50335178Y41887855D01*
X50335177Y41887852D01*
X50304009Y41787474D01*
X50268393Y41672773D01*
X50267692Y41667484D01*
X50242446Y41476998D01*
X50238102Y41444226D01*
X50246751Y41213842D01*
X50294093Y40988209D01*
X50296051Y40983250D01*
X50296052Y40983248D01*
X50339169Y40874071D01*
X50378776Y40773779D01*
X50381543Y40769220D01*
X50381544Y40769217D01*
X50424318Y40698728D01*
X50498377Y40576683D01*
X50501874Y40572653D01*
X50557283Y40508800D01*
X50649477Y40402555D01*
X50653608Y40399168D01*
X50823627Y40259760D01*
X50823633Y40259756D01*
X50827755Y40256376D01*
X50859250Y40238448D01*
X50908555Y40187368D01*
X50922417Y40117738D01*
X50896434Y40051667D01*
X50867284Y40024427D01*
X50745681Y39942559D01*
X50578865Y39783424D01*
X50441246Y39598458D01*
X50438830Y39593706D01*
X50438825Y39593698D01*
X50433078Y39582394D01*
X50384375Y39530737D01*
X50320762Y39513500D01*
X50084295Y39513500D01*
X50016174Y39533502D01*
X49995200Y39550405D01*
X46022752Y43522853D01*
X46015212Y43531139D01*
X46011100Y43537618D01*
X45961448Y43584244D01*
X45958607Y43586998D01*
X45938870Y43606735D01*
X45935673Y43609215D01*
X45926651Y43616920D01*
X45916982Y43626000D01*
X45894421Y43647186D01*
X45887475Y43651005D01*
X45887472Y43651007D01*
X45876666Y43656948D01*
X45860147Y43667799D01*
X45859683Y43668159D01*
X45844141Y43680214D01*
X45836872Y43683359D01*
X45836868Y43683362D01*
X45803563Y43697774D01*
X45792913Y43702991D01*
X45754160Y43724295D01*
X45734537Y43729333D01*
X45715834Y43735737D01*
X45704520Y43740633D01*
X45704519Y43740633D01*
X45697245Y43743781D01*
X45689422Y43745020D01*
X45689412Y43745023D01*
X45653576Y43750699D01*
X45641956Y43753105D01*
X45606811Y43762128D01*
X45606810Y43762128D01*
X45599130Y43764100D01*
X45578876Y43764100D01*
X45559165Y43765651D01*
X45546986Y43767580D01*
X45539157Y43768820D01*
X45509886Y43766053D01*
X45495139Y43764659D01*
X45483281Y43764100D01*
X44997268Y43764100D01*
X44986085Y43764627D01*
X44978592Y43766302D01*
X44970666Y43766053D01*
X44970665Y43766053D01*
X44910502Y43764162D01*
X44906544Y43764100D01*
X44878644Y43764100D01*
X44874654Y43763596D01*
X44862820Y43762664D01*
X44818611Y43761274D01*
X44810995Y43759061D01*
X44810993Y43759061D01*
X44799152Y43755621D01*
X44779793Y43751612D01*
X44778483Y43751446D01*
X44759703Y43749074D01*
X44752337Y43746158D01*
X44752331Y43746156D01*
X44718598Y43732800D01*
X44707368Y43728955D01*
X44691328Y43724295D01*
X44664907Y43716619D01*
X44658084Y43712584D01*
X44647466Y43706305D01*
X44629713Y43697608D01*
X44622068Y43694581D01*
X44610883Y43690152D01*
X44597205Y43680214D01*
X44575112Y43664163D01*
X44565195Y43657649D01*
X44527138Y43635142D01*
X44512817Y43620821D01*
X44497784Y43607981D01*
X44481393Y43596072D01*
X44472717Y43585584D01*
X44453202Y43561995D01*
X44445212Y43553216D01*
X43715845Y42823849D01*
X43653533Y42789823D01*
X43582718Y42794888D01*
X43525882Y42837435D01*
X43517662Y42849897D01*
X43517643Y42849923D01*
X43514340Y42855644D01*
X43386553Y42997566D01*
X43232052Y43109818D01*
X43226024Y43112502D01*
X43226022Y43112503D01*
X43063619Y43184809D01*
X43063618Y43184809D01*
X43057588Y43187494D01*
X42964187Y43207347D01*
X42877244Y43225828D01*
X42877239Y43225828D01*
X42870787Y43227200D01*
X42814895Y43227200D01*
X42746774Y43247202D01*
X42725800Y43264105D01*
X39844500Y46145405D01*
X39810474Y46207717D01*
X39808285Y46221330D01*
X39799432Y46305565D01*
X39799432Y46305567D01*
X39798742Y46312128D01*
X39739727Y46493756D01*
X39644240Y46659144D01*
X39624827Y46680705D01*
X39520875Y46796155D01*
X39520874Y46796156D01*
X39516453Y46801066D01*
X39397260Y46887665D01*
X39367294Y46909437D01*
X39367293Y46909438D01*
X39361952Y46913318D01*
X39355924Y46916002D01*
X39355922Y46916003D01*
X39193519Y46988309D01*
X39193518Y46988309D01*
X39187488Y46990994D01*
X39094088Y47010847D01*
X39007144Y47029328D01*
X39007139Y47029328D01*
X39000687Y47030700D01*
X38809713Y47030700D01*
X38803261Y47029328D01*
X38803256Y47029328D01*
X38716312Y47010847D01*
X38622912Y46990994D01*
X38616882Y46988309D01*
X38616881Y46988309D01*
X38454478Y46916003D01*
X38454476Y46916002D01*
X38448448Y46913318D01*
X38443107Y46909438D01*
X38443106Y46909437D01*
X38413140Y46887665D01*
X38293947Y46801066D01*
X38289526Y46796156D01*
X38289525Y46796155D01*
X38185574Y46680705D01*
X38166160Y46659144D01*
X38070673Y46493756D01*
X38011658Y46312128D01*
X38010968Y46305567D01*
X38010968Y46305565D01*
X38004070Y46239929D01*
X37991696Y46122200D01*
X37992386Y46115635D01*
X38010853Y45939935D01*
X38011658Y45932272D01*
X38070673Y45750644D01*
X38166160Y45585256D01*
X38170578Y45580349D01*
X38170579Y45580348D01*
X38234128Y45509770D01*
X38293947Y45443334D01*
X38448448Y45331082D01*
X38454476Y45328398D01*
X38454478Y45328397D01*
X38611794Y45258356D01*
X38622912Y45253406D01*
X38693119Y45238483D01*
X38803256Y45215072D01*
X38803261Y45215072D01*
X38809713Y45213700D01*
X38932206Y45213700D01*
X39000327Y45193698D01*
X39021301Y45176795D01*
X41828178Y42369918D01*
X41862204Y42307606D01*
X41864392Y42293997D01*
X41881758Y42128772D01*
X41940773Y41947144D01*
X41944076Y41941422D01*
X41944077Y41941421D01*
X41955783Y41921146D01*
X42036260Y41781756D01*
X42040678Y41776849D01*
X42040679Y41776848D01*
X42139151Y41667484D01*
X42164047Y41639834D01*
X42193737Y41618263D01*
X42257712Y41571782D01*
X42301066Y41515559D01*
X42307141Y41444823D01*
X42272746Y41380751D01*
X42049000Y41157005D01*
X41986688Y41122979D01*
X41959905Y41120100D01*
X22181667Y41120100D01*
X22170484Y41120627D01*
X22162991Y41122302D01*
X22155065Y41122053D01*
X22155064Y41122053D01*
X22094914Y41120162D01*
X22090955Y41120100D01*
X22063044Y41120100D01*
X22059110Y41119603D01*
X22059109Y41119603D01*
X22059044Y41119595D01*
X22047207Y41118662D01*
X22015390Y41117662D01*
X22010929Y41117522D01*
X22003010Y41117273D01*
X21985354Y41112144D01*
X21983558Y41111622D01*
X21964206Y41107614D01*
X21957135Y41106720D01*
X21944103Y41105074D01*
X21936734Y41102157D01*
X21936732Y41102156D01*
X21902997Y41088800D01*
X21891769Y41084955D01*
X21849307Y41072618D01*
X21842484Y41068583D01*
X21842482Y41068582D01*
X21831872Y41062307D01*
X21814124Y41053612D01*
X21795283Y41046152D01*
X21788867Y41041490D01*
X21788866Y41041490D01*
X21759513Y41020164D01*
X21749592Y41013648D01*
X21711538Y40991142D01*
X21709596Y40989200D01*
X21645656Y40964094D01*
X21634513Y40963600D01*
X21575913Y40963600D01*
X21569461Y40962228D01*
X21569456Y40962228D01*
X21482512Y40943747D01*
X21389112Y40923894D01*
X21383082Y40921209D01*
X21383081Y40921209D01*
X21220678Y40848903D01*
X21220676Y40848902D01*
X21214648Y40846218D01*
X21060147Y40733966D01*
X21055732Y40729063D01*
X21050820Y40724640D01*
X21049695Y40725889D01*
X20996386Y40693049D01*
X20963200Y40688600D01*
X18400677Y40688600D01*
X18332556Y40708602D01*
X18286063Y40762258D01*
X18280844Y40775663D01*
X18248868Y40874074D01*
X18246827Y40880356D01*
X18242815Y40887306D01*
X18184558Y40988209D01*
X18151340Y41045744D01*
X18141772Y41056371D01*
X18027975Y41182755D01*
X18027974Y41182756D01*
X18023553Y41187666D01*
X17869052Y41299918D01*
X17863024Y41302602D01*
X17863022Y41302603D01*
X17700619Y41374909D01*
X17700618Y41374909D01*
X17694588Y41377594D01*
X17601188Y41397447D01*
X17514244Y41415928D01*
X17514239Y41415928D01*
X17507787Y41417300D01*
X17316813Y41417300D01*
X17310361Y41415928D01*
X17310356Y41415928D01*
X17223413Y41397447D01*
X17130012Y41377594D01*
X17123982Y41374909D01*
X17123981Y41374909D01*
X16961578Y41302603D01*
X16961576Y41302602D01*
X16955548Y41299918D01*
X16801047Y41187666D01*
X16796626Y41182756D01*
X16796625Y41182755D01*
X16682829Y41056371D01*
X16673260Y41045744D01*
X16640042Y40988209D01*
X16581786Y40887306D01*
X16577773Y40880356D01*
X16518758Y40698728D01*
X16518068Y40692167D01*
X16518068Y40692165D01*
X16517266Y40684535D01*
X16498796Y40508800D01*
X16499486Y40502235D01*
X16516012Y40345002D01*
X16518758Y40318872D01*
X16577773Y40137244D01*
X16673260Y39971856D01*
X16801047Y39829934D01*
X16886458Y39767879D01*
X16948767Y39722609D01*
X16955548Y39717682D01*
X16961576Y39714998D01*
X16961578Y39714997D01*
X17106884Y39650303D01*
X17130012Y39640006D01*
X17223412Y39620153D01*
X17310356Y39601672D01*
X17310361Y39601672D01*
X17316813Y39600300D01*
X17374997Y39600300D01*
X17443118Y39580298D01*
X17461248Y39566151D01*
X17490679Y39538514D01*
X17505339Y39530455D01*
X17508431Y39528755D01*
X17524953Y39517902D01*
X17540959Y39505486D01*
X17548237Y39502336D01*
X17548238Y39502336D01*
X17581537Y39487926D01*
X17592187Y39482709D01*
X17630940Y39461405D01*
X17638615Y39459434D01*
X17638616Y39459434D01*
X17650562Y39456367D01*
X17669267Y39449963D01*
X17687855Y39441919D01*
X17695678Y39440680D01*
X17695688Y39440677D01*
X17731524Y39435001D01*
X17743144Y39432595D01*
X17778289Y39423572D01*
X17785970Y39421600D01*
X17806224Y39421600D01*
X17825934Y39420049D01*
X17845943Y39416880D01*
X17853835Y39417626D01*
X17889961Y39421041D01*
X17901819Y39421600D01*
X20963200Y39421600D01*
X21031321Y39401598D01*
X21050549Y39385255D01*
X21050822Y39385559D01*
X21055729Y39381141D01*
X21060147Y39376234D01*
X21065488Y39372353D01*
X21066035Y39371861D01*
X21103274Y39311414D01*
X21101557Y39239289D01*
X21045358Y39066328D01*
X21044668Y39059767D01*
X21044668Y39059765D01*
X21027070Y38892326D01*
X21025396Y38876400D01*
X21026086Y38869835D01*
X21040184Y38735704D01*
X21045358Y38686472D01*
X21104373Y38504844D01*
X21107676Y38499122D01*
X21107677Y38499121D01*
X21115862Y38484944D01*
X21199860Y38339456D01*
X21204278Y38334549D01*
X21204279Y38334548D01*
X21284730Y38245198D01*
X21315448Y38181191D01*
X21306683Y38110737D01*
X21280189Y38071793D01*
X17865123Y34656728D01*
X14457147Y31248752D01*
X14448861Y31241212D01*
X14442382Y31237100D01*
X14436957Y31231323D01*
X14395757Y31187449D01*
X14393002Y31184607D01*
X14373265Y31164870D01*
X14370785Y31161673D01*
X14363082Y31152653D01*
X14332814Y31120421D01*
X14328995Y31113475D01*
X14328993Y31113472D01*
X14323052Y31102666D01*
X14312201Y31086147D01*
X14299786Y31070141D01*
X14296641Y31062872D01*
X14296638Y31062868D01*
X14282226Y31029563D01*
X14277009Y31018913D01*
X14255705Y30980160D01*
X14255705Y30980159D01*
X14253785Y30981214D01*
X14236425Y30956217D01*
X14238147Y30954666D01*
X14139854Y30845500D01*
X14110360Y30812744D01*
X14071192Y30744903D01*
X14019617Y30655572D01*
X14014873Y30647356D01*
X13955858Y30465728D01*
X13935896Y30275800D01*
X13936586Y30269235D01*
X13950425Y30137568D01*
X13955858Y30085872D01*
X14014873Y29904244D01*
X14110360Y29738856D01*
X14114778Y29733949D01*
X14114779Y29733948D01*
X14233338Y29602275D01*
X14238147Y29596934D01*
X14308385Y29545903D01*
X14364975Y29504788D01*
X14392648Y29484682D01*
X14398676Y29481998D01*
X14398678Y29481997D01*
X14547106Y29415913D01*
X14567112Y29407006D01*
X14660512Y29387153D01*
X14747456Y29368672D01*
X14747461Y29368672D01*
X14753913Y29367300D01*
X14944887Y29367300D01*
X14951339Y29368672D01*
X14951344Y29368672D01*
X15038288Y29387153D01*
X15131688Y29407006D01*
X15151694Y29415913D01*
X15300122Y29481997D01*
X15300124Y29481998D01*
X15306152Y29484682D01*
X15333826Y29504788D01*
X15390415Y29545903D01*
X15460653Y29596934D01*
X15492363Y29632152D01*
X15552806Y29669390D01*
X15623789Y29668039D01*
X15660056Y29649777D01*
X15732418Y29597203D01*
X15775365Y29566000D01*
X15796448Y29550682D01*
X15802476Y29547998D01*
X15802478Y29547997D01*
X15964881Y29475691D01*
X15970912Y29473006D01*
X16042714Y29457744D01*
X16151256Y29434672D01*
X16151261Y29434672D01*
X16157713Y29433300D01*
X16348687Y29433300D01*
X16355139Y29434672D01*
X16355144Y29434672D01*
X16463686Y29457744D01*
X16535488Y29473006D01*
X16541519Y29475691D01*
X16703922Y29547997D01*
X16703924Y29547998D01*
X16709952Y29550682D01*
X16731036Y29566000D01*
X16780365Y29601840D01*
X16864453Y29662934D01*
X16930093Y29735835D01*
X16987821Y29799948D01*
X16987822Y29799949D01*
X16992240Y29804856D01*
X17087727Y29970244D01*
X17146742Y30151872D01*
X17147886Y30162751D01*
X17166014Y30335235D01*
X17166704Y30341800D01*
X17155677Y30446717D01*
X17147432Y30525165D01*
X17147432Y30525167D01*
X17146742Y30531728D01*
X17087727Y30713356D01*
X16992240Y30878744D01*
X16919063Y30960015D01*
X16888347Y31024021D01*
X16886700Y31044324D01*
X16886700Y31048106D01*
X16906702Y31116227D01*
X16923605Y31137201D01*
X22695799Y36909395D01*
X22758111Y36943421D01*
X22784894Y36946300D01*
X22884744Y36946300D01*
X22952865Y36926298D01*
X22999358Y36872642D01*
X23009176Y36804358D01*
X23009458Y36804328D01*
X22989496Y36614400D01*
X22990186Y36607835D01*
X23006137Y36456074D01*
X23009458Y36424472D01*
X23068473Y36242844D01*
X23163960Y36077456D01*
X23168378Y36072549D01*
X23168379Y36072548D01*
X23280908Y35947572D01*
X23291747Y35935534D01*
X23446248Y35823282D01*
X23452276Y35820598D01*
X23452278Y35820597D01*
X23567182Y35769439D01*
X23620712Y35745606D01*
X23714112Y35725753D01*
X23801056Y35707272D01*
X23801061Y35707272D01*
X23807513Y35705900D01*
X23863406Y35705900D01*
X23931527Y35685898D01*
X23952501Y35668995D01*
X26172987Y33448509D01*
X26207013Y33386197D01*
X26201948Y33315382D01*
X26159401Y33258546D01*
X26109767Y33236099D01*
X25918209Y33195907D01*
X25913250Y33193949D01*
X25913248Y33193948D01*
X25708744Y33113185D01*
X25708742Y33113184D01*
X25703779Y33111224D01*
X25699220Y33108457D01*
X25699217Y33108456D01*
X25600832Y33048754D01*
X25506683Y32991623D01*
X25502653Y32988126D01*
X25409484Y32907278D01*
X25332555Y32840523D01*
X25304819Y32806697D01*
X25189760Y32666373D01*
X25189756Y32666367D01*
X25186376Y32662245D01*
X25168448Y32630750D01*
X25117368Y32581445D01*
X25047738Y32567583D01*
X24981667Y32593566D01*
X24954427Y32622716D01*
X24914836Y32681522D01*
X24872559Y32744319D01*
X24855604Y32762093D01*
X24777446Y32844023D01*
X24713424Y32911135D01*
X24528458Y33048754D01*
X24523707Y33051170D01*
X24523703Y33051172D01*
X24391059Y33118611D01*
X24322949Y33153240D01*
X24317855Y33154822D01*
X24317852Y33154823D01*
X24107871Y33220024D01*
X24102773Y33221607D01*
X24066595Y33226402D01*
X23879511Y33251198D01*
X23879506Y33251198D01*
X23874226Y33251898D01*
X23868897Y33251698D01*
X23868895Y33251698D01*
X23769116Y33247952D01*
X23643842Y33243249D01*
X23638623Y33242154D01*
X23563549Y33226402D01*
X23418209Y33195907D01*
X23413250Y33193949D01*
X23413248Y33193948D01*
X23208744Y33113185D01*
X23208742Y33113184D01*
X23203779Y33111224D01*
X23199220Y33108457D01*
X23199217Y33108456D01*
X23100832Y33048754D01*
X23006683Y32991623D01*
X23002653Y32988126D01*
X22909484Y32907278D01*
X22832555Y32840523D01*
X22804819Y32806697D01*
X22689760Y32666373D01*
X22689756Y32666367D01*
X22686376Y32662245D01*
X22668448Y32630750D01*
X22617368Y32581445D01*
X22547738Y32567583D01*
X22481667Y32593566D01*
X22454427Y32622716D01*
X22414836Y32681522D01*
X22372559Y32744319D01*
X22355604Y32762093D01*
X22277446Y32844023D01*
X22213424Y32911135D01*
X22028458Y33048754D01*
X22023707Y33051170D01*
X22023703Y33051172D01*
X21891059Y33118611D01*
X21822949Y33153240D01*
X21817855Y33154822D01*
X21817852Y33154823D01*
X21607871Y33220024D01*
X21602773Y33221607D01*
X21566595Y33226402D01*
X21379511Y33251198D01*
X21379506Y33251198D01*
X21374226Y33251898D01*
X21368897Y33251698D01*
X21368895Y33251698D01*
X21269116Y33247952D01*
X21143842Y33243249D01*
X21138623Y33242154D01*
X21063549Y33226402D01*
X20918209Y33195907D01*
X20913250Y33193949D01*
X20913248Y33193948D01*
X20708744Y33113185D01*
X20708742Y33113184D01*
X20703779Y33111224D01*
X20699220Y33108457D01*
X20699217Y33108456D01*
X20600832Y33048754D01*
X20506683Y32991623D01*
X20502653Y32988126D01*
X20409484Y32907278D01*
X20332555Y32840523D01*
X20304819Y32806697D01*
X20189760Y32666373D01*
X20189756Y32666367D01*
X20186376Y32662245D01*
X20183738Y32657610D01*
X20183735Y32657606D01*
X20112506Y32532474D01*
X20072325Y32461886D01*
X19993663Y32245175D01*
X19992714Y32239926D01*
X19992713Y32239923D01*
X19953377Y32022392D01*
X19953376Y32022385D01*
X19952639Y32018308D01*
X19951500Y31994156D01*
X19951500Y31582110D01*
X19951725Y31579461D01*
X19963872Y31436305D01*
X19966080Y31410280D01*
X19967418Y31405125D01*
X19967419Y31405119D01*
X20022657Y31192297D01*
X20023999Y31187128D01*
X20026191Y31182262D01*
X20026192Y31182259D01*
X20069487Y31086147D01*
X20118688Y30976925D01*
X20247441Y30785681D01*
X20406576Y30618865D01*
X20591542Y30481246D01*
X20596293Y30478830D01*
X20596297Y30478828D01*
X20673251Y30439703D01*
X20797051Y30376760D01*
X20802145Y30375178D01*
X20802148Y30375177D01*
X20963828Y30324974D01*
X21017227Y30308393D01*
X21022516Y30307692D01*
X21240489Y30278802D01*
X21240494Y30278802D01*
X21245774Y30278102D01*
X21251103Y30278302D01*
X21251105Y30278302D01*
X21360966Y30282426D01*
X21476158Y30286751D01*
X21556690Y30303648D01*
X21696572Y30332998D01*
X21701791Y30334093D01*
X21706750Y30336051D01*
X21706752Y30336052D01*
X21911256Y30416815D01*
X21911258Y30416816D01*
X21916221Y30418776D01*
X21921050Y30421706D01*
X22108757Y30535610D01*
X22108756Y30535610D01*
X22113317Y30538377D01*
X22182957Y30598807D01*
X22283412Y30685977D01*
X22283414Y30685979D01*
X22287445Y30689477D01*
X22345623Y30760430D01*
X22430240Y30863627D01*
X22430244Y30863633D01*
X22433624Y30867755D01*
X22451552Y30899250D01*
X22502632Y30948555D01*
X22572262Y30962417D01*
X22638333Y30936434D01*
X22665573Y30907284D01*
X22747441Y30785681D01*
X22906576Y30618865D01*
X23091542Y30481246D01*
X23096293Y30478830D01*
X23096297Y30478828D01*
X23173251Y30439703D01*
X23297051Y30376760D01*
X23302145Y30375178D01*
X23302148Y30375177D01*
X23463828Y30324974D01*
X23517227Y30308393D01*
X23522516Y30307692D01*
X23740489Y30278802D01*
X23740494Y30278802D01*
X23745774Y30278102D01*
X23751103Y30278302D01*
X23751105Y30278302D01*
X23860966Y30282426D01*
X23976158Y30286751D01*
X24056690Y30303648D01*
X24196572Y30332998D01*
X24201791Y30334093D01*
X24206750Y30336051D01*
X24206752Y30336052D01*
X24411256Y30416815D01*
X24411258Y30416816D01*
X24416221Y30418776D01*
X24421050Y30421706D01*
X24608757Y30535610D01*
X24608756Y30535610D01*
X24613317Y30538377D01*
X24682957Y30598807D01*
X24783412Y30685977D01*
X24783414Y30685979D01*
X24787445Y30689477D01*
X24845623Y30760430D01*
X24930240Y30863627D01*
X24930244Y30863633D01*
X24933624Y30867755D01*
X24951552Y30899250D01*
X25002632Y30948555D01*
X25072262Y30962417D01*
X25138333Y30936434D01*
X25165573Y30907284D01*
X25247441Y30785681D01*
X25406576Y30618865D01*
X25591542Y30481246D01*
X25596293Y30478830D01*
X25596297Y30478828D01*
X25673251Y30439703D01*
X25797051Y30376760D01*
X25802145Y30375178D01*
X25802148Y30375177D01*
X25963828Y30324974D01*
X26017227Y30308393D01*
X26022516Y30307692D01*
X26240489Y30278802D01*
X26240494Y30278802D01*
X26245774Y30278102D01*
X26251103Y30278302D01*
X26251105Y30278302D01*
X26360966Y30282426D01*
X26476158Y30286751D01*
X26556690Y30303648D01*
X26696572Y30332998D01*
X26701791Y30334093D01*
X26706750Y30336051D01*
X26706752Y30336052D01*
X26761147Y30357534D01*
X26828019Y30383943D01*
X26898724Y30390361D01*
X26961675Y30357534D01*
X26996886Y30295884D01*
X27000300Y30266751D01*
X27000300Y29783467D01*
X26999773Y29772284D01*
X26998098Y29764791D01*
X26998347Y29756865D01*
X26998347Y29756864D01*
X27000238Y29696714D01*
X27000300Y29692755D01*
X27000300Y29664844D01*
X27000797Y29660910D01*
X27000797Y29660909D01*
X27000805Y29660844D01*
X27001738Y29649007D01*
X27003127Y29604811D01*
X27006544Y29593051D01*
X27008778Y29585361D01*
X27012787Y29566000D01*
X27015326Y29545903D01*
X27018245Y29538532D01*
X27018245Y29538530D01*
X27031604Y29504788D01*
X27035449Y29493558D01*
X27045455Y29459116D01*
X27047782Y29451107D01*
X27051815Y29444288D01*
X27051817Y29444283D01*
X27058093Y29433672D01*
X27066788Y29415924D01*
X27074248Y29397083D01*
X27078910Y29390667D01*
X27078910Y29390666D01*
X27100236Y29361313D01*
X27106752Y29351393D01*
X27129258Y29313338D01*
X27143579Y29299017D01*
X27156419Y29283984D01*
X27168328Y29267593D01*
X27174434Y29262542D01*
X27202405Y29239402D01*
X27211184Y29231412D01*
X28424048Y28018547D01*
X28431588Y28010261D01*
X28435700Y28003782D01*
X28441477Y27998357D01*
X28485351Y27957157D01*
X28488193Y27954402D01*
X28507930Y27934665D01*
X28511127Y27932185D01*
X28520147Y27924482D01*
X28552379Y27894214D01*
X28559325Y27890395D01*
X28559328Y27890393D01*
X28570134Y27884452D01*
X28586653Y27873601D01*
X28602659Y27861186D01*
X28609928Y27858041D01*
X28609932Y27858038D01*
X28643237Y27843626D01*
X28653887Y27838409D01*
X28692640Y27817105D01*
X28700315Y27815134D01*
X28700316Y27815134D01*
X28712262Y27812067D01*
X28730967Y27805663D01*
X28749555Y27797619D01*
X28757378Y27796380D01*
X28757388Y27796377D01*
X28793224Y27790701D01*
X28804844Y27788295D01*
X28836659Y27780127D01*
X28847670Y27777300D01*
X28867924Y27777300D01*
X28887634Y27775749D01*
X28907643Y27772580D01*
X28915535Y27773326D01*
X28934280Y27775098D01*
X28951662Y27776741D01*
X28963519Y27777300D01*
X32036733Y27777300D01*
X32047916Y27776773D01*
X32055409Y27775098D01*
X32063335Y27775347D01*
X32063336Y27775347D01*
X32123486Y27777238D01*
X32127445Y27777300D01*
X32155356Y27777300D01*
X32159291Y27777797D01*
X32159356Y27777805D01*
X32171193Y27778738D01*
X32203451Y27779752D01*
X32207470Y27779878D01*
X32215389Y27780127D01*
X32234843Y27785779D01*
X32254200Y27789787D01*
X32266430Y27791332D01*
X32266431Y27791332D01*
X32274297Y27792326D01*
X32281668Y27795245D01*
X32281670Y27795245D01*
X32315412Y27808604D01*
X32326642Y27812449D01*
X32361483Y27822571D01*
X32361484Y27822571D01*
X32369093Y27824782D01*
X32375912Y27828815D01*
X32375917Y27828817D01*
X32386528Y27835093D01*
X32404276Y27843788D01*
X32423117Y27851248D01*
X32458887Y27877236D01*
X32468807Y27883752D01*
X32500035Y27902220D01*
X32500038Y27902222D01*
X32506862Y27906258D01*
X32521183Y27920579D01*
X32536217Y27933420D01*
X32541790Y27937469D01*
X32552607Y27945328D01*
X32557657Y27951432D01*
X32557662Y27951437D01*
X32580793Y27979398D01*
X32588783Y27988179D01*
X33397601Y28796996D01*
X33459913Y28831021D01*
X33486696Y28833900D01*
X33542587Y28833900D01*
X33549039Y28835272D01*
X33549044Y28835272D01*
X33635988Y28853753D01*
X33729388Y28873606D01*
X33735419Y28876291D01*
X33897822Y28948597D01*
X33897824Y28948598D01*
X33903852Y28951282D01*
X34058353Y29063534D01*
X34062775Y29068445D01*
X34181721Y29200548D01*
X34181722Y29200549D01*
X34186140Y29205456D01*
X34281627Y29370844D01*
X34340642Y29552472D01*
X34345344Y29597203D01*
X34359914Y29735835D01*
X34360604Y29742400D01*
X34354040Y29804856D01*
X34341332Y29925765D01*
X34341332Y29925767D01*
X34340642Y29932328D01*
X34281627Y30113956D01*
X34277156Y30121701D01*
X34196443Y30261498D01*
X34186140Y30279344D01*
X34171248Y30295884D01*
X34062775Y30416355D01*
X34062774Y30416356D01*
X34058353Y30421266D01*
X33903852Y30533518D01*
X33897824Y30536202D01*
X33897822Y30536203D01*
X33735419Y30608509D01*
X33735418Y30608509D01*
X33729388Y30611194D01*
X33635987Y30631047D01*
X33549044Y30649528D01*
X33549039Y30649528D01*
X33542587Y30650900D01*
X33351613Y30650900D01*
X33345161Y30649528D01*
X33345156Y30649528D01*
X33258213Y30631047D01*
X33164812Y30611194D01*
X33158782Y30608509D01*
X33158781Y30608509D01*
X32996378Y30536203D01*
X32996376Y30536202D01*
X32990348Y30533518D01*
X32835847Y30421266D01*
X32831426Y30416356D01*
X32831425Y30416355D01*
X32722953Y30295884D01*
X32708060Y30279344D01*
X32697757Y30261498D01*
X32617045Y30121701D01*
X32612573Y30113956D01*
X32553558Y29932328D01*
X32552868Y29925767D01*
X32552868Y29925765D01*
X32551267Y29910529D01*
X32539645Y29799948D01*
X32536193Y29767108D01*
X32509180Y29701451D01*
X32499978Y29691182D01*
X31889999Y29081204D01*
X31827687Y29047179D01*
X31800904Y29044300D01*
X31492164Y29044300D01*
X31424043Y29064302D01*
X31377550Y29117958D01*
X31367446Y29188232D01*
X31383100Y29233395D01*
X31419467Y29296258D01*
X31422473Y29301454D01*
X31491861Y29501271D01*
X31492722Y29507208D01*
X31521352Y29704664D01*
X31521352Y29704667D01*
X31522213Y29710604D01*
X31512433Y29921899D01*
X31467662Y30107671D01*
X31464281Y30121701D01*
X31464280Y30121703D01*
X31462875Y30127534D01*
X31445098Y30166634D01*
X31401965Y30261498D01*
X31375326Y30320087D01*
X31281669Y30452120D01*
X31256412Y30487725D01*
X31256411Y30487726D01*
X31252946Y30492611D01*
X31248618Y30496754D01*
X31248613Y30496760D01*
X31222402Y30521852D01*
X31187026Y30583407D01*
X31190545Y30654317D01*
X31215897Y30697179D01*
X31332021Y30826148D01*
X31332022Y30826149D01*
X31336440Y30831056D01*
X31410894Y30960013D01*
X31428623Y30990721D01*
X31428624Y30990722D01*
X31431927Y30996444D01*
X31480890Y31147137D01*
X31520964Y31205742D01*
X31586360Y31233379D01*
X31600723Y31234200D01*
X35336633Y31234200D01*
X35347816Y31233673D01*
X35355309Y31231998D01*
X35363235Y31232247D01*
X35363236Y31232247D01*
X35423386Y31234138D01*
X35427345Y31234200D01*
X35455256Y31234200D01*
X35459191Y31234697D01*
X35459256Y31234705D01*
X35471093Y31235638D01*
X35503351Y31236652D01*
X35507370Y31236778D01*
X35515289Y31237027D01*
X35534743Y31242679D01*
X35554100Y31246687D01*
X35566330Y31248232D01*
X35566331Y31248232D01*
X35574197Y31249226D01*
X35581568Y31252145D01*
X35581570Y31252145D01*
X35615312Y31265504D01*
X35626542Y31269349D01*
X35661383Y31279471D01*
X35661384Y31279471D01*
X35668993Y31281682D01*
X35675812Y31285715D01*
X35675817Y31285717D01*
X35686428Y31291993D01*
X35704176Y31300688D01*
X35723017Y31308148D01*
X35729488Y31312849D01*
X35758787Y31334136D01*
X35768707Y31340652D01*
X35799935Y31359120D01*
X35799938Y31359122D01*
X35806762Y31363158D01*
X35821083Y31377479D01*
X35836117Y31390320D01*
X35852507Y31402228D01*
X35880698Y31436305D01*
X35888688Y31445084D01*
X39684911Y35241306D01*
X39747223Y35275332D01*
X39818039Y35270267D01*
X39874874Y35227720D01*
X39883125Y35215211D01*
X39960060Y35081956D01*
X40033237Y35000685D01*
X40063953Y34936679D01*
X40065600Y34916376D01*
X40065600Y32034994D01*
X40045598Y31966873D01*
X40028695Y31945899D01*
X37766084Y29683289D01*
X37703772Y29649263D01*
X37632956Y29654328D01*
X37583354Y29688073D01*
X37476753Y29806466D01*
X37322252Y29918718D01*
X37316224Y29921402D01*
X37316222Y29921403D01*
X37153819Y29993709D01*
X37153818Y29993709D01*
X37147788Y29996394D01*
X37054387Y30016247D01*
X36967444Y30034728D01*
X36967439Y30034728D01*
X36960987Y30036100D01*
X36770013Y30036100D01*
X36763561Y30034728D01*
X36763556Y30034728D01*
X36676613Y30016247D01*
X36583212Y29996394D01*
X36577182Y29993709D01*
X36577181Y29993709D01*
X36414778Y29921403D01*
X36414776Y29921402D01*
X36408748Y29918718D01*
X36254247Y29806466D01*
X36249826Y29801556D01*
X36249825Y29801555D01*
X36167933Y29710604D01*
X36126460Y29664544D01*
X36030973Y29499156D01*
X35971958Y29317528D01*
X35971268Y29310967D01*
X35971268Y29310965D01*
X35954593Y29152307D01*
X35927580Y29086650D01*
X35918378Y29076382D01*
X34045800Y27203805D01*
X33983488Y27169779D01*
X33956705Y27166900D01*
X15161502Y27166900D01*
X15093381Y27186902D01*
X15046888Y27240558D01*
X15036192Y27279730D01*
X15034909Y27291944D01*
X15017642Y27456228D01*
X14958627Y27637856D01*
X14945584Y27660448D01*
X14894250Y27749360D01*
X14863140Y27803244D01*
X14815720Y27855910D01*
X14739775Y27940255D01*
X14739774Y27940256D01*
X14735353Y27945166D01*
X14580852Y28057418D01*
X14574824Y28060102D01*
X14574822Y28060103D01*
X14412419Y28132409D01*
X14412418Y28132409D01*
X14406388Y28135094D01*
X14312987Y28154947D01*
X14226044Y28173428D01*
X14226039Y28173428D01*
X14219587Y28174800D01*
X14163694Y28174800D01*
X14095573Y28194802D01*
X14074599Y28211705D01*
X11289905Y30996400D01*
X11255879Y31058712D01*
X11253000Y31085495D01*
X11253000Y32834376D01*
X11273002Y32902497D01*
X11285358Y32918679D01*
X11358540Y32999956D01*
X11454027Y33165344D01*
X11513042Y33346972D01*
X11516104Y33376100D01*
X11532314Y33530335D01*
X11533004Y33536900D01*
X11527612Y33588202D01*
X11513732Y33720265D01*
X11513732Y33720267D01*
X11513042Y33726828D01*
X11454027Y33908456D01*
X11358540Y34073844D01*
X11341532Y34092734D01*
X11235175Y34210855D01*
X11235174Y34210856D01*
X11230753Y34215766D01*
X11076252Y34328018D01*
X11070224Y34330702D01*
X11070222Y34330703D01*
X10907819Y34403009D01*
X10907818Y34403009D01*
X10901788Y34405694D01*
X10807804Y34425671D01*
X10721444Y34444028D01*
X10721439Y34444028D01*
X10714987Y34445400D01*
X10524013Y34445400D01*
X10517561Y34444028D01*
X10517556Y34444028D01*
X10431196Y34425671D01*
X10337212Y34405694D01*
X10331182Y34403009D01*
X10331181Y34403009D01*
X10168778Y34330703D01*
X10168776Y34330702D01*
X10162748Y34328018D01*
X10008247Y34215766D01*
X10003826Y34210856D01*
X10003825Y34210855D01*
X9897469Y34092734D01*
X9880460Y34073844D01*
X9784973Y33908456D01*
X9779951Y33892999D01*
X9738677Y33765973D01*
X9698603Y33707367D01*
X9633207Y33679730D01*
X9592646Y33681663D01*
X9534951Y33693927D01*
X9534942Y33693928D01*
X9528487Y33695300D01*
X9472595Y33695300D01*
X9404474Y33715302D01*
X9383500Y33732205D01*
X8885105Y34230600D01*
X8851079Y34292912D01*
X8848200Y34319695D01*
X8848200Y34771600D01*
X12818296Y34771600D01*
X12818986Y34765035D01*
X12835116Y34611571D01*
X12838258Y34581672D01*
X12897273Y34400044D01*
X12992760Y34234656D01*
X12997178Y34229749D01*
X12997179Y34229748D01*
X13112150Y34102060D01*
X13120547Y34092734D01*
X13275048Y33980482D01*
X13281076Y33977798D01*
X13281078Y33977797D01*
X13443481Y33905491D01*
X13449512Y33902806D01*
X13542913Y33882953D01*
X13629856Y33864472D01*
X13629861Y33864472D01*
X13636313Y33863100D01*
X13827287Y33863100D01*
X13833739Y33864472D01*
X13833744Y33864472D01*
X13920687Y33882953D01*
X14014088Y33902806D01*
X14020119Y33905491D01*
X14182522Y33977797D01*
X14182524Y33977798D01*
X14188552Y33980482D01*
X14343053Y34092734D01*
X14347468Y34097637D01*
X14352380Y34102060D01*
X14353505Y34100811D01*
X14406814Y34133651D01*
X14440000Y34138100D01*
X15365220Y34138100D01*
X15433341Y34118098D01*
X15439276Y34114039D01*
X15581949Y34010381D01*
X15587977Y34007697D01*
X15587979Y34007696D01*
X15655134Y33977797D01*
X15756413Y33932705D01*
X15849814Y33912852D01*
X15936757Y33894371D01*
X15936762Y33894371D01*
X15943214Y33892999D01*
X16134188Y33892999D01*
X16140640Y33894371D01*
X16140645Y33894371D01*
X16227588Y33912852D01*
X16320989Y33932705D01*
X16422268Y33977797D01*
X16489423Y34007696D01*
X16489425Y34007697D01*
X16495453Y34010381D01*
X16649954Y34122633D01*
X16663881Y34138100D01*
X16773322Y34259647D01*
X16773323Y34259648D01*
X16777741Y34264555D01*
X16859228Y34405694D01*
X16869924Y34424220D01*
X16869925Y34424221D01*
X16873228Y34429943D01*
X16932243Y34611571D01*
X16943299Y34716758D01*
X16951515Y34794934D01*
X16952205Y34801499D01*
X16938650Y34930472D01*
X16932933Y34984864D01*
X16932933Y34984866D01*
X16932243Y34991427D01*
X16873228Y35173055D01*
X16867354Y35183230D01*
X16818027Y35268665D01*
X16777741Y35338443D01*
X16746078Y35373609D01*
X16654376Y35475454D01*
X16654375Y35475455D01*
X16649954Y35480365D01*
X16495453Y35592617D01*
X16489425Y35595301D01*
X16489423Y35595302D01*
X16327020Y35667608D01*
X16327019Y35667608D01*
X16320989Y35670293D01*
X16227588Y35690146D01*
X16140645Y35708627D01*
X16140640Y35708627D01*
X16134188Y35709999D01*
X15943214Y35709999D01*
X15936762Y35708627D01*
X15936757Y35708627D01*
X15849814Y35690146D01*
X15756413Y35670293D01*
X15750383Y35667608D01*
X15750382Y35667608D01*
X15587979Y35595302D01*
X15587977Y35595301D01*
X15581949Y35592617D01*
X15427448Y35480365D01*
X15423035Y35475463D01*
X15423033Y35475462D01*
X15397216Y35446789D01*
X15336770Y35409550D01*
X15303580Y35405100D01*
X14440000Y35405100D01*
X14371879Y35425102D01*
X14352653Y35441443D01*
X14352380Y35441140D01*
X14347468Y35445563D01*
X14343053Y35450466D01*
X14188552Y35562718D01*
X14182524Y35565402D01*
X14182522Y35565403D01*
X14020119Y35637709D01*
X14020118Y35637709D01*
X14014088Y35640394D01*
X13920687Y35660247D01*
X13833744Y35678728D01*
X13833739Y35678728D01*
X13827287Y35680100D01*
X13636313Y35680100D01*
X13629861Y35678728D01*
X13629856Y35678728D01*
X13542913Y35660247D01*
X13449512Y35640394D01*
X13443482Y35637709D01*
X13443481Y35637709D01*
X13281078Y35565403D01*
X13281076Y35565402D01*
X13275048Y35562718D01*
X13120547Y35450466D01*
X13116126Y35445556D01*
X13116125Y35445555D01*
X13014533Y35332725D01*
X12992760Y35308544D01*
X12962156Y35255536D01*
X12910907Y35166770D01*
X12897273Y35143156D01*
X12838258Y34961528D01*
X12837568Y34954967D01*
X12837568Y34954965D01*
X12834850Y34929100D01*
X12818296Y34771600D01*
X8848200Y34771600D01*
X8848200Y35135076D01*
X8868202Y35203197D01*
X8880558Y35219379D01*
X8953740Y35300656D01*
X9025589Y35425102D01*
X9045923Y35460321D01*
X9045924Y35460322D01*
X9049227Y35466044D01*
X9108242Y35647672D01*
X9110228Y35666562D01*
X9127514Y35831035D01*
X9128204Y35837600D01*
X9112617Y35985906D01*
X9108932Y36020965D01*
X9108932Y36020967D01*
X9108242Y36027528D01*
X9049227Y36209156D01*
X9044872Y36216700D01*
X8988129Y36314980D01*
X8953740Y36374544D01*
X8937582Y36392490D01*
X8830375Y36511555D01*
X8830374Y36511556D01*
X8825953Y36516466D01*
X8671452Y36628718D01*
X8665424Y36631402D01*
X8665422Y36631403D01*
X8503019Y36703709D01*
X8503018Y36703709D01*
X8496988Y36706394D01*
X8403588Y36726247D01*
X8316644Y36744728D01*
X8316639Y36744728D01*
X8310187Y36746100D01*
X8119213Y36746100D01*
X8112761Y36744728D01*
X8112756Y36744728D01*
X8025812Y36726247D01*
X7932412Y36706394D01*
X7926382Y36703709D01*
X7926381Y36703709D01*
X7763978Y36631403D01*
X7763976Y36631402D01*
X7757948Y36628718D01*
X7752607Y36624838D01*
X7752606Y36624837D01*
X7667747Y36563183D01*
X7603447Y36516466D01*
X7599032Y36511563D01*
X7594120Y36507140D01*
X7592995Y36508389D01*
X7539686Y36475549D01*
X7506500Y36471100D01*
X6630400Y36471100D01*
X6562279Y36491102D01*
X6543053Y36507443D01*
X6542780Y36507140D01*
X6537868Y36511563D01*
X6533453Y36516466D01*
X6469153Y36563183D01*
X6384294Y36624837D01*
X6384293Y36624838D01*
X6378952Y36628718D01*
X6372924Y36631402D01*
X6372922Y36631403D01*
X6210519Y36703709D01*
X6210518Y36703709D01*
X6204488Y36706394D01*
X6111088Y36726247D01*
X6024144Y36744728D01*
X6024139Y36744728D01*
X6017687Y36746100D01*
X5826713Y36746100D01*
X5820261Y36744728D01*
X5820256Y36744728D01*
X5733312Y36726247D01*
X5639912Y36706394D01*
X5633882Y36703709D01*
X5633881Y36703709D01*
X5471478Y36631403D01*
X5471476Y36631402D01*
X5465448Y36628718D01*
X5460107Y36624838D01*
X5460106Y36624837D01*
X5375247Y36563183D01*
X5310947Y36516466D01*
X5306532Y36511563D01*
X5301620Y36507140D01*
X5300495Y36508389D01*
X5247186Y36475549D01*
X5214000Y36471100D01*
X4808867Y36471100D01*
X4797684Y36471627D01*
X4790191Y36473302D01*
X4782265Y36473053D01*
X4782264Y36473053D01*
X4722101Y36471162D01*
X4718143Y36471100D01*
X4690244Y36471100D01*
X4686254Y36470596D01*
X4674420Y36469664D01*
X4630211Y36468274D01*
X4622597Y36466062D01*
X4622592Y36466061D01*
X4610759Y36462623D01*
X4591396Y36458612D01*
X4571303Y36456074D01*
X4563936Y36453157D01*
X4563931Y36453156D01*
X4530192Y36439798D01*
X4518965Y36435954D01*
X4476507Y36423618D01*
X4469681Y36419581D01*
X4459072Y36413307D01*
X4441324Y36404612D01*
X4422483Y36397152D01*
X4416067Y36392490D01*
X4416066Y36392490D01*
X4386713Y36371164D01*
X4376793Y36364648D01*
X4345565Y36346180D01*
X4345562Y36346178D01*
X4338738Y36342142D01*
X4324417Y36327821D01*
X4309384Y36314981D01*
X4292993Y36303072D01*
X4287940Y36296964D01*
X4264808Y36269002D01*
X4256818Y36260222D01*
X4204101Y36207505D01*
X4141789Y36173479D01*
X4115006Y36170600D01*
X4059113Y36170600D01*
X4052661Y36169228D01*
X4052656Y36169228D01*
X3983952Y36154624D01*
X3872312Y36130894D01*
X3866282Y36128209D01*
X3866281Y36128209D01*
X3703878Y36055903D01*
X3703876Y36055902D01*
X3697848Y36053218D01*
X3543347Y35940966D01*
X3538926Y35936056D01*
X3538925Y35936055D01*
X3424370Y35808828D01*
X3415560Y35799044D01*
X3364150Y35709999D01*
X3324541Y35641394D01*
X3320073Y35633656D01*
X3261058Y35452028D01*
X3260368Y35445467D01*
X3260368Y35445465D01*
X3258635Y35428972D01*
X3241096Y35262100D01*
X3260396Y35078478D01*
X3260635Y35076200D01*
X3247863Y35006361D01*
X3199361Y34954514D01*
X3161523Y34939783D01*
X3118176Y34930569D01*
X3118167Y34930566D01*
X3111712Y34929194D01*
X3105682Y34926509D01*
X3105681Y34926509D01*
X2943278Y34854203D01*
X2943276Y34854202D01*
X2937248Y34851518D01*
X2931907Y34847638D01*
X2931906Y34847637D01*
X2881843Y34811264D01*
X2782747Y34739266D01*
X2778326Y34734356D01*
X2778325Y34734355D01*
X2682583Y34628022D01*
X2654960Y34597344D01*
X2559473Y34431956D01*
X2500458Y34250328D01*
X2499768Y34243767D01*
X2499768Y34243765D01*
X2488195Y34133651D01*
X2480496Y34060400D01*
X1410000Y34060400D01*
X1410000Y38856500D01*
X2898596Y38856500D01*
X2899286Y38849935D01*
X2915777Y38693035D01*
X2918558Y38666572D01*
X2977573Y38484944D01*
X2980876Y38479222D01*
X2980877Y38479221D01*
X3014786Y38420490D01*
X3073060Y38319556D01*
X3077478Y38314649D01*
X3077479Y38314648D01*
X3196425Y38182545D01*
X3200847Y38177634D01*
X3217657Y38165421D01*
X3339465Y38076922D01*
X3355348Y38065382D01*
X3361376Y38062698D01*
X3361378Y38062697D01*
X3523781Y37990391D01*
X3529812Y37987706D01*
X3623212Y37967853D01*
X3710156Y37949372D01*
X3710161Y37949372D01*
X3716613Y37948000D01*
X3907587Y37948000D01*
X3914039Y37949372D01*
X3914044Y37949372D01*
X4000987Y37967853D01*
X4094388Y37987706D01*
X4100419Y37990391D01*
X4262822Y38062697D01*
X4262824Y38062698D01*
X4268852Y38065382D01*
X4284736Y38076922D01*
X4406543Y38165421D01*
X4423353Y38177634D01*
X4427775Y38182545D01*
X4546721Y38314648D01*
X4546722Y38314649D01*
X4551140Y38319556D01*
X4609414Y38420490D01*
X4643323Y38479221D01*
X4643324Y38479222D01*
X4646627Y38484944D01*
X4705642Y38666572D01*
X4708244Y38691330D01*
X4735257Y38756987D01*
X4744459Y38767255D01*
X11573435Y45596230D01*
X11635747Y45630256D01*
X11706562Y45625191D01*
X11763398Y45582644D01*
X11771649Y45570135D01*
X11861058Y45415274D01*
X11861061Y45415269D01*
X11864360Y45409556D01*
X11868778Y45404649D01*
X11868779Y45404648D01*
X11987725Y45272545D01*
X11992147Y45267634D01*
X12146648Y45155382D01*
X12152676Y45152698D01*
X12152678Y45152697D01*
X12231126Y45117770D01*
X12321112Y45077706D01*
X12414513Y45057853D01*
X12501456Y45039372D01*
X12501461Y45039372D01*
X12507913Y45038000D01*
X12698887Y45038000D01*
X12705339Y45039372D01*
X12705344Y45039372D01*
X12792287Y45057853D01*
X12885688Y45077706D01*
X12975674Y45117770D01*
X13054122Y45152697D01*
X13054124Y45152698D01*
X13060152Y45155382D01*
X13214653Y45267634D01*
X13219075Y45272545D01*
X13338021Y45404648D01*
X13338022Y45404649D01*
X13342440Y45409556D01*
X13437927Y45574944D01*
X13496942Y45756572D01*
X13498295Y45769439D01*
X13516214Y45939935D01*
X13516904Y45946500D01*
X13513523Y45978665D01*
X13497632Y46129865D01*
X13497632Y46129867D01*
X13496942Y46136428D01*
X13437927Y46318056D01*
X13408396Y46369206D01*
X13393992Y46394154D01*
X13342440Y46483444D01*
X13269263Y46564715D01*
X13238547Y46628721D01*
X13236900Y46649024D01*
X13236900Y46917606D01*
X13256902Y46985727D01*
X13273805Y47006701D01*
X13957299Y47690195D01*
X14019611Y47724221D01*
X14046394Y47727100D01*
X16338205Y47727100D01*
X16406326Y47707098D01*
X16427301Y47690195D01*
X16534896Y47582599D01*
X16568921Y47520287D01*
X16571800Y47493504D01*
X16571800Y47309793D01*
X16569568Y47286184D01*
X16568025Y47278094D01*
X16571551Y47222049D01*
X16571800Y47214138D01*
X16571800Y46497824D01*
X16551798Y46429703D01*
X16539442Y46413521D01*
X16466260Y46332244D01*
X16370773Y46166856D01*
X16311758Y45985228D01*
X16311068Y45978667D01*
X16311068Y45978665D01*
X16306882Y45938835D01*
X16291796Y45795300D01*
X16292486Y45788735D01*
X16309143Y45630256D01*
X16311758Y45605372D01*
X16370773Y45423744D01*
X16466260Y45258356D01*
X16594047Y45116434D01*
X16649240Y45076334D01*
X16724689Y45021517D01*
X16748548Y45004182D01*
X16754576Y45001498D01*
X16754578Y45001497D01*
X16916981Y44929191D01*
X16923012Y44926506D01*
X17016412Y44906653D01*
X17103356Y44888172D01*
X17103361Y44888172D01*
X17109813Y44886800D01*
X17300787Y44886800D01*
X17307239Y44888172D01*
X17307244Y44888172D01*
X17394187Y44906653D01*
X17487588Y44926506D01*
X17493619Y44929191D01*
X17656022Y45001497D01*
X17656024Y45001498D01*
X17662052Y45004182D01*
X17685912Y45021517D01*
X17761360Y45076334D01*
X17816553Y45116434D01*
X17944340Y45258356D01*
X18039827Y45423744D01*
X18098842Y45605372D01*
X18101458Y45630256D01*
X18118114Y45788735D01*
X18118804Y45795300D01*
X18103718Y45938835D01*
X18099532Y45978665D01*
X18099532Y45978667D01*
X18098842Y45985228D01*
X18039827Y46166856D01*
X18028292Y46186835D01*
X18011555Y46255831D01*
X18034776Y46322922D01*
X18090584Y46366809D01*
X18094239Y46368133D01*
X18099288Y46369206D01*
X18105315Y46371889D01*
X18105317Y46371890D01*
X18267722Y46444197D01*
X18267724Y46444198D01*
X18273752Y46446882D01*
X18309709Y46473006D01*
X18346145Y46499479D01*
X18428253Y46559134D01*
X18499240Y46637973D01*
X18551621Y46696148D01*
X18551622Y46696149D01*
X18556040Y46701056D01*
X18651527Y46866444D01*
X18710542Y47048072D01*
X18711758Y47059635D01*
X18729814Y47231435D01*
X18730504Y47238000D01*
X18729116Y47251205D01*
X18711232Y47421365D01*
X18711232Y47421367D01*
X18710542Y47427928D01*
X18651527Y47609556D01*
X18556040Y47774944D01*
X18428253Y47916866D01*
X18273752Y48029118D01*
X18267724Y48031802D01*
X18267722Y48031803D01*
X18105319Y48104109D01*
X18105318Y48104109D01*
X18099288Y48106794D01*
X18005887Y48126647D01*
X17918944Y48145128D01*
X17918939Y48145128D01*
X17912487Y48146500D01*
X17811393Y48146500D01*
X17743272Y48166502D01*
X17712894Y48194302D01*
X17709842Y48199462D01*
X17695521Y48213783D01*
X17682680Y48228817D01*
X17675432Y48238793D01*
X17670772Y48245207D01*
X17636707Y48273388D01*
X17627927Y48281378D01*
X17514794Y48394511D01*
X17480768Y48456823D01*
X17485833Y48527638D01*
X17527762Y48583648D01*
X17527673Y48583763D01*
X17528090Y48584086D01*
X17528380Y48584474D01*
X17529877Y48585473D01*
X17533933Y48588619D01*
X17540762Y48592658D01*
X17555083Y48606979D01*
X17570117Y48619820D01*
X17580094Y48627069D01*
X17586507Y48631728D01*
X17614698Y48665805D01*
X17622688Y48674584D01*
X17892330Y48944226D01*
X50238102Y48944226D01*
X50246751Y48713842D01*
X50294093Y48488209D01*
X50378776Y48273779D01*
X50381543Y48269220D01*
X50381544Y48269217D01*
X50443873Y48166502D01*
X50498377Y48076683D01*
X50501874Y48072653D01*
X50637059Y47916866D01*
X50649477Y47902555D01*
X50653608Y47899168D01*
X50823627Y47759760D01*
X50823633Y47759756D01*
X50827755Y47756376D01*
X50832398Y47753733D01*
X50859735Y47738171D01*
X50909041Y47687088D01*
X50922902Y47617458D01*
X50896918Y47551387D01*
X50867768Y47524149D01*
X50750422Y47445148D01*
X50742130Y47438481D01*
X50583100Y47286772D01*
X50576059Y47278814D01*
X50444859Y47102475D01*
X50439255Y47093438D01*
X50339643Y46897516D01*
X50335643Y46887665D01*
X50270466Y46677760D01*
X50268183Y46667376D01*
X50266139Y46651957D01*
X50268335Y46637793D01*
X50281522Y46634000D01*
X53166192Y46634000D01*
X53179723Y46637973D01*
X53181248Y46648580D01*
X53156523Y46766421D01*
X53153463Y46776617D01*
X53072737Y46981029D01*
X53068006Y46990561D01*
X52953984Y47178462D01*
X52947720Y47187052D01*
X52803673Y47353052D01*
X52796042Y47360472D01*
X52626089Y47499826D01*
X52617326Y47505848D01*
X52590289Y47521238D01*
X52540982Y47572320D01*
X52527120Y47641951D01*
X52553103Y47708022D01*
X52582253Y47735261D01*
X52648486Y47779852D01*
X52704319Y47817441D01*
X52871135Y47976576D01*
X53008754Y48161542D01*
X53028034Y48199462D01*
X53110822Y48362296D01*
X53113240Y48367051D01*
X53149321Y48483248D01*
X53180024Y48582129D01*
X53181607Y48587227D01*
X53184225Y48606979D01*
X53211198Y48810489D01*
X53211198Y48810494D01*
X53211898Y48815774D01*
X53211512Y48826072D01*
X53203449Y49040827D01*
X53203249Y49046158D01*
X53191182Y49103672D01*
X53157002Y49266572D01*
X53155907Y49271791D01*
X53086621Y49447234D01*
X53073185Y49481256D01*
X53073184Y49481258D01*
X53071224Y49486221D01*
X52951623Y49683317D01*
X52862975Y49785475D01*
X52804023Y49853412D01*
X52804021Y49853414D01*
X52800523Y49857445D01*
X52704509Y49936172D01*
X52626373Y50000240D01*
X52626367Y50000244D01*
X52622245Y50003624D01*
X52590750Y50021552D01*
X52541445Y50072632D01*
X52527583Y50142262D01*
X52553566Y50208333D01*
X52582716Y50235573D01*
X52618703Y50259801D01*
X52704319Y50317441D01*
X52871135Y50476576D01*
X52876770Y50484149D01*
X53005568Y50657260D01*
X53008754Y50661542D01*
X53012011Y50667947D01*
X53069112Y50780258D01*
X53113240Y50867051D01*
X53149321Y50983248D01*
X53180024Y51082129D01*
X53181607Y51087227D01*
X53194253Y51182642D01*
X53211198Y51310489D01*
X53211198Y51310494D01*
X53211898Y51315774D01*
X53203249Y51546158D01*
X53155907Y51771791D01*
X53096418Y51922427D01*
X53073185Y51981256D01*
X53073184Y51981258D01*
X53071224Y51986221D01*
X52951623Y52183317D01*
X52864755Y52283424D01*
X52804023Y52353412D01*
X52804021Y52353414D01*
X52800523Y52357445D01*
X52758970Y52391516D01*
X52626373Y52500240D01*
X52626367Y52500244D01*
X52622245Y52503624D01*
X52617609Y52506263D01*
X52617606Y52506265D01*
X52438168Y52608407D01*
X52421886Y52617675D01*
X52205175Y52696337D01*
X52199926Y52697286D01*
X52199923Y52697287D01*
X51982392Y52736623D01*
X51982385Y52736624D01*
X51978308Y52737361D01*
X51960586Y52738197D01*
X51955644Y52738430D01*
X51955637Y52738430D01*
X51954156Y52738500D01*
X51542110Y52738500D01*
X51475191Y52732822D01*
X51375591Y52724371D01*
X51375587Y52724370D01*
X51370280Y52723920D01*
X51365125Y52722582D01*
X51365119Y52722581D01*
X51152297Y52667343D01*
X51152293Y52667342D01*
X51147128Y52666001D01*
X51142262Y52663809D01*
X51142259Y52663808D01*
X51033980Y52615032D01*
X50936925Y52571312D01*
X50745681Y52442559D01*
X50578865Y52283424D01*
X50575682Y52279146D01*
X50553201Y52248930D01*
X50441246Y52098458D01*
X50438830Y52093707D01*
X50438828Y52093703D01*
X50404777Y52026728D01*
X50336760Y51892949D01*
X50335178Y51887855D01*
X50335177Y51887852D01*
X50285788Y51728794D01*
X50268393Y51672773D01*
X50267692Y51667484D01*
X50240888Y51465244D01*
X50238102Y51444226D01*
X50246751Y51213842D01*
X50294093Y50988209D01*
X50296051Y50983250D01*
X50296052Y50983248D01*
X50365135Y50808321D01*
X50378776Y50773779D01*
X50381543Y50769220D01*
X50381544Y50769217D01*
X50449482Y50657260D01*
X50498377Y50576683D01*
X50501874Y50572653D01*
X50588438Y50472897D01*
X50649477Y50402555D01*
X50681777Y50376071D01*
X50823627Y50259760D01*
X50823633Y50259756D01*
X50827755Y50256376D01*
X50859250Y50238448D01*
X50908555Y50187368D01*
X50922417Y50117738D01*
X50896434Y50051667D01*
X50867284Y50024427D01*
X50851602Y50013870D01*
X50745681Y49942559D01*
X50741824Y49938880D01*
X50741822Y49938878D01*
X50672464Y49872713D01*
X50578865Y49783424D01*
X50575682Y49779146D01*
X50562054Y49760829D01*
X50441246Y49598458D01*
X50438830Y49593707D01*
X50438828Y49593703D01*
X50434021Y49584248D01*
X50336760Y49392949D01*
X50335178Y49387855D01*
X50335177Y49387852D01*
X50295475Y49259991D01*
X50268393Y49172773D01*
X50267692Y49167484D01*
X50240202Y48960067D01*
X50238102Y48944226D01*
X17892330Y48944226D01*
X18013499Y49065395D01*
X18075811Y49099421D01*
X18102594Y49102300D01*
X18158487Y49102300D01*
X18164939Y49103672D01*
X18164944Y49103672D01*
X18253680Y49122534D01*
X18345288Y49142006D01*
X18402513Y49167484D01*
X18513722Y49216997D01*
X18513724Y49216998D01*
X18519752Y49219682D01*
X18674253Y49331934D01*
X18774573Y49443351D01*
X18797621Y49468948D01*
X18797622Y49468949D01*
X18802040Y49473856D01*
X18897527Y49639244D01*
X18956542Y49820872D01*
X18958924Y49843530D01*
X18975814Y50004235D01*
X18976504Y50010800D01*
X18969769Y50074883D01*
X18957232Y50194165D01*
X18957232Y50194167D01*
X18956542Y50200728D01*
X18897527Y50382356D01*
X18802040Y50547744D01*
X18771878Y50581243D01*
X18678675Y50684755D01*
X18678674Y50684756D01*
X18674253Y50689666D01*
X18519752Y50801918D01*
X18513724Y50804602D01*
X18513722Y50804603D01*
X18351319Y50876909D01*
X18351318Y50876909D01*
X18345288Y50879594D01*
X18251887Y50899447D01*
X18164944Y50917928D01*
X18164939Y50917928D01*
X18158487Y50919300D01*
X17967513Y50919300D01*
X17961061Y50917928D01*
X17961056Y50917928D01*
X17874112Y50899447D01*
X17780712Y50879594D01*
X17774682Y50876909D01*
X17774681Y50876909D01*
X17612278Y50804603D01*
X17612276Y50804602D01*
X17606248Y50801918D01*
X17451747Y50689666D01*
X17447326Y50684756D01*
X17447325Y50684755D01*
X17354123Y50581243D01*
X17323960Y50547744D01*
X17228473Y50382356D01*
X17169458Y50200728D01*
X17168768Y50194167D01*
X17168768Y50194165D01*
X17152093Y50035508D01*
X17125080Y49969851D01*
X17115878Y49959582D01*
X16923899Y49767604D01*
X16861587Y49733579D01*
X16834804Y49730700D01*
X14532386Y49730700D01*
X14464265Y49750702D01*
X14417772Y49804358D01*
X14407076Y49843530D01*
X14392232Y49984765D01*
X14392232Y49984767D01*
X14391542Y49991328D01*
X14332527Y50172956D01*
X14237040Y50338344D01*
X14203071Y50376071D01*
X14113675Y50475355D01*
X14113674Y50475356D01*
X14109253Y50480266D01*
X13954752Y50592518D01*
X13948724Y50595202D01*
X13948722Y50595203D01*
X13786319Y50667509D01*
X13786318Y50667509D01*
X13780288Y50670194D01*
X13626902Y50702797D01*
X13564430Y50736525D01*
X13530108Y50798675D01*
X13527100Y50826044D01*
X13527100Y51134276D01*
X13547102Y51202397D01*
X13559458Y51218579D01*
X13632640Y51299856D01*
X13728127Y51465244D01*
X13787142Y51646872D01*
X13789309Y51667484D01*
X13806414Y51830235D01*
X13807104Y51836800D01*
X13791921Y51981256D01*
X13787832Y52020165D01*
X13787832Y52020167D01*
X13787142Y52026728D01*
X13728127Y52208356D01*
X13722122Y52218758D01*
X13652577Y52339212D01*
X13632640Y52373744D01*
X13605434Y52403960D01*
X13509275Y52510755D01*
X13509274Y52510756D01*
X13504853Y52515666D01*
X13378112Y52607749D01*
X13355694Y52624037D01*
X13355693Y52624038D01*
X13350352Y52627918D01*
X13344324Y52630602D01*
X13344322Y52630603D01*
X13181919Y52702909D01*
X13181918Y52702909D01*
X13175888Y52705594D01*
X13082487Y52725447D01*
X12995544Y52743928D01*
X12995539Y52743928D01*
X12989087Y52745300D01*
X12798113Y52745300D01*
X12791661Y52743928D01*
X12791656Y52743928D01*
X12704713Y52725447D01*
X12611312Y52705594D01*
X12605282Y52702909D01*
X12605281Y52702909D01*
X12442878Y52630603D01*
X12442876Y52630602D01*
X12436848Y52627918D01*
X12431507Y52624038D01*
X12431506Y52624037D01*
X12409088Y52607749D01*
X12282347Y52515666D01*
X12277926Y52510756D01*
X12277925Y52510755D01*
X12181767Y52403960D01*
X12154560Y52373744D01*
X12134623Y52339212D01*
X12065079Y52218758D01*
X12059073Y52208356D01*
X12000058Y52026728D01*
X11999368Y52020167D01*
X11999368Y52020165D01*
X11995279Y51981256D01*
X11980096Y51836800D01*
X11979538Y51836859D01*
X11960784Y51772988D01*
X11907128Y51726495D01*
X11836854Y51716391D01*
X11772274Y51745885D01*
X11765691Y51752014D01*
X11643922Y51873783D01*
X11609896Y51936095D01*
X11607707Y51949708D01*
X11591032Y52108365D01*
X11591032Y52108367D01*
X11590342Y52114928D01*
X11531327Y52296556D01*
X11527390Y52303376D01*
X11439141Y52456226D01*
X11435840Y52461944D01*
X11413579Y52486668D01*
X11312475Y52598955D01*
X11312474Y52598956D01*
X11308053Y52603866D01*
X11208957Y52675864D01*
X11158894Y52712237D01*
X11158893Y52712238D01*
X11153552Y52716118D01*
X11147524Y52718802D01*
X11147522Y52718803D01*
X10985119Y52791109D01*
X10985118Y52791109D01*
X10979088Y52793794D01*
X10885688Y52813647D01*
X10798744Y52832128D01*
X10798739Y52832128D01*
X10792287Y52833500D01*
X10601313Y52833500D01*
X10594861Y52832128D01*
X10594856Y52832128D01*
X10507913Y52813647D01*
X10414512Y52793794D01*
X10408482Y52791109D01*
X10408481Y52791109D01*
X10246078Y52718803D01*
X10246076Y52718802D01*
X10240048Y52716118D01*
X10234707Y52712238D01*
X10234706Y52712237D01*
X10184643Y52675864D01*
X10085547Y52603866D01*
X10081126Y52598956D01*
X10081125Y52598955D01*
X9980022Y52486668D01*
X9957760Y52461944D01*
X9954459Y52456226D01*
X9866211Y52303376D01*
X9862273Y52296556D01*
X9803258Y52114928D01*
X9802568Y52108367D01*
X9802568Y52108365D01*
X9789209Y51981256D01*
X9783296Y51925000D01*
X9783986Y51918435D01*
X9802122Y51745885D01*
X9803258Y51735072D01*
X9862273Y51553444D01*
X9865576Y51547722D01*
X9865577Y51547721D01*
X9869557Y51540827D01*
X9957760Y51388056D01*
X9962178Y51383149D01*
X9962179Y51383148D01*
X10041590Y51294953D01*
X10085547Y51246134D01*
X10240048Y51133882D01*
X10246076Y51131198D01*
X10246078Y51131197D01*
X10408481Y51058891D01*
X10414512Y51056206D01*
X10507913Y51036353D01*
X10594856Y51017872D01*
X10594861Y51017872D01*
X10601313Y51016500D01*
X10657206Y51016500D01*
X10725327Y50996498D01*
X10746301Y50979595D01*
X11466095Y50259801D01*
X11500121Y50197489D01*
X11503000Y50170706D01*
X11503000Y47369794D01*
X11482998Y47301673D01*
X11466095Y47280699D01*
X11160177Y46974781D01*
X11097865Y46940755D01*
X11027050Y46945820D01*
X10982741Y46975963D01*
X10982180Y46975340D01*
X10977616Y46979449D01*
X10977446Y46979565D01*
X10977268Y46979763D01*
X10977266Y46979764D01*
X10972853Y46984666D01*
X10894223Y47041794D01*
X10823694Y47093037D01*
X10823693Y47093038D01*
X10818352Y47096918D01*
X10812324Y47099602D01*
X10812322Y47099603D01*
X10649919Y47171909D01*
X10649918Y47171909D01*
X10643888Y47174594D01*
X10550488Y47194447D01*
X10463544Y47212928D01*
X10463539Y47212928D01*
X10457087Y47214300D01*
X10401194Y47214300D01*
X10333073Y47234302D01*
X10312099Y47251205D01*
X7488422Y50074883D01*
X7454396Y50137195D01*
X7452207Y50150808D01*
X7435532Y50309465D01*
X7435532Y50309467D01*
X7434842Y50316028D01*
X7375827Y50497656D01*
X7280340Y50663044D01*
X7207163Y50744315D01*
X7176447Y50808321D01*
X7174800Y50828624D01*
X7174800Y51854306D01*
X7194802Y51922427D01*
X7211705Y51943401D01*
X8385000Y53116695D01*
X8447312Y53150721D01*
X8474095Y53153600D01*
X8529987Y53153600D01*
X8536439Y53154972D01*
X8536444Y53154972D01*
X8623388Y53173453D01*
X8716788Y53193306D01*
X8722819Y53195991D01*
X8885222Y53268297D01*
X8885224Y53268298D01*
X8891252Y53270982D01*
X9045753Y53383234D01*
X9173540Y53525156D01*
X9269027Y53690544D01*
X9328042Y53872172D01*
X9348004Y54062100D01*
X9328042Y54252028D01*
X9269027Y54433656D01*
X9173540Y54599044D01*
X9045753Y54740966D01*
X8891252Y54853218D01*
X8885224Y54855902D01*
X8885222Y54855903D01*
X8722819Y54928209D01*
X8722818Y54928209D01*
X8716788Y54930894D01*
X8623388Y54950747D01*
X8536444Y54969228D01*
X8536439Y54969228D01*
X8529987Y54970600D01*
X8339013Y54970600D01*
X8332561Y54969228D01*
X8332556Y54969228D01*
X8245612Y54950747D01*
X8152212Y54930894D01*
X8146182Y54928209D01*
X8146181Y54928209D01*
X7983778Y54855903D01*
X7983776Y54855902D01*
X7977748Y54853218D01*
X7823247Y54740966D01*
X7695460Y54599044D01*
X7599973Y54433656D01*
X7540958Y54252028D01*
X7540268Y54245467D01*
X7540268Y54245465D01*
X7523593Y54086807D01*
X7496580Y54021150D01*
X7487378Y54010882D01*
X6149047Y52672552D01*
X6140761Y52665012D01*
X6134282Y52660900D01*
X6128857Y52655123D01*
X6087657Y52611249D01*
X6084902Y52608407D01*
X6065165Y52588670D01*
X6062685Y52585473D01*
X6054982Y52576453D01*
X6024714Y52544221D01*
X6020895Y52537275D01*
X6020893Y52537272D01*
X6014952Y52526466D01*
X6004101Y52509947D01*
X5991686Y52493941D01*
X5988541Y52486672D01*
X5988538Y52486668D01*
X5974126Y52453363D01*
X5968909Y52442713D01*
X5947605Y52403960D01*
X5945634Y52396285D01*
X5945634Y52396284D01*
X5942567Y52384338D01*
X5936163Y52365634D01*
X5928119Y52347045D01*
X5926880Y52339222D01*
X5926877Y52339212D01*
X5921201Y52303376D01*
X5918795Y52291756D01*
X5916656Y52283424D01*
X5907800Y52248930D01*
X5907800Y52228676D01*
X5906249Y52208966D01*
X5903080Y52188957D01*
X5903826Y52181065D01*
X5907241Y52144939D01*
X5907800Y52133081D01*
X5907800Y50828624D01*
X5887798Y50760503D01*
X5875442Y50744321D01*
X5802260Y50663044D01*
X5706773Y50497656D01*
X5647758Y50316028D01*
X5647068Y50309467D01*
X5647068Y50309465D01*
X5636439Y50208333D01*
X5627796Y50126100D01*
X5628486Y50119535D01*
X5646774Y49945539D01*
X5647758Y49936172D01*
X5706773Y49754544D01*
X5802260Y49589156D01*
X5930047Y49447234D01*
X6084548Y49334982D01*
X6090576Y49332298D01*
X6090578Y49332297D01*
X6100115Y49328051D01*
X6259012Y49257306D01*
X6352413Y49237453D01*
X6439356Y49218972D01*
X6439361Y49218972D01*
X6445813Y49217600D01*
X6501706Y49217600D01*
X6569827Y49197598D01*
X6590801Y49180695D01*
X8011735Y47759760D01*
X9414478Y46357017D01*
X9448504Y46294705D01*
X9450693Y46281094D01*
X9454244Y46247302D01*
X9466994Y46126000D01*
X9468058Y46115872D01*
X9527073Y45934244D01*
X9622560Y45768856D01*
X9699709Y45683174D01*
X9730425Y45619167D01*
X9721660Y45548714D01*
X9695166Y45509770D01*
X3987300Y39801905D01*
X3924988Y39767879D01*
X3898205Y39765000D01*
X3716613Y39765000D01*
X3710161Y39763628D01*
X3710156Y39763628D01*
X3623212Y39745147D01*
X3529812Y39725294D01*
X3523782Y39722609D01*
X3523781Y39722609D01*
X3361378Y39650303D01*
X3361376Y39650302D01*
X3355348Y39647618D01*
X3350007Y39643738D01*
X3350006Y39643737D01*
X3299943Y39607364D01*
X3200847Y39535366D01*
X3196426Y39530456D01*
X3196425Y39530455D01*
X3094834Y39417626D01*
X3073060Y39393444D01*
X2977573Y39228056D01*
X2918558Y39046428D01*
X2898596Y38856500D01*
X1410000Y38856500D01*
X1410000Y55525925D01*
X4086325Y55525925D01*
X4146323Y55362855D01*
X4151897Y55351427D01*
X4250399Y55192560D01*
X4258149Y55182496D01*
X4386586Y55046678D01*
X4396206Y55038375D01*
X4549331Y54931155D01*
X4560420Y54924958D01*
X4731982Y54850716D01*
X4744085Y54846877D01*
X4914864Y54811199D01*
X4928925Y54812322D01*
X4932600Y54822429D01*
X4932600Y54830610D01*
X5440600Y54830610D01*
X5444816Y54816250D01*
X5457295Y54814191D01*
X5528931Y54821467D01*
X5541370Y54824021D01*
X5719743Y54879920D01*
X5731431Y54884929D01*
X5894920Y54975553D01*
X5905353Y54982804D01*
X6047288Y55104456D01*
X6056041Y55113647D01*
X6170621Y55261364D01*
X6177345Y55272124D01*
X6259881Y55439860D01*
X6264309Y55451767D01*
X6281683Y55518469D01*
X6281453Y55525925D01*
X9086325Y55525925D01*
X9146323Y55362855D01*
X9151897Y55351427D01*
X9250399Y55192560D01*
X9258149Y55182496D01*
X9386586Y55046678D01*
X9396206Y55038375D01*
X9549331Y54931155D01*
X9560420Y54924958D01*
X9731982Y54850716D01*
X9744085Y54846877D01*
X9914864Y54811199D01*
X9928925Y54812322D01*
X9932600Y54822429D01*
X9932600Y54830610D01*
X10440600Y54830610D01*
X10444816Y54816250D01*
X10457295Y54814191D01*
X10528931Y54821467D01*
X10541370Y54824021D01*
X10719743Y54879920D01*
X10731431Y54884929D01*
X10894920Y54975553D01*
X10905353Y54982804D01*
X11047288Y55104456D01*
X11056041Y55113647D01*
X11170621Y55261364D01*
X11177345Y55272124D01*
X11259881Y55439860D01*
X11264309Y55451767D01*
X11281683Y55518469D01*
X11281249Y55532564D01*
X11273068Y55536000D01*
X10458715Y55536000D01*
X10443476Y55531525D01*
X10442271Y55530135D01*
X10440600Y55522452D01*
X10440600Y54830610D01*
X9932600Y54830610D01*
X9932600Y55517885D01*
X9928125Y55533124D01*
X9926735Y55534329D01*
X9919052Y55536000D01*
X9100733Y55536000D01*
X9087202Y55532027D01*
X9086325Y55525925D01*
X6281453Y55525925D01*
X6281249Y55532564D01*
X6273068Y55536000D01*
X5458715Y55536000D01*
X5443476Y55531525D01*
X5442271Y55530135D01*
X5440600Y55522452D01*
X5440600Y54830610D01*
X4932600Y54830610D01*
X4932600Y55517885D01*
X4928125Y55533124D01*
X4926735Y55534329D01*
X4919052Y55536000D01*
X4100733Y55536000D01*
X4087202Y55532027D01*
X4086325Y55525925D01*
X1410000Y55525925D01*
X1410000Y56061531D01*
X4091517Y56061531D01*
X4091951Y56047436D01*
X4100132Y56044000D01*
X4914485Y56044000D01*
X4929724Y56048475D01*
X4930929Y56049865D01*
X4932600Y56057548D01*
X4932600Y56062115D01*
X5440600Y56062115D01*
X5445075Y56046876D01*
X5446465Y56045671D01*
X5454148Y56044000D01*
X6272467Y56044000D01*
X6285998Y56047973D01*
X6286875Y56054075D01*
X6284132Y56061531D01*
X9091517Y56061531D01*
X9091951Y56047436D01*
X9100132Y56044000D01*
X9914485Y56044000D01*
X9929724Y56048475D01*
X9930929Y56049865D01*
X9932600Y56057548D01*
X9932600Y56062115D01*
X10440600Y56062115D01*
X10445075Y56046876D01*
X10446465Y56045671D01*
X10454148Y56044000D01*
X11272467Y56044000D01*
X11285998Y56047973D01*
X11286875Y56054075D01*
X11226877Y56217145D01*
X11221303Y56228573D01*
X11122801Y56387440D01*
X11115051Y56397504D01*
X10986614Y56533322D01*
X10976994Y56541625D01*
X10823869Y56648845D01*
X10812780Y56655042D01*
X10641218Y56729284D01*
X10629115Y56733123D01*
X10458336Y56768801D01*
X10444275Y56767678D01*
X10440600Y56757571D01*
X10440600Y56062115D01*
X9932600Y56062115D01*
X9932600Y56749390D01*
X9928384Y56763750D01*
X9915905Y56765809D01*
X9844269Y56758533D01*
X9831830Y56755979D01*
X9653457Y56700080D01*
X9641769Y56695071D01*
X9478280Y56604447D01*
X9467847Y56597196D01*
X9325912Y56475544D01*
X9317159Y56466353D01*
X9202579Y56318636D01*
X9195855Y56307876D01*
X9113319Y56140140D01*
X9108891Y56128233D01*
X9091517Y56061531D01*
X6284132Y56061531D01*
X6226877Y56217145D01*
X6221303Y56228573D01*
X6122801Y56387440D01*
X6115051Y56397504D01*
X5986614Y56533322D01*
X5976994Y56541625D01*
X5823869Y56648845D01*
X5812780Y56655042D01*
X5641218Y56729284D01*
X5629115Y56733123D01*
X5458336Y56768801D01*
X5444275Y56767678D01*
X5440600Y56757571D01*
X5440600Y56062115D01*
X4932600Y56062115D01*
X4932600Y56749390D01*
X4928384Y56763750D01*
X4915905Y56765809D01*
X4844269Y56758533D01*
X4831830Y56755979D01*
X4653457Y56700080D01*
X4641769Y56695071D01*
X4478280Y56604447D01*
X4467847Y56597196D01*
X4325912Y56475544D01*
X4317159Y56466353D01*
X4202579Y56318636D01*
X4195855Y56307876D01*
X4113319Y56140140D01*
X4108891Y56128233D01*
X4091517Y56061531D01*
X1410000Y56061531D01*
X1410000Y58168343D01*
X3178600Y58168343D01*
X3178901Y58162195D01*
X3192412Y58024397D01*
X3194795Y58012362D01*
X3248367Y57834924D01*
X3253041Y57823584D01*
X3340060Y57659923D01*
X3346849Y57649706D01*
X3463997Y57506067D01*
X3472641Y57497363D01*
X3615456Y57379216D01*
X3625627Y57372356D01*
X3788676Y57284196D01*
X3799981Y57279444D01*
X3915292Y57243750D01*
X3929395Y57243544D01*
X3932600Y57250299D01*
X3932600Y57257076D01*
X4440600Y57257076D01*
X4444573Y57243545D01*
X4452368Y57242425D01*
X4560121Y57274138D01*
X4571489Y57278731D01*
X4735754Y57364607D01*
X4746015Y57371321D01*
X4890473Y57487468D01*
X4899232Y57496046D01*
X5018378Y57638039D01*
X5025308Y57648159D01*
X5114602Y57810585D01*
X5119434Y57821858D01*
X5175480Y57998538D01*
X5178030Y58010532D01*
X5194207Y58154761D01*
X5194600Y58161785D01*
X5194600Y58168343D01*
X10178600Y58168343D01*
X10178901Y58162195D01*
X10192412Y58024397D01*
X10194795Y58012362D01*
X10248367Y57834924D01*
X10253041Y57823584D01*
X10340060Y57659923D01*
X10346849Y57649706D01*
X10463997Y57506067D01*
X10472641Y57497363D01*
X10615456Y57379216D01*
X10625627Y57372356D01*
X10788676Y57284196D01*
X10799981Y57279444D01*
X10915292Y57243750D01*
X10929395Y57243544D01*
X10932600Y57250299D01*
X10932600Y57257076D01*
X11440600Y57257076D01*
X11444573Y57243545D01*
X11452368Y57242425D01*
X11560121Y57274138D01*
X11571489Y57278731D01*
X11735754Y57364607D01*
X11746015Y57371321D01*
X11890473Y57487468D01*
X11899232Y57496046D01*
X12018378Y57638039D01*
X12025308Y57648159D01*
X12114602Y57810585D01*
X12119434Y57821858D01*
X12175480Y57998538D01*
X12178030Y58010532D01*
X12194207Y58154761D01*
X12194600Y58161785D01*
X12194600Y58217885D01*
X12190125Y58233124D01*
X12188735Y58234329D01*
X12181052Y58236000D01*
X11458715Y58236000D01*
X11443476Y58231525D01*
X11442271Y58230135D01*
X11440600Y58222452D01*
X11440600Y57257076D01*
X10932600Y57257076D01*
X10932600Y58217885D01*
X10928125Y58233124D01*
X10926735Y58234329D01*
X10919052Y58236000D01*
X10196715Y58236000D01*
X10181476Y58231525D01*
X10180271Y58230135D01*
X10178600Y58222452D01*
X10178600Y58168343D01*
X5194600Y58168343D01*
X5194600Y58217885D01*
X5190125Y58233124D01*
X5188735Y58234329D01*
X5181052Y58236000D01*
X4458715Y58236000D01*
X4443476Y58231525D01*
X4442271Y58230135D01*
X4440600Y58222452D01*
X4440600Y57257076D01*
X3932600Y57257076D01*
X3932600Y58217885D01*
X3928125Y58233124D01*
X3926735Y58234329D01*
X3919052Y58236000D01*
X3196715Y58236000D01*
X3181476Y58231525D01*
X3180271Y58230135D01*
X3178600Y58222452D01*
X3178600Y58168343D01*
X1410000Y58168343D01*
X1410000Y59689987D01*
X1430002Y59758108D01*
X1483658Y59804601D01*
X1536042Y59815987D01*
X1886104Y59815870D01*
G37*
%TD.AperFunction*%
%TA.AperFunction,Conductor*%
G36*
X38884955Y36838798D02*
G01*
X38931448Y36785142D01*
X38941552Y36714868D01*
X38925955Y36669803D01*
X38878873Y36588256D01*
X38819858Y36406628D01*
X38819169Y36400069D01*
X38819168Y36400065D01*
X38809464Y36307732D01*
X38799896Y36216700D01*
X38800586Y36210135D01*
X38800586Y36203530D01*
X38798147Y36203530D01*
X38787380Y36144581D01*
X38763924Y36112128D01*
X35189900Y32538105D01*
X35127588Y32504079D01*
X35100805Y32501200D01*
X32261283Y32501200D01*
X32193162Y32521202D01*
X32146669Y32574858D01*
X32135973Y32614029D01*
X32118932Y32776166D01*
X32118931Y32776169D01*
X32118242Y32782728D01*
X32059227Y32964356D01*
X31963740Y33129744D01*
X31854383Y33251198D01*
X31840375Y33266755D01*
X31840374Y33266756D01*
X31835953Y33271666D01*
X31724451Y33352677D01*
X31686794Y33380037D01*
X31686793Y33380038D01*
X31681452Y33383918D01*
X31675424Y33386602D01*
X31675422Y33386603D01*
X31513019Y33458909D01*
X31513018Y33458909D01*
X31506988Y33461594D01*
X31408389Y33482552D01*
X31326644Y33499928D01*
X31326639Y33499928D01*
X31320187Y33501300D01*
X31129213Y33501300D01*
X31122761Y33499928D01*
X31122756Y33499928D01*
X31041011Y33482552D01*
X30942412Y33461594D01*
X30936382Y33458909D01*
X30936381Y33458909D01*
X30773978Y33386603D01*
X30773976Y33386602D01*
X30767948Y33383918D01*
X30762607Y33380038D01*
X30762606Y33380037D01*
X30757187Y33376100D01*
X30664129Y33308489D01*
X30597263Y33284631D01*
X30528111Y33300711D01*
X30500974Y33321330D01*
X27178600Y36643705D01*
X27144574Y36706017D01*
X27149639Y36776833D01*
X27192186Y36833668D01*
X27258706Y36858479D01*
X27267695Y36858800D01*
X38816834Y36858800D01*
X38884955Y36838798D01*
G37*
%TD.AperFunction*%
%TD*%
M02*
