%TF.GenerationSoftware,KiCad,Pcbnew,(6.0.7)*%
%TF.CreationDate,2022-10-14T07:02:42-05:00*%
%TF.ProjectId,SmartSpin2k,536d6172-7453-4706-996e-326b2e6b6963,prototype*%
%TF.SameCoordinates,Original*%
%TF.FileFunction,Legend,Bot*%
%TF.FilePolarity,Positive*%
%FSLAX46Y46*%
G04 Gerber Fmt 4.6, Leading zero omitted, Abs format (unit mm)*
G04 Created by KiCad (PCBNEW (6.0.7)) date 2022-10-14 07:02:42*
%MOMM*%
%LPD*%
G01*
G04 APERTURE LIST*
G04 Aperture macros list*
%AMRoundRect*
0 Rectangle with rounded corners*
0 $1 Rounding radius*
0 $2 $3 $4 $5 $6 $7 $8 $9 X,Y pos of 4 corners*
0 Add a 4 corners polygon primitive as box body*
4,1,4,$2,$3,$4,$5,$6,$7,$8,$9,$2,$3,0*
0 Add four circle primitives for the rounded corners*
1,1,$1+$1,$2,$3*
1,1,$1+$1,$4,$5*
1,1,$1+$1,$6,$7*
1,1,$1+$1,$8,$9*
0 Add four rect primitives between the rounded corners*
20,1,$1+$1,$2,$3,$4,$5,0*
20,1,$1+$1,$4,$5,$6,$7,0*
20,1,$1+$1,$6,$7,$8,$9,0*
20,1,$1+$1,$8,$9,$2,$3,0*%
G04 Aperture macros list end*
%ADD10C,0.100000*%
%ADD11C,0.346007*%
%ADD12C,0.120000*%
%ADD13C,0.150000*%
%ADD14O,1.250000X0.950000*%
%ADD15O,1.000000X1.550000*%
%ADD16C,1.200000*%
%ADD17RoundRect,0.250000X0.725000X-0.600000X0.725000X0.600000X-0.725000X0.600000X-0.725000X-0.600000X0*%
%ADD18O,1.950000X1.700000*%
%ADD19RoundRect,0.250000X0.600000X0.725000X-0.600000X0.725000X-0.600000X-0.725000X0.600000X-0.725000X0*%
%ADD20O,1.700000X1.950000*%
G04 APERTURE END LIST*
D10*
G36*
X34917903Y14247947D02*
G01*
X34956893Y14245152D01*
X34995653Y14240136D01*
X35034067Y14232891D01*
X35072018Y14223408D01*
X35109391Y14211679D01*
X35146070Y14197697D01*
X35181940Y14181453D01*
X35216885Y14162940D01*
X35250788Y14142149D01*
X35283535Y14119072D01*
X35315010Y14093701D01*
X35345096Y14066028D01*
X35373678Y14036045D01*
X35400641Y14003744D01*
X35422389Y13974148D01*
X35442591Y13943145D01*
X35461252Y13910834D01*
X35478375Y13877313D01*
X35493965Y13842680D01*
X35508026Y13807032D01*
X35531579Y13733083D01*
X35549065Y13656250D01*
X35560520Y13577317D01*
X35565978Y13497067D01*
X35565471Y13416281D01*
X35559033Y13335745D01*
X35546698Y13256240D01*
X35528501Y13178550D01*
X35504474Y13103458D01*
X35474651Y13031747D01*
X35457576Y12997404D01*
X35439066Y12964200D01*
X35419123Y12932232D01*
X35397753Y12901600D01*
X35374958Y12872400D01*
X35350745Y12844730D01*
X35292439Y12787415D01*
X35232689Y12739207D01*
X35171806Y12699783D01*
X35110098Y12668821D01*
X35047878Y12645998D01*
X34985455Y12630992D01*
X34923140Y12623480D01*
X34861244Y12623139D01*
X34800076Y12629647D01*
X34739948Y12642681D01*
X34681170Y12661919D01*
X34624052Y12687038D01*
X34568906Y12717716D01*
X34516040Y12753629D01*
X34465767Y12794455D01*
X34418396Y12839872D01*
X34374237Y12889557D01*
X34333602Y12943187D01*
X34296801Y13000440D01*
X34264145Y13060993D01*
X34235943Y13124524D01*
X34212506Y13190710D01*
X34194145Y13259227D01*
X34181171Y13329755D01*
X34173893Y13401970D01*
X34172623Y13475549D01*
X34177670Y13550170D01*
X34189346Y13625510D01*
X34207960Y13701247D01*
X34233824Y13777058D01*
X34267247Y13852621D01*
X34308540Y13927612D01*
X34331895Y13963421D01*
X34357101Y13997153D01*
X34384045Y14028802D01*
X34412609Y14058358D01*
X34442679Y14085814D01*
X34474138Y14111162D01*
X34506871Y14134393D01*
X34540762Y14155500D01*
X34575696Y14174474D01*
X34611556Y14191308D01*
X34648226Y14205993D01*
X34685592Y14218521D01*
X34723537Y14228885D01*
X34761946Y14237075D01*
X34800703Y14243085D01*
X34839692Y14246905D01*
X34878797Y14248529D01*
X34917903Y14247947D01*
G37*
X34917903Y14247947D02*
X34956893Y14245152D01*
X34995653Y14240136D01*
X35034067Y14232891D01*
X35072018Y14223408D01*
X35109391Y14211679D01*
X35146070Y14197697D01*
X35181940Y14181453D01*
X35216885Y14162940D01*
X35250788Y14142149D01*
X35283535Y14119072D01*
X35315010Y14093701D01*
X35345096Y14066028D01*
X35373678Y14036045D01*
X35400641Y14003744D01*
X35422389Y13974148D01*
X35442591Y13943145D01*
X35461252Y13910834D01*
X35478375Y13877313D01*
X35493965Y13842680D01*
X35508026Y13807032D01*
X35531579Y13733083D01*
X35549065Y13656250D01*
X35560520Y13577317D01*
X35565978Y13497067D01*
X35565471Y13416281D01*
X35559033Y13335745D01*
X35546698Y13256240D01*
X35528501Y13178550D01*
X35504474Y13103458D01*
X35474651Y13031747D01*
X35457576Y12997404D01*
X35439066Y12964200D01*
X35419123Y12932232D01*
X35397753Y12901600D01*
X35374958Y12872400D01*
X35350745Y12844730D01*
X35292439Y12787415D01*
X35232689Y12739207D01*
X35171806Y12699783D01*
X35110098Y12668821D01*
X35047878Y12645998D01*
X34985455Y12630992D01*
X34923140Y12623480D01*
X34861244Y12623139D01*
X34800076Y12629647D01*
X34739948Y12642681D01*
X34681170Y12661919D01*
X34624052Y12687038D01*
X34568906Y12717716D01*
X34516040Y12753629D01*
X34465767Y12794455D01*
X34418396Y12839872D01*
X34374237Y12889557D01*
X34333602Y12943187D01*
X34296801Y13000440D01*
X34264145Y13060993D01*
X34235943Y13124524D01*
X34212506Y13190710D01*
X34194145Y13259227D01*
X34181171Y13329755D01*
X34173893Y13401970D01*
X34172623Y13475549D01*
X34177670Y13550170D01*
X34189346Y13625510D01*
X34207960Y13701247D01*
X34233824Y13777058D01*
X34267247Y13852621D01*
X34308540Y13927612D01*
X34331895Y13963421D01*
X34357101Y13997153D01*
X34384045Y14028802D01*
X34412609Y14058358D01*
X34442679Y14085814D01*
X34474138Y14111162D01*
X34506871Y14134393D01*
X34540762Y14155500D01*
X34575696Y14174474D01*
X34611556Y14191308D01*
X34648226Y14205993D01*
X34685592Y14218521D01*
X34723537Y14228885D01*
X34761946Y14237075D01*
X34800703Y14243085D01*
X34839692Y14246905D01*
X34878797Y14248529D01*
X34917903Y14247947D01*
G36*
X26659988Y12907881D02*
G01*
X26699000Y13578346D01*
X26774973Y14153206D01*
X26830669Y14407082D01*
X26900225Y14639814D01*
X26985181Y14852322D01*
X27087076Y15045525D01*
X27207451Y15220343D01*
X27347846Y15377694D01*
X27509801Y15518498D01*
X27694856Y15643674D01*
X27904550Y15754141D01*
X28140424Y15850819D01*
X28404018Y15934627D01*
X28696871Y16006485D01*
X29376517Y16118025D01*
X30191681Y16192793D01*
X31154684Y16238145D01*
X32277845Y16261433D01*
X35053920Y16271239D01*
X37829996Y16261433D01*
X38953157Y16238145D01*
X39916159Y16192793D01*
X40341451Y16159546D01*
X40731323Y16118025D01*
X41087316Y16067311D01*
X41410969Y16006485D01*
X41703823Y15934627D01*
X41861856Y15884382D01*
X41997454Y15877611D01*
X42189531Y15860076D01*
X42364099Y15835100D01*
X42521820Y15802276D01*
X42663361Y15761200D01*
X42728270Y15737440D01*
X42789383Y15711465D01*
X42846783Y15683224D01*
X42900553Y15652667D01*
X42950775Y15619742D01*
X42997533Y15584400D01*
X43040910Y15546589D01*
X43080989Y15506258D01*
X43117852Y15463358D01*
X43151584Y15417837D01*
X43182266Y15369645D01*
X43209982Y15318730D01*
X43234815Y15265043D01*
X43256847Y15208533D01*
X43292845Y15086840D01*
X43318638Y14953245D01*
X43334891Y14807343D01*
X43339040Y14730445D01*
X43339523Y14655621D01*
X43336373Y14582901D01*
X43329624Y14512312D01*
X43319310Y14443883D01*
X43305463Y14377642D01*
X43293399Y14333113D01*
X43332868Y14153206D01*
X43376244Y13877267D01*
X43408840Y13578346D01*
X43447853Y12907881D01*
X43462226Y12134456D01*
X43464280Y11250716D01*
X43464283Y11250718D01*
X43447857Y9593553D01*
X43408844Y8923087D01*
X43332872Y8348228D01*
X43277175Y8094352D01*
X43207620Y7861619D01*
X43172538Y7773866D01*
X43171459Y7734615D01*
X43169743Y7708847D01*
X43167182Y7684920D01*
X43163608Y7662764D01*
X43158852Y7642311D01*
X43152746Y7623494D01*
X43145120Y7606243D01*
X43135806Y7590492D01*
X43124634Y7576172D01*
X43111436Y7563214D01*
X43096044Y7551552D01*
X43078287Y7541115D01*
X43061708Y7533534D01*
X43020768Y7455908D01*
X42900393Y7281090D01*
X42759998Y7123739D01*
X42598043Y6982935D01*
X42412988Y6857759D01*
X42203294Y6747292D01*
X41967420Y6650614D01*
X41703826Y6566806D01*
X41410973Y6494948D01*
X40731327Y6383408D01*
X39916163Y6308640D01*
X38953160Y6263288D01*
X37830000Y6240000D01*
X35053924Y6230194D01*
X32720827Y6235623D01*
X31736599Y6248518D01*
X30864822Y6273629D01*
X30098675Y6315029D01*
X29753081Y6343110D01*
X29431337Y6376789D01*
X29132589Y6416577D01*
X28855985Y6462982D01*
X28600673Y6516513D01*
X28365799Y6577679D01*
X28062641Y6679856D01*
X27797326Y6800323D01*
X27678071Y6867887D01*
X27567330Y6940587D01*
X27464788Y7018613D01*
X27370130Y7102154D01*
X27283041Y7191396D01*
X27203204Y7286528D01*
X27130306Y7387740D01*
X27069793Y7485870D01*
X27022968Y7485908D01*
X26962622Y7486873D01*
X26911260Y7489640D01*
X26888904Y7491980D01*
X26868743Y7495107D01*
X26850759Y7499132D01*
X26834935Y7504168D01*
X26821253Y7510327D01*
X26809697Y7517720D01*
X26800249Y7526459D01*
X26792892Y7536656D01*
X26787608Y7548424D01*
X26784381Y7561874D01*
X26783194Y7577119D01*
X26784028Y7594269D01*
X26786867Y7613437D01*
X26791694Y7634736D01*
X26798491Y7658276D01*
X26807241Y7684170D01*
X26817927Y7712530D01*
X26830532Y7743468D01*
X26861428Y7813524D01*
X26895554Y7886206D01*
X26858841Y7991563D01*
X26787782Y8282232D01*
X26734382Y8603238D01*
X26696120Y8956089D01*
X26670471Y9342290D01*
X26654914Y9763348D01*
X26646925Y10220767D01*
X26643561Y11250716D01*
X26644732Y11368898D01*
X26798087Y11368898D01*
X26800051Y11351527D01*
X26805168Y11331520D01*
X26813474Y11308697D01*
X26839788Y11253875D01*
X26879268Y11185607D01*
X26932189Y11102443D01*
X27079454Y10885615D01*
X27283784Y10591773D01*
X27388894Y10438927D01*
X27486968Y10293302D01*
X27575855Y10158302D01*
X27653408Y10037331D01*
X27717478Y9933794D01*
X27765917Y9851094D01*
X27783603Y9818622D01*
X27796576Y9792636D01*
X27804566Y9773561D01*
X27806609Y9766749D01*
X27807306Y9761823D01*
X27803278Y9740918D01*
X27791693Y9705563D01*
X27749467Y9599205D01*
X27687864Y9458157D01*
X27614119Y9297827D01*
X27535467Y9133622D01*
X27459144Y8980950D01*
X27392385Y8855218D01*
X27364852Y8807270D01*
X27342424Y8771835D01*
X27327634Y8746740D01*
X27301960Y8699186D01*
X27223604Y8547774D01*
X27118646Y8339733D01*
X26998376Y8097201D01*
X26899793Y7895235D01*
X26895554Y7886206D01*
X26950082Y7729727D01*
X27064029Y7495218D01*
X27069793Y7485870D01*
X27092435Y7485852D01*
X27223127Y7486607D01*
X27276576Y7488058D01*
X27323157Y7490806D01*
X27344121Y7492804D01*
X27363666Y7495289D01*
X27381893Y7498317D01*
X27398902Y7501943D01*
X27414790Y7506220D01*
X27429660Y7511204D01*
X27443609Y7516949D01*
X27456737Y7523509D01*
X27469145Y7530940D01*
X27480931Y7539295D01*
X27492196Y7548630D01*
X27503039Y7558999D01*
X27513559Y7570457D01*
X27523857Y7583057D01*
X27534032Y7596856D01*
X27544183Y7611907D01*
X27564813Y7645983D01*
X27586544Y7685724D01*
X27636499Y7783945D01*
X27874621Y8259386D01*
X27970274Y8449859D01*
X28051912Y8611619D01*
X28120725Y8746756D01*
X28177907Y8857360D01*
X28202508Y8904115D01*
X28224649Y8945520D01*
X28244477Y8981837D01*
X28262142Y9013326D01*
X28277793Y9040249D01*
X28291579Y9062868D01*
X28303648Y9081442D01*
X28314151Y9096235D01*
X28323235Y9107506D01*
X28327292Y9111902D01*
X28331050Y9115516D01*
X28334528Y9118381D01*
X28337745Y9120528D01*
X28340719Y9121991D01*
X28343469Y9122803D01*
X28346013Y9122995D01*
X28348370Y9122601D01*
X28350559Y9121653D01*
X28352598Y9120183D01*
X28354506Y9118226D01*
X28356302Y9115812D01*
X28359630Y9109748D01*
X28362732Y9102252D01*
X28365757Y9093586D01*
X28372170Y9073786D01*
X28375808Y9064622D01*
X28381530Y9052641D01*
X28398729Y9021000D01*
X28422786Y8980409D01*
X28452718Y8932411D01*
X28487544Y8878552D01*
X28526282Y8820375D01*
X28567950Y8759425D01*
X28611565Y8697247D01*
X28675064Y8605125D01*
X28701805Y8563474D01*
X28725509Y8523846D01*
X28746401Y8485554D01*
X28764708Y8447911D01*
X28780655Y8410229D01*
X28794469Y8371823D01*
X28806374Y8332004D01*
X28816598Y8290085D01*
X28825366Y8245379D01*
X28832904Y8197199D01*
X28839437Y8144858D01*
X28845192Y8087669D01*
X28855272Y7955999D01*
X28865588Y7810960D01*
X28871161Y7752208D01*
X28877779Y7701739D01*
X28881660Y7679401D01*
X28886017Y7658882D01*
X28890924Y7640099D01*
X28896451Y7622967D01*
X28902671Y7607403D01*
X28909655Y7593323D01*
X28917476Y7580643D01*
X28926206Y7569279D01*
X28935916Y7559147D01*
X28946678Y7550164D01*
X28958565Y7542245D01*
X28971649Y7535307D01*
X28986000Y7529266D01*
X29001691Y7524037D01*
X29018795Y7519538D01*
X29037383Y7515684D01*
X29079298Y7509577D01*
X29128013Y7505044D01*
X29248142Y7498019D01*
X29368214Y7495725D01*
X29416794Y7502428D01*
X29458446Y7518200D01*
X29493704Y7545918D01*
X29523101Y7588460D01*
X29547168Y7648703D01*
X29566440Y7729524D01*
X29581450Y7833800D01*
X29592729Y7964408D01*
X29606228Y8316130D01*
X29611201Y8807706D01*
X29611912Y9462155D01*
X29611201Y10116604D01*
X29610386Y10244426D01*
X30153755Y10244426D01*
X30155061Y10171479D01*
X30161029Y10099752D01*
X30171577Y10029369D01*
X30186625Y9960454D01*
X30206091Y9893129D01*
X30229896Y9827519D01*
X30257958Y9763746D01*
X30290197Y9701934D01*
X30326533Y9642207D01*
X30366883Y9584687D01*
X30411168Y9529499D01*
X30459307Y9476765D01*
X30511219Y9426609D01*
X30566824Y9379155D01*
X30626041Y9334525D01*
X30688789Y9292844D01*
X30754987Y9254234D01*
X30824554Y9218819D01*
X30897411Y9186723D01*
X30973476Y9158068D01*
X31052669Y9132979D01*
X31134908Y9111578D01*
X31220114Y9093989D01*
X31308205Y9080335D01*
X31399101Y9070740D01*
X31464510Y9065143D01*
X31523625Y9059462D01*
X31576853Y9053556D01*
X31624603Y9047287D01*
X31646551Y9043972D01*
X31667283Y9040513D01*
X31686851Y9036894D01*
X31705304Y9033096D01*
X31722694Y9029102D01*
X31739073Y9024895D01*
X31754490Y9020457D01*
X31768998Y9015770D01*
X31782648Y9010818D01*
X31795490Y9005582D01*
X31807575Y9000045D01*
X31818956Y8994190D01*
X31829682Y8987999D01*
X31839805Y8981454D01*
X31849376Y8974539D01*
X31858446Y8967236D01*
X31867066Y8959526D01*
X31875287Y8951393D01*
X31883161Y8942820D01*
X31890738Y8933788D01*
X31898070Y8924280D01*
X31905207Y8914279D01*
X31912201Y8903767D01*
X31919103Y8892727D01*
X31928285Y8876238D01*
X31936781Y8858213D01*
X31944597Y8838785D01*
X31951735Y8818088D01*
X31964003Y8773415D01*
X31973622Y8725256D01*
X31980631Y8674672D01*
X31985067Y8622725D01*
X31986971Y8570478D01*
X31986378Y8518992D01*
X31983329Y8469328D01*
X31977861Y8422550D01*
X31970012Y8379719D01*
X31959820Y8341897D01*
X31953858Y8325196D01*
X31947324Y8310146D01*
X31940224Y8296878D01*
X31932562Y8285527D01*
X31924343Y8276224D01*
X31915573Y8269103D01*
X31906254Y8264295D01*
X31896393Y8261935D01*
X31806143Y8258271D01*
X31614198Y8254091D01*
X31037895Y8246247D01*
X30778538Y8242922D01*
X30673605Y8240128D01*
X30583636Y8235828D01*
X30543903Y8232938D01*
X30507479Y8229460D01*
X30474220Y8225325D01*
X30443982Y8220461D01*
X30416622Y8214798D01*
X30391996Y8208267D01*
X30369959Y8200796D01*
X30350368Y8192315D01*
X30333079Y8182754D01*
X30317949Y8172043D01*
X30304832Y8160111D01*
X30293586Y8146887D01*
X30284066Y8132302D01*
X30276129Y8116285D01*
X30269631Y8098765D01*
X30264427Y8079672D01*
X30260375Y8058936D01*
X30257330Y8036487D01*
X30255148Y8012253D01*
X30253685Y7986166D01*
X30252342Y7928145D01*
X30252150Y7861863D01*
X30252154Y7861861D01*
X30254553Y7737574D01*
X30260251Y7687289D01*
X30271346Y7644174D01*
X30279480Y7625134D01*
X30289638Y7607679D01*
X30302045Y7591740D01*
X30316925Y7577250D01*
X30334505Y7564139D01*
X30355008Y7552338D01*
X30405686Y7532389D01*
X30470757Y7516853D01*
X30552020Y7505178D01*
X30651276Y7496813D01*
X30770323Y7491205D01*
X31074987Y7486057D01*
X31480406Y7485322D01*
X31885785Y7486823D01*
X32049717Y7490389D01*
X32190169Y7497334D01*
X32252142Y7502425D01*
X32308910Y7508783D01*
X32360691Y7516548D01*
X32407709Y7525862D01*
X32450184Y7536865D01*
X32488336Y7549698D01*
X32522388Y7564502D01*
X32552560Y7581418D01*
X32579073Y7600585D01*
X32602150Y7622146D01*
X32622009Y7646240D01*
X32638874Y7673009D01*
X32652965Y7702593D01*
X32664502Y7735134D01*
X32673709Y7770771D01*
X32680804Y7809645D01*
X32686010Y7851899D01*
X32689548Y7897671D01*
X32692503Y8000336D01*
X32692367Y8015488D01*
X33166583Y8015488D01*
X33167650Y7902313D01*
X33169051Y7852331D01*
X33171112Y7806512D01*
X33173894Y7764675D01*
X33177460Y7726638D01*
X33181869Y7692221D01*
X33187184Y7661242D01*
X33193466Y7633521D01*
X33200775Y7608877D01*
X33209174Y7587129D01*
X33218723Y7568096D01*
X33229484Y7551596D01*
X33241518Y7537449D01*
X33254886Y7525474D01*
X33269650Y7515490D01*
X33285870Y7507315D01*
X33303609Y7500770D01*
X33322927Y7495672D01*
X33343886Y7491841D01*
X33366547Y7489096D01*
X33390972Y7487256D01*
X33445355Y7485567D01*
X33507527Y7485326D01*
X33624119Y7487072D01*
X33671294Y7491220D01*
X33711745Y7499299D01*
X33729612Y7505221D01*
X33745993Y7512617D01*
X33760952Y7521650D01*
X33774554Y7532485D01*
X33786865Y7545284D01*
X33797949Y7560213D01*
X33807870Y7577433D01*
X33816695Y7597110D01*
X33831311Y7644488D01*
X33842315Y7703655D01*
X33850227Y7775922D01*
X33855564Y7862599D01*
X33858846Y7964996D01*
X33860591Y8084422D01*
X33861543Y8379604D01*
X33862609Y8593363D01*
X33865766Y8783964D01*
X33871554Y8952698D01*
X33875604Y9029270D01*
X33880514Y9100859D01*
X33886351Y9167629D01*
X33893185Y9229739D01*
X33901081Y9287353D01*
X33910107Y9340631D01*
X33920332Y9389735D01*
X33931823Y9434827D01*
X33944646Y9476068D01*
X33958870Y9513620D01*
X33974562Y9547644D01*
X33991790Y9578302D01*
X34010621Y9605756D01*
X34031123Y9630167D01*
X34053363Y9651696D01*
X34077409Y9670505D01*
X34103328Y9686757D01*
X34131188Y9700611D01*
X34161056Y9712231D01*
X34193001Y9721777D01*
X34227088Y9729411D01*
X34263387Y9735295D01*
X34301964Y9739590D01*
X34342888Y9742458D01*
X34386225Y9744060D01*
X34432043Y9744559D01*
X34505556Y9742645D01*
X34571184Y9736122D01*
X34629390Y9723810D01*
X34680638Y9704536D01*
X34703797Y9691919D01*
X34725390Y9677121D01*
X34745475Y9659993D01*
X34764110Y9640389D01*
X34781353Y9618161D01*
X34797261Y9593163D01*
X34825308Y9534268D01*
X34848712Y9462526D01*
X34867938Y9376761D01*
X34883449Y9275797D01*
X34895708Y9158457D01*
X34905179Y9023563D01*
X34912325Y8869941D01*
X34921495Y8501805D01*
X34927435Y8176608D01*
X34931126Y8044966D01*
X34935983Y7932000D01*
X34939009Y7882061D01*
X34942520Y7836240D01*
X34946578Y7794353D01*
X34951249Y7756216D01*
X34956597Y7721644D01*
X34962685Y7690456D01*
X34969579Y7662465D01*
X34977342Y7637490D01*
X34986039Y7615345D01*
X34995733Y7595848D01*
X35006489Y7578814D01*
X35018372Y7564059D01*
X35031445Y7551399D01*
X35045772Y7540652D01*
X35061418Y7531632D01*
X35078448Y7524157D01*
X35096924Y7518042D01*
X35116912Y7513103D01*
X35138476Y7509157D01*
X35161679Y7506020D01*
X35213263Y7501437D01*
X35272176Y7497884D01*
X35382643Y7494557D01*
X35427337Y7498899D01*
X35465657Y7510095D01*
X35498095Y7530280D01*
X35512261Y7544412D01*
X35525140Y7561594D01*
X35547282Y7606172D01*
X35565012Y7666153D01*
X35578821Y7743674D01*
X35589198Y7840873D01*
X35596633Y7959885D01*
X35601617Y8102850D01*
X35606193Y8469184D01*
X35606846Y8956973D01*
X35606841Y8960102D01*
X36159771Y8960102D01*
X36160425Y8483631D01*
X36161977Y8290785D01*
X36165001Y8125343D01*
X36167217Y8052229D01*
X36169985Y7985163D01*
X36173365Y7923876D01*
X36177420Y7868102D01*
X36182210Y7817573D01*
X36187797Y7772020D01*
X36194241Y7731177D01*
X36201605Y7694775D01*
X36209949Y7662546D01*
X36219335Y7634223D01*
X36229825Y7609539D01*
X36241478Y7588224D01*
X36247760Y7578747D01*
X36254357Y7570012D01*
X36261275Y7561986D01*
X36268523Y7554636D01*
X36276107Y7547927D01*
X36284037Y7541826D01*
X36300960Y7531315D01*
X36319354Y7522837D01*
X36339281Y7516122D01*
X36360800Y7510903D01*
X36383974Y7506913D01*
X36408864Y7503884D01*
X36435531Y7501547D01*
X36494441Y7497882D01*
X36604908Y7494562D01*
X36649602Y7498918D01*
X36687922Y7510142D01*
X36720359Y7530374D01*
X36734525Y7544538D01*
X36747404Y7561757D01*
X36769547Y7606433D01*
X36787277Y7666543D01*
X36801085Y7744230D01*
X36811462Y7841635D01*
X36818897Y7960901D01*
X36823881Y8104169D01*
X36828457Y8471279D01*
X36829111Y8960102D01*
X36829057Y8999968D01*
X37279334Y8999968D01*
X37280956Y8900570D01*
X37287478Y8803344D01*
X37298746Y8708421D01*
X37314608Y8615930D01*
X37334909Y8526000D01*
X37359499Y8438760D01*
X37388223Y8354341D01*
X37420928Y8272872D01*
X37457463Y8194482D01*
X37497673Y8119302D01*
X37541407Y8047460D01*
X37588511Y7979086D01*
X37638832Y7914310D01*
X37692218Y7853261D01*
X37748515Y7796068D01*
X37807571Y7742862D01*
X37869232Y7693773D01*
X37933347Y7648928D01*
X37999761Y7608459D01*
X38068323Y7572494D01*
X38138879Y7541163D01*
X38211276Y7514596D01*
X38285361Y7492922D01*
X38360983Y7476270D01*
X38437987Y7464771D01*
X38516220Y7458554D01*
X38595531Y7457749D01*
X38675766Y7462484D01*
X38756772Y7472890D01*
X38838396Y7489096D01*
X38920485Y7511232D01*
X39002887Y7539427D01*
X39036431Y7551907D01*
X39069096Y7563606D01*
X39100713Y7574483D01*
X39131108Y7584494D01*
X39160111Y7593598D01*
X39187548Y7601752D01*
X39213249Y7608915D01*
X39237041Y7615043D01*
X39258753Y7620095D01*
X39278212Y7624028D01*
X39295248Y7626801D01*
X39309687Y7628371D01*
X39321358Y7628696D01*
X39326102Y7628378D01*
X39330089Y7627733D01*
X39333299Y7626756D01*
X39335709Y7625441D01*
X39337299Y7623783D01*
X39338046Y7621777D01*
X39341111Y7558303D01*
X39344874Y7416760D01*
X39352596Y6983273D01*
X39352600Y6983273D01*
X39356012Y6786448D01*
X39358680Y6706742D01*
X39362660Y6638308D01*
X39365299Y6608035D01*
X39368454Y6580243D01*
X39372189Y6554817D01*
X39376565Y6531646D01*
X39381646Y6510617D01*
X39387495Y6491617D01*
X39394174Y6474535D01*
X39401746Y6459256D01*
X39410274Y6445668D01*
X39419821Y6433660D01*
X39430449Y6423118D01*
X39442222Y6413930D01*
X39455203Y6405982D01*
X39469453Y6399163D01*
X39485036Y6393360D01*
X39502015Y6388461D01*
X39520452Y6384351D01*
X39540411Y6380920D01*
X39585143Y6375641D01*
X39636714Y6371723D01*
X39695627Y6368265D01*
X39806092Y6366043D01*
X39850785Y6373005D01*
X39889105Y6389302D01*
X39921542Y6417899D01*
X39948587Y6461761D01*
X39970729Y6523852D01*
X39988459Y6607137D01*
X40002267Y6714581D01*
X40012644Y6849148D01*
X40025063Y7211511D01*
X40029638Y7717944D01*
X40030292Y8392164D01*
X40029993Y8693750D01*
X40461394Y8693750D01*
X40462579Y8620606D01*
X40468162Y8547695D01*
X40478130Y8475238D01*
X40492474Y8403453D01*
X40511185Y8332561D01*
X40534251Y8262780D01*
X40561663Y8194331D01*
X40593410Y8127432D01*
X40629482Y8062304D01*
X40669869Y7999165D01*
X40714562Y7938235D01*
X40763549Y7879734D01*
X40816820Y7823882D01*
X40874366Y7770897D01*
X40936176Y7720999D01*
X41002240Y7674408D01*
X41072548Y7631344D01*
X41072548Y7631342D01*
X41156333Y7586285D01*
X41196336Y7567706D01*
X41236863Y7551539D01*
X41279252Y7537619D01*
X41324842Y7525779D01*
X41374970Y7515854D01*
X41430976Y7507677D01*
X41494196Y7501083D01*
X41565969Y7495907D01*
X41740528Y7489142D01*
X41965358Y7486056D01*
X42251163Y7485322D01*
X42555527Y7486049D01*
X42678668Y7487775D01*
X42784250Y7491136D01*
X42830879Y7493600D01*
X42873624Y7496678D01*
X42912654Y7500437D01*
X42948139Y7504945D01*
X42980247Y7510271D01*
X43009147Y7516483D01*
X43035007Y7523649D01*
X43057998Y7531837D01*
X43061708Y7533534D01*
X43122664Y7649111D01*
X43172538Y7773866D01*
X43173035Y7791941D01*
X43173260Y7857444D01*
X43171488Y7980313D01*
X43167279Y8030101D01*
X43159082Y8072891D01*
X43153072Y8091841D01*
X43145568Y8109258D01*
X43136402Y8125212D01*
X43125408Y8139776D01*
X43112420Y8153021D01*
X43097272Y8165020D01*
X43079799Y8175843D01*
X43059832Y8185564D01*
X43037208Y8194253D01*
X43011759Y8201983D01*
X42951722Y8214851D01*
X42878392Y8224743D01*
X42790441Y8232234D01*
X42686540Y8237897D01*
X42565358Y8242309D01*
X42265838Y8249673D01*
X42085499Y8254590D01*
X41923966Y8261170D01*
X41780399Y8269785D01*
X41715090Y8274972D01*
X41653956Y8280807D01*
X41596892Y8287338D01*
X41543793Y8294610D01*
X41494555Y8302670D01*
X41449071Y8311565D01*
X41407236Y8321342D01*
X41368945Y8332046D01*
X41334094Y8343725D01*
X41302576Y8356424D01*
X41274286Y8370192D01*
X41249119Y8385073D01*
X41226971Y8401116D01*
X41207735Y8418365D01*
X41191307Y8436869D01*
X41177581Y8456673D01*
X41166451Y8477824D01*
X41157814Y8500369D01*
X41151563Y8524354D01*
X41147593Y8549825D01*
X41145800Y8576831D01*
X41146077Y8605416D01*
X41148319Y8635627D01*
X41152422Y8667512D01*
X41158280Y8701116D01*
X41165788Y8736487D01*
X41177078Y8782494D01*
X41189256Y8823361D01*
X41203212Y8859455D01*
X41219834Y8891145D01*
X41240010Y8918800D01*
X41251709Y8931229D01*
X41264629Y8942788D01*
X41278882Y8953523D01*
X41294580Y8963479D01*
X41330751Y8981240D01*
X41374030Y8996441D01*
X41425306Y9009449D01*
X41485468Y9020635D01*
X41555404Y9030365D01*
X41636003Y9039010D01*
X41728153Y9046937D01*
X41950660Y9062113D01*
X42120043Y9076124D01*
X42277183Y9096555D01*
X42351240Y9109240D01*
X42422330Y9123605D01*
X42490485Y9139676D01*
X42555736Y9157476D01*
X42618114Y9177032D01*
X42677651Y9198369D01*
X42734377Y9221512D01*
X42788326Y9246485D01*
X42839527Y9273314D01*
X42888012Y9302025D01*
X42933812Y9332641D01*
X42976960Y9365189D01*
X43017485Y9399694D01*
X43055420Y9436180D01*
X43090796Y9474673D01*
X43123645Y9515198D01*
X43153997Y9557779D01*
X43181884Y9602443D01*
X43207337Y9649214D01*
X43230388Y9698118D01*
X43251068Y9749179D01*
X43269408Y9802423D01*
X43285440Y9857874D01*
X43299196Y9915559D01*
X43310706Y9975501D01*
X43320001Y10037727D01*
X43327114Y10102261D01*
X43332076Y10169129D01*
X43335380Y10333835D01*
X43325421Y10485802D01*
X43315340Y10557099D01*
X43301790Y10625321D01*
X43284722Y10690504D01*
X43264084Y10752684D01*
X43239826Y10811898D01*
X43211897Y10868182D01*
X43180246Y10921573D01*
X43144823Y10972107D01*
X43105576Y11019821D01*
X43062456Y11064751D01*
X43015411Y11106933D01*
X42964392Y11146404D01*
X42909346Y11183201D01*
X42850224Y11217359D01*
X42786974Y11248916D01*
X42719547Y11277908D01*
X42647891Y11304371D01*
X42571956Y11328341D01*
X42407046Y11368951D01*
X42224410Y11400029D01*
X42023643Y11421866D01*
X41804340Y11434755D01*
X41566095Y11438986D01*
X41251275Y11438264D01*
X41123903Y11436548D01*
X41014694Y11433207D01*
X40966464Y11430758D01*
X40922251Y11427700D01*
X40881880Y11423964D01*
X40845176Y11419483D01*
X40811965Y11414190D01*
X40782073Y11408016D01*
X40755323Y11400894D01*
X40731543Y11392757D01*
X40710557Y11383536D01*
X40692191Y11373164D01*
X40676269Y11361572D01*
X40662618Y11348695D01*
X40651063Y11334462D01*
X40641428Y11318808D01*
X40633540Y11301664D01*
X40627224Y11282963D01*
X40622305Y11262636D01*
X40618608Y11240616D01*
X40615960Y11216835D01*
X40614184Y11191226D01*
X40612554Y11134253D01*
X40612321Y11069153D01*
X40614071Y10947035D01*
X40618228Y10897541D01*
X40626322Y10854992D01*
X40632256Y10836142D01*
X40639666Y10818813D01*
X40648718Y10802933D01*
X40659574Y10788429D01*
X40672399Y10775231D01*
X40687356Y10763266D01*
X40704611Y10752462D01*
X40724327Y10742749D01*
X40746668Y10734053D01*
X40771798Y10726303D01*
X40831082Y10713354D01*
X40903492Y10703328D01*
X40990341Y10695650D01*
X41092940Y10689745D01*
X41212602Y10685039D01*
X41508367Y10676924D01*
X41680463Y10671919D01*
X41834901Y10665751D01*
X41972584Y10658109D01*
X42035426Y10653637D01*
X42094419Y10648680D01*
X42149675Y10643197D01*
X42201308Y10637150D01*
X42249431Y10630500D01*
X42294157Y10623208D01*
X42335600Y10615234D01*
X42373871Y10606539D01*
X42409084Y10597085D01*
X42441353Y10586831D01*
X42470790Y10575740D01*
X42497509Y10563772D01*
X42521621Y10550888D01*
X42543242Y10537048D01*
X42562483Y10522214D01*
X42579458Y10506347D01*
X42594279Y10489407D01*
X42607060Y10471355D01*
X42617915Y10452153D01*
X42626955Y10431760D01*
X42634294Y10410139D01*
X42640045Y10387249D01*
X42644321Y10363052D01*
X42647236Y10337509D01*
X42648902Y10310580D01*
X42649432Y10282227D01*
X42647860Y10223247D01*
X42642728Y10170154D01*
X42633405Y10122620D01*
X42626977Y10100834D01*
X42619266Y10080315D01*
X42610193Y10061020D01*
X42599681Y10042910D01*
X42587650Y10025942D01*
X42574022Y10010076D01*
X42558719Y9995270D01*
X42541662Y9981484D01*
X42522772Y9968675D01*
X42501972Y9956804D01*
X42479182Y9945829D01*
X42454324Y9935708D01*
X42398090Y9917866D01*
X42332643Y9902950D01*
X42257354Y9890629D01*
X42171594Y9880575D01*
X42074737Y9872458D01*
X41966154Y9865950D01*
X41845216Y9860721D01*
X41653528Y9852675D01*
X41572356Y9848222D01*
X41499786Y9843222D01*
X41434935Y9837481D01*
X41376917Y9830803D01*
X41324849Y9822995D01*
X41277847Y9813861D01*
X41255970Y9808736D01*
X41235027Y9803207D01*
X41214908Y9797248D01*
X41195504Y9790837D01*
X41176702Y9783948D01*
X41158394Y9776557D01*
X41140468Y9768640D01*
X41122813Y9760172D01*
X41087877Y9741487D01*
X41052702Y9720308D01*
X41016404Y9696440D01*
X40978098Y9669688D01*
X40912117Y9619379D01*
X40850684Y9566012D01*
X40793791Y9509805D01*
X40741426Y9450978D01*
X40693579Y9389751D01*
X40650241Y9326343D01*
X40611401Y9260974D01*
X40577049Y9193863D01*
X40547175Y9125229D01*
X40521768Y9055293D01*
X40500819Y8984273D01*
X40484317Y8912389D01*
X40472252Y8839861D01*
X40464615Y8766908D01*
X40461394Y8693750D01*
X40029993Y8693750D01*
X40029586Y9104050D01*
X40028162Y9391942D01*
X40025544Y9637917D01*
X40021369Y9844565D01*
X40018586Y9933950D01*
X40015279Y10014473D01*
X40011402Y10086458D01*
X40006910Y10150229D01*
X40001760Y10206110D01*
X39995904Y10254423D01*
X39989299Y10295493D01*
X39981899Y10329642D01*
X39977887Y10344223D01*
X39973659Y10357195D01*
X39969210Y10368599D01*
X39964534Y10378475D01*
X39959625Y10386863D01*
X39954478Y10393805D01*
X39949088Y10399340D01*
X39943448Y10403509D01*
X39937553Y10406352D01*
X39931397Y10407911D01*
X39924975Y10408224D01*
X39918281Y10407334D01*
X39911309Y10405279D01*
X39904054Y10402101D01*
X39896510Y10397840D01*
X39888671Y10392537D01*
X39872088Y10378965D01*
X39854258Y10361707D01*
X39835138Y10341089D01*
X39814682Y10317433D01*
X39769580Y10262302D01*
X39745263Y10232150D01*
X39723693Y10205921D01*
X39704435Y10183531D01*
X39687056Y10164893D01*
X39678935Y10156955D01*
X39671120Y10149924D01*
X39663558Y10143788D01*
X39656193Y10138536D01*
X39648972Y10134160D01*
X39641840Y10130647D01*
X39634743Y10127987D01*
X39627627Y10126169D01*
X39620437Y10125183D01*
X39613119Y10125019D01*
X39605619Y10125664D01*
X39597882Y10127110D01*
X39589854Y10129345D01*
X39581481Y10132358D01*
X39572708Y10136139D01*
X39563481Y10140678D01*
X39553746Y10145963D01*
X39543448Y10151984D01*
X39520948Y10166191D01*
X39495545Y10183214D01*
X39466805Y10202969D01*
X39369254Y10266219D01*
X39271338Y10321728D01*
X39173282Y10369617D01*
X39075312Y10410012D01*
X38977651Y10443035D01*
X38880526Y10468810D01*
X38784159Y10487461D01*
X38688777Y10499112D01*
X38594604Y10503885D01*
X38501865Y10501905D01*
X38410784Y10493296D01*
X38321587Y10478180D01*
X38234498Y10456682D01*
X38149742Y10428925D01*
X38067544Y10395033D01*
X37988129Y10355129D01*
X37911720Y10309338D01*
X37838544Y10257782D01*
X37768825Y10200585D01*
X37702787Y10137871D01*
X37640656Y10069763D01*
X37582657Y9996386D01*
X37529013Y9917863D01*
X37479950Y9834316D01*
X37435693Y9745871D01*
X37396466Y9652651D01*
X37362495Y9554779D01*
X37334003Y9452378D01*
X37311217Y9345573D01*
X37294360Y9234487D01*
X37283657Y9119244D01*
X37279334Y8999968D01*
X36829057Y8999968D01*
X36828457Y9448925D01*
X36826905Y9646624D01*
X36823881Y9816036D01*
X36821665Y9890804D01*
X36818897Y9959304D01*
X36815517Y10021803D01*
X36811462Y10078569D01*
X36806672Y10129871D01*
X36801086Y10175975D01*
X36794641Y10217149D01*
X36787277Y10253662D01*
X36778933Y10285780D01*
X36769547Y10313772D01*
X36759058Y10337905D01*
X36753381Y10348609D01*
X36747405Y10358448D01*
X36741123Y10367456D01*
X36734526Y10375667D01*
X36727608Y10383114D01*
X36720361Y10389831D01*
X36712776Y10395850D01*
X36704847Y10401207D01*
X36696565Y10405933D01*
X36687924Y10410063D01*
X36669530Y10416667D01*
X36649604Y10421286D01*
X36628085Y10424189D01*
X36604911Y10425643D01*
X36580021Y10425915D01*
X36553355Y10425274D01*
X36494445Y10422323D01*
X36383978Y10413291D01*
X36339284Y10404082D01*
X36300964Y10388889D01*
X36268527Y10365569D01*
X36241482Y10331980D01*
X36219339Y10285981D01*
X36201609Y10225429D01*
X36187801Y10148184D01*
X36177424Y10052102D01*
X36169988Y9935042D01*
X36165004Y9794862D01*
X36160429Y9436574D01*
X36159775Y8960102D01*
X36159771Y8960102D01*
X35606841Y8960102D01*
X35606424Y9229984D01*
X35605014Y9472327D01*
X35602400Y9685189D01*
X35598365Y9869756D01*
X35592695Y10027214D01*
X35589178Y10096149D01*
X35585171Y10158751D01*
X35580648Y10215169D01*
X35575580Y10265551D01*
X35569941Y10310046D01*
X35563704Y10348802D01*
X35556842Y10381967D01*
X35549327Y10409689D01*
X35541134Y10432117D01*
X35536774Y10441392D01*
X35532234Y10449399D01*
X35527511Y10456157D01*
X35522601Y10461684D01*
X35517501Y10465998D01*
X35512208Y10469119D01*
X35506718Y10471064D01*
X35501028Y10471852D01*
X35495134Y10471502D01*
X35489034Y10470033D01*
X35482723Y10467462D01*
X35476198Y10463809D01*
X35462494Y10453329D01*
X35447895Y10438741D01*
X35432374Y10420193D01*
X35415903Y10397834D01*
X35398457Y10371811D01*
X35380007Y10342274D01*
X35360526Y10309370D01*
X35352439Y10296106D01*
X35343988Y10283593D01*
X35335197Y10271833D01*
X35326087Y10260829D01*
X35316680Y10250583D01*
X35306999Y10241098D01*
X35297064Y10232377D01*
X35286899Y10224422D01*
X35276525Y10217236D01*
X35265964Y10210821D01*
X35255238Y10205181D01*
X35244370Y10200317D01*
X35233380Y10196232D01*
X35222291Y10192930D01*
X35211126Y10190412D01*
X35199905Y10188681D01*
X35188651Y10187739D01*
X35177387Y10187591D01*
X35166133Y10188237D01*
X35154912Y10189681D01*
X35143747Y10191925D01*
X35132658Y10194972D01*
X35121668Y10198824D01*
X35110799Y10203484D01*
X35100073Y10208955D01*
X35089511Y10215239D01*
X35079137Y10222340D01*
X35068971Y10230258D01*
X35059036Y10238998D01*
X35049354Y10248562D01*
X35039946Y10258952D01*
X35030836Y10270170D01*
X35009028Y10295931D01*
X34984702Y10319935D01*
X34957986Y10342184D01*
X34929009Y10362682D01*
X34897899Y10381432D01*
X34864786Y10398438D01*
X34829797Y10413702D01*
X34793061Y10427227D01*
X34714865Y10449075D01*
X34631226Y10464006D01*
X34543175Y10472046D01*
X34451741Y10473219D01*
X34357953Y10467550D01*
X34262841Y10455064D01*
X34167433Y10435787D01*
X34072761Y10409744D01*
X33979852Y10376958D01*
X33889737Y10337456D01*
X33803444Y10291262D01*
X33722004Y10238402D01*
X33643164Y10179437D01*
X33572278Y10120117D01*
X33508915Y10059052D01*
X33452642Y9994851D01*
X33403025Y9926125D01*
X33359633Y9851482D01*
X33322033Y9769531D01*
X33289792Y9678884D01*
X33262477Y9578148D01*
X33239655Y9465934D01*
X33220894Y9340852D01*
X33205762Y9201510D01*
X33193824Y9046518D01*
X33184650Y8874486D01*
X33172858Y8473740D01*
X33167423Y8147486D01*
X33166583Y8015488D01*
X32692367Y8015488D01*
X32691439Y8118766D01*
X32688125Y8254089D01*
X32678438Y8464266D01*
X32660849Y8658082D01*
X32648996Y8748976D01*
X32635052Y8835924D01*
X32618981Y8918976D01*
X32600743Y8998179D01*
X32580301Y9073582D01*
X32557617Y9145232D01*
X32532652Y9213180D01*
X32505369Y9277471D01*
X32475730Y9338156D01*
X32443696Y9395282D01*
X32409229Y9448897D01*
X32372291Y9499051D01*
X32332845Y9545790D01*
X32290851Y9589164D01*
X32246273Y9629221D01*
X32199071Y9666009D01*
X32149209Y9699576D01*
X32096647Y9729971D01*
X32041348Y9757242D01*
X31983273Y9781437D01*
X31922385Y9802605D01*
X31858645Y9820793D01*
X31792016Y9836051D01*
X31722459Y9848427D01*
X31649936Y9857968D01*
X31574409Y9864723D01*
X31495840Y9868741D01*
X31414192Y9870070D01*
X31332996Y9870907D01*
X31260181Y9873631D01*
X31195360Y9878560D01*
X31165826Y9881950D01*
X31138144Y9886011D01*
X31112266Y9890782D01*
X31088143Y9896302D01*
X31065727Y9902612D01*
X31044969Y9909751D01*
X31025821Y9917759D01*
X31008234Y9926676D01*
X30992159Y9936542D01*
X30977548Y9947395D01*
X30964351Y9959276D01*
X30952522Y9972225D01*
X30942010Y9986281D01*
X30932768Y10001485D01*
X30924747Y10017875D01*
X30917898Y10035491D01*
X30912172Y10054374D01*
X30907521Y10074563D01*
X30903897Y10096097D01*
X30901251Y10119017D01*
X30899533Y10143362D01*
X30898697Y10169172D01*
X30899471Y10225346D01*
X30903184Y10287855D01*
X30909531Y10348008D01*
X30919362Y10401922D01*
X30933469Y10449925D01*
X30952648Y10492344D01*
X30964387Y10511563D01*
X30977692Y10529508D01*
X30992661Y10546220D01*
X31009395Y10561742D01*
X31027991Y10576113D01*
X31048550Y10589374D01*
X31071170Y10601567D01*
X31095952Y10612732D01*
X31152394Y10632142D01*
X31218670Y10647933D01*
X31295573Y10660430D01*
X31383899Y10669963D01*
X31484440Y10676856D01*
X31597990Y10681439D01*
X31867293Y10684981D01*
X32083423Y10686034D01*
X32170867Y10687932D01*
X32245841Y10691494D01*
X32278952Y10694074D01*
X32309305Y10697281D01*
X32337021Y10701184D01*
X32362218Y10705855D01*
X32385018Y10711362D01*
X32405540Y10717778D01*
X32423904Y10725170D01*
X32440230Y10733611D01*
X32454637Y10743170D01*
X32467246Y10753916D01*
X32478177Y10765922D01*
X32487548Y10779256D01*
X32495481Y10793989D01*
X32502096Y10810191D01*
X32507511Y10827933D01*
X32511847Y10847284D01*
X32515224Y10868315D01*
X32517762Y10891096D01*
X32520799Y10942189D01*
X32521918Y11001124D01*
X32522078Y11068464D01*
X32520496Y11194695D01*
X32518332Y11224065D01*
X36060481Y11224065D01*
X36062247Y11194634D01*
X36065837Y11165313D01*
X36071266Y11136192D01*
X36078548Y11107358D01*
X36087696Y11078901D01*
X36098724Y11050908D01*
X36111647Y11023470D01*
X36126477Y10996673D01*
X36143228Y10970608D01*
X36161914Y10945362D01*
X36182549Y10921024D01*
X36205147Y10897682D01*
X36229721Y10875426D01*
X36229721Y10875425D01*
X36248442Y10860069D01*
X36267159Y10845761D01*
X36285866Y10832501D01*
X36304558Y10820289D01*
X36323230Y10809123D01*
X36341879Y10799005D01*
X36360498Y10789934D01*
X36379084Y10781909D01*
X36397631Y10774931D01*
X36416135Y10768998D01*
X36434591Y10764112D01*
X36452995Y10760271D01*
X36471341Y10757476D01*
X36489624Y10755726D01*
X36507841Y10755021D01*
X36525985Y10755361D01*
X36544054Y10756745D01*
X36562040Y10759173D01*
X36579941Y10762646D01*
X36597751Y10767163D01*
X36615465Y10772723D01*
X36633079Y10779327D01*
X36650588Y10786973D01*
X36667987Y10795663D01*
X36685271Y10805395D01*
X36702436Y10816170D01*
X36719477Y10827988D01*
X36736389Y10840847D01*
X36753167Y10854748D01*
X36769806Y10869691D01*
X36786302Y10885675D01*
X36802651Y10902700D01*
X36832390Y10937616D01*
X36858206Y10973794D01*
X36880208Y11011040D01*
X36898507Y11049161D01*
X36913214Y11087963D01*
X36924437Y11127252D01*
X36932289Y11166837D01*
X36936879Y11206522D01*
X36938318Y11246115D01*
X36936716Y11285422D01*
X36932183Y11324250D01*
X36924830Y11362405D01*
X36914767Y11399694D01*
X36902104Y11435924D01*
X36886952Y11470901D01*
X36869421Y11504432D01*
X36849622Y11536323D01*
X36827665Y11566382D01*
X36803660Y11594413D01*
X36777717Y11620225D01*
X36749947Y11643624D01*
X36720461Y11664416D01*
X36689368Y11682409D01*
X36656779Y11697407D01*
X36622805Y11709219D01*
X36587555Y11717651D01*
X36551141Y11722509D01*
X36513671Y11723600D01*
X36475258Y11720731D01*
X36436011Y11713707D01*
X36396040Y11702337D01*
X36355456Y11686425D01*
X36325153Y11671728D01*
X36296414Y11655458D01*
X36269253Y11637704D01*
X36243684Y11618554D01*
X36219720Y11598096D01*
X36197375Y11576420D01*
X36176663Y11553615D01*
X36157598Y11529768D01*
X36140193Y11504968D01*
X36124462Y11479304D01*
X36110418Y11452865D01*
X36098077Y11425738D01*
X36087450Y11398014D01*
X36078553Y11369780D01*
X36071398Y11341125D01*
X36066000Y11312137D01*
X36062372Y11282905D01*
X36060528Y11253519D01*
X36060481Y11224065D01*
X32518332Y11224065D01*
X32516739Y11245683D01*
X32509422Y11289291D01*
X32504059Y11308492D01*
X32497360Y11326046D01*
X32489178Y11342020D01*
X32479365Y11356478D01*
X32467773Y11369489D01*
X32454252Y11381116D01*
X32438655Y11391427D01*
X32420834Y11400488D01*
X32400639Y11408364D01*
X32377923Y11415122D01*
X32324335Y11425547D01*
X32258882Y11432292D01*
X32180378Y11435885D01*
X32087636Y11436856D01*
X31979471Y11435731D01*
X31712122Y11429313D01*
X31545629Y11423438D01*
X31393685Y11414868D01*
X31255376Y11403186D01*
X31191049Y11396048D01*
X31129787Y11387977D01*
X31071476Y11378919D01*
X31016002Y11368823D01*
X30963251Y11357638D01*
X30913108Y11345310D01*
X30865459Y11331788D01*
X30820189Y11317021D01*
X30777185Y11300956D01*
X30736332Y11283540D01*
X30697515Y11264723D01*
X30660620Y11244452D01*
X30625534Y11222675D01*
X30592140Y11199340D01*
X30560326Y11174395D01*
X30529977Y11147788D01*
X30500978Y11119467D01*
X30473216Y11089380D01*
X30446575Y11057475D01*
X30420942Y11023700D01*
X30396202Y10988003D01*
X30372240Y10950333D01*
X30348944Y10910636D01*
X30326197Y10868861D01*
X30303886Y10824957D01*
X30281897Y10778870D01*
X30248316Y10700834D01*
X30219962Y10623154D01*
X30196753Y10545954D01*
X30178608Y10469358D01*
X30165447Y10393489D01*
X30157190Y10318471D01*
X30153755Y10244426D01*
X29610386Y10244426D01*
X29609514Y10381313D01*
X29606228Y10608181D01*
X29603819Y10708324D01*
X29600810Y10800085D01*
X29597136Y10883825D01*
X29592729Y10959903D01*
X29587522Y11028679D01*
X29581450Y11090511D01*
X29574445Y11145761D01*
X29566440Y11194787D01*
X29557371Y11237950D01*
X29547168Y11275608D01*
X29535767Y11308122D01*
X29529596Y11322562D01*
X29523101Y11335851D01*
X29516272Y11348034D01*
X29509102Y11359155D01*
X29501582Y11369260D01*
X29493704Y11378393D01*
X29485460Y11386600D01*
X29476841Y11393925D01*
X29467839Y11400414D01*
X29458446Y11406112D01*
X29448654Y11411062D01*
X29438453Y11415311D01*
X29416794Y11421883D01*
X29393403Y11426188D01*
X29368214Y11428586D01*
X29341160Y11429435D01*
X29312175Y11429096D01*
X29248142Y11426291D01*
X29128081Y11418325D01*
X29079503Y11411557D01*
X29037848Y11401096D01*
X29019450Y11394050D01*
X29002583Y11385565D01*
X28987179Y11375469D01*
X28973172Y11363589D01*
X28960495Y11349752D01*
X28949082Y11333788D01*
X28938866Y11315525D01*
X28929779Y11294788D01*
X28914730Y11245211D01*
X28903399Y11183681D01*
X28895254Y11108819D01*
X28889760Y11019250D01*
X28886383Y10913597D01*
X28884590Y10790483D01*
X28883617Y10486364D01*
X28882799Y10300587D01*
X28880748Y10125885D01*
X28877600Y9966180D01*
X28873494Y9825396D01*
X28868565Y9707455D01*
X28862952Y9616281D01*
X28859931Y9581957D01*
X28856790Y9555796D01*
X28853546Y9538288D01*
X28850217Y9529924D01*
X28848034Y9528878D01*
X28844867Y9529347D01*
X28835695Y9534690D01*
X28822917Y9545673D01*
X28806751Y9562016D01*
X28765118Y9609669D01*
X28712532Y9675413D01*
X28650726Y9757015D01*
X28581436Y9852242D01*
X28506395Y9958858D01*
X28427339Y10074630D01*
X28111694Y10543792D01*
X27984589Y10731347D01*
X27875016Y10890629D01*
X27780768Y11023944D01*
X27738700Y11081586D01*
X27699635Y11133601D01*
X27663297Y11180279D01*
X27629409Y11221908D01*
X27597696Y11258776D01*
X27567881Y11291172D01*
X27539689Y11319384D01*
X27512842Y11343701D01*
X27487066Y11364412D01*
X27462083Y11381804D01*
X27437619Y11396166D01*
X27413396Y11407787D01*
X27389139Y11416955D01*
X27364571Y11423959D01*
X27339417Y11429087D01*
X27313401Y11432627D01*
X27286245Y11434869D01*
X27257675Y11436100D01*
X27123724Y11436689D01*
X26974814Y11437981D01*
X26916669Y11436611D01*
X26869765Y11431962D01*
X26850613Y11427954D01*
X26834375Y11422582D01*
X26821085Y11415663D01*
X26810777Y11407017D01*
X26803485Y11396462D01*
X26799243Y11383816D01*
X26798087Y11368898D01*
X26644732Y11368898D01*
X26654678Y12372245D01*
X28847206Y12372245D01*
X28850267Y12311098D01*
X28858018Y12242668D01*
X28870187Y12166525D01*
X28886500Y12082238D01*
X28886500Y12082243D01*
X28891546Y12060023D01*
X28897192Y12040247D01*
X28903761Y12022781D01*
X28911576Y12007493D01*
X28916052Y12000624D01*
X28920961Y11994251D01*
X28926342Y11988356D01*
X28932237Y11982923D01*
X28938686Y11977936D01*
X28945729Y11973378D01*
X28953407Y11969232D01*
X28961759Y11965482D01*
X28980651Y11959105D01*
X29002726Y11954113D01*
X29028310Y11950375D01*
X29057723Y11947758D01*
X29091291Y11946131D01*
X29129334Y11945361D01*
X29220144Y11945865D01*
X29389384Y11954618D01*
X29469763Y11963492D01*
X29547322Y11975375D01*
X29622070Y11990275D01*
X29694012Y12008200D01*
X29763154Y12029156D01*
X29829505Y12053153D01*
X29893069Y12080197D01*
X29953854Y12110297D01*
X30011866Y12143459D01*
X30067113Y12179693D01*
X30119600Y12219005D01*
X30169334Y12261403D01*
X30216322Y12306896D01*
X30260571Y12355490D01*
X30302087Y12407194D01*
X30340876Y12462015D01*
X30376945Y12519960D01*
X30410302Y12581039D01*
X30440952Y12645258D01*
X30468902Y12712625D01*
X30494158Y12783148D01*
X30516728Y12856835D01*
X30536618Y12933693D01*
X30553835Y13013731D01*
X30580274Y13183373D01*
X30596099Y13365825D01*
X30601362Y13561147D01*
X30601703Y13751395D01*
X30602513Y13828367D01*
X30604090Y13894362D01*
X30605247Y13923508D01*
X30606691Y13950227D01*
X30608454Y13974623D01*
X30610570Y13996804D01*
X30613069Y14016873D01*
X30615984Y14034938D01*
X30619346Y14051102D01*
X30623188Y14065473D01*
X30627542Y14078155D01*
X30632439Y14089254D01*
X30637911Y14098875D01*
X30643991Y14107125D01*
X30650711Y14114108D01*
X30658102Y14119930D01*
X30666196Y14124697D01*
X30675025Y14128514D01*
X30684622Y14131486D01*
X30695019Y14133720D01*
X30706246Y14135321D01*
X30718337Y14136394D01*
X30731323Y14137044D01*
X30745236Y14137379D01*
X30775972Y14137519D01*
X30833607Y14138255D01*
X30856925Y14140001D01*
X30876918Y14143403D01*
X30885748Y14145896D01*
X30893842Y14149010D01*
X30901233Y14152814D01*
X30907952Y14157376D01*
X30914032Y14162765D01*
X30919505Y14169051D01*
X30924402Y14176302D01*
X30928755Y14184587D01*
X30932597Y14193975D01*
X30935960Y14204535D01*
X30941374Y14229448D01*
X30945253Y14259876D01*
X30947853Y14296372D01*
X30949430Y14339486D01*
X30950240Y14389771D01*
X30950280Y14404311D01*
X31186827Y14404311D01*
X31186961Y14378128D01*
X31188204Y14353909D01*
X31190617Y14331572D01*
X31194261Y14311033D01*
X31199197Y14292210D01*
X31205487Y14275021D01*
X31213192Y14259381D01*
X31222372Y14245208D01*
X31233090Y14232420D01*
X31245406Y14220932D01*
X31259382Y14210664D01*
X31275078Y14201530D01*
X31292556Y14193450D01*
X31311877Y14186339D01*
X31333102Y14180115D01*
X31356293Y14174694D01*
X31381510Y14169995D01*
X31408815Y14165934D01*
X31469934Y14159394D01*
X31540138Y14154412D01*
X31619916Y14150323D01*
X31739763Y14144296D01*
X31845006Y14136707D01*
X31936631Y14125861D01*
X32015625Y14110064D01*
X32050692Y14099779D01*
X32082971Y14087621D01*
X32112585Y14073378D01*
X32139657Y14056838D01*
X32164310Y14037789D01*
X32186668Y14016019D01*
X32206853Y13991317D01*
X32224988Y13963471D01*
X32241198Y13932269D01*
X32255605Y13897499D01*
X32268333Y13858950D01*
X32279504Y13816409D01*
X32297669Y13718505D01*
X32311088Y13602094D01*
X32320745Y13465481D01*
X32327626Y13306971D01*
X32337004Y12917483D01*
X32343757Y12595180D01*
X32347668Y12464780D01*
X32352571Y12352975D01*
X32355542Y12303599D01*
X32358940Y12258334D01*
X32362823Y12217003D01*
X32367252Y12179427D01*
X32372286Y12145427D01*
X32377984Y12114823D01*
X32384405Y12087438D01*
X32391610Y12063093D01*
X32399658Y12041608D01*
X32408608Y12022805D01*
X32418520Y12006505D01*
X32429453Y11992529D01*
X32441467Y11980699D01*
X32454621Y11970836D01*
X32468975Y11962760D01*
X32484589Y11956294D01*
X32501521Y11951258D01*
X32519831Y11947473D01*
X32539580Y11944762D01*
X32560825Y11942944D01*
X32608047Y11941275D01*
X32661971Y11941037D01*
X32795961Y11939900D01*
X32849363Y11942470D01*
X32894601Y11950680D01*
X32932350Y11967191D01*
X32948626Y11979391D01*
X32963283Y11994664D01*
X32988072Y12035759D01*
X33007393Y12093137D01*
X33021918Y12169460D01*
X33032320Y12267387D01*
X33039275Y12389579D01*
X33043454Y12538698D01*
X33046183Y12928358D01*
X33045957Y13343620D01*
X33455653Y13343620D01*
X33457144Y13085736D01*
X33459362Y12858372D01*
X33462630Y12660177D01*
X33467273Y12489799D01*
X33470211Y12414620D01*
X33473613Y12345888D01*
X33477521Y12283436D01*
X33481975Y12227094D01*
X33487014Y12176693D01*
X33492681Y12132064D01*
X33499014Y12093039D01*
X33506056Y12059449D01*
X33513845Y12031125D01*
X33522422Y12007897D01*
X33527019Y11998142D01*
X33531829Y11989598D01*
X33536855Y11982244D01*
X33542104Y11976058D01*
X33547581Y11971020D01*
X33553290Y11967109D01*
X33559236Y11964303D01*
X33565426Y11962581D01*
X33571863Y11961923D01*
X33578552Y11962306D01*
X33585499Y11963711D01*
X33592710Y11966115D01*
X33600188Y11969499D01*
X33607939Y11973839D01*
X33624280Y11985310D01*
X33641773Y12000357D01*
X33660460Y12018813D01*
X33680380Y12040509D01*
X33701573Y12065276D01*
X33747944Y12123346D01*
X33800566Y12190137D01*
X33823075Y12216419D01*
X33843973Y12237979D01*
X33854036Y12246994D01*
X33863956Y12254835D01*
X33873822Y12261503D01*
X33883719Y12267001D01*
X33893734Y12271330D01*
X33903954Y12274493D01*
X33914467Y12276492D01*
X33925358Y12277329D01*
X33936714Y12277005D01*
X33948623Y12275523D01*
X33961171Y12272885D01*
X33974445Y12269092D01*
X33988531Y12264147D01*
X34003517Y12258052D01*
X34036535Y12242418D01*
X34074192Y12222208D01*
X34117182Y12197436D01*
X34221942Y12134272D01*
X34221946Y12134264D01*
X34311570Y12083199D01*
X34401212Y12038928D01*
X34490699Y12001345D01*
X34579854Y11970345D01*
X34668504Y11945823D01*
X34756473Y11927673D01*
X34843587Y11915789D01*
X34929671Y11910067D01*
X35014550Y11910400D01*
X35098050Y11916684D01*
X35179996Y11928813D01*
X35260212Y11946681D01*
X35338526Y11970184D01*
X35414760Y11999216D01*
X35488742Y12033671D01*
X35560296Y12073444D01*
X35629248Y12118429D01*
X35695422Y12168522D01*
X35758644Y12223617D01*
X35818739Y12283608D01*
X35875533Y12348390D01*
X35928851Y12417858D01*
X35978517Y12491906D01*
X36013662Y12552106D01*
X36657709Y12552106D01*
X36658574Y12420456D01*
X36659850Y12362365D01*
X36661766Y12309153D01*
X36664380Y12260615D01*
X36667752Y12216541D01*
X36671940Y12176725D01*
X36677002Y12140959D01*
X36682998Y12109037D01*
X36689985Y12080750D01*
X36698023Y12055891D01*
X36707170Y12034254D01*
X36717484Y12015631D01*
X36729025Y11999814D01*
X36741850Y11986596D01*
X36756020Y11975769D01*
X36771591Y11967128D01*
X36788623Y11960463D01*
X36807174Y11955568D01*
X36827304Y11952236D01*
X36849070Y11950259D01*
X36872531Y11949429D01*
X36897746Y11949540D01*
X36924773Y11950385D01*
X36984499Y11953443D01*
X37096562Y11961763D01*
X37142014Y11969184D01*
X37181131Y11980873D01*
X37198483Y11988810D01*
X37214453Y11998403D01*
X37229111Y12009849D01*
X37242522Y12023344D01*
X37254754Y12039084D01*
X37265875Y12057267D01*
X37285053Y12101744D01*
X37300595Y12158345D01*
X37313042Y12228642D01*
X37322932Y12314206D01*
X37330806Y12416608D01*
X37342664Y12678211D01*
X37352931Y13026020D01*
X37358652Y13226403D01*
X37364364Y13402547D01*
X37370541Y13556016D01*
X37377660Y13688374D01*
X37381721Y13747125D01*
X37386196Y13801184D01*
X37391144Y13850748D01*
X37396624Y13896012D01*
X37402696Y13937171D01*
X37409420Y13974421D01*
X37416854Y14007957D01*
X37425059Y14037975D01*
X37434093Y14064670D01*
X37444016Y14088238D01*
X37454888Y14108874D01*
X37466768Y14126774D01*
X37479715Y14142133D01*
X37493789Y14155147D01*
X37509049Y14166011D01*
X37525555Y14174921D01*
X37543366Y14182072D01*
X37562541Y14187661D01*
X37583140Y14191881D01*
X37605223Y14194929D01*
X37628849Y14197001D01*
X37654076Y14198292D01*
X37709576Y14199311D01*
X37758421Y14197945D01*
X37801985Y14192378D01*
X37840614Y14181376D01*
X37874656Y14163707D01*
X37904455Y14138138D01*
X37930360Y14103436D01*
X37952715Y14058367D01*
X37971868Y14001699D01*
X37988165Y13932199D01*
X38001952Y13848634D01*
X38013576Y13749771D01*
X38023383Y13634377D01*
X38038932Y13349064D01*
X38051371Y12982832D01*
X38061559Y12649279D01*
X38066827Y12514257D01*
X38072852Y12398393D01*
X38076297Y12347175D01*
X38080111Y12300182D01*
X38084354Y12257224D01*
X38089084Y12218114D01*
X38094364Y12182663D01*
X38100251Y12150683D01*
X38106807Y12121986D01*
X38114090Y12096382D01*
X38122162Y12073684D01*
X38131081Y12053702D01*
X38140909Y12036250D01*
X38151703Y12021137D01*
X38163526Y12008176D01*
X38176436Y11997179D01*
X38190493Y11987956D01*
X38205757Y11980320D01*
X38222289Y11974081D01*
X38240148Y11969053D01*
X38259393Y11965045D01*
X38280086Y11961870D01*
X38302285Y11959339D01*
X38326051Y11957264D01*
X38378523Y11953728D01*
X38501295Y11947961D01*
X38550879Y11949925D01*
X38593335Y11957439D01*
X38612064Y11963820D01*
X38629219Y11972241D01*
X38644870Y11982918D01*
X38659086Y11996070D01*
X38671937Y12011912D01*
X38683492Y12030663D01*
X38702991Y12077759D01*
X38718140Y12139097D01*
X38729494Y12216414D01*
X38737608Y12311450D01*
X38743037Y12425942D01*
X38748063Y12720248D01*
X38749015Y13113240D01*
X38749628Y13287253D01*
X38751380Y13441848D01*
X38754637Y13578157D01*
X38759764Y13697309D01*
X38763143Y13750805D01*
X38767125Y13800435D01*
X38771757Y13846340D01*
X38777085Y13888663D01*
X38783154Y13927545D01*
X38790009Y13963126D01*
X38797696Y13995548D01*
X38806261Y14024952D01*
X38815750Y14051480D01*
X38826207Y14075272D01*
X38837679Y14096470D01*
X38850211Y14115216D01*
X38863849Y14131650D01*
X38878638Y14145914D01*
X38894625Y14158149D01*
X38911853Y14168497D01*
X38930370Y14177098D01*
X38950221Y14184093D01*
X38971450Y14189625D01*
X38994105Y14193835D01*
X39018230Y14196863D01*
X39043872Y14198851D01*
X39071075Y14199940D01*
X39099885Y14200272D01*
X39154018Y14198216D01*
X39202349Y14191276D01*
X39245197Y14178290D01*
X39282881Y14158098D01*
X39315719Y14129539D01*
X39344030Y14091451D01*
X39368133Y14042675D01*
X39388345Y13982050D01*
X39404986Y13908415D01*
X39418375Y13820608D01*
X39428830Y13717470D01*
X39436669Y13597840D01*
X39442212Y13460556D01*
X39445776Y13304458D01*
X39448245Y12931177D01*
X39448245Y12931163D01*
X39448852Y12604339D01*
X39450292Y12472111D01*
X39453096Y12358738D01*
X39455151Y12308669D01*
X39457719Y12262770D01*
X39460854Y12220859D01*
X39464615Y12182756D01*
X39469058Y12148279D01*
X39474240Y12117246D01*
X39480218Y12089477D01*
X39487048Y12064790D01*
X39494787Y12043004D01*
X39503493Y12023937D01*
X39513222Y12007409D01*
X39524031Y11993237D01*
X39535977Y11981241D01*
X39549116Y11971239D01*
X39563506Y11963051D01*
X39579203Y11956494D01*
X39596264Y11951387D01*
X39614747Y11947549D01*
X39634707Y11944800D01*
X39656201Y11942956D01*
X39704022Y11941264D01*
X39758664Y11941023D01*
X39894820Y11940292D01*
X39949143Y11943122D01*
X39995185Y11951407D01*
X40033612Y11967644D01*
X40050179Y11979523D01*
X40065092Y11994326D01*
X40078434Y12012364D01*
X40090290Y12033949D01*
X40109875Y12089008D01*
X40124511Y12161997D01*
X40134867Y12255411D01*
X40141609Y12371746D01*
X40145404Y12513495D01*
X40146818Y12883219D01*
X40145971Y13062065D01*
X40414473Y13062065D01*
X40420267Y12970376D01*
X40434542Y12879079D01*
X40457446Y12788604D01*
X40489130Y12699381D01*
X40529741Y12611839D01*
X40579429Y12526410D01*
X40638342Y12443521D01*
X40706629Y12363603D01*
X40784439Y12287087D01*
X40871922Y12214400D01*
X40969225Y12145974D01*
X41076497Y12082238D01*
X41076497Y12082241D01*
X41112045Y12065361D01*
X41154798Y12049376D01*
X41259783Y12020139D01*
X41387177Y11994615D01*
X41532707Y11972891D01*
X41692099Y11955056D01*
X41861079Y11941194D01*
X42035372Y11931394D01*
X42210705Y11925743D01*
X42382805Y11924327D01*
X42547395Y11927233D01*
X42700204Y11934548D01*
X42836956Y11946360D01*
X42953378Y11962754D01*
X43045196Y11983819D01*
X43080543Y11996130D01*
X43108136Y12009640D01*
X43127440Y12024362D01*
X43137923Y12040306D01*
X43170865Y12138375D01*
X43195643Y12226269D01*
X43211519Y12304555D01*
X43215889Y12340272D01*
X43217758Y12373798D01*
X43217033Y12405206D01*
X43213624Y12434564D01*
X43207436Y12461946D01*
X43198380Y12487420D01*
X43186362Y12511058D01*
X43171291Y12532930D01*
X43153075Y12553108D01*
X43131622Y12571662D01*
X43106839Y12588663D01*
X43078634Y12604181D01*
X43046917Y12618287D01*
X43011594Y12631052D01*
X42972574Y12642547D01*
X42929765Y12652843D01*
X42832410Y12670118D01*
X42718794Y12683445D01*
X42588182Y12693388D01*
X42439835Y12700513D01*
X42273020Y12705388D01*
X42095850Y12709838D01*
X41938653Y12715119D01*
X41800249Y12721687D01*
X41679460Y12730005D01*
X41625303Y12734962D01*
X41575108Y12740530D01*
X41528727Y12746764D01*
X41486013Y12753722D01*
X41446819Y12761461D01*
X41410997Y12770040D01*
X41378401Y12779516D01*
X41348882Y12789945D01*
X41322294Y12801386D01*
X41298489Y12813895D01*
X41277320Y12827531D01*
X41258639Y12842350D01*
X41242299Y12858411D01*
X41228153Y12875770D01*
X41216054Y12894485D01*
X41205854Y12914613D01*
X41197405Y12936212D01*
X41190561Y12959339D01*
X41185174Y12984052D01*
X41181097Y13010408D01*
X41178183Y13038465D01*
X41176283Y13068279D01*
X41174941Y13133412D01*
X41176434Y13190886D01*
X41181182Y13242764D01*
X41189589Y13289287D01*
X41195291Y13310616D01*
X41202058Y13330697D01*
X41209942Y13349560D01*
X41218992Y13367235D01*
X41229260Y13383752D01*
X41240795Y13399142D01*
X41253648Y13413434D01*
X41267870Y13426660D01*
X41283510Y13438848D01*
X41300620Y13450029D01*
X41319249Y13460234D01*
X41339448Y13469492D01*
X41361268Y13477834D01*
X41384759Y13485290D01*
X41436955Y13497664D01*
X41496439Y13506856D01*
X41563615Y13513106D01*
X41638887Y13516656D01*
X41722657Y13517748D01*
X41815329Y13516623D01*
X41909261Y13515987D01*
X42000532Y13518279D01*
X42089107Y13523470D01*
X42174954Y13531532D01*
X42258038Y13542436D01*
X42338327Y13556154D01*
X42415787Y13572658D01*
X42490384Y13591918D01*
X42562085Y13613908D01*
X42630857Y13638597D01*
X42696665Y13665958D01*
X42759477Y13695962D01*
X42819259Y13728581D01*
X42875978Y13763787D01*
X42929599Y13801551D01*
X42980091Y13841844D01*
X43027418Y13884638D01*
X43071548Y13929905D01*
X43112447Y13977616D01*
X43150081Y14027742D01*
X43184418Y14080256D01*
X43215424Y14135129D01*
X43243064Y14192333D01*
X43267307Y14251838D01*
X43288118Y14313618D01*
X43293399Y14333113D01*
X43277172Y14407082D01*
X43207616Y14639814D01*
X43122660Y14852322D01*
X43020765Y15045525D01*
X42900389Y15220343D01*
X42759994Y15377694D01*
X42598039Y15518498D01*
X42412985Y15643674D01*
X42203290Y15754141D01*
X41967416Y15850819D01*
X41861856Y15884382D01*
X41787203Y15888109D01*
X41558114Y15891976D01*
X41245926Y15892148D01*
X41119619Y15890786D01*
X41011323Y15887736D01*
X40963496Y15885410D01*
X40919652Y15882458D01*
X40879619Y15878815D01*
X40843222Y15874411D01*
X40810289Y15869180D01*
X40780646Y15863053D01*
X40754120Y15855964D01*
X40730539Y15847844D01*
X40709728Y15838626D01*
X40691515Y15828242D01*
X40675727Y15816624D01*
X40662190Y15803706D01*
X40650731Y15789418D01*
X40641177Y15773695D01*
X40633355Y15756467D01*
X40627092Y15737668D01*
X40622214Y15717229D01*
X40618548Y15695083D01*
X40615922Y15671163D01*
X40614161Y15645401D01*
X40612545Y15588079D01*
X40612314Y15522577D01*
X40614064Y15399708D01*
X40618221Y15349920D01*
X40626317Y15307129D01*
X40632252Y15288179D01*
X40639664Y15270762D01*
X40648717Y15254808D01*
X40659575Y15240244D01*
X40672403Y15226999D01*
X40687363Y15215000D01*
X40704621Y15204177D01*
X40724341Y15194456D01*
X40746686Y15185767D01*
X40771821Y15178037D01*
X40831117Y15165169D01*
X40903541Y15155277D01*
X40990406Y15147786D01*
X41093025Y15142123D01*
X41212710Y15137712D01*
X41508532Y15130349D01*
X41680711Y15125782D01*
X41835206Y15120011D01*
X41972924Y15112722D01*
X42035775Y15108412D01*
X42094773Y15103605D01*
X42150030Y15098263D01*
X42201660Y15092347D01*
X42249776Y15085817D01*
X42294493Y15078635D01*
X42335922Y15070762D01*
X42374178Y15062158D01*
X42409374Y15052785D01*
X42441623Y15042604D01*
X42471039Y15031575D01*
X42497736Y15019660D01*
X42521826Y15006820D01*
X42543423Y14993015D01*
X42562640Y14978207D01*
X42579592Y14962357D01*
X42594391Y14945425D01*
X42607150Y14927373D01*
X42617984Y14908162D01*
X42627005Y14887752D01*
X42634327Y14866104D01*
X42640064Y14843180D01*
X42644328Y14818941D01*
X42647234Y14793347D01*
X42648894Y14766360D01*
X42649422Y14737941D01*
X42647847Y14679072D01*
X42642709Y14626062D01*
X42633389Y14578585D01*
X42626968Y14556819D01*
X42619270Y14536313D01*
X42610217Y14517028D01*
X42599732Y14498922D01*
X42587739Y14481955D01*
X42574159Y14466085D01*
X42558915Y14451272D01*
X42541930Y14437475D01*
X42523127Y14424654D01*
X42502428Y14412767D01*
X42479756Y14401774D01*
X42455034Y14391634D01*
X42399131Y14373750D01*
X42334099Y14358788D01*
X42259320Y14346423D01*
X42174175Y14336328D01*
X42078048Y14328177D01*
X41970318Y14321644D01*
X41850368Y14316402D01*
X41717802Y14307118D01*
X41590740Y14289630D01*
X41469331Y14264369D01*
X41353723Y14231764D01*
X41244065Y14192246D01*
X41140507Y14146243D01*
X41043197Y14094187D01*
X40952284Y14036506D01*
X40867916Y13973630D01*
X40790243Y13905990D01*
X40719414Y13834014D01*
X40655577Y13758133D01*
X40598882Y13678776D01*
X40549476Y13596374D01*
X40507510Y13511356D01*
X40473131Y13424151D01*
X40446490Y13335190D01*
X40427733Y13244902D01*
X40417012Y13153717D01*
X40414473Y13062065D01*
X40145971Y13062065D01*
X40144444Y13384541D01*
X40143014Y13639710D01*
X40140929Y13866410D01*
X40137982Y14065997D01*
X40136121Y14156047D01*
X40133967Y14239826D01*
X40131495Y14317504D01*
X40128678Y14389250D01*
X40125491Y14455234D01*
X40121909Y14515624D01*
X40117904Y14570591D01*
X40113452Y14620304D01*
X40108527Y14664931D01*
X40103102Y14704643D01*
X40097153Y14739608D01*
X40090653Y14769996D01*
X40087189Y14783526D01*
X40083577Y14795976D01*
X40079814Y14807366D01*
X40075898Y14817717D01*
X40071825Y14827051D01*
X40067591Y14835389D01*
X40063195Y14842753D01*
X40058631Y14849162D01*
X40053897Y14854638D01*
X40048991Y14859204D01*
X40043908Y14862878D01*
X40038645Y14865684D01*
X40033200Y14867642D01*
X40027569Y14868773D01*
X40021748Y14869098D01*
X40015735Y14868639D01*
X40009526Y14867416D01*
X40003118Y14865451D01*
X39996508Y14862766D01*
X39989693Y14859380D01*
X39982669Y14855316D01*
X39975434Y14850594D01*
X39960314Y14839263D01*
X39944309Y14825556D01*
X39927391Y14809642D01*
X39902204Y14785950D01*
X39878264Y14765419D01*
X39855306Y14748049D01*
X39844111Y14740548D01*
X39833062Y14733838D01*
X39822125Y14727919D01*
X39811266Y14722789D01*
X39800452Y14718450D01*
X39789649Y14714900D01*
X39778826Y14712142D01*
X39767947Y14710173D01*
X39756980Y14708995D01*
X39745891Y14708607D01*
X39734647Y14709009D01*
X39723214Y14710202D01*
X39711560Y14712185D01*
X39699650Y14714959D01*
X39687452Y14718523D01*
X39674932Y14722878D01*
X39662057Y14728023D01*
X39648792Y14733959D01*
X39620965Y14748202D01*
X39591182Y14765607D01*
X39559177Y14786176D01*
X39524682Y14809906D01*
X39502527Y14824532D01*
X39479014Y14838107D01*
X39454233Y14850635D01*
X39428275Y14862119D01*
X39373181Y14881968D01*
X39314450Y14897683D01*
X39252797Y14909291D01*
X39188937Y14916819D01*
X39123588Y14920296D01*
X39057465Y14919749D01*
X38991285Y14915205D01*
X38925763Y14906691D01*
X38861615Y14894237D01*
X38799558Y14877868D01*
X38740307Y14857612D01*
X38684580Y14833498D01*
X38633091Y14805553D01*
X38609160Y14790152D01*
X38586557Y14773803D01*
X38524363Y14726656D01*
X38498371Y14708134D01*
X38474994Y14692980D01*
X38464103Y14686665D01*
X38453644Y14681193D01*
X38443545Y14676562D01*
X38433731Y14672774D01*
X38424128Y14669827D01*
X38414663Y14667722D01*
X38405262Y14666459D01*
X38395852Y14666038D01*
X38386358Y14666459D01*
X38376707Y14667722D01*
X38366825Y14669827D01*
X38356638Y14672774D01*
X38346073Y14676562D01*
X38335056Y14681193D01*
X38323512Y14686665D01*
X38311369Y14692980D01*
X38284990Y14708134D01*
X38255326Y14726656D01*
X38183788Y14773803D01*
X38142007Y14800219D01*
X38099752Y14824126D01*
X38057066Y14845534D01*
X38013992Y14864456D01*
X37970576Y14880903D01*
X37926860Y14894885D01*
X37882888Y14906414D01*
X37838705Y14915500D01*
X37794355Y14922156D01*
X37749881Y14926392D01*
X37705328Y14928219D01*
X37660739Y14927649D01*
X37616158Y14924692D01*
X37571629Y14919361D01*
X37527196Y14911665D01*
X37482903Y14901616D01*
X37438794Y14889225D01*
X37394913Y14874504D01*
X37351304Y14857463D01*
X37308011Y14838114D01*
X37265077Y14816468D01*
X37222546Y14792536D01*
X37180463Y14766329D01*
X37138872Y14737859D01*
X37097816Y14707135D01*
X37057339Y14674171D01*
X37017485Y14638976D01*
X36978299Y14601562D01*
X36939823Y14561940D01*
X36902102Y14520121D01*
X36865181Y14476116D01*
X36829102Y14429937D01*
X36782148Y14364224D01*
X36762937Y14332162D01*
X36746274Y14298218D01*
X36731936Y14260584D01*
X36719704Y14217450D01*
X36709355Y14167008D01*
X36700667Y14107449D01*
X36687389Y13953747D01*
X36678097Y13741873D01*
X36664380Y13085732D01*
X36658701Y12705763D01*
X36657709Y12552106D01*
X36013662Y12552106D01*
X36024358Y12570428D01*
X36066199Y12653320D01*
X36103864Y12740476D01*
X36137180Y12831790D01*
X36165970Y12927158D01*
X36190062Y13026473D01*
X36209279Y13129631D01*
X36223448Y13236525D01*
X36232393Y13347052D01*
X36235742Y13466152D01*
X36232450Y13581872D01*
X36222743Y13694062D01*
X36206848Y13802568D01*
X36184992Y13907238D01*
X36157402Y14007921D01*
X36124304Y14104465D01*
X36085925Y14196717D01*
X36042493Y14284526D01*
X35994233Y14367740D01*
X35941374Y14446207D01*
X35884142Y14519775D01*
X35822763Y14588291D01*
X35757465Y14651604D01*
X35688475Y14709562D01*
X35616018Y14762013D01*
X35540323Y14808806D01*
X35461616Y14849787D01*
X35380124Y14884805D01*
X35296074Y14913708D01*
X35209692Y14936344D01*
X35121205Y14952561D01*
X35030841Y14962208D01*
X34938827Y14965131D01*
X34845388Y14961180D01*
X34750752Y14950202D01*
X34655146Y14932045D01*
X34558797Y14906558D01*
X34461931Y14873588D01*
X34364776Y14832983D01*
X34267558Y14784592D01*
X34170504Y14728262D01*
X34116882Y14695122D01*
X34069213Y14666417D01*
X34026990Y14642152D01*
X34007764Y14631686D01*
X33989710Y14622333D01*
X33972767Y14614094D01*
X33956869Y14606968D01*
X33941956Y14600958D01*
X33927963Y14596063D01*
X33914827Y14592284D01*
X33902486Y14589623D01*
X33890877Y14588080D01*
X33879936Y14587656D01*
X33869600Y14588351D01*
X33859806Y14590167D01*
X33850492Y14593105D01*
X33841594Y14597164D01*
X33833050Y14602347D01*
X33824795Y14608653D01*
X33816768Y14616084D01*
X33808904Y14624640D01*
X33801142Y14634323D01*
X33793418Y14645132D01*
X33785669Y14657069D01*
X33777832Y14670135D01*
X33761642Y14699655D01*
X33744343Y14733700D01*
X33702442Y14813010D01*
X33664432Y14873576D01*
X33630160Y14914668D01*
X33614378Y14927682D01*
X33599474Y14935553D01*
X33585429Y14938189D01*
X33572223Y14935499D01*
X33559838Y14927392D01*
X33548254Y14913775D01*
X33527416Y14869647D01*
X33509555Y14802386D01*
X33494522Y14711258D01*
X33482162Y14595531D01*
X33472325Y14454474D01*
X33464858Y14287355D01*
X33456427Y13872003D01*
X33455653Y13343620D01*
X33045957Y13343620D01*
X33045895Y13457653D01*
X33045582Y13730251D01*
X33044432Y13970419D01*
X33042128Y14179571D01*
X33038353Y14359117D01*
X33032792Y14510467D01*
X33029242Y14576010D01*
X33025127Y14635034D01*
X33020406Y14687714D01*
X33015041Y14734227D01*
X33008992Y14774750D01*
X33002219Y14809459D01*
X32994683Y14838530D01*
X32986344Y14862140D01*
X32981861Y14871952D01*
X32977162Y14880465D01*
X32972243Y14887700D01*
X32967099Y14893681D01*
X32961724Y14898428D01*
X32956113Y14901965D01*
X32950263Y14904313D01*
X32944167Y14905493D01*
X32937821Y14905529D01*
X32931220Y14904442D01*
X32924358Y14902255D01*
X32917232Y14898988D01*
X32902164Y14889307D01*
X32885977Y14875577D01*
X32868631Y14857972D01*
X32850086Y14836669D01*
X32830303Y14811846D01*
X32809242Y14783678D01*
X32763128Y14718013D01*
X32744912Y14691755D01*
X32728149Y14668588D01*
X32712652Y14648432D01*
X32705318Y14639457D01*
X32698230Y14631206D01*
X32691363Y14623667D01*
X32684693Y14616831D01*
X32678198Y14610688D01*
X32671852Y14605227D01*
X32665634Y14600440D01*
X32659518Y14596315D01*
X32653481Y14592843D01*
X32647500Y14590013D01*
X32641551Y14587817D01*
X32635610Y14586244D01*
X32629653Y14585283D01*
X32623657Y14584926D01*
X32617598Y14585161D01*
X32611452Y14585979D01*
X32605196Y14587371D01*
X32598806Y14589325D01*
X32592258Y14591832D01*
X32585528Y14594882D01*
X32578593Y14598466D01*
X32571429Y14602572D01*
X32564013Y14607192D01*
X32556320Y14612314D01*
X32540011Y14624029D01*
X32497675Y14653967D01*
X32453225Y14682233D01*
X32406879Y14708813D01*
X32358855Y14733697D01*
X32309372Y14756872D01*
X32258647Y14778328D01*
X32206899Y14798052D01*
X32154346Y14816034D01*
X32101204Y14832260D01*
X32047694Y14846720D01*
X31940437Y14870295D01*
X31834319Y14886665D01*
X31731084Y14895738D01*
X31681093Y14897508D01*
X31632477Y14897420D01*
X31585454Y14895460D01*
X31540243Y14891618D01*
X31497060Y14885882D01*
X31456124Y14878240D01*
X31417654Y14868681D01*
X31381866Y14857192D01*
X31348980Y14843764D01*
X31319214Y14828383D01*
X31292784Y14811038D01*
X31269910Y14791718D01*
X31250810Y14770410D01*
X31235701Y14747104D01*
X31224802Y14721788D01*
X31218330Y14694450D01*
X31205882Y14607309D01*
X31196156Y14530348D01*
X31189641Y14462903D01*
X31186827Y14404311D01*
X30950280Y14404311D01*
X30950581Y14514059D01*
X30950240Y14638346D01*
X30949430Y14688631D01*
X30947853Y14731746D01*
X30946697Y14750786D01*
X30945253Y14768241D01*
X30943489Y14784179D01*
X30941374Y14798670D01*
X30938874Y14811781D01*
X30935960Y14823582D01*
X30932597Y14834143D01*
X30928755Y14843531D01*
X30924402Y14851816D01*
X30919505Y14859067D01*
X30914032Y14865352D01*
X30907952Y14870742D01*
X30901233Y14875304D01*
X30893842Y14879107D01*
X30885748Y14882221D01*
X30876918Y14884715D01*
X30867321Y14886657D01*
X30856925Y14888116D01*
X30845697Y14889162D01*
X30833607Y14889863D01*
X30806708Y14890506D01*
X30775972Y14890598D01*
X30718337Y14891701D01*
X30695019Y14894321D01*
X30675025Y14899423D01*
X30666196Y14903164D01*
X30658102Y14907835D01*
X30650711Y14913540D01*
X30643991Y14920383D01*
X30637911Y14928467D01*
X30632439Y14937896D01*
X30623188Y14961199D01*
X30615984Y14991122D01*
X30610570Y15028491D01*
X30606691Y15074134D01*
X30604090Y15128877D01*
X30601703Y15268976D01*
X30601362Y15455407D01*
X30601122Y15528988D01*
X30600391Y15596849D01*
X30599150Y15659129D01*
X30597383Y15715967D01*
X30595071Y15767503D01*
X30592196Y15813874D01*
X30588742Y15855220D01*
X30584689Y15891680D01*
X30582433Y15908121D01*
X30580020Y15923392D01*
X30577449Y15937511D01*
X30574718Y15950496D01*
X30571824Y15962363D01*
X30568765Y15973130D01*
X30565538Y15982815D01*
X30562142Y15991434D01*
X30558575Y15999005D01*
X30554833Y16005545D01*
X30550915Y16011073D01*
X30546819Y16015604D01*
X30542543Y16019157D01*
X30538083Y16021749D01*
X30533439Y16023397D01*
X30528607Y16024119D01*
X30480841Y16028050D01*
X30404564Y16035868D01*
X30310279Y16046441D01*
X30208492Y16058635D01*
X30126842Y16067569D01*
X30093808Y16068878D01*
X30065484Y16066969D01*
X30052975Y16064548D01*
X30041509Y16061011D01*
X30031038Y16056253D01*
X30021519Y16050170D01*
X30012906Y16042658D01*
X30005153Y16033613D01*
X29998215Y16022930D01*
X29992048Y16010507D01*
X29986605Y15996237D01*
X29981842Y15980018D01*
X29974172Y15941315D01*
X29968676Y15893563D01*
X29964992Y15835930D01*
X29962758Y15767583D01*
X29961610Y15687688D01*
X29961127Y15489924D01*
X29960106Y15292099D01*
X29957682Y15212063D01*
X29952960Y15143439D01*
X29949498Y15113132D01*
X29945175Y15085350D01*
X29939895Y15059982D01*
X29933562Y15036918D01*
X29926080Y15016049D01*
X29917355Y14997265D01*
X29907289Y14980457D01*
X29895787Y14965514D01*
X29882754Y14952327D01*
X29868094Y14940786D01*
X29851712Y14930781D01*
X29833510Y14922203D01*
X29813395Y14914942D01*
X29791269Y14908888D01*
X29767038Y14903932D01*
X29740605Y14899963D01*
X29680753Y14894549D01*
X29610946Y14891769D01*
X29438408Y14890598D01*
X29335373Y14890161D01*
X29244560Y14888434D01*
X29165270Y14884798D01*
X29096807Y14878633D01*
X29066416Y14874408D01*
X29038471Y14869318D01*
X29012882Y14863285D01*
X28989564Y14856233D01*
X28968429Y14848082D01*
X28949389Y14838757D01*
X28932357Y14828178D01*
X28917247Y14816270D01*
X28903970Y14802953D01*
X28892440Y14788152D01*
X28882569Y14771787D01*
X28874270Y14753782D01*
X28867455Y14734059D01*
X28862039Y14712540D01*
X28857932Y14689148D01*
X28855048Y14663806D01*
X28853300Y14636435D01*
X28852600Y14606959D01*
X28853997Y14541379D01*
X28858539Y14466446D01*
X28865530Y14381539D01*
X28872814Y14311314D01*
X28877859Y14282832D01*
X28884943Y14258320D01*
X28889507Y14247447D01*
X28894891Y14237440D01*
X28901197Y14228256D01*
X28908530Y14219853D01*
X28916992Y14212189D01*
X28926687Y14205221D01*
X28937717Y14198908D01*
X28950187Y14193207D01*
X28979859Y14183472D01*
X29016527Y14175679D01*
X29061019Y14169488D01*
X29114161Y14164563D01*
X29176780Y14160565D01*
X29249702Y14157155D01*
X29429760Y14150751D01*
X29609732Y14143660D01*
X29682450Y14138620D01*
X29744672Y14131444D01*
X29772085Y14126790D01*
X29797160Y14121281D01*
X29819993Y14114813D01*
X29840678Y14107277D01*
X29859310Y14098568D01*
X29875986Y14088579D01*
X29890800Y14077202D01*
X29903847Y14064333D01*
X29915224Y14049863D01*
X29925024Y14033686D01*
X29933344Y14015696D01*
X29940279Y13995785D01*
X29945924Y13973848D01*
X29950374Y13949777D01*
X29953724Y13923466D01*
X29956070Y13894808D01*
X29958132Y13830026D01*
X29957320Y13754576D01*
X29950126Y13568263D01*
X29943433Y13438777D01*
X29935046Y13323204D01*
X29924315Y13220701D01*
X29910590Y13130424D01*
X29902401Y13089608D01*
X29893221Y13051532D01*
X29882966Y13016092D01*
X29871557Y12983182D01*
X29858912Y12952697D01*
X29844950Y12924531D01*
X29829589Y12898580D01*
X29812748Y12874737D01*
X29794346Y12852898D01*
X29774302Y12832957D01*
X29752535Y12814809D01*
X29728962Y12798349D01*
X29703504Y12783471D01*
X29676078Y12770069D01*
X29646603Y12758040D01*
X29614999Y12747276D01*
X29581184Y12737674D01*
X29545076Y12729127D01*
X29465659Y12714779D01*
X29376097Y12703389D01*
X29275740Y12694116D01*
X29201214Y12686891D01*
X29134655Y12677534D01*
X29075790Y12665616D01*
X29049158Y12658562D01*
X29024347Y12650706D01*
X29001324Y12641996D01*
X28980053Y12632377D01*
X28960501Y12621796D01*
X28942634Y12610198D01*
X28926417Y12597531D01*
X28911817Y12583741D01*
X28898799Y12568773D01*
X28887329Y12552575D01*
X28877373Y12535092D01*
X28868897Y12516272D01*
X28861867Y12496059D01*
X28856248Y12474402D01*
X28852007Y12451245D01*
X28849109Y12426536D01*
X28847520Y12400220D01*
X28847206Y12372245D01*
X26654678Y12372245D01*
X26659988Y12907881D01*
G37*
X26659988Y12907881D02*
X26699000Y13578346D01*
X26774973Y14153206D01*
X26830669Y14407082D01*
X26900225Y14639814D01*
X26985181Y14852322D01*
X27087076Y15045525D01*
X27207451Y15220343D01*
X27347846Y15377694D01*
X27509801Y15518498D01*
X27694856Y15643674D01*
X27904550Y15754141D01*
X28140424Y15850819D01*
X28404018Y15934627D01*
X28696871Y16006485D01*
X29376517Y16118025D01*
X30191681Y16192793D01*
X31154684Y16238145D01*
X32277845Y16261433D01*
X35053920Y16271239D01*
X37829996Y16261433D01*
X38953157Y16238145D01*
X39916159Y16192793D01*
X40341451Y16159546D01*
X40731323Y16118025D01*
X41087316Y16067311D01*
X41410969Y16006485D01*
X41703823Y15934627D01*
X41861856Y15884382D01*
X41997454Y15877611D01*
X42189531Y15860076D01*
X42364099Y15835100D01*
X42521820Y15802276D01*
X42663361Y15761200D01*
X42728270Y15737440D01*
X42789383Y15711465D01*
X42846783Y15683224D01*
X42900553Y15652667D01*
X42950775Y15619742D01*
X42997533Y15584400D01*
X43040910Y15546589D01*
X43080989Y15506258D01*
X43117852Y15463358D01*
X43151584Y15417837D01*
X43182266Y15369645D01*
X43209982Y15318730D01*
X43234815Y15265043D01*
X43256847Y15208533D01*
X43292845Y15086840D01*
X43318638Y14953245D01*
X43334891Y14807343D01*
X43339040Y14730445D01*
X43339523Y14655621D01*
X43336373Y14582901D01*
X43329624Y14512312D01*
X43319310Y14443883D01*
X43305463Y14377642D01*
X43293399Y14333113D01*
X43332868Y14153206D01*
X43376244Y13877267D01*
X43408840Y13578346D01*
X43447853Y12907881D01*
X43462226Y12134456D01*
X43464280Y11250716D01*
X43464283Y11250718D01*
X43447857Y9593553D01*
X43408844Y8923087D01*
X43332872Y8348228D01*
X43277175Y8094352D01*
X43207620Y7861619D01*
X43172538Y7773866D01*
X43171459Y7734615D01*
X43169743Y7708847D01*
X43167182Y7684920D01*
X43163608Y7662764D01*
X43158852Y7642311D01*
X43152746Y7623494D01*
X43145120Y7606243D01*
X43135806Y7590492D01*
X43124634Y7576172D01*
X43111436Y7563214D01*
X43096044Y7551552D01*
X43078287Y7541115D01*
X43061708Y7533534D01*
X43020768Y7455908D01*
X42900393Y7281090D01*
X42759998Y7123739D01*
X42598043Y6982935D01*
X42412988Y6857759D01*
X42203294Y6747292D01*
X41967420Y6650614D01*
X41703826Y6566806D01*
X41410973Y6494948D01*
X40731327Y6383408D01*
X39916163Y6308640D01*
X38953160Y6263288D01*
X37830000Y6240000D01*
X35053924Y6230194D01*
X32720827Y6235623D01*
X31736599Y6248518D01*
X30864822Y6273629D01*
X30098675Y6315029D01*
X29753081Y6343110D01*
X29431337Y6376789D01*
X29132589Y6416577D01*
X28855985Y6462982D01*
X28600673Y6516513D01*
X28365799Y6577679D01*
X28062641Y6679856D01*
X27797326Y6800323D01*
X27678071Y6867887D01*
X27567330Y6940587D01*
X27464788Y7018613D01*
X27370130Y7102154D01*
X27283041Y7191396D01*
X27203204Y7286528D01*
X27130306Y7387740D01*
X27069793Y7485870D01*
X27022968Y7485908D01*
X26962622Y7486873D01*
X26911260Y7489640D01*
X26888904Y7491980D01*
X26868743Y7495107D01*
X26850759Y7499132D01*
X26834935Y7504168D01*
X26821253Y7510327D01*
X26809697Y7517720D01*
X26800249Y7526459D01*
X26792892Y7536656D01*
X26787608Y7548424D01*
X26784381Y7561874D01*
X26783194Y7577119D01*
X26784028Y7594269D01*
X26786867Y7613437D01*
X26791694Y7634736D01*
X26798491Y7658276D01*
X26807241Y7684170D01*
X26817927Y7712530D01*
X26830532Y7743468D01*
X26861428Y7813524D01*
X26895554Y7886206D01*
X26858841Y7991563D01*
X26787782Y8282232D01*
X26734382Y8603238D01*
X26696120Y8956089D01*
X26670471Y9342290D01*
X26654914Y9763348D01*
X26646925Y10220767D01*
X26643561Y11250716D01*
X26644732Y11368898D01*
X26798087Y11368898D01*
X26800051Y11351527D01*
X26805168Y11331520D01*
X26813474Y11308697D01*
X26839788Y11253875D01*
X26879268Y11185607D01*
X26932189Y11102443D01*
X27079454Y10885615D01*
X27283784Y10591773D01*
X27388894Y10438927D01*
X27486968Y10293302D01*
X27575855Y10158302D01*
X27653408Y10037331D01*
X27717478Y9933794D01*
X27765917Y9851094D01*
X27783603Y9818622D01*
X27796576Y9792636D01*
X27804566Y9773561D01*
X27806609Y9766749D01*
X27807306Y9761823D01*
X27803278Y9740918D01*
X27791693Y9705563D01*
X27749467Y9599205D01*
X27687864Y9458157D01*
X27614119Y9297827D01*
X27535467Y9133622D01*
X27459144Y8980950D01*
X27392385Y8855218D01*
X27364852Y8807270D01*
X27342424Y8771835D01*
X27327634Y8746740D01*
X27301960Y8699186D01*
X27223604Y8547774D01*
X27118646Y8339733D01*
X26998376Y8097201D01*
X26899793Y7895235D01*
X26895554Y7886206D01*
X26950082Y7729727D01*
X27064029Y7495218D01*
X27069793Y7485870D01*
X27092435Y7485852D01*
X27223127Y7486607D01*
X27276576Y7488058D01*
X27323157Y7490806D01*
X27344121Y7492804D01*
X27363666Y7495289D01*
X27381893Y7498317D01*
X27398902Y7501943D01*
X27414790Y7506220D01*
X27429660Y7511204D01*
X27443609Y7516949D01*
X27456737Y7523509D01*
X27469145Y7530940D01*
X27480931Y7539295D01*
X27492196Y7548630D01*
X27503039Y7558999D01*
X27513559Y7570457D01*
X27523857Y7583057D01*
X27534032Y7596856D01*
X27544183Y7611907D01*
X27564813Y7645983D01*
X27586544Y7685724D01*
X27636499Y7783945D01*
X27874621Y8259386D01*
X27970274Y8449859D01*
X28051912Y8611619D01*
X28120725Y8746756D01*
X28177907Y8857360D01*
X28202508Y8904115D01*
X28224649Y8945520D01*
X28244477Y8981837D01*
X28262142Y9013326D01*
X28277793Y9040249D01*
X28291579Y9062868D01*
X28303648Y9081442D01*
X28314151Y9096235D01*
X28323235Y9107506D01*
X28327292Y9111902D01*
X28331050Y9115516D01*
X28334528Y9118381D01*
X28337745Y9120528D01*
X28340719Y9121991D01*
X28343469Y9122803D01*
X28346013Y9122995D01*
X28348370Y9122601D01*
X28350559Y9121653D01*
X28352598Y9120183D01*
X28354506Y9118226D01*
X28356302Y9115812D01*
X28359630Y9109748D01*
X28362732Y9102252D01*
X28365757Y9093586D01*
X28372170Y9073786D01*
X28375808Y9064622D01*
X28381530Y9052641D01*
X28398729Y9021000D01*
X28422786Y8980409D01*
X28452718Y8932411D01*
X28487544Y8878552D01*
X28526282Y8820375D01*
X28567950Y8759425D01*
X28611565Y8697247D01*
X28675064Y8605125D01*
X28701805Y8563474D01*
X28725509Y8523846D01*
X28746401Y8485554D01*
X28764708Y8447911D01*
X28780655Y8410229D01*
X28794469Y8371823D01*
X28806374Y8332004D01*
X28816598Y8290085D01*
X28825366Y8245379D01*
X28832904Y8197199D01*
X28839437Y8144858D01*
X28845192Y8087669D01*
X28855272Y7955999D01*
X28865588Y7810960D01*
X28871161Y7752208D01*
X28877779Y7701739D01*
X28881660Y7679401D01*
X28886017Y7658882D01*
X28890924Y7640099D01*
X28896451Y7622967D01*
X28902671Y7607403D01*
X28909655Y7593323D01*
X28917476Y7580643D01*
X28926206Y7569279D01*
X28935916Y7559147D01*
X28946678Y7550164D01*
X28958565Y7542245D01*
X28971649Y7535307D01*
X28986000Y7529266D01*
X29001691Y7524037D01*
X29018795Y7519538D01*
X29037383Y7515684D01*
X29079298Y7509577D01*
X29128013Y7505044D01*
X29248142Y7498019D01*
X29368214Y7495725D01*
X29416794Y7502428D01*
X29458446Y7518200D01*
X29493704Y7545918D01*
X29523101Y7588460D01*
X29547168Y7648703D01*
X29566440Y7729524D01*
X29581450Y7833800D01*
X29592729Y7964408D01*
X29606228Y8316130D01*
X29611201Y8807706D01*
X29611912Y9462155D01*
X29611201Y10116604D01*
X29610386Y10244426D01*
X30153755Y10244426D01*
X30155061Y10171479D01*
X30161029Y10099752D01*
X30171577Y10029369D01*
X30186625Y9960454D01*
X30206091Y9893129D01*
X30229896Y9827519D01*
X30257958Y9763746D01*
X30290197Y9701934D01*
X30326533Y9642207D01*
X30366883Y9584687D01*
X30411168Y9529499D01*
X30459307Y9476765D01*
X30511219Y9426609D01*
X30566824Y9379155D01*
X30626041Y9334525D01*
X30688789Y9292844D01*
X30754987Y9254234D01*
X30824554Y9218819D01*
X30897411Y9186723D01*
X30973476Y9158068D01*
X31052669Y9132979D01*
X31134908Y9111578D01*
X31220114Y9093989D01*
X31308205Y9080335D01*
X31399101Y9070740D01*
X31464510Y9065143D01*
X31523625Y9059462D01*
X31576853Y9053556D01*
X31624603Y9047287D01*
X31646551Y9043972D01*
X31667283Y9040513D01*
X31686851Y9036894D01*
X31705304Y9033096D01*
X31722694Y9029102D01*
X31739073Y9024895D01*
X31754490Y9020457D01*
X31768998Y9015770D01*
X31782648Y9010818D01*
X31795490Y9005582D01*
X31807575Y9000045D01*
X31818956Y8994190D01*
X31829682Y8987999D01*
X31839805Y8981454D01*
X31849376Y8974539D01*
X31858446Y8967236D01*
X31867066Y8959526D01*
X31875287Y8951393D01*
X31883161Y8942820D01*
X31890738Y8933788D01*
X31898070Y8924280D01*
X31905207Y8914279D01*
X31912201Y8903767D01*
X31919103Y8892727D01*
X31928285Y8876238D01*
X31936781Y8858213D01*
X31944597Y8838785D01*
X31951735Y8818088D01*
X31964003Y8773415D01*
X31973622Y8725256D01*
X31980631Y8674672D01*
X31985067Y8622725D01*
X31986971Y8570478D01*
X31986378Y8518992D01*
X31983329Y8469328D01*
X31977861Y8422550D01*
X31970012Y8379719D01*
X31959820Y8341897D01*
X31953858Y8325196D01*
X31947324Y8310146D01*
X31940224Y8296878D01*
X31932562Y8285527D01*
X31924343Y8276224D01*
X31915573Y8269103D01*
X31906254Y8264295D01*
X31896393Y8261935D01*
X31806143Y8258271D01*
X31614198Y8254091D01*
X31037895Y8246247D01*
X30778538Y8242922D01*
X30673605Y8240128D01*
X30583636Y8235828D01*
X30543903Y8232938D01*
X30507479Y8229460D01*
X30474220Y8225325D01*
X30443982Y8220461D01*
X30416622Y8214798D01*
X30391996Y8208267D01*
X30369959Y8200796D01*
X30350368Y8192315D01*
X30333079Y8182754D01*
X30317949Y8172043D01*
X30304832Y8160111D01*
X30293586Y8146887D01*
X30284066Y8132302D01*
X30276129Y8116285D01*
X30269631Y8098765D01*
X30264427Y8079672D01*
X30260375Y8058936D01*
X30257330Y8036487D01*
X30255148Y8012253D01*
X30253685Y7986166D01*
X30252342Y7928145D01*
X30252150Y7861863D01*
X30252154Y7861861D01*
X30254553Y7737574D01*
X30260251Y7687289D01*
X30271346Y7644174D01*
X30279480Y7625134D01*
X30289638Y7607679D01*
X30302045Y7591740D01*
X30316925Y7577250D01*
X30334505Y7564139D01*
X30355008Y7552338D01*
X30405686Y7532389D01*
X30470757Y7516853D01*
X30552020Y7505178D01*
X30651276Y7496813D01*
X30770323Y7491205D01*
X31074987Y7486057D01*
X31480406Y7485322D01*
X31885785Y7486823D01*
X32049717Y7490389D01*
X32190169Y7497334D01*
X32252142Y7502425D01*
X32308910Y7508783D01*
X32360691Y7516548D01*
X32407709Y7525862D01*
X32450184Y7536865D01*
X32488336Y7549698D01*
X32522388Y7564502D01*
X32552560Y7581418D01*
X32579073Y7600585D01*
X32602150Y7622146D01*
X32622009Y7646240D01*
X32638874Y7673009D01*
X32652965Y7702593D01*
X32664502Y7735134D01*
X32673709Y7770771D01*
X32680804Y7809645D01*
X32686010Y7851899D01*
X32689548Y7897671D01*
X32692503Y8000336D01*
X32692367Y8015488D01*
X33166583Y8015488D01*
X33167650Y7902313D01*
X33169051Y7852331D01*
X33171112Y7806512D01*
X33173894Y7764675D01*
X33177460Y7726638D01*
X33181869Y7692221D01*
X33187184Y7661242D01*
X33193466Y7633521D01*
X33200775Y7608877D01*
X33209174Y7587129D01*
X33218723Y7568096D01*
X33229484Y7551596D01*
X33241518Y7537449D01*
X33254886Y7525474D01*
X33269650Y7515490D01*
X33285870Y7507315D01*
X33303609Y7500770D01*
X33322927Y7495672D01*
X33343886Y7491841D01*
X33366547Y7489096D01*
X33390972Y7487256D01*
X33445355Y7485567D01*
X33507527Y7485326D01*
X33624119Y7487072D01*
X33671294Y7491220D01*
X33711745Y7499299D01*
X33729612Y7505221D01*
X33745993Y7512617D01*
X33760952Y7521650D01*
X33774554Y7532485D01*
X33786865Y7545284D01*
X33797949Y7560213D01*
X33807870Y7577433D01*
X33816695Y7597110D01*
X33831311Y7644488D01*
X33842315Y7703655D01*
X33850227Y7775922D01*
X33855564Y7862599D01*
X33858846Y7964996D01*
X33860591Y8084422D01*
X33861543Y8379604D01*
X33862609Y8593363D01*
X33865766Y8783964D01*
X33871554Y8952698D01*
X33875604Y9029270D01*
X33880514Y9100859D01*
X33886351Y9167629D01*
X33893185Y9229739D01*
X33901081Y9287353D01*
X33910107Y9340631D01*
X33920332Y9389735D01*
X33931823Y9434827D01*
X33944646Y9476068D01*
X33958870Y9513620D01*
X33974562Y9547644D01*
X33991790Y9578302D01*
X34010621Y9605756D01*
X34031123Y9630167D01*
X34053363Y9651696D01*
X34077409Y9670505D01*
X34103328Y9686757D01*
X34131188Y9700611D01*
X34161056Y9712231D01*
X34193001Y9721777D01*
X34227088Y9729411D01*
X34263387Y9735295D01*
X34301964Y9739590D01*
X34342888Y9742458D01*
X34386225Y9744060D01*
X34432043Y9744559D01*
X34505556Y9742645D01*
X34571184Y9736122D01*
X34629390Y9723810D01*
X34680638Y9704536D01*
X34703797Y9691919D01*
X34725390Y9677121D01*
X34745475Y9659993D01*
X34764110Y9640389D01*
X34781353Y9618161D01*
X34797261Y9593163D01*
X34825308Y9534268D01*
X34848712Y9462526D01*
X34867938Y9376761D01*
X34883449Y9275797D01*
X34895708Y9158457D01*
X34905179Y9023563D01*
X34912325Y8869941D01*
X34921495Y8501805D01*
X34927435Y8176608D01*
X34931126Y8044966D01*
X34935983Y7932000D01*
X34939009Y7882061D01*
X34942520Y7836240D01*
X34946578Y7794353D01*
X34951249Y7756216D01*
X34956597Y7721644D01*
X34962685Y7690456D01*
X34969579Y7662465D01*
X34977342Y7637490D01*
X34986039Y7615345D01*
X34995733Y7595848D01*
X35006489Y7578814D01*
X35018372Y7564059D01*
X35031445Y7551399D01*
X35045772Y7540652D01*
X35061418Y7531632D01*
X35078448Y7524157D01*
X35096924Y7518042D01*
X35116912Y7513103D01*
X35138476Y7509157D01*
X35161679Y7506020D01*
X35213263Y7501437D01*
X35272176Y7497884D01*
X35382643Y7494557D01*
X35427337Y7498899D01*
X35465657Y7510095D01*
X35498095Y7530280D01*
X35512261Y7544412D01*
X35525140Y7561594D01*
X35547282Y7606172D01*
X35565012Y7666153D01*
X35578821Y7743674D01*
X35589198Y7840873D01*
X35596633Y7959885D01*
X35601617Y8102850D01*
X35606193Y8469184D01*
X35606846Y8956973D01*
X35606841Y8960102D01*
X36159771Y8960102D01*
X36160425Y8483631D01*
X36161977Y8290785D01*
X36165001Y8125343D01*
X36167217Y8052229D01*
X36169985Y7985163D01*
X36173365Y7923876D01*
X36177420Y7868102D01*
X36182210Y7817573D01*
X36187797Y7772020D01*
X36194241Y7731177D01*
X36201605Y7694775D01*
X36209949Y7662546D01*
X36219335Y7634223D01*
X36229825Y7609539D01*
X36241478Y7588224D01*
X36247760Y7578747D01*
X36254357Y7570012D01*
X36261275Y7561986D01*
X36268523Y7554636D01*
X36276107Y7547927D01*
X36284037Y7541826D01*
X36300960Y7531315D01*
X36319354Y7522837D01*
X36339281Y7516122D01*
X36360800Y7510903D01*
X36383974Y7506913D01*
X36408864Y7503884D01*
X36435531Y7501547D01*
X36494441Y7497882D01*
X36604908Y7494562D01*
X36649602Y7498918D01*
X36687922Y7510142D01*
X36720359Y7530374D01*
X36734525Y7544538D01*
X36747404Y7561757D01*
X36769547Y7606433D01*
X36787277Y7666543D01*
X36801085Y7744230D01*
X36811462Y7841635D01*
X36818897Y7960901D01*
X36823881Y8104169D01*
X36828457Y8471279D01*
X36829111Y8960102D01*
X36829057Y8999968D01*
X37279334Y8999968D01*
X37280956Y8900570D01*
X37287478Y8803344D01*
X37298746Y8708421D01*
X37314608Y8615930D01*
X37334909Y8526000D01*
X37359499Y8438760D01*
X37388223Y8354341D01*
X37420928Y8272872D01*
X37457463Y8194482D01*
X37497673Y8119302D01*
X37541407Y8047460D01*
X37588511Y7979086D01*
X37638832Y7914310D01*
X37692218Y7853261D01*
X37748515Y7796068D01*
X37807571Y7742862D01*
X37869232Y7693773D01*
X37933347Y7648928D01*
X37999761Y7608459D01*
X38068323Y7572494D01*
X38138879Y7541163D01*
X38211276Y7514596D01*
X38285361Y7492922D01*
X38360983Y7476270D01*
X38437987Y7464771D01*
X38516220Y7458554D01*
X38595531Y7457749D01*
X38675766Y7462484D01*
X38756772Y7472890D01*
X38838396Y7489096D01*
X38920485Y7511232D01*
X39002887Y7539427D01*
X39036431Y7551907D01*
X39069096Y7563606D01*
X39100713Y7574483D01*
X39131108Y7584494D01*
X39160111Y7593598D01*
X39187548Y7601752D01*
X39213249Y7608915D01*
X39237041Y7615043D01*
X39258753Y7620095D01*
X39278212Y7624028D01*
X39295248Y7626801D01*
X39309687Y7628371D01*
X39321358Y7628696D01*
X39326102Y7628378D01*
X39330089Y7627733D01*
X39333299Y7626756D01*
X39335709Y7625441D01*
X39337299Y7623783D01*
X39338046Y7621777D01*
X39341111Y7558303D01*
X39344874Y7416760D01*
X39352596Y6983273D01*
X39352600Y6983273D01*
X39356012Y6786448D01*
X39358680Y6706742D01*
X39362660Y6638308D01*
X39365299Y6608035D01*
X39368454Y6580243D01*
X39372189Y6554817D01*
X39376565Y6531646D01*
X39381646Y6510617D01*
X39387495Y6491617D01*
X39394174Y6474535D01*
X39401746Y6459256D01*
X39410274Y6445668D01*
X39419821Y6433660D01*
X39430449Y6423118D01*
X39442222Y6413930D01*
X39455203Y6405982D01*
X39469453Y6399163D01*
X39485036Y6393360D01*
X39502015Y6388461D01*
X39520452Y6384351D01*
X39540411Y6380920D01*
X39585143Y6375641D01*
X39636714Y6371723D01*
X39695627Y6368265D01*
X39806092Y6366043D01*
X39850785Y6373005D01*
X39889105Y6389302D01*
X39921542Y6417899D01*
X39948587Y6461761D01*
X39970729Y6523852D01*
X39988459Y6607137D01*
X40002267Y6714581D01*
X40012644Y6849148D01*
X40025063Y7211511D01*
X40029638Y7717944D01*
X40030292Y8392164D01*
X40029993Y8693750D01*
X40461394Y8693750D01*
X40462579Y8620606D01*
X40468162Y8547695D01*
X40478130Y8475238D01*
X40492474Y8403453D01*
X40511185Y8332561D01*
X40534251Y8262780D01*
X40561663Y8194331D01*
X40593410Y8127432D01*
X40629482Y8062304D01*
X40669869Y7999165D01*
X40714562Y7938235D01*
X40763549Y7879734D01*
X40816820Y7823882D01*
X40874366Y7770897D01*
X40936176Y7720999D01*
X41002240Y7674408D01*
X41072548Y7631344D01*
X41072548Y7631342D01*
X41156333Y7586285D01*
X41196336Y7567706D01*
X41236863Y7551539D01*
X41279252Y7537619D01*
X41324842Y7525779D01*
X41374970Y7515854D01*
X41430976Y7507677D01*
X41494196Y7501083D01*
X41565969Y7495907D01*
X41740528Y7489142D01*
X41965358Y7486056D01*
X42251163Y7485322D01*
X42555527Y7486049D01*
X42678668Y7487775D01*
X42784250Y7491136D01*
X42830879Y7493600D01*
X42873624Y7496678D01*
X42912654Y7500437D01*
X42948139Y7504945D01*
X42980247Y7510271D01*
X43009147Y7516483D01*
X43035007Y7523649D01*
X43057998Y7531837D01*
X43061708Y7533534D01*
X43122664Y7649111D01*
X43172538Y7773866D01*
X43173035Y7791941D01*
X43173260Y7857444D01*
X43171488Y7980313D01*
X43167279Y8030101D01*
X43159082Y8072891D01*
X43153072Y8091841D01*
X43145568Y8109258D01*
X43136402Y8125212D01*
X43125408Y8139776D01*
X43112420Y8153021D01*
X43097272Y8165020D01*
X43079799Y8175843D01*
X43059832Y8185564D01*
X43037208Y8194253D01*
X43011759Y8201983D01*
X42951722Y8214851D01*
X42878392Y8224743D01*
X42790441Y8232234D01*
X42686540Y8237897D01*
X42565358Y8242309D01*
X42265838Y8249673D01*
X42085499Y8254590D01*
X41923966Y8261170D01*
X41780399Y8269785D01*
X41715090Y8274972D01*
X41653956Y8280807D01*
X41596892Y8287338D01*
X41543793Y8294610D01*
X41494555Y8302670D01*
X41449071Y8311565D01*
X41407236Y8321342D01*
X41368945Y8332046D01*
X41334094Y8343725D01*
X41302576Y8356424D01*
X41274286Y8370192D01*
X41249119Y8385073D01*
X41226971Y8401116D01*
X41207735Y8418365D01*
X41191307Y8436869D01*
X41177581Y8456673D01*
X41166451Y8477824D01*
X41157814Y8500369D01*
X41151563Y8524354D01*
X41147593Y8549825D01*
X41145800Y8576831D01*
X41146077Y8605416D01*
X41148319Y8635627D01*
X41152422Y8667512D01*
X41158280Y8701116D01*
X41165788Y8736487D01*
X41177078Y8782494D01*
X41189256Y8823361D01*
X41203212Y8859455D01*
X41219834Y8891145D01*
X41240010Y8918800D01*
X41251709Y8931229D01*
X41264629Y8942788D01*
X41278882Y8953523D01*
X41294580Y8963479D01*
X41330751Y8981240D01*
X41374030Y8996441D01*
X41425306Y9009449D01*
X41485468Y9020635D01*
X41555404Y9030365D01*
X41636003Y9039010D01*
X41728153Y9046937D01*
X41950660Y9062113D01*
X42120043Y9076124D01*
X42277183Y9096555D01*
X42351240Y9109240D01*
X42422330Y9123605D01*
X42490485Y9139676D01*
X42555736Y9157476D01*
X42618114Y9177032D01*
X42677651Y9198369D01*
X42734377Y9221512D01*
X42788326Y9246485D01*
X42839527Y9273314D01*
X42888012Y9302025D01*
X42933812Y9332641D01*
X42976960Y9365189D01*
X43017485Y9399694D01*
X43055420Y9436180D01*
X43090796Y9474673D01*
X43123645Y9515198D01*
X43153997Y9557779D01*
X43181884Y9602443D01*
X43207337Y9649214D01*
X43230388Y9698118D01*
X43251068Y9749179D01*
X43269408Y9802423D01*
X43285440Y9857874D01*
X43299196Y9915559D01*
X43310706Y9975501D01*
X43320001Y10037727D01*
X43327114Y10102261D01*
X43332076Y10169129D01*
X43335380Y10333835D01*
X43325421Y10485802D01*
X43315340Y10557099D01*
X43301790Y10625321D01*
X43284722Y10690504D01*
X43264084Y10752684D01*
X43239826Y10811898D01*
X43211897Y10868182D01*
X43180246Y10921573D01*
X43144823Y10972107D01*
X43105576Y11019821D01*
X43062456Y11064751D01*
X43015411Y11106933D01*
X42964392Y11146404D01*
X42909346Y11183201D01*
X42850224Y11217359D01*
X42786974Y11248916D01*
X42719547Y11277908D01*
X42647891Y11304371D01*
X42571956Y11328341D01*
X42407046Y11368951D01*
X42224410Y11400029D01*
X42023643Y11421866D01*
X41804340Y11434755D01*
X41566095Y11438986D01*
X41251275Y11438264D01*
X41123903Y11436548D01*
X41014694Y11433207D01*
X40966464Y11430758D01*
X40922251Y11427700D01*
X40881880Y11423964D01*
X40845176Y11419483D01*
X40811965Y11414190D01*
X40782073Y11408016D01*
X40755323Y11400894D01*
X40731543Y11392757D01*
X40710557Y11383536D01*
X40692191Y11373164D01*
X40676269Y11361572D01*
X40662618Y11348695D01*
X40651063Y11334462D01*
X40641428Y11318808D01*
X40633540Y11301664D01*
X40627224Y11282963D01*
X40622305Y11262636D01*
X40618608Y11240616D01*
X40615960Y11216835D01*
X40614184Y11191226D01*
X40612554Y11134253D01*
X40612321Y11069153D01*
X40614071Y10947035D01*
X40618228Y10897541D01*
X40626322Y10854992D01*
X40632256Y10836142D01*
X40639666Y10818813D01*
X40648718Y10802933D01*
X40659574Y10788429D01*
X40672399Y10775231D01*
X40687356Y10763266D01*
X40704611Y10752462D01*
X40724327Y10742749D01*
X40746668Y10734053D01*
X40771798Y10726303D01*
X40831082Y10713354D01*
X40903492Y10703328D01*
X40990341Y10695650D01*
X41092940Y10689745D01*
X41212602Y10685039D01*
X41508367Y10676924D01*
X41680463Y10671919D01*
X41834901Y10665751D01*
X41972584Y10658109D01*
X42035426Y10653637D01*
X42094419Y10648680D01*
X42149675Y10643197D01*
X42201308Y10637150D01*
X42249431Y10630500D01*
X42294157Y10623208D01*
X42335600Y10615234D01*
X42373871Y10606539D01*
X42409084Y10597085D01*
X42441353Y10586831D01*
X42470790Y10575740D01*
X42497509Y10563772D01*
X42521621Y10550888D01*
X42543242Y10537048D01*
X42562483Y10522214D01*
X42579458Y10506347D01*
X42594279Y10489407D01*
X42607060Y10471355D01*
X42617915Y10452153D01*
X42626955Y10431760D01*
X42634294Y10410139D01*
X42640045Y10387249D01*
X42644321Y10363052D01*
X42647236Y10337509D01*
X42648902Y10310580D01*
X42649432Y10282227D01*
X42647860Y10223247D01*
X42642728Y10170154D01*
X42633405Y10122620D01*
X42626977Y10100834D01*
X42619266Y10080315D01*
X42610193Y10061020D01*
X42599681Y10042910D01*
X42587650Y10025942D01*
X42574022Y10010076D01*
X42558719Y9995270D01*
X42541662Y9981484D01*
X42522772Y9968675D01*
X42501972Y9956804D01*
X42479182Y9945829D01*
X42454324Y9935708D01*
X42398090Y9917866D01*
X42332643Y9902950D01*
X42257354Y9890629D01*
X42171594Y9880575D01*
X42074737Y9872458D01*
X41966154Y9865950D01*
X41845216Y9860721D01*
X41653528Y9852675D01*
X41572356Y9848222D01*
X41499786Y9843222D01*
X41434935Y9837481D01*
X41376917Y9830803D01*
X41324849Y9822995D01*
X41277847Y9813861D01*
X41255970Y9808736D01*
X41235027Y9803207D01*
X41214908Y9797248D01*
X41195504Y9790837D01*
X41176702Y9783948D01*
X41158394Y9776557D01*
X41140468Y9768640D01*
X41122813Y9760172D01*
X41087877Y9741487D01*
X41052702Y9720308D01*
X41016404Y9696440D01*
X40978098Y9669688D01*
X40912117Y9619379D01*
X40850684Y9566012D01*
X40793791Y9509805D01*
X40741426Y9450978D01*
X40693579Y9389751D01*
X40650241Y9326343D01*
X40611401Y9260974D01*
X40577049Y9193863D01*
X40547175Y9125229D01*
X40521768Y9055293D01*
X40500819Y8984273D01*
X40484317Y8912389D01*
X40472252Y8839861D01*
X40464615Y8766908D01*
X40461394Y8693750D01*
X40029993Y8693750D01*
X40029586Y9104050D01*
X40028162Y9391942D01*
X40025544Y9637917D01*
X40021369Y9844565D01*
X40018586Y9933950D01*
X40015279Y10014473D01*
X40011402Y10086458D01*
X40006910Y10150229D01*
X40001760Y10206110D01*
X39995904Y10254423D01*
X39989299Y10295493D01*
X39981899Y10329642D01*
X39977887Y10344223D01*
X39973659Y10357195D01*
X39969210Y10368599D01*
X39964534Y10378475D01*
X39959625Y10386863D01*
X39954478Y10393805D01*
X39949088Y10399340D01*
X39943448Y10403509D01*
X39937553Y10406352D01*
X39931397Y10407911D01*
X39924975Y10408224D01*
X39918281Y10407334D01*
X39911309Y10405279D01*
X39904054Y10402101D01*
X39896510Y10397840D01*
X39888671Y10392537D01*
X39872088Y10378965D01*
X39854258Y10361707D01*
X39835138Y10341089D01*
X39814682Y10317433D01*
X39769580Y10262302D01*
X39745263Y10232150D01*
X39723693Y10205921D01*
X39704435Y10183531D01*
X39687056Y10164893D01*
X39678935Y10156955D01*
X39671120Y10149924D01*
X39663558Y10143788D01*
X39656193Y10138536D01*
X39648972Y10134160D01*
X39641840Y10130647D01*
X39634743Y10127987D01*
X39627627Y10126169D01*
X39620437Y10125183D01*
X39613119Y10125019D01*
X39605619Y10125664D01*
X39597882Y10127110D01*
X39589854Y10129345D01*
X39581481Y10132358D01*
X39572708Y10136139D01*
X39563481Y10140678D01*
X39553746Y10145963D01*
X39543448Y10151984D01*
X39520948Y10166191D01*
X39495545Y10183214D01*
X39466805Y10202969D01*
X39369254Y10266219D01*
X39271338Y10321728D01*
X39173282Y10369617D01*
X39075312Y10410012D01*
X38977651Y10443035D01*
X38880526Y10468810D01*
X38784159Y10487461D01*
X38688777Y10499112D01*
X38594604Y10503885D01*
X38501865Y10501905D01*
X38410784Y10493296D01*
X38321587Y10478180D01*
X38234498Y10456682D01*
X38149742Y10428925D01*
X38067544Y10395033D01*
X37988129Y10355129D01*
X37911720Y10309338D01*
X37838544Y10257782D01*
X37768825Y10200585D01*
X37702787Y10137871D01*
X37640656Y10069763D01*
X37582657Y9996386D01*
X37529013Y9917863D01*
X37479950Y9834316D01*
X37435693Y9745871D01*
X37396466Y9652651D01*
X37362495Y9554779D01*
X37334003Y9452378D01*
X37311217Y9345573D01*
X37294360Y9234487D01*
X37283657Y9119244D01*
X37279334Y8999968D01*
X36829057Y8999968D01*
X36828457Y9448925D01*
X36826905Y9646624D01*
X36823881Y9816036D01*
X36821665Y9890804D01*
X36818897Y9959304D01*
X36815517Y10021803D01*
X36811462Y10078569D01*
X36806672Y10129871D01*
X36801086Y10175975D01*
X36794641Y10217149D01*
X36787277Y10253662D01*
X36778933Y10285780D01*
X36769547Y10313772D01*
X36759058Y10337905D01*
X36753381Y10348609D01*
X36747405Y10358448D01*
X36741123Y10367456D01*
X36734526Y10375667D01*
X36727608Y10383114D01*
X36720361Y10389831D01*
X36712776Y10395850D01*
X36704847Y10401207D01*
X36696565Y10405933D01*
X36687924Y10410063D01*
X36669530Y10416667D01*
X36649604Y10421286D01*
X36628085Y10424189D01*
X36604911Y10425643D01*
X36580021Y10425915D01*
X36553355Y10425274D01*
X36494445Y10422323D01*
X36383978Y10413291D01*
X36339284Y10404082D01*
X36300964Y10388889D01*
X36268527Y10365569D01*
X36241482Y10331980D01*
X36219339Y10285981D01*
X36201609Y10225429D01*
X36187801Y10148184D01*
X36177424Y10052102D01*
X36169988Y9935042D01*
X36165004Y9794862D01*
X36160429Y9436574D01*
X36159775Y8960102D01*
X36159771Y8960102D01*
X35606841Y8960102D01*
X35606424Y9229984D01*
X35605014Y9472327D01*
X35602400Y9685189D01*
X35598365Y9869756D01*
X35592695Y10027214D01*
X35589178Y10096149D01*
X35585171Y10158751D01*
X35580648Y10215169D01*
X35575580Y10265551D01*
X35569941Y10310046D01*
X35563704Y10348802D01*
X35556842Y10381967D01*
X35549327Y10409689D01*
X35541134Y10432117D01*
X35536774Y10441392D01*
X35532234Y10449399D01*
X35527511Y10456157D01*
X35522601Y10461684D01*
X35517501Y10465998D01*
X35512208Y10469119D01*
X35506718Y10471064D01*
X35501028Y10471852D01*
X35495134Y10471502D01*
X35489034Y10470033D01*
X35482723Y10467462D01*
X35476198Y10463809D01*
X35462494Y10453329D01*
X35447895Y10438741D01*
X35432374Y10420193D01*
X35415903Y10397834D01*
X35398457Y10371811D01*
X35380007Y10342274D01*
X35360526Y10309370D01*
X35352439Y10296106D01*
X35343988Y10283593D01*
X35335197Y10271833D01*
X35326087Y10260829D01*
X35316680Y10250583D01*
X35306999Y10241098D01*
X35297064Y10232377D01*
X35286899Y10224422D01*
X35276525Y10217236D01*
X35265964Y10210821D01*
X35255238Y10205181D01*
X35244370Y10200317D01*
X35233380Y10196232D01*
X35222291Y10192930D01*
X35211126Y10190412D01*
X35199905Y10188681D01*
X35188651Y10187739D01*
X35177387Y10187591D01*
X35166133Y10188237D01*
X35154912Y10189681D01*
X35143747Y10191925D01*
X35132658Y10194972D01*
X35121668Y10198824D01*
X35110799Y10203484D01*
X35100073Y10208955D01*
X35089511Y10215239D01*
X35079137Y10222340D01*
X35068971Y10230258D01*
X35059036Y10238998D01*
X35049354Y10248562D01*
X35039946Y10258952D01*
X35030836Y10270170D01*
X35009028Y10295931D01*
X34984702Y10319935D01*
X34957986Y10342184D01*
X34929009Y10362682D01*
X34897899Y10381432D01*
X34864786Y10398438D01*
X34829797Y10413702D01*
X34793061Y10427227D01*
X34714865Y10449075D01*
X34631226Y10464006D01*
X34543175Y10472046D01*
X34451741Y10473219D01*
X34357953Y10467550D01*
X34262841Y10455064D01*
X34167433Y10435787D01*
X34072761Y10409744D01*
X33979852Y10376958D01*
X33889737Y10337456D01*
X33803444Y10291262D01*
X33722004Y10238402D01*
X33643164Y10179437D01*
X33572278Y10120117D01*
X33508915Y10059052D01*
X33452642Y9994851D01*
X33403025Y9926125D01*
X33359633Y9851482D01*
X33322033Y9769531D01*
X33289792Y9678884D01*
X33262477Y9578148D01*
X33239655Y9465934D01*
X33220894Y9340852D01*
X33205762Y9201510D01*
X33193824Y9046518D01*
X33184650Y8874486D01*
X33172858Y8473740D01*
X33167423Y8147486D01*
X33166583Y8015488D01*
X32692367Y8015488D01*
X32691439Y8118766D01*
X32688125Y8254089D01*
X32678438Y8464266D01*
X32660849Y8658082D01*
X32648996Y8748976D01*
X32635052Y8835924D01*
X32618981Y8918976D01*
X32600743Y8998179D01*
X32580301Y9073582D01*
X32557617Y9145232D01*
X32532652Y9213180D01*
X32505369Y9277471D01*
X32475730Y9338156D01*
X32443696Y9395282D01*
X32409229Y9448897D01*
X32372291Y9499051D01*
X32332845Y9545790D01*
X32290851Y9589164D01*
X32246273Y9629221D01*
X32199071Y9666009D01*
X32149209Y9699576D01*
X32096647Y9729971D01*
X32041348Y9757242D01*
X31983273Y9781437D01*
X31922385Y9802605D01*
X31858645Y9820793D01*
X31792016Y9836051D01*
X31722459Y9848427D01*
X31649936Y9857968D01*
X31574409Y9864723D01*
X31495840Y9868741D01*
X31414192Y9870070D01*
X31332996Y9870907D01*
X31260181Y9873631D01*
X31195360Y9878560D01*
X31165826Y9881950D01*
X31138144Y9886011D01*
X31112266Y9890782D01*
X31088143Y9896302D01*
X31065727Y9902612D01*
X31044969Y9909751D01*
X31025821Y9917759D01*
X31008234Y9926676D01*
X30992159Y9936542D01*
X30977548Y9947395D01*
X30964351Y9959276D01*
X30952522Y9972225D01*
X30942010Y9986281D01*
X30932768Y10001485D01*
X30924747Y10017875D01*
X30917898Y10035491D01*
X30912172Y10054374D01*
X30907521Y10074563D01*
X30903897Y10096097D01*
X30901251Y10119017D01*
X30899533Y10143362D01*
X30898697Y10169172D01*
X30899471Y10225346D01*
X30903184Y10287855D01*
X30909531Y10348008D01*
X30919362Y10401922D01*
X30933469Y10449925D01*
X30952648Y10492344D01*
X30964387Y10511563D01*
X30977692Y10529508D01*
X30992661Y10546220D01*
X31009395Y10561742D01*
X31027991Y10576113D01*
X31048550Y10589374D01*
X31071170Y10601567D01*
X31095952Y10612732D01*
X31152394Y10632142D01*
X31218670Y10647933D01*
X31295573Y10660430D01*
X31383899Y10669963D01*
X31484440Y10676856D01*
X31597990Y10681439D01*
X31867293Y10684981D01*
X32083423Y10686034D01*
X32170867Y10687932D01*
X32245841Y10691494D01*
X32278952Y10694074D01*
X32309305Y10697281D01*
X32337021Y10701184D01*
X32362218Y10705855D01*
X32385018Y10711362D01*
X32405540Y10717778D01*
X32423904Y10725170D01*
X32440230Y10733611D01*
X32454637Y10743170D01*
X32467246Y10753916D01*
X32478177Y10765922D01*
X32487548Y10779256D01*
X32495481Y10793989D01*
X32502096Y10810191D01*
X32507511Y10827933D01*
X32511847Y10847284D01*
X32515224Y10868315D01*
X32517762Y10891096D01*
X32520799Y10942189D01*
X32521918Y11001124D01*
X32522078Y11068464D01*
X32520496Y11194695D01*
X32518332Y11224065D01*
X36060481Y11224065D01*
X36062247Y11194634D01*
X36065837Y11165313D01*
X36071266Y11136192D01*
X36078548Y11107358D01*
X36087696Y11078901D01*
X36098724Y11050908D01*
X36111647Y11023470D01*
X36126477Y10996673D01*
X36143228Y10970608D01*
X36161914Y10945362D01*
X36182549Y10921024D01*
X36205147Y10897682D01*
X36229721Y10875426D01*
X36229721Y10875425D01*
X36248442Y10860069D01*
X36267159Y10845761D01*
X36285866Y10832501D01*
X36304558Y10820289D01*
X36323230Y10809123D01*
X36341879Y10799005D01*
X36360498Y10789934D01*
X36379084Y10781909D01*
X36397631Y10774931D01*
X36416135Y10768998D01*
X36434591Y10764112D01*
X36452995Y10760271D01*
X36471341Y10757476D01*
X36489624Y10755726D01*
X36507841Y10755021D01*
X36525985Y10755361D01*
X36544054Y10756745D01*
X36562040Y10759173D01*
X36579941Y10762646D01*
X36597751Y10767163D01*
X36615465Y10772723D01*
X36633079Y10779327D01*
X36650588Y10786973D01*
X36667987Y10795663D01*
X36685271Y10805395D01*
X36702436Y10816170D01*
X36719477Y10827988D01*
X36736389Y10840847D01*
X36753167Y10854748D01*
X36769806Y10869691D01*
X36786302Y10885675D01*
X36802651Y10902700D01*
X36832390Y10937616D01*
X36858206Y10973794D01*
X36880208Y11011040D01*
X36898507Y11049161D01*
X36913214Y11087963D01*
X36924437Y11127252D01*
X36932289Y11166837D01*
X36936879Y11206522D01*
X36938318Y11246115D01*
X36936716Y11285422D01*
X36932183Y11324250D01*
X36924830Y11362405D01*
X36914767Y11399694D01*
X36902104Y11435924D01*
X36886952Y11470901D01*
X36869421Y11504432D01*
X36849622Y11536323D01*
X36827665Y11566382D01*
X36803660Y11594413D01*
X36777717Y11620225D01*
X36749947Y11643624D01*
X36720461Y11664416D01*
X36689368Y11682409D01*
X36656779Y11697407D01*
X36622805Y11709219D01*
X36587555Y11717651D01*
X36551141Y11722509D01*
X36513671Y11723600D01*
X36475258Y11720731D01*
X36436011Y11713707D01*
X36396040Y11702337D01*
X36355456Y11686425D01*
X36325153Y11671728D01*
X36296414Y11655458D01*
X36269253Y11637704D01*
X36243684Y11618554D01*
X36219720Y11598096D01*
X36197375Y11576420D01*
X36176663Y11553615D01*
X36157598Y11529768D01*
X36140193Y11504968D01*
X36124462Y11479304D01*
X36110418Y11452865D01*
X36098077Y11425738D01*
X36087450Y11398014D01*
X36078553Y11369780D01*
X36071398Y11341125D01*
X36066000Y11312137D01*
X36062372Y11282905D01*
X36060528Y11253519D01*
X36060481Y11224065D01*
X32518332Y11224065D01*
X32516739Y11245683D01*
X32509422Y11289291D01*
X32504059Y11308492D01*
X32497360Y11326046D01*
X32489178Y11342020D01*
X32479365Y11356478D01*
X32467773Y11369489D01*
X32454252Y11381116D01*
X32438655Y11391427D01*
X32420834Y11400488D01*
X32400639Y11408364D01*
X32377923Y11415122D01*
X32324335Y11425547D01*
X32258882Y11432292D01*
X32180378Y11435885D01*
X32087636Y11436856D01*
X31979471Y11435731D01*
X31712122Y11429313D01*
X31545629Y11423438D01*
X31393685Y11414868D01*
X31255376Y11403186D01*
X31191049Y11396048D01*
X31129787Y11387977D01*
X31071476Y11378919D01*
X31016002Y11368823D01*
X30963251Y11357638D01*
X30913108Y11345310D01*
X30865459Y11331788D01*
X30820189Y11317021D01*
X30777185Y11300956D01*
X30736332Y11283540D01*
X30697515Y11264723D01*
X30660620Y11244452D01*
X30625534Y11222675D01*
X30592140Y11199340D01*
X30560326Y11174395D01*
X30529977Y11147788D01*
X30500978Y11119467D01*
X30473216Y11089380D01*
X30446575Y11057475D01*
X30420942Y11023700D01*
X30396202Y10988003D01*
X30372240Y10950333D01*
X30348944Y10910636D01*
X30326197Y10868861D01*
X30303886Y10824957D01*
X30281897Y10778870D01*
X30248316Y10700834D01*
X30219962Y10623154D01*
X30196753Y10545954D01*
X30178608Y10469358D01*
X30165447Y10393489D01*
X30157190Y10318471D01*
X30153755Y10244426D01*
X29610386Y10244426D01*
X29609514Y10381313D01*
X29606228Y10608181D01*
X29603819Y10708324D01*
X29600810Y10800085D01*
X29597136Y10883825D01*
X29592729Y10959903D01*
X29587522Y11028679D01*
X29581450Y11090511D01*
X29574445Y11145761D01*
X29566440Y11194787D01*
X29557371Y11237950D01*
X29547168Y11275608D01*
X29535767Y11308122D01*
X29529596Y11322562D01*
X29523101Y11335851D01*
X29516272Y11348034D01*
X29509102Y11359155D01*
X29501582Y11369260D01*
X29493704Y11378393D01*
X29485460Y11386600D01*
X29476841Y11393925D01*
X29467839Y11400414D01*
X29458446Y11406112D01*
X29448654Y11411062D01*
X29438453Y11415311D01*
X29416794Y11421883D01*
X29393403Y11426188D01*
X29368214Y11428586D01*
X29341160Y11429435D01*
X29312175Y11429096D01*
X29248142Y11426291D01*
X29128081Y11418325D01*
X29079503Y11411557D01*
X29037848Y11401096D01*
X29019450Y11394050D01*
X29002583Y11385565D01*
X28987179Y11375469D01*
X28973172Y11363589D01*
X28960495Y11349752D01*
X28949082Y11333788D01*
X28938866Y11315525D01*
X28929779Y11294788D01*
X28914730Y11245211D01*
X28903399Y11183681D01*
X28895254Y11108819D01*
X28889760Y11019250D01*
X28886383Y10913597D01*
X28884590Y10790483D01*
X28883617Y10486364D01*
X28882799Y10300587D01*
X28880748Y10125885D01*
X28877600Y9966180D01*
X28873494Y9825396D01*
X28868565Y9707455D01*
X28862952Y9616281D01*
X28859931Y9581957D01*
X28856790Y9555796D01*
X28853546Y9538288D01*
X28850217Y9529924D01*
X28848034Y9528878D01*
X28844867Y9529347D01*
X28835695Y9534690D01*
X28822917Y9545673D01*
X28806751Y9562016D01*
X28765118Y9609669D01*
X28712532Y9675413D01*
X28650726Y9757015D01*
X28581436Y9852242D01*
X28506395Y9958858D01*
X28427339Y10074630D01*
X28111694Y10543792D01*
X27984589Y10731347D01*
X27875016Y10890629D01*
X27780768Y11023944D01*
X27738700Y11081586D01*
X27699635Y11133601D01*
X27663297Y11180279D01*
X27629409Y11221908D01*
X27597696Y11258776D01*
X27567881Y11291172D01*
X27539689Y11319384D01*
X27512842Y11343701D01*
X27487066Y11364412D01*
X27462083Y11381804D01*
X27437619Y11396166D01*
X27413396Y11407787D01*
X27389139Y11416955D01*
X27364571Y11423959D01*
X27339417Y11429087D01*
X27313401Y11432627D01*
X27286245Y11434869D01*
X27257675Y11436100D01*
X27123724Y11436689D01*
X26974814Y11437981D01*
X26916669Y11436611D01*
X26869765Y11431962D01*
X26850613Y11427954D01*
X26834375Y11422582D01*
X26821085Y11415663D01*
X26810777Y11407017D01*
X26803485Y11396462D01*
X26799243Y11383816D01*
X26798087Y11368898D01*
X26644732Y11368898D01*
X26654678Y12372245D01*
X28847206Y12372245D01*
X28850267Y12311098D01*
X28858018Y12242668D01*
X28870187Y12166525D01*
X28886500Y12082238D01*
X28886500Y12082243D01*
X28891546Y12060023D01*
X28897192Y12040247D01*
X28903761Y12022781D01*
X28911576Y12007493D01*
X28916052Y12000624D01*
X28920961Y11994251D01*
X28926342Y11988356D01*
X28932237Y11982923D01*
X28938686Y11977936D01*
X28945729Y11973378D01*
X28953407Y11969232D01*
X28961759Y11965482D01*
X28980651Y11959105D01*
X29002726Y11954113D01*
X29028310Y11950375D01*
X29057723Y11947758D01*
X29091291Y11946131D01*
X29129334Y11945361D01*
X29220144Y11945865D01*
X29389384Y11954618D01*
X29469763Y11963492D01*
X29547322Y11975375D01*
X29622070Y11990275D01*
X29694012Y12008200D01*
X29763154Y12029156D01*
X29829505Y12053153D01*
X29893069Y12080197D01*
X29953854Y12110297D01*
X30011866Y12143459D01*
X30067113Y12179693D01*
X30119600Y12219005D01*
X30169334Y12261403D01*
X30216322Y12306896D01*
X30260571Y12355490D01*
X30302087Y12407194D01*
X30340876Y12462015D01*
X30376945Y12519960D01*
X30410302Y12581039D01*
X30440952Y12645258D01*
X30468902Y12712625D01*
X30494158Y12783148D01*
X30516728Y12856835D01*
X30536618Y12933693D01*
X30553835Y13013731D01*
X30580274Y13183373D01*
X30596099Y13365825D01*
X30601362Y13561147D01*
X30601703Y13751395D01*
X30602513Y13828367D01*
X30604090Y13894362D01*
X30605247Y13923508D01*
X30606691Y13950227D01*
X30608454Y13974623D01*
X30610570Y13996804D01*
X30613069Y14016873D01*
X30615984Y14034938D01*
X30619346Y14051102D01*
X30623188Y14065473D01*
X30627542Y14078155D01*
X30632439Y14089254D01*
X30637911Y14098875D01*
X30643991Y14107125D01*
X30650711Y14114108D01*
X30658102Y14119930D01*
X30666196Y14124697D01*
X30675025Y14128514D01*
X30684622Y14131486D01*
X30695019Y14133720D01*
X30706246Y14135321D01*
X30718337Y14136394D01*
X30731323Y14137044D01*
X30745236Y14137379D01*
X30775972Y14137519D01*
X30833607Y14138255D01*
X30856925Y14140001D01*
X30876918Y14143403D01*
X30885748Y14145896D01*
X30893842Y14149010D01*
X30901233Y14152814D01*
X30907952Y14157376D01*
X30914032Y14162765D01*
X30919505Y14169051D01*
X30924402Y14176302D01*
X30928755Y14184587D01*
X30932597Y14193975D01*
X30935960Y14204535D01*
X30941374Y14229448D01*
X30945253Y14259876D01*
X30947853Y14296372D01*
X30949430Y14339486D01*
X30950240Y14389771D01*
X30950280Y14404311D01*
X31186827Y14404311D01*
X31186961Y14378128D01*
X31188204Y14353909D01*
X31190617Y14331572D01*
X31194261Y14311033D01*
X31199197Y14292210D01*
X31205487Y14275021D01*
X31213192Y14259381D01*
X31222372Y14245208D01*
X31233090Y14232420D01*
X31245406Y14220932D01*
X31259382Y14210664D01*
X31275078Y14201530D01*
X31292556Y14193450D01*
X31311877Y14186339D01*
X31333102Y14180115D01*
X31356293Y14174694D01*
X31381510Y14169995D01*
X31408815Y14165934D01*
X31469934Y14159394D01*
X31540138Y14154412D01*
X31619916Y14150323D01*
X31739763Y14144296D01*
X31845006Y14136707D01*
X31936631Y14125861D01*
X32015625Y14110064D01*
X32050692Y14099779D01*
X32082971Y14087621D01*
X32112585Y14073378D01*
X32139657Y14056838D01*
X32164310Y14037789D01*
X32186668Y14016019D01*
X32206853Y13991317D01*
X32224988Y13963471D01*
X32241198Y13932269D01*
X32255605Y13897499D01*
X32268333Y13858950D01*
X32279504Y13816409D01*
X32297669Y13718505D01*
X32311088Y13602094D01*
X32320745Y13465481D01*
X32327626Y13306971D01*
X32337004Y12917483D01*
X32343757Y12595180D01*
X32347668Y12464780D01*
X32352571Y12352975D01*
X32355542Y12303599D01*
X32358940Y12258334D01*
X32362823Y12217003D01*
X32367252Y12179427D01*
X32372286Y12145427D01*
X32377984Y12114823D01*
X32384405Y12087438D01*
X32391610Y12063093D01*
X32399658Y12041608D01*
X32408608Y12022805D01*
X32418520Y12006505D01*
X32429453Y11992529D01*
X32441467Y11980699D01*
X32454621Y11970836D01*
X32468975Y11962760D01*
X32484589Y11956294D01*
X32501521Y11951258D01*
X32519831Y11947473D01*
X32539580Y11944762D01*
X32560825Y11942944D01*
X32608047Y11941275D01*
X32661971Y11941037D01*
X32795961Y11939900D01*
X32849363Y11942470D01*
X32894601Y11950680D01*
X32932350Y11967191D01*
X32948626Y11979391D01*
X32963283Y11994664D01*
X32988072Y12035759D01*
X33007393Y12093137D01*
X33021918Y12169460D01*
X33032320Y12267387D01*
X33039275Y12389579D01*
X33043454Y12538698D01*
X33046183Y12928358D01*
X33045957Y13343620D01*
X33455653Y13343620D01*
X33457144Y13085736D01*
X33459362Y12858372D01*
X33462630Y12660177D01*
X33467273Y12489799D01*
X33470211Y12414620D01*
X33473613Y12345888D01*
X33477521Y12283436D01*
X33481975Y12227094D01*
X33487014Y12176693D01*
X33492681Y12132064D01*
X33499014Y12093039D01*
X33506056Y12059449D01*
X33513845Y12031125D01*
X33522422Y12007897D01*
X33527019Y11998142D01*
X33531829Y11989598D01*
X33536855Y11982244D01*
X33542104Y11976058D01*
X33547581Y11971020D01*
X33553290Y11967109D01*
X33559236Y11964303D01*
X33565426Y11962581D01*
X33571863Y11961923D01*
X33578552Y11962306D01*
X33585499Y11963711D01*
X33592710Y11966115D01*
X33600188Y11969499D01*
X33607939Y11973839D01*
X33624280Y11985310D01*
X33641773Y12000357D01*
X33660460Y12018813D01*
X33680380Y12040509D01*
X33701573Y12065276D01*
X33747944Y12123346D01*
X33800566Y12190137D01*
X33823075Y12216419D01*
X33843973Y12237979D01*
X33854036Y12246994D01*
X33863956Y12254835D01*
X33873822Y12261503D01*
X33883719Y12267001D01*
X33893734Y12271330D01*
X33903954Y12274493D01*
X33914467Y12276492D01*
X33925358Y12277329D01*
X33936714Y12277005D01*
X33948623Y12275523D01*
X33961171Y12272885D01*
X33974445Y12269092D01*
X33988531Y12264147D01*
X34003517Y12258052D01*
X34036535Y12242418D01*
X34074192Y12222208D01*
X34117182Y12197436D01*
X34221942Y12134272D01*
X34221946Y12134264D01*
X34311570Y12083199D01*
X34401212Y12038928D01*
X34490699Y12001345D01*
X34579854Y11970345D01*
X34668504Y11945823D01*
X34756473Y11927673D01*
X34843587Y11915789D01*
X34929671Y11910067D01*
X35014550Y11910400D01*
X35098050Y11916684D01*
X35179996Y11928813D01*
X35260212Y11946681D01*
X35338526Y11970184D01*
X35414760Y11999216D01*
X35488742Y12033671D01*
X35560296Y12073444D01*
X35629248Y12118429D01*
X35695422Y12168522D01*
X35758644Y12223617D01*
X35818739Y12283608D01*
X35875533Y12348390D01*
X35928851Y12417858D01*
X35978517Y12491906D01*
X36013662Y12552106D01*
X36657709Y12552106D01*
X36658574Y12420456D01*
X36659850Y12362365D01*
X36661766Y12309153D01*
X36664380Y12260615D01*
X36667752Y12216541D01*
X36671940Y12176725D01*
X36677002Y12140959D01*
X36682998Y12109037D01*
X36689985Y12080750D01*
X36698023Y12055891D01*
X36707170Y12034254D01*
X36717484Y12015631D01*
X36729025Y11999814D01*
X36741850Y11986596D01*
X36756020Y11975769D01*
X36771591Y11967128D01*
X36788623Y11960463D01*
X36807174Y11955568D01*
X36827304Y11952236D01*
X36849070Y11950259D01*
X36872531Y11949429D01*
X36897746Y11949540D01*
X36924773Y11950385D01*
X36984499Y11953443D01*
X37096562Y11961763D01*
X37142014Y11969184D01*
X37181131Y11980873D01*
X37198483Y11988810D01*
X37214453Y11998403D01*
X37229111Y12009849D01*
X37242522Y12023344D01*
X37254754Y12039084D01*
X37265875Y12057267D01*
X37285053Y12101744D01*
X37300595Y12158345D01*
X37313042Y12228642D01*
X37322932Y12314206D01*
X37330806Y12416608D01*
X37342664Y12678211D01*
X37352931Y13026020D01*
X37358652Y13226403D01*
X37364364Y13402547D01*
X37370541Y13556016D01*
X37377660Y13688374D01*
X37381721Y13747125D01*
X37386196Y13801184D01*
X37391144Y13850748D01*
X37396624Y13896012D01*
X37402696Y13937171D01*
X37409420Y13974421D01*
X37416854Y14007957D01*
X37425059Y14037975D01*
X37434093Y14064670D01*
X37444016Y14088238D01*
X37454888Y14108874D01*
X37466768Y14126774D01*
X37479715Y14142133D01*
X37493789Y14155147D01*
X37509049Y14166011D01*
X37525555Y14174921D01*
X37543366Y14182072D01*
X37562541Y14187661D01*
X37583140Y14191881D01*
X37605223Y14194929D01*
X37628849Y14197001D01*
X37654076Y14198292D01*
X37709576Y14199311D01*
X37758421Y14197945D01*
X37801985Y14192378D01*
X37840614Y14181376D01*
X37874656Y14163707D01*
X37904455Y14138138D01*
X37930360Y14103436D01*
X37952715Y14058367D01*
X37971868Y14001699D01*
X37988165Y13932199D01*
X38001952Y13848634D01*
X38013576Y13749771D01*
X38023383Y13634377D01*
X38038932Y13349064D01*
X38051371Y12982832D01*
X38061559Y12649279D01*
X38066827Y12514257D01*
X38072852Y12398393D01*
X38076297Y12347175D01*
X38080111Y12300182D01*
X38084354Y12257224D01*
X38089084Y12218114D01*
X38094364Y12182663D01*
X38100251Y12150683D01*
X38106807Y12121986D01*
X38114090Y12096382D01*
X38122162Y12073684D01*
X38131081Y12053702D01*
X38140909Y12036250D01*
X38151703Y12021137D01*
X38163526Y12008176D01*
X38176436Y11997179D01*
X38190493Y11987956D01*
X38205757Y11980320D01*
X38222289Y11974081D01*
X38240148Y11969053D01*
X38259393Y11965045D01*
X38280086Y11961870D01*
X38302285Y11959339D01*
X38326051Y11957264D01*
X38378523Y11953728D01*
X38501295Y11947961D01*
X38550879Y11949925D01*
X38593335Y11957439D01*
X38612064Y11963820D01*
X38629219Y11972241D01*
X38644870Y11982918D01*
X38659086Y11996070D01*
X38671937Y12011912D01*
X38683492Y12030663D01*
X38702991Y12077759D01*
X38718140Y12139097D01*
X38729494Y12216414D01*
X38737608Y12311450D01*
X38743037Y12425942D01*
X38748063Y12720248D01*
X38749015Y13113240D01*
X38749628Y13287253D01*
X38751380Y13441848D01*
X38754637Y13578157D01*
X38759764Y13697309D01*
X38763143Y13750805D01*
X38767125Y13800435D01*
X38771757Y13846340D01*
X38777085Y13888663D01*
X38783154Y13927545D01*
X38790009Y13963126D01*
X38797696Y13995548D01*
X38806261Y14024952D01*
X38815750Y14051480D01*
X38826207Y14075272D01*
X38837679Y14096470D01*
X38850211Y14115216D01*
X38863849Y14131650D01*
X38878638Y14145914D01*
X38894625Y14158149D01*
X38911853Y14168497D01*
X38930370Y14177098D01*
X38950221Y14184093D01*
X38971450Y14189625D01*
X38994105Y14193835D01*
X39018230Y14196863D01*
X39043872Y14198851D01*
X39071075Y14199940D01*
X39099885Y14200272D01*
X39154018Y14198216D01*
X39202349Y14191276D01*
X39245197Y14178290D01*
X39282881Y14158098D01*
X39315719Y14129539D01*
X39344030Y14091451D01*
X39368133Y14042675D01*
X39388345Y13982050D01*
X39404986Y13908415D01*
X39418375Y13820608D01*
X39428830Y13717470D01*
X39436669Y13597840D01*
X39442212Y13460556D01*
X39445776Y13304458D01*
X39448245Y12931177D01*
X39448245Y12931163D01*
X39448852Y12604339D01*
X39450292Y12472111D01*
X39453096Y12358738D01*
X39455151Y12308669D01*
X39457719Y12262770D01*
X39460854Y12220859D01*
X39464615Y12182756D01*
X39469058Y12148279D01*
X39474240Y12117246D01*
X39480218Y12089477D01*
X39487048Y12064790D01*
X39494787Y12043004D01*
X39503493Y12023937D01*
X39513222Y12007409D01*
X39524031Y11993237D01*
X39535977Y11981241D01*
X39549116Y11971239D01*
X39563506Y11963051D01*
X39579203Y11956494D01*
X39596264Y11951387D01*
X39614747Y11947549D01*
X39634707Y11944800D01*
X39656201Y11942956D01*
X39704022Y11941264D01*
X39758664Y11941023D01*
X39894820Y11940292D01*
X39949143Y11943122D01*
X39995185Y11951407D01*
X40033612Y11967644D01*
X40050179Y11979523D01*
X40065092Y11994326D01*
X40078434Y12012364D01*
X40090290Y12033949D01*
X40109875Y12089008D01*
X40124511Y12161997D01*
X40134867Y12255411D01*
X40141609Y12371746D01*
X40145404Y12513495D01*
X40146818Y12883219D01*
X40145971Y13062065D01*
X40414473Y13062065D01*
X40420267Y12970376D01*
X40434542Y12879079D01*
X40457446Y12788604D01*
X40489130Y12699381D01*
X40529741Y12611839D01*
X40579429Y12526410D01*
X40638342Y12443521D01*
X40706629Y12363603D01*
X40784439Y12287087D01*
X40871922Y12214400D01*
X40969225Y12145974D01*
X41076497Y12082238D01*
X41076497Y12082241D01*
X41112045Y12065361D01*
X41154798Y12049376D01*
X41259783Y12020139D01*
X41387177Y11994615D01*
X41532707Y11972891D01*
X41692099Y11955056D01*
X41861079Y11941194D01*
X42035372Y11931394D01*
X42210705Y11925743D01*
X42382805Y11924327D01*
X42547395Y11927233D01*
X42700204Y11934548D01*
X42836956Y11946360D01*
X42953378Y11962754D01*
X43045196Y11983819D01*
X43080543Y11996130D01*
X43108136Y12009640D01*
X43127440Y12024362D01*
X43137923Y12040306D01*
X43170865Y12138375D01*
X43195643Y12226269D01*
X43211519Y12304555D01*
X43215889Y12340272D01*
X43217758Y12373798D01*
X43217033Y12405206D01*
X43213624Y12434564D01*
X43207436Y12461946D01*
X43198380Y12487420D01*
X43186362Y12511058D01*
X43171291Y12532930D01*
X43153075Y12553108D01*
X43131622Y12571662D01*
X43106839Y12588663D01*
X43078634Y12604181D01*
X43046917Y12618287D01*
X43011594Y12631052D01*
X42972574Y12642547D01*
X42929765Y12652843D01*
X42832410Y12670118D01*
X42718794Y12683445D01*
X42588182Y12693388D01*
X42439835Y12700513D01*
X42273020Y12705388D01*
X42095850Y12709838D01*
X41938653Y12715119D01*
X41800249Y12721687D01*
X41679460Y12730005D01*
X41625303Y12734962D01*
X41575108Y12740530D01*
X41528727Y12746764D01*
X41486013Y12753722D01*
X41446819Y12761461D01*
X41410997Y12770040D01*
X41378401Y12779516D01*
X41348882Y12789945D01*
X41322294Y12801386D01*
X41298489Y12813895D01*
X41277320Y12827531D01*
X41258639Y12842350D01*
X41242299Y12858411D01*
X41228153Y12875770D01*
X41216054Y12894485D01*
X41205854Y12914613D01*
X41197405Y12936212D01*
X41190561Y12959339D01*
X41185174Y12984052D01*
X41181097Y13010408D01*
X41178183Y13038465D01*
X41176283Y13068279D01*
X41174941Y13133412D01*
X41176434Y13190886D01*
X41181182Y13242764D01*
X41189589Y13289287D01*
X41195291Y13310616D01*
X41202058Y13330697D01*
X41209942Y13349560D01*
X41218992Y13367235D01*
X41229260Y13383752D01*
X41240795Y13399142D01*
X41253648Y13413434D01*
X41267870Y13426660D01*
X41283510Y13438848D01*
X41300620Y13450029D01*
X41319249Y13460234D01*
X41339448Y13469492D01*
X41361268Y13477834D01*
X41384759Y13485290D01*
X41436955Y13497664D01*
X41496439Y13506856D01*
X41563615Y13513106D01*
X41638887Y13516656D01*
X41722657Y13517748D01*
X41815329Y13516623D01*
X41909261Y13515987D01*
X42000532Y13518279D01*
X42089107Y13523470D01*
X42174954Y13531532D01*
X42258038Y13542436D01*
X42338327Y13556154D01*
X42415787Y13572658D01*
X42490384Y13591918D01*
X42562085Y13613908D01*
X42630857Y13638597D01*
X42696665Y13665958D01*
X42759477Y13695962D01*
X42819259Y13728581D01*
X42875978Y13763787D01*
X42929599Y13801551D01*
X42980091Y13841844D01*
X43027418Y13884638D01*
X43071548Y13929905D01*
X43112447Y13977616D01*
X43150081Y14027742D01*
X43184418Y14080256D01*
X43215424Y14135129D01*
X43243064Y14192333D01*
X43267307Y14251838D01*
X43288118Y14313618D01*
X43293399Y14333113D01*
X43277172Y14407082D01*
X43207616Y14639814D01*
X43122660Y14852322D01*
X43020765Y15045525D01*
X42900389Y15220343D01*
X42759994Y15377694D01*
X42598039Y15518498D01*
X42412985Y15643674D01*
X42203290Y15754141D01*
X41967416Y15850819D01*
X41861856Y15884382D01*
X41787203Y15888109D01*
X41558114Y15891976D01*
X41245926Y15892148D01*
X41119619Y15890786D01*
X41011323Y15887736D01*
X40963496Y15885410D01*
X40919652Y15882458D01*
X40879619Y15878815D01*
X40843222Y15874411D01*
X40810289Y15869180D01*
X40780646Y15863053D01*
X40754120Y15855964D01*
X40730539Y15847844D01*
X40709728Y15838626D01*
X40691515Y15828242D01*
X40675727Y15816624D01*
X40662190Y15803706D01*
X40650731Y15789418D01*
X40641177Y15773695D01*
X40633355Y15756467D01*
X40627092Y15737668D01*
X40622214Y15717229D01*
X40618548Y15695083D01*
X40615922Y15671163D01*
X40614161Y15645401D01*
X40612545Y15588079D01*
X40612314Y15522577D01*
X40614064Y15399708D01*
X40618221Y15349920D01*
X40626317Y15307129D01*
X40632252Y15288179D01*
X40639664Y15270762D01*
X40648717Y15254808D01*
X40659575Y15240244D01*
X40672403Y15226999D01*
X40687363Y15215000D01*
X40704621Y15204177D01*
X40724341Y15194456D01*
X40746686Y15185767D01*
X40771821Y15178037D01*
X40831117Y15165169D01*
X40903541Y15155277D01*
X40990406Y15147786D01*
X41093025Y15142123D01*
X41212710Y15137712D01*
X41508532Y15130349D01*
X41680711Y15125782D01*
X41835206Y15120011D01*
X41972924Y15112722D01*
X42035775Y15108412D01*
X42094773Y15103605D01*
X42150030Y15098263D01*
X42201660Y15092347D01*
X42249776Y15085817D01*
X42294493Y15078635D01*
X42335922Y15070762D01*
X42374178Y15062158D01*
X42409374Y15052785D01*
X42441623Y15042604D01*
X42471039Y15031575D01*
X42497736Y15019660D01*
X42521826Y15006820D01*
X42543423Y14993015D01*
X42562640Y14978207D01*
X42579592Y14962357D01*
X42594391Y14945425D01*
X42607150Y14927373D01*
X42617984Y14908162D01*
X42627005Y14887752D01*
X42634327Y14866104D01*
X42640064Y14843180D01*
X42644328Y14818941D01*
X42647234Y14793347D01*
X42648894Y14766360D01*
X42649422Y14737941D01*
X42647847Y14679072D01*
X42642709Y14626062D01*
X42633389Y14578585D01*
X42626968Y14556819D01*
X42619270Y14536313D01*
X42610217Y14517028D01*
X42599732Y14498922D01*
X42587739Y14481955D01*
X42574159Y14466085D01*
X42558915Y14451272D01*
X42541930Y14437475D01*
X42523127Y14424654D01*
X42502428Y14412767D01*
X42479756Y14401774D01*
X42455034Y14391634D01*
X42399131Y14373750D01*
X42334099Y14358788D01*
X42259320Y14346423D01*
X42174175Y14336328D01*
X42078048Y14328177D01*
X41970318Y14321644D01*
X41850368Y14316402D01*
X41717802Y14307118D01*
X41590740Y14289630D01*
X41469331Y14264369D01*
X41353723Y14231764D01*
X41244065Y14192246D01*
X41140507Y14146243D01*
X41043197Y14094187D01*
X40952284Y14036506D01*
X40867916Y13973630D01*
X40790243Y13905990D01*
X40719414Y13834014D01*
X40655577Y13758133D01*
X40598882Y13678776D01*
X40549476Y13596374D01*
X40507510Y13511356D01*
X40473131Y13424151D01*
X40446490Y13335190D01*
X40427733Y13244902D01*
X40417012Y13153717D01*
X40414473Y13062065D01*
X40145971Y13062065D01*
X40144444Y13384541D01*
X40143014Y13639710D01*
X40140929Y13866410D01*
X40137982Y14065997D01*
X40136121Y14156047D01*
X40133967Y14239826D01*
X40131495Y14317504D01*
X40128678Y14389250D01*
X40125491Y14455234D01*
X40121909Y14515624D01*
X40117904Y14570591D01*
X40113452Y14620304D01*
X40108527Y14664931D01*
X40103102Y14704643D01*
X40097153Y14739608D01*
X40090653Y14769996D01*
X40087189Y14783526D01*
X40083577Y14795976D01*
X40079814Y14807366D01*
X40075898Y14817717D01*
X40071825Y14827051D01*
X40067591Y14835389D01*
X40063195Y14842753D01*
X40058631Y14849162D01*
X40053897Y14854638D01*
X40048991Y14859204D01*
X40043908Y14862878D01*
X40038645Y14865684D01*
X40033200Y14867642D01*
X40027569Y14868773D01*
X40021748Y14869098D01*
X40015735Y14868639D01*
X40009526Y14867416D01*
X40003118Y14865451D01*
X39996508Y14862766D01*
X39989693Y14859380D01*
X39982669Y14855316D01*
X39975434Y14850594D01*
X39960314Y14839263D01*
X39944309Y14825556D01*
X39927391Y14809642D01*
X39902204Y14785950D01*
X39878264Y14765419D01*
X39855306Y14748049D01*
X39844111Y14740548D01*
X39833062Y14733838D01*
X39822125Y14727919D01*
X39811266Y14722789D01*
X39800452Y14718450D01*
X39789649Y14714900D01*
X39778826Y14712142D01*
X39767947Y14710173D01*
X39756980Y14708995D01*
X39745891Y14708607D01*
X39734647Y14709009D01*
X39723214Y14710202D01*
X39711560Y14712185D01*
X39699650Y14714959D01*
X39687452Y14718523D01*
X39674932Y14722878D01*
X39662057Y14728023D01*
X39648792Y14733959D01*
X39620965Y14748202D01*
X39591182Y14765607D01*
X39559177Y14786176D01*
X39524682Y14809906D01*
X39502527Y14824532D01*
X39479014Y14838107D01*
X39454233Y14850635D01*
X39428275Y14862119D01*
X39373181Y14881968D01*
X39314450Y14897683D01*
X39252797Y14909291D01*
X39188937Y14916819D01*
X39123588Y14920296D01*
X39057465Y14919749D01*
X38991285Y14915205D01*
X38925763Y14906691D01*
X38861615Y14894237D01*
X38799558Y14877868D01*
X38740307Y14857612D01*
X38684580Y14833498D01*
X38633091Y14805553D01*
X38609160Y14790152D01*
X38586557Y14773803D01*
X38524363Y14726656D01*
X38498371Y14708134D01*
X38474994Y14692980D01*
X38464103Y14686665D01*
X38453644Y14681193D01*
X38443545Y14676562D01*
X38433731Y14672774D01*
X38424128Y14669827D01*
X38414663Y14667722D01*
X38405262Y14666459D01*
X38395852Y14666038D01*
X38386358Y14666459D01*
X38376707Y14667722D01*
X38366825Y14669827D01*
X38356638Y14672774D01*
X38346073Y14676562D01*
X38335056Y14681193D01*
X38323512Y14686665D01*
X38311369Y14692980D01*
X38284990Y14708134D01*
X38255326Y14726656D01*
X38183788Y14773803D01*
X38142007Y14800219D01*
X38099752Y14824126D01*
X38057066Y14845534D01*
X38013992Y14864456D01*
X37970576Y14880903D01*
X37926860Y14894885D01*
X37882888Y14906414D01*
X37838705Y14915500D01*
X37794355Y14922156D01*
X37749881Y14926392D01*
X37705328Y14928219D01*
X37660739Y14927649D01*
X37616158Y14924692D01*
X37571629Y14919361D01*
X37527196Y14911665D01*
X37482903Y14901616D01*
X37438794Y14889225D01*
X37394913Y14874504D01*
X37351304Y14857463D01*
X37308011Y14838114D01*
X37265077Y14816468D01*
X37222546Y14792536D01*
X37180463Y14766329D01*
X37138872Y14737859D01*
X37097816Y14707135D01*
X37057339Y14674171D01*
X37017485Y14638976D01*
X36978299Y14601562D01*
X36939823Y14561940D01*
X36902102Y14520121D01*
X36865181Y14476116D01*
X36829102Y14429937D01*
X36782148Y14364224D01*
X36762937Y14332162D01*
X36746274Y14298218D01*
X36731936Y14260584D01*
X36719704Y14217450D01*
X36709355Y14167008D01*
X36700667Y14107449D01*
X36687389Y13953747D01*
X36678097Y13741873D01*
X36664380Y13085732D01*
X36658701Y12705763D01*
X36657709Y12552106D01*
X36013662Y12552106D01*
X36024358Y12570428D01*
X36066199Y12653320D01*
X36103864Y12740476D01*
X36137180Y12831790D01*
X36165970Y12927158D01*
X36190062Y13026473D01*
X36209279Y13129631D01*
X36223448Y13236525D01*
X36232393Y13347052D01*
X36235742Y13466152D01*
X36232450Y13581872D01*
X36222743Y13694062D01*
X36206848Y13802568D01*
X36184992Y13907238D01*
X36157402Y14007921D01*
X36124304Y14104465D01*
X36085925Y14196717D01*
X36042493Y14284526D01*
X35994233Y14367740D01*
X35941374Y14446207D01*
X35884142Y14519775D01*
X35822763Y14588291D01*
X35757465Y14651604D01*
X35688475Y14709562D01*
X35616018Y14762013D01*
X35540323Y14808806D01*
X35461616Y14849787D01*
X35380124Y14884805D01*
X35296074Y14913708D01*
X35209692Y14936344D01*
X35121205Y14952561D01*
X35030841Y14962208D01*
X34938827Y14965131D01*
X34845388Y14961180D01*
X34750752Y14950202D01*
X34655146Y14932045D01*
X34558797Y14906558D01*
X34461931Y14873588D01*
X34364776Y14832983D01*
X34267558Y14784592D01*
X34170504Y14728262D01*
X34116882Y14695122D01*
X34069213Y14666417D01*
X34026990Y14642152D01*
X34007764Y14631686D01*
X33989710Y14622333D01*
X33972767Y14614094D01*
X33956869Y14606968D01*
X33941956Y14600958D01*
X33927963Y14596063D01*
X33914827Y14592284D01*
X33902486Y14589623D01*
X33890877Y14588080D01*
X33879936Y14587656D01*
X33869600Y14588351D01*
X33859806Y14590167D01*
X33850492Y14593105D01*
X33841594Y14597164D01*
X33833050Y14602347D01*
X33824795Y14608653D01*
X33816768Y14616084D01*
X33808904Y14624640D01*
X33801142Y14634323D01*
X33793418Y14645132D01*
X33785669Y14657069D01*
X33777832Y14670135D01*
X33761642Y14699655D01*
X33744343Y14733700D01*
X33702442Y14813010D01*
X33664432Y14873576D01*
X33630160Y14914668D01*
X33614378Y14927682D01*
X33599474Y14935553D01*
X33585429Y14938189D01*
X33572223Y14935499D01*
X33559838Y14927392D01*
X33548254Y14913775D01*
X33527416Y14869647D01*
X33509555Y14802386D01*
X33494522Y14711258D01*
X33482162Y14595531D01*
X33472325Y14454474D01*
X33464858Y14287355D01*
X33456427Y13872003D01*
X33455653Y13343620D01*
X33045957Y13343620D01*
X33045895Y13457653D01*
X33045582Y13730251D01*
X33044432Y13970419D01*
X33042128Y14179571D01*
X33038353Y14359117D01*
X33032792Y14510467D01*
X33029242Y14576010D01*
X33025127Y14635034D01*
X33020406Y14687714D01*
X33015041Y14734227D01*
X33008992Y14774750D01*
X33002219Y14809459D01*
X32994683Y14838530D01*
X32986344Y14862140D01*
X32981861Y14871952D01*
X32977162Y14880465D01*
X32972243Y14887700D01*
X32967099Y14893681D01*
X32961724Y14898428D01*
X32956113Y14901965D01*
X32950263Y14904313D01*
X32944167Y14905493D01*
X32937821Y14905529D01*
X32931220Y14904442D01*
X32924358Y14902255D01*
X32917232Y14898988D01*
X32902164Y14889307D01*
X32885977Y14875577D01*
X32868631Y14857972D01*
X32850086Y14836669D01*
X32830303Y14811846D01*
X32809242Y14783678D01*
X32763128Y14718013D01*
X32744912Y14691755D01*
X32728149Y14668588D01*
X32712652Y14648432D01*
X32705318Y14639457D01*
X32698230Y14631206D01*
X32691363Y14623667D01*
X32684693Y14616831D01*
X32678198Y14610688D01*
X32671852Y14605227D01*
X32665634Y14600440D01*
X32659518Y14596315D01*
X32653481Y14592843D01*
X32647500Y14590013D01*
X32641551Y14587817D01*
X32635610Y14586244D01*
X32629653Y14585283D01*
X32623657Y14584926D01*
X32617598Y14585161D01*
X32611452Y14585979D01*
X32605196Y14587371D01*
X32598806Y14589325D01*
X32592258Y14591832D01*
X32585528Y14594882D01*
X32578593Y14598466D01*
X32571429Y14602572D01*
X32564013Y14607192D01*
X32556320Y14612314D01*
X32540011Y14624029D01*
X32497675Y14653967D01*
X32453225Y14682233D01*
X32406879Y14708813D01*
X32358855Y14733697D01*
X32309372Y14756872D01*
X32258647Y14778328D01*
X32206899Y14798052D01*
X32154346Y14816034D01*
X32101204Y14832260D01*
X32047694Y14846720D01*
X31940437Y14870295D01*
X31834319Y14886665D01*
X31731084Y14895738D01*
X31681093Y14897508D01*
X31632477Y14897420D01*
X31585454Y14895460D01*
X31540243Y14891618D01*
X31497060Y14885882D01*
X31456124Y14878240D01*
X31417654Y14868681D01*
X31381866Y14857192D01*
X31348980Y14843764D01*
X31319214Y14828383D01*
X31292784Y14811038D01*
X31269910Y14791718D01*
X31250810Y14770410D01*
X31235701Y14747104D01*
X31224802Y14721788D01*
X31218330Y14694450D01*
X31205882Y14607309D01*
X31196156Y14530348D01*
X31189641Y14462903D01*
X31186827Y14404311D01*
X30950280Y14404311D01*
X30950581Y14514059D01*
X30950240Y14638346D01*
X30949430Y14688631D01*
X30947853Y14731746D01*
X30946697Y14750786D01*
X30945253Y14768241D01*
X30943489Y14784179D01*
X30941374Y14798670D01*
X30938874Y14811781D01*
X30935960Y14823582D01*
X30932597Y14834143D01*
X30928755Y14843531D01*
X30924402Y14851816D01*
X30919505Y14859067D01*
X30914032Y14865352D01*
X30907952Y14870742D01*
X30901233Y14875304D01*
X30893842Y14879107D01*
X30885748Y14882221D01*
X30876918Y14884715D01*
X30867321Y14886657D01*
X30856925Y14888116D01*
X30845697Y14889162D01*
X30833607Y14889863D01*
X30806708Y14890506D01*
X30775972Y14890598D01*
X30718337Y14891701D01*
X30695019Y14894321D01*
X30675025Y14899423D01*
X30666196Y14903164D01*
X30658102Y14907835D01*
X30650711Y14913540D01*
X30643991Y14920383D01*
X30637911Y14928467D01*
X30632439Y14937896D01*
X30623188Y14961199D01*
X30615984Y14991122D01*
X30610570Y15028491D01*
X30606691Y15074134D01*
X30604090Y15128877D01*
X30601703Y15268976D01*
X30601362Y15455407D01*
X30601122Y15528988D01*
X30600391Y15596849D01*
X30599150Y15659129D01*
X30597383Y15715967D01*
X30595071Y15767503D01*
X30592196Y15813874D01*
X30588742Y15855220D01*
X30584689Y15891680D01*
X30582433Y15908121D01*
X30580020Y15923392D01*
X30577449Y15937511D01*
X30574718Y15950496D01*
X30571824Y15962363D01*
X30568765Y15973130D01*
X30565538Y15982815D01*
X30562142Y15991434D01*
X30558575Y15999005D01*
X30554833Y16005545D01*
X30550915Y16011073D01*
X30546819Y16015604D01*
X30542543Y16019157D01*
X30538083Y16021749D01*
X30533439Y16023397D01*
X30528607Y16024119D01*
X30480841Y16028050D01*
X30404564Y16035868D01*
X30310279Y16046441D01*
X30208492Y16058635D01*
X30126842Y16067569D01*
X30093808Y16068878D01*
X30065484Y16066969D01*
X30052975Y16064548D01*
X30041509Y16061011D01*
X30031038Y16056253D01*
X30021519Y16050170D01*
X30012906Y16042658D01*
X30005153Y16033613D01*
X29998215Y16022930D01*
X29992048Y16010507D01*
X29986605Y15996237D01*
X29981842Y15980018D01*
X29974172Y15941315D01*
X29968676Y15893563D01*
X29964992Y15835930D01*
X29962758Y15767583D01*
X29961610Y15687688D01*
X29961127Y15489924D01*
X29960106Y15292099D01*
X29957682Y15212063D01*
X29952960Y15143439D01*
X29949498Y15113132D01*
X29945175Y15085350D01*
X29939895Y15059982D01*
X29933562Y15036918D01*
X29926080Y15016049D01*
X29917355Y14997265D01*
X29907289Y14980457D01*
X29895787Y14965514D01*
X29882754Y14952327D01*
X29868094Y14940786D01*
X29851712Y14930781D01*
X29833510Y14922203D01*
X29813395Y14914942D01*
X29791269Y14908888D01*
X29767038Y14903932D01*
X29740605Y14899963D01*
X29680753Y14894549D01*
X29610946Y14891769D01*
X29438408Y14890598D01*
X29335373Y14890161D01*
X29244560Y14888434D01*
X29165270Y14884798D01*
X29096807Y14878633D01*
X29066416Y14874408D01*
X29038471Y14869318D01*
X29012882Y14863285D01*
X28989564Y14856233D01*
X28968429Y14848082D01*
X28949389Y14838757D01*
X28932357Y14828178D01*
X28917247Y14816270D01*
X28903970Y14802953D01*
X28892440Y14788152D01*
X28882569Y14771787D01*
X28874270Y14753782D01*
X28867455Y14734059D01*
X28862039Y14712540D01*
X28857932Y14689148D01*
X28855048Y14663806D01*
X28853300Y14636435D01*
X28852600Y14606959D01*
X28853997Y14541379D01*
X28858539Y14466446D01*
X28865530Y14381539D01*
X28872814Y14311314D01*
X28877859Y14282832D01*
X28884943Y14258320D01*
X28889507Y14247447D01*
X28894891Y14237440D01*
X28901197Y14228256D01*
X28908530Y14219853D01*
X28916992Y14212189D01*
X28926687Y14205221D01*
X28937717Y14198908D01*
X28950187Y14193207D01*
X28979859Y14183472D01*
X29016527Y14175679D01*
X29061019Y14169488D01*
X29114161Y14164563D01*
X29176780Y14160565D01*
X29249702Y14157155D01*
X29429760Y14150751D01*
X29609732Y14143660D01*
X29682450Y14138620D01*
X29744672Y14131444D01*
X29772085Y14126790D01*
X29797160Y14121281D01*
X29819993Y14114813D01*
X29840678Y14107277D01*
X29859310Y14098568D01*
X29875986Y14088579D01*
X29890800Y14077202D01*
X29903847Y14064333D01*
X29915224Y14049863D01*
X29925024Y14033686D01*
X29933344Y14015696D01*
X29940279Y13995785D01*
X29945924Y13973848D01*
X29950374Y13949777D01*
X29953724Y13923466D01*
X29956070Y13894808D01*
X29958132Y13830026D01*
X29957320Y13754576D01*
X29950126Y13568263D01*
X29943433Y13438777D01*
X29935046Y13323204D01*
X29924315Y13220701D01*
X29910590Y13130424D01*
X29902401Y13089608D01*
X29893221Y13051532D01*
X29882966Y13016092D01*
X29871557Y12983182D01*
X29858912Y12952697D01*
X29844950Y12924531D01*
X29829589Y12898580D01*
X29812748Y12874737D01*
X29794346Y12852898D01*
X29774302Y12832957D01*
X29752535Y12814809D01*
X29728962Y12798349D01*
X29703504Y12783471D01*
X29676078Y12770069D01*
X29646603Y12758040D01*
X29614999Y12747276D01*
X29581184Y12737674D01*
X29545076Y12729127D01*
X29465659Y12714779D01*
X29376097Y12703389D01*
X29275740Y12694116D01*
X29201214Y12686891D01*
X29134655Y12677534D01*
X29075790Y12665616D01*
X29049158Y12658562D01*
X29024347Y12650706D01*
X29001324Y12641996D01*
X28980053Y12632377D01*
X28960501Y12621796D01*
X28942634Y12610198D01*
X28926417Y12597531D01*
X28911817Y12583741D01*
X28898799Y12568773D01*
X28887329Y12552575D01*
X28877373Y12535092D01*
X28868897Y12516272D01*
X28861867Y12496059D01*
X28856248Y12474402D01*
X28852007Y12451245D01*
X28849109Y12426536D01*
X28847520Y12400220D01*
X28847206Y12372245D01*
X26654678Y12372245D01*
X26659988Y12907881D01*
G36*
X38700120Y9805356D02*
G01*
X38748271Y9801508D01*
X38796151Y9793940D01*
X38843573Y9782588D01*
X38890348Y9767391D01*
X38936287Y9748285D01*
X38981204Y9725207D01*
X39024909Y9698094D01*
X39067216Y9666883D01*
X39107934Y9631511D01*
X39146877Y9591915D01*
X39183856Y9548032D01*
X39210394Y9511619D01*
X39234577Y9473524D01*
X39256427Y9433887D01*
X39275967Y9392852D01*
X39293219Y9350560D01*
X39308207Y9307152D01*
X39320952Y9262770D01*
X39331478Y9217557D01*
X39339807Y9171654D01*
X39345961Y9125202D01*
X39349964Y9078344D01*
X39351837Y9031221D01*
X39351604Y8983975D01*
X39349287Y8936748D01*
X39344909Y8889681D01*
X39338492Y8842917D01*
X39330060Y8796596D01*
X39319633Y8750862D01*
X39307236Y8705856D01*
X39292891Y8661718D01*
X39276620Y8618592D01*
X39258446Y8576619D01*
X39238392Y8535941D01*
X39216480Y8496699D01*
X39192733Y8459036D01*
X39167173Y8423093D01*
X39139824Y8389011D01*
X39110707Y8356933D01*
X39079846Y8327001D01*
X39047263Y8299355D01*
X39012980Y8274139D01*
X38977021Y8251493D01*
X38929291Y8226367D01*
X38881144Y8205909D01*
X38832726Y8189994D01*
X38784179Y8178495D01*
X38735650Y8171287D01*
X38687282Y8168244D01*
X38639219Y8169239D01*
X38591607Y8174147D01*
X38544590Y8182841D01*
X38498312Y8195197D01*
X38452917Y8211087D01*
X38408551Y8230387D01*
X38365358Y8252969D01*
X38323481Y8278709D01*
X38283066Y8307480D01*
X38244257Y8339156D01*
X38207199Y8373611D01*
X38172036Y8410720D01*
X38138912Y8450356D01*
X38107973Y8492394D01*
X38079362Y8536707D01*
X38053223Y8583170D01*
X38029702Y8631657D01*
X38008943Y8682041D01*
X37991091Y8734198D01*
X37976289Y8788000D01*
X37964683Y8843322D01*
X37956416Y8900038D01*
X37951634Y8958022D01*
X37950480Y9017148D01*
X37953100Y9077290D01*
X37959637Y9138323D01*
X37970011Y9198053D01*
X37984065Y9255385D01*
X38001611Y9310257D01*
X38022461Y9362604D01*
X38046427Y9412365D01*
X38073321Y9459476D01*
X38102954Y9503874D01*
X38135139Y9545497D01*
X38169687Y9584281D01*
X38206410Y9620163D01*
X38245120Y9653081D01*
X38285629Y9682971D01*
X38327749Y9709771D01*
X38371292Y9733417D01*
X38416069Y9753847D01*
X38461892Y9770997D01*
X38508574Y9784806D01*
X38555925Y9795208D01*
X38603759Y9802143D01*
X38651887Y9805546D01*
X38700120Y9805356D01*
G37*
X38700120Y9805356D02*
X38748271Y9801508D01*
X38796151Y9793940D01*
X38843573Y9782588D01*
X38890348Y9767391D01*
X38936287Y9748285D01*
X38981204Y9725207D01*
X39024909Y9698094D01*
X39067216Y9666883D01*
X39107934Y9631511D01*
X39146877Y9591915D01*
X39183856Y9548032D01*
X39210394Y9511619D01*
X39234577Y9473524D01*
X39256427Y9433887D01*
X39275967Y9392852D01*
X39293219Y9350560D01*
X39308207Y9307152D01*
X39320952Y9262770D01*
X39331478Y9217557D01*
X39339807Y9171654D01*
X39345961Y9125202D01*
X39349964Y9078344D01*
X39351837Y9031221D01*
X39351604Y8983975D01*
X39349287Y8936748D01*
X39344909Y8889681D01*
X39338492Y8842917D01*
X39330060Y8796596D01*
X39319633Y8750862D01*
X39307236Y8705856D01*
X39292891Y8661718D01*
X39276620Y8618592D01*
X39258446Y8576619D01*
X39238392Y8535941D01*
X39216480Y8496699D01*
X39192733Y8459036D01*
X39167173Y8423093D01*
X39139824Y8389011D01*
X39110707Y8356933D01*
X39079846Y8327001D01*
X39047263Y8299355D01*
X39012980Y8274139D01*
X38977021Y8251493D01*
X38929291Y8226367D01*
X38881144Y8205909D01*
X38832726Y8189994D01*
X38784179Y8178495D01*
X38735650Y8171287D01*
X38687282Y8168244D01*
X38639219Y8169239D01*
X38591607Y8174147D01*
X38544590Y8182841D01*
X38498312Y8195197D01*
X38452917Y8211087D01*
X38408551Y8230387D01*
X38365358Y8252969D01*
X38323481Y8278709D01*
X38283066Y8307480D01*
X38244257Y8339156D01*
X38207199Y8373611D01*
X38172036Y8410720D01*
X38138912Y8450356D01*
X38107973Y8492394D01*
X38079362Y8536707D01*
X38053223Y8583170D01*
X38029702Y8631657D01*
X38008943Y8682041D01*
X37991091Y8734198D01*
X37976289Y8788000D01*
X37964683Y8843322D01*
X37956416Y8900038D01*
X37951634Y8958022D01*
X37950480Y9017148D01*
X37953100Y9077290D01*
X37959637Y9138323D01*
X37970011Y9198053D01*
X37984065Y9255385D01*
X38001611Y9310257D01*
X38022461Y9362604D01*
X38046427Y9412365D01*
X38073321Y9459476D01*
X38102954Y9503874D01*
X38135139Y9545497D01*
X38169687Y9584281D01*
X38206410Y9620163D01*
X38245120Y9653081D01*
X38285629Y9682971D01*
X38327749Y9709771D01*
X38371292Y9733417D01*
X38416069Y9753847D01*
X38461892Y9770997D01*
X38508574Y9784806D01*
X38555925Y9795208D01*
X38603759Y9802143D01*
X38651887Y9805546D01*
X38700120Y9805356D01*
D11*
X47356603Y18210800D02*
G75*
G03*
X47356603Y18210800I-173003J0D01*
G01*
D12*
X34689800Y24957200D02*
X39079800Y20577200D01*
X39079800Y20577200D02*
X43449800Y24967200D01*
D11*
X28992403Y29513800D02*
G75*
G03*
X28992403Y29513800I-173003J0D01*
G01*
X47483003Y33380000D02*
G75*
G03*
X47483003Y33380000I-173003J0D01*
G01*
D12*
X43449800Y24967200D02*
X39059800Y29297200D01*
X39059800Y29297200D02*
X34689800Y24957200D01*
D13*
X41406666Y507620D02*
X41406666Y1507620D01*
X41168571Y1507620D01*
X41025714Y1460000D01*
X40930476Y1364762D01*
X40882857Y1269524D01*
X40835238Y1079048D01*
X40835238Y936191D01*
X40882857Y745715D01*
X40930476Y650477D01*
X41025714Y555239D01*
X41168571Y507620D01*
X41406666Y507620D01*
X40025714Y555239D02*
X40120952Y507620D01*
X40311428Y507620D01*
X40406666Y555239D01*
X40454285Y650477D01*
X40454285Y1031429D01*
X40406666Y1126667D01*
X40311428Y1174286D01*
X40120952Y1174286D01*
X40025714Y1126667D01*
X39978095Y1031429D01*
X39978095Y936191D01*
X40454285Y840953D01*
X39597142Y555239D02*
X39501904Y507620D01*
X39311428Y507620D01*
X39216190Y555239D01*
X39168571Y650477D01*
X39168571Y698096D01*
X39216190Y793334D01*
X39311428Y840953D01*
X39454285Y840953D01*
X39549523Y888572D01*
X39597142Y983810D01*
X39597142Y1031429D01*
X39549523Y1126667D01*
X39454285Y1174286D01*
X39311428Y1174286D01*
X39216190Y1126667D01*
X38740000Y507620D02*
X38740000Y1174286D01*
X38740000Y1507620D02*
X38787619Y1460000D01*
X38740000Y1412381D01*
X38692380Y1460000D01*
X38740000Y1507620D01*
X38740000Y1412381D01*
X37835238Y1174286D02*
X37835238Y364762D01*
X37882857Y269524D01*
X37930476Y221905D01*
X38025714Y174286D01*
X38168571Y174286D01*
X38263809Y221905D01*
X37835238Y555239D02*
X37930476Y507620D01*
X38120952Y507620D01*
X38216190Y555239D01*
X38263809Y602858D01*
X38311428Y698096D01*
X38311428Y983810D01*
X38263809Y1079048D01*
X38216190Y1126667D01*
X38120952Y1174286D01*
X37930476Y1174286D01*
X37835238Y1126667D01*
X37359047Y1174286D02*
X37359047Y507620D01*
X37359047Y1079048D02*
X37311428Y1126667D01*
X37216190Y1174286D01*
X37073333Y1174286D01*
X36978095Y1126667D01*
X36930476Y1031429D01*
X36930476Y507620D01*
X36073333Y555239D02*
X36168571Y507620D01*
X36359047Y507620D01*
X36454285Y555239D01*
X36501904Y650477D01*
X36501904Y1031429D01*
X36454285Y1126667D01*
X36359047Y1174286D01*
X36168571Y1174286D01*
X36073333Y1126667D01*
X36025714Y1031429D01*
X36025714Y936191D01*
X36501904Y840953D01*
X35168571Y507620D02*
X35168571Y1507620D01*
X35168571Y555239D02*
X35263809Y507620D01*
X35454285Y507620D01*
X35549523Y555239D01*
X35597142Y602858D01*
X35644761Y698096D01*
X35644761Y983810D01*
X35597142Y1079048D01*
X35549523Y1126667D01*
X35454285Y1174286D01*
X35263809Y1174286D01*
X35168571Y1126667D01*
X33597142Y1031429D02*
X33454285Y983810D01*
X33406666Y936191D01*
X33359047Y840953D01*
X33359047Y698096D01*
X33406666Y602858D01*
X33454285Y555239D01*
X33549523Y507620D01*
X33930476Y507620D01*
X33930476Y1507620D01*
X33597142Y1507620D01*
X33501904Y1460000D01*
X33454285Y1412381D01*
X33406666Y1317143D01*
X33406666Y1221905D01*
X33454285Y1126667D01*
X33501904Y1079048D01*
X33597142Y1031429D01*
X33930476Y1031429D01*
X33025714Y1174286D02*
X32787619Y507620D01*
X32549523Y1174286D02*
X32787619Y507620D01*
X32882857Y269524D01*
X32930476Y221905D01*
X33025714Y174286D01*
X31454285Y793334D02*
X30978095Y793334D01*
X31549523Y507620D02*
X31216190Y1507620D01*
X30882857Y507620D01*
X29978095Y602858D02*
X30025714Y555239D01*
X30168571Y507620D01*
X30263809Y507620D01*
X30406666Y555239D01*
X30501904Y650477D01*
X30549523Y745715D01*
X30597142Y936191D01*
X30597142Y1079048D01*
X30549523Y1269524D01*
X30501904Y1364762D01*
X30406666Y1460000D01*
X30263809Y1507620D01*
X30168571Y1507620D01*
X30025714Y1460000D01*
X29978095Y1412381D01*
X29549523Y1031429D02*
X29216190Y1031429D01*
X29073333Y507620D02*
X29549523Y507620D01*
X29549523Y1507620D01*
X29073333Y1507620D01*
X27978095Y412381D02*
X28073333Y460000D01*
X28168571Y555239D01*
X28311428Y698096D01*
X28406666Y745715D01*
X28501904Y745715D01*
X28454285Y507620D02*
X28549523Y555239D01*
X28644761Y650477D01*
X28692380Y840953D01*
X28692380Y1174286D01*
X28644761Y1364762D01*
X28549523Y1460000D01*
X28454285Y1507620D01*
X28263809Y1507620D01*
X28168571Y1460000D01*
X28073333Y1364762D01*
X28025714Y1174286D01*
X28025714Y840953D01*
X28073333Y650477D01*
X28168571Y555239D01*
X28263809Y507620D01*
X28454285Y507620D01*
X8383104Y486420D02*
X8716438Y962610D01*
X8954533Y486420D02*
X8954533Y1486420D01*
X8573580Y1486420D01*
X8478342Y1438800D01*
X8430723Y1391181D01*
X8383104Y1295943D01*
X8383104Y1153086D01*
X8430723Y1057848D01*
X8478342Y1010229D01*
X8573580Y962610D01*
X8954533Y962610D01*
X7573580Y534039D02*
X7668819Y486420D01*
X7859295Y486420D01*
X7954533Y534039D01*
X8002152Y629277D01*
X8002152Y1010229D01*
X7954533Y1105467D01*
X7859295Y1153086D01*
X7668819Y1153086D01*
X7573580Y1105467D01*
X7525961Y1010229D01*
X7525961Y914991D01*
X8002152Y819753D01*
X7192628Y1153086D02*
X6954533Y486420D01*
X6716438Y1153086D01*
X6335485Y581658D02*
X6287866Y534039D01*
X6335485Y486420D01*
X6383104Y534039D01*
X6335485Y581658D01*
X6335485Y486420D01*
X5145009Y1391181D02*
X5097390Y1438800D01*
X5002152Y1486420D01*
X4764057Y1486420D01*
X4668819Y1438800D01*
X4621200Y1391181D01*
X4573580Y1295943D01*
X4573580Y1200705D01*
X4621200Y1057848D01*
X5192628Y486420D01*
X4573580Y486420D01*
X4145009Y581658D02*
X4097390Y534039D01*
X4145009Y486420D01*
X4192628Y534039D01*
X4145009Y581658D01*
X4145009Y486420D01*
X3145009Y486420D02*
X3716438Y486420D01*
X3430723Y486420D02*
X3430723Y1486420D01*
X3525961Y1343562D01*
X3621200Y1248324D01*
X3716438Y1200705D01*
X2764057Y1391181D02*
X2716438Y1438800D01*
X2621200Y1486420D01*
X2383104Y1486420D01*
X2287866Y1438800D01*
X2240247Y1391181D01*
X2192628Y1295943D01*
X2192628Y1200705D01*
X2240247Y1057848D01*
X2811676Y486420D01*
X2192628Y486420D01*
X1240247Y486420D02*
X1811676Y486420D01*
X1525961Y486420D02*
X1525961Y1486420D01*
X1621200Y1343562D01*
X1716438Y1248324D01*
X1811676Y1200705D01*
%TO.C,J1*%
X54724180Y22603334D02*
X55438466Y22603334D01*
X55581323Y22650953D01*
X55676561Y22746191D01*
X55724180Y22889048D01*
X55724180Y22984286D01*
X55724180Y21603334D02*
X55724180Y22174762D01*
X55724180Y21889048D02*
X54724180Y21889048D01*
X54867038Y21984286D01*
X54962276Y22079524D01*
X55009895Y22174762D01*
%TO.C,J2*%
X54532380Y42873334D02*
X55246666Y42873334D01*
X55389523Y42920953D01*
X55484761Y43016191D01*
X55532380Y43159048D01*
X55532380Y43254286D01*
X54627619Y42444762D02*
X54580000Y42397143D01*
X54532380Y42301905D01*
X54532380Y42063810D01*
X54580000Y41968572D01*
X54627619Y41920953D01*
X54722857Y41873334D01*
X54818095Y41873334D01*
X54960952Y41920953D01*
X55532380Y42492381D01*
X55532380Y41873334D01*
%TO.C,J4*%
X25393333Y35862620D02*
X25393333Y35148334D01*
X25440952Y35005477D01*
X25536190Y34910239D01*
X25679047Y34862620D01*
X25774285Y34862620D01*
X24488571Y35529286D02*
X24488571Y34862620D01*
X24726666Y35910239D02*
X24964761Y35195953D01*
X24345714Y35195953D01*
D12*
%TO.C,J1*%
X54471800Y16920000D02*
X54471800Y15670000D01*
X48211800Y28580000D02*
X54181800Y28580000D01*
X51921800Y16720000D02*
X50581800Y16720000D01*
X51921800Y15970000D02*
X51921800Y16720000D01*
X51921800Y28570000D02*
X51921800Y27820000D01*
X48211800Y15960000D02*
X48211800Y28580000D01*
X54471800Y15670000D02*
X53221800Y15670000D01*
X51921800Y27820000D02*
X48971800Y27820000D01*
X53421800Y25270000D02*
X54171800Y25270000D01*
X54171800Y28570000D02*
X54171800Y26770000D01*
X48971800Y27820000D02*
X48971800Y22270000D01*
X53421800Y26770000D02*
X53421800Y28570000D01*
X54171800Y15970000D02*
X53421800Y15970000D01*
X48971800Y22270000D02*
X48971800Y17780000D01*
X53421800Y17770000D02*
X54171800Y17770000D01*
X54171800Y19270000D02*
X53421800Y19270000D01*
X54171800Y26770000D02*
X53421800Y26770000D01*
X53421800Y15970000D02*
X53421800Y17770000D01*
X54181800Y28580000D02*
X54181800Y15960000D01*
X54171800Y25270000D02*
X54171800Y19270000D01*
X54181800Y15960000D02*
X48211800Y15960000D01*
X54171800Y17770000D02*
X54171800Y15970000D01*
X53421800Y19270000D02*
X53421800Y25270000D01*
X53421800Y28570000D02*
X54171800Y28570000D01*
%TO.C,J2*%
X54175000Y34630000D02*
X53425000Y34630000D01*
X48975000Y53180000D02*
X48975000Y42630000D01*
X51925000Y32080000D02*
X50585000Y32080000D01*
X54175000Y50630000D02*
X54175000Y34630000D01*
X54185000Y53940000D02*
X54185000Y31320000D01*
X51925000Y53180000D02*
X48975000Y53180000D01*
X53425000Y31330000D02*
X53425000Y33130000D01*
X53425000Y33130000D02*
X54175000Y33130000D01*
X48975000Y42630000D02*
X48975000Y33140000D01*
X54175000Y52130000D02*
X53425000Y52130000D01*
X53425000Y34630000D02*
X53425000Y50630000D01*
X54175000Y53930000D02*
X54175000Y52130000D01*
X51925000Y53930000D02*
X51925000Y53180000D01*
X53425000Y53930000D02*
X54175000Y53930000D01*
X48215000Y31320000D02*
X48215000Y53940000D01*
X53425000Y50630000D02*
X54175000Y50630000D01*
X54175000Y31330000D02*
X53425000Y31330000D01*
X54475000Y31030000D02*
X53225000Y31030000D01*
X54475000Y32280000D02*
X54475000Y31030000D01*
X48215000Y53940000D02*
X54185000Y53940000D01*
X51925000Y31330000D02*
X51925000Y32080000D01*
X54185000Y31320000D02*
X48215000Y31320000D01*
X53425000Y52130000D02*
X53425000Y53930000D01*
X54175000Y33130000D02*
X54175000Y31330000D01*
%TO.C,J4*%
X31360000Y33465000D02*
X29560000Y33465000D01*
X20560000Y34215000D02*
X20560000Y33465000D01*
X29560000Y34215000D02*
X31360000Y34215000D01*
X22060000Y34215000D02*
X28060000Y34215000D01*
X31370000Y34225000D02*
X31370000Y28255000D01*
X25060000Y29015000D02*
X29550000Y29015000D01*
X20560000Y33465000D02*
X18760000Y33465000D01*
X18760000Y33465000D02*
X18760000Y34215000D01*
X28060000Y33465000D02*
X22060000Y33465000D01*
X22060000Y33465000D02*
X22060000Y34215000D01*
X29560000Y33465000D02*
X29560000Y34215000D01*
X18750000Y34225000D02*
X31370000Y34225000D01*
X18760000Y31965000D02*
X19510000Y31965000D01*
X19510000Y29015000D02*
X25060000Y29015000D01*
X31370000Y28255000D02*
X18750000Y28255000D01*
X31660000Y34515000D02*
X31660000Y33265000D01*
X31360000Y34215000D02*
X31360000Y33465000D01*
X30410000Y34515000D02*
X31660000Y34515000D01*
X19510000Y31965000D02*
X19510000Y29015000D01*
X18750000Y28255000D02*
X18750000Y34225000D01*
X31360000Y31965000D02*
X30610000Y31965000D01*
X30610000Y31965000D02*
X30610000Y30625000D01*
X28060000Y34215000D02*
X28060000Y33465000D01*
X18760000Y34215000D02*
X20560000Y34215000D01*
%TD*%
%LPC*%
D14*
%TO.C,J3*%
X10186600Y55790000D03*
X5186600Y55790000D03*
D15*
X11186600Y58490000D03*
X4186600Y58490000D03*
%TD*%
D16*
%TO.C,J1*%
X49721800Y16920000D03*
D17*
X51721800Y18520000D03*
D18*
X51721800Y21020000D03*
X51721800Y23520000D03*
X51721800Y26020000D03*
%TD*%
D16*
%TO.C,J2*%
X49725000Y32280000D03*
D17*
X51725000Y33880000D03*
D18*
X51725000Y36380000D03*
X51725000Y38880000D03*
X51725000Y41380000D03*
X51725000Y43880000D03*
X51725000Y46380000D03*
X51725000Y48880000D03*
X51725000Y51380000D03*
%TD*%
D16*
%TO.C,J4*%
X30410000Y29765000D03*
D19*
X28810000Y31765000D03*
D20*
X26310000Y31765000D03*
X23810000Y31765000D03*
X21310000Y31765000D03*
%TD*%
M02*
