%TF.GenerationSoftware,KiCad,Pcbnew,(6.0.7)*%
%TF.CreationDate,2022-10-14T07:02:42-05:00*%
%TF.ProjectId,SmartSpin2k,536d6172-7453-4706-996e-326b2e6b6963,prototype*%
%TF.SameCoordinates,Original*%
%TF.FileFunction,Copper,L1,Top*%
%TF.FilePolarity,Positive*%
%FSLAX46Y46*%
G04 Gerber Fmt 4.6, Leading zero omitted, Abs format (unit mm)*
G04 Created by KiCad (PCBNEW (6.0.7)) date 2022-10-14 07:02:42*
%MOMM*%
%LPD*%
G01*
G04 APERTURE LIST*
G04 Aperture macros list*
%AMRoundRect*
0 Rectangle with rounded corners*
0 $1 Rounding radius*
0 $2 $3 $4 $5 $6 $7 $8 $9 X,Y pos of 4 corners*
0 Add a 4 corners polygon primitive as box body*
4,1,4,$2,$3,$4,$5,$6,$7,$8,$9,$2,$3,0*
0 Add four circle primitives for the rounded corners*
1,1,$1+$1,$2,$3*
1,1,$1+$1,$4,$5*
1,1,$1+$1,$6,$7*
1,1,$1+$1,$8,$9*
0 Add four rect primitives between the rounded corners*
20,1,$1+$1,$2,$3,$4,$5,0*
20,1,$1+$1,$4,$5,$6,$7,0*
20,1,$1+$1,$6,$7,$8,$9,0*
20,1,$1+$1,$8,$9,$2,$3,0*%
%AMRotRect*
0 Rectangle, with rotation*
0 The origin of the aperture is its center*
0 $1 length*
0 $2 width*
0 $3 Rotation angle, in degrees counterclockwise*
0 Add horizontal line*
21,1,$1,$2,0,0,$3*%
G04 Aperture macros list end*
%TA.AperFunction,SMDPad,CuDef*%
%ADD10RoundRect,0.225000X-0.225000X-0.250000X0.225000X-0.250000X0.225000X0.250000X-0.225000X0.250000X0*%
%TD*%
%TA.AperFunction,SMDPad,CuDef*%
%ADD11RoundRect,0.250000X-0.512652X-0.159099X-0.159099X-0.512652X0.512652X0.159099X0.159099X0.512652X0*%
%TD*%
%TA.AperFunction,SMDPad,CuDef*%
%ADD12R,1.100000X1.100000*%
%TD*%
%TA.AperFunction,SMDPad,CuDef*%
%ADD13RoundRect,0.135000X0.185000X-0.135000X0.185000X0.135000X-0.185000X0.135000X-0.185000X-0.135000X0*%
%TD*%
%TA.AperFunction,SMDPad,CuDef*%
%ADD14RoundRect,0.250000X-1.500000X-1.000000X1.500000X-1.000000X1.500000X1.000000X-1.500000X1.000000X0*%
%TD*%
%TA.AperFunction,SMDPad,CuDef*%
%ADD15RoundRect,0.135000X0.135000X0.185000X-0.135000X0.185000X-0.135000X-0.185000X0.135000X-0.185000X0*%
%TD*%
%TA.AperFunction,SMDPad,CuDef*%
%ADD16RoundRect,0.218750X-0.256250X0.218750X-0.256250X-0.218750X0.256250X-0.218750X0.256250X0.218750X0*%
%TD*%
%TA.AperFunction,SMDPad,CuDef*%
%ADD17RoundRect,0.225000X0.225000X0.250000X-0.225000X0.250000X-0.225000X-0.250000X0.225000X-0.250000X0*%
%TD*%
%TA.AperFunction,SMDPad,CuDef*%
%ADD18R,1.500000X2.000000*%
%TD*%
%TA.AperFunction,SMDPad,CuDef*%
%ADD19R,3.800000X2.000000*%
%TD*%
%TA.AperFunction,SMDPad,CuDef*%
%ADD20RoundRect,0.250000X0.475000X-0.250000X0.475000X0.250000X-0.475000X0.250000X-0.475000X-0.250000X0*%
%TD*%
%TA.AperFunction,SMDPad,CuDef*%
%ADD21RoundRect,0.150000X-0.662500X-0.150000X0.662500X-0.150000X0.662500X0.150000X-0.662500X0.150000X0*%
%TD*%
%TA.AperFunction,SMDPad,CuDef*%
%ADD22R,2.514000X3.200000*%
%TD*%
%TA.AperFunction,SMDPad,CuDef*%
%ADD23RoundRect,0.200000X-0.800000X0.200000X-0.800000X-0.200000X0.800000X-0.200000X0.800000X0.200000X0*%
%TD*%
%TA.AperFunction,SMDPad,CuDef*%
%ADD24RoundRect,0.218750X0.218750X0.256250X-0.218750X0.256250X-0.218750X-0.256250X0.218750X-0.256250X0*%
%TD*%
%TA.AperFunction,SMDPad,CuDef*%
%ADD25RoundRect,0.140000X0.170000X-0.140000X0.170000X0.140000X-0.170000X0.140000X-0.170000X-0.140000X0*%
%TD*%
%TA.AperFunction,SMDPad,CuDef*%
%ADD26RoundRect,0.218750X-0.218750X-0.256250X0.218750X-0.256250X0.218750X0.256250X-0.218750X0.256250X0*%
%TD*%
%TA.AperFunction,SMDPad,CuDef*%
%ADD27R,0.900000X0.800000*%
%TD*%
%TA.AperFunction,SMDPad,CuDef*%
%ADD28RoundRect,0.250000X0.650000X-0.325000X0.650000X0.325000X-0.650000X0.325000X-0.650000X-0.325000X0*%
%TD*%
%TA.AperFunction,SMDPad,CuDef*%
%ADD29RoundRect,0.135000X-0.135000X-0.185000X0.135000X-0.185000X0.135000X0.185000X-0.135000X0.185000X0*%
%TD*%
%TA.AperFunction,SMDPad,CuDef*%
%ADD30RoundRect,0.140000X-0.140000X-0.170000X0.140000X-0.170000X0.140000X0.170000X-0.140000X0.170000X0*%
%TD*%
%TA.AperFunction,SMDPad,CuDef*%
%ADD31RoundRect,0.250000X-0.132583X0.503814X-0.503814X0.132583X0.132583X-0.503814X0.503814X-0.132583X0*%
%TD*%
%TA.AperFunction,SMDPad,CuDef*%
%ADD32RoundRect,0.062500X0.185616X0.274004X-0.274004X-0.185616X-0.185616X-0.274004X0.274004X0.185616X0*%
%TD*%
%TA.AperFunction,SMDPad,CuDef*%
%ADD33RoundRect,0.062500X-0.185616X0.274004X-0.274004X0.185616X0.185616X-0.274004X0.274004X-0.185616X0*%
%TD*%
%TA.AperFunction,SMDPad,CuDef*%
%ADD34RotRect,3.750000X3.750000X225.000000*%
%TD*%
%TA.AperFunction,SMDPad,CuDef*%
%ADD35RoundRect,0.250000X-0.250000X-0.475000X0.250000X-0.475000X0.250000X0.475000X-0.250000X0.475000X0*%
%TD*%
%TA.AperFunction,SMDPad,CuDef*%
%ADD36RoundRect,0.135000X-0.185000X0.135000X-0.185000X-0.135000X0.185000X-0.135000X0.185000X0.135000X0*%
%TD*%
%TA.AperFunction,SMDPad,CuDef*%
%ADD37RoundRect,0.140000X-0.170000X0.140000X-0.170000X-0.140000X0.170000X-0.140000X0.170000X0.140000X0*%
%TD*%
%TA.AperFunction,SMDPad,CuDef*%
%ADD38RoundRect,0.150000X0.587500X0.150000X-0.587500X0.150000X-0.587500X-0.150000X0.587500X-0.150000X0*%
%TD*%
%TA.AperFunction,SMDPad,CuDef*%
%ADD39RoundRect,0.218750X0.256250X-0.218750X0.256250X0.218750X-0.256250X0.218750X-0.256250X-0.218750X0*%
%TD*%
%TA.AperFunction,SMDPad,CuDef*%
%ADD40RoundRect,0.135000X0.035355X-0.226274X0.226274X-0.035355X-0.035355X0.226274X-0.226274X0.035355X0*%
%TD*%
%TA.AperFunction,SMDPad,CuDef*%
%ADD41R,0.400000X1.350000*%
%TD*%
%TA.AperFunction,ComponentPad*%
%ADD42O,1.250000X0.950000*%
%TD*%
%TA.AperFunction,ComponentPad*%
%ADD43O,1.000000X1.550000*%
%TD*%
%TA.AperFunction,SMDPad,CuDef*%
%ADD44RoundRect,0.200000X0.275000X-0.200000X0.275000X0.200000X-0.275000X0.200000X-0.275000X-0.200000X0*%
%TD*%
%TA.AperFunction,SMDPad,CuDef*%
%ADD45RoundRect,0.250000X0.250000X0.475000X-0.250000X0.475000X-0.250000X-0.475000X0.250000X-0.475000X0*%
%TD*%
%TA.AperFunction,SMDPad,CuDef*%
%ADD46RoundRect,0.150000X0.150000X-0.587500X0.150000X0.587500X-0.150000X0.587500X-0.150000X-0.587500X0*%
%TD*%
%TA.AperFunction,SMDPad,CuDef*%
%ADD47R,2.000000X0.900000*%
%TD*%
%TA.AperFunction,SMDPad,CuDef*%
%ADD48R,0.900000X2.000000*%
%TD*%
%TA.AperFunction,SMDPad,CuDef*%
%ADD49R,5.000000X5.000000*%
%TD*%
%TA.AperFunction,SMDPad,CuDef*%
%ADD50RoundRect,0.140000X0.140000X0.170000X-0.140000X0.170000X-0.140000X-0.170000X0.140000X-0.170000X0*%
%TD*%
%TA.AperFunction,SMDPad,CuDef*%
%ADD51R,1.800000X2.500000*%
%TD*%
%TA.AperFunction,SMDPad,CuDef*%
%ADD52RoundRect,0.225000X0.250000X-0.225000X0.250000X0.225000X-0.250000X0.225000X-0.250000X-0.225000X0*%
%TD*%
%TA.AperFunction,SMDPad,CuDef*%
%ADD53R,0.355600X1.676400*%
%TD*%
%TA.AperFunction,SMDPad,CuDef*%
%ADD54RoundRect,0.250000X0.325000X0.650000X-0.325000X0.650000X-0.325000X-0.650000X0.325000X-0.650000X0*%
%TD*%
%TA.AperFunction,SMDPad,CuDef*%
%ADD55RoundRect,0.250000X0.662913X0.220971X0.220971X0.662913X-0.662913X-0.220971X-0.220971X-0.662913X0*%
%TD*%
%TA.AperFunction,SMDPad,CuDef*%
%ADD56RoundRect,0.062500X-0.062500X0.337500X-0.062500X-0.337500X0.062500X-0.337500X0.062500X0.337500X0*%
%TD*%
%TA.AperFunction,SMDPad,CuDef*%
%ADD57RoundRect,0.062500X-0.337500X0.062500X-0.337500X-0.062500X0.337500X-0.062500X0.337500X0.062500X0*%
%TD*%
%TA.AperFunction,SMDPad,CuDef*%
%ADD58R,3.350000X3.350000*%
%TD*%
%TA.AperFunction,SMDPad,CuDef*%
%ADD59RoundRect,0.200000X0.800000X-0.200000X0.800000X0.200000X-0.800000X0.200000X-0.800000X-0.200000X0*%
%TD*%
%TA.AperFunction,SMDPad,CuDef*%
%ADD60R,5.400000X2.900000*%
%TD*%
%TA.AperFunction,SMDPad,CuDef*%
%ADD61RoundRect,0.250000X-0.220971X0.662913X-0.662913X0.220971X0.220971X-0.662913X0.662913X-0.220971X0*%
%TD*%
%TA.AperFunction,ComponentPad*%
%ADD62RoundRect,0.250000X0.725000X-0.600000X0.725000X0.600000X-0.725000X0.600000X-0.725000X-0.600000X0*%
%TD*%
%TA.AperFunction,ComponentPad*%
%ADD63O,1.950000X1.700000*%
%TD*%
%TA.AperFunction,ComponentPad*%
%ADD64RoundRect,0.250000X0.600000X0.725000X-0.600000X0.725000X-0.600000X-0.725000X0.600000X-0.725000X0*%
%TD*%
%TA.AperFunction,ComponentPad*%
%ADD65O,1.700000X1.950000*%
%TD*%
%TA.AperFunction,ViaPad*%
%ADD66C,0.800000*%
%TD*%
%TA.AperFunction,Conductor*%
%ADD67C,0.500000*%
%TD*%
%TA.AperFunction,Conductor*%
%ADD68C,0.250000*%
%TD*%
%TA.AperFunction,Conductor*%
%ADD69C,0.250200*%
%TD*%
%TA.AperFunction,Conductor*%
%ADD70C,0.399800*%
%TD*%
G04 APERTURE END LIST*
D10*
%TO.P,C21,1*%
%TO.N,/IO0_BOOT*%
X28577800Y23265400D03*
%TO.P,C21,2*%
%TO.N,GND*%
X30127800Y23265400D03*
%TD*%
D11*
%TO.P,C10,1*%
%TO.N,Net-(C10-Pad1)*%
X42778049Y31379351D03*
%TO.P,C10,2*%
%TO.N,Net-(C10-Pad2)*%
X44121551Y30035849D03*
%TD*%
D12*
%TO.P,D13,1,K*%
%TO.N,Net-(D13-Pad1)*%
X6185000Y7517400D03*
%TO.P,D13,2,A*%
%TO.N,Net-(D11-Pad2)*%
X8985000Y7517400D03*
%TD*%
D13*
%TO.P,R4,1*%
%TO.N,/TMCUART1*%
X38820000Y42310000D03*
%TO.P,R4,2*%
%TO.N,/TMCUART2*%
X38820000Y43330000D03*
%TD*%
D14*
%TO.P,C29,1*%
%TO.N,/VDC*%
X29842500Y13840000D03*
%TO.P,C29,2*%
%TO.N,GND*%
X36342500Y13840000D03*
%TD*%
D15*
%TO.P,R28,1*%
%TO.N,Net-(Q1-Pad3)*%
X11407400Y39937800D03*
%TO.P,R28,2*%
%TO.N,Net-(D3-Pad2)*%
X10387400Y39937800D03*
%TD*%
D16*
%TO.P,D2,1,K*%
%TO.N,GND*%
X16390000Y19437500D03*
%TO.P,D2,2,A*%
%TO.N,Net-(D2-Pad2)*%
X16390000Y17862500D03*
%TD*%
D13*
%TO.P,R1,1*%
%TO.N,Net-(C3-Pad1)*%
X21725000Y1911300D03*
%TO.P,R1,2*%
%TO.N,Net-(C5-Pad1)*%
X21725000Y2931300D03*
%TD*%
D17*
%TO.P,C27,1*%
%TO.N,GND*%
X9325000Y21020000D03*
%TO.P,C27,2*%
%TO.N,/REG_5V*%
X7775000Y21020000D03*
%TD*%
D18*
%TO.P,U6,1,GND*%
%TO.N,GND*%
X8130000Y18760000D03*
D19*
%TO.P,U6,2,VO*%
%TO.N,/3V3*%
X5830000Y12460000D03*
D18*
X5830000Y18760000D03*
%TO.P,U6,3,VI*%
%TO.N,/REG_5V*%
X3530000Y18760000D03*
%TD*%
D20*
%TO.P,C28,1*%
%TO.N,/VDC*%
X20430000Y9810000D03*
%TO.P,C28,2*%
%TO.N,GND*%
X20430000Y11710000D03*
%TD*%
D21*
%TO.P,U2,1,BOOT*%
%TO.N,Net-(C4-Pad1)*%
X23499500Y6726900D03*
%TO.P,U2,2,NC*%
%TO.N,unconnected-(U2-Pad2)*%
X23499500Y5456900D03*
%TO.P,U2,3,NC*%
%TO.N,unconnected-(U2-Pad3)*%
X23499500Y4186900D03*
%TO.P,U2,4,VSENSE*%
%TO.N,Net-(C3-Pad1)*%
X23499500Y2916900D03*
%TO.P,U2,5,EN*%
%TO.N,unconnected-(U2-Pad5)*%
X28774500Y2916900D03*
%TO.P,U2,6,GND*%
%TO.N,GND*%
X28774500Y4186900D03*
%TO.P,U2,7,VIN*%
%TO.N,/VDC*%
X28774500Y5456900D03*
%TO.P,U2,8,PH*%
%TO.N,Net-(C4-Pad2)*%
X28774500Y6726900D03*
D22*
%TO.P,U2,9,GNDPAD*%
%TO.N,GND*%
X26137000Y4821900D03*
%TD*%
D23*
%TO.P,SW4,1,1*%
%TO.N,GND*%
X14266000Y52667800D03*
%TO.P,SW4,2,2*%
%TO.N,/EN*%
X14266000Y48467800D03*
%TD*%
D24*
%TO.P,D8,1,A1*%
%TO.N,/D-*%
X5070500Y52170600D03*
%TO.P,D8,2,A2*%
%TO.N,GND*%
X3495500Y52170600D03*
%TD*%
D25*
%TO.P,C19,1*%
%TO.N,/EN*%
X16576600Y48464800D03*
%TO.P,C19,2*%
%TO.N,GND*%
X16576600Y49424800D03*
%TD*%
D26*
%TO.P,D7,1,A1*%
%TO.N,/VBUS*%
X10074100Y53948600D03*
%TO.P,D7,2,A2*%
%TO.N,GND*%
X11649100Y53948600D03*
%TD*%
D27*
%TO.P,Q4,1,E*%
%TO.N,/RTS*%
X21149200Y22365800D03*
%TO.P,Q4,2,B*%
%TO.N,Net-(Q4-Pad2)*%
X21149200Y24265800D03*
%TO.P,Q4,3,C*%
%TO.N,/EN*%
X19149200Y23315800D03*
%TD*%
D28*
%TO.P,C1,1*%
%TO.N,/VDC*%
X22750000Y10885000D03*
%TO.P,C1,2*%
%TO.N,GND*%
X22750000Y13835000D03*
%TD*%
%TO.P,C8,1*%
%TO.N,/VDC*%
X12330000Y9745000D03*
%TO.P,C8,2*%
%TO.N,GND*%
X12330000Y12695000D03*
%TD*%
D29*
%TO.P,R5,1*%
%TO.N,/3V3*%
X10890000Y50420000D03*
%TO.P,R5,2*%
%TO.N,/EN*%
X11910000Y50420000D03*
%TD*%
D30*
%TO.P,C18,1*%
%TO.N,Net-(C18-Pad1)*%
X43536500Y46268300D03*
%TO.P,C18,2*%
%TO.N,Net-(C18-Pad2)*%
X44496500Y46268300D03*
%TD*%
D29*
%TO.P,R18,1*%
%TO.N,Net-(R18-Pad1)*%
X38830000Y48470000D03*
%TO.P,R18,2*%
%TO.N,/TXD0*%
X39850000Y48470000D03*
%TD*%
D31*
%TO.P,R30,1*%
%TO.N,Net-(R19-Pad2)*%
X35306635Y22462835D03*
%TO.P,R30,2*%
%TO.N,GND*%
X34016165Y21172365D03*
%TD*%
D32*
%TO.P,U1,1,OB2*%
%TO.N,/B2*%
X41882911Y25571590D03*
%TO.P,U1,2,ENN*%
%TO.N,/DriverEN*%
X41529357Y25925144D03*
%TO.P,U1,3,GND*%
%TO.N,GND*%
X41175804Y26278697D03*
%TO.P,U1,4,CPO*%
%TO.N,Net-(C10-Pad2)*%
X40822250Y26632250D03*
%TO.P,U1,5,CPI*%
%TO.N,Net-(C10-Pad1)*%
X40468697Y26985804D03*
%TO.P,U1,6,VCP*%
%TO.N,Net-(C14-Pad2)*%
X40115144Y27339357D03*
%TO.P,U1,7,SPREAD*%
%TO.N,unconnected-(U1-Pad7)*%
X39761590Y27692911D03*
D33*
%TO.P,U1,8,5VOUT*%
%TO.N,/5V*%
X38400410Y27692911D03*
%TO.P,U1,9,MS1_AD0*%
%TO.N,unconnected-(U1-Pad9)*%
X38046856Y27339357D03*
%TO.P,U1,10,MS2_AD1*%
%TO.N,unconnected-(U1-Pad10)*%
X37693303Y26985804D03*
%TO.P,U1,11,DIAG*%
%TO.N,unconnected-(U1-Pad11)*%
X37339750Y26632250D03*
%TO.P,U1,12,INDEX*%
%TO.N,unconnected-(U1-Pad12)*%
X36986196Y26278697D03*
%TO.P,U1,13,CLK*%
%TO.N,GND*%
X36632643Y25925144D03*
%TO.P,U1,14,PDN_UART*%
%TO.N,/TMCUART1*%
X36279089Y25571590D03*
D32*
%TO.P,U1,15,VCC_IO*%
%TO.N,/3V3*%
X36279089Y24210410D03*
%TO.P,U1,16,STEP*%
%TO.N,/DriverSTEP*%
X36632643Y23856856D03*
%TO.P,U1,17,VREF*%
%TO.N,Net-(R19-Pad2)*%
X36986196Y23503303D03*
%TO.P,U1,18,GND*%
%TO.N,GND*%
X37339750Y23149750D03*
%TO.P,U1,19,DIR*%
%TO.N,/DriverDIR*%
X37693303Y22796196D03*
%TO.P,U1,20,STDBY*%
%TO.N,Net-(R6-Pad2)*%
X38046856Y22442643D03*
%TO.P,U1,21,OA2*%
%TO.N,/A2*%
X38400410Y22089089D03*
D33*
%TO.P,U1,22,VS*%
%TO.N,/VDC*%
X39761590Y22089089D03*
%TO.P,U1,23,BRA*%
%TO.N,/BRA*%
X40115144Y22442643D03*
%TO.P,U1,24,OA1*%
%TO.N,/A1*%
X40468697Y22796196D03*
%TO.P,U1,25,NC*%
%TO.N,unconnected-(U1-Pad25)*%
X40822250Y23149750D03*
%TO.P,U1,26,OB1*%
%TO.N,/B1*%
X41175804Y23503303D03*
%TO.P,U1,27,BRB*%
%TO.N,/BRB*%
X41529357Y23856856D03*
%TO.P,U1,28,VS*%
%TO.N,/VDC*%
X41882911Y24210410D03*
D34*
%TO.P,U1,29,EPAD*%
%TO.N,GND*%
X39081000Y24891000D03*
%TD*%
D12*
%TO.P,D12,1,K*%
%TO.N,Net-(D12-Pad1)*%
X17062200Y36371800D03*
%TO.P,D12,2,A*%
%TO.N,Net-(D10-Pad2)*%
X14262200Y36371800D03*
%TD*%
D35*
%TO.P,C4,1*%
%TO.N,Net-(C4-Pad1)*%
X23350000Y8710000D03*
%TO.P,C4,2*%
%TO.N,Net-(C4-Pad2)*%
X25250000Y8710000D03*
%TD*%
D14*
%TO.P,C2,1*%
%TO.N,/VDC*%
X32877500Y4945000D03*
%TO.P,C2,2*%
%TO.N,GND*%
X39377500Y4945000D03*
%TD*%
D24*
%TO.P,D9,1,A1*%
%TO.N,/D+*%
X5095900Y53897800D03*
%TO.P,D9,2,A2*%
%TO.N,GND*%
X3520900Y53897800D03*
%TD*%
D36*
%TO.P,R27,1*%
%TO.N,Net-(D11-Pad2)*%
X8296200Y2033000D03*
%TO.P,R27,2*%
%TO.N,/3V3*%
X8296200Y1013000D03*
%TD*%
D20*
%TO.P,C14,1*%
%TO.N,/VDC*%
X27549400Y18073600D03*
%TO.P,C14,2*%
%TO.N,Net-(C14-Pad2)*%
X27549400Y19973600D03*
%TD*%
D15*
%TO.P,R25,1*%
%TO.N,/ShiftDown*%
X17467600Y41477200D03*
%TO.P,R25,2*%
%TO.N,/3V3*%
X16447600Y41477200D03*
%TD*%
D30*
%TO.P,C17,1*%
%TO.N,Net-(C17-Pad1)*%
X45556500Y46268300D03*
%TO.P,C17,2*%
%TO.N,Net-(C17-Pad2)*%
X46516500Y46268300D03*
%TD*%
D29*
%TO.P,R15,1*%
%TO.N,/3V3*%
X13500000Y44706000D03*
%TO.P,R15,2*%
%TO.N,Net-(R11-Pad2)*%
X14520000Y44706000D03*
%TD*%
D20*
%TO.P,C13,1*%
%TO.N,/3V3*%
X40503400Y13476200D03*
%TO.P,C13,2*%
%TO.N,GND*%
X40503400Y15376200D03*
%TD*%
D30*
%TO.P,C24,1*%
%TO.N,/3V3*%
X4150000Y30030000D03*
%TO.P,C24,2*%
%TO.N,GND*%
X5110000Y30030000D03*
%TD*%
D37*
%TO.P,C20,1*%
%TO.N,Net-(C20-Pad1)*%
X47507500Y41794300D03*
%TO.P,C20,2*%
%TO.N,GND*%
X47507500Y40834300D03*
%TD*%
D12*
%TO.P,D11,1,K*%
%TO.N,/ShiftUp*%
X11296400Y4520200D03*
%TO.P,D11,2,A*%
%TO.N,Net-(D11-Pad2)*%
X8496400Y4520200D03*
%TD*%
D38*
%TO.P,Q2,1,E*%
%TO.N,GND*%
X6417500Y2630000D03*
%TO.P,Q2,2,B*%
%TO.N,Net-(D13-Pad1)*%
X6417500Y4530000D03*
%TO.P,Q2,3,C*%
%TO.N,Net-(Q2-Pad3)*%
X4542500Y3580000D03*
%TD*%
D39*
%TO.P,D4,1,K*%
%TO.N,Net-(D4-Pad1)*%
X33350600Y31047000D03*
%TO.P,D4,2,A*%
%TO.N,Net-(D4-Pad2)*%
X33350600Y32622000D03*
%TD*%
D40*
%TO.P,R6,1*%
%TO.N,GND*%
X35443776Y19526576D03*
%TO.P,R6,2*%
%TO.N,Net-(R6-Pad2)*%
X36165024Y20247824D03*
%TD*%
D41*
%TO.P,J3,1*%
%TO.N,/VBUS*%
X8986600Y55790000D03*
%TO.P,J3,2*%
%TO.N,/D-*%
X8336600Y55790000D03*
%TO.P,J3,3*%
%TO.N,/D+*%
X7686600Y55790000D03*
%TO.P,J3,4*%
%TO.N,unconnected-(J3-Pad4)*%
X7036600Y55790000D03*
%TO.P,J3,5*%
%TO.N,GND*%
X6386600Y55790000D03*
D42*
%TO.P,J3,SH*%
X10186600Y55790000D03*
X5186600Y55790000D03*
D43*
X11186600Y58490000D03*
X4186600Y58490000D03*
%TD*%
D36*
%TO.P,R16,1*%
%TO.N,GND*%
X34810600Y31817000D03*
%TO.P,R16,2*%
%TO.N,Net-(D4-Pad1)*%
X34810600Y30797000D03*
%TD*%
D29*
%TO.P,R22,1*%
%TO.N,GND*%
X5130000Y28940000D03*
%TO.P,R22,2*%
%TO.N,Net-(R22-Pad2)*%
X6150000Y28940000D03*
%TD*%
D44*
%TO.P,R2,1*%
%TO.N,Net-(C3-Pad1)*%
X14710000Y1785000D03*
%TO.P,R2,2*%
%TO.N,GND*%
X14710000Y3435000D03*
%TD*%
D45*
%TO.P,C12,1*%
%TO.N,/5V*%
X38100600Y32257000D03*
%TO.P,C12,2*%
%TO.N,GND*%
X36200600Y32257000D03*
%TD*%
D20*
%TO.P,C11,1*%
%TO.N,/VDC*%
X16696200Y9733800D03*
%TO.P,C11,2*%
%TO.N,GND*%
X16696200Y11633800D03*
%TD*%
D13*
%TO.P,R3,1*%
%TO.N,Net-(C3-Pad1)*%
X20440000Y1870000D03*
%TO.P,R3,2*%
%TO.N,/3V3*%
X20440000Y2890000D03*
%TD*%
D15*
%TO.P,R14,1*%
%TO.N,/3V3*%
X5730000Y39060000D03*
%TO.P,R14,2*%
%TO.N,Net-(R14-Pad2)*%
X4710000Y39060000D03*
%TD*%
D46*
%TO.P,Q1,1,E*%
%TO.N,GND*%
X10597400Y36450300D03*
%TO.P,Q1,2,B*%
%TO.N,Net-(D12-Pad1)*%
X12497400Y36450300D03*
%TO.P,Q1,3,C*%
%TO.N,Net-(Q1-Pad3)*%
X11547400Y38325300D03*
%TD*%
D36*
%TO.P,R13,1*%
%TO.N,Net-(D3-Pad2)*%
X13220000Y16390000D03*
%TO.P,R13,2*%
%TO.N,/3V3*%
X13220000Y15370000D03*
%TD*%
D25*
%TO.P,C15,1*%
%TO.N,/EN*%
X11918700Y51720400D03*
%TO.P,C15,2*%
%TO.N,GND*%
X11918700Y52680400D03*
%TD*%
%TO.P,C5,1*%
%TO.N,Net-(C5-Pad1)*%
X21670000Y4090000D03*
%TO.P,C5,2*%
%TO.N,GND*%
X21670000Y5050000D03*
%TD*%
D47*
%TO.P,U3,1,GND*%
%TO.N,GND*%
X19948000Y52284000D03*
%TO.P,U3,2,3V3*%
%TO.N,/3V3*%
X19948000Y51014000D03*
%TO.P,U3,3,EN*%
%TO.N,/EN*%
X19948000Y49744000D03*
%TO.P,U3,4,SENSOR_VP*%
%TO.N,unconnected-(U3-Pad4)*%
X19948000Y48474000D03*
%TO.P,U3,5,SENSOR_VN*%
%TO.N,unconnected-(U3-Pad5)*%
X19948000Y47204000D03*
%TO.P,U3,6,IO34*%
%TO.N,Net-(R11-Pad2)*%
X19948000Y45934000D03*
%TO.P,U3,7,IO35*%
%TO.N,unconnected-(U3-Pad7)*%
X19948000Y44664000D03*
%TO.P,U3,8,IO32*%
%TO.N,/ShiftUp*%
X19948000Y43394000D03*
%TO.P,U3,9,IO33*%
%TO.N,/DriverDIR*%
X19948000Y42124000D03*
%TO.P,U3,10,IO25*%
%TO.N,/DriverSTEP*%
X19948000Y40854000D03*
%TO.P,U3,11,IO26*%
%TO.N,/ShiftDown*%
X19948000Y39584000D03*
%TO.P,U3,12,IO27*%
%TO.N,/DriverEN*%
X19948000Y38314000D03*
%TO.P,U3,13,IO14*%
%TO.N,Net-(J4-Pad1)*%
X19948000Y37044000D03*
%TO.P,U3,14,IO12*%
%TO.N,Net-(J4-Pad4)*%
X19948000Y35774000D03*
D48*
%TO.P,U3,15,GND*%
%TO.N,GND*%
X22733000Y34774000D03*
%TO.P,U3,16,IO13*%
%TO.N,Net-(J4-Pad2)*%
X24003000Y34774000D03*
%TO.P,U3,17,SHD/SD2*%
%TO.N,unconnected-(U3-Pad17)*%
X25273000Y34774000D03*
%TO.P,U3,18,SWP/SD3*%
%TO.N,unconnected-(U3-Pad18)*%
X26543000Y34774000D03*
%TO.P,U3,19,SCS/CMD*%
%TO.N,unconnected-(U3-Pad19)*%
X27813000Y34774000D03*
%TO.P,U3,20,SCK/CLK*%
%TO.N,unconnected-(U3-Pad20)*%
X29083000Y34774000D03*
%TO.P,U3,21,SDO/SD0*%
%TO.N,unconnected-(U3-Pad21)*%
X30353000Y34774000D03*
%TO.P,U3,22,SDI/SD1*%
%TO.N,unconnected-(U3-Pad22)*%
X31623000Y34774000D03*
%TO.P,U3,23,IO15*%
%TO.N,Net-(J4-Pad3)*%
X32893000Y34774000D03*
%TO.P,U3,24,IO2*%
%TO.N,Net-(D4-Pad2)*%
X34163000Y34774000D03*
D47*
%TO.P,U3,25,IO0*%
%TO.N,/IO0_BOOT*%
X36948000Y35774000D03*
%TO.P,U3,26,IO4*%
%TO.N,unconnected-(U3-Pad26)*%
X36948000Y37044000D03*
%TO.P,U3,27,IO16*%
%TO.N,unconnected-(U3-Pad27)*%
X36948000Y38314000D03*
%TO.P,U3,28,IO17*%
%TO.N,unconnected-(U3-Pad28)*%
X36948000Y39584000D03*
%TO.P,U3,29,IO5*%
%TO.N,unconnected-(U3-Pad29)*%
X36948000Y40854000D03*
%TO.P,U3,30,IO18*%
%TO.N,/TMCUART1*%
X36948000Y42124000D03*
%TO.P,U3,31,IO19*%
%TO.N,/TMCUART2*%
X36948000Y43394000D03*
%TO.P,U3,32,NC*%
%TO.N,unconnected-(U3-Pad32)*%
X36948000Y44664000D03*
%TO.P,U3,33,IO21*%
%TO.N,/T1IN*%
X36948000Y45934000D03*
%TO.P,U3,34,RXD0*%
%TO.N,Net-(R20-Pad1)*%
X36948000Y47204000D03*
%TO.P,U3,35,TXD0*%
%TO.N,Net-(R18-Pad1)*%
X36948000Y48474000D03*
%TO.P,U3,36,IO22*%
%TO.N,/R1OUT*%
X36948000Y49744000D03*
%TO.P,U3,37,IO23*%
%TO.N,unconnected-(U3-Pad37)*%
X36948000Y51014000D03*
%TO.P,U3,38,GND*%
%TO.N,GND*%
X36948000Y52284000D03*
D49*
%TO.P,U3,39,GND*%
X27448000Y44784000D03*
%TD*%
D36*
%TO.P,R24,1*%
%TO.N,/ShiftUp*%
X10506000Y1931400D03*
%TO.P,R24,2*%
%TO.N,/3V3*%
X10506000Y911400D03*
%TD*%
D50*
%TO.P,C26,1*%
%TO.N,/3V3*%
X5080000Y42710000D03*
%TO.P,C26,2*%
%TO.N,GND*%
X4120000Y42710000D03*
%TD*%
D15*
%TO.P,R12,1*%
%TO.N,Net-(D2-Pad2)*%
X16273800Y16305800D03*
%TO.P,R12,2*%
%TO.N,/3V3*%
X15253800Y16305800D03*
%TD*%
D51*
%TO.P,D6,1,K*%
%TO.N,/REG_5V*%
X5146600Y21824200D03*
%TO.P,D6,2,A*%
%TO.N,/VBUS*%
X5146600Y25824200D03*
%TD*%
D16*
%TO.P,D3,1,K*%
%TO.N,GND*%
X13220000Y19467500D03*
%TO.P,D3,2,A*%
%TO.N,Net-(D3-Pad2)*%
X13220000Y17892500D03*
%TD*%
D51*
%TO.P,D1,1,K*%
%TO.N,Net-(C4-Pad2)*%
X25830000Y11540000D03*
%TO.P,D1,2,A*%
%TO.N,GND*%
X25830000Y15540000D03*
%TD*%
D50*
%TO.P,C22,1*%
%TO.N,Net-(C22-Pad1)*%
X42477500Y46204300D03*
%TO.P,C22,2*%
%TO.N,GND*%
X41517500Y46204300D03*
%TD*%
D29*
%TO.P,R20,1*%
%TO.N,Net-(R20-Pad1)*%
X38830000Y47270000D03*
%TO.P,R20,2*%
%TO.N,/RXD0*%
X39850000Y47270000D03*
%TD*%
D27*
%TO.P,Q3,1,E*%
%TO.N,/DTR*%
X24949200Y24240800D03*
%TO.P,Q3,2,B*%
%TO.N,Net-(Q3-Pad2)*%
X24949200Y22340800D03*
%TO.P,Q3,3,C*%
%TO.N,/IO0_BOOT*%
X26949200Y23290800D03*
%TD*%
D52*
%TO.P,C30,1*%
%TO.N,/VDC*%
X18601200Y9731000D03*
%TO.P,C30,2*%
%TO.N,GND*%
X18601200Y11281000D03*
%TD*%
D15*
%TO.P,R26,1*%
%TO.N,/3V3*%
X15181600Y41451800D03*
%TO.P,R26,2*%
%TO.N,Net-(D10-Pad2)*%
X14161600Y41451800D03*
%TD*%
D16*
%TO.P,D5,1,K*%
%TO.N,GND*%
X10430000Y19437500D03*
%TO.P,D5,2,A*%
%TO.N,Net-(D5-Pad2)*%
X10430000Y17862500D03*
%TD*%
D20*
%TO.P,C9,1*%
%TO.N,/VDC*%
X14613400Y9581400D03*
%TO.P,C9,2*%
%TO.N,GND*%
X14613400Y11481400D03*
%TD*%
D15*
%TO.P,R19,1*%
%TO.N,/5V*%
X38060400Y30600000D03*
%TO.P,R19,2*%
%TO.N,Net-(R19-Pad2)*%
X37040400Y30600000D03*
%TD*%
D53*
%TO.P,U5,1,C1+*%
%TO.N,Net-(C17-Pad2)*%
X46172499Y43963700D03*
%TO.P,U5,2,VS+*%
%TO.N,Net-(C20-Pad1)*%
X45522501Y43963700D03*
%TO.P,U5,3,C1-*%
%TO.N,Net-(C17-Pad1)*%
X44872499Y43963700D03*
%TO.P,U5,4,C2+*%
%TO.N,Net-(C18-Pad2)*%
X44222501Y43963700D03*
%TO.P,U5,5,C2-*%
%TO.N,Net-(C18-Pad1)*%
X43572502Y43963700D03*
%TO.P,U5,6,VS-*%
%TO.N,Net-(C22-Pad1)*%
X42922501Y43963700D03*
%TO.P,U5,7,T2OUT*%
%TO.N,unconnected-(U5-Pad7)*%
X42272502Y43963700D03*
%TO.P,U5,8,R2IN*%
%TO.N,unconnected-(U5-Pad8)*%
X41622501Y43963700D03*
%TO.P,U5,9,R2OUT*%
%TO.N,unconnected-(U5-Pad9)*%
X41622501Y38324900D03*
%TO.P,U5,10,T2IN*%
%TO.N,unconnected-(U5-Pad10)*%
X42272499Y38324900D03*
%TO.P,U5,11,T1IN*%
%TO.N,/T1IN*%
X42922501Y38324900D03*
%TO.P,U5,12,R1OUT*%
%TO.N,/R1OUT*%
X43572499Y38324900D03*
%TO.P,U5,13,R1IN*%
%TO.N,/RS232IN1*%
X44222498Y38324900D03*
%TO.P,U5,14,T1OUT*%
%TO.N,/RS232OUT1*%
X44872499Y38324900D03*
%TO.P,U5,15,GND*%
%TO.N,GND*%
X45522498Y38324900D03*
%TO.P,U5,16,VCC*%
%TO.N,/3V3*%
X46172499Y38324900D03*
%TD*%
D54*
%TO.P,C6,1*%
%TO.N,/3V3*%
X18935000Y5610000D03*
%TO.P,C6,2*%
%TO.N,GND*%
X15985000Y5610000D03*
%TD*%
D20*
%TO.P,C7,1*%
%TO.N,Net-(C3-Pad1)*%
X18760000Y1520000D03*
%TO.P,C7,2*%
%TO.N,/3V3*%
X18760000Y3420000D03*
%TD*%
D55*
%TO.P,R7,1*%
%TO.N,GND*%
X44179144Y17329056D03*
%TO.P,R7,2*%
%TO.N,/BRA*%
X42110856Y19397344D03*
%TD*%
D45*
%TO.P,C25,1*%
%TO.N,/3V3*%
X5550000Y44710000D03*
%TO.P,C25,2*%
%TO.N,GND*%
X3650000Y44710000D03*
%TD*%
D56*
%TO.P,U4,1,DCD*%
%TO.N,unconnected-(U4-Pad1)*%
X11701200Y31227200D03*
%TO.P,U4,2,RI*%
%TO.N,unconnected-(U4-Pad2)*%
X11201200Y31227200D03*
%TO.P,U4,3,GND*%
%TO.N,GND*%
X10701200Y31227200D03*
%TO.P,U4,4,D+*%
%TO.N,/D+*%
X10201200Y31227200D03*
%TO.P,U4,5,D-*%
%TO.N,/D-*%
X9701200Y31227200D03*
%TO.P,U4,6,VDD*%
%TO.N,/3V3*%
X9201200Y31227200D03*
%TO.P,U4,7,REGIN*%
X8701200Y31227200D03*
D57*
%TO.P,U4,8,VBUS*%
%TO.N,/VBUS*%
X7751200Y30277200D03*
%TO.P,U4,9,~{RST}*%
%TO.N,Net-(R14-Pad2)*%
X7751200Y29777200D03*
%TO.P,U4,10,NC*%
%TO.N,unconnected-(U4-Pad10)*%
X7751200Y29277200D03*
%TO.P,U4,11,~{SUSPEND}*%
%TO.N,Net-(R22-Pad2)*%
X7751200Y28777200D03*
%TO.P,U4,12,SUSPEND*%
%TO.N,unconnected-(U4-Pad12)*%
X7751200Y28277200D03*
%TO.P,U4,13,NC@1*%
%TO.N,unconnected-(U4-Pad13)*%
X7751200Y27777200D03*
%TO.P,U4,14,NC@2*%
%TO.N,unconnected-(U4-Pad14)*%
X7751200Y27277200D03*
D56*
%TO.P,U4,15,NC@3*%
%TO.N,unconnected-(U4-Pad15)*%
X8701200Y26327200D03*
%TO.P,U4,16,NC@4*%
%TO.N,unconnected-(U4-Pad16)*%
X9201200Y26327200D03*
%TO.P,U4,17,NC@5*%
%TO.N,unconnected-(U4-Pad17)*%
X9701200Y26327200D03*
%TO.P,U4,18,NC/VPP*%
%TO.N,unconnected-(U4-Pad18)*%
X10201200Y26327200D03*
%TO.P,U4,19,NC@6*%
%TO.N,unconnected-(U4-Pad19)*%
X10701200Y26327200D03*
%TO.P,U4,20,NC@7*%
%TO.N,unconnected-(U4-Pad20)*%
X11201200Y26327200D03*
%TO.P,U4,21,NC@8*%
%TO.N,unconnected-(U4-Pad21)*%
X11701200Y26327200D03*
D57*
%TO.P,U4,22,NC@9*%
%TO.N,unconnected-(U4-Pad22)*%
X12651200Y27277200D03*
%TO.P,U4,23,CTS*%
%TO.N,unconnected-(U4-Pad23)*%
X12651200Y27777200D03*
%TO.P,U4,24,RTS*%
%TO.N,/RTS*%
X12651200Y28277200D03*
%TO.P,U4,25,RXD*%
%TO.N,/TXD0*%
X12651200Y28777200D03*
%TO.P,U4,26,TXD*%
%TO.N,/RXD0*%
X12651200Y29277200D03*
%TO.P,U4,27,DSR*%
%TO.N,unconnected-(U4-Pad27)*%
X12651200Y29777200D03*
%TO.P,U4,28,DTR*%
%TO.N,/DTR*%
X12651200Y30277200D03*
D58*
%TO.P,U4,29,GND@1*%
%TO.N,GND*%
X10201200Y28777200D03*
%TD*%
D13*
%TO.P,R29,1*%
%TO.N,Net-(Q2-Pad3)*%
X4740000Y5960000D03*
%TO.P,R29,2*%
%TO.N,Net-(D2-Pad2)*%
X4740000Y6980000D03*
%TD*%
D12*
%TO.P,D10,1,K*%
%TO.N,/ShiftDown*%
X17087600Y39140400D03*
%TO.P,D10,2,A*%
%TO.N,Net-(D10-Pad2)*%
X14287600Y39140400D03*
%TD*%
D20*
%TO.P,C3,1*%
%TO.N,Net-(C3-Pad1)*%
X16600000Y1540000D03*
%TO.P,C3,2*%
%TO.N,GND*%
X16600000Y3440000D03*
%TD*%
D15*
%TO.P,R11,1*%
%TO.N,GND*%
X14509600Y45847200D03*
%TO.P,R11,2*%
%TO.N,Net-(R11-Pad2)*%
X13489600Y45847200D03*
%TD*%
%TO.P,R10,1*%
%TO.N,/DTR*%
X23739200Y24340800D03*
%TO.P,R10,2*%
%TO.N,Net-(Q4-Pad2)*%
X22719200Y24340800D03*
%TD*%
%TO.P,R9,1*%
%TO.N,Net-(Q3-Pad2)*%
X23659200Y22275800D03*
%TO.P,R9,2*%
%TO.N,/RTS*%
X22639200Y22275800D03*
%TD*%
D36*
%TO.P,R23,1*%
%TO.N,Net-(D5-Pad2)*%
X10430000Y16510000D03*
%TO.P,R23,2*%
%TO.N,/3V3*%
X10430000Y15490000D03*
%TD*%
D59*
%TO.P,SW1,1,1*%
%TO.N,/IO0_BOOT*%
X42110000Y48420000D03*
%TO.P,SW1,2,2*%
%TO.N,GND*%
X42110000Y52620000D03*
%TD*%
D60*
%TO.P,L1,1,1*%
%TO.N,Net-(C4-Pad2)*%
X48094800Y2181600D03*
%TO.P,L1,2,2*%
%TO.N,/3V3*%
X48094800Y13181600D03*
%TD*%
D35*
%TO.P,C23,1*%
%TO.N,GND*%
X3650000Y40710000D03*
%TO.P,C23,2*%
%TO.N,/3V3*%
X5550000Y40710000D03*
%TD*%
D61*
%TO.P,R8,1*%
%TO.N,GND*%
X47811344Y25442544D03*
%TO.P,R8,2*%
%TO.N,/BRB*%
X45743056Y23374256D03*
%TD*%
D50*
%TO.P,C16,1*%
%TO.N,/IO0_BOOT*%
X46380000Y48630000D03*
%TO.P,C16,2*%
%TO.N,GND*%
X45420000Y48630000D03*
%TD*%
D62*
%TO.P,J1,1,1*%
%TO.N,/A2*%
X51721800Y18520000D03*
D63*
%TO.P,J1,2,2*%
%TO.N,/A1*%
X51721800Y21020000D03*
%TO.P,J1,3,3*%
%TO.N,/B1*%
X51721800Y23520000D03*
%TO.P,J1,4,4*%
%TO.N,/B2*%
X51721800Y26020000D03*
%TD*%
D62*
%TO.P,J2,1,1*%
%TO.N,/VDC*%
X51725000Y33880000D03*
D63*
%TO.P,J2,2,2*%
%TO.N,GND*%
X51725000Y36380000D03*
%TO.P,J2,3,3*%
%TO.N,/ShiftDown*%
X51725000Y38880000D03*
%TO.P,J2,4,4*%
%TO.N,/ShiftUp*%
X51725000Y41380000D03*
%TO.P,J2,5,5*%
%TO.N,GND*%
X51725000Y43880000D03*
%TO.P,J2,6,6*%
X51725000Y46380000D03*
%TO.P,J2,7,7*%
%TO.N,/RS232OUT1*%
X51725000Y48880000D03*
%TO.P,J2,8,8*%
%TO.N,/RS232IN1*%
X51725000Y51380000D03*
%TD*%
D64*
%TO.P,J4,1,1*%
%TO.N,Net-(J4-Pad1)*%
X28810000Y31765000D03*
D65*
%TO.P,J4,2,2*%
%TO.N,Net-(J4-Pad2)*%
X26310000Y31765000D03*
%TO.P,J4,3,3*%
%TO.N,Net-(J4-Pad3)*%
X23810000Y31765000D03*
%TO.P,J4,4,4*%
%TO.N,Net-(J4-Pad4)*%
X21310000Y31765000D03*
%TD*%
D66*
%TO.N,GND*%
X28642000Y44703000D03*
X16390000Y20517700D03*
X41517500Y47165000D03*
X6417500Y1658000D03*
X5110000Y31004500D03*
X25644400Y38966500D03*
X26102000Y43433000D03*
X39038000Y26611000D03*
X36243200Y33721000D03*
X44517400Y48590100D03*
X16576600Y50750600D03*
X36342500Y15788100D03*
X40554200Y16458200D03*
X10430000Y21020000D03*
X39614400Y29336000D03*
X26102000Y45973000D03*
X39038000Y24815000D03*
X49114000Y24433800D03*
X39038000Y23019000D03*
X22799600Y36752800D03*
X27372000Y45973000D03*
X18301300Y52284000D03*
X14613400Y12648100D03*
X3403400Y55041900D03*
X38140000Y25713000D03*
X11649100Y55032900D03*
X39936000Y25713000D03*
X37241000Y24815000D03*
X27371600Y36702000D03*
X40834000Y24815000D03*
X38140000Y23917000D03*
X34898400Y38966500D03*
X45522500Y36791500D03*
X22750000Y15024900D03*
X35931400Y30733000D03*
X42110000Y51587900D03*
X8491700Y17123200D03*
X3148600Y42748000D03*
X28642000Y45973000D03*
X10556800Y34924000D03*
X16696200Y12823600D03*
X35283800Y52347300D03*
X27372000Y43433000D03*
X39360400Y31723600D03*
X18601200Y12413600D03*
X44836200Y16328900D03*
X27372000Y44703000D03*
X39936000Y23917000D03*
X28642000Y43433000D03*
X26102000Y44703000D03*
X32807200Y22655800D03*
X14710000Y4529800D03*
X13220000Y20542100D03*
X10226600Y28802600D03*
X20430000Y12851200D03*
X21670000Y5969700D03*
X33518400Y19125200D03*
X39377500Y3052900D03*
X15468900Y45847200D03*
X48733000Y41553400D03*
X12334800Y11479800D03*
X14453500Y51642900D03*
X24399800Y15543800D03*
X26137000Y2606700D03*
%TO.N,/VDC*%
X40147800Y19988800D03*
X16732400Y8317400D03*
X28611800Y16331800D03*
X36127600Y5142400D03*
X44923000Y25068800D03*
X22229100Y9549400D03*
%TO.N,/3V3*%
X4154600Y35262100D03*
X8214700Y35837600D03*
X9433000Y32786800D03*
X36865500Y29127600D03*
X5922200Y35837600D03*
%TO.N,Net-(C14-Pad2)*%
X41047250Y28588950D03*
X34737600Y18275700D03*
%TO.N,Net-(D3-Pad2)*%
X10619500Y33536900D03*
X14124100Y27266300D03*
%TO.N,/VBUS*%
X3394000Y34060400D03*
X10696800Y51925000D03*
X3812100Y38856500D03*
X7381800Y34466800D03*
%TO.N,/ShiftDown*%
X17412300Y40508800D03*
X21671400Y40055100D03*
%TO.N,/ShiftUp*%
X14820500Y14503000D03*
X31892800Y25808900D03*
%TO.N,/B2*%
X43805400Y27075400D03*
%TO.N,/D-*%
X6541300Y50126100D03*
X8434500Y54062100D03*
X10361600Y46305800D03*
%TO.N,/IO0_BOOT*%
X39713400Y36216700D03*
X47412200Y47243000D03*
X30597400Y31368000D03*
%TO.N,/EN*%
X6933000Y30845500D03*
X18063000Y50010800D03*
X12893600Y51836800D03*
X13249200Y24484600D03*
X13498000Y49801400D03*
%TO.N,/TMCUART1*%
X40699100Y35618900D03*
X36642200Y27663500D03*
%TO.N,/TXD0*%
X16253200Y30341800D03*
X40681600Y38792000D03*
%TO.N,/RXD0*%
X14849400Y30275800D03*
X39793400Y38242000D03*
%TO.N,/DriverDIR*%
X31224700Y32592800D03*
X26071700Y36854700D03*
%TO.N,/DriverSTEP*%
X23903000Y36614400D03*
X33447100Y29742400D03*
%TO.N,/DriverEN*%
X21938900Y38876400D03*
X49112900Y38256700D03*
%TO.N,/T1IN*%
X38905200Y46122200D03*
X42775300Y42318700D03*
%TO.N,Net-(R11-Pad2)*%
X17817000Y47238000D03*
X12603400Y45946500D03*
X17205300Y45795300D03*
%TO.N,Net-(D12-Pad1)*%
X16038701Y34801499D03*
X13731800Y34771600D03*
%TO.N,Net-(C20-Pad1)*%
X46192100Y40691100D03*
X45218700Y42405500D03*
%TO.N,Net-(R19-Pad2)*%
X32832600Y25018000D03*
X34255000Y25808900D03*
%TD*%
D67*
%TO.N,GND*%
X32197600Y23265400D02*
X32807200Y22655800D01*
X30127800Y23265400D02*
X32197600Y23265400D01*
D68*
%TO.N,/IO0_BOOT*%
X26974600Y23265400D02*
X26949200Y23290800D01*
X28577800Y23265400D02*
X26974600Y23265400D01*
%TO.N,/DriverDIR*%
X29352800Y26796000D02*
X29352800Y22097000D01*
X29352800Y22097000D02*
X31474900Y19974900D01*
X31474900Y19974900D02*
X34872000Y19974900D01*
X31664200Y31524600D02*
X31664200Y29107400D01*
X34872000Y19974900D02*
X37693300Y22796200D01*
X31224700Y31964100D02*
X31664200Y31524600D01*
X31224700Y32592800D02*
X31224700Y31964100D01*
X31664200Y29107400D02*
X29352800Y26796000D01*
D67*
%TO.N,GND*%
X10701200Y29277200D02*
X10701200Y30376700D01*
D68*
X37241000Y25384800D02*
X36700656Y25925144D01*
D67*
X20430000Y12851200D02*
X20430000Y11710000D01*
X36342500Y15788100D02*
X36342500Y13840000D01*
D69*
X10701200Y30376700D02*
X10701200Y31227200D01*
D67*
X48105256Y25442544D02*
X49114000Y24433800D01*
X14453500Y51642900D02*
X14453500Y52480300D01*
X35283800Y52347300D02*
X35434600Y52347300D01*
X36243200Y32299600D02*
X36200600Y32257000D01*
X44179100Y16986000D02*
X44179100Y17329100D01*
X34810600Y31817000D02*
X35250600Y32257000D01*
X45380100Y48590100D02*
X45420000Y48630000D01*
X48013900Y40834300D02*
X48733000Y41553400D01*
X40554200Y16458200D02*
X40503400Y16407400D01*
X8130000Y18760000D02*
X8130000Y17309900D01*
X47507500Y40834300D02*
X48013900Y40834300D01*
X41517500Y46204300D02*
X41517500Y47165000D01*
X3403400Y54015300D02*
X3520900Y53897800D01*
X16390000Y20517700D02*
X16390000Y19437500D01*
X14453500Y52480300D02*
X14266000Y52667800D01*
X5186600Y55790000D02*
X6386300Y55790000D01*
X5130000Y30010000D02*
X5130000Y28940000D01*
X12330000Y11484600D02*
X12330000Y12695000D01*
X34016165Y21172365D02*
X34016165Y21446835D01*
X36243200Y33721000D02*
X36243200Y32299600D01*
X3650000Y42710000D02*
X3650000Y42748000D01*
X36200600Y32257000D02*
X36200600Y31002200D01*
X26137000Y4821900D02*
X26137000Y4186900D01*
X6417500Y2630000D02*
X6417500Y1658000D01*
X3650000Y42748000D02*
X3650000Y44710000D01*
X18601200Y12413600D02*
X18601200Y11281000D01*
X3650000Y40710000D02*
X3650000Y42710000D01*
X14613400Y12648100D02*
X14613400Y11481400D01*
X24403600Y15540000D02*
X25830000Y15540000D01*
X5110000Y30030000D02*
X5130000Y30010000D01*
X9325000Y21020000D02*
X10430000Y21020000D01*
X14710000Y4529800D02*
X14710000Y3435000D01*
X35250600Y32257000D02*
X36200600Y32257000D01*
X15985000Y5173200D02*
X15985000Y5610000D01*
X39962900Y25686100D02*
X40583200Y25686100D01*
X3403400Y55041900D02*
X3403400Y54015300D01*
X15468900Y45847200D02*
X14509600Y45847200D01*
X8130000Y17309900D02*
X8305000Y17309900D01*
X18301300Y52284000D02*
X19948000Y52284000D01*
X44517400Y48590100D02*
X45380100Y48590100D01*
X42110000Y52620000D02*
X42110000Y51587900D01*
X5110000Y31004500D02*
X5110000Y30030000D01*
X45522500Y36791500D02*
X45522500Y38324900D01*
X10597400Y36450300D02*
X10597400Y34964600D01*
X26137000Y4186900D02*
X26137000Y2606700D01*
X22750000Y13835000D02*
X22750000Y15024900D01*
X15341600Y4529800D02*
X15985000Y5173200D01*
X39936000Y25713000D02*
X39962900Y25686100D01*
X36200600Y31002200D02*
X35931400Y30733000D01*
X34016165Y21446835D02*
X32807200Y22655800D01*
X3148600Y42748000D02*
X3650000Y42748000D01*
X8305000Y17309900D02*
X8491700Y17123200D01*
X16600000Y4995000D02*
X16600000Y3440000D01*
X39377500Y3052900D02*
X39377500Y4945000D01*
X36948000Y52284000D02*
X35497900Y52284000D01*
X37241000Y24815000D02*
X37241000Y25384800D01*
X10597400Y34964600D02*
X10556800Y34924000D01*
X39038000Y24815000D02*
X39081000Y24858000D01*
X14710000Y4529800D02*
X15341600Y4529800D01*
X33518400Y19125200D02*
X35042400Y19125200D01*
D70*
X6386300Y55790000D02*
X6386600Y55790000D01*
D67*
X11918700Y52680400D02*
X11649100Y52950000D01*
X11649100Y53948600D02*
X11649100Y55032900D01*
X15985000Y5610000D02*
X16600000Y4995000D01*
X16576600Y50750600D02*
X16576600Y49424800D01*
X40503400Y16407400D02*
X40503400Y15376200D01*
X28078900Y38966500D02*
X27372000Y39673400D01*
D69*
X37932300Y23742300D02*
X37339700Y23149700D01*
D67*
X21670000Y5050000D02*
X21670000Y5969700D01*
X24399800Y15543800D02*
X24403600Y15540000D01*
X27372000Y44703000D02*
X27448000Y44779000D01*
X11649100Y52950000D02*
X11649100Y53948600D01*
X44836200Y16328900D02*
X44179100Y16986000D01*
X39614400Y29336000D02*
X39360400Y29590000D01*
X22799600Y36752800D02*
X22733000Y36686200D01*
D69*
X40583200Y25686100D02*
X41175800Y26278700D01*
D67*
X16696200Y12823600D02*
X16696200Y11633800D01*
X34898400Y38966500D02*
X28078900Y38966500D01*
X10430000Y21020000D02*
X10430000Y19437500D01*
X27371600Y36702000D02*
X27371600Y37239300D01*
X35434600Y52347300D02*
X35497900Y52284000D01*
X38107000Y23917000D02*
X37932300Y23742300D01*
X27372000Y39673400D02*
X27372000Y43433000D01*
X47811344Y25442544D02*
X48105256Y25442544D01*
X12334800Y11479800D02*
X12330000Y11484600D01*
X22733000Y36686200D02*
X22733000Y34774000D01*
X26137000Y4186900D02*
X28774500Y4186900D01*
X13220000Y20542100D02*
X13220000Y19467500D01*
X10226600Y28802600D02*
X10701200Y29277200D01*
X39081000Y24858000D02*
X39081000Y24891000D01*
X27371600Y37239300D02*
X25644400Y38966500D01*
X3520900Y52196000D02*
X3520900Y53897800D01*
X10201200Y28777200D02*
X10226600Y28802600D01*
X38140000Y23917000D02*
X38107000Y23917000D01*
X3495500Y52170600D02*
X3520900Y52196000D01*
D68*
X36700656Y25925144D02*
X36632643Y25925144D01*
D67*
X39360400Y29590000D02*
X39360400Y31723600D01*
X4120000Y42710000D02*
X3650000Y42710000D01*
X27448000Y44779000D02*
X27448000Y44784000D01*
X35042400Y19125200D02*
X35443800Y19526600D01*
%TO.N,/VDC*%
X30579000Y4945000D02*
X32877500Y4945000D01*
X29842500Y15587500D02*
X29842500Y13840000D01*
X16696200Y9733800D02*
X16699000Y9731000D01*
X16699000Y9731000D02*
X18601200Y9731000D01*
X16543800Y9581400D02*
X16696200Y9733800D01*
X28774500Y5456900D02*
X30067100Y5456900D01*
X35930200Y4945000D02*
X36127600Y5142400D01*
X48425600Y33880000D02*
X51725000Y33880000D01*
X22229100Y9549400D02*
X22229100Y10364100D01*
X14449800Y9745000D02*
X14613400Y9581400D01*
X32877500Y4945000D02*
X35930200Y4945000D01*
X47274400Y32728800D02*
X48425600Y33880000D01*
X44923000Y25068800D02*
X44923000Y26878000D01*
X40147800Y19988800D02*
X39716000Y20420600D01*
X29098200Y16331800D02*
X29842500Y15587500D01*
X44923000Y26878000D02*
X47274400Y29229400D01*
X20351000Y9731000D02*
X20430000Y9810000D01*
D69*
X42022200Y24210400D02*
X41882900Y24210400D01*
D67*
X28611800Y16331800D02*
X29098200Y16331800D01*
X28611800Y17011200D02*
X28611800Y16331800D01*
X27549400Y18073600D02*
X28611800Y17011200D01*
D69*
X42027400Y24205200D02*
X42022200Y24210400D01*
D67*
X16543800Y9581400D02*
X16543800Y8506000D01*
X44923000Y25068800D02*
X44059400Y24205200D01*
X22229100Y10364100D02*
X22750000Y10885000D01*
X39716000Y20420600D02*
X39716000Y22020800D01*
X16543800Y8506000D02*
X16732400Y8317400D01*
X12330000Y9745000D02*
X14449800Y9745000D01*
X30067100Y5456900D02*
X30579000Y4945000D01*
D69*
X39716000Y22020800D02*
X39716000Y22043500D01*
D67*
X18601200Y9731000D02*
X20351000Y9731000D01*
X47274400Y29229400D02*
X47274400Y32728800D01*
D69*
X39716000Y22043500D02*
X39761600Y22089100D01*
D67*
X14613400Y9581400D02*
X16543800Y9581400D01*
X44059400Y24205200D02*
X42027400Y24205200D01*
D68*
%TO.N,Net-(C3-Pad1)*%
X21683700Y1870000D02*
X21725000Y1911300D01*
X23499500Y2916900D02*
X23499500Y2349900D01*
X14955000Y1540000D02*
X16600000Y1540000D01*
X20440000Y1870000D02*
X21683700Y1870000D01*
X19110000Y1870000D02*
X20440000Y1870000D01*
X14710000Y1785000D02*
X14955000Y1540000D01*
X18740000Y1540000D02*
X18760000Y1520000D01*
X23060900Y1911300D02*
X21725000Y1911300D01*
X16600000Y1540000D02*
X18740000Y1540000D01*
X23499500Y2349900D02*
X23060900Y1911300D01*
X18760000Y1520000D02*
X19110000Y1870000D01*
%TO.N,Net-(C4-Pad1)*%
X23350000Y8710000D02*
X23499500Y8560500D01*
X23499500Y8560500D02*
X23499500Y6726900D01*
%TO.N,Net-(C4-Pad2)*%
X28774500Y7079700D02*
X28774500Y6726900D01*
X25830000Y9964900D02*
X25250000Y9384900D01*
X48094800Y2181600D02*
X48094800Y3956700D01*
X25830000Y11540000D02*
X25830000Y10752500D01*
X25830000Y10024200D02*
X28774500Y7079700D01*
X25830000Y10752500D02*
X25830000Y10024200D01*
X45324600Y6726900D02*
X28774500Y6726900D01*
X48094800Y3956700D02*
X45324600Y6726900D01*
X25250000Y9384900D02*
X25250000Y8710000D01*
X25830000Y10752500D02*
X25830000Y9964900D01*
%TO.N,Net-(C5-Pad1)*%
X21725000Y4035000D02*
X21725000Y2931300D01*
X21670000Y4090000D02*
X21725000Y4035000D01*
%TO.N,Net-(C10-Pad1)*%
X42179800Y28696195D02*
X40469409Y26985804D01*
X42778049Y31379351D02*
X42778049Y31153449D01*
X42179800Y30555200D02*
X42179800Y28696195D01*
X42778049Y31153449D02*
X42179800Y30555200D01*
X40469409Y26985804D02*
X40468697Y26985804D01*
%TO.N,Net-(C10-Pad2)*%
X44121551Y29931551D02*
X44121551Y30035849D01*
X40822250Y26632250D02*
X44121551Y29931551D01*
%TO.N,/3V3*%
X15459000Y43102800D02*
X16447600Y42114200D01*
X4307000Y55097700D02*
X4307000Y45953000D01*
X47231700Y38324900D02*
X47733600Y38826800D01*
X10430000Y15490000D02*
X8055100Y15490000D01*
X21504600Y7162200D02*
X21504600Y12926400D01*
X4222000Y56200100D02*
X4222000Y55182700D01*
X48094800Y13181600D02*
X40798000Y13181600D01*
X4154600Y30034600D02*
X4150000Y30030000D01*
X10430000Y15490000D02*
X11237600Y15490000D01*
X4154600Y35262100D02*
X4154600Y30034600D01*
X8185100Y901900D02*
X8296200Y1013000D01*
X18935000Y3507500D02*
X19822500Y3507500D01*
X26076200Y13918200D02*
X25205700Y13918200D01*
X53711400Y15773100D02*
X51119900Y13181600D01*
X18760000Y3420000D02*
X18847500Y3507500D01*
X4150000Y28948700D02*
X4150000Y30030000D01*
X3421100Y12276200D02*
X3421100Y2899600D01*
X28514600Y11479800D02*
X26076200Y13918200D01*
X14155800Y16305800D02*
X13220000Y15370000D01*
X5730000Y40530000D02*
X5550000Y40710000D01*
X12932700Y32786800D02*
X15611400Y35465500D01*
X5550000Y44710000D02*
X5080000Y44240000D01*
X16857200Y18650000D02*
X15883900Y18650000D01*
X14442800Y53542200D02*
X11180200Y56804800D01*
X18847500Y3507500D02*
X18935000Y3507500D01*
X8701200Y31680300D02*
X8214700Y32166800D01*
X15154200Y17920300D02*
X15154200Y16405400D01*
X19948000Y51014000D02*
X18160500Y51014000D01*
X25205700Y13918200D02*
X24213900Y12926400D01*
X11237600Y15490000D02*
X11237600Y22362200D01*
X5080000Y44240000D02*
X5080000Y42710000D01*
X15632300Y53542200D02*
X14442800Y53542200D01*
X20945400Y14561800D02*
X16857200Y18650000D01*
X4826700Y56804800D02*
X4222000Y56200100D01*
X18935000Y3507500D02*
X18935000Y5610000D01*
X8701200Y31227200D02*
X9201200Y31227200D01*
X15611400Y39927800D02*
X16447600Y40764000D01*
X3604900Y12460000D02*
X3421100Y12276200D01*
X8214700Y32166800D02*
X8214700Y35837600D01*
X5730000Y36029800D02*
X5922200Y35837600D01*
X5550000Y40710000D02*
X5080000Y41180000D01*
X16447600Y42114200D02*
X16447600Y41477200D01*
X19822500Y3507500D02*
X20440000Y2890000D01*
X51119900Y13181600D02*
X48094800Y13181600D01*
X18935000Y5610000D02*
X19952400Y5610000D01*
X11237600Y15490000D02*
X13100000Y15490000D01*
X15883900Y18650000D02*
X15154200Y17920300D01*
X6905100Y16640000D02*
X8055100Y15490000D01*
X13500000Y44706000D02*
X15103200Y43102800D01*
X53051000Y42620200D02*
X53711400Y41959800D01*
X40503400Y13476200D02*
X40503400Y12800600D01*
X46172500Y38324900D02*
X47231700Y38324900D01*
X24213900Y12926400D02*
X21504600Y12926400D01*
X35700900Y25310400D02*
X35492500Y25518800D01*
X5730000Y39060000D02*
X5730000Y40530000D01*
X21504600Y12926400D02*
X20945400Y13485600D01*
X5080000Y41180000D02*
X5080000Y42710000D01*
X53711400Y41959800D02*
X53711400Y15773100D01*
X15611400Y35465500D02*
X15611400Y39927800D01*
X10506000Y911400D02*
X8397800Y911400D01*
X16422200Y41451800D02*
X16447600Y41477200D01*
X18160500Y51014000D02*
X15632300Y53542200D01*
X35492500Y27754600D02*
X36865500Y29127600D01*
X4307000Y45953000D02*
X5550000Y44710000D01*
X35492500Y25518800D02*
X35492500Y27754600D01*
X10890000Y50420000D02*
X5550000Y45080000D01*
X5418800Y901900D02*
X8185100Y901900D01*
X50917400Y42620200D02*
X53051000Y42620200D01*
X47733600Y39436400D02*
X50917400Y42620200D01*
X35700900Y24788600D02*
X35700900Y25310400D01*
X36279100Y24210400D02*
X35700900Y24788600D01*
X4804300Y28294400D02*
X4150000Y28948700D01*
X5830000Y18760000D02*
X6905100Y18760000D01*
X16447600Y40764000D02*
X16447600Y41477200D01*
X5830000Y12460000D02*
X8055100Y12460000D01*
X8701200Y31227200D02*
X8701200Y31680300D01*
X5305400Y28294400D02*
X4804300Y28294400D01*
X15154200Y16405400D02*
X15253800Y16305800D01*
X5830000Y12460000D02*
X3604900Y12460000D01*
X15181600Y41451800D02*
X16422200Y41451800D01*
X40798000Y13181600D02*
X40503400Y13476200D01*
X11180200Y56804800D02*
X4826700Y56804800D01*
X13100000Y15490000D02*
X13220000Y15370000D01*
X15103200Y43102800D02*
X15459000Y43102800D01*
X5550000Y45080000D02*
X5550000Y44710000D01*
X8397800Y911400D02*
X8296200Y1013000D01*
X8055100Y15490000D02*
X8055100Y12460000D01*
X40503400Y12800600D02*
X39182600Y11479800D01*
X39182600Y11479800D02*
X28514600Y11479800D01*
X19952400Y5610000D02*
X21504600Y7162200D01*
X47733600Y38826800D02*
X47733600Y39436400D01*
X6905100Y18760000D02*
X6905100Y16640000D01*
X4222000Y55182700D02*
X4307000Y55097700D01*
X9433000Y32786800D02*
X12932700Y32786800D01*
X15253800Y16305800D02*
X14155800Y16305800D01*
X3421100Y2899600D02*
X5418800Y901900D01*
X20945400Y13485600D02*
X20945400Y14561800D01*
X5730000Y39060000D02*
X5730000Y36029800D01*
X11237600Y22362200D02*
X5305400Y28294400D01*
%TO.N,Net-(C14-Pad2)*%
X29530600Y18261600D02*
X27818600Y19973600D01*
X34737600Y18275700D02*
X34723500Y18261600D01*
X40435100Y27659400D02*
X40115100Y27339400D01*
X41047250Y28588950D02*
X40435100Y27976800D01*
X40435100Y27976800D02*
X40435100Y27659400D01*
X34723500Y18261600D02*
X29530600Y18261600D01*
X27818600Y19973600D02*
X27549400Y19973600D01*
%TO.N,Net-(D2-Pad2)*%
X11293400Y14477000D02*
X13769200Y14477000D01*
X15196100Y15228100D02*
X16390000Y16422000D01*
X16390000Y16422000D02*
X16390000Y17862500D01*
X4740000Y7923600D02*
X11293400Y14477000D01*
X4740000Y6980000D02*
X4740000Y7923600D01*
X13769200Y14477000D02*
X14520300Y15228100D01*
X14520300Y15228100D02*
X15196100Y15228100D01*
%TO.N,Net-(C17-Pad1)*%
X44872500Y43963700D02*
X44872500Y45584300D01*
X44872500Y45584300D02*
X45556500Y46268300D01*
%TO.N,Net-(C17-Pad2)*%
X46516500Y45471000D02*
X46516500Y46268300D01*
X46172500Y43963700D02*
X46172500Y45127000D01*
X46172500Y45127000D02*
X46516500Y45471000D01*
%TO.N,Net-(C18-Pad2)*%
X44222500Y45994300D02*
X44496500Y46268300D01*
X44222500Y43963700D02*
X44222500Y45994300D01*
%TO.N,Net-(C18-Pad1)*%
X43572500Y43963700D02*
X43572500Y46232300D01*
X43572500Y46232300D02*
X43536500Y46268300D01*
%TO.N,Net-(D3-Pad2)*%
X9617000Y39167400D02*
X10387400Y39937800D01*
X13220000Y17892500D02*
X13220000Y16390000D01*
X10572300Y33536900D02*
X9617000Y34492200D01*
X12376200Y25518400D02*
X14124100Y27266300D01*
X13220000Y17892500D02*
X12376200Y18736300D01*
X9617000Y34492200D02*
X9617000Y39167400D01*
X10619500Y33536900D02*
X10572300Y33536900D01*
X12376200Y18736300D02*
X12376200Y25518400D01*
%TO.N,Net-(D10-Pad2)*%
X14161600Y39266400D02*
X14287600Y39140400D01*
X14262200Y39115000D02*
X14287600Y39140400D01*
X14262200Y36371800D02*
X14262200Y39115000D01*
X14161600Y41451800D02*
X14161600Y39266400D01*
%TO.N,Net-(R6-Pad2)*%
X36165000Y20560700D02*
X38046900Y22442600D01*
X36165000Y20247800D02*
X36165000Y20560700D01*
%TO.N,/5V*%
X38060400Y32216800D02*
X38100600Y32257000D01*
X38060400Y30600000D02*
X38674600Y29985800D01*
X38674600Y27967100D02*
X38400400Y27692900D01*
X38060400Y30600000D02*
X38060400Y32216800D01*
X38674600Y29985800D02*
X38674600Y27967100D01*
%TO.N,/VBUS*%
X3429500Y38473900D02*
X3812100Y38856500D01*
X10696800Y53325900D02*
X10696800Y51925000D01*
X3394000Y34060400D02*
X3429500Y34095900D01*
X10074100Y53948600D02*
X10696800Y53325900D01*
X3429500Y34095900D02*
X3429500Y38473900D01*
X3921500Y25824200D02*
X5146600Y25824200D01*
X3429500Y26316200D02*
X3921500Y25824200D01*
X7751200Y34097400D02*
X7751200Y30277200D01*
X3429500Y34024900D02*
X3429500Y26316200D01*
X8986600Y55790000D02*
X8986600Y55036100D01*
X7381800Y34466800D02*
X7751200Y34097400D01*
X8986600Y55036100D02*
X10074100Y53948600D01*
X3394000Y34060400D02*
X3429500Y34024900D01*
%TO.N,/ShiftDown*%
X17467600Y41477200D02*
X17467600Y40564100D01*
X17087600Y40184100D02*
X17412300Y40508800D01*
X21200300Y39584000D02*
X21671400Y40055100D01*
X19948000Y39584000D02*
X21200300Y39584000D01*
X17467600Y40564100D02*
X17412300Y40508800D01*
X17087600Y39140400D02*
X17087600Y40184100D01*
%TO.N,/ShiftUp*%
X32956000Y37899000D02*
X35047700Y35807300D01*
X11530596Y14027000D02*
X10328200Y12824604D01*
X32549600Y31513800D02*
X32870300Y31834500D01*
X33832600Y31834500D02*
X35518100Y33520000D01*
X27948200Y37899000D02*
X32956000Y37899000D01*
X11296400Y2721800D02*
X11296400Y4520200D01*
X10506000Y1931400D02*
X11296400Y2721800D01*
X35047700Y35807300D02*
X35047700Y35046700D01*
X31892800Y25871200D02*
X32549600Y26528000D01*
X32549600Y26528000D02*
X32549600Y31513800D01*
X10328200Y12824604D02*
X10328200Y5488400D01*
X35518100Y34521100D02*
X35545700Y34548700D01*
X51210900Y41380000D02*
X44274600Y34443700D01*
X14344500Y14027000D02*
X11530596Y14027000D01*
X14820500Y14503000D02*
X14344500Y14027000D01*
X35518100Y33520000D02*
X35518100Y34521100D01*
X40107300Y34548700D02*
X35545700Y34548700D01*
X51725000Y41380000D02*
X51210900Y41380000D01*
X19948000Y43394000D02*
X22453200Y43394000D01*
X40212300Y34443700D02*
X40107300Y34548700D01*
X44274600Y34443700D02*
X40212300Y34443700D01*
X22453200Y43394000D02*
X27948200Y37899000D01*
X10328200Y5488400D02*
X11296400Y4520200D01*
X31892800Y25808900D02*
X31892800Y25871200D01*
X35047700Y35046700D02*
X35545700Y34548700D01*
X32870300Y31834500D02*
X33832600Y31834500D01*
D67*
%TO.N,/A1*%
X41341600Y22198600D02*
X43038900Y20501300D01*
D69*
X41113000Y22198600D02*
X41066300Y22198600D01*
D67*
X43038900Y20501300D02*
X49778000Y20501300D01*
X50296700Y21020000D02*
X51721800Y21020000D01*
X41113000Y22198600D02*
X41341600Y22198600D01*
X49778000Y20501300D02*
X50296700Y21020000D01*
D69*
X41066300Y22198600D02*
X40468700Y22796200D01*
D67*
%TO.N,/A2*%
X38268200Y20649200D02*
X41265400Y17652000D01*
X41265400Y17652000D02*
X42433800Y17652000D01*
X38268200Y21837800D02*
X38268200Y20649200D01*
X42433800Y17652000D02*
X43856200Y19074400D01*
X38400400Y21970000D02*
X38268200Y21837800D01*
X51167400Y19074400D02*
X51721800Y18520000D01*
D69*
X38400400Y21970000D02*
X38400400Y22089100D01*
D67*
X43856200Y19074400D02*
X51167400Y19074400D01*
%TO.N,/B1*%
X42992600Y21741400D02*
X41773400Y22960600D01*
D68*
X41748000Y23011400D02*
X41667707Y23011400D01*
D67*
X51721800Y23520000D02*
X50105200Y23520000D01*
X50105200Y23520000D02*
X48326600Y21741400D01*
X48326600Y21741400D02*
X42992600Y21741400D01*
D68*
X41667707Y23011400D02*
X41175804Y23503303D01*
D67*
%TO.N,/B2*%
X43805400Y27075400D02*
X43563500Y27075400D01*
X43563500Y27075400D02*
X42059700Y25571600D01*
D69*
X42059700Y25571600D02*
X41882900Y25571600D01*
D68*
%TO.N,/RS232OUT1*%
X48809200Y45303200D02*
X51725000Y48219000D01*
X51725000Y48219000D02*
X51725000Y48880000D01*
X44872500Y40397200D02*
X48809200Y44333900D01*
X48809200Y44333900D02*
X48809200Y45303200D01*
X44872500Y38324900D02*
X44872500Y40397200D01*
%TO.N,/RS232IN1*%
X44222500Y38324900D02*
X44222500Y40383800D01*
X51625400Y51380000D02*
X51725000Y51380000D01*
X44222500Y40383800D02*
X48317400Y44478700D01*
X48317400Y48072000D02*
X51625400Y51380000D01*
X48317400Y44478700D02*
X48317400Y48072000D01*
%TO.N,/D+*%
X7686600Y55790000D02*
X7686600Y54789900D01*
X7686600Y53784600D02*
X10358900Y51112300D01*
X18534300Y38323200D02*
X18155700Y37944600D01*
X15705500Y48320500D02*
X18534300Y45491700D01*
X10201200Y31680600D02*
X10201200Y31227200D01*
X7686600Y53897800D02*
X7686600Y53784600D01*
X15332000Y32282400D02*
X10803000Y32282400D01*
X13399500Y51112300D02*
X15705500Y48806300D01*
X7686600Y53897800D02*
X5095900Y53897800D01*
X15705500Y48806300D02*
X15705500Y48320500D01*
X10358900Y51112300D02*
X13399500Y51112300D01*
X18155700Y37944600D02*
X18155700Y35106100D01*
X18155700Y35106100D02*
X15332000Y32282400D01*
X7686600Y53897800D02*
X7686600Y54789900D01*
X10803000Y32282400D02*
X10201200Y31680600D01*
X18534300Y45491700D02*
X18534300Y38323200D01*
%TO.N,/D-*%
X6541300Y50699800D02*
X6541300Y50126100D01*
X8939800Y44884000D02*
X10361600Y46305800D01*
X8678200Y32516200D02*
X8678200Y35275600D01*
X8939800Y35537200D02*
X8939800Y44884000D01*
X5070500Y52170600D02*
X6541300Y50699800D01*
X9701200Y31699300D02*
X9448000Y31952500D01*
X8434500Y54062100D02*
X8336600Y54160000D01*
X8336600Y54160000D02*
X8336600Y55790000D01*
X8678200Y35275600D02*
X8939800Y35537200D01*
X9241900Y31952500D02*
X8678200Y32516200D01*
X9701200Y31227200D02*
X9701200Y31699300D01*
X9448000Y31952500D02*
X9241900Y31952500D01*
%TO.N,/IO0_BOOT*%
X39713400Y36216700D02*
X38715800Y36216700D01*
X26949200Y27719800D02*
X26949200Y23290800D01*
X42236205Y47471600D02*
X45316500Y47471600D01*
X46380000Y48535100D02*
X46380000Y48630000D01*
X45822300Y47977400D02*
X46380000Y48535100D01*
X36948000Y35774000D02*
X38273100Y35774000D01*
X38715800Y36216700D02*
X38273100Y35774000D01*
X46017400Y47977400D02*
X45822300Y47977400D01*
X45316500Y47471600D02*
X45822300Y47977400D01*
X42110000Y48420000D02*
X42110000Y47597805D01*
X46751800Y47243000D02*
X46017400Y47977400D01*
X47412200Y47243000D02*
X46751800Y47243000D01*
X30597400Y31368000D02*
X26949200Y27719800D01*
X42110000Y47597805D02*
X42236205Y47471600D01*
%TO.N,/DTR*%
X17013100Y31066900D02*
X13440900Y31066900D01*
X13440900Y31066900D02*
X12651200Y30277200D01*
X23739200Y24340800D02*
X24074100Y24340800D01*
X24949200Y24240800D02*
X24174100Y24240800D01*
X23739200Y24340800D02*
X17013100Y31066900D01*
X24074100Y24340800D02*
X24174100Y24240800D01*
%TO.N,/EN*%
X6647200Y35537295D02*
X6645200Y35535295D01*
X18219000Y49854800D02*
X18219000Y49744000D01*
X6647200Y36137905D02*
X6647200Y35537295D01*
X18063000Y50010800D02*
X18219000Y49854800D01*
X13498000Y49235800D02*
X13498000Y49801400D01*
X14266000Y48467800D02*
X13498000Y49235800D01*
X12893600Y51836800D02*
X12122500Y51836800D01*
X18219000Y49744000D02*
X16939800Y48464800D01*
X6645200Y45155200D02*
X6645200Y36139905D01*
X13498000Y49801400D02*
X12528600Y49801400D01*
X12006100Y51720400D02*
X11918700Y51720400D01*
X11910000Y50420000D02*
X6645200Y45155200D01*
X6645200Y36139905D02*
X6647200Y36137905D01*
X14418000Y23315800D02*
X19149200Y23315800D01*
X13249200Y24484600D02*
X14418000Y23315800D01*
X12122500Y51836800D02*
X12006100Y51720400D01*
X6645200Y31133300D02*
X6933000Y30845500D01*
X12528600Y49801400D02*
X11910000Y50420000D01*
X16939800Y48464800D02*
X16576600Y48464800D01*
X6645200Y35535295D02*
X6645200Y31133300D01*
X19948000Y49744000D02*
X18219000Y49744000D01*
%TO.N,/RTS*%
X22014300Y22275800D02*
X21924300Y22365800D01*
X22639200Y22275800D02*
X22014300Y22275800D01*
X17203600Y28277200D02*
X20374200Y25106600D01*
X20374200Y23140800D02*
X21149200Y22365800D01*
X12651200Y28277200D02*
X17203600Y28277200D01*
X20374200Y25106600D02*
X20374200Y23140800D01*
X21149200Y22365800D02*
X21924300Y22365800D01*
%TO.N,/TMCUART2*%
X36948000Y43394000D02*
X38756000Y43394000D01*
X38756000Y43394000D02*
X38820000Y43330000D01*
%TO.N,/TMCUART1*%
X35944900Y26966200D02*
X36642200Y27663500D01*
X40699100Y36283600D02*
X38634000Y38348700D01*
X36279100Y25571600D02*
X35944900Y25905800D01*
X38634000Y42124000D02*
X38820000Y42310000D01*
X35944900Y25905800D02*
X35944900Y26966200D01*
X36948000Y42124000D02*
X38634000Y42124000D01*
X38634000Y38348700D02*
X38634000Y42124000D01*
X40699100Y35618900D02*
X40699100Y36283600D01*
%TO.N,/TXD0*%
X12651200Y28777200D02*
X14688600Y28777200D01*
X40681600Y47638400D02*
X40681600Y38792000D01*
X14688600Y28777200D02*
X16253200Y30341800D01*
X39850000Y48470000D02*
X40681600Y47638400D01*
%TO.N,/RXD0*%
X39793400Y47213400D02*
X39850000Y47270000D01*
X13850800Y29277200D02*
X12651200Y29277200D01*
X14849400Y30275800D02*
X13850800Y29277200D01*
X39793400Y38242000D02*
X39793400Y47213400D01*
%TO.N,/DriverDIR*%
X26071700Y37325400D02*
X21273100Y42124000D01*
X26071700Y36854700D02*
X26071700Y37325400D01*
X19948000Y42124000D02*
X21273100Y42124000D01*
%TO.N,/DriverSTEP*%
X33447100Y29742400D02*
X33447100Y25513300D01*
X36280400Y23504700D02*
X36632600Y23856900D01*
X21898500Y40854000D02*
X23903000Y38849500D01*
X19948000Y40854000D02*
X21898500Y40854000D01*
X33447100Y25513300D02*
X35455700Y23504700D01*
X23903000Y38849500D02*
X23903000Y36614400D01*
X35455700Y23504700D02*
X36280400Y23504700D01*
%TO.N,/DriverEN*%
X45961700Y35105500D02*
X45961700Y30357400D01*
X19948000Y38314000D02*
X21376500Y38314000D01*
X45961700Y30357400D02*
X41529400Y25925100D01*
X49112900Y38256700D02*
X45961700Y35105500D01*
X21376500Y38314000D02*
X21938900Y38876400D01*
%TO.N,/T1IN*%
X36948000Y45934000D02*
X38273100Y45934000D01*
X42922500Y42171500D02*
X42775300Y42318700D01*
X38905200Y46122200D02*
X38461300Y46122200D01*
X38461300Y46122200D02*
X38273100Y45934000D01*
X42922500Y38324900D02*
X42922500Y42171500D01*
%TO.N,/R1OUT*%
X43572500Y38324900D02*
X43572500Y37161600D01*
X36948000Y49744000D02*
X35622900Y49744000D01*
X35622900Y35185800D02*
X35809900Y34998800D01*
X35809900Y34998800D02*
X40293800Y34998800D01*
X40398800Y34893800D02*
X41304700Y34893800D01*
X35622900Y49744000D02*
X35622900Y35185800D01*
X41304700Y34893800D02*
X43572500Y37161600D01*
X40293800Y34998800D02*
X40398800Y34893800D01*
%TO.N,Net-(R11-Pad2)*%
X13489600Y45847200D02*
X12702700Y45847200D01*
X17205300Y45795300D02*
X16116000Y44706000D01*
X12702700Y45847200D02*
X12603400Y45946500D01*
X19948000Y45934000D02*
X19121000Y45934000D01*
X16116000Y44706000D02*
X14520000Y44706000D01*
X19121000Y45934000D02*
X17817000Y47238000D01*
%TO.N,Net-(D11-Pad2)*%
X8496400Y4520200D02*
X8496400Y7028800D01*
X8296200Y2033000D02*
X8496400Y2233200D01*
X8496400Y2233200D02*
X8496400Y4520200D01*
X8496400Y7028800D02*
X8985000Y7517400D01*
%TO.N,/REG_5V*%
X5146600Y21824200D02*
X6970800Y21824200D01*
X4534100Y21824200D02*
X3921500Y21824200D01*
X3530000Y18760000D02*
X3530000Y20085100D01*
X6970800Y21824200D02*
X7775000Y21020000D01*
X4534100Y21824200D02*
X5146600Y21824200D01*
X3921500Y20476600D02*
X3530000Y20085100D01*
X3921500Y21824200D02*
X3921500Y20476600D01*
%TO.N,Net-(C22-Pad1)*%
X42922500Y45759300D02*
X42477500Y46204300D01*
X42922500Y43963700D02*
X42922500Y45759300D01*
%TO.N,Net-(Q3-Pad2)*%
X23659200Y22275800D02*
X24109100Y22275800D01*
X24949200Y22340800D02*
X24174100Y22340800D01*
X24109100Y22275800D02*
X24174100Y22340800D01*
%TO.N,Net-(Q4-Pad2)*%
X21999300Y24340800D02*
X21924300Y24265800D01*
X21149200Y24265800D02*
X21924300Y24265800D01*
X22719200Y24340800D02*
X21999300Y24340800D01*
%TO.N,Net-(D4-Pad2)*%
X34163000Y33434400D02*
X33350600Y32622000D01*
X34163000Y34774000D02*
X34163000Y33434400D01*
%TO.N,Net-(R20-Pad1)*%
X38830000Y47270000D02*
X38339100Y47270000D01*
X38339100Y47270000D02*
X38273100Y47204000D01*
X36948000Y47204000D02*
X38273100Y47204000D01*
%TO.N,Net-(R18-Pad1)*%
X38826000Y48474000D02*
X38830000Y48470000D01*
X36948000Y48474000D02*
X38826000Y48474000D01*
%TO.N,Net-(D12-Pad1)*%
X16038701Y34801499D02*
X16200099Y34801499D01*
X12497400Y36450300D02*
X12497400Y36006000D01*
X17062200Y35663600D02*
X17062200Y36371800D01*
X16200099Y34801499D02*
X17062200Y35663600D01*
X12497400Y36006000D02*
X13731800Y34771600D01*
%TO.N,Net-(D4-Pad1)*%
X34810600Y30797000D02*
X33600600Y30797000D01*
X33600600Y30797000D02*
X33350600Y31047000D01*
%TO.N,Net-(C20-Pad1)*%
X45218700Y42405500D02*
X45522500Y42709300D01*
X46192100Y40691100D02*
X47295300Y41794300D01*
X47295300Y41794300D02*
X47507500Y41794300D01*
X45522500Y42709300D02*
X45522500Y43963700D01*
%TO.N,Net-(D5-Pad2)*%
X10430000Y16510000D02*
X10430000Y17862500D01*
%TO.N,Net-(R19-Pad2)*%
X32832600Y24936870D02*
X35306635Y22462835D01*
X35945728Y22462835D02*
X35306635Y22462835D01*
X34255000Y25808900D02*
X34975800Y26529700D01*
X34975800Y26529700D02*
X34975800Y28535400D01*
X32832600Y25018000D02*
X32832600Y24936870D01*
X34975800Y28535400D02*
X37040400Y30600000D01*
X36986196Y23503303D02*
X35945728Y22462835D01*
%TO.N,Net-(D13-Pad1)*%
X6185000Y4762500D02*
X6185000Y7517400D01*
X6417500Y4530000D02*
X6185000Y4762500D01*
%TO.N,Net-(J4-Pad1)*%
X21231800Y29978600D02*
X18622900Y32587500D01*
X27023600Y29978600D02*
X21231800Y29978600D01*
X28810000Y31765000D02*
X27023600Y29978600D01*
X18622900Y32587500D02*
X18622900Y37044000D01*
X19948000Y37044000D02*
X18622900Y37044000D01*
%TO.N,Net-(J4-Pad2)*%
X22583100Y31133300D02*
X22583100Y32402700D01*
X22583100Y32402700D02*
X24003000Y33822600D01*
X23268100Y30448300D02*
X22583100Y31133300D01*
X24993300Y30448300D02*
X23268100Y30448300D01*
X26310000Y31765000D02*
X24993300Y30448300D01*
X24003000Y33822600D02*
X24003000Y34774000D01*
%TO.N,Net-(J4-Pad3)*%
X26154900Y33448900D02*
X32893000Y33448900D01*
X24471000Y31765000D02*
X26154900Y33448900D01*
X32893000Y33448900D02*
X32893000Y34774000D01*
X23810000Y31765000D02*
X24471000Y31765000D01*
%TO.N,Net-(J4-Pad4)*%
X21273100Y31765000D02*
X21273100Y35774000D01*
X21273100Y35774000D02*
X19948000Y35774000D01*
X21310000Y31765000D02*
X21273100Y31765000D01*
%TO.N,Net-(R14-Pad2)*%
X6913700Y29777200D02*
X5963600Y30727300D01*
X7751200Y29777200D02*
X6913700Y29777200D01*
X4710000Y35732200D02*
X4710000Y39060000D01*
X5963600Y34478600D02*
X4710000Y35732200D01*
X5963600Y30727300D02*
X5963600Y34478600D01*
%TO.N,Net-(R22-Pad2)*%
X7751200Y28777200D02*
X6312800Y28777200D01*
X6312800Y28777200D02*
X6150000Y28940000D01*
%TO.N,Net-(Q1-Pad3)*%
X11547400Y39797800D02*
X11407400Y39937800D01*
X11547400Y38325300D02*
X11547400Y39797800D01*
%TO.N,Net-(Q2-Pad3)*%
X4542500Y5762500D02*
X4542500Y3580000D01*
X4740000Y5960000D02*
X4542500Y5762500D01*
%TO.N,/BRA*%
X40554200Y22003587D02*
X40115144Y22442643D01*
X40554200Y21716000D02*
X40554200Y22003587D01*
D67*
X40554200Y21716000D02*
X40554200Y20954000D01*
X40554200Y20954000D02*
X42110856Y19397344D01*
%TO.N,/BRB*%
X42332200Y23417800D02*
X42485700Y23264300D01*
D69*
X41837494Y23548806D02*
X41529400Y23856900D01*
X42332200Y23417800D02*
X42201194Y23548806D01*
D67*
X42485700Y23264300D02*
X45633100Y23264300D01*
D69*
X42201194Y23548806D02*
X41837494Y23548806D01*
D67*
X45633100Y23264300D02*
X45743056Y23374256D01*
%TD*%
M02*
