%TF.GenerationSoftware,KiCad,Pcbnew,(6.0.7)*%
%TF.CreationDate,2022-10-14T07:02:42-05:00*%
%TF.ProjectId,SmartSpin2k,536d6172-7453-4706-996e-326b2e6b6963,prototype*%
%TF.SameCoordinates,Original*%
%TF.FileFunction,Legend,Top*%
%TF.FilePolarity,Positive*%
%FSLAX46Y46*%
G04 Gerber Fmt 4.6, Leading zero omitted, Abs format (unit mm)*
G04 Created by KiCad (PCBNEW (6.0.7)) date 2022-10-14 07:02:42*
%MOMM*%
%LPD*%
G01*
G04 APERTURE LIST*
G04 Aperture macros list*
%AMRoundRect*
0 Rectangle with rounded corners*
0 $1 Rounding radius*
0 $2 $3 $4 $5 $6 $7 $8 $9 X,Y pos of 4 corners*
0 Add a 4 corners polygon primitive as box body*
4,1,4,$2,$3,$4,$5,$6,$7,$8,$9,$2,$3,0*
0 Add four circle primitives for the rounded corners*
1,1,$1+$1,$2,$3*
1,1,$1+$1,$4,$5*
1,1,$1+$1,$6,$7*
1,1,$1+$1,$8,$9*
0 Add four rect primitives between the rounded corners*
20,1,$1+$1,$2,$3,$4,$5,0*
20,1,$1+$1,$4,$5,$6,$7,0*
20,1,$1+$1,$6,$7,$8,$9,0*
20,1,$1+$1,$8,$9,$2,$3,0*%
%AMRotRect*
0 Rectangle, with rotation*
0 The origin of the aperture is its center*
0 $1 length*
0 $2 width*
0 $3 Rotation angle, in degrees counterclockwise*
0 Add horizontal line*
21,1,$1,$2,0,0,$3*%
G04 Aperture macros list end*
%ADD10C,0.150000*%
%ADD11C,0.346007*%
%ADD12C,0.508000*%
%ADD13C,0.120000*%
%ADD14C,0.100000*%
%ADD15C,0.254000*%
%ADD16RoundRect,0.225000X-0.225000X-0.250000X0.225000X-0.250000X0.225000X0.250000X-0.225000X0.250000X0*%
%ADD17RoundRect,0.250000X-0.512652X-0.159099X-0.159099X-0.512652X0.512652X0.159099X0.159099X0.512652X0*%
%ADD18R,1.100000X1.100000*%
%ADD19RoundRect,0.135000X0.185000X-0.135000X0.185000X0.135000X-0.185000X0.135000X-0.185000X-0.135000X0*%
%ADD20RoundRect,0.250000X-1.500000X-1.000000X1.500000X-1.000000X1.500000X1.000000X-1.500000X1.000000X0*%
%ADD21RoundRect,0.135000X0.135000X0.185000X-0.135000X0.185000X-0.135000X-0.185000X0.135000X-0.185000X0*%
%ADD22RoundRect,0.218750X-0.256250X0.218750X-0.256250X-0.218750X0.256250X-0.218750X0.256250X0.218750X0*%
%ADD23RoundRect,0.225000X0.225000X0.250000X-0.225000X0.250000X-0.225000X-0.250000X0.225000X-0.250000X0*%
%ADD24R,1.500000X2.000000*%
%ADD25R,3.800000X2.000000*%
%ADD26RoundRect,0.250000X0.475000X-0.250000X0.475000X0.250000X-0.475000X0.250000X-0.475000X-0.250000X0*%
%ADD27RoundRect,0.150000X-0.662500X-0.150000X0.662500X-0.150000X0.662500X0.150000X-0.662500X0.150000X0*%
%ADD28R,2.514000X3.200000*%
%ADD29RoundRect,0.200000X-0.800000X0.200000X-0.800000X-0.200000X0.800000X-0.200000X0.800000X0.200000X0*%
%ADD30RoundRect,0.218750X0.218750X0.256250X-0.218750X0.256250X-0.218750X-0.256250X0.218750X-0.256250X0*%
%ADD31RoundRect,0.140000X0.170000X-0.140000X0.170000X0.140000X-0.170000X0.140000X-0.170000X-0.140000X0*%
%ADD32RoundRect,0.218750X-0.218750X-0.256250X0.218750X-0.256250X0.218750X0.256250X-0.218750X0.256250X0*%
%ADD33R,0.900000X0.800000*%
%ADD34RoundRect,0.250000X0.650000X-0.325000X0.650000X0.325000X-0.650000X0.325000X-0.650000X-0.325000X0*%
%ADD35RoundRect,0.135000X-0.135000X-0.185000X0.135000X-0.185000X0.135000X0.185000X-0.135000X0.185000X0*%
%ADD36RoundRect,0.140000X-0.140000X-0.170000X0.140000X-0.170000X0.140000X0.170000X-0.140000X0.170000X0*%
%ADD37RoundRect,0.250000X-0.132583X0.503814X-0.503814X0.132583X0.132583X-0.503814X0.503814X-0.132583X0*%
%ADD38RoundRect,0.062500X0.185616X0.274004X-0.274004X-0.185616X-0.185616X-0.274004X0.274004X0.185616X0*%
%ADD39RoundRect,0.062500X-0.185616X0.274004X-0.274004X0.185616X0.185616X-0.274004X0.274004X-0.185616X0*%
%ADD40RotRect,3.750000X3.750000X225.000000*%
%ADD41RoundRect,0.250000X-0.250000X-0.475000X0.250000X-0.475000X0.250000X0.475000X-0.250000X0.475000X0*%
%ADD42RoundRect,0.135000X-0.185000X0.135000X-0.185000X-0.135000X0.185000X-0.135000X0.185000X0.135000X0*%
%ADD43RoundRect,0.140000X-0.170000X0.140000X-0.170000X-0.140000X0.170000X-0.140000X0.170000X0.140000X0*%
%ADD44RoundRect,0.150000X0.587500X0.150000X-0.587500X0.150000X-0.587500X-0.150000X0.587500X-0.150000X0*%
%ADD45RoundRect,0.218750X0.256250X-0.218750X0.256250X0.218750X-0.256250X0.218750X-0.256250X-0.218750X0*%
%ADD46RoundRect,0.135000X0.035355X-0.226274X0.226274X-0.035355X-0.035355X0.226274X-0.226274X0.035355X0*%
%ADD47R,0.400000X1.350000*%
%ADD48O,1.250000X0.950000*%
%ADD49O,1.000000X1.550000*%
%ADD50RoundRect,0.200000X0.275000X-0.200000X0.275000X0.200000X-0.275000X0.200000X-0.275000X-0.200000X0*%
%ADD51RoundRect,0.250000X0.250000X0.475000X-0.250000X0.475000X-0.250000X-0.475000X0.250000X-0.475000X0*%
%ADD52RoundRect,0.150000X0.150000X-0.587500X0.150000X0.587500X-0.150000X0.587500X-0.150000X-0.587500X0*%
%ADD53R,2.000000X0.900000*%
%ADD54R,0.900000X2.000000*%
%ADD55R,5.000000X5.000000*%
%ADD56RoundRect,0.140000X0.140000X0.170000X-0.140000X0.170000X-0.140000X-0.170000X0.140000X-0.170000X0*%
%ADD57R,1.800000X2.500000*%
%ADD58RoundRect,0.225000X0.250000X-0.225000X0.250000X0.225000X-0.250000X0.225000X-0.250000X-0.225000X0*%
%ADD59R,0.355600X1.676400*%
%ADD60RoundRect,0.250000X0.325000X0.650000X-0.325000X0.650000X-0.325000X-0.650000X0.325000X-0.650000X0*%
%ADD61RoundRect,0.250000X0.662913X0.220971X0.220971X0.662913X-0.662913X-0.220971X-0.220971X-0.662913X0*%
%ADD62RoundRect,0.062500X-0.062500X0.337500X-0.062500X-0.337500X0.062500X-0.337500X0.062500X0.337500X0*%
%ADD63RoundRect,0.062500X-0.337500X0.062500X-0.337500X-0.062500X0.337500X-0.062500X0.337500X0.062500X0*%
%ADD64R,3.350000X3.350000*%
%ADD65RoundRect,0.200000X0.800000X-0.200000X0.800000X0.200000X-0.800000X0.200000X-0.800000X-0.200000X0*%
%ADD66R,5.400000X2.900000*%
%ADD67RoundRect,0.250000X-0.220971X0.662913X-0.662913X0.220971X0.220971X-0.662913X0.662913X-0.220971X0*%
%ADD68C,1.200000*%
%ADD69RoundRect,0.250000X0.725000X-0.600000X0.725000X0.600000X-0.725000X0.600000X-0.725000X-0.600000X0*%
%ADD70O,1.950000X1.700000*%
%ADD71RoundRect,0.250000X0.600000X0.725000X-0.600000X0.725000X-0.600000X-0.725000X0.600000X-0.725000X0*%
%ADD72O,1.700000X1.950000*%
G04 APERTURE END LIST*
D10*
X40721057Y54299429D02*
X40863914Y54251810D01*
X40911533Y54204191D01*
X40959152Y54108953D01*
X40959152Y53966096D01*
X40911533Y53870858D01*
X40863914Y53823239D01*
X40768676Y53775620D01*
X40387723Y53775620D01*
X40387723Y54775620D01*
X40721057Y54775620D01*
X40816295Y54728000D01*
X40863914Y54680381D01*
X40911533Y54585143D01*
X40911533Y54489905D01*
X40863914Y54394667D01*
X40816295Y54347048D01*
X40721057Y54299429D01*
X40387723Y54299429D01*
X41578200Y54775620D02*
X41768676Y54775620D01*
X41863914Y54728000D01*
X41959152Y54632762D01*
X42006771Y54442286D01*
X42006771Y54108953D01*
X41959152Y53918477D01*
X41863914Y53823239D01*
X41768676Y53775620D01*
X41578200Y53775620D01*
X41482961Y53823239D01*
X41387723Y53918477D01*
X41340104Y54108953D01*
X41340104Y54442286D01*
X41387723Y54632762D01*
X41482961Y54728000D01*
X41578200Y54775620D01*
X42625819Y54775620D02*
X42816295Y54775620D01*
X42911533Y54728000D01*
X43006771Y54632762D01*
X43054390Y54442286D01*
X43054390Y54108953D01*
X43006771Y53918477D01*
X42911533Y53823239D01*
X42816295Y53775620D01*
X42625819Y53775620D01*
X42530580Y53823239D01*
X42435342Y53918477D01*
X42387723Y54108953D01*
X42387723Y54442286D01*
X42435342Y54632762D01*
X42530580Y54728000D01*
X42625819Y54775620D01*
X43340104Y54775620D02*
X43911533Y54775620D01*
X43625819Y53775620D02*
X43625819Y54775620D01*
X13400104Y54299429D02*
X13733438Y54299429D01*
X13876295Y53775620D02*
X13400104Y53775620D01*
X13400104Y54775620D01*
X13876295Y54775620D01*
X14304866Y53775620D02*
X14304866Y54775620D01*
X14876295Y53775620D01*
X14876295Y54775620D01*
D11*
X9104203Y54405800D02*
G75*
G03*
X9104203Y54405800I-173003J0D01*
G01*
X42937003Y26237200D02*
G75*
G03*
X42937003Y26237200I-173003J0D01*
G01*
D12*
X11623601Y32460200D02*
G75*
G03*
X11623601Y32460200I-1J0D01*
G01*
D13*
X18326001Y52665000D02*
G75*
G03*
X18326001Y52665000I-1J0D01*
G01*
D11*
X22103003Y6730000D02*
G75*
G03*
X22103003Y6730000I-173003J0D01*
G01*
X18324403Y53135800D02*
G75*
G03*
X18324403Y53135800I-173003J0D01*
G01*
X46733003Y45440000D02*
G75*
G03*
X46733003Y45440000I-173003J0D01*
G01*
D10*
X24487619Y29989524D02*
X24487619Y29418096D01*
X23487619Y29703810D02*
X24487619Y29703810D01*
X23487619Y29084762D02*
X24487619Y29084762D01*
X24487619Y28846667D01*
X24440000Y28703810D01*
X24344761Y28608572D01*
X24249523Y28560953D01*
X24059047Y28513334D01*
X23916190Y28513334D01*
X23725714Y28560953D01*
X23630476Y28608572D01*
X23535238Y28703810D01*
X23487619Y28846667D01*
X23487619Y29084762D01*
X24487619Y27894286D02*
X24487619Y27703810D01*
X24440000Y27608572D01*
X24344761Y27513334D01*
X24154285Y27465715D01*
X23820952Y27465715D01*
X23630476Y27513334D01*
X23535238Y27608572D01*
X23487619Y27703810D01*
X23487619Y27894286D01*
X23535238Y27989524D01*
X23630476Y28084762D01*
X23820952Y28132381D01*
X24154285Y28132381D01*
X24344761Y28084762D01*
X24440000Y27989524D01*
X24487619Y27894286D01*
D14*
X53537142Y50918096D02*
X53270476Y51299048D01*
X53080000Y50918096D02*
X53080000Y51718096D01*
X53384761Y51718096D01*
X53460952Y51680000D01*
X53499047Y51641905D01*
X53537142Y51565715D01*
X53537142Y51451429D01*
X53499047Y51375239D01*
X53460952Y51337143D01*
X53384761Y51299048D01*
X53080000Y51299048D01*
X53841904Y50956191D02*
X53956190Y50918096D01*
X54146666Y50918096D01*
X54222857Y50956191D01*
X54260952Y50994286D01*
X54299047Y51070477D01*
X54299047Y51146667D01*
X54260952Y51222858D01*
X54222857Y51260953D01*
X54146666Y51299048D01*
X53994285Y51337143D01*
X53918095Y51375239D01*
X53880000Y51413334D01*
X53841904Y51489524D01*
X53841904Y51565715D01*
X53880000Y51641905D01*
X53918095Y51680000D01*
X53994285Y51718096D01*
X54184761Y51718096D01*
X54299047Y51680000D01*
X54641904Y50918096D02*
X54641904Y51718096D01*
X55022857Y50918096D02*
X55022857Y51718096D01*
X55480000Y50918096D01*
X55480000Y51718096D01*
D10*
X53378114Y20761934D02*
X53854304Y20761934D01*
X53282876Y20476220D02*
X53616209Y21476220D01*
X53949542Y20476220D01*
X54806685Y20476220D02*
X54235257Y20476220D01*
X54520971Y20476220D02*
X54520971Y21476220D01*
X54425733Y21333362D01*
X54330495Y21238124D01*
X54235257Y21190505D01*
D14*
X53620476Y36810000D02*
X53544285Y36848096D01*
X53430000Y36848096D01*
X53315714Y36810000D01*
X53239523Y36733810D01*
X53201428Y36657620D01*
X53163333Y36505239D01*
X53163333Y36390953D01*
X53201428Y36238572D01*
X53239523Y36162381D01*
X53315714Y36086191D01*
X53430000Y36048096D01*
X53506190Y36048096D01*
X53620476Y36086191D01*
X53658571Y36124286D01*
X53658571Y36390953D01*
X53506190Y36390953D01*
X54001428Y36048096D02*
X54001428Y36848096D01*
X54458571Y36048096D01*
X54458571Y36848096D01*
X54839523Y36048096D02*
X54839523Y36848096D01*
X55030000Y36848096D01*
X55144285Y36810000D01*
X55220476Y36733810D01*
X55258571Y36657620D01*
X55296666Y36505239D01*
X55296666Y36390953D01*
X55258571Y36238572D01*
X55220476Y36162381D01*
X55144285Y36086191D01*
X55030000Y36048096D01*
X54839523Y36048096D01*
X53103333Y40886191D02*
X53217619Y40848096D01*
X53408095Y40848096D01*
X53484285Y40886191D01*
X53522380Y40924286D01*
X53560476Y41000477D01*
X53560476Y41076667D01*
X53522380Y41152858D01*
X53484285Y41190953D01*
X53408095Y41229048D01*
X53255714Y41267143D01*
X53179523Y41305239D01*
X53141428Y41343334D01*
X53103333Y41419524D01*
X53103333Y41495715D01*
X53141428Y41571905D01*
X53179523Y41610000D01*
X53255714Y41648096D01*
X53446190Y41648096D01*
X53560476Y41610000D01*
X53903333Y40848096D02*
X53903333Y41648096D01*
X53903333Y41267143D02*
X54360476Y41267143D01*
X54360476Y40848096D02*
X54360476Y41648096D01*
X54741428Y41648096D02*
X54741428Y41000477D01*
X54779523Y40924286D01*
X54817619Y40886191D01*
X54893809Y40848096D01*
X55046190Y40848096D01*
X55122380Y40886191D01*
X55160476Y40924286D01*
X55198571Y41000477D01*
X55198571Y41648096D01*
X55579523Y40848096D02*
X55579523Y41648096D01*
X55884285Y41648096D01*
X55960476Y41610000D01*
X55998571Y41571905D01*
X56036666Y41495715D01*
X56036666Y41381429D01*
X55998571Y41305239D01*
X55960476Y41267143D01*
X55884285Y41229048D01*
X55579523Y41229048D01*
D10*
X29277619Y30013334D02*
X29277619Y29441905D01*
X28277619Y29727620D02*
X29277619Y29727620D01*
X28277619Y29108572D02*
X29277619Y29108572D01*
X28563333Y28775239D01*
X29277619Y28441905D01*
X28277619Y28441905D01*
X28325238Y28013334D02*
X28277619Y27870477D01*
X28277619Y27632381D01*
X28325238Y27537143D01*
X28372857Y27489524D01*
X28468095Y27441905D01*
X28563333Y27441905D01*
X28658571Y27489524D01*
X28706190Y27537143D01*
X28753809Y27632381D01*
X28801428Y27822858D01*
X28849047Y27918096D01*
X28896666Y27965715D01*
X28991904Y28013334D01*
X29087142Y28013334D01*
X29182380Y27965715D01*
X29230000Y27918096D01*
X29277619Y27822858D01*
X29277619Y27584762D01*
X29230000Y27441905D01*
D14*
X53313333Y34258096D02*
X53580000Y33458096D01*
X53846666Y34258096D01*
X54113333Y33458096D02*
X54113333Y34258096D01*
X54303809Y34258096D01*
X54418095Y34220000D01*
X54494285Y34143810D01*
X54532380Y34067620D01*
X54570476Y33915239D01*
X54570476Y33800953D01*
X54532380Y33648572D01*
X54494285Y33572381D01*
X54418095Y33496191D01*
X54303809Y33458096D01*
X54113333Y33458096D01*
X55370476Y33534286D02*
X55332380Y33496191D01*
X55218095Y33458096D01*
X55141904Y33458096D01*
X55027619Y33496191D01*
X54951428Y33572381D01*
X54913333Y33648572D01*
X54875238Y33800953D01*
X54875238Y33915239D01*
X54913333Y34067620D01*
X54951428Y34143810D01*
X55027619Y34220000D01*
X55141904Y34258096D01*
X55218095Y34258096D01*
X55332380Y34220000D01*
X55370476Y34181905D01*
D10*
X32272352Y27416734D02*
X32748542Y27416734D01*
X32177114Y27131020D02*
X32510447Y28131020D01*
X32843780Y27131020D01*
X33748542Y27226258D02*
X33700923Y27178639D01*
X33558066Y27131020D01*
X33462828Y27131020D01*
X33319971Y27178639D01*
X33224733Y27273877D01*
X33177114Y27369115D01*
X33129495Y27559591D01*
X33129495Y27702448D01*
X33177114Y27892924D01*
X33224733Y27988162D01*
X33319971Y28083400D01*
X33462828Y28131020D01*
X33558066Y28131020D01*
X33700923Y28083400D01*
X33748542Y28035781D01*
X34034257Y28131020D02*
X34605685Y28131020D01*
X34319971Y27131020D02*
X34319971Y28131020D01*
X53687638Y25944629D02*
X53830495Y25897010D01*
X53878114Y25849391D01*
X53925733Y25754153D01*
X53925733Y25611296D01*
X53878114Y25516058D01*
X53830495Y25468439D01*
X53735257Y25420820D01*
X53354304Y25420820D01*
X53354304Y26420820D01*
X53687638Y26420820D01*
X53782876Y26373200D01*
X53830495Y26325581D01*
X53878114Y26230343D01*
X53878114Y26135105D01*
X53830495Y26039867D01*
X53782876Y25992248D01*
X53687638Y25944629D01*
X53354304Y25944629D01*
X54306685Y26325581D02*
X54354304Y26373200D01*
X54449542Y26420820D01*
X54687638Y26420820D01*
X54782876Y26373200D01*
X54830495Y26325581D01*
X54878114Y26230343D01*
X54878114Y26135105D01*
X54830495Y25992248D01*
X54259066Y25420820D01*
X54878114Y25420820D01*
X26937619Y29965715D02*
X26937619Y29394286D01*
X25937619Y29680000D02*
X26937619Y29680000D01*
X26032857Y28489524D02*
X25985238Y28537143D01*
X25937619Y28680000D01*
X25937619Y28775239D01*
X25985238Y28918096D01*
X26080476Y29013334D01*
X26175714Y29060953D01*
X26366190Y29108572D01*
X26509047Y29108572D01*
X26699523Y29060953D01*
X26794761Y29013334D01*
X26890000Y28918096D01*
X26937619Y28775239D01*
X26937619Y28680000D01*
X26890000Y28537143D01*
X26842380Y28489524D01*
X25937619Y28060953D02*
X26937619Y28060953D01*
X25937619Y27489524D02*
X26509047Y27918096D01*
X26937619Y27489524D02*
X26366190Y28060953D01*
D14*
X12384761Y13976191D02*
X12499047Y13938096D01*
X12689523Y13938096D01*
X12765714Y13976191D01*
X12803809Y14014286D01*
X12841904Y14090477D01*
X12841904Y14166667D01*
X12803809Y14242858D01*
X12765714Y14280953D01*
X12689523Y14319048D01*
X12537142Y14357143D01*
X12460952Y14395239D01*
X12422857Y14433334D01*
X12384761Y14509524D01*
X12384761Y14585715D01*
X12422857Y14661905D01*
X12460952Y14700000D01*
X12537142Y14738096D01*
X12727619Y14738096D01*
X12841904Y14700000D01*
X13184761Y13938096D02*
X13184761Y14738096D01*
X13184761Y14357143D02*
X13641904Y14357143D01*
X13641904Y13938096D02*
X13641904Y14738096D01*
X14289523Y14357143D02*
X14022857Y14357143D01*
X14022857Y13938096D02*
X14022857Y14738096D01*
X14403809Y14738096D01*
X14594285Y14738096D02*
X15051428Y14738096D01*
X14822857Y13938096D02*
X14822857Y14738096D01*
X15318095Y13938096D02*
X15318095Y14738096D01*
X15508571Y14738096D01*
X15622857Y14700000D01*
X15699047Y14623810D01*
X15737142Y14547620D01*
X15775238Y14395239D01*
X15775238Y14280953D01*
X15737142Y14128572D01*
X15699047Y14052381D01*
X15622857Y13976191D01*
X15508571Y13938096D01*
X15318095Y13938096D01*
X53578209Y48358096D02*
X53311542Y48739048D01*
X53121066Y48358096D02*
X53121066Y49158096D01*
X53425828Y49158096D01*
X53502019Y49120000D01*
X53540114Y49081905D01*
X53578209Y49005715D01*
X53578209Y48891429D01*
X53540114Y48815239D01*
X53502019Y48777143D01*
X53425828Y48739048D01*
X53121066Y48739048D01*
X53882971Y48396191D02*
X53997257Y48358096D01*
X54187733Y48358096D01*
X54263923Y48396191D01*
X54302019Y48434286D01*
X54340114Y48510477D01*
X54340114Y48586667D01*
X54302019Y48662858D01*
X54263923Y48700953D01*
X54187733Y48739048D01*
X54035352Y48777143D01*
X53959161Y48815239D01*
X53921066Y48853334D01*
X53882971Y48929524D01*
X53882971Y49005715D01*
X53921066Y49081905D01*
X53959161Y49120000D01*
X54035352Y49158096D01*
X54225828Y49158096D01*
X54340114Y49120000D01*
X54835352Y49158096D02*
X54987733Y49158096D01*
X55063923Y49120000D01*
X55140114Y49043810D01*
X55178209Y48891429D01*
X55178209Y48624762D01*
X55140114Y48472381D01*
X55063923Y48396191D01*
X54987733Y48358096D01*
X54835352Y48358096D01*
X54759161Y48396191D01*
X54682971Y48472381D01*
X54644876Y48624762D01*
X54644876Y48891429D01*
X54682971Y49043810D01*
X54759161Y49120000D01*
X54835352Y49158096D01*
X55521066Y49158096D02*
X55521066Y48510477D01*
X55559161Y48434286D01*
X55597257Y48396191D01*
X55673447Y48358096D01*
X55825828Y48358096D01*
X55902019Y48396191D01*
X55940114Y48434286D01*
X55978209Y48510477D01*
X55978209Y49158096D01*
X56244876Y49158096D02*
X56702019Y49158096D01*
X56473447Y48358096D02*
X56473447Y49158096D01*
X16585714Y13986191D02*
X16700000Y13948096D01*
X16890476Y13948096D01*
X16966666Y13986191D01*
X17004761Y14024286D01*
X17042857Y14100477D01*
X17042857Y14176667D01*
X17004761Y14252858D01*
X16966666Y14290953D01*
X16890476Y14329048D01*
X16738095Y14367143D01*
X16661904Y14405239D01*
X16623809Y14443334D01*
X16585714Y14519524D01*
X16585714Y14595715D01*
X16623809Y14671905D01*
X16661904Y14710000D01*
X16738095Y14748096D01*
X16928571Y14748096D01*
X17042857Y14710000D01*
X17385714Y13948096D02*
X17385714Y14748096D01*
X17385714Y14367143D02*
X17842857Y14367143D01*
X17842857Y13948096D02*
X17842857Y14748096D01*
X18490476Y14367143D02*
X18223809Y14367143D01*
X18223809Y13948096D02*
X18223809Y14748096D01*
X18604761Y14748096D01*
X18795238Y14748096D02*
X19252380Y14748096D01*
X19023809Y13948096D02*
X19023809Y14748096D01*
X19519047Y14748096D02*
X19519047Y14100477D01*
X19557142Y14024286D01*
X19595238Y13986191D01*
X19671428Y13948096D01*
X19823809Y13948096D01*
X19900000Y13986191D01*
X19938095Y14024286D01*
X19976190Y14100477D01*
X19976190Y14748096D01*
X10123333Y21878096D02*
X10123333Y22678096D01*
X10428095Y22678096D01*
X10504285Y22640000D01*
X10542380Y22601905D01*
X10580476Y22525715D01*
X10580476Y22411429D01*
X10542380Y22335239D01*
X10504285Y22297143D01*
X10428095Y22259048D01*
X10123333Y22259048D01*
X10847142Y22678096D02*
X11037619Y21878096D01*
X11190000Y22449524D01*
X11342380Y21878096D01*
X11532857Y22678096D01*
X12294761Y21878096D02*
X12028095Y22259048D01*
X11837619Y21878096D02*
X11837619Y22678096D01*
X12142380Y22678096D01*
X12218571Y22640000D01*
X12256666Y22601905D01*
X12294761Y22525715D01*
X12294761Y22411429D01*
X12256666Y22335239D01*
X12218571Y22297143D01*
X12142380Y22259048D01*
X11837619Y22259048D01*
X53166190Y38496191D02*
X53280476Y38458096D01*
X53470952Y38458096D01*
X53547142Y38496191D01*
X53585238Y38534286D01*
X53623333Y38610477D01*
X53623333Y38686667D01*
X53585238Y38762858D01*
X53547142Y38800953D01*
X53470952Y38839048D01*
X53318571Y38877143D01*
X53242380Y38915239D01*
X53204285Y38953334D01*
X53166190Y39029524D01*
X53166190Y39105715D01*
X53204285Y39181905D01*
X53242380Y39220000D01*
X53318571Y39258096D01*
X53509047Y39258096D01*
X53623333Y39220000D01*
X53966190Y38458096D02*
X53966190Y39258096D01*
X53966190Y38877143D02*
X54423333Y38877143D01*
X54423333Y38458096D02*
X54423333Y39258096D01*
X54804285Y38458096D02*
X54804285Y39258096D01*
X54994761Y39258096D01*
X55109047Y39220000D01*
X55185238Y39143810D01*
X55223333Y39067620D01*
X55261428Y38915239D01*
X55261428Y38800953D01*
X55223333Y38648572D01*
X55185238Y38572381D01*
X55109047Y38496191D01*
X54994761Y38458096D01*
X54804285Y38458096D01*
X55528095Y39258096D02*
X55718571Y38458096D01*
X55870952Y39029524D01*
X56023333Y38458096D01*
X56213809Y39258096D01*
X56518571Y38458096D02*
X56518571Y39258096D01*
X56975714Y38458096D01*
X56975714Y39258096D01*
D10*
X53301914Y18221934D02*
X53778104Y18221934D01*
X53206676Y17936220D02*
X53540009Y18936220D01*
X53873342Y17936220D01*
X54159057Y18840981D02*
X54206676Y18888600D01*
X54301914Y18936220D01*
X54540009Y18936220D01*
X54635247Y18888600D01*
X54682866Y18840981D01*
X54730485Y18745743D01*
X54730485Y18650505D01*
X54682866Y18507648D01*
X54111438Y17936220D01*
X54730485Y17936220D01*
D14*
X53670476Y44220000D02*
X53594285Y44258096D01*
X53480000Y44258096D01*
X53365714Y44220000D01*
X53289523Y44143810D01*
X53251428Y44067620D01*
X53213333Y43915239D01*
X53213333Y43800953D01*
X53251428Y43648572D01*
X53289523Y43572381D01*
X53365714Y43496191D01*
X53480000Y43458096D01*
X53556190Y43458096D01*
X53670476Y43496191D01*
X53708571Y43534286D01*
X53708571Y43800953D01*
X53556190Y43800953D01*
X54051428Y43458096D02*
X54051428Y44258096D01*
X54508571Y43458096D01*
X54508571Y44258096D01*
X54889523Y43458096D02*
X54889523Y44258096D01*
X55080000Y44258096D01*
X55194285Y44220000D01*
X55270476Y44143810D01*
X55308571Y44067620D01*
X55346666Y43915239D01*
X55346666Y43800953D01*
X55308571Y43648572D01*
X55270476Y43572381D01*
X55194285Y43496191D01*
X55080000Y43458096D01*
X54889523Y43458096D01*
D10*
X53687638Y23314629D02*
X53830495Y23267010D01*
X53878114Y23219391D01*
X53925733Y23124153D01*
X53925733Y22981296D01*
X53878114Y22886058D01*
X53830495Y22838439D01*
X53735257Y22790820D01*
X53354304Y22790820D01*
X53354304Y23790820D01*
X53687638Y23790820D01*
X53782876Y23743200D01*
X53830495Y23695581D01*
X53878114Y23600343D01*
X53878114Y23505105D01*
X53830495Y23409867D01*
X53782876Y23362248D01*
X53687638Y23314629D01*
X53354304Y23314629D01*
X54878114Y22790820D02*
X54306685Y22790820D01*
X54592400Y22790820D02*
X54592400Y23790820D01*
X54497161Y23647962D01*
X54401923Y23552724D01*
X54306685Y23505105D01*
D14*
X53640476Y46740000D02*
X53564285Y46778096D01*
X53450000Y46778096D01*
X53335714Y46740000D01*
X53259523Y46663810D01*
X53221428Y46587620D01*
X53183333Y46435239D01*
X53183333Y46320953D01*
X53221428Y46168572D01*
X53259523Y46092381D01*
X53335714Y46016191D01*
X53450000Y45978096D01*
X53526190Y45978096D01*
X53640476Y46016191D01*
X53678571Y46054286D01*
X53678571Y46320953D01*
X53526190Y46320953D01*
X54021428Y45978096D02*
X54021428Y46778096D01*
X54478571Y45978096D01*
X54478571Y46778096D01*
X54859523Y45978096D02*
X54859523Y46778096D01*
X55050000Y46778096D01*
X55164285Y46740000D01*
X55240476Y46663810D01*
X55278571Y46587620D01*
X55316666Y46435239D01*
X55316666Y46320953D01*
X55278571Y46168572D01*
X55240476Y46092381D01*
X55164285Y46016191D01*
X55050000Y45978096D01*
X54859523Y45978096D01*
D10*
X21937619Y29703810D02*
X21937619Y29132381D01*
X20937619Y29418096D02*
X21937619Y29418096D01*
X20937619Y28799048D02*
X21937619Y28799048D01*
X21937619Y28560953D01*
X21890000Y28418096D01*
X21794761Y28322858D01*
X21699523Y28275239D01*
X21509047Y28227620D01*
X21366190Y28227620D01*
X21175714Y28275239D01*
X21080476Y28322858D01*
X20985238Y28418096D01*
X20937619Y28560953D01*
X20937619Y28799048D01*
X20937619Y27799048D02*
X21937619Y27799048D01*
%TO.C,C21*%
X28709942Y24338258D02*
X28662323Y24290639D01*
X28519466Y24243020D01*
X28424228Y24243020D01*
X28281371Y24290639D01*
X28186133Y24385877D01*
X28138514Y24481115D01*
X28090895Y24671591D01*
X28090895Y24814448D01*
X28138514Y25004924D01*
X28186133Y25100162D01*
X28281371Y25195400D01*
X28424228Y25243020D01*
X28519466Y25243020D01*
X28662323Y25195400D01*
X28709942Y25147781D01*
X29090895Y25147781D02*
X29138514Y25195400D01*
X29233752Y25243020D01*
X29471847Y25243020D01*
X29567085Y25195400D01*
X29614704Y25147781D01*
X29662323Y25052543D01*
X29662323Y24957305D01*
X29614704Y24814448D01*
X29043276Y24243020D01*
X29662323Y24243020D01*
X30614704Y24243020D02*
X30043276Y24243020D01*
X30328990Y24243020D02*
X30328990Y25243020D01*
X30233752Y25100162D01*
X30138514Y25004924D01*
X30043276Y24957305D01*
D14*
%TO.C,C10*%
X44726685Y32069976D02*
X44780560Y32069976D01*
X44888309Y32016101D01*
X44942184Y31962226D01*
X44996059Y31854477D01*
X44996059Y31746727D01*
X44969122Y31665915D01*
X44888309Y31531228D01*
X44807497Y31450416D01*
X44672810Y31369604D01*
X44591998Y31342666D01*
X44484248Y31342666D01*
X44376499Y31396541D01*
X44322624Y31450416D01*
X44268749Y31558165D01*
X44268749Y31612040D01*
X44241812Y32662599D02*
X44565061Y32339350D01*
X44403436Y32500975D02*
X43837751Y31935289D01*
X43972438Y31962226D01*
X44080187Y31962226D01*
X44161000Y31935289D01*
X43325940Y32447100D02*
X43272065Y32500975D01*
X43245128Y32581787D01*
X43245128Y32635662D01*
X43272065Y32716474D01*
X43352877Y32851161D01*
X43487564Y32985848D01*
X43622251Y33066660D01*
X43703064Y33093597D01*
X43756938Y33093597D01*
X43837751Y33066660D01*
X43891625Y33012785D01*
X43918563Y32931973D01*
X43918563Y32878098D01*
X43891625Y32797286D01*
X43810813Y32662599D01*
X43676126Y32527912D01*
X43541439Y32447100D01*
X43460627Y32420162D01*
X43406752Y32420162D01*
X43325940Y32447100D01*
D10*
%TO.C,D13*%
X7056514Y8893820D02*
X7056514Y9893820D01*
X7294609Y9893820D01*
X7437466Y9846200D01*
X7532704Y9750962D01*
X7580323Y9655724D01*
X7627942Y9465248D01*
X7627942Y9322391D01*
X7580323Y9131915D01*
X7532704Y9036677D01*
X7437466Y8941439D01*
X7294609Y8893820D01*
X7056514Y8893820D01*
X8580323Y8893820D02*
X8008895Y8893820D01*
X8294609Y8893820D02*
X8294609Y9893820D01*
X8199371Y9750962D01*
X8104133Y9655724D01*
X8008895Y9608105D01*
X8913657Y9893820D02*
X9532704Y9893820D01*
X9199371Y9512867D01*
X9342228Y9512867D01*
X9437466Y9465248D01*
X9485085Y9417629D01*
X9532704Y9322391D01*
X9532704Y9084296D01*
X9485085Y8989058D01*
X9437466Y8941439D01*
X9342228Y8893820D01*
X9056514Y8893820D01*
X8961276Y8941439D01*
X8913657Y8989058D01*
D14*
%TO.C,R4*%
X40026666Y42468096D02*
X39760000Y42849048D01*
X39569523Y42468096D02*
X39569523Y43268096D01*
X39874285Y43268096D01*
X39950476Y43230000D01*
X39988571Y43191905D01*
X40026666Y43115715D01*
X40026666Y43001429D01*
X39988571Y42925239D01*
X39950476Y42887143D01*
X39874285Y42849048D01*
X39569523Y42849048D01*
X40712380Y43001429D02*
X40712380Y42468096D01*
X40521904Y43306191D02*
X40331428Y42734762D01*
X40826666Y42734762D01*
D10*
%TO.C,C29*%
X30487942Y18615658D02*
X30440323Y18568039D01*
X30297466Y18520420D01*
X30202228Y18520420D01*
X30059371Y18568039D01*
X29964133Y18663277D01*
X29916514Y18758515D01*
X29868895Y18948991D01*
X29868895Y19091848D01*
X29916514Y19282324D01*
X29964133Y19377562D01*
X30059371Y19472800D01*
X30202228Y19520420D01*
X30297466Y19520420D01*
X30440323Y19472800D01*
X30487942Y19425181D01*
X30868895Y19425181D02*
X30916514Y19472800D01*
X31011752Y19520420D01*
X31249847Y19520420D01*
X31345085Y19472800D01*
X31392704Y19425181D01*
X31440323Y19329943D01*
X31440323Y19234705D01*
X31392704Y19091848D01*
X30821276Y18520420D01*
X31440323Y18520420D01*
X31916514Y18520420D02*
X32106990Y18520420D01*
X32202228Y18568039D01*
X32249847Y18615658D01*
X32345085Y18758515D01*
X32392704Y18948991D01*
X32392704Y19329943D01*
X32345085Y19425181D01*
X32297466Y19472800D01*
X32202228Y19520420D01*
X32011752Y19520420D01*
X31916514Y19472800D01*
X31868895Y19425181D01*
X31821276Y19329943D01*
X31821276Y19091848D01*
X31868895Y18996610D01*
X31916514Y18948991D01*
X32011752Y18901372D01*
X32202228Y18901372D01*
X32297466Y18948991D01*
X32345085Y18996610D01*
X32392704Y19091848D01*
D14*
%TO.C,R28*%
X10533114Y40545896D02*
X10266447Y40926848D01*
X10075971Y40545896D02*
X10075971Y41345896D01*
X10380733Y41345896D01*
X10456923Y41307800D01*
X10495019Y41269705D01*
X10533114Y41193515D01*
X10533114Y41079229D01*
X10495019Y41003039D01*
X10456923Y40964943D01*
X10380733Y40926848D01*
X10075971Y40926848D01*
X10837876Y41269705D02*
X10875971Y41307800D01*
X10952161Y41345896D01*
X11142638Y41345896D01*
X11218828Y41307800D01*
X11256923Y41269705D01*
X11295019Y41193515D01*
X11295019Y41117324D01*
X11256923Y41003039D01*
X10799780Y40545896D01*
X11295019Y40545896D01*
X11752161Y41003039D02*
X11675971Y41041134D01*
X11637876Y41079229D01*
X11599780Y41155420D01*
X11599780Y41193515D01*
X11637876Y41269705D01*
X11675971Y41307800D01*
X11752161Y41345896D01*
X11904542Y41345896D01*
X11980733Y41307800D01*
X12018828Y41269705D01*
X12056923Y41193515D01*
X12056923Y41155420D01*
X12018828Y41079229D01*
X11980733Y41041134D01*
X11904542Y41003039D01*
X11752161Y41003039D01*
X11675971Y40964943D01*
X11637876Y40926848D01*
X11599780Y40850658D01*
X11599780Y40698277D01*
X11637876Y40622086D01*
X11675971Y40583991D01*
X11752161Y40545896D01*
X11904542Y40545896D01*
X11980733Y40583991D01*
X12018828Y40622086D01*
X12056923Y40698277D01*
X12056923Y40850658D01*
X12018828Y40926848D01*
X11980733Y40964943D01*
X11904542Y41003039D01*
%TO.C,D2*%
X15839523Y20968096D02*
X15839523Y21768096D01*
X16030000Y21768096D01*
X16144285Y21730000D01*
X16220476Y21653810D01*
X16258571Y21577620D01*
X16296666Y21425239D01*
X16296666Y21310953D01*
X16258571Y21158572D01*
X16220476Y21082381D01*
X16144285Y21006191D01*
X16030000Y20968096D01*
X15839523Y20968096D01*
X16601428Y21691905D02*
X16639523Y21730000D01*
X16715714Y21768096D01*
X16906190Y21768096D01*
X16982380Y21730000D01*
X17020476Y21691905D01*
X17058571Y21615715D01*
X17058571Y21539524D01*
X17020476Y21425239D01*
X16563333Y20968096D01*
X17058571Y20968096D01*
%TO.C,R1*%
X23016666Y1158096D02*
X22750000Y1539048D01*
X22559523Y1158096D02*
X22559523Y1958096D01*
X22864285Y1958096D01*
X22940476Y1920000D01*
X22978571Y1881905D01*
X23016666Y1805715D01*
X23016666Y1691429D01*
X22978571Y1615239D01*
X22940476Y1577143D01*
X22864285Y1539048D01*
X22559523Y1539048D01*
X23778571Y1158096D02*
X23321428Y1158096D01*
X23550000Y1158096D02*
X23550000Y1958096D01*
X23473809Y1843810D01*
X23397619Y1767620D01*
X23321428Y1729524D01*
%TO.C,C27*%
X8090714Y22244286D02*
X8052619Y22206191D01*
X7938333Y22168096D01*
X7862142Y22168096D01*
X7747857Y22206191D01*
X7671666Y22282381D01*
X7633571Y22358572D01*
X7595476Y22510953D01*
X7595476Y22625239D01*
X7633571Y22777620D01*
X7671666Y22853810D01*
X7747857Y22930000D01*
X7862142Y22968096D01*
X7938333Y22968096D01*
X8052619Y22930000D01*
X8090714Y22891905D01*
X8395476Y22891905D02*
X8433571Y22930000D01*
X8509761Y22968096D01*
X8700238Y22968096D01*
X8776428Y22930000D01*
X8814523Y22891905D01*
X8852619Y22815715D01*
X8852619Y22739524D01*
X8814523Y22625239D01*
X8357380Y22168096D01*
X8852619Y22168096D01*
X9119285Y22968096D02*
X9652619Y22968096D01*
X9309761Y22168096D01*
D10*
%TO.C,U6*%
X2138095Y10965620D02*
X2138095Y10156096D01*
X2185714Y10060858D01*
X2233333Y10013239D01*
X2328571Y9965620D01*
X2519047Y9965620D01*
X2614285Y10013239D01*
X2661904Y10060858D01*
X2709523Y10156096D01*
X2709523Y10965620D01*
X3614285Y10965620D02*
X3423809Y10965620D01*
X3328571Y10918000D01*
X3280952Y10870381D01*
X3185714Y10727524D01*
X3138095Y10537048D01*
X3138095Y10156096D01*
X3185714Y10060858D01*
X3233333Y10013239D01*
X3328571Y9965620D01*
X3519047Y9965620D01*
X3614285Y10013239D01*
X3661904Y10060858D01*
X3709523Y10156096D01*
X3709523Y10394191D01*
X3661904Y10489429D01*
X3614285Y10537048D01*
X3519047Y10584667D01*
X3328571Y10584667D01*
X3233333Y10537048D01*
X3185714Y10489429D01*
X3138095Y10394191D01*
D14*
%TO.C,C28*%
X20535714Y8274286D02*
X20497619Y8236191D01*
X20383333Y8198096D01*
X20307142Y8198096D01*
X20192857Y8236191D01*
X20116666Y8312381D01*
X20078571Y8388572D01*
X20040476Y8540953D01*
X20040476Y8655239D01*
X20078571Y8807620D01*
X20116666Y8883810D01*
X20192857Y8960000D01*
X20307142Y8998096D01*
X20383333Y8998096D01*
X20497619Y8960000D01*
X20535714Y8921905D01*
X20840476Y8921905D02*
X20878571Y8960000D01*
X20954761Y8998096D01*
X21145238Y8998096D01*
X21221428Y8960000D01*
X21259523Y8921905D01*
X21297619Y8845715D01*
X21297619Y8769524D01*
X21259523Y8655239D01*
X20802380Y8198096D01*
X21297619Y8198096D01*
X21754761Y8655239D02*
X21678571Y8693334D01*
X21640476Y8731429D01*
X21602380Y8807620D01*
X21602380Y8845715D01*
X21640476Y8921905D01*
X21678571Y8960000D01*
X21754761Y8998096D01*
X21907142Y8998096D01*
X21983333Y8960000D01*
X22021428Y8921905D01*
X22059523Y8845715D01*
X22059523Y8807620D01*
X22021428Y8731429D01*
X21983333Y8693334D01*
X21907142Y8655239D01*
X21754761Y8655239D01*
X21678571Y8617143D01*
X21640476Y8579048D01*
X21602380Y8502858D01*
X21602380Y8350477D01*
X21640476Y8274286D01*
X21678571Y8236191D01*
X21754761Y8198096D01*
X21907142Y8198096D01*
X21983333Y8236191D01*
X22021428Y8274286D01*
X22059523Y8350477D01*
X22059523Y8502858D01*
X22021428Y8579048D01*
X21983333Y8617143D01*
X21907142Y8655239D01*
%TO.C,U2*%
X25610476Y1928096D02*
X25610476Y1280477D01*
X25648571Y1204286D01*
X25686666Y1166191D01*
X25762857Y1128096D01*
X25915238Y1128096D01*
X25991428Y1166191D01*
X26029523Y1204286D01*
X26067619Y1280477D01*
X26067619Y1928096D01*
X26410476Y1851905D02*
X26448571Y1890000D01*
X26524761Y1928096D01*
X26715238Y1928096D01*
X26791428Y1890000D01*
X26829523Y1851905D01*
X26867619Y1775715D01*
X26867619Y1699524D01*
X26829523Y1585239D01*
X26372380Y1128096D01*
X26867619Y1128096D01*
D10*
%TO.C,SW4*%
X11636466Y46660439D02*
X11779323Y46612820D01*
X12017419Y46612820D01*
X12112657Y46660439D01*
X12160276Y46708058D01*
X12207895Y46803296D01*
X12207895Y46898534D01*
X12160276Y46993772D01*
X12112657Y47041391D01*
X12017419Y47089010D01*
X11826942Y47136629D01*
X11731704Y47184248D01*
X11684085Y47231867D01*
X11636466Y47327105D01*
X11636466Y47422343D01*
X11684085Y47517581D01*
X11731704Y47565200D01*
X11826942Y47612820D01*
X12065038Y47612820D01*
X12207895Y47565200D01*
X12541228Y47612820D02*
X12779323Y46612820D01*
X12969800Y47327105D01*
X13160276Y46612820D01*
X13398371Y47612820D01*
X14207895Y47279486D02*
X14207895Y46612820D01*
X13969800Y47660439D02*
X13731704Y46946153D01*
X14350752Y46946153D01*
%TO.C,D8*%
X2652580Y51305505D02*
X1652580Y51305505D01*
X1652580Y51543600D01*
X1700200Y51686458D01*
X1795438Y51781696D01*
X1890676Y51829315D01*
X2081152Y51876934D01*
X2224009Y51876934D01*
X2414485Y51829315D01*
X2509723Y51781696D01*
X2604961Y51686458D01*
X2652580Y51543600D01*
X2652580Y51305505D01*
X2081152Y52448362D02*
X2033533Y52353124D01*
X1985914Y52305505D01*
X1890676Y52257886D01*
X1843057Y52257886D01*
X1747819Y52305505D01*
X1700200Y52353124D01*
X1652580Y52448362D01*
X1652580Y52638839D01*
X1700200Y52734077D01*
X1747819Y52781696D01*
X1843057Y52829315D01*
X1890676Y52829315D01*
X1985914Y52781696D01*
X2033533Y52734077D01*
X2081152Y52638839D01*
X2081152Y52448362D01*
X2128771Y52353124D01*
X2176390Y52305505D01*
X2271628Y52257886D01*
X2462104Y52257886D01*
X2557342Y52305505D01*
X2604961Y52353124D01*
X2652580Y52448362D01*
X2652580Y52638839D01*
X2604961Y52734077D01*
X2557342Y52781696D01*
X2462104Y52829315D01*
X2271628Y52829315D01*
X2176390Y52781696D01*
X2128771Y52734077D01*
X2081152Y52638839D01*
%TO.C,C19*%
X15797742Y46700858D02*
X15750123Y46653239D01*
X15607266Y46605620D01*
X15512028Y46605620D01*
X15369171Y46653239D01*
X15273933Y46748477D01*
X15226314Y46843715D01*
X15178695Y47034191D01*
X15178695Y47177048D01*
X15226314Y47367524D01*
X15273933Y47462762D01*
X15369171Y47558000D01*
X15512028Y47605620D01*
X15607266Y47605620D01*
X15750123Y47558000D01*
X15797742Y47510381D01*
X16750123Y46605620D02*
X16178695Y46605620D01*
X16464409Y46605620D02*
X16464409Y47605620D01*
X16369171Y47462762D01*
X16273933Y47367524D01*
X16178695Y47319905D01*
X17226314Y46605620D02*
X17416790Y46605620D01*
X17512028Y46653239D01*
X17559647Y46700858D01*
X17654885Y46843715D01*
X17702504Y47034191D01*
X17702504Y47415143D01*
X17654885Y47510381D01*
X17607266Y47558000D01*
X17512028Y47605620D01*
X17321552Y47605620D01*
X17226314Y47558000D01*
X17178695Y47510381D01*
X17131076Y47415143D01*
X17131076Y47177048D01*
X17178695Y47081810D01*
X17226314Y47034191D01*
X17321552Y46986572D01*
X17512028Y46986572D01*
X17607266Y47034191D01*
X17654885Y47081810D01*
X17702504Y47177048D01*
%TO.C,D7*%
X7558104Y52708820D02*
X7558104Y53708820D01*
X7796200Y53708820D01*
X7939057Y53661200D01*
X8034295Y53565962D01*
X8081914Y53470724D01*
X8129533Y53280248D01*
X8129533Y53137391D01*
X8081914Y52946915D01*
X8034295Y52851677D01*
X7939057Y52756439D01*
X7796200Y52708820D01*
X7558104Y52708820D01*
X8462866Y53708820D02*
X9129533Y53708820D01*
X8700961Y52708820D01*
%TO.C,Q4*%
X19233961Y25218181D02*
X19138723Y25265800D01*
X19043485Y25361039D01*
X18900628Y25503896D01*
X18805390Y25551515D01*
X18710152Y25551515D01*
X18757771Y25313420D02*
X18662533Y25361039D01*
X18567295Y25456277D01*
X18519676Y25646753D01*
X18519676Y25980086D01*
X18567295Y26170562D01*
X18662533Y26265800D01*
X18757771Y26313420D01*
X18948247Y26313420D01*
X19043485Y26265800D01*
X19138723Y26170562D01*
X19186342Y25980086D01*
X19186342Y25646753D01*
X19138723Y25456277D01*
X19043485Y25361039D01*
X18948247Y25313420D01*
X18757771Y25313420D01*
X20043485Y25980086D02*
X20043485Y25313420D01*
X19805390Y26361039D02*
X19567295Y25646753D01*
X20186342Y25646753D01*
%TO.C,C1*%
X22659533Y15025458D02*
X22611914Y14977839D01*
X22469057Y14930220D01*
X22373819Y14930220D01*
X22230961Y14977839D01*
X22135723Y15073077D01*
X22088104Y15168315D01*
X22040485Y15358791D01*
X22040485Y15501648D01*
X22088104Y15692124D01*
X22135723Y15787362D01*
X22230961Y15882600D01*
X22373819Y15930220D01*
X22469057Y15930220D01*
X22611914Y15882600D01*
X22659533Y15834981D01*
X23611914Y14930220D02*
X23040485Y14930220D01*
X23326200Y14930220D02*
X23326200Y15930220D01*
X23230961Y15787362D01*
X23135723Y15692124D01*
X23040485Y15644505D01*
D14*
%TO.C,C8*%
X12056666Y8014286D02*
X12018571Y7976191D01*
X11904285Y7938096D01*
X11828095Y7938096D01*
X11713809Y7976191D01*
X11637619Y8052381D01*
X11599523Y8128572D01*
X11561428Y8280953D01*
X11561428Y8395239D01*
X11599523Y8547620D01*
X11637619Y8623810D01*
X11713809Y8700000D01*
X11828095Y8738096D01*
X11904285Y8738096D01*
X12018571Y8700000D01*
X12056666Y8661905D01*
X12513809Y8395239D02*
X12437619Y8433334D01*
X12399523Y8471429D01*
X12361428Y8547620D01*
X12361428Y8585715D01*
X12399523Y8661905D01*
X12437619Y8700000D01*
X12513809Y8738096D01*
X12666190Y8738096D01*
X12742380Y8700000D01*
X12780476Y8661905D01*
X12818571Y8585715D01*
X12818571Y8547620D01*
X12780476Y8471429D01*
X12742380Y8433334D01*
X12666190Y8395239D01*
X12513809Y8395239D01*
X12437619Y8357143D01*
X12399523Y8319048D01*
X12361428Y8242858D01*
X12361428Y8090477D01*
X12399523Y8014286D01*
X12437619Y7976191D01*
X12513809Y7938096D01*
X12666190Y7938096D01*
X12742380Y7976191D01*
X12780476Y8014286D01*
X12818571Y8090477D01*
X12818571Y8242858D01*
X12780476Y8319048D01*
X12742380Y8357143D01*
X12666190Y8395239D01*
D10*
%TO.C,R5*%
X10803333Y48757620D02*
X10470000Y49233810D01*
X10231904Y48757620D02*
X10231904Y49757620D01*
X10612857Y49757620D01*
X10708095Y49710000D01*
X10755714Y49662381D01*
X10803333Y49567143D01*
X10803333Y49424286D01*
X10755714Y49329048D01*
X10708095Y49281429D01*
X10612857Y49233810D01*
X10231904Y49233810D01*
X11708095Y49757620D02*
X11231904Y49757620D01*
X11184285Y49281429D01*
X11231904Y49329048D01*
X11327142Y49376667D01*
X11565238Y49376667D01*
X11660476Y49329048D01*
X11708095Y49281429D01*
X11755714Y49186191D01*
X11755714Y48948096D01*
X11708095Y48852858D01*
X11660476Y48805239D01*
X11565238Y48757620D01*
X11327142Y48757620D01*
X11231904Y48805239D01*
X11184285Y48852858D01*
D14*
%TO.C,C18*%
X43695714Y46954286D02*
X43657619Y46916191D01*
X43543333Y46878096D01*
X43467142Y46878096D01*
X43352857Y46916191D01*
X43276666Y46992381D01*
X43238571Y47068572D01*
X43200476Y47220953D01*
X43200476Y47335239D01*
X43238571Y47487620D01*
X43276666Y47563810D01*
X43352857Y47640000D01*
X43467142Y47678096D01*
X43543333Y47678096D01*
X43657619Y47640000D01*
X43695714Y47601905D01*
X44457619Y46878096D02*
X44000476Y46878096D01*
X44229047Y46878096D02*
X44229047Y47678096D01*
X44152857Y47563810D01*
X44076666Y47487620D01*
X44000476Y47449524D01*
X44914761Y47335239D02*
X44838571Y47373334D01*
X44800476Y47411429D01*
X44762380Y47487620D01*
X44762380Y47525715D01*
X44800476Y47601905D01*
X44838571Y47640000D01*
X44914761Y47678096D01*
X45067142Y47678096D01*
X45143333Y47640000D01*
X45181428Y47601905D01*
X45219523Y47525715D01*
X45219523Y47487620D01*
X45181428Y47411429D01*
X45143333Y47373334D01*
X45067142Y47335239D01*
X44914761Y47335239D01*
X44838571Y47297143D01*
X44800476Y47259048D01*
X44762380Y47182858D01*
X44762380Y47030477D01*
X44800476Y46954286D01*
X44838571Y46916191D01*
X44914761Y46878096D01*
X45067142Y46878096D01*
X45143333Y46916191D01*
X45181428Y46954286D01*
X45219523Y47030477D01*
X45219523Y47182858D01*
X45181428Y47259048D01*
X45143333Y47297143D01*
X45067142Y47335239D01*
%TO.C,R18*%
X38765714Y49888096D02*
X38499047Y50269048D01*
X38308571Y49888096D02*
X38308571Y50688096D01*
X38613333Y50688096D01*
X38689523Y50650000D01*
X38727619Y50611905D01*
X38765714Y50535715D01*
X38765714Y50421429D01*
X38727619Y50345239D01*
X38689523Y50307143D01*
X38613333Y50269048D01*
X38308571Y50269048D01*
X39527619Y49888096D02*
X39070476Y49888096D01*
X39299047Y49888096D02*
X39299047Y50688096D01*
X39222857Y50573810D01*
X39146666Y50497620D01*
X39070476Y50459524D01*
X39984761Y50345239D02*
X39908571Y50383334D01*
X39870476Y50421429D01*
X39832380Y50497620D01*
X39832380Y50535715D01*
X39870476Y50611905D01*
X39908571Y50650000D01*
X39984761Y50688096D01*
X40137142Y50688096D01*
X40213333Y50650000D01*
X40251428Y50611905D01*
X40289523Y50535715D01*
X40289523Y50497620D01*
X40251428Y50421429D01*
X40213333Y50383334D01*
X40137142Y50345239D01*
X39984761Y50345239D01*
X39908571Y50307143D01*
X39870476Y50269048D01*
X39832380Y50192858D01*
X39832380Y50040477D01*
X39870476Y49964286D01*
X39908571Y49926191D01*
X39984761Y49888096D01*
X40137142Y49888096D01*
X40213333Y49926191D01*
X40251428Y49964286D01*
X40289523Y50040477D01*
X40289523Y50192858D01*
X40251428Y50269048D01*
X40213333Y50307143D01*
X40137142Y50345239D01*
D10*
%TO.C,R30*%
X32062912Y21170150D02*
X31490493Y21271165D01*
X31658851Y20766089D02*
X30951745Y21473196D01*
X31221119Y21742570D01*
X31322134Y21776242D01*
X31389477Y21776242D01*
X31490493Y21742570D01*
X31591508Y21641555D01*
X31625180Y21540539D01*
X31625180Y21473196D01*
X31591508Y21372181D01*
X31322134Y21102807D01*
X31591508Y22112959D02*
X32029241Y22550692D01*
X32062912Y22045616D01*
X32163928Y22146631D01*
X32264943Y22180303D01*
X32332287Y22180303D01*
X32433302Y22146631D01*
X32601661Y21978272D01*
X32635332Y21877257D01*
X32635332Y21809913D01*
X32601661Y21708898D01*
X32399630Y21506868D01*
X32298615Y21473196D01*
X32231271Y21473196D01*
X32466974Y22988425D02*
X32534317Y23055768D01*
X32635332Y23089440D01*
X32702676Y23089440D01*
X32803691Y23055768D01*
X32972050Y22954753D01*
X33140409Y22786394D01*
X33241424Y22618036D01*
X33275096Y22517020D01*
X33275096Y22449677D01*
X33241424Y22348662D01*
X33174080Y22281318D01*
X33073065Y22247646D01*
X33005722Y22247646D01*
X32904706Y22281318D01*
X32736348Y22382333D01*
X32567989Y22550692D01*
X32466974Y22719051D01*
X32433302Y22820066D01*
X32433302Y22887410D01*
X32466974Y22988425D01*
%TO.C,U1*%
X40842032Y22052472D02*
X41414452Y21480052D01*
X41515467Y21446380D01*
X41582811Y21446380D01*
X41683826Y21480052D01*
X41818513Y21614739D01*
X41852185Y21715754D01*
X41852185Y21783098D01*
X41818513Y21884113D01*
X41246093Y22456533D01*
X42660307Y22456533D02*
X42256246Y22052472D01*
X42458276Y22254502D02*
X41751170Y22961609D01*
X41784841Y22793250D01*
X41784841Y22658563D01*
X41751170Y22557548D01*
%TO.C,D12*%
X14625714Y31855420D02*
X14625714Y32855420D01*
X14863809Y32855420D01*
X15006666Y32807800D01*
X15101904Y32712562D01*
X15149523Y32617324D01*
X15197142Y32426848D01*
X15197142Y32283991D01*
X15149523Y32093515D01*
X15101904Y31998277D01*
X15006666Y31903039D01*
X14863809Y31855420D01*
X14625714Y31855420D01*
X16149523Y31855420D02*
X15578095Y31855420D01*
X15863809Y31855420D02*
X15863809Y32855420D01*
X15768571Y32712562D01*
X15673333Y32617324D01*
X15578095Y32569705D01*
X16530476Y32760181D02*
X16578095Y32807800D01*
X16673333Y32855420D01*
X16911428Y32855420D01*
X17006666Y32807800D01*
X17054285Y32760181D01*
X17101904Y32664943D01*
X17101904Y32569705D01*
X17054285Y32426848D01*
X16482857Y31855420D01*
X17101904Y31855420D01*
%TO.C,C4*%
X27033333Y8162858D02*
X26985714Y8115239D01*
X26842857Y8067620D01*
X26747619Y8067620D01*
X26604761Y8115239D01*
X26509523Y8210477D01*
X26461904Y8305715D01*
X26414285Y8496191D01*
X26414285Y8639048D01*
X26461904Y8829524D01*
X26509523Y8924762D01*
X26604761Y9020000D01*
X26747619Y9067620D01*
X26842857Y9067620D01*
X26985714Y9020000D01*
X27033333Y8972381D01*
X27890476Y8734286D02*
X27890476Y8067620D01*
X27652380Y9115239D02*
X27414285Y8400953D01*
X28033333Y8400953D01*
%TO.C,C2*%
X39313333Y9882858D02*
X39265714Y9835239D01*
X39122857Y9787620D01*
X39027619Y9787620D01*
X38884761Y9835239D01*
X38789523Y9930477D01*
X38741904Y10025715D01*
X38694285Y10216191D01*
X38694285Y10359048D01*
X38741904Y10549524D01*
X38789523Y10644762D01*
X38884761Y10740000D01*
X39027619Y10787620D01*
X39122857Y10787620D01*
X39265714Y10740000D01*
X39313333Y10692381D01*
X39694285Y10692381D02*
X39741904Y10740000D01*
X39837142Y10787620D01*
X40075238Y10787620D01*
X40170476Y10740000D01*
X40218095Y10692381D01*
X40265714Y10597143D01*
X40265714Y10501905D01*
X40218095Y10359048D01*
X39646666Y9787620D01*
X40265714Y9787620D01*
%TO.C,D9*%
X2601780Y53235905D02*
X1601780Y53235905D01*
X1601780Y53474000D01*
X1649400Y53616858D01*
X1744638Y53712096D01*
X1839876Y53759715D01*
X2030352Y53807334D01*
X2173209Y53807334D01*
X2363685Y53759715D01*
X2458923Y53712096D01*
X2554161Y53616858D01*
X2601780Y53474000D01*
X2601780Y53235905D01*
X2601780Y54283524D02*
X2601780Y54474000D01*
X2554161Y54569239D01*
X2506542Y54616858D01*
X2363685Y54712096D01*
X2173209Y54759715D01*
X1792257Y54759715D01*
X1697019Y54712096D01*
X1649400Y54664477D01*
X1601780Y54569239D01*
X1601780Y54378762D01*
X1649400Y54283524D01*
X1697019Y54235905D01*
X1792257Y54188286D01*
X2030352Y54188286D01*
X2125590Y54235905D01*
X2173209Y54283524D01*
X2220828Y54378762D01*
X2220828Y54569239D01*
X2173209Y54664477D01*
X2125590Y54712096D01*
X2030352Y54759715D01*
D14*
%TO.C,R27*%
X9738304Y929115D02*
X9357352Y662448D01*
X9738304Y471972D02*
X8938304Y471972D01*
X8938304Y776734D01*
X8976400Y852924D01*
X9014495Y891020D01*
X9090685Y929115D01*
X9204971Y929115D01*
X9281161Y891020D01*
X9319257Y852924D01*
X9357352Y776734D01*
X9357352Y471972D01*
X9014495Y1233877D02*
X8976400Y1271972D01*
X8938304Y1348162D01*
X8938304Y1538639D01*
X8976400Y1614829D01*
X9014495Y1652924D01*
X9090685Y1691020D01*
X9166876Y1691020D01*
X9281161Y1652924D01*
X9738304Y1195781D01*
X9738304Y1691020D01*
X8938304Y1957686D02*
X8938304Y2491020D01*
X9738304Y2148162D01*
D10*
%TO.C,C14*%
X26128542Y19320543D02*
X26176161Y19272924D01*
X26223780Y19130067D01*
X26223780Y19034829D01*
X26176161Y18891972D01*
X26080923Y18796734D01*
X25985685Y18749115D01*
X25795209Y18701496D01*
X25652352Y18701496D01*
X25461876Y18749115D01*
X25366638Y18796734D01*
X25271400Y18891972D01*
X25223780Y19034829D01*
X25223780Y19130067D01*
X25271400Y19272924D01*
X25319019Y19320543D01*
X26223780Y20272924D02*
X26223780Y19701496D01*
X26223780Y19987210D02*
X25223780Y19987210D01*
X25366638Y19891972D01*
X25461876Y19796734D01*
X25509495Y19701496D01*
X25557114Y21130067D02*
X26223780Y21130067D01*
X25176161Y20891972D02*
X25890447Y20653877D01*
X25890447Y21272924D01*
D14*
%TO.C,R25*%
X15808314Y42029696D02*
X15541647Y42410648D01*
X15351171Y42029696D02*
X15351171Y42829696D01*
X15655933Y42829696D01*
X15732123Y42791600D01*
X15770219Y42753505D01*
X15808314Y42677315D01*
X15808314Y42563029D01*
X15770219Y42486839D01*
X15732123Y42448743D01*
X15655933Y42410648D01*
X15351171Y42410648D01*
X16113076Y42753505D02*
X16151171Y42791600D01*
X16227361Y42829696D01*
X16417838Y42829696D01*
X16494028Y42791600D01*
X16532123Y42753505D01*
X16570219Y42677315D01*
X16570219Y42601124D01*
X16532123Y42486839D01*
X16074980Y42029696D01*
X16570219Y42029696D01*
X17294028Y42829696D02*
X16913076Y42829696D01*
X16874980Y42448743D01*
X16913076Y42486839D01*
X16989266Y42524934D01*
X17179742Y42524934D01*
X17255933Y42486839D01*
X17294028Y42448743D01*
X17332123Y42372553D01*
X17332123Y42182077D01*
X17294028Y42105886D01*
X17255933Y42067791D01*
X17179742Y42029696D01*
X16989266Y42029696D01*
X16913076Y42067791D01*
X16874980Y42105886D01*
%TO.C,C17*%
X47555714Y45904286D02*
X47517619Y45866191D01*
X47403333Y45828096D01*
X47327142Y45828096D01*
X47212857Y45866191D01*
X47136666Y45942381D01*
X47098571Y46018572D01*
X47060476Y46170953D01*
X47060476Y46285239D01*
X47098571Y46437620D01*
X47136666Y46513810D01*
X47212857Y46590000D01*
X47327142Y46628096D01*
X47403333Y46628096D01*
X47517619Y46590000D01*
X47555714Y46551905D01*
X48317619Y45828096D02*
X47860476Y45828096D01*
X48089047Y45828096D02*
X48089047Y46628096D01*
X48012857Y46513810D01*
X47936666Y46437620D01*
X47860476Y46399524D01*
X48584285Y46628096D02*
X49117619Y46628096D01*
X48774761Y45828096D01*
D10*
%TO.C,R15*%
X10887142Y43857620D02*
X10553809Y44333810D01*
X10315714Y43857620D02*
X10315714Y44857620D01*
X10696666Y44857620D01*
X10791904Y44810000D01*
X10839523Y44762381D01*
X10887142Y44667143D01*
X10887142Y44524286D01*
X10839523Y44429048D01*
X10791904Y44381429D01*
X10696666Y44333810D01*
X10315714Y44333810D01*
X11839523Y43857620D02*
X11268095Y43857620D01*
X11553809Y43857620D02*
X11553809Y44857620D01*
X11458571Y44714762D01*
X11363333Y44619524D01*
X11268095Y44571905D01*
X12744285Y44857620D02*
X12268095Y44857620D01*
X12220476Y44381429D01*
X12268095Y44429048D01*
X12363333Y44476667D01*
X12601428Y44476667D01*
X12696666Y44429048D01*
X12744285Y44381429D01*
X12791904Y44286191D01*
X12791904Y44048096D01*
X12744285Y43952858D01*
X12696666Y43905239D01*
X12601428Y43857620D01*
X12363333Y43857620D01*
X12268095Y43905239D01*
X12220476Y43952858D01*
%TO.C,C13*%
X39301742Y11503658D02*
X39254123Y11456039D01*
X39111266Y11408420D01*
X39016028Y11408420D01*
X38873171Y11456039D01*
X38777933Y11551277D01*
X38730314Y11646515D01*
X38682695Y11836991D01*
X38682695Y11979848D01*
X38730314Y12170324D01*
X38777933Y12265562D01*
X38873171Y12360800D01*
X39016028Y12408420D01*
X39111266Y12408420D01*
X39254123Y12360800D01*
X39301742Y12313181D01*
X40254123Y11408420D02*
X39682695Y11408420D01*
X39968409Y11408420D02*
X39968409Y12408420D01*
X39873171Y12265562D01*
X39777933Y12170324D01*
X39682695Y12122705D01*
X40587457Y12408420D02*
X41206504Y12408420D01*
X40873171Y12027467D01*
X41016028Y12027467D01*
X41111266Y11979848D01*
X41158885Y11932229D01*
X41206504Y11836991D01*
X41206504Y11598896D01*
X41158885Y11503658D01*
X41111266Y11456039D01*
X41016028Y11408420D01*
X40730314Y11408420D01*
X40635076Y11456039D01*
X40587457Y11503658D01*
D14*
%TO.C,C24*%
X2035714Y29754286D02*
X1997619Y29716191D01*
X1883333Y29678096D01*
X1807142Y29678096D01*
X1692857Y29716191D01*
X1616666Y29792381D01*
X1578571Y29868572D01*
X1540476Y30020953D01*
X1540476Y30135239D01*
X1578571Y30287620D01*
X1616666Y30363810D01*
X1692857Y30440000D01*
X1807142Y30478096D01*
X1883333Y30478096D01*
X1997619Y30440000D01*
X2035714Y30401905D01*
X2340476Y30401905D02*
X2378571Y30440000D01*
X2454761Y30478096D01*
X2645238Y30478096D01*
X2721428Y30440000D01*
X2759523Y30401905D01*
X2797619Y30325715D01*
X2797619Y30249524D01*
X2759523Y30135239D01*
X2302380Y29678096D01*
X2797619Y29678096D01*
X3483333Y30211429D02*
X3483333Y29678096D01*
X3292857Y30516191D02*
X3102380Y29944762D01*
X3597619Y29944762D01*
%TO.C,C20*%
X47845714Y42895715D02*
X47883809Y42857620D01*
X47921904Y42743334D01*
X47921904Y42667143D01*
X47883809Y42552858D01*
X47807619Y42476667D01*
X47731428Y42438572D01*
X47579047Y42400477D01*
X47464761Y42400477D01*
X47312380Y42438572D01*
X47236190Y42476667D01*
X47160000Y42552858D01*
X47121904Y42667143D01*
X47121904Y42743334D01*
X47160000Y42857620D01*
X47198095Y42895715D01*
X47198095Y43200477D02*
X47160000Y43238572D01*
X47121904Y43314762D01*
X47121904Y43505239D01*
X47160000Y43581429D01*
X47198095Y43619524D01*
X47274285Y43657620D01*
X47350476Y43657620D01*
X47464761Y43619524D01*
X47921904Y43162381D01*
X47921904Y43657620D01*
X47121904Y44152858D02*
X47121904Y44229048D01*
X47160000Y44305239D01*
X47198095Y44343334D01*
X47274285Y44381429D01*
X47426666Y44419524D01*
X47617142Y44419524D01*
X47769523Y44381429D01*
X47845714Y44343334D01*
X47883809Y44305239D01*
X47921904Y44229048D01*
X47921904Y44152858D01*
X47883809Y44076667D01*
X47845714Y44038572D01*
X47769523Y44000477D01*
X47617142Y43962381D01*
X47426666Y43962381D01*
X47274285Y44000477D01*
X47198095Y44038572D01*
X47160000Y44076667D01*
X47121904Y44152858D01*
D10*
%TO.C,D11*%
X11323714Y5922020D02*
X11323714Y6922020D01*
X11561809Y6922020D01*
X11704666Y6874400D01*
X11799904Y6779162D01*
X11847523Y6683924D01*
X11895142Y6493448D01*
X11895142Y6350591D01*
X11847523Y6160115D01*
X11799904Y6064877D01*
X11704666Y5969639D01*
X11561809Y5922020D01*
X11323714Y5922020D01*
X12847523Y5922020D02*
X12276095Y5922020D01*
X12561809Y5922020D02*
X12561809Y6922020D01*
X12466571Y6779162D01*
X12371333Y6683924D01*
X12276095Y6636305D01*
X13799904Y5922020D02*
X13228476Y5922020D01*
X13514190Y5922020D02*
X13514190Y6922020D01*
X13418952Y6779162D01*
X13323714Y6683924D01*
X13228476Y6636305D01*
%TO.C,Q2*%
X2464761Y2142381D02*
X2369523Y2190000D01*
X2274285Y2285239D01*
X2131428Y2428096D01*
X2036190Y2475715D01*
X1940952Y2475715D01*
X1988571Y2237620D02*
X1893333Y2285239D01*
X1798095Y2380477D01*
X1750476Y2570953D01*
X1750476Y2904286D01*
X1798095Y3094762D01*
X1893333Y3190000D01*
X1988571Y3237620D01*
X2179047Y3237620D01*
X2274285Y3190000D01*
X2369523Y3094762D01*
X2417142Y2904286D01*
X2417142Y2570953D01*
X2369523Y2380477D01*
X2274285Y2285239D01*
X2179047Y2237620D01*
X1988571Y2237620D01*
X2798095Y3142381D02*
X2845714Y3190000D01*
X2940952Y3237620D01*
X3179047Y3237620D01*
X3274285Y3190000D01*
X3321904Y3142381D01*
X3369523Y3047143D01*
X3369523Y2951905D01*
X3321904Y2809048D01*
X2750476Y2237620D01*
X3369523Y2237620D01*
D14*
%TO.C,D4*%
X32853323Y28497696D02*
X32853323Y29297696D01*
X33043800Y29297696D01*
X33158085Y29259600D01*
X33234276Y29183410D01*
X33272371Y29107220D01*
X33310466Y28954839D01*
X33310466Y28840553D01*
X33272371Y28688172D01*
X33234276Y28611981D01*
X33158085Y28535791D01*
X33043800Y28497696D01*
X32853323Y28497696D01*
X33996180Y29031029D02*
X33996180Y28497696D01*
X33805704Y29335791D02*
X33615228Y28764362D01*
X34110466Y28764362D01*
D10*
%TO.C,R6*%
X37352630Y19043068D02*
X36780210Y19144083D01*
X36948569Y18639007D02*
X36241462Y19346113D01*
X36510836Y19615488D01*
X36611851Y19649159D01*
X36679195Y19649159D01*
X36780210Y19615488D01*
X36881225Y19514472D01*
X36914897Y19413457D01*
X36914897Y19346113D01*
X36881225Y19245098D01*
X36611851Y18975724D01*
X37251615Y20356266D02*
X37116928Y20221579D01*
X37083256Y20120564D01*
X37083256Y20053220D01*
X37116928Y19884862D01*
X37217943Y19716503D01*
X37487317Y19447129D01*
X37588332Y19413457D01*
X37655676Y19413457D01*
X37756691Y19447129D01*
X37891378Y19581816D01*
X37925050Y19682831D01*
X37925050Y19750175D01*
X37891378Y19851190D01*
X37723019Y20019549D01*
X37622004Y20053220D01*
X37554661Y20053220D01*
X37453645Y20019549D01*
X37318958Y19884862D01*
X37285287Y19783846D01*
X37285287Y19716503D01*
X37318958Y19615488D01*
%TO.C,J3*%
X1926666Y56467620D02*
X1926666Y55753334D01*
X1879047Y55610477D01*
X1783809Y55515239D01*
X1640952Y55467620D01*
X1545714Y55467620D01*
X2307619Y56467620D02*
X2926666Y56467620D01*
X2593333Y56086667D01*
X2736190Y56086667D01*
X2831428Y56039048D01*
X2879047Y55991429D01*
X2926666Y55896191D01*
X2926666Y55658096D01*
X2879047Y55562858D01*
X2831428Y55515239D01*
X2736190Y55467620D01*
X2450476Y55467620D01*
X2355238Y55515239D01*
X2307619Y55562858D01*
D14*
%TO.C,R16*%
X34916314Y29375096D02*
X34649647Y29756048D01*
X34459171Y29375096D02*
X34459171Y30175096D01*
X34763933Y30175096D01*
X34840123Y30137000D01*
X34878219Y30098905D01*
X34916314Y30022715D01*
X34916314Y29908429D01*
X34878219Y29832239D01*
X34840123Y29794143D01*
X34763933Y29756048D01*
X34459171Y29756048D01*
X35678219Y29375096D02*
X35221076Y29375096D01*
X35449647Y29375096D02*
X35449647Y30175096D01*
X35373457Y30060810D01*
X35297266Y29984620D01*
X35221076Y29946524D01*
X36363933Y30175096D02*
X36211552Y30175096D01*
X36135361Y30137000D01*
X36097266Y30098905D01*
X36021076Y29984620D01*
X35982980Y29832239D01*
X35982980Y29527477D01*
X36021076Y29451286D01*
X36059171Y29413191D01*
X36135361Y29375096D01*
X36287742Y29375096D01*
X36363933Y29413191D01*
X36402028Y29451286D01*
X36440123Y29527477D01*
X36440123Y29717953D01*
X36402028Y29794143D01*
X36363933Y29832239D01*
X36287742Y29870334D01*
X36135361Y29870334D01*
X36059171Y29832239D01*
X36021076Y29794143D01*
X35982980Y29717953D01*
%TO.C,R22*%
X2995714Y28398096D02*
X2729047Y28779048D01*
X2538571Y28398096D02*
X2538571Y29198096D01*
X2843333Y29198096D01*
X2919523Y29160000D01*
X2957619Y29121905D01*
X2995714Y29045715D01*
X2995714Y28931429D01*
X2957619Y28855239D01*
X2919523Y28817143D01*
X2843333Y28779048D01*
X2538571Y28779048D01*
X3300476Y29121905D02*
X3338571Y29160000D01*
X3414761Y29198096D01*
X3605238Y29198096D01*
X3681428Y29160000D01*
X3719523Y29121905D01*
X3757619Y29045715D01*
X3757619Y28969524D01*
X3719523Y28855239D01*
X3262380Y28398096D01*
X3757619Y28398096D01*
X4062380Y29121905D02*
X4100476Y29160000D01*
X4176666Y29198096D01*
X4367142Y29198096D01*
X4443333Y29160000D01*
X4481428Y29121905D01*
X4519523Y29045715D01*
X4519523Y28969524D01*
X4481428Y28855239D01*
X4024285Y28398096D01*
X4519523Y28398096D01*
%TO.C,R2*%
X14506666Y178096D02*
X14240000Y559048D01*
X14049523Y178096D02*
X14049523Y978096D01*
X14354285Y978096D01*
X14430476Y940000D01*
X14468571Y901905D01*
X14506666Y825715D01*
X14506666Y711429D01*
X14468571Y635239D01*
X14430476Y597143D01*
X14354285Y559048D01*
X14049523Y559048D01*
X14811428Y901905D02*
X14849523Y940000D01*
X14925714Y978096D01*
X15116190Y978096D01*
X15192380Y940000D01*
X15230476Y901905D01*
X15268571Y825715D01*
X15268571Y749524D01*
X15230476Y635239D01*
X14773333Y178096D01*
X15268571Y178096D01*
%TO.C,C12*%
X38922314Y33469886D02*
X38884219Y33431791D01*
X38769933Y33393696D01*
X38693742Y33393696D01*
X38579457Y33431791D01*
X38503266Y33507981D01*
X38465171Y33584172D01*
X38427076Y33736553D01*
X38427076Y33850839D01*
X38465171Y34003220D01*
X38503266Y34079410D01*
X38579457Y34155600D01*
X38693742Y34193696D01*
X38769933Y34193696D01*
X38884219Y34155600D01*
X38922314Y34117505D01*
X39684219Y33393696D02*
X39227076Y33393696D01*
X39455647Y33393696D02*
X39455647Y34193696D01*
X39379457Y34079410D01*
X39303266Y34003220D01*
X39227076Y33965124D01*
X39988980Y34117505D02*
X40027076Y34155600D01*
X40103266Y34193696D01*
X40293742Y34193696D01*
X40369933Y34155600D01*
X40408028Y34117505D01*
X40446123Y34041315D01*
X40446123Y33965124D01*
X40408028Y33850839D01*
X39950885Y33393696D01*
X40446123Y33393696D01*
%TO.C,C11*%
X15909914Y8019086D02*
X15871819Y7980991D01*
X15757533Y7942896D01*
X15681342Y7942896D01*
X15567057Y7980991D01*
X15490866Y8057181D01*
X15452771Y8133372D01*
X15414676Y8285753D01*
X15414676Y8400039D01*
X15452771Y8552420D01*
X15490866Y8628610D01*
X15567057Y8704800D01*
X15681342Y8742896D01*
X15757533Y8742896D01*
X15871819Y8704800D01*
X15909914Y8666705D01*
X16671819Y7942896D02*
X16214676Y7942896D01*
X16443247Y7942896D02*
X16443247Y8742896D01*
X16367057Y8628610D01*
X16290866Y8552420D01*
X16214676Y8514324D01*
X17433723Y7942896D02*
X16976580Y7942896D01*
X17205152Y7942896D02*
X17205152Y8742896D01*
X17128961Y8628610D01*
X17052771Y8552420D01*
X16976580Y8514324D01*
%TO.C,R3*%
X21566666Y328096D02*
X21300000Y709048D01*
X21109523Y328096D02*
X21109523Y1128096D01*
X21414285Y1128096D01*
X21490476Y1090000D01*
X21528571Y1051905D01*
X21566666Y975715D01*
X21566666Y861429D01*
X21528571Y785239D01*
X21490476Y747143D01*
X21414285Y709048D01*
X21109523Y709048D01*
X21833333Y1128096D02*
X22328571Y1128096D01*
X22061904Y823334D01*
X22176190Y823334D01*
X22252380Y785239D01*
X22290476Y747143D01*
X22328571Y670953D01*
X22328571Y480477D01*
X22290476Y404286D01*
X22252380Y366191D01*
X22176190Y328096D01*
X21947619Y328096D01*
X21871428Y366191D01*
X21833333Y404286D01*
D10*
%TO.C,R14*%
X4577142Y37437620D02*
X4243809Y37913810D01*
X4005714Y37437620D02*
X4005714Y38437620D01*
X4386666Y38437620D01*
X4481904Y38390000D01*
X4529523Y38342381D01*
X4577142Y38247143D01*
X4577142Y38104286D01*
X4529523Y38009048D01*
X4481904Y37961429D01*
X4386666Y37913810D01*
X4005714Y37913810D01*
X5529523Y37437620D02*
X4958095Y37437620D01*
X5243809Y37437620D02*
X5243809Y38437620D01*
X5148571Y38294762D01*
X5053333Y38199524D01*
X4958095Y38151905D01*
X6386666Y38104286D02*
X6386666Y37437620D01*
X6148571Y38485239D02*
X5910476Y37770953D01*
X6529523Y37770953D01*
%TO.C,Q1*%
X11883961Y34122381D02*
X11788723Y34170000D01*
X11693485Y34265239D01*
X11550628Y34408096D01*
X11455390Y34455715D01*
X11360152Y34455715D01*
X11407771Y34217620D02*
X11312533Y34265239D01*
X11217295Y34360477D01*
X11169676Y34550953D01*
X11169676Y34884286D01*
X11217295Y35074762D01*
X11312533Y35170000D01*
X11407771Y35217620D01*
X11598247Y35217620D01*
X11693485Y35170000D01*
X11788723Y35074762D01*
X11836342Y34884286D01*
X11836342Y34550953D01*
X11788723Y34360477D01*
X11693485Y34265239D01*
X11598247Y34217620D01*
X11407771Y34217620D01*
X12788723Y34217620D02*
X12217295Y34217620D01*
X12503009Y34217620D02*
X12503009Y35217620D01*
X12407771Y35074762D01*
X12312533Y34979524D01*
X12217295Y34931905D01*
D14*
%TO.C,R13*%
X12551904Y15505715D02*
X12170952Y15239048D01*
X12551904Y15048572D02*
X11751904Y15048572D01*
X11751904Y15353334D01*
X11790000Y15429524D01*
X11828095Y15467620D01*
X11904285Y15505715D01*
X12018571Y15505715D01*
X12094761Y15467620D01*
X12132857Y15429524D01*
X12170952Y15353334D01*
X12170952Y15048572D01*
X12551904Y16267620D02*
X12551904Y15810477D01*
X12551904Y16039048D02*
X11751904Y16039048D01*
X11866190Y15962858D01*
X11942380Y15886667D01*
X11980476Y15810477D01*
X11751904Y16534286D02*
X11751904Y17029524D01*
X12056666Y16762858D01*
X12056666Y16877143D01*
X12094761Y16953334D01*
X12132857Y16991429D01*
X12209047Y17029524D01*
X12399523Y17029524D01*
X12475714Y16991429D01*
X12513809Y16953334D01*
X12551904Y16877143D01*
X12551904Y16648572D01*
X12513809Y16572381D01*
X12475714Y16534286D01*
D10*
%TO.C,C15*%
X9329742Y51534058D02*
X9282123Y51486439D01*
X9139266Y51438820D01*
X9044028Y51438820D01*
X8901171Y51486439D01*
X8805933Y51581677D01*
X8758314Y51676915D01*
X8710695Y51867391D01*
X8710695Y52010248D01*
X8758314Y52200724D01*
X8805933Y52295962D01*
X8901171Y52391200D01*
X9044028Y52438820D01*
X9139266Y52438820D01*
X9282123Y52391200D01*
X9329742Y52343581D01*
X10282123Y51438820D02*
X9710695Y51438820D01*
X9996409Y51438820D02*
X9996409Y52438820D01*
X9901171Y52295962D01*
X9805933Y52200724D01*
X9710695Y52153105D01*
X11186885Y52438820D02*
X10710695Y52438820D01*
X10663076Y51962629D01*
X10710695Y52010248D01*
X10805933Y52057867D01*
X11044028Y52057867D01*
X11139266Y52010248D01*
X11186885Y51962629D01*
X11234504Y51867391D01*
X11234504Y51629296D01*
X11186885Y51534058D01*
X11139266Y51486439D01*
X11044028Y51438820D01*
X10805933Y51438820D01*
X10710695Y51486439D01*
X10663076Y51534058D01*
D14*
%TO.C,C5*%
X20346666Y5584286D02*
X20308571Y5546191D01*
X20194285Y5508096D01*
X20118095Y5508096D01*
X20003809Y5546191D01*
X19927619Y5622381D01*
X19889523Y5698572D01*
X19851428Y5850953D01*
X19851428Y5965239D01*
X19889523Y6117620D01*
X19927619Y6193810D01*
X20003809Y6270000D01*
X20118095Y6308096D01*
X20194285Y6308096D01*
X20308571Y6270000D01*
X20346666Y6231905D01*
X21070476Y6308096D02*
X20689523Y6308096D01*
X20651428Y5927143D01*
X20689523Y5965239D01*
X20765714Y6003334D01*
X20956190Y6003334D01*
X21032380Y5965239D01*
X21070476Y5927143D01*
X21108571Y5850953D01*
X21108571Y5660477D01*
X21070476Y5584286D01*
X21032380Y5546191D01*
X20956190Y5508096D01*
X20765714Y5508096D01*
X20689523Y5546191D01*
X20651428Y5584286D01*
D10*
%TO.C,U3*%
X17442380Y42638096D02*
X18251904Y42638096D01*
X18347142Y42685715D01*
X18394761Y42733334D01*
X18442380Y42828572D01*
X18442380Y43019048D01*
X18394761Y43114286D01*
X18347142Y43161905D01*
X18251904Y43209524D01*
X17442380Y43209524D01*
X17442380Y43590477D02*
X17442380Y44209524D01*
X17823333Y43876191D01*
X17823333Y44019048D01*
X17870952Y44114286D01*
X17918571Y44161905D01*
X18013809Y44209524D01*
X18251904Y44209524D01*
X18347142Y44161905D01*
X18394761Y44114286D01*
X18442380Y44019048D01*
X18442380Y43733334D01*
X18394761Y43638096D01*
X18347142Y43590477D01*
%TO.C,R24*%
X12228380Y1057943D02*
X11752190Y724610D01*
X12228380Y486515D02*
X11228380Y486515D01*
X11228380Y867467D01*
X11276000Y962705D01*
X11323619Y1010324D01*
X11418857Y1057943D01*
X11561714Y1057943D01*
X11656952Y1010324D01*
X11704571Y962705D01*
X11752190Y867467D01*
X11752190Y486515D01*
X11323619Y1438896D02*
X11276000Y1486515D01*
X11228380Y1581753D01*
X11228380Y1819848D01*
X11276000Y1915086D01*
X11323619Y1962705D01*
X11418857Y2010324D01*
X11514095Y2010324D01*
X11656952Y1962705D01*
X12228380Y1391277D01*
X12228380Y2010324D01*
X11561714Y2867467D02*
X12228380Y2867467D01*
X11180761Y2629372D02*
X11895047Y2391277D01*
X11895047Y3010324D01*
%TO.C,C26*%
X6387142Y42072858D02*
X6339523Y42025239D01*
X6196666Y41977620D01*
X6101428Y41977620D01*
X5958571Y42025239D01*
X5863333Y42120477D01*
X5815714Y42215715D01*
X5768095Y42406191D01*
X5768095Y42549048D01*
X5815714Y42739524D01*
X5863333Y42834762D01*
X5958571Y42930000D01*
X6101428Y42977620D01*
X6196666Y42977620D01*
X6339523Y42930000D01*
X6387142Y42882381D01*
X6768095Y42882381D02*
X6815714Y42930000D01*
X6910952Y42977620D01*
X7149047Y42977620D01*
X7244285Y42930000D01*
X7291904Y42882381D01*
X7339523Y42787143D01*
X7339523Y42691905D01*
X7291904Y42549048D01*
X6720476Y41977620D01*
X7339523Y41977620D01*
X8196666Y42977620D02*
X8006190Y42977620D01*
X7910952Y42930000D01*
X7863333Y42882381D01*
X7768095Y42739524D01*
X7720476Y42549048D01*
X7720476Y42168096D01*
X7768095Y42072858D01*
X7815714Y42025239D01*
X7910952Y41977620D01*
X8101428Y41977620D01*
X8196666Y42025239D01*
X8244285Y42072858D01*
X8291904Y42168096D01*
X8291904Y42406191D01*
X8244285Y42501429D01*
X8196666Y42549048D01*
X8101428Y42596667D01*
X7910952Y42596667D01*
X7815714Y42549048D01*
X7768095Y42501429D01*
X7720476Y42406191D01*
D14*
%TO.C,R12*%
X17459314Y15943896D02*
X17192647Y16324848D01*
X17002171Y15943896D02*
X17002171Y16743896D01*
X17306933Y16743896D01*
X17383123Y16705800D01*
X17421219Y16667705D01*
X17459314Y16591515D01*
X17459314Y16477229D01*
X17421219Y16401039D01*
X17383123Y16362943D01*
X17306933Y16324848D01*
X17002171Y16324848D01*
X18221219Y15943896D02*
X17764076Y15943896D01*
X17992647Y15943896D02*
X17992647Y16743896D01*
X17916457Y16629610D01*
X17840266Y16553420D01*
X17764076Y16515324D01*
X18525980Y16667705D02*
X18564076Y16705800D01*
X18640266Y16743896D01*
X18830742Y16743896D01*
X18906933Y16705800D01*
X18945028Y16667705D01*
X18983123Y16591515D01*
X18983123Y16515324D01*
X18945028Y16401039D01*
X18487885Y15943896D01*
X18983123Y15943896D01*
%TO.C,D6*%
X3261904Y22879524D02*
X2461904Y22879524D01*
X2461904Y23070000D01*
X2500000Y23184286D01*
X2576190Y23260477D01*
X2652380Y23298572D01*
X2804761Y23336667D01*
X2919047Y23336667D01*
X3071428Y23298572D01*
X3147619Y23260477D01*
X3223809Y23184286D01*
X3261904Y23070000D01*
X3261904Y22879524D01*
X2461904Y24022381D02*
X2461904Y23870000D01*
X2500000Y23793810D01*
X2538095Y23755715D01*
X2652380Y23679524D01*
X2804761Y23641429D01*
X3109523Y23641429D01*
X3185714Y23679524D01*
X3223809Y23717620D01*
X3261904Y23793810D01*
X3261904Y23946191D01*
X3223809Y24022381D01*
X3185714Y24060477D01*
X3109523Y24098572D01*
X2919047Y24098572D01*
X2842857Y24060477D01*
X2804761Y24022381D01*
X2766666Y23946191D01*
X2766666Y23793810D01*
X2804761Y23717620D01*
X2842857Y23679524D01*
X2919047Y23641429D01*
%TO.C,D3*%
X12619523Y21108096D02*
X12619523Y21908096D01*
X12810000Y21908096D01*
X12924285Y21870000D01*
X13000476Y21793810D01*
X13038571Y21717620D01*
X13076666Y21565239D01*
X13076666Y21450953D01*
X13038571Y21298572D01*
X13000476Y21222381D01*
X12924285Y21146191D01*
X12810000Y21108096D01*
X12619523Y21108096D01*
X13343333Y21908096D02*
X13838571Y21908096D01*
X13571904Y21603334D01*
X13686190Y21603334D01*
X13762380Y21565239D01*
X13800476Y21527143D01*
X13838571Y21450953D01*
X13838571Y21260477D01*
X13800476Y21184286D01*
X13762380Y21146191D01*
X13686190Y21108096D01*
X13457619Y21108096D01*
X13381428Y21146191D01*
X13343333Y21184286D01*
D10*
%TO.C,D1*%
X24711904Y17477620D02*
X24711904Y18477620D01*
X24950000Y18477620D01*
X25092857Y18430000D01*
X25188095Y18334762D01*
X25235714Y18239524D01*
X25283333Y18049048D01*
X25283333Y17906191D01*
X25235714Y17715715D01*
X25188095Y17620477D01*
X25092857Y17525239D01*
X24950000Y17477620D01*
X24711904Y17477620D01*
X26235714Y17477620D02*
X25664285Y17477620D01*
X25950000Y17477620D02*
X25950000Y18477620D01*
X25854761Y18334762D01*
X25759523Y18239524D01*
X25664285Y18191905D01*
D14*
%TO.C,C22*%
X40955714Y46914286D02*
X40917619Y46876191D01*
X40803333Y46838096D01*
X40727142Y46838096D01*
X40612857Y46876191D01*
X40536666Y46952381D01*
X40498571Y47028572D01*
X40460476Y47180953D01*
X40460476Y47295239D01*
X40498571Y47447620D01*
X40536666Y47523810D01*
X40612857Y47600000D01*
X40727142Y47638096D01*
X40803333Y47638096D01*
X40917619Y47600000D01*
X40955714Y47561905D01*
X41260476Y47561905D02*
X41298571Y47600000D01*
X41374761Y47638096D01*
X41565238Y47638096D01*
X41641428Y47600000D01*
X41679523Y47561905D01*
X41717619Y47485715D01*
X41717619Y47409524D01*
X41679523Y47295239D01*
X41222380Y46838096D01*
X41717619Y46838096D01*
X42022380Y47561905D02*
X42060476Y47600000D01*
X42136666Y47638096D01*
X42327142Y47638096D01*
X42403333Y47600000D01*
X42441428Y47561905D01*
X42479523Y47485715D01*
X42479523Y47409524D01*
X42441428Y47295239D01*
X41984285Y46838096D01*
X42479523Y46838096D01*
%TO.C,R20*%
X39095714Y45758096D02*
X38829047Y46139048D01*
X38638571Y45758096D02*
X38638571Y46558096D01*
X38943333Y46558096D01*
X39019523Y46520000D01*
X39057619Y46481905D01*
X39095714Y46405715D01*
X39095714Y46291429D01*
X39057619Y46215239D01*
X39019523Y46177143D01*
X38943333Y46139048D01*
X38638571Y46139048D01*
X39400476Y46481905D02*
X39438571Y46520000D01*
X39514761Y46558096D01*
X39705238Y46558096D01*
X39781428Y46520000D01*
X39819523Y46481905D01*
X39857619Y46405715D01*
X39857619Y46329524D01*
X39819523Y46215239D01*
X39362380Y45758096D01*
X39857619Y45758096D01*
X40352857Y46558096D02*
X40429047Y46558096D01*
X40505238Y46520000D01*
X40543333Y46481905D01*
X40581428Y46405715D01*
X40619523Y46253334D01*
X40619523Y46062858D01*
X40581428Y45910477D01*
X40543333Y45834286D01*
X40505238Y45796191D01*
X40429047Y45758096D01*
X40352857Y45758096D01*
X40276666Y45796191D01*
X40238571Y45834286D01*
X40200476Y45910477D01*
X40162380Y46062858D01*
X40162380Y46253334D01*
X40200476Y46405715D01*
X40238571Y46481905D01*
X40276666Y46520000D01*
X40352857Y46558096D01*
D10*
%TO.C,Q3*%
X26603961Y25238181D02*
X26508723Y25285800D01*
X26413485Y25381039D01*
X26270628Y25523896D01*
X26175390Y25571515D01*
X26080152Y25571515D01*
X26127771Y25333420D02*
X26032533Y25381039D01*
X25937295Y25476277D01*
X25889676Y25666753D01*
X25889676Y26000086D01*
X25937295Y26190562D01*
X26032533Y26285800D01*
X26127771Y26333420D01*
X26318247Y26333420D01*
X26413485Y26285800D01*
X26508723Y26190562D01*
X26556342Y26000086D01*
X26556342Y25666753D01*
X26508723Y25476277D01*
X26413485Y25381039D01*
X26318247Y25333420D01*
X26127771Y25333420D01*
X26889676Y26333420D02*
X27508723Y26333420D01*
X27175390Y25952467D01*
X27318247Y25952467D01*
X27413485Y25904848D01*
X27461104Y25857229D01*
X27508723Y25761991D01*
X27508723Y25523896D01*
X27461104Y25428658D01*
X27413485Y25381039D01*
X27318247Y25333420D01*
X27032533Y25333420D01*
X26937295Y25381039D01*
X26889676Y25428658D01*
D14*
%TO.C,C30*%
X18145714Y8074286D02*
X18107619Y8036191D01*
X17993333Y7998096D01*
X17917142Y7998096D01*
X17802857Y8036191D01*
X17726666Y8112381D01*
X17688571Y8188572D01*
X17650476Y8340953D01*
X17650476Y8455239D01*
X17688571Y8607620D01*
X17726666Y8683810D01*
X17802857Y8760000D01*
X17917142Y8798096D01*
X17993333Y8798096D01*
X18107619Y8760000D01*
X18145714Y8721905D01*
X18412380Y8798096D02*
X18907619Y8798096D01*
X18640952Y8493334D01*
X18755238Y8493334D01*
X18831428Y8455239D01*
X18869523Y8417143D01*
X18907619Y8340953D01*
X18907619Y8150477D01*
X18869523Y8074286D01*
X18831428Y8036191D01*
X18755238Y7998096D01*
X18526666Y7998096D01*
X18450476Y8036191D01*
X18412380Y8074286D01*
X19402857Y8798096D02*
X19479047Y8798096D01*
X19555238Y8760000D01*
X19593333Y8721905D01*
X19631428Y8645715D01*
X19669523Y8493334D01*
X19669523Y8302858D01*
X19631428Y8150477D01*
X19593333Y8074286D01*
X19555238Y8036191D01*
X19479047Y7998096D01*
X19402857Y7998096D01*
X19326666Y8036191D01*
X19288571Y8074286D01*
X19250476Y8150477D01*
X19212380Y8302858D01*
X19212380Y8493334D01*
X19250476Y8645715D01*
X19288571Y8721905D01*
X19326666Y8760000D01*
X19402857Y8798096D01*
%TO.C,R26*%
X13344514Y42156696D02*
X13077847Y42537648D01*
X12887371Y42156696D02*
X12887371Y42956696D01*
X13192133Y42956696D01*
X13268323Y42918600D01*
X13306419Y42880505D01*
X13344514Y42804315D01*
X13344514Y42690029D01*
X13306419Y42613839D01*
X13268323Y42575743D01*
X13192133Y42537648D01*
X12887371Y42537648D01*
X13649276Y42880505D02*
X13687371Y42918600D01*
X13763561Y42956696D01*
X13954038Y42956696D01*
X14030228Y42918600D01*
X14068323Y42880505D01*
X14106419Y42804315D01*
X14106419Y42728124D01*
X14068323Y42613839D01*
X13611180Y42156696D01*
X14106419Y42156696D01*
X14792133Y42956696D02*
X14639752Y42956696D01*
X14563561Y42918600D01*
X14525466Y42880505D01*
X14449276Y42766220D01*
X14411180Y42613839D01*
X14411180Y42309077D01*
X14449276Y42232886D01*
X14487371Y42194791D01*
X14563561Y42156696D01*
X14715942Y42156696D01*
X14792133Y42194791D01*
X14830228Y42232886D01*
X14868323Y42309077D01*
X14868323Y42499553D01*
X14830228Y42575743D01*
X14792133Y42613839D01*
X14715942Y42651934D01*
X14563561Y42651934D01*
X14487371Y42613839D01*
X14449276Y42575743D01*
X14411180Y42499553D01*
%TO.C,D5*%
X10899523Y20408096D02*
X10899523Y21208096D01*
X11090000Y21208096D01*
X11204285Y21170000D01*
X11280476Y21093810D01*
X11318571Y21017620D01*
X11356666Y20865239D01*
X11356666Y20750953D01*
X11318571Y20598572D01*
X11280476Y20522381D01*
X11204285Y20446191D01*
X11090000Y20408096D01*
X10899523Y20408096D01*
X12080476Y21208096D02*
X11699523Y21208096D01*
X11661428Y20827143D01*
X11699523Y20865239D01*
X11775714Y20903334D01*
X11966190Y20903334D01*
X12042380Y20865239D01*
X12080476Y20827143D01*
X12118571Y20750953D01*
X12118571Y20560477D01*
X12080476Y20484286D01*
X12042380Y20446191D01*
X11966190Y20408096D01*
X11775714Y20408096D01*
X11699523Y20446191D01*
X11661428Y20484286D01*
%TO.C,C9*%
X14456666Y7944286D02*
X14418571Y7906191D01*
X14304285Y7868096D01*
X14228095Y7868096D01*
X14113809Y7906191D01*
X14037619Y7982381D01*
X13999523Y8058572D01*
X13961428Y8210953D01*
X13961428Y8325239D01*
X13999523Y8477620D01*
X14037619Y8553810D01*
X14113809Y8630000D01*
X14228095Y8668096D01*
X14304285Y8668096D01*
X14418571Y8630000D01*
X14456666Y8591905D01*
X14837619Y7868096D02*
X14990000Y7868096D01*
X15066190Y7906191D01*
X15104285Y7944286D01*
X15180476Y8058572D01*
X15218571Y8210953D01*
X15218571Y8515715D01*
X15180476Y8591905D01*
X15142380Y8630000D01*
X15066190Y8668096D01*
X14913809Y8668096D01*
X14837619Y8630000D01*
X14799523Y8591905D01*
X14761428Y8515715D01*
X14761428Y8325239D01*
X14799523Y8249048D01*
X14837619Y8210953D01*
X14913809Y8172858D01*
X15066190Y8172858D01*
X15142380Y8210953D01*
X15180476Y8249048D01*
X15218571Y8325239D01*
%TO.C,R19*%
X37372914Y29101096D02*
X37106247Y29482048D01*
X36915771Y29101096D02*
X36915771Y29901096D01*
X37220533Y29901096D01*
X37296723Y29863000D01*
X37334819Y29824905D01*
X37372914Y29748715D01*
X37372914Y29634429D01*
X37334819Y29558239D01*
X37296723Y29520143D01*
X37220533Y29482048D01*
X36915771Y29482048D01*
X38134819Y29101096D02*
X37677676Y29101096D01*
X37906247Y29101096D02*
X37906247Y29901096D01*
X37830057Y29786810D01*
X37753866Y29710620D01*
X37677676Y29672524D01*
X38515771Y29101096D02*
X38668152Y29101096D01*
X38744342Y29139191D01*
X38782438Y29177286D01*
X38858628Y29291572D01*
X38896723Y29443953D01*
X38896723Y29748715D01*
X38858628Y29824905D01*
X38820533Y29863000D01*
X38744342Y29901096D01*
X38591961Y29901096D01*
X38515771Y29863000D01*
X38477676Y29824905D01*
X38439580Y29748715D01*
X38439580Y29558239D01*
X38477676Y29482048D01*
X38515771Y29443953D01*
X38591961Y29405858D01*
X38744342Y29405858D01*
X38820533Y29443953D01*
X38858628Y29482048D01*
X38896723Y29558239D01*
D10*
%TO.C,U5*%
X39872380Y39858096D02*
X40681904Y39858096D01*
X40777142Y39905715D01*
X40824761Y39953334D01*
X40872380Y40048572D01*
X40872380Y40239048D01*
X40824761Y40334286D01*
X40777142Y40381905D01*
X40681904Y40429524D01*
X39872380Y40429524D01*
X39872380Y41381905D02*
X39872380Y40905715D01*
X40348571Y40858096D01*
X40300952Y40905715D01*
X40253333Y41000953D01*
X40253333Y41239048D01*
X40300952Y41334286D01*
X40348571Y41381905D01*
X40443809Y41429524D01*
X40681904Y41429524D01*
X40777142Y41381905D01*
X40824761Y41334286D01*
X40872380Y41239048D01*
X40872380Y41000953D01*
X40824761Y40905715D01*
X40777142Y40858096D01*
D14*
%TO.C,C6*%
X17686666Y6934286D02*
X17648571Y6896191D01*
X17534285Y6858096D01*
X17458095Y6858096D01*
X17343809Y6896191D01*
X17267619Y6972381D01*
X17229523Y7048572D01*
X17191428Y7200953D01*
X17191428Y7315239D01*
X17229523Y7467620D01*
X17267619Y7543810D01*
X17343809Y7620000D01*
X17458095Y7658096D01*
X17534285Y7658096D01*
X17648571Y7620000D01*
X17686666Y7581905D01*
X18372380Y7658096D02*
X18220000Y7658096D01*
X18143809Y7620000D01*
X18105714Y7581905D01*
X18029523Y7467620D01*
X17991428Y7315239D01*
X17991428Y7010477D01*
X18029523Y6934286D01*
X18067619Y6896191D01*
X18143809Y6858096D01*
X18296190Y6858096D01*
X18372380Y6896191D01*
X18410476Y6934286D01*
X18448571Y7010477D01*
X18448571Y7200953D01*
X18410476Y7277143D01*
X18372380Y7315239D01*
X18296190Y7353334D01*
X18143809Y7353334D01*
X18067619Y7315239D01*
X18029523Y7277143D01*
X17991428Y7200953D01*
%TO.C,C7*%
X20146666Y244286D02*
X20108571Y206191D01*
X19994285Y168096D01*
X19918095Y168096D01*
X19803809Y206191D01*
X19727619Y282381D01*
X19689523Y358572D01*
X19651428Y510953D01*
X19651428Y625239D01*
X19689523Y777620D01*
X19727619Y853810D01*
X19803809Y930000D01*
X19918095Y968096D01*
X19994285Y968096D01*
X20108571Y930000D01*
X20146666Y891905D01*
X20413333Y968096D02*
X20946666Y968096D01*
X20603809Y168096D01*
D10*
%TO.C,R7*%
X44578533Y19434820D02*
X44245200Y19911010D01*
X44007104Y19434820D02*
X44007104Y20434820D01*
X44388057Y20434820D01*
X44483295Y20387200D01*
X44530914Y20339581D01*
X44578533Y20244343D01*
X44578533Y20101486D01*
X44530914Y20006248D01*
X44483295Y19958629D01*
X44388057Y19911010D01*
X44007104Y19911010D01*
X44911866Y20434820D02*
X45578533Y20434820D01*
X45149961Y19434820D01*
%TO.C,C25*%
X4717142Y46002858D02*
X4669523Y45955239D01*
X4526666Y45907620D01*
X4431428Y45907620D01*
X4288571Y45955239D01*
X4193333Y46050477D01*
X4145714Y46145715D01*
X4098095Y46336191D01*
X4098095Y46479048D01*
X4145714Y46669524D01*
X4193333Y46764762D01*
X4288571Y46860000D01*
X4431428Y46907620D01*
X4526666Y46907620D01*
X4669523Y46860000D01*
X4717142Y46812381D01*
X5098095Y46812381D02*
X5145714Y46860000D01*
X5240952Y46907620D01*
X5479047Y46907620D01*
X5574285Y46860000D01*
X5621904Y46812381D01*
X5669523Y46717143D01*
X5669523Y46621905D01*
X5621904Y46479048D01*
X5050476Y45907620D01*
X5669523Y45907620D01*
X6574285Y46907620D02*
X6098095Y46907620D01*
X6050476Y46431429D01*
X6098095Y46479048D01*
X6193333Y46526667D01*
X6431428Y46526667D01*
X6526666Y46479048D01*
X6574285Y46431429D01*
X6621904Y46336191D01*
X6621904Y46098096D01*
X6574285Y46002858D01*
X6526666Y45955239D01*
X6431428Y45907620D01*
X6193333Y45907620D01*
X6098095Y45955239D01*
X6050476Y46002858D01*
%TO.C,U4*%
X13453580Y28015296D02*
X14263104Y28015296D01*
X14358342Y28062915D01*
X14405961Y28110534D01*
X14453580Y28205772D01*
X14453580Y28396248D01*
X14405961Y28491486D01*
X14358342Y28539105D01*
X14263104Y28586724D01*
X13453580Y28586724D01*
X13786914Y29491486D02*
X14453580Y29491486D01*
X13405961Y29253391D02*
X14120247Y29015296D01*
X14120247Y29634343D01*
%TO.C,R29*%
X3892380Y6177143D02*
X3416190Y5843810D01*
X3892380Y5605715D02*
X2892380Y5605715D01*
X2892380Y5986667D01*
X2940000Y6081905D01*
X2987619Y6129524D01*
X3082857Y6177143D01*
X3225714Y6177143D01*
X3320952Y6129524D01*
X3368571Y6081905D01*
X3416190Y5986667D01*
X3416190Y5605715D01*
X2987619Y6558096D02*
X2940000Y6605715D01*
X2892380Y6700953D01*
X2892380Y6939048D01*
X2940000Y7034286D01*
X2987619Y7081905D01*
X3082857Y7129524D01*
X3178095Y7129524D01*
X3320952Y7081905D01*
X3892380Y6510477D01*
X3892380Y7129524D01*
X3892380Y7605715D02*
X3892380Y7796191D01*
X3844761Y7891429D01*
X3797142Y7939048D01*
X3654285Y8034286D01*
X3463809Y8081905D01*
X3082857Y8081905D01*
X2987619Y8034286D01*
X2940000Y7986667D01*
X2892380Y7891429D01*
X2892380Y7700953D01*
X2940000Y7605715D01*
X2987619Y7558096D01*
X3082857Y7510477D01*
X3320952Y7510477D01*
X3416190Y7558096D01*
X3463809Y7605715D01*
X3511428Y7700953D01*
X3511428Y7891429D01*
X3463809Y7986667D01*
X3416190Y8034286D01*
X3320952Y8081905D01*
%TO.C,D10*%
X14651114Y33252420D02*
X14651114Y34252420D01*
X14889209Y34252420D01*
X15032066Y34204800D01*
X15127304Y34109562D01*
X15174923Y34014324D01*
X15222542Y33823848D01*
X15222542Y33680991D01*
X15174923Y33490515D01*
X15127304Y33395277D01*
X15032066Y33300039D01*
X14889209Y33252420D01*
X14651114Y33252420D01*
X16174923Y33252420D02*
X15603495Y33252420D01*
X15889209Y33252420D02*
X15889209Y34252420D01*
X15793971Y34109562D01*
X15698733Y34014324D01*
X15603495Y33966705D01*
X16793971Y34252420D02*
X16889209Y34252420D01*
X16984447Y34204800D01*
X17032066Y34157181D01*
X17079685Y34061943D01*
X17127304Y33871467D01*
X17127304Y33633372D01*
X17079685Y33442896D01*
X17032066Y33347658D01*
X16984447Y33300039D01*
X16889209Y33252420D01*
X16793971Y33252420D01*
X16698733Y33300039D01*
X16651114Y33347658D01*
X16603495Y33442896D01*
X16555876Y33633372D01*
X16555876Y33871467D01*
X16603495Y34061943D01*
X16651114Y34157181D01*
X16698733Y34204800D01*
X16793971Y34252420D01*
%TO.C,C3*%
X14093333Y4552858D02*
X14045714Y4505239D01*
X13902857Y4457620D01*
X13807619Y4457620D01*
X13664761Y4505239D01*
X13569523Y4600477D01*
X13521904Y4695715D01*
X13474285Y4886191D01*
X13474285Y5029048D01*
X13521904Y5219524D01*
X13569523Y5314762D01*
X13664761Y5410000D01*
X13807619Y5457620D01*
X13902857Y5457620D01*
X14045714Y5410000D01*
X14093333Y5362381D01*
X14426666Y5457620D02*
X15045714Y5457620D01*
X14712380Y5076667D01*
X14855238Y5076667D01*
X14950476Y5029048D01*
X14998095Y4981429D01*
X15045714Y4886191D01*
X15045714Y4648096D01*
X14998095Y4552858D01*
X14950476Y4505239D01*
X14855238Y4457620D01*
X14569523Y4457620D01*
X14474285Y4505239D01*
X14426666Y4552858D01*
%TO.C,R11*%
X10906742Y45324820D02*
X10573409Y45801010D01*
X10335314Y45324820D02*
X10335314Y46324820D01*
X10716266Y46324820D01*
X10811504Y46277200D01*
X10859123Y46229581D01*
X10906742Y46134343D01*
X10906742Y45991486D01*
X10859123Y45896248D01*
X10811504Y45848629D01*
X10716266Y45801010D01*
X10335314Y45801010D01*
X11859123Y45324820D02*
X11287695Y45324820D01*
X11573409Y45324820D02*
X11573409Y46324820D01*
X11478171Y46181962D01*
X11382933Y46086724D01*
X11287695Y46039105D01*
X12811504Y45324820D02*
X12240076Y45324820D01*
X12525790Y45324820D02*
X12525790Y46324820D01*
X12430552Y46181962D01*
X12335314Y46086724D01*
X12240076Y46039105D01*
%TO.C,R10*%
X22586342Y25539420D02*
X22253009Y26015610D01*
X22014914Y25539420D02*
X22014914Y26539420D01*
X22395866Y26539420D01*
X22491104Y26491800D01*
X22538723Y26444181D01*
X22586342Y26348943D01*
X22586342Y26206086D01*
X22538723Y26110848D01*
X22491104Y26063229D01*
X22395866Y26015610D01*
X22014914Y26015610D01*
X23538723Y25539420D02*
X22967295Y25539420D01*
X23253009Y25539420D02*
X23253009Y26539420D01*
X23157771Y26396562D01*
X23062533Y26301324D01*
X22967295Y26253705D01*
X24157771Y26539420D02*
X24253009Y26539420D01*
X24348247Y26491800D01*
X24395866Y26444181D01*
X24443485Y26348943D01*
X24491104Y26158467D01*
X24491104Y25920372D01*
X24443485Y25729896D01*
X24395866Y25634658D01*
X24348247Y25587039D01*
X24253009Y25539420D01*
X24157771Y25539420D01*
X24062533Y25587039D01*
X24014914Y25634658D01*
X23967295Y25729896D01*
X23919676Y25920372D01*
X23919676Y26158467D01*
X23967295Y26348943D01*
X24014914Y26444181D01*
X24062533Y26491800D01*
X24157771Y26539420D01*
%TO.C,R9*%
X23042533Y20483420D02*
X22709200Y20959610D01*
X22471104Y20483420D02*
X22471104Y21483420D01*
X22852057Y21483420D01*
X22947295Y21435800D01*
X22994914Y21388181D01*
X23042533Y21292943D01*
X23042533Y21150086D01*
X22994914Y21054848D01*
X22947295Y21007229D01*
X22852057Y20959610D01*
X22471104Y20959610D01*
X23518723Y20483420D02*
X23709200Y20483420D01*
X23804438Y20531039D01*
X23852057Y20578658D01*
X23947295Y20721515D01*
X23994914Y20911991D01*
X23994914Y21292943D01*
X23947295Y21388181D01*
X23899676Y21435800D01*
X23804438Y21483420D01*
X23613961Y21483420D01*
X23518723Y21435800D01*
X23471104Y21388181D01*
X23423485Y21292943D01*
X23423485Y21054848D01*
X23471104Y20959610D01*
X23518723Y20911991D01*
X23613961Y20864372D01*
X23804438Y20864372D01*
X23899676Y20911991D01*
X23947295Y20959610D01*
X23994914Y21054848D01*
D14*
%TO.C,R23*%
X10025714Y14088096D02*
X9759047Y14469048D01*
X9568571Y14088096D02*
X9568571Y14888096D01*
X9873333Y14888096D01*
X9949523Y14850000D01*
X9987619Y14811905D01*
X10025714Y14735715D01*
X10025714Y14621429D01*
X9987619Y14545239D01*
X9949523Y14507143D01*
X9873333Y14469048D01*
X9568571Y14469048D01*
X10330476Y14811905D02*
X10368571Y14850000D01*
X10444761Y14888096D01*
X10635238Y14888096D01*
X10711428Y14850000D01*
X10749523Y14811905D01*
X10787619Y14735715D01*
X10787619Y14659524D01*
X10749523Y14545239D01*
X10292380Y14088096D01*
X10787619Y14088096D01*
X11054285Y14888096D02*
X11549523Y14888096D01*
X11282857Y14583334D01*
X11397142Y14583334D01*
X11473333Y14545239D01*
X11511428Y14507143D01*
X11549523Y14430953D01*
X11549523Y14240477D01*
X11511428Y14164286D01*
X11473333Y14126191D01*
X11397142Y14088096D01*
X11168571Y14088096D01*
X11092380Y14126191D01*
X11054285Y14164286D01*
D10*
%TO.C,SW1*%
X44027866Y51385239D02*
X44170723Y51337620D01*
X44408819Y51337620D01*
X44504057Y51385239D01*
X44551676Y51432858D01*
X44599295Y51528096D01*
X44599295Y51623334D01*
X44551676Y51718572D01*
X44504057Y51766191D01*
X44408819Y51813810D01*
X44218342Y51861429D01*
X44123104Y51909048D01*
X44075485Y51956667D01*
X44027866Y52051905D01*
X44027866Y52147143D01*
X44075485Y52242381D01*
X44123104Y52290000D01*
X44218342Y52337620D01*
X44456438Y52337620D01*
X44599295Y52290000D01*
X44932628Y52337620D02*
X45170723Y51337620D01*
X45361200Y52051905D01*
X45551676Y51337620D01*
X45789771Y52337620D01*
X46694533Y51337620D02*
X46123104Y51337620D01*
X46408819Y51337620D02*
X46408819Y52337620D01*
X46313580Y52194762D01*
X46218342Y52099524D01*
X46123104Y52051905D01*
%TO.C,L1*%
X41043333Y392620D02*
X40567142Y392620D01*
X40567142Y1392620D01*
X41900476Y392620D02*
X41329047Y392620D01*
X41614761Y392620D02*
X41614761Y1392620D01*
X41519523Y1249762D01*
X41424285Y1154524D01*
X41329047Y1106905D01*
%TO.C,C23*%
X2577142Y39487143D02*
X2624761Y39439524D01*
X2672380Y39296667D01*
X2672380Y39201429D01*
X2624761Y39058572D01*
X2529523Y38963334D01*
X2434285Y38915715D01*
X2243809Y38868096D01*
X2100952Y38868096D01*
X1910476Y38915715D01*
X1815238Y38963334D01*
X1720000Y39058572D01*
X1672380Y39201429D01*
X1672380Y39296667D01*
X1720000Y39439524D01*
X1767619Y39487143D01*
X1767619Y39868096D02*
X1720000Y39915715D01*
X1672380Y40010953D01*
X1672380Y40249048D01*
X1720000Y40344286D01*
X1767619Y40391905D01*
X1862857Y40439524D01*
X1958095Y40439524D01*
X2100952Y40391905D01*
X2672380Y39820477D01*
X2672380Y40439524D01*
X1672380Y40772858D02*
X1672380Y41391905D01*
X2053333Y41058572D01*
X2053333Y41201429D01*
X2100952Y41296667D01*
X2148571Y41344286D01*
X2243809Y41391905D01*
X2481904Y41391905D01*
X2577142Y41344286D01*
X2624761Y41296667D01*
X2672380Y41201429D01*
X2672380Y40915715D01*
X2624761Y40820477D01*
X2577142Y40772858D01*
%TO.C,R8*%
X48266164Y22683734D02*
X47693744Y22784749D01*
X47862103Y22279673D02*
X47154996Y22986779D01*
X47424370Y23256154D01*
X47525385Y23289825D01*
X47592729Y23289825D01*
X47693744Y23256154D01*
X47794759Y23155138D01*
X47828431Y23054123D01*
X47828431Y22986779D01*
X47794759Y22885764D01*
X47525385Y22616390D01*
X48266164Y23491856D02*
X48165149Y23458184D01*
X48097805Y23458184D01*
X47996790Y23491856D01*
X47963118Y23525528D01*
X47929446Y23626543D01*
X47929446Y23693886D01*
X47963118Y23794902D01*
X48097805Y23929589D01*
X48198821Y23963260D01*
X48266164Y23963260D01*
X48367179Y23929589D01*
X48400851Y23895917D01*
X48434523Y23794902D01*
X48434523Y23727558D01*
X48400851Y23626543D01*
X48266164Y23491856D01*
X48232492Y23390841D01*
X48232492Y23323497D01*
X48266164Y23222482D01*
X48400851Y23087795D01*
X48501866Y23054123D01*
X48569210Y23054123D01*
X48670225Y23087795D01*
X48804912Y23222482D01*
X48838584Y23323497D01*
X48838584Y23390841D01*
X48804912Y23491856D01*
X48670225Y23626543D01*
X48569210Y23660215D01*
X48501866Y23660215D01*
X48400851Y23626543D01*
%TO.C,C16*%
X45321542Y49400458D02*
X45273923Y49352839D01*
X45131066Y49305220D01*
X45035828Y49305220D01*
X44892971Y49352839D01*
X44797733Y49448077D01*
X44750114Y49543315D01*
X44702495Y49733791D01*
X44702495Y49876648D01*
X44750114Y50067124D01*
X44797733Y50162362D01*
X44892971Y50257600D01*
X45035828Y50305220D01*
X45131066Y50305220D01*
X45273923Y50257600D01*
X45321542Y50209981D01*
X46273923Y49305220D02*
X45702495Y49305220D01*
X45988209Y49305220D02*
X45988209Y50305220D01*
X45892971Y50162362D01*
X45797733Y50067124D01*
X45702495Y50019505D01*
X47131066Y50305220D02*
X46940590Y50305220D01*
X46845352Y50257600D01*
X46797733Y50209981D01*
X46702495Y50067124D01*
X46654876Y49876648D01*
X46654876Y49495696D01*
X46702495Y49400458D01*
X46750114Y49352839D01*
X46845352Y49305220D01*
X47035828Y49305220D01*
X47131066Y49352839D01*
X47178685Y49400458D01*
X47226304Y49495696D01*
X47226304Y49733791D01*
X47178685Y49829029D01*
X47131066Y49876648D01*
X47035828Y49924267D01*
X46845352Y49924267D01*
X46750114Y49876648D01*
X46702495Y49829029D01*
X46654876Y49733791D01*
D13*
%TO.C,C21*%
X29212220Y22755400D02*
X29493380Y22755400D01*
X29212220Y23775400D02*
X29493380Y23775400D01*
%TO.C,C10*%
X42745343Y30372610D02*
X43114810Y30003143D01*
X43784790Y31412057D02*
X44154257Y31042590D01*
%TO.C,D13*%
X5385000Y8517400D02*
X5385000Y6517400D01*
X5385000Y6517400D02*
X9235000Y6517400D01*
X5385000Y8517400D02*
X9235000Y8517400D01*
%TO.C,R4*%
X39200000Y42666359D02*
X39200000Y42973641D01*
X38440000Y42666359D02*
X38440000Y42973641D01*
%TO.C,C29*%
X29896937Y9580000D02*
X37352500Y9580000D01*
X29896937Y18100000D02*
X37352500Y18100000D01*
X27592500Y16350000D02*
X28592500Y16350000D01*
X28832500Y17035563D02*
X28832500Y15350000D01*
X28832500Y10644437D02*
X29896937Y9580000D01*
X28832500Y10644437D02*
X28832500Y12330000D01*
X28832500Y17035563D02*
X29896937Y18100000D01*
X28092500Y16850000D02*
X28092500Y15850000D01*
X37352500Y18100000D02*
X37352500Y15350000D01*
X37352500Y9580000D02*
X37352500Y12330000D01*
%TO.C,R28*%
X11051041Y39557800D02*
X10743759Y39557800D01*
X11051041Y40317800D02*
X10743759Y40317800D01*
%TO.C,D2*%
X15655000Y20135000D02*
X15655000Y17850000D01*
X17125000Y20135000D02*
X15655000Y20135000D01*
X17125000Y17850000D02*
X17125000Y20135000D01*
%TO.C,R1*%
X22105000Y2267659D02*
X22105000Y2574941D01*
X21345000Y2267659D02*
X21345000Y2574941D01*
%TO.C,C27*%
X8690580Y21530000D02*
X8409420Y21530000D01*
X8690580Y20510000D02*
X8409420Y20510000D01*
%TO.C,U6*%
X9240000Y19710000D02*
X9240000Y13700000D01*
X9240000Y13700000D02*
X7980000Y13700000D01*
X2420000Y17460000D02*
X2420000Y13700000D01*
X2420000Y13700000D02*
X3680000Y13700000D01*
%TO.C,C28*%
X21165000Y10498748D02*
X21165000Y11021252D01*
X19695000Y10498748D02*
X19695000Y11021252D01*
%TO.C,U2*%
X26137000Y7381900D02*
X28087000Y7381900D01*
X26137000Y2261900D02*
X24187000Y2261900D01*
X26137000Y2261900D02*
X28087000Y2261900D01*
X26137000Y7381900D02*
X22687000Y7381900D01*
%TO.C,SW4*%
X12696000Y52637800D02*
X12996000Y52637800D01*
X12996000Y48497800D02*
X12696000Y48497800D01*
X12696000Y48497800D02*
X12696000Y52637800D01*
X15836000Y48497800D02*
X15536000Y48497800D01*
X15536000Y52637800D02*
X15836000Y52637800D01*
X15836000Y52637800D02*
X15836000Y48497800D01*
%TO.C,D8*%
X3483000Y51435600D02*
X5768000Y51435600D01*
X5768000Y52905600D02*
X3483000Y52905600D01*
X5768000Y51435600D02*
X5768000Y52905600D01*
%TO.C,C19*%
X16216600Y48836964D02*
X16216600Y49052636D01*
X16936600Y48836964D02*
X16936600Y49052636D01*
%TO.C,D7*%
X11661600Y54683600D02*
X9376600Y54683600D01*
X9376600Y53213600D02*
X11661600Y53213600D01*
X9376600Y54683600D02*
X9376600Y53213600D01*
%TO.C,Q4*%
X19389200Y24895800D02*
X20849200Y24895800D01*
X19389200Y21735800D02*
X21549200Y21735800D01*
X19389200Y21735800D02*
X19389200Y22665800D01*
X19389200Y24895800D02*
X19389200Y23965800D01*
%TO.C,C1*%
X23660000Y11648748D02*
X23660000Y13071252D01*
X21840000Y11648748D02*
X21840000Y13071252D01*
%TO.C,C8*%
X13240000Y10508748D02*
X13240000Y11931252D01*
X11420000Y10508748D02*
X11420000Y11931252D01*
%TO.C,R5*%
X11246359Y50040000D02*
X11553641Y50040000D01*
X11246359Y50800000D02*
X11553641Y50800000D01*
%TO.C,C18*%
X43908664Y45908300D02*
X44124336Y45908300D01*
X43908664Y46628300D02*
X44124336Y46628300D01*
%TO.C,R18*%
X39186359Y48850000D02*
X39493641Y48850000D01*
X39186359Y48090000D02*
X39493641Y48090000D01*
%TO.C,R30*%
X34302235Y22497882D02*
X33981118Y22176765D01*
X35341682Y21458435D02*
X35020565Y21137318D01*
%TO.C,U1*%
X42259445Y24378348D02*
X42772097Y24891000D01*
X35389903Y24891000D02*
X35902555Y24378348D01*
X39081000Y28582097D02*
X39593652Y28069445D01*
X38568348Y28069445D02*
X39081000Y28582097D01*
X35902555Y25403652D02*
X35389903Y24891000D01*
X39593652Y21712555D02*
X39081000Y21199903D01*
X39081000Y21199903D02*
X38568348Y21712555D01*
%TO.C,D12*%
X17862200Y35371800D02*
X17862200Y37371800D01*
X17862200Y35371800D02*
X14012200Y35371800D01*
X17862200Y37371800D02*
X14012200Y37371800D01*
%TO.C,C4*%
X24038748Y9445000D02*
X24561252Y9445000D01*
X24038748Y7975000D02*
X24561252Y7975000D01*
%TO.C,C2*%
X31127500Y7955000D02*
X31127500Y6955000D01*
X31867500Y8140563D02*
X32931937Y9205000D01*
X31867500Y8140563D02*
X31867500Y6455000D01*
X40387500Y9205000D02*
X40387500Y6455000D01*
X32931937Y9205000D02*
X40387500Y9205000D01*
X30627500Y7455000D02*
X31627500Y7455000D01*
X32931937Y685000D02*
X40387500Y685000D01*
X31867500Y1749437D02*
X31867500Y3435000D01*
X31867500Y1749437D02*
X32931937Y685000D01*
X40387500Y685000D02*
X40387500Y3435000D01*
%TO.C,D9*%
X5793400Y54632800D02*
X3508400Y54632800D01*
X3508400Y53162800D02*
X5793400Y53162800D01*
X5793400Y53162800D02*
X5793400Y54632800D01*
%TO.C,R27*%
X8676200Y1676641D02*
X8676200Y1369359D01*
X7916200Y1676641D02*
X7916200Y1369359D01*
%TO.C,C14*%
X28284400Y18762348D02*
X28284400Y19284852D01*
X26814400Y18762348D02*
X26814400Y19284852D01*
%TO.C,R25*%
X17111241Y41857200D02*
X16803959Y41857200D01*
X17111241Y41097200D02*
X16803959Y41097200D01*
%TO.C,C17*%
X45928664Y45908300D02*
X46144336Y45908300D01*
X45928664Y46628300D02*
X46144336Y46628300D01*
%TO.C,R15*%
X13856359Y45086000D02*
X14163641Y45086000D01*
X13856359Y44326000D02*
X14163641Y44326000D01*
%TO.C,C13*%
X41238400Y14164948D02*
X41238400Y14687452D01*
X39768400Y14164948D02*
X39768400Y14687452D01*
%TO.C,C24*%
X4522164Y30390000D02*
X4737836Y30390000D01*
X4522164Y29670000D02*
X4737836Y29670000D01*
%TO.C,C20*%
X47147500Y41422136D02*
X47147500Y41206464D01*
X47867500Y41422136D02*
X47867500Y41206464D01*
%TO.C,D11*%
X12096400Y3520200D02*
X12096400Y5520200D01*
X12096400Y5520200D02*
X8246400Y5520200D01*
X12096400Y3520200D02*
X8246400Y3520200D01*
%TO.C,Q2*%
X5480000Y2020000D02*
X4830000Y2020000D01*
X5480000Y2020000D02*
X7155000Y2020000D01*
X5480000Y5140000D02*
X6130000Y5140000D01*
X5480000Y5140000D02*
X4830000Y5140000D01*
%TO.C,D4*%
X34085600Y30349500D02*
X34085600Y32634500D01*
X32615600Y32634500D02*
X32615600Y30349500D01*
X32615600Y30349500D02*
X34085600Y30349500D01*
%TO.C,R6*%
X35964460Y19509859D02*
X36181741Y19727140D01*
X35427059Y20047260D02*
X35644340Y20264541D01*
D14*
%TO.C,J3*%
X11786600Y55890000D02*
X11786600Y56190000D01*
X4086600Y55540000D02*
X3586600Y55540000D01*
X3586600Y55540000D02*
X3586600Y56240000D01*
X11036600Y55540000D02*
X11486600Y55540000D01*
X3586600Y60640000D02*
X3586600Y61240000D01*
X11786600Y61240000D02*
X11136600Y61240000D01*
X3586600Y61240000D02*
X3986600Y61240000D01*
X11486600Y55540000D02*
X11786600Y55890000D01*
X11786600Y60690000D02*
X11786600Y61240000D01*
X11786600Y56190000D02*
X11936600Y56190000D01*
D13*
%TO.C,R16*%
X35190600Y31460641D02*
X35190600Y31153359D01*
X34430600Y31460641D02*
X34430600Y31153359D01*
%TO.C,R22*%
X5486359Y28560000D02*
X5793641Y28560000D01*
X5486359Y29320000D02*
X5793641Y29320000D01*
%TO.C,R2*%
X15232500Y2372742D02*
X15232500Y2847258D01*
X14187500Y2372742D02*
X14187500Y2847258D01*
%TO.C,C12*%
X37411852Y31522000D02*
X36889348Y31522000D01*
X37411852Y32992000D02*
X36889348Y32992000D01*
%TO.C,C11*%
X15961200Y10422548D02*
X15961200Y10945052D01*
X17431200Y10422548D02*
X17431200Y10945052D01*
%TO.C,R3*%
X20060000Y2226359D02*
X20060000Y2533641D01*
X20820000Y2226359D02*
X20820000Y2533641D01*
%TO.C,R14*%
X5373641Y38680000D02*
X5066359Y38680000D01*
X5373641Y39440000D02*
X5066359Y39440000D01*
%TO.C,Q1*%
X13107400Y37387800D02*
X13107400Y38037800D01*
X9987400Y37387800D02*
X9987400Y35712800D01*
X13107400Y37387800D02*
X13107400Y36737800D01*
X9987400Y37387800D02*
X9987400Y38037800D01*
%TO.C,R13*%
X13600000Y16033641D02*
X13600000Y15726359D01*
X12840000Y16033641D02*
X12840000Y15726359D01*
%TO.C,C15*%
X12278700Y52092564D02*
X12278700Y52308236D01*
X11558700Y52092564D02*
X11558700Y52308236D01*
%TO.C,C5*%
X21310000Y4462164D02*
X21310000Y4677836D01*
X22030000Y4462164D02*
X22030000Y4677836D01*
%TO.C,U3*%
X19328000Y59894000D02*
X19328000Y53474000D01*
X19328000Y53474000D02*
X18948000Y53474000D01*
X37568000Y34149000D02*
X36568000Y34149000D01*
X19328000Y34149000D02*
X20328000Y34149000D01*
X37568000Y34929000D02*
X37568000Y34149000D01*
X19328000Y34929000D02*
X19328000Y34149000D01*
X37568000Y59894000D02*
X37568000Y53474000D01*
X19328000Y59894000D02*
X37568000Y59894000D01*
%TO.C,R24*%
X10126000Y1575041D02*
X10126000Y1267759D01*
X10886000Y1575041D02*
X10886000Y1267759D01*
%TO.C,C26*%
X4707836Y43070000D02*
X4492164Y43070000D01*
X4707836Y42350000D02*
X4492164Y42350000D01*
%TO.C,R12*%
X15917441Y15925800D02*
X15610159Y15925800D01*
X15917441Y16685800D02*
X15610159Y16685800D01*
%TO.C,D6*%
X3496600Y20424200D02*
X3496600Y25824200D01*
X3496600Y20424200D02*
X6796600Y20424200D01*
X6796600Y20424200D02*
X6796600Y25824200D01*
%TO.C,D3*%
X13955000Y17880000D02*
X13955000Y20165000D01*
X12485000Y20165000D02*
X12485000Y17880000D01*
X13955000Y20165000D02*
X12485000Y20165000D01*
%TO.C,D1*%
X24180000Y10140000D02*
X24180000Y15540000D01*
X27480000Y10140000D02*
X27480000Y15540000D01*
X24180000Y10140000D02*
X27480000Y10140000D01*
%TO.C,C22*%
X42105336Y45844300D02*
X41889664Y45844300D01*
X42105336Y46564300D02*
X41889664Y46564300D01*
%TO.C,R20*%
X39186359Y46890000D02*
X39493641Y46890000D01*
X39186359Y47650000D02*
X39493641Y47650000D01*
%TO.C,Q3*%
X26709200Y24870800D02*
X26709200Y23940800D01*
X26709200Y24870800D02*
X24549200Y24870800D01*
X26709200Y21710800D02*
X26709200Y22640800D01*
X26709200Y21710800D02*
X25249200Y21710800D01*
%TO.C,C30*%
X19111200Y10365420D02*
X19111200Y10646580D01*
X18091200Y10365420D02*
X18091200Y10646580D01*
%TO.C,R26*%
X14825241Y41071800D02*
X14517959Y41071800D01*
X14825241Y41831800D02*
X14517959Y41831800D01*
%TO.C,D5*%
X11165000Y20135000D02*
X9695000Y20135000D01*
X11165000Y17850000D02*
X11165000Y20135000D01*
X9695000Y20135000D02*
X9695000Y17850000D01*
%TO.C,C9*%
X15348400Y10270148D02*
X15348400Y10792652D01*
X13878400Y10270148D02*
X13878400Y10792652D01*
%TO.C,R19*%
X37704041Y30220000D02*
X37396759Y30220000D01*
X37704041Y30980000D02*
X37396759Y30980000D01*
%TO.C,U5*%
X41344800Y42808111D02*
X41344800Y39480489D01*
X46450200Y39480489D02*
X46450200Y42808111D01*
X46450200Y41449100D02*
G75*
G03*
X46450200Y40839500I0J-304800D01*
G01*
%TO.C,C6*%
X18171252Y6520000D02*
X16748748Y6520000D01*
X18171252Y4700000D02*
X16748748Y4700000D01*
%TO.C,C7*%
X19495000Y2208748D02*
X19495000Y2731252D01*
X18025000Y2208748D02*
X18025000Y2731252D01*
%TO.C,R7*%
X43015645Y17205621D02*
X41987421Y18233845D01*
X44302579Y18492555D02*
X43274355Y19520779D01*
%TO.C,C25*%
X4861252Y43975000D02*
X4338748Y43975000D01*
X4861252Y45445000D02*
X4338748Y45445000D01*
%TO.C,U4*%
X12811200Y30662200D02*
X12811200Y31387200D01*
X12811200Y26167200D02*
X12086200Y26167200D01*
X12811200Y26892200D02*
X12811200Y26167200D01*
X7591200Y31387200D02*
X8316200Y31387200D01*
X7591200Y26167200D02*
X8316200Y26167200D01*
X7591200Y30662200D02*
X7591200Y31387200D01*
X7591200Y26892200D02*
X7591200Y26167200D01*
%TO.C,R29*%
X5120000Y6316359D02*
X5120000Y6623641D01*
X4360000Y6316359D02*
X4360000Y6623641D01*
%TO.C,D10*%
X17887600Y38140400D02*
X17887600Y40140400D01*
X17887600Y40140400D02*
X14037600Y40140400D01*
X17887600Y38140400D02*
X14037600Y38140400D01*
%TO.C,C3*%
X17335000Y2228748D02*
X17335000Y2751252D01*
X15865000Y2228748D02*
X15865000Y2751252D01*
%TO.C,R11*%
X14153241Y45467200D02*
X13845959Y45467200D01*
X14153241Y46227200D02*
X13845959Y46227200D01*
%TO.C,R10*%
X23382841Y24720800D02*
X23075559Y24720800D01*
X23382841Y23960800D02*
X23075559Y23960800D01*
%TO.C,R9*%
X23302841Y22655800D02*
X22995559Y22655800D01*
X23302841Y21895800D02*
X22995559Y21895800D01*
%TO.C,R23*%
X10050000Y16153641D02*
X10050000Y15846359D01*
X10810000Y16153641D02*
X10810000Y15846359D01*
%TO.C,SW1*%
X40540000Y48450000D02*
X40540000Y52590000D01*
X43680000Y48450000D02*
X43380000Y48450000D01*
X40840000Y48450000D02*
X40540000Y48450000D01*
X40540000Y52590000D02*
X40840000Y52590000D01*
X43380000Y52590000D02*
X43680000Y52590000D01*
X43680000Y52590000D02*
X43680000Y48450000D01*
D15*
%TO.C,L1*%
X41894800Y13981600D02*
X45163800Y13981600D01*
X54394800Y13981600D02*
X54394800Y1481600D01*
X45163800Y1481600D02*
X41894800Y1481600D01*
X54394800Y1481600D02*
X51025800Y1481600D01*
X51025800Y13981600D02*
X54394800Y13981600D01*
X41894800Y1481600D02*
X41894800Y13981600D01*
X51094800Y7681600D02*
G75*
G03*
X51094800Y7681600I-3000000J0D01*
G01*
D13*
%TO.C,C23*%
X4338748Y41445000D02*
X4861252Y41445000D01*
X4338748Y39975000D02*
X4861252Y39975000D01*
%TO.C,R8*%
X46647845Y25565979D02*
X45619621Y24537755D01*
X47934779Y24279045D02*
X46906555Y23250821D01*
%TO.C,C16*%
X46007836Y48990000D02*
X45792164Y48990000D01*
X46007836Y48270000D02*
X45792164Y48270000D01*
%TD*%
%LPC*%
D16*
%TO.C,C21*%
X28577800Y23265400D03*
X30127800Y23265400D03*
%TD*%
D17*
%TO.C,C10*%
X42778049Y31379351D03*
X44121551Y30035849D03*
%TD*%
D18*
%TO.C,D13*%
X6185000Y7517400D03*
X8985000Y7517400D03*
%TD*%
D19*
%TO.C,R4*%
X38820000Y42310000D03*
X38820000Y43330000D03*
%TD*%
D20*
%TO.C,C29*%
X29842500Y13840000D03*
X36342500Y13840000D03*
%TD*%
D21*
%TO.C,R28*%
X11407400Y39937800D03*
X10387400Y39937800D03*
%TD*%
D22*
%TO.C,D2*%
X16390000Y19437500D03*
X16390000Y17862500D03*
%TD*%
D19*
%TO.C,R1*%
X21725000Y1911300D03*
X21725000Y2931300D03*
%TD*%
D23*
%TO.C,C27*%
X9325000Y21020000D03*
X7775000Y21020000D03*
%TD*%
D24*
%TO.C,U6*%
X8130000Y18760000D03*
D25*
X5830000Y12460000D03*
D24*
X5830000Y18760000D03*
X3530000Y18760000D03*
%TD*%
D26*
%TO.C,C28*%
X20430000Y9810000D03*
X20430000Y11710000D03*
%TD*%
D27*
%TO.C,U2*%
X23499500Y6726900D03*
X23499500Y5456900D03*
X23499500Y4186900D03*
X23499500Y2916900D03*
X28774500Y2916900D03*
X28774500Y4186900D03*
X28774500Y5456900D03*
X28774500Y6726900D03*
D28*
X26137000Y4821900D03*
%TD*%
D29*
%TO.C,SW4*%
X14266000Y52667800D03*
X14266000Y48467800D03*
%TD*%
D30*
%TO.C,D8*%
X5070500Y52170600D03*
X3495500Y52170600D03*
%TD*%
D31*
%TO.C,C19*%
X16576600Y48464800D03*
X16576600Y49424800D03*
%TD*%
D32*
%TO.C,D7*%
X10074100Y53948600D03*
X11649100Y53948600D03*
%TD*%
D33*
%TO.C,Q4*%
X21149200Y22365800D03*
X21149200Y24265800D03*
X19149200Y23315800D03*
%TD*%
D34*
%TO.C,C1*%
X22750000Y10885000D03*
X22750000Y13835000D03*
%TD*%
%TO.C,C8*%
X12330000Y9745000D03*
X12330000Y12695000D03*
%TD*%
D35*
%TO.C,R5*%
X10890000Y50420000D03*
X11910000Y50420000D03*
%TD*%
D36*
%TO.C,C18*%
X43536500Y46268300D03*
X44496500Y46268300D03*
%TD*%
D35*
%TO.C,R18*%
X38830000Y48470000D03*
X39850000Y48470000D03*
%TD*%
D37*
%TO.C,R30*%
X35306635Y22462835D03*
X34016165Y21172365D03*
%TD*%
D38*
%TO.C,U1*%
X41882911Y25571590D03*
X41529357Y25925144D03*
X41175804Y26278697D03*
X40822250Y26632250D03*
X40468697Y26985804D03*
X40115144Y27339357D03*
X39761590Y27692911D03*
D39*
X38400410Y27692911D03*
X38046856Y27339357D03*
X37693303Y26985804D03*
X37339750Y26632250D03*
X36986196Y26278697D03*
X36632643Y25925144D03*
X36279089Y25571590D03*
D38*
X36279089Y24210410D03*
X36632643Y23856856D03*
X36986196Y23503303D03*
X37339750Y23149750D03*
X37693303Y22796196D03*
X38046856Y22442643D03*
X38400410Y22089089D03*
D39*
X39761590Y22089089D03*
X40115144Y22442643D03*
X40468697Y22796196D03*
X40822250Y23149750D03*
X41175804Y23503303D03*
X41529357Y23856856D03*
X41882911Y24210410D03*
D40*
X39081000Y24891000D03*
%TD*%
D18*
%TO.C,D12*%
X17062200Y36371800D03*
X14262200Y36371800D03*
%TD*%
D41*
%TO.C,C4*%
X23350000Y8710000D03*
X25250000Y8710000D03*
%TD*%
D20*
%TO.C,C2*%
X32877500Y4945000D03*
X39377500Y4945000D03*
%TD*%
D30*
%TO.C,D9*%
X5095900Y53897800D03*
X3520900Y53897800D03*
%TD*%
D42*
%TO.C,R27*%
X8296200Y2033000D03*
X8296200Y1013000D03*
%TD*%
D26*
%TO.C,C14*%
X27549400Y18073600D03*
X27549400Y19973600D03*
%TD*%
D21*
%TO.C,R25*%
X17467600Y41477200D03*
X16447600Y41477200D03*
%TD*%
D36*
%TO.C,C17*%
X45556500Y46268300D03*
X46516500Y46268300D03*
%TD*%
D35*
%TO.C,R15*%
X13500000Y44706000D03*
X14520000Y44706000D03*
%TD*%
D26*
%TO.C,C13*%
X40503400Y13476200D03*
X40503400Y15376200D03*
%TD*%
D36*
%TO.C,C24*%
X4150000Y30030000D03*
X5110000Y30030000D03*
%TD*%
D43*
%TO.C,C20*%
X47507500Y41794300D03*
X47507500Y40834300D03*
%TD*%
D18*
%TO.C,D11*%
X11296400Y4520200D03*
X8496400Y4520200D03*
%TD*%
D44*
%TO.C,Q2*%
X6417500Y2630000D03*
X6417500Y4530000D03*
X4542500Y3580000D03*
%TD*%
D45*
%TO.C,D4*%
X33350600Y31047000D03*
X33350600Y32622000D03*
%TD*%
D46*
%TO.C,R6*%
X35443776Y19526576D03*
X36165024Y20247824D03*
%TD*%
D47*
%TO.C,J3*%
X8986600Y55790000D03*
X8336600Y55790000D03*
X7686600Y55790000D03*
X7036600Y55790000D03*
X6386600Y55790000D03*
D48*
X10186600Y55790000D03*
X5186600Y55790000D03*
D49*
X11186600Y58490000D03*
X4186600Y58490000D03*
%TD*%
D42*
%TO.C,R16*%
X34810600Y31817000D03*
X34810600Y30797000D03*
%TD*%
D35*
%TO.C,R22*%
X5130000Y28940000D03*
X6150000Y28940000D03*
%TD*%
D50*
%TO.C,R2*%
X14710000Y1785000D03*
X14710000Y3435000D03*
%TD*%
D51*
%TO.C,C12*%
X38100600Y32257000D03*
X36200600Y32257000D03*
%TD*%
D26*
%TO.C,C11*%
X16696200Y9733800D03*
X16696200Y11633800D03*
%TD*%
D19*
%TO.C,R3*%
X20440000Y1870000D03*
X20440000Y2890000D03*
%TD*%
D21*
%TO.C,R14*%
X5730000Y39060000D03*
X4710000Y39060000D03*
%TD*%
D52*
%TO.C,Q1*%
X10597400Y36450300D03*
X12497400Y36450300D03*
X11547400Y38325300D03*
%TD*%
D42*
%TO.C,R13*%
X13220000Y16390000D03*
X13220000Y15370000D03*
%TD*%
D31*
%TO.C,C15*%
X11918700Y51720400D03*
X11918700Y52680400D03*
%TD*%
%TO.C,C5*%
X21670000Y4090000D03*
X21670000Y5050000D03*
%TD*%
D53*
%TO.C,U3*%
X19948000Y52284000D03*
X19948000Y51014000D03*
X19948000Y49744000D03*
X19948000Y48474000D03*
X19948000Y47204000D03*
X19948000Y45934000D03*
X19948000Y44664000D03*
X19948000Y43394000D03*
X19948000Y42124000D03*
X19948000Y40854000D03*
X19948000Y39584000D03*
X19948000Y38314000D03*
X19948000Y37044000D03*
X19948000Y35774000D03*
D54*
X22733000Y34774000D03*
X24003000Y34774000D03*
X25273000Y34774000D03*
X26543000Y34774000D03*
X27813000Y34774000D03*
X29083000Y34774000D03*
X30353000Y34774000D03*
X31623000Y34774000D03*
X32893000Y34774000D03*
X34163000Y34774000D03*
D53*
X36948000Y35774000D03*
X36948000Y37044000D03*
X36948000Y38314000D03*
X36948000Y39584000D03*
X36948000Y40854000D03*
X36948000Y42124000D03*
X36948000Y43394000D03*
X36948000Y44664000D03*
X36948000Y45934000D03*
X36948000Y47204000D03*
X36948000Y48474000D03*
X36948000Y49744000D03*
X36948000Y51014000D03*
X36948000Y52284000D03*
D55*
X27448000Y44784000D03*
%TD*%
D42*
%TO.C,R24*%
X10506000Y1931400D03*
X10506000Y911400D03*
%TD*%
D56*
%TO.C,C26*%
X5080000Y42710000D03*
X4120000Y42710000D03*
%TD*%
D21*
%TO.C,R12*%
X16273800Y16305800D03*
X15253800Y16305800D03*
%TD*%
D57*
%TO.C,D6*%
X5146600Y21824200D03*
X5146600Y25824200D03*
%TD*%
D22*
%TO.C,D3*%
X13220000Y19467500D03*
X13220000Y17892500D03*
%TD*%
D57*
%TO.C,D1*%
X25830000Y11540000D03*
X25830000Y15540000D03*
%TD*%
D56*
%TO.C,C22*%
X42477500Y46204300D03*
X41517500Y46204300D03*
%TD*%
D35*
%TO.C,R20*%
X38830000Y47270000D03*
X39850000Y47270000D03*
%TD*%
D33*
%TO.C,Q3*%
X24949200Y24240800D03*
X24949200Y22340800D03*
X26949200Y23290800D03*
%TD*%
D58*
%TO.C,C30*%
X18601200Y9731000D03*
X18601200Y11281000D03*
%TD*%
D21*
%TO.C,R26*%
X15181600Y41451800D03*
X14161600Y41451800D03*
%TD*%
D22*
%TO.C,D5*%
X10430000Y19437500D03*
X10430000Y17862500D03*
%TD*%
D26*
%TO.C,C9*%
X14613400Y9581400D03*
X14613400Y11481400D03*
%TD*%
D21*
%TO.C,R19*%
X38060400Y30600000D03*
X37040400Y30600000D03*
%TD*%
D59*
%TO.C,U5*%
X46172499Y43963700D03*
X45522501Y43963700D03*
X44872499Y43963700D03*
X44222501Y43963700D03*
X43572502Y43963700D03*
X42922501Y43963700D03*
X42272502Y43963700D03*
X41622501Y43963700D03*
X41622501Y38324900D03*
X42272499Y38324900D03*
X42922501Y38324900D03*
X43572499Y38324900D03*
X44222498Y38324900D03*
X44872499Y38324900D03*
X45522498Y38324900D03*
X46172499Y38324900D03*
%TD*%
D60*
%TO.C,C6*%
X18935000Y5610000D03*
X15985000Y5610000D03*
%TD*%
D26*
%TO.C,C7*%
X18760000Y1520000D03*
X18760000Y3420000D03*
%TD*%
D61*
%TO.C,R7*%
X44179144Y17329056D03*
X42110856Y19397344D03*
%TD*%
D51*
%TO.C,C25*%
X5550000Y44710000D03*
X3650000Y44710000D03*
%TD*%
D62*
%TO.C,U4*%
X11701200Y31227200D03*
X11201200Y31227200D03*
X10701200Y31227200D03*
X10201200Y31227200D03*
X9701200Y31227200D03*
X9201200Y31227200D03*
X8701200Y31227200D03*
D63*
X7751200Y30277200D03*
X7751200Y29777200D03*
X7751200Y29277200D03*
X7751200Y28777200D03*
X7751200Y28277200D03*
X7751200Y27777200D03*
X7751200Y27277200D03*
D62*
X8701200Y26327200D03*
X9201200Y26327200D03*
X9701200Y26327200D03*
X10201200Y26327200D03*
X10701200Y26327200D03*
X11201200Y26327200D03*
X11701200Y26327200D03*
D63*
X12651200Y27277200D03*
X12651200Y27777200D03*
X12651200Y28277200D03*
X12651200Y28777200D03*
X12651200Y29277200D03*
X12651200Y29777200D03*
X12651200Y30277200D03*
D64*
X10201200Y28777200D03*
%TD*%
D19*
%TO.C,R29*%
X4740000Y5960000D03*
X4740000Y6980000D03*
%TD*%
D18*
%TO.C,D10*%
X17087600Y39140400D03*
X14287600Y39140400D03*
%TD*%
D26*
%TO.C,C3*%
X16600000Y1540000D03*
X16600000Y3440000D03*
%TD*%
D21*
%TO.C,R11*%
X14509600Y45847200D03*
X13489600Y45847200D03*
%TD*%
%TO.C,R10*%
X23739200Y24340800D03*
X22719200Y24340800D03*
%TD*%
%TO.C,R9*%
X23659200Y22275800D03*
X22639200Y22275800D03*
%TD*%
D42*
%TO.C,R23*%
X10430000Y16510000D03*
X10430000Y15490000D03*
%TD*%
D65*
%TO.C,SW1*%
X42110000Y48420000D03*
X42110000Y52620000D03*
%TD*%
D66*
%TO.C,L1*%
X48094800Y2181600D03*
X48094800Y13181600D03*
%TD*%
D41*
%TO.C,C23*%
X3650000Y40710000D03*
X5550000Y40710000D03*
%TD*%
D67*
%TO.C,R8*%
X47811344Y25442544D03*
X45743056Y23374256D03*
%TD*%
D56*
%TO.C,C16*%
X46380000Y48630000D03*
X45420000Y48630000D03*
%TD*%
D68*
%TO.C,J1*%
X49721800Y16920000D03*
D69*
X51721800Y18520000D03*
D70*
X51721800Y21020000D03*
X51721800Y23520000D03*
X51721800Y26020000D03*
%TD*%
D68*
%TO.C,J2*%
X49725000Y32280000D03*
D69*
X51725000Y33880000D03*
D70*
X51725000Y36380000D03*
X51725000Y38880000D03*
X51725000Y41380000D03*
X51725000Y43880000D03*
X51725000Y46380000D03*
X51725000Y48880000D03*
X51725000Y51380000D03*
%TD*%
D68*
%TO.C,J4*%
X30410000Y29765000D03*
D71*
X28810000Y31765000D03*
D72*
X26310000Y31765000D03*
X23810000Y31765000D03*
X21310000Y31765000D03*
%TD*%
M02*
